<svg width="93" height="93" viewBox="0 0 93 93" fill="none" xmlns="http://www.w3.org/2000/svg">
<g filter="url(#filter0_d)">
<g filter="url(#filter1_f)">
<circle cx="46.5" cy="42.5" r="40.5" fill="#E6F7FA"/>
<circle cx="46.5" cy="42.5" r="40" stroke="#3C8994"/>
</g>
<mask id="path-3-inside-1" fill="white">
<path d="M68.25 40.25H63C62.5858 40.25 62.25 40.5858 62.25 41V43.25H55.5V42.5C55.5 42.0858 55.1642 41.75 54.75 41.75H51.75V38C51.75 37.5858 51.4142 37.25 51 37.25H48.75V32.75H50.925L55.4108 33.65C57.1488 33.9974 58.8394 32.8701 59.1868 31.1321C59.5343 29.394 58.4069 27.7034 56.6689 27.356C56.2537 27.273 55.8261 27.273 55.4108 27.356L50.925 28.25H48.75V26.75C48.75 26.3358 48.4142 26 48 26H45C44.5858 26 44.25 26.3358 44.25 26.75V28.25H42.075L37.5885 27.35C35.8505 27.0005 34.1582 28.1262 33.8087 29.8642C33.4592 31.6022 34.5848 33.2945 36.3229 33.644C36.5307 33.6858 36.7421 33.7069 36.9541 33.707C37.1672 33.7069 37.3796 33.6858 37.5886 33.644L42.075 32.75H44.25V37.25H42C41.5858 37.25 41.25 37.5858 41.25 38V41.75H38.25C37.8358 41.75 37.5 42.0858 37.5 42.5V44H33.75C28.3678 44.0062 24.0062 48.3678 24 53.75V58.25C24 58.6642 24.3358 59 24.75 59H32.25C32.6642 59 33 58.6642 33 58.25V53.75C33 53.3358 33.3358 53 33.75 53H37.5V54.5C37.5 54.9142 37.8358 55.25 38.25 55.25H54.75C55.1642 55.25 55.5 54.9142 55.5 54.5V53.75H62.25V56C62.25 56.4142 62.5858 56.75 63 56.75H68.25C68.6642 56.75 69 56.4142 69 56V41C69 40.5858 68.6642 40.25 68.25 40.25ZM48.75 29.75H51C51.0504 29.7505 51.1007 29.7454 51.15 29.735L55.7085 28.8237C56.6343 28.6392 57.5344 29.24 57.719 30.1658C57.9036 31.0916 57.3027 31.9917 56.3769 32.1762C56.1562 32.2202 55.9291 32.2202 55.7084 32.1762L51.1499 31.265C51.1006 31.2546 51.0503 31.2495 50.9999 31.25H48.7499V29.75H48.75ZM37.5 51.5H33.75C32.5073 51.5 31.5 52.5073 31.5 53.75V57.5H25.5V53.75C25.5053 49.1959 29.1959 45.5053 33.75 45.5H37.5V51.5ZM45.75 27.5H47.25V28.25H45.75V27.5ZM45.75 29.75H47.25V31.25H45.75V29.75ZM45.75 32.75H47.25V37.25H45.75V32.75ZM42 31.25C41.9496 31.2495 41.8993 31.2546 41.85 31.265L37.2915 32.1762C36.3657 32.3608 35.4656 31.76 35.281 30.8342C35.0964 29.9084 35.6973 29.0083 36.6231 28.8237C36.8438 28.7798 37.0709 28.7798 37.2916 28.8237L41.8501 29.735C41.8994 29.7454 41.9497 29.7505 42.0001 29.75H44.2501V31.25H42ZM42.75 38.75H50.25V41.75H42.75V38.75ZM54 53.75H39V43.25H54V53.75ZM62.25 52.25H55.5V44.75H62.25V52.25ZM67.5 55.25H63.75V41.75H67.5V55.25Z"/>
</mask>
<path d="M68.25 40.25H63C62.5858 40.25 62.25 40.5858 62.25 41V43.25H55.5V42.5C55.5 42.0858 55.1642 41.75 54.75 41.75H51.75V38C51.75 37.5858 51.4142 37.25 51 37.25H48.75V32.75H50.925L55.4108 33.65C57.1488 33.9974 58.8394 32.8701 59.1868 31.1321C59.5343 29.394 58.4069 27.7034 56.6689 27.356C56.2537 27.273 55.8261 27.273 55.4108 27.356L50.925 28.25H48.75V26.75C48.75 26.3358 48.4142 26 48 26H45C44.5858 26 44.25 26.3358 44.25 26.75V28.25H42.075L37.5885 27.35C35.8505 27.0005 34.1582 28.1262 33.8087 29.8642C33.4592 31.6022 34.5848 33.2945 36.3229 33.644C36.5307 33.6858 36.7421 33.7069 36.9541 33.707C37.1672 33.7069 37.3796 33.6858 37.5886 33.644L42.075 32.75H44.25V37.25H42C41.5858 37.25 41.25 37.5858 41.25 38V41.75H38.25C37.8358 41.75 37.5 42.0858 37.5 42.5V44H33.75C28.3678 44.0062 24.0062 48.3678 24 53.75V58.25C24 58.6642 24.3358 59 24.75 59H32.25C32.6642 59 33 58.6642 33 58.25V53.75C33 53.3358 33.3358 53 33.75 53H37.5V54.5C37.5 54.9142 37.8358 55.25 38.25 55.25H54.75C55.1642 55.25 55.5 54.9142 55.5 54.5V53.75H62.25V56C62.25 56.4142 62.5858 56.75 63 56.75H68.25C68.6642 56.75 69 56.4142 69 56V41C69 40.5858 68.6642 40.25 68.25 40.25ZM48.75 29.75H51C51.0504 29.7505 51.1007 29.7454 51.15 29.735L55.7085 28.8237C56.6343 28.6392 57.5344 29.24 57.719 30.1658C57.9036 31.0916 57.3027 31.9917 56.3769 32.1762C56.1562 32.2202 55.9291 32.2202 55.7084 32.1762L51.1499 31.265C51.1006 31.2546 51.0503 31.2495 50.9999 31.25H48.7499V29.75H48.75ZM37.5 51.5H33.75C32.5073 51.5 31.5 52.5073 31.5 53.75V57.5H25.5V53.75C25.5053 49.1959 29.1959 45.5053 33.75 45.5H37.5V51.5ZM45.75 27.5H47.25V28.25H45.75V27.5ZM45.75 29.75H47.25V31.25H45.75V29.75ZM45.75 32.75H47.25V37.25H45.75V32.75ZM42 31.25C41.9496 31.2495 41.8993 31.2546 41.85 31.265L37.2915 32.1762C36.3657 32.3608 35.4656 31.76 35.281 30.8342C35.0964 29.9084 35.6973 29.0083 36.6231 28.8237C36.8438 28.7798 37.0709 28.7798 37.2916 28.8237L41.8501 29.735C41.8994 29.7454 41.9497 29.7505 42.0001 29.75H44.2501V31.25H42ZM42.75 38.75H50.25V41.75H42.75V38.75ZM54 53.75H39V43.25H54V53.75ZM62.25 52.25H55.5V44.75H62.25V52.25ZM67.5 55.25H63.75V41.75H67.5V55.25Z" fill="#287CAB" stroke="#287CAB" stroke-width="2" mask="url(#path-3-inside-1)"/>
</g>
<defs>
<filter id="filter0_d" x="0" y="0" width="93" height="93" filterUnits="userSpaceOnUse" color-interpolation-filters="sRGB">
<feFlood flood-opacity="0" result="BackgroundImageFix"/>
<feColorMatrix in="SourceAlpha" type="matrix" values="0 0 0 0 0 0 0 0 0 0 0 0 0 0 0 0 0 0 127 0" result="hardAlpha"/>
<feOffset dy="4"/>
<feGaussianBlur stdDeviation="3"/>
<feColorMatrix type="matrix" values="0 0 0 0 0.65 0 0 0 0 0.639167 0 0 0 0 0.639167 0 0 0 0.25 0"/>
<feBlend mode="normal" in2="BackgroundImageFix" result="effect1_dropShadow"/>
<feBlend mode="normal" in="SourceGraphic" in2="effect1_dropShadow" result="shape"/>
</filter>
<filter id="filter1_f" x="5" y="1" width="83" height="83" filterUnits="userSpaceOnUse" color-interpolation-filters="sRGB">
<feFlood flood-opacity="0" result="BackgroundImageFix"/>
<feBlend mode="normal" in="SourceGraphic" in2="BackgroundImageFix" result="shape"/>
<feGaussianBlur stdDeviation="0.5" result="effect1_foregroundBlur"/>
</filter>
</defs>
</svg>
