<svg width="106" height="66" viewBox="0 0 106 66" fill="none" xmlns="http://www.w3.org/2000/svg">
<path d="M83.376 45.2504C81.3037 40.9298 73.89 34.9328 66.7273 29.1383C62.7322 25.9088 58.9572 22.8554 56.5506 20.4488C55.9477 19.8416 55.0458 19.6479 54.2495 19.934C52.7669 20.4708 51.8516 20.8844 51.1302 21.2055C50.0303 21.6982 49.6607 21.8654 48.1778 22.015C47.5222 22.081 46.9328 22.433 46.5675 22.9785C43.4568 27.629 40.2362 27.233 38.0847 26.5116C37.3983 26.2829 37.2752 25.988 37.2092 25.7064C36.7472 23.775 39.066 19.2784 42.0709 16.2732C49.2206 9.1192 52.9075 7.32841 60.6952 10.8087C69.5299 14.7596 78.3823 17.8528 78.4703 17.8836C79.6276 18.2839 80.8726 17.6767 81.2729 16.5284C81.6689 15.38 81.0661 14.1261 79.9177 13.7258C79.8297 13.695 71.1534 10.6635 62.4946 6.78724C52.406 2.27739 46.8709 5.24725 38.9645 13.1582C35.955 16.1676 31.8676 22.2569 32.9235 26.7228C33.3766 28.6235 34.7143 30.0315 36.7029 30.6869C41.6879 32.3325 46.2371 30.7573 49.625 26.2608C51.0242 26.0453 51.7854 25.7285 52.9292 25.2137C53.3427 25.0289 53.8267 24.8134 54.4692 24.5538C56.9859 26.9165 60.3825 29.6663 63.9595 32.5569C70.4272 37.7882 77.7617 43.7192 79.4116 47.1511C80.2257 48.8449 79.35 49.9493 78.756 50.4552C77.8848 51.2033 76.6926 51.4408 76.0458 50.9875C75.333 50.4992 74.4047 50.4684 73.6699 50.9083C72.9307 51.3482 72.5172 52.1798 72.6096 53.0334C72.7592 54.4326 71.4788 55.2334 70.9244 55.5106C69.5164 56.2233 68.047 56.1002 67.4969 55.5898C66.8809 55.0179 65.9965 54.8506 65.2135 55.141C64.4304 55.4357 63.8847 56.1573 63.8055 56.9932C63.6735 58.4363 62.6043 59.8222 61.2095 60.3634C60.5363 60.6185 59.5596 60.7726 58.6841 59.9718C58.1386 59.479 57.3817 59.2897 56.6735 59.4613C55.9564 59.6372 55.3799 60.1565 55.1292 60.8472C55.0456 61.0673 54.8563 61.5953 52.7972 61.5953C51.3321 61.5953 48.6965 60.6053 47.4075 59.7517C45.8632 58.7353 36.1792 51.511 27.8154 44.5064C26.6406 43.5165 24.6079 41.3957 22.8128 39.5214C21.22 37.8583 19.7638 36.3492 19.0157 35.7157C18.0786 34.9237 16.6926 35.0425 15.9139 35.9753C15.1308 36.9036 15.2451 38.2941 16.1735 39.0772C16.8556 39.6536 18.1755 41.0482 19.6318 42.5661C21.5941 44.6164 23.6223 46.7371 24.9864 47.8811C33.1788 54.7405 43.0256 62.1453 44.9877 63.4343C46.6069 64.4991 50.0959 65.995 52.7974 65.995C54.9664 65.995 56.6341 65.4977 57.7911 64.5255C59.3397 65.1284 61.0998 65.1327 62.7936 64.4727C64.7956 63.6983 66.441 62.1364 67.3738 60.2446C69.1073 60.6142 71.0917 60.3545 72.8955 59.4483C74.6599 58.5596 75.9357 57.2001 76.5692 55.6116C78.3204 55.704 80.1242 55.0837 81.6157 53.8033C84.1415 51.6432 84.8366 48.2819 83.376 45.2504Z" fill="#A7D7DE"/>
<path d="M43.9978 8.7981H24.1987C22.9844 8.7981 21.9988 9.78372 21.9988 10.9981C21.9988 12.2124 22.9844 13.198 24.1987 13.198H43.9978C45.2121 13.198 46.1977 12.2124 46.1977 10.9981C46.1977 9.78372 45.2121 8.7981 43.9978 8.7981Z" fill="#A7D7DE"/>
<path d="M89.8216 40.5689C89.1395 39.5614 87.7757 39.2843 86.7682 39.9706L80.3358 44.2911C79.3283 44.9686 79.0598 46.337 79.7375 47.3445C80.1642 47.9738 80.8594 48.3169 81.5679 48.3169C81.9859 48.3169 82.4126 48.1982 82.7911 47.943L89.2235 43.6225C90.2308 42.9448 90.4991 41.5766 89.8216 40.5689Z" fill="#A7D7DE"/>
<path d="M76.1646 51.067C74.5895 49.8262 67.5454 42.615 63.1896 38.0745C62.3492 37.1944 60.9546 37.1637 60.0789 38.0085C59.1989 38.8489 59.1725 40.2435 60.0129 41.1192C61.1437 42.2983 71.1179 52.695 73.4366 54.5254C73.837 54.8422 74.321 54.9962 74.7962 54.9962C75.4429 54.9962 76.0897 54.7059 76.5296 54.1558C77.2822 53.2053 77.1195 51.8193 76.1646 51.067Z" fill="#A7D7DE"/>
<path d="M67.3738 55.4799C64.7383 53.3723 58.1167 46.337 56.6207 44.7092C55.7934 43.8116 54.4075 43.7588 53.51 44.5772C52.6167 45.3999 52.5553 46.7947 53.378 47.6879C53.4572 47.7714 61.3592 56.3028 64.6238 58.9162C65.0287 59.2373 65.517 59.3957 65.9965 59.3957C66.639 59.3957 67.2812 59.1097 67.7168 58.573C68.4739 57.6225 68.3198 56.2366 67.3738 55.4799Z" fill="#A7D7DE"/>
<path d="M58.6183 59.9105C55.4812 57.2663 49.062 50.4334 47.808 49.0914C46.9765 48.2027 45.5817 48.1542 44.6973 48.9858C43.8086 49.8173 43.7645 51.2076 44.5917 52.0965C46.3957 54.0279 52.5377 60.5397 55.7804 63.2763C56.194 63.6238 56.6955 63.7954 57.1971 63.7954C57.8218 63.7954 58.4467 63.5271 58.8823 63.0123C59.6654 62.0795 59.5466 60.6936 58.6183 59.9105Z" fill="#A7D7DE"/>
<path d="M25.7123 5.00121C21.9416 1.42852 6.86366 0.271309 2.33195 0.00299061C1.70725 -0.0277391 1.13081 0.178914 0.690903 0.596962C0.250788 1.01047 0 1.59124 0 2.19841V41.7965C0 43.0108 0.98562 43.9964 2.19996 43.9964H15.3993C16.3497 43.9964 17.1944 43.3849 17.4891 42.4785C17.8103 41.4929 25.3912 18.227 26.3898 6.78746C26.4472 6.11862 26.2007 5.45865 25.7123 5.00121ZM13.7933 39.5967H4.39971V4.55677C11.4702 5.11547 19.0995 6.32981 21.8713 7.67614C20.7054 17.3117 15.43 34.4312 13.7933 39.5967Z" fill="#A7D7DE"/>
<path d="M103.395 4.39838C86.1212 4.39838 76.5385 8.82016 76.1382 9.00495C75.5663 9.27327 75.1394 9.77051 74.9634 10.3733C74.7875 10.9762 74.8754 11.623 75.2054 12.1596C77.9244 16.5374 86.438 40.8507 88.0747 46.7815C88.3387 47.7362 89.2055 48.3961 90.1955 48.3961H103.395C104.609 48.3961 105.595 47.4105 105.595 46.1962V6.59813C105.595 5.37946 104.609 4.39838 103.395 4.39838ZM101.195 43.9964H91.8411C89.7556 37.2031 83.5958 19.4896 80.1597 12.1685C83.5166 11.029 90.728 9.07095 101.195 8.8247V43.9964Z" fill="#A7D7DE"/>
</svg>
