<svg width="34" height="34" viewBox="0 0 34 34" fill="none" xmlns="http://www.w3.org/2000/svg">
<circle cx="17" cy="17" r="17" fill="#3C8994"/>
<path d="M26.5059 15.0071C26.8353 15.0071 27 15.1796 27 15.5247V18.7859C27 19.131 26.8353 19.3035 26.5059 19.3035H18.7482C18.6165 19.3035 18.5506 19.3725 18.5506 19.5106V27.4824C18.5506 27.8274 18.3859 28 18.0565 28H14.9435C14.6141 28 14.4494 27.8274 14.4494 27.4824V19.5106C14.4494 19.3725 14.3835 19.3035 14.2518 19.3035H6.49412C6.16471 19.3035 6 19.131 6 18.7859V15.5247C6 15.1796 6.16471 15.0071 6.49412 15.0071H14.2518C14.3835 15.0071 14.4494 14.938 14.4494 14.8V6.51765C14.4494 6.17255 14.6141 6 14.9435 6H18.0565C18.3859 6 18.5506 6.17255 18.5506 6.51765V14.8C18.5506 14.938 18.6165 15.0071 18.7482 15.0071H26.5059Z" fill="#CEE7F5"/>
</svg>
