<svg width="51" height="35" viewBox="0 0 51 35" fill="none" xmlns="http://www.w3.org/2000/svg">
<mask id="path-1-inside-1" fill="white">
<path d="M50.0228 19.409C49.963 18.0234 48.6072 16.9168 45.9855 16.1193C43.9519 15.5113 41.37 15.1424 38.5788 15.0826V4.44603C38.5688 4.26659 38.5189 4.09712 38.4292 3.94759C38.1501 2.74138 36.8043 1.76445 34.4218 1.04671C32.1789 0.368841 29.2481 0 26.1678 0C23.0974 0 20.1965 0.368841 17.9934 1.04671C16.1891 1.60496 14.0259 2.6417 14.0259 4.42609C14.0259 4.53574 14.0359 4.6454 14.0558 4.75505L14.1655 9.30077C7.68584 8.06465 1.43549 12.3213 0.209342 18.7909C0.0697807 19.5286 0 20.2663 0 21.014C0 27.5933 5.35318 32.9465 11.9325 32.9465C14.6739 32.9465 17.3255 32.0094 19.4489 30.2749C21.313 30.7135 23.5061 30.9527 25.8288 30.9727C26.3372 33.734 32.3184 35 37.8909 35C40.9613 35 43.8621 34.6212 46.0652 33.9333C47.8695 33.3751 50.0327 32.3284 50.0327 30.544V19.5984C50.0327 19.5386 50.0327 19.4688 50.0228 19.409ZM36.4953 9.9587C36.4953 10.0883 36.0168 10.7761 33.8536 11.4341C31.83 12.0422 29.0288 12.401 26.1777 12.401C23.7155 12.401 21.303 12.1418 19.3891 11.6534C19.3592 11.6434 19.3392 11.6434 19.3093 11.6334C18.3623 10.8858 17.3156 10.2877 16.1891 9.86898L16.1193 7.05782C16.8072 7.40672 17.5249 7.68584 18.2726 7.88522C20.4358 8.51324 23.237 8.85218 26.1777 8.85218C29.2481 8.85218 32.1888 8.48334 34.4318 7.80547C35.1794 7.58616 35.9071 7.29707 36.595 6.93819V9.54998C36.4853 9.68955 36.4953 9.81914 36.4953 9.9587ZM18.5916 2.97066C20.6052 2.35261 23.2968 2.0037 26.1678 2.0037C29.0188 2.0037 31.82 2.35261 33.8436 2.97066C36.0068 3.6286 36.4853 4.30647 36.4853 4.43606C36.4853 4.57562 35.9969 5.26346 33.8337 5.91142C31.81 6.51951 29.0188 6.86841 26.1678 6.86841C23.4164 6.86841 20.8046 6.54942 18.8208 5.97123C16.6776 5.35318 16.0795 4.67531 16.0296 4.456C16.0296 4.43606 16.0197 4.43606 16.0197 4.43606C16.0296 4.24665 16.4882 3.60866 18.5916 2.97066ZM18.6215 28.3708C14.5642 32.0592 8.274 31.7702 4.58559 27.7129C0.89718 23.6557 1.18627 17.3654 5.24352 13.677C7.06779 12.0122 9.46027 11.0951 11.9325 11.0951C12.9294 11.0951 13.9163 11.2447 14.8733 11.5338C18.3324 12.6104 20.9342 15.4813 21.6719 19.0202C21.8015 19.6782 21.8713 20.356 21.8713 21.0239C21.8812 23.8251 20.695 26.4868 18.6215 28.3708ZM21.1535 28.5901C21.961 27.6032 22.6089 26.4967 23.0675 25.3105C23.9148 25.3802 24.7921 25.4301 25.7092 25.44V25.6195L25.769 28.9989C24.2239 28.9789 22.6787 28.8394 21.1535 28.5901ZM23.8151 19.8377C24.3933 19.8775 25.0014 19.8975 25.6195 19.9074L25.6793 23.4363C24.9815 23.4264 24.2936 23.3965 23.6357 23.3466C23.7852 22.579 23.865 21.7915 23.865 21.014C23.865 20.6252 23.8451 20.2364 23.8151 19.8377ZM26.2674 17.9237C26.2375 17.9237 26.1977 17.9237 26.1678 17.9237C25.2108 17.9237 24.2837 17.8838 23.4264 17.824C23.0476 16.4882 22.4494 15.2321 21.642 14.1156C23.1373 14.305 24.6425 14.4047 26.1578 14.4047C29.2381 14.4047 32.1789 14.0359 34.4218 13.358C35.1695 13.1387 35.8872 12.8496 36.575 12.5007V15.1125C32.2985 15.2321 27.9023 16.1293 26.2674 17.9237ZM27.5833 19.5087C27.5833 19.4987 27.5833 19.4888 27.5933 19.4688C27.683 19.1997 28.3908 18.5417 30.4543 17.9635C32.3882 17.4153 34.9103 17.1162 37.5619 17.1162H37.7314C40.5825 17.1162 43.3737 17.4452 45.4073 18.0632C47.5306 18.7012 48.029 19.3592 48.039 19.5087V19.5187C48.029 19.6682 47.5306 20.356 45.3176 21.014C43.274 21.622 40.5825 21.951 37.7414 21.951C34.99 21.951 32.3782 21.632 30.3945 21.0638C28.2512 20.4457 27.6631 19.7579 27.6032 19.5486C27.5833 19.5087 27.5833 19.5087 27.5833 19.5087ZM45.487 32.0393C43.4734 32.6673 40.7719 33.0162 37.9009 33.0162C35.0199 33.0162 32.3284 32.6773 30.3347 32.0692C28.2313 31.4212 27.7926 30.7533 27.7926 30.6038C27.7926 30.5938 27.7926 30.5938 27.7926 30.5839L27.7428 27.693C28.5403 28.0817 29.3677 28.3808 30.225 28.6001C32.3184 29.1484 34.9801 29.4574 37.7115 29.4574C40.7918 29.4574 43.7126 29.0886 45.9456 28.4107C46.6733 28.1914 47.3711 27.9023 48.039 27.5634V30.554H48.049C48.049 30.6935 47.5904 31.3814 45.487 32.0393ZM48.059 24.7024H48.049C48.049 24.8021 47.9892 24.9217 47.9892 25.0313C47.9892 25.1709 47.5206 25.8488 45.3674 26.5067C43.3238 27.1248 40.6024 27.4637 37.7214 27.4637C32.1988 27.4637 28.4805 26.2176 27.7029 25.2506L27.693 24.4133L27.6531 22.1205C28.3509 22.4694 29.0786 22.7485 29.8263 22.9578C31.9895 23.5859 34.7907 23.9248 37.7314 23.9248C40.7619 23.9248 43.6528 23.5659 45.8758 22.908C46.6334 22.6987 47.3611 22.4096 48.059 22.0507V24.7024Z"/>
</mask>
<path d="M50.0228 19.409C49.963 18.0234 48.6072 16.9168 45.9855 16.1193C43.9519 15.5113 41.37 15.1424 38.5788 15.0826V4.44603C38.5688 4.26659 38.5189 4.09712 38.4292 3.94759C38.1501 2.74138 36.8043 1.76445 34.4218 1.04671C32.1789 0.368841 29.2481 0 26.1678 0C23.0974 0 20.1965 0.368841 17.9934 1.04671C16.1891 1.60496 14.0259 2.6417 14.0259 4.42609C14.0259 4.53574 14.0359 4.6454 14.0558 4.75505L14.1655 9.30077C7.68584 8.06465 1.43549 12.3213 0.209342 18.7909C0.0697807 19.5286 0 20.2663 0 21.014C0 27.5933 5.35318 32.9465 11.9325 32.9465C14.6739 32.9465 17.3255 32.0094 19.4489 30.2749C21.313 30.7135 23.5061 30.9527 25.8288 30.9727C26.3372 33.734 32.3184 35 37.8909 35C40.9613 35 43.8621 34.6212 46.0652 33.9333C47.8695 33.3751 50.0327 32.3284 50.0327 30.544V19.5984C50.0327 19.5386 50.0327 19.4688 50.0228 19.409ZM36.4953 9.9587C36.4953 10.0883 36.0168 10.7761 33.8536 11.4341C31.83 12.0422 29.0288 12.401 26.1777 12.401C23.7155 12.401 21.303 12.1418 19.3891 11.6534C19.3592 11.6434 19.3392 11.6434 19.3093 11.6334C18.3623 10.8858 17.3156 10.2877 16.1891 9.86898L16.1193 7.05782C16.8072 7.40672 17.5249 7.68584 18.2726 7.88522C20.4358 8.51324 23.237 8.85218 26.1777 8.85218C29.2481 8.85218 32.1888 8.48334 34.4318 7.80547C35.1794 7.58616 35.9071 7.29707 36.595 6.93819V9.54998C36.4853 9.68955 36.4953 9.81914 36.4953 9.9587ZM18.5916 2.97066C20.6052 2.35261 23.2968 2.0037 26.1678 2.0037C29.0188 2.0037 31.82 2.35261 33.8436 2.97066C36.0068 3.6286 36.4853 4.30647 36.4853 4.43606C36.4853 4.57562 35.9969 5.26346 33.8337 5.91142C31.81 6.51951 29.0188 6.86841 26.1678 6.86841C23.4164 6.86841 20.8046 6.54942 18.8208 5.97123C16.6776 5.35318 16.0795 4.67531 16.0296 4.456C16.0296 4.43606 16.0197 4.43606 16.0197 4.43606C16.0296 4.24665 16.4882 3.60866 18.5916 2.97066ZM18.6215 28.3708C14.5642 32.0592 8.274 31.7702 4.58559 27.7129C0.89718 23.6557 1.18627 17.3654 5.24352 13.677C7.06779 12.0122 9.46027 11.0951 11.9325 11.0951C12.9294 11.0951 13.9163 11.2447 14.8733 11.5338C18.3324 12.6104 20.9342 15.4813 21.6719 19.0202C21.8015 19.6782 21.8713 20.356 21.8713 21.0239C21.8812 23.8251 20.695 26.4868 18.6215 28.3708ZM21.1535 28.5901C21.961 27.6032 22.6089 26.4967 23.0675 25.3105C23.9148 25.3802 24.7921 25.4301 25.7092 25.44V25.6195L25.769 28.9989C24.2239 28.9789 22.6787 28.8394 21.1535 28.5901ZM23.8151 19.8377C24.3933 19.8775 25.0014 19.8975 25.6195 19.9074L25.6793 23.4363C24.9815 23.4264 24.2936 23.3965 23.6357 23.3466C23.7852 22.579 23.865 21.7915 23.865 21.014C23.865 20.6252 23.8451 20.2364 23.8151 19.8377ZM26.2674 17.9237C26.2375 17.9237 26.1977 17.9237 26.1678 17.9237C25.2108 17.9237 24.2837 17.8838 23.4264 17.824C23.0476 16.4882 22.4494 15.2321 21.642 14.1156C23.1373 14.305 24.6425 14.4047 26.1578 14.4047C29.2381 14.4047 32.1789 14.0359 34.4218 13.358C35.1695 13.1387 35.8872 12.8496 36.575 12.5007V15.1125C32.2985 15.2321 27.9023 16.1293 26.2674 17.9237ZM27.5833 19.5087C27.5833 19.4987 27.5833 19.4888 27.5933 19.4688C27.683 19.1997 28.3908 18.5417 30.4543 17.9635C32.3882 17.4153 34.9103 17.1162 37.5619 17.1162H37.7314C40.5825 17.1162 43.3737 17.4452 45.4073 18.0632C47.5306 18.7012 48.029 19.3592 48.039 19.5087V19.5187C48.029 19.6682 47.5306 20.356 45.3176 21.014C43.274 21.622 40.5825 21.951 37.7414 21.951C34.99 21.951 32.3782 21.632 30.3945 21.0638C28.2512 20.4457 27.6631 19.7579 27.6032 19.5486C27.5833 19.5087 27.5833 19.5087 27.5833 19.5087ZM45.487 32.0393C43.4734 32.6673 40.7719 33.0162 37.9009 33.0162C35.0199 33.0162 32.3284 32.6773 30.3347 32.0692C28.2313 31.4212 27.7926 30.7533 27.7926 30.6038C27.7926 30.5938 27.7926 30.5938 27.7926 30.5839L27.7428 27.693C28.5403 28.0817 29.3677 28.3808 30.225 28.6001C32.3184 29.1484 34.9801 29.4574 37.7115 29.4574C40.7918 29.4574 43.7126 29.0886 45.9456 28.4107C46.6733 28.1914 47.3711 27.9023 48.039 27.5634V30.554H48.049C48.049 30.6935 47.5904 31.3814 45.487 32.0393ZM48.059 24.7024H48.049C48.049 24.8021 47.9892 24.9217 47.9892 25.0313C47.9892 25.1709 47.5206 25.8488 45.3674 26.5067C43.3238 27.1248 40.6024 27.4637 37.7214 27.4637C32.1988 27.4637 28.4805 26.2176 27.7029 25.2506L27.693 24.4133L27.6531 22.1205C28.3509 22.4694 29.0786 22.7485 29.8263 22.9578C31.9895 23.5859 34.7907 23.9248 37.7314 23.9248C40.7619 23.9248 43.6528 23.5659 45.8758 22.908C46.6334 22.6987 47.3611 22.4096 48.059 22.0507V24.7024Z" fill="#4898C5" stroke="#4898C5" stroke-width="2" mask="url(#path-1-inside-1)"/>
<path d="M15.0799 22.5653L15.0801 22.5659C15.5724 24.3021 14.5628 26.1005 12.8229 26.5939L12.4593 26.697V27.0749V27.9521C12.4593 28.2243 12.2345 28.449 11.9624 28.449C11.6903 28.449 11.4655 28.2243 11.4655 27.9521V27.0849V26.703L11.0971 26.6025C9.67025 26.2134 8.68371 24.9256 8.67432 23.4451C8.67501 23.1735 8.89947 22.9494 9.17118 22.9494C9.44332 22.9494 9.66805 23.1742 9.66805 23.4463C9.66805 24.703 10.6931 25.7108 11.9425 25.7108C13.1992 25.7108 14.2069 24.6857 14.2069 23.4363C14.2069 22.1796 13.1819 21.1719 11.9325 21.1719C10.4553 21.1719 9.16751 20.1786 8.78703 18.7518L8.78679 18.7509C8.32049 17.0153 9.35689 15.225 11.0953 14.758L11.4655 14.6585V14.2751V13.8465C11.4655 13.5743 11.6903 13.3496 11.9624 13.3496C12.2345 13.3496 12.4593 13.5743 12.4593 13.8465V14.2951V14.6735L12.8235 14.7763C14.2317 15.1737 15.2007 16.4615 15.2007 17.9237C15.2007 18.1958 14.9759 18.4205 14.7038 18.4205C14.4317 18.4205 14.2069 18.1958 14.2069 17.9237C14.2069 16.6706 13.1856 15.6492 11.9325 15.6492C10.6767 15.6492 9.6708 16.6623 9.65811 17.9186L9.65808 17.9186V17.9237C9.65808 19.1804 10.6831 20.1881 11.9325 20.1881C13.3947 20.1881 14.6825 21.1571 15.0799 22.5653Z" fill="#4898C5" stroke="#4898C5"/>
</svg>
