<svg width="17" height="18" viewBox="0 0 17 18" fill="none" xmlns="http://www.w3.org/2000/svg">
<path d="M14.1667 12.7059C14.934 12.7059 15.5833 12.9741 16.1146 13.5106C16.6458 14.0188 16.9115 14.6259 16.9115 15.3318C16.9115 16.0659 16.6311 16.7012 16.0703 17.2376C15.5391 17.7459 14.9045 18 14.1667 18C13.4288 18 12.7795 17.7459 12.2187 17.2376C11.6875 16.7012 11.4219 16.0659 11.4219 15.3318C11.4219 15.0494 11.4366 14.8518 11.4661 14.7388L4.78125 11.0118C4.22049 11.4918 3.57118 11.7318 2.83333 11.7318C2.06597 11.7318 1.40191 11.4635 0.841146 10.9271C0.280382 10.3906 0 9.75529 0 9.02118C0 8.28706 0.280382 7.65176 0.841146 7.11529C1.40191 6.57882 2.06597 6.31059 2.83333 6.31059C3.57118 6.31059 4.22049 6.55059 4.78125 7.03059L11.4219 3.34588C11.3628 3.06353 11.3333 2.85176 11.3333 2.71059C11.3333 1.97647 11.6137 1.34118 12.1745 0.804706C12.7352 0.268235 13.3993 0 14.1667 0C14.934 0 15.5981 0.268235 16.1589 0.804706C16.7196 1.34118 17 1.97647 17 2.71059C17 3.44471 16.7196 4.08 16.1589 4.61647C15.5981 5.15294 14.934 5.42118 14.1667 5.42118C13.4583 5.42118 12.809 5.16706 12.2187 4.65882L5.57812 8.38588C5.63715 8.66823 5.66667 8.88 5.66667 9.02118C5.66667 9.16235 5.63715 9.37412 5.57812 9.65647L12.3073 13.3835C12.8385 12.9318 13.4583 12.7059 14.1667 12.7059Z" fill="#6BB4DD"/>
</svg>
