<svg width="14" height="15" viewBox="0 0 14 15" fill="none" xmlns="http://www.w3.org/2000/svg">
<path d="M11.25 10.5469C11.8594 10.5469 12.375 10.7695 12.7969 11.2148C13.2188 11.6367 13.4297 12.1406 13.4297 12.7266C13.4297 13.3359 13.207 13.8633 12.7617 14.3086C12.3398 14.7305 11.8359 14.9414 11.25 14.9414C10.6641 14.9414 10.1484 14.7305 9.70312 14.3086C9.28125 13.8633 9.07031 13.3359 9.07031 12.7266C9.07031 12.4922 9.08203 12.3281 9.10547 12.2344L3.79688 9.14062C3.35156 9.53906 2.83594 9.73828 2.25 9.73828C1.64062 9.73828 1.11328 9.51562 0.667969 9.07031C0.222656 8.625 0 8.09766 0 7.48828C0 6.87891 0.222656 6.35156 0.667969 5.90625C1.11328 5.46094 1.64062 5.23828 2.25 5.23828C2.83594 5.23828 3.35156 5.4375 3.79688 5.83594L9.07031 2.77734C9.02344 2.54297 9 2.36719 9 2.25C9 1.64062 9.22266 1.11328 9.66797 0.667969C10.1133 0.222656 10.6406 0 11.25 0C11.8594 0 12.3867 0.222656 12.832 0.667969C13.2773 1.11328 13.5 1.64062 13.5 2.25C13.5 2.85938 13.2773 3.38672 12.832 3.83203C12.3867 4.27734 11.8594 4.5 11.25 4.5C10.6875 4.5 10.1719 4.28906 9.70312 3.86719L4.42969 6.96094C4.47656 7.19531 4.5 7.37109 4.5 7.48828C4.5 7.60547 4.47656 7.78125 4.42969 8.01562L9.77344 11.1094C10.1953 10.7344 10.6875 10.5469 11.25 10.5469Z" fill="#095783"/>
</svg>
