<svg width="89" height="90" viewBox="0 0 89 90" fill="none" xmlns="http://www.w3.org/2000/svg">
<g filter="url(#filter0_df)">
<circle cx="44.5" cy="41.5" r="40.5" fill="white"/>
</g>
<path d="M64.3626 31.1338H57.8556V28.6937C57.852 25.5506 55.305 23.0036 52.1619 23H42.4014C39.2583 23.0036 36.7113 25.5506 36.7077 28.6937V31.1338H31.0141C29.6664 31.1338 28.5739 32.2263 28.5739 33.5739V36.0141C28.5739 36.4633 28.9381 36.8274 29.3873 36.8274C29.8365 36.8274 30.2007 36.4633 30.2007 36.0141V33.5739C30.2007 33.1247 30.5648 32.7606 31.0141 32.7606H64.3626C64.8118 32.7606 65.176 33.1247 65.176 33.5739V55.5352C65.176 55.9844 64.8118 56.3486 64.3626 56.3486H31.0141C30.5648 56.3486 30.2007 55.9844 30.2007 55.5352V53.095C30.2007 52.6458 29.8365 52.2817 29.3873 52.2817C28.9381 52.2817 28.5739 52.6458 28.5739 53.095V55.5352C28.5739 56.8828 29.6664 57.9753 31.0141 57.9753H31.6339C30.6104 59.5022 30.8782 61.5513 32.2596 62.7639C33.641 63.9766 35.7075 63.9766 37.0889 62.7639C38.4703 61.5513 38.7381 59.5022 37.7147 57.9753H57.662C56.6386 59.5022 56.9063 61.5513 58.2877 62.7639C59.6691 63.9766 61.7357 63.9766 63.1171 62.7639C64.4985 61.5513 64.7662 59.5022 63.7428 57.9753H64.3626C65.7103 57.9753 66.8028 56.8828 66.8028 55.5352V33.5739C66.8028 32.2263 65.7103 31.1338 64.3626 31.1338ZM52.1619 31.1338H42.4014V28.6937H52.1619V31.1338ZM53.7887 31.1338V28.6937C53.7887 27.7952 53.0604 27.0669 52.1619 27.0669H42.4014C41.5029 27.0669 40.7746 27.7952 40.7746 28.6937V31.1338H38.3345V28.6937C38.3372 26.4487 40.1564 24.6294 42.4014 24.6268H52.1619C54.4069 24.6294 56.2261 26.4487 56.2288 28.6937V31.1338H53.7887ZM36.7077 60.0088C36.7077 61.1318 35.7973 62.0422 34.6743 62.0422C33.5512 62.0422 32.6408 61.1318 32.6408 60.0088C32.6408 58.8857 33.5512 57.9753 34.6743 57.9753C35.7973 57.9753 36.7077 58.8857 36.7077 60.0088ZM62.7359 60.0088C62.7359 61.1318 61.8255 62.0422 60.7024 62.0422C59.5794 62.0422 58.669 61.1318 58.669 60.0088C58.669 58.8857 59.5794 57.9753 60.7024 57.9753C61.8255 57.9753 62.7359 58.8857 62.7359 60.0088Z" fill="#095783"/>
<path d="M62.7359 39.2676C63.1851 39.2676 63.5492 38.9034 63.5492 38.4542V35.2007C63.5492 34.7515 63.1851 34.3873 62.7359 34.3873H59.4823C59.0331 34.3873 58.669 34.7515 58.669 35.2007C58.669 35.6499 59.0331 36.0141 59.4823 36.0141H61.9225V38.4542C61.9225 38.9034 62.2866 39.2676 62.7359 39.2676Z" fill="#095783"/>
<path d="M29.6077 49.7252C29.9132 50.2492 30.4828 50.5619 31.0889 50.5386H31.1052L33.0377 50.3417C33.4785 50.3293 33.8955 50.1388 34.1936 49.8139L35.072 48.9956C35.9641 49.5493 36.9933 49.8423 38.0433 49.8415L43.1196 49.835L41.9402 52.4215C41.7107 52.9261 41.7539 53.5127 42.0548 53.9781C42.3556 54.4436 42.8728 54.7239 43.427 54.7218H45.0424C45.5313 54.7231 45.9948 54.5045 46.3048 54.1264L49.8259 49.8415L59.0553 49.8244C60.3249 49.8225 61.5352 49.2868 62.3902 48.3481C63.2425 47.4152 63.6567 46.1631 63.5289 44.9059C63.2324 42.5832 61.2363 40.8552 58.8951 40.8943H58.8877L50.754 40.909L46.2958 35.0331C45.9858 34.6275 45.5049 34.3889 44.9944 34.3873H44.9895H43.3506C42.8054 34.3863 42.2959 34.6584 41.9936 35.1121C41.6913 35.5659 41.6365 36.1409 41.8475 36.6436L43.6499 40.9187L40.943 40.9236L37.312 35.1625C37.0135 34.6905 36.4951 34.4032 35.9366 34.4003H35.9317H34.1732C33.2763 34.4039 32.55 35.1301 32.5465 36.0271L32.5652 43.3629L29.6077 48.0952C29.3111 48.598 29.3111 49.2223 29.6077 49.7252ZM43.3522 36.0141H44.9985L48.7132 40.9106L45.4109 40.9187L43.3522 36.0141ZM34.065 44.0356C34.1463 43.9056 34.1891 43.7553 34.1887 43.6021L34.1757 36.0328H35.9334L39.8059 42.1762C39.9548 42.4126 40.2146 42.556 40.494 42.5561L58.8902 42.5211H58.8959C60.3984 42.4788 61.6934 43.5708 61.9054 45.0588C61.9882 45.8609 61.7242 46.6601 61.1798 47.255C60.6336 47.8549 59.8602 48.1973 59.0488 48.1985L51.159 48.2131L53.4178 45.4639C53.7028 45.1167 53.6524 44.6041 53.3051 44.3191C52.9579 44.034 52.4453 44.0845 52.1603 44.4317L45.0432 53.095L43.4165 53.1007L45.1246 49.347L45.1311 49.3323L46.9709 45.2972C47.0991 45.0315 47.0733 44.7173 46.9037 44.476C46.7341 44.2347 46.4471 44.1042 46.1538 44.1348C45.8604 44.1655 45.6067 44.3525 45.4906 44.6237L43.8654 48.2074L38.0425 48.2148C37.4482 48.2126 36.8617 48.0796 36.3246 47.8251L39.6229 44.7522C39.8428 44.556 39.9394 44.2561 39.8753 43.9683C39.8112 43.6806 39.5964 43.4501 39.314 43.3658C39.0315 43.2815 38.7255 43.3567 38.5142 43.5622L33.0573 48.6458C33.0353 48.667 33.0093 48.6898 32.9898 48.7125C32.9629 48.7125 32.9353 48.7125 32.9084 48.7125L30.9994 48.9378L34.065 44.0356Z" fill="#095783"/>
<path d="M29.3873 39.2676H22.0669C21.6177 39.2676 21.2535 39.6318 21.2535 40.081C21.2535 40.5302 21.6177 40.8944 22.0669 40.8944H29.3873C29.8365 40.8944 30.2007 40.5302 30.2007 40.081C30.2007 39.6318 29.8365 39.2676 29.3873 39.2676Z" fill="#095783"/>
<path d="M19.6268 44.9612C19.6268 45.4105 19.9909 45.7746 20.4401 45.7746H26.9472C27.3964 45.7746 27.7606 45.4105 27.7606 44.9612C27.7606 44.512 27.3964 44.1479 26.9472 44.1479H20.4401C19.9909 44.1479 19.6268 44.512 19.6268 44.9612Z" fill="#095783"/>
<path d="M18 49.8415C18 50.2907 18.3642 50.6549 18.8134 50.6549H25.3204C25.7696 50.6549 26.1338 50.2907 26.1338 49.8415C26.1338 49.3923 25.7696 49.0281 25.3204 49.0281H18.8134C18.3642 49.0281 18 49.3923 18 49.8415Z" fill="#095783"/>
<defs>
<filter id="filter0_df" x="0" y="0" width="89" height="90" filterUnits="userSpaceOnUse" color-interpolation-filters="sRGB">
<feFlood flood-opacity="0" result="BackgroundImageFix"/>
<feColorMatrix in="SourceAlpha" type="matrix" values="0 0 0 0 0 0 0 0 0 0 0 0 0 0 0 0 0 0 127 0" result="hardAlpha"/>
<feOffset dy="4"/>
<feGaussianBlur stdDeviation="2"/>
<feColorMatrix type="matrix" values="0 0 0 0 0.454167 0 0 0 0 0.452274 0 0 0 0 0.452274 0 0 0 0.25 0"/>
<feBlend mode="normal" in2="BackgroundImageFix" result="effect1_dropShadow"/>
<feBlend mode="normal" in="SourceGraphic" in2="effect1_dropShadow" result="shape"/>
<feGaussianBlur stdDeviation="0.5" result="effect2_foregroundBlur"/>
</filter>
</defs>
</svg>
