<svg width="26" height="18" viewBox="0 0 26 18" fill="none" xmlns="http://www.w3.org/2000/svg">
<path d="M25.726 9.98177C25.6952 9.26915 24.998 8.70009 23.6497 8.28995C22.6038 7.97722 21.276 7.78752 19.8405 7.75676V2.28653C19.8354 2.19425 19.8097 2.10709 19.7636 2.03019C19.6201 1.40985 18.9279 0.907434 17.7026 0.538308C16.5491 0.18969 15.0419 0 13.4577 0C11.8787 0 10.3868 0.18969 9.25377 0.538308C8.32583 0.825406 7.21333 1.35859 7.21333 2.27627C7.21333 2.33267 7.21846 2.38906 7.22871 2.44546L7.2851 4.78325C3.95272 4.14754 0.738251 6.33666 0.107662 9.66391C0.0358872 10.0433 0 10.4227 0 10.8072C0 14.1908 2.75306 16.9439 6.13671 16.9439C7.54657 16.9439 8.91028 16.462 10.0023 15.5699C10.961 15.7955 12.0889 15.9185 13.2834 15.9288C13.5449 17.3489 16.6209 18 19.4868 18C21.0658 18 22.5577 17.8052 23.6907 17.4514C24.6186 17.1643 25.7311 16.626 25.7311 15.7083V10.0792C25.7311 10.0484 25.7311 10.0125 25.726 9.98177ZM18.769 5.12162C18.769 5.18827 18.5229 5.54201 17.4104 5.88038C16.3697 6.19311 14.9291 6.37767 13.4628 6.37767C12.1965 6.37767 10.9559 6.24438 9.97152 5.99316C9.95614 5.98804 9.94588 5.98804 9.9305 5.98291C9.44346 5.59841 8.90515 5.2908 8.32583 5.07548L8.28994 3.62973C8.64369 3.80917 9.01282 3.95272 9.39732 4.05525C10.5098 4.37824 11.9504 4.55255 13.4628 4.55255C15.0419 4.55255 16.5543 4.36286 17.7078 4.01424C18.0923 3.90145 18.4665 3.75278 18.8203 3.56821V4.91142C18.7639 4.9832 18.769 5.04984 18.769 5.12162ZM9.56138 1.52777C10.597 1.20991 11.9812 1.03048 13.4577 1.03048C14.924 1.03048 16.3646 1.20991 17.4053 1.52777C18.5178 1.86613 18.7639 2.21475 18.7639 2.2814C18.7639 2.35318 18.5127 2.70692 17.4002 3.04016C16.3594 3.35289 14.924 3.53233 13.4577 3.53233C12.0427 3.53233 10.6995 3.36827 9.67929 3.07092C8.57704 2.75306 8.26944 2.40444 8.2438 2.29165C8.2438 2.2814 8.23868 2.2814 8.23868 2.2814C8.2438 2.18399 8.47963 1.85588 9.56138 1.52777ZM9.57676 14.5907C7.49017 16.4876 4.2552 16.3389 2.3583 14.2523C0.461407 12.1658 0.610083 8.93079 2.69667 7.03389C3.63486 6.17773 4.86528 5.70607 6.13671 5.70607C6.64939 5.70607 7.15693 5.78297 7.6491 5.93164C9.42808 6.48533 10.7662 7.96184 11.1455 9.78183C11.2122 10.1202 11.2481 10.4688 11.2481 10.8123C11.2532 12.2529 10.6431 13.6218 9.57676 14.5907ZM10.879 14.7035C11.2942 14.196 11.6275 13.6269 11.8633 13.0168C12.2991 13.0527 12.7502 13.0783 13.2219 13.0835V13.1757L13.2526 14.9137C12.458 14.9034 11.6633 14.8317 10.879 14.7035ZM12.2478 10.2022C12.5451 10.2227 12.8579 10.233 13.1757 10.2381L13.2065 12.053C12.8476 12.0478 12.4939 12.0325 12.1555 12.0068C12.2324 11.6121 12.2734 11.2071 12.2734 10.8072C12.2734 10.6072 12.2632 10.4073 12.2478 10.2022ZM13.509 9.21789C13.4936 9.21789 13.4731 9.21789 13.4577 9.21789C12.9655 9.21789 12.4887 9.19738 12.0478 9.16662C11.853 8.47963 11.5454 7.83367 11.1302 7.25947C11.8992 7.35688 12.6733 7.40815 13.4526 7.40815C15.0367 7.40815 16.5491 7.21846 17.7026 6.86984C18.0872 6.75705 18.4563 6.60837 18.81 6.42894V7.77214C16.6107 7.83367 14.3498 8.29507 13.509 9.21789ZM14.1857 10.033C14.1857 10.0279 14.1857 10.0228 14.1908 10.0125C14.237 9.87411 14.601 9.53574 15.6622 9.23839C16.6568 8.95642 17.9539 8.80262 19.3176 8.80262H19.4047C20.871 8.80262 22.3065 8.9718 23.3523 9.28966C24.4443 9.61777 24.7007 9.95614 24.7058 10.033V10.0382C24.7007 10.1151 24.4443 10.4688 23.3062 10.8072C22.2552 11.1199 20.871 11.2891 19.4099 11.2891C17.9949 11.2891 16.6517 11.125 15.6314 10.8328C14.5292 10.515 14.2267 10.1612 14.196 10.0535C14.1857 10.033 14.1857 10.033 14.1857 10.033ZM23.3933 16.4774C22.3577 16.8003 20.9684 16.9798 19.4919 16.9798C18.0103 16.9798 16.626 16.8055 15.6007 16.4927C14.5189 16.1595 14.2934 15.816 14.2934 15.7391C14.2934 15.734 14.2934 15.734 14.2934 15.7289L14.2677 14.2421C14.6779 14.442 15.1034 14.5958 15.5443 14.7086C16.6209 14.9906 17.9897 15.1495 19.3945 15.1495C20.9786 15.1495 22.4808 14.9598 23.6292 14.6112C24.0034 14.4984 24.3623 14.3498 24.7058 14.1754V15.7135H24.7109C24.7109 15.7852 24.4751 16.139 23.3933 16.4774ZM24.716 12.7041H24.7109C24.7109 12.7553 24.6801 12.8169 24.6801 12.8733C24.6801 12.945 24.4392 13.2936 23.3318 13.632C22.2808 13.9499 20.8812 14.1242 19.3996 14.1242C16.5594 14.1242 14.6471 13.4833 14.2472 12.986L14.2421 12.5554L14.2216 11.3762C14.5805 11.5557 14.9547 11.6992 15.3392 11.8069C16.4517 12.1299 17.8923 12.3042 19.4047 12.3042C20.9633 12.3042 22.45 12.1196 23.5933 11.7813C23.9829 11.6736 24.3572 11.5249 24.716 11.3404V12.7041Z" fill="#083A56"/>
</svg>
