<svg width="93" height="93" viewBox="0 0 93 93" fill="none" xmlns="http://www.w3.org/2000/svg">
<g filter="url(#filter0_d)">
<circle cx="46.5" cy="42.5" r="40.5" fill="#E6F7FA"/>
<circle cx="46.5" cy="42.5" r="40" stroke="#3C8994"/>
</g>
<path d="M65.4994 54.2454C65.5922 54.1239 65.6488 53.9794 65.6627 53.8281C65.6766 53.6768 65.6473 53.5247 65.5781 53.3888C65.5088 53.2529 65.4024 53.1386 65.2708 53.0587C65.1391 52.9789 64.9874 52.9366 64.8326 52.9366H55.5809C55.3875 52.0133 54.8757 51.1837 54.1317 50.5877C53.3878 49.9916 52.4572 49.6655 51.4968 49.6644H48.9964V47.6916C51.9222 47.1123 54.6342 45.7678 56.8456 43.8003L58.4084 45.3341L59.5871 44.1772L58.0234 42.6425C58.464 42.1656 58.8757 41.6637 59.2563 41.1394L57.8983 40.1907C57.5714 40.6407 57.2191 41.0723 56.8431 41.4837L55.6578 40.3203C57.9017 37.8248 59.092 34.5836 58.9864 31.2568C58.8807 27.9301 57.487 24.7679 55.089 22.4144C52.6911 20.0609 49.4692 18.6931 46.0797 18.5894C42.6902 18.4858 39.3879 19.6542 36.8453 21.8566L35.66 20.6931C36.0791 20.3241 36.5189 19.9783 36.9774 19.6576L36.0108 18.3246C35.4768 18.6982 34.9656 19.1023 34.4798 19.5348L32.916 18L31.7373 19.1569L33.3001 20.6908C27.382 27.1051 27.5733 37.0511 33.8751 43.2362C36.5914 45.9073 40.1687 47.5695 43.9954 47.9386V49.6644H41.495C40.3901 49.6656 39.3308 50.0969 38.5495 50.8637C37.7683 51.6305 37.3288 52.6702 37.3276 53.7546C37.3276 53.9716 37.4154 54.1797 37.5717 54.3331C37.728 54.4865 37.94 54.5727 38.161 54.5727H41.174C40.8413 55.3497 40.67 56.184 40.67 57.0268C40.67 57.8696 40.8413 58.704 41.174 59.481H31.3766C30.9121 58.7436 30.6661 57.8938 30.6661 57.0268C30.6661 56.1599 30.9121 55.3101 31.3766 54.5727H35.6606V52.9366H25.9366C25.8072 52.9366 25.6796 52.9661 25.5639 53.0229C25.4482 53.0797 25.3475 53.1622 25.2698 53.2638C24.4453 54.3515 24 55.6711 24 57.0268C24 58.3825 24.4453 59.7022 25.2698 60.7899C25.3475 60.8914 25.4482 60.9739 25.5639 61.0307C25.6796 61.0875 25.8072 61.1171 25.9366 61.1171H27.8382C27.4036 62.1292 27.2456 63.2351 27.3798 64.3254C27.5141 65.4158 27.936 66.4529 28.6038 67.3343C28.6814 67.4359 28.7821 67.5183 28.8978 67.5751C29.0136 67.6319 29.1412 67.6615 29.2706 67.6615H68.1665C68.3213 67.6615 68.473 67.6192 68.6047 67.5393C68.7364 67.4594 68.8428 67.3451 68.912 67.2093C68.9812 67.0734 69.0105 66.9213 68.9966 66.77C68.9827 66.6187 68.9262 66.4741 68.8333 66.3526C68.2239 65.5486 67.8948 64.5733 67.8948 63.5712C67.8948 62.5692 68.2239 61.5938 68.8333 60.7899C68.9262 60.6683 68.9827 60.5238 68.9966 60.3725C69.0105 60.2212 68.9812 60.0691 68.912 59.9332C68.8428 59.7973 68.7364 59.683 68.6047 59.6031C68.473 59.5233 68.3213 59.481 68.1665 59.481H65.2716C64.7707 58.6864 64.5247 57.7624 64.5653 56.8288C64.6059 55.8953 64.9313 54.9953 65.4994 54.2454ZM63.3999 54.5727C63.1761 55.0957 63.0254 55.6461 62.9519 56.2088H48.2431C48.3469 55.6285 48.563 55.0731 48.8798 54.5727H63.3999ZM50.3423 66.0254H46.3793C45.9148 65.288 45.6688 64.4382 45.6688 63.5712C45.6688 62.7043 45.9148 61.8545 46.3793 61.1171H50.3423C50.0097 61.8941 49.8383 62.7284 49.8383 63.5712C49.8383 64.414 50.0097 65.2484 50.3423 66.0254ZM34.7105 61.1171H44.5079C44.1753 61.8941 44.0039 62.7284 44.0039 63.5712C44.0039 64.414 44.1753 65.2484 44.5079 66.0254H34.7105C34.246 65.288 34 64.4382 34 63.5712C34 62.7043 34.246 61.8545 34.7105 61.1171ZM57.3312 31.6673C57.3311 32.2147 57.2911 32.7615 57.2116 33.3034H55.0831L53.1638 32.0476V29.2131C53.1637 29.0649 53.1227 28.9194 53.045 28.7922L50.6633 24.8963V21.3211C52.6571 22.2512 54.3416 23.7167 55.5217 25.5478C56.7018 27.3789 57.3292 29.5006 57.3312 31.6673ZM48.9964 20.6917V25.1229C48.9964 25.2711 49.0375 25.4166 49.1151 25.5438L51.4968 29.4397V32.4853C51.4968 32.62 51.5307 32.7526 51.5954 32.8713C51.6602 32.99 51.7538 33.0912 51.8679 33.1659L54.3684 34.802C54.5053 34.8916 54.6662 34.9395 54.8308 34.9395H56.8451C56.0035 37.7119 54.1242 40.0691 51.5847 41.5374C49.0451 43.0057 46.0335 43.4764 43.1549 42.8548C40.2763 42.2333 37.7439 40.5655 36.0667 38.1867C34.3895 35.8079 33.6916 32.8943 34.1132 30.0312H35.8433L36.519 32.6837C36.5641 32.8607 36.6681 33.0178 36.8146 33.1301C36.9611 33.2424 37.1417 33.3034 37.3276 33.3034H39.828V35.7575C39.828 35.919 39.8767 36.0769 39.968 36.2113L41.495 38.4593V40.6658C41.495 40.8828 41.5828 41.0909 41.7391 41.2443C41.8954 41.3977 42.1074 41.4839 42.3285 41.4839H45.6624C45.7874 41.4839 45.9108 41.4563 46.0234 41.4032C46.1361 41.3501 46.2351 41.2729 46.3133 41.1771L49.6472 37.0868C49.7454 36.9665 49.8069 36.8214 49.8247 36.6683C49.8425 36.5151 49.8158 36.3602 49.7478 36.2212C49.6798 36.0823 49.5732 35.9651 49.4402 35.883C49.3073 35.801 49.1534 35.7575 48.9964 35.7575H47.3294V32.4853C47.3294 32.2684 47.2416 32.0603 47.0853 31.9069C46.929 31.7535 46.717 31.6673 46.4959 31.6673H41.495V30.2788L42.7745 28.3951H45.6624C45.8045 28.3951 45.9442 28.3594 46.0683 28.2915C46.1924 28.2236 46.2967 28.1257 46.3714 28.0071C46.4461 27.8884 46.4886 27.7531 46.495 27.6138C46.5014 27.4745 46.4714 27.3359 46.4079 27.2111L44.7409 23.9389C44.6717 23.8031 44.5653 23.6888 44.4336 23.6089C44.3019 23.5291 44.1502 23.4868 43.9954 23.4868H41.495V20.9702C43.8959 20.069 46.5329 19.9711 48.9964 20.6917ZM46.4959 37.3936H47.2622L45.2618 39.8478H43.162V38.2117C43.162 38.0501 43.1132 37.8922 43.0219 37.7579L41.495 35.5099V33.3034H45.6624V36.5756C45.6624 36.7925 45.7502 37.0006 45.9065 37.154C46.0628 37.3074 46.2748 37.3936 46.4959 37.3936ZM39.828 21.752V24.3048C39.828 24.5218 39.9158 24.7298 40.0721 24.8833C40.2285 25.0367 40.4405 25.1229 40.6615 25.1229H43.4804L44.3138 26.759H42.3285C42.1913 26.759 42.0562 26.7922 41.9352 26.8558C41.8142 26.9193 41.7111 27.0112 41.635 27.1232L39.968 29.5774C39.8767 29.7117 39.828 29.8696 39.828 30.0312V31.6673H37.9783L37.3027 29.0147C37.2576 28.8377 37.1535 28.6806 37.007 28.5683C36.8605 28.4561 36.68 28.3951 36.4941 28.3951H34.4798C35.3374 25.594 37.2498 23.2186 39.828 21.752ZM34.4811 21.8499L35.6666 23.0134C33.4205 25.5087 32.2284 28.7506 32.3331 32.0786C32.4379 35.4066 33.8317 38.5702 36.2305 40.9245C38.6293 43.2789 41.8525 44.6469 45.2433 44.7497C48.6341 44.8526 51.9372 43.6825 54.4795 41.4779L55.665 42.6415C49.7816 47.8133 40.7057 47.6264 35.0539 42.0791C29.4022 36.5318 29.2115 27.6243 34.4811 21.8499ZM45.6624 48.0206C46.2189 48.0206 46.7746 47.9933 47.3294 47.9388V49.6644H45.6624V48.0206ZM41.495 51.3005H51.4968C52.0138 51.3011 52.5179 51.4586 52.94 51.7516C53.3621 52.0445 53.6815 52.4584 53.8544 52.9366H39.1374C39.3103 52.4584 39.6297 52.0445 40.0518 51.7516C40.4739 51.4586 40.978 51.3011 41.495 51.3005ZM43.0454 54.5727H47.0084C46.6757 55.3497 46.5044 56.184 46.5044 57.0268C46.5044 57.8696 46.6757 58.704 47.0084 59.481H43.0454C42.5809 58.7436 42.3349 57.8938 42.3349 57.0268C42.3349 56.1599 42.5809 55.3101 43.0454 54.5727ZM26.3757 54.5727H29.5052C29.1726 55.3497 29.0012 56.184 29.0012 57.0268C29.0012 57.8696 29.1726 58.704 29.5052 59.481H26.3753C25.9108 58.7436 25.6648 57.8938 25.6648 57.0268C25.6648 56.1599 25.9112 55.3101 26.3757 54.5727ZM29.7096 61.1171H32.8396C32.5069 61.8941 32.3356 62.7284 32.3356 63.5712C32.3356 64.414 32.5069 65.2484 32.8396 66.0254H29.7092C29.2448 65.288 28.9987 64.4382 28.9987 63.5712C28.9987 62.7043 29.2452 61.8545 29.7096 61.1171ZM52.2137 66.0254C51.897 65.5249 51.6809 64.9695 51.577 64.3893H66.2855C66.359 64.952 66.5097 65.5023 66.7335 66.0254H52.2137ZM66.2855 62.7532H51.577C51.6809 62.1729 51.897 61.6175 52.2137 61.1171H66.7339C66.5099 61.6401 66.3591 62.1905 66.2855 62.7532ZM48.8798 59.481C48.563 58.9805 48.3469 58.4251 48.2431 57.8449H62.9516C63.0251 58.4076 63.1758 58.9579 63.3996 59.481H48.8798Z" fill="#287CAB"/>
<defs>
<filter id="filter0_d" x="0" y="0" width="93" height="93" filterUnits="userSpaceOnUse" color-interpolation-filters="sRGB">
<feFlood flood-opacity="0" result="BackgroundImageFix"/>
<feColorMatrix in="SourceAlpha" type="matrix" values="0 0 0 0 0 0 0 0 0 0 0 0 0 0 0 0 0 0 127 0" result="hardAlpha"/>
<feOffset dy="4"/>
<feGaussianBlur stdDeviation="3"/>
<feColorMatrix type="matrix" values="0 0 0 0 0.65 0 0 0 0 0.639167 0 0 0 0 0.639167 0 0 0 0.25 0"/>
<feBlend mode="normal" in2="BackgroundImageFix" result="effect1_dropShadow"/>
<feBlend mode="normal" in="SourceGraphic" in2="effect1_dropShadow" result="shape"/>
</filter>
</defs>
</svg>
