<svg width="24" height="21" viewBox="0 0 24 21" fill="none" xmlns="http://www.w3.org/2000/svg">
<path fill-rule="evenodd" clip-rule="evenodd" d="M19.8333 5.83333H18.6667V0H4.66667V5.83333H3.5C1.56333 5.83333 0 7.39667 0 9.33333V16.3333H4.66667V21H18.6667V16.3333H23.3333V9.33333C23.3333 7.39667 21.77 5.83333 19.8333 5.83333ZM7 2.33333H16.3333V5.83333H7V2.33333ZM7 18.6667H16.3333V14H7V18.6667ZM18.6667 14V11.6667H4.66667V14H2.33333V9.33333C2.33333 8.69167 2.85833 8.16667 3.5 8.16667H19.8333C20.475 8.16667 21 8.69167 21 9.33333V14H18.6667ZM17.5 9.91667C17.5 9.27233 18.0223 8.75 18.6667 8.75C19.311 8.75 19.8333 9.27233 19.8333 9.91667C19.8333 10.561 19.311 11.0833 18.6667 11.0833C18.0223 11.0833 17.5 10.561 17.5 9.91667Z" fill="#6BB4DD"/>
</svg>
