<svg width="93" height="93" viewBox="0 0 93 93" fill="none" xmlns="http://www.w3.org/2000/svg">
<g filter="url(#filter0_d)">
<g filter="url(#filter1_f)">
<circle cx="46.5" cy="42.5" r="40.5" fill="white"/>
<circle cx="46.5" cy="42.5" r="40" stroke="white"/>
</g>
</g>
<path d="M61.6488 48.9452H50.5246C50.1534 48.9452 49.8526 49.246 49.8526 49.6172C49.8526 49.9883 50.1534 50.2892 50.5246 50.2892H61.6488C62.1657 50.2892 62.5861 50.7097 62.5861 51.2265C62.5861 51.7434 62.1656 52.1638 61.6488 52.1638H33.9797C31.6994 52.1638 29.8443 50.3087 29.8443 48.0284C29.8443 46.1104 31.1463 44.457 33.0105 44.0077C33.1843 43.9658 33.334 43.8565 33.427 43.7039C33.5199 43.5513 33.5483 43.368 33.5057 43.1944L30.6592 31.5851C30.5709 31.2247 30.207 31.0041 29.8466 31.0925C29.4861 31.1808 29.2656 31.5447 29.354 31.9052L32.0496 42.8989C29.9299 43.6924 28.5003 45.7152 28.5003 48.0284C28.5003 51.0497 30.9584 53.5077 33.9797 53.5077H34.9263C33.5665 54.6113 32.6956 56.2948 32.6956 58.1784C32.6956 58.8125 32.7939 59.4373 32.9879 60.0355C33.1023 60.3884 33.4815 60.5817 33.8343 60.4674C34.1874 60.3529 34.3808 59.9739 34.2663 59.6209C34.1158 59.1569 34.0395 58.6716 34.0395 58.1784C34.0395 55.603 36.1348 53.5077 38.7103 53.5077C41.2857 53.5077 43.381 55.6029 43.381 58.1784C43.381 60.7539 41.2857 62.8492 38.7103 62.8492C37.5266 62.8492 36.3975 62.4057 35.5312 61.6004C35.2594 61.3476 34.8343 61.3632 34.5816 61.635C34.3289 61.9068 34.3444 62.332 34.6163 62.5846C35.7321 63.6218 37.1861 64.193 38.7103 64.193C42.0269 64.193 44.7251 61.4948 44.7251 58.1783C44.7251 56.2946 43.8541 54.6111 42.4944 53.5075H51.7481C50.3884 54.6111 49.5174 56.2946 49.5174 58.1783C49.5174 61.4948 52.2156 64.193 55.5321 64.193C58.8486 64.193 61.5468 61.4948 61.5468 58.1783C61.5468 56.2946 60.6757 54.6111 59.3161 53.5075H61.649C62.907 53.5075 63.9303 52.4842 63.9303 51.2263C63.9302 49.9685 62.9068 48.9452 61.6488 48.9452V48.9452ZM60.2027 58.1784C60.2027 60.7539 58.1075 62.8492 55.5319 62.8492C52.9565 62.8492 50.8612 60.7539 50.8612 58.1784C50.8612 55.603 52.9564 53.5077 55.5319 53.5077C58.1075 53.5078 60.2027 55.603 60.2027 58.1784Z" fill="#083A56"/>
<path d="M64.6397 25.7266C64.5123 25.565 64.3178 25.4706 64.1121 25.4706H32.474L31.9023 23.1392C31.4491 21.2909 29.8035 20 27.9004 20H21.2812C20.0233 20.0001 19 21.0234 19 22.2813C19 23.5392 20.0233 24.5626 21.2812 24.5626H27.5536L28.7564 29.468C28.8447 29.8284 29.2083 30.0489 29.569 29.9606C29.9295 29.8723 30.15 29.5084 30.0617 29.1479L28.7763 23.9057C28.6771 23.5011 28.3169 23.2186 27.9003 23.2186H21.2812C20.7644 23.2186 20.3439 22.7981 20.3439 22.2812C20.3439 21.7644 20.7644 21.3439 21.2812 21.3439H27.9004C29.1827 21.3439 30.2917 22.2137 30.597 23.4593L35.5698 43.7403C35.6903 44.2321 35.5802 44.7426 35.2678 45.1409C34.9554 45.5391 34.4859 45.7676 33.9796 45.7676C32.733 45.7676 31.7188 46.7817 31.7188 48.0283C31.7188 49.2749 32.733 50.289 33.9796 50.289H47.8367C48.2078 50.289 48.5087 49.9881 48.5087 49.617C48.5087 49.2459 48.2078 48.945 47.8367 48.945H33.9797C33.4742 48.945 33.0629 48.5338 33.0629 48.0282C33.0629 47.5227 33.4742 47.1114 33.9797 47.1114C34.9015 47.1114 35.7564 46.6955 36.3253 45.9702C36.719 45.4684 36.9359 44.8687 36.9597 44.2501L59.9454 44.1848C60.2554 44.1839 60.5245 43.9711 60.5969 43.6697L64.7655 26.2993C64.8135 26.0994 64.7671 25.8882 64.6397 25.7266V25.7266ZM60.8031 37.051H56.7186L57.5883 32.6048H61.8701L60.8031 37.051ZM56.4819 31.2609H52.2666L52.6527 26.8147H57.3516L56.4819 31.2609ZM51.2588 42.8658L51.6471 38.395H55.0864L54.2134 42.8574L51.2588 42.8658ZM41.9112 42.8923L41.0315 38.3949H44.4707L44.8605 42.8838L41.9112 42.8923ZM36.7492 42.9069L35.6428 38.3949H39.6621L40.5426 42.8962L36.7492 42.9069ZM45.2001 31.2609L44.814 26.8147H51.3036L50.9175 31.2609H45.2001ZM50.8009 32.6048L50.4148 37.051H45.703L45.3168 32.6048H50.8009ZM44.354 37.051H40.7686L39.8989 32.6048H43.9679L44.354 37.051ZM43.8512 31.2609H39.636L38.7662 26.8147H43.4651L43.8512 31.2609ZM39.3992 37.051H35.3133L34.2232 32.6048H38.5295L39.3992 37.051ZM45.8197 38.3949H50.2981L49.9095 42.8695L46.2092 42.8801L45.8197 38.3949ZM51.7638 37.051L52.1499 32.6048H56.219L55.3493 37.051H51.7638ZM37.3968 26.8147L38.2666 31.2609H33.8936L32.8035 26.8147H37.3968ZM59.4132 42.8426L55.5835 42.8535L56.4557 38.395H60.4805L59.4132 42.8426ZM62.1927 31.2609H57.8513L58.721 26.8147H63.2597L62.1927 31.2609Z" fill="#083A56"/>
<path d="M38.7103 61.4377C40.5074 61.4377 41.9695 59.9757 41.9695 58.1785C41.9695 56.3814 40.5075 54.9193 38.7103 54.9193C36.9132 54.9193 35.451 56.3814 35.451 58.1785C35.4511 59.9757 36.9132 61.4377 38.7103 61.4377ZM38.7103 56.2633C39.7664 56.2633 40.6255 57.1225 40.6255 58.1786C40.6255 59.2346 39.7664 60.0938 38.7103 60.0938C37.6542 60.0938 36.7951 59.2346 36.7951 58.1786C36.7951 57.1225 37.6542 56.2633 38.7103 56.2633Z" fill="#083A56"/>
<path d="M55.5319 61.4377C57.329 61.4377 58.7911 59.9757 58.7911 58.1785C58.7911 56.3814 57.329 54.9193 55.5319 54.9193C53.7348 54.9193 52.2728 56.3814 52.2728 58.1785C52.2728 59.9757 53.7348 61.4377 55.5319 61.4377ZM55.5319 56.2633C56.588 56.2633 57.4472 57.1225 57.4472 58.1786C57.4472 59.2346 56.588 60.0938 55.5319 60.0938C54.4759 60.0938 53.6167 59.2346 53.6167 58.1786C53.6167 57.1225 54.4759 56.2633 55.5319 56.2633Z" fill="#083A56"/>
<defs>
<filter id="filter0_d" x="0" y="0" width="93" height="93" filterUnits="userSpaceOnUse" color-interpolation-filters="sRGB">
<feFlood flood-opacity="0" result="BackgroundImageFix"/>
<feColorMatrix in="SourceAlpha" type="matrix" values="0 0 0 0 0 0 0 0 0 0 0 0 0 0 0 0 0 0 127 0" result="hardAlpha"/>
<feOffset dy="4"/>
<feGaussianBlur stdDeviation="3"/>
<feColorMatrix type="matrix" values="0 0 0 0 0.65 0 0 0 0 0.639167 0 0 0 0 0.639167 0 0 0 0.25 0"/>
<feBlend mode="normal" in2="BackgroundImageFix" result="effect1_dropShadow"/>
<feBlend mode="normal" in="SourceGraphic" in2="effect1_dropShadow" result="shape"/>
</filter>
<filter id="filter1_f" x="5" y="1" width="83" height="83" filterUnits="userSpaceOnUse" color-interpolation-filters="sRGB">
<feFlood flood-opacity="0" result="BackgroundImageFix"/>
<feBlend mode="normal" in="SourceGraphic" in2="BackgroundImageFix" result="shape"/>
<feGaussianBlur stdDeviation="0.5" result="effect1_foregroundBlur"/>
</filter>
</defs>
</svg>
