<svg width="93" height="93" viewBox="0 0 93 93" fill="none" xmlns="http://www.w3.org/2000/svg">
<g filter="url(#filter0_d)">
<g filter="url(#filter1_f)">
<circle cx="46.5" cy="42.5" r="40.5" fill="#E6F7FA"/>
<circle cx="46.5" cy="42.5" r="40" stroke="#3C8994"/>
</g>
<path d="M24.7502 64.9992H60.7501C61.1645 64.9992 61.5002 64.6634 61.5002 64.2494V57.4993H66.75C67.1644 57.4993 67.5001 57.1635 67.5001 56.7494V49.2492C67.5001 48.8351 67.1644 48.4994 66.75 48.4994H61.5002V41.7493C61.5002 41.3349 61.1645 40.9991 60.7501 40.9991H59.3737C59.4794 40.5089 59.3675 39.9966 59.0671 39.5949L55.6781 35.0775L57.243 33.9036C57.9382 33.3832 58.3265 32.5489 58.2774 31.6817L58.2023 30.331C58.1817 29.9647 58.3458 29.6124 58.6393 29.3924L60.2038 28.2189L60.8623 29.0964C60.9815 29.2554 61.159 29.3608 61.356 29.3889C61.391 29.3937 61.4264 29.3965 61.4621 29.3961C61.6245 29.3965 61.7824 29.3436 61.9122 29.2461L68.1003 24.604C69.0939 23.8587 69.2954 22.4486 68.55 21.4547L68.1332 20.8985C67.3869 19.906 65.9775 19.7051 64.9832 20.4495L58.7959 25.0912C58.4646 25.3398 58.3973 25.8101 58.6458 26.1414L59.304 27.019L57.7395 28.1928C57.0442 28.7133 56.6556 29.5472 56.705 30.4144L56.7799 31.7651C56.8008 32.1314 56.6367 32.484 56.3432 32.7037L54.7786 33.8776L51.3893 29.3601C51.0347 28.8798 50.4586 28.6151 49.8629 28.6587C49.2947 28.6999 48.7869 29.0295 48.5174 29.5318L42.3548 40.9991H24.7502C24.3358 40.9991 24 41.3349 24 41.7493V49.2492C24 49.6636 24.3358 49.9994 24.7502 49.9994H29.9999V55.9993H24.7502C24.3358 55.9993 24 56.3351 24 56.7494V64.2494C24 64.6634 24.3358 64.9992 24.7502 64.9992ZM65.8834 21.649C66.2144 21.4005 66.6844 21.4674 66.9333 21.7987L67.3501 22.3549C67.5983 22.6862 67.531 23.1559 67.2001 23.4045L61.6118 27.5968L60.2952 25.841L65.8834 21.649ZM37.5002 57.4993H48V63.4992H37.5002V57.4993ZM43.5001 49.9994H54V55.9993H43.5001V49.9994ZM60.0002 63.4992H49.5V57.4993H60.0002V63.4992ZM66.0002 55.9993H55.5V49.9994H66.0002V55.9993ZM60.0002 48.4994H49.5V44.132L57.1767 42.4991H60.0002V48.4994ZM49.8392 30.2424C49.8646 30.1899 49.9175 30.1563 49.9759 30.1545L49.9906 30.1539C50.0703 30.1552 50.1441 30.1947 50.1894 30.2599L53.578 34.7774L50.484 37.0986C50.1527 37.3472 50.0854 37.8172 50.334 38.1488C50.5825 38.4802 51.0525 38.5471 51.3842 38.2989L54.4782 35.9777L57.8672 40.4951C57.9211 40.561 57.9369 40.65 57.9084 40.73C57.8905 40.7856 57.8435 40.8264 57.7858 40.8367L42.9065 44.0008C42.8141 44.0152 42.7214 43.9757 42.6682 43.8988C42.6085 43.8267 42.5965 43.7265 42.6373 43.642L49.8392 30.2424ZM41.4687 44.799C41.8683 45.3487 42.5542 45.6106 43.2186 45.4678L48 44.4509V48.4994H37.5002V42.4991H41.5483L41.3159 42.9317C40.9945 43.5301 41.0546 44.261 41.4687 44.799ZM25.5 45.4994H27C27.4144 45.4994 27.7501 45.1636 27.7501 44.7492C27.7501 44.3352 27.4144 43.9994 27 43.9994H25.5V42.4991H36.0002V48.4994H25.5V45.4994ZM31.4999 49.9994H42.0001V55.9993H31.4999V49.9994ZM25.5 57.4993H36.0002V63.4992H25.5V57.4993Z" fill="#287CAB"/>
<path d="M39.9248 60.423C39.9248 59.7467 39.3764 59.1983 38.6996 59.1983H33.7997C33.1235 59.1983 32.575 59.7467 32.575 60.423C32.575 61.0998 33.1235 61.6482 33.7997 61.6482H38.6996C39.3764 61.6482 39.9248 61.0998 39.9248 60.423Z" fill="#287CAB"/>
</g>
<defs>
<filter id="filter0_d" x="0" y="0" width="93" height="93" filterUnits="userSpaceOnUse" color-interpolation-filters="sRGB">
<feFlood flood-opacity="0" result="BackgroundImageFix"/>
<feColorMatrix in="SourceAlpha" type="matrix" values="0 0 0 0 0 0 0 0 0 0 0 0 0 0 0 0 0 0 127 0" result="hardAlpha"/>
<feOffset dy="4"/>
<feGaussianBlur stdDeviation="3"/>
<feColorMatrix type="matrix" values="0 0 0 0 0.65 0 0 0 0 0.639167 0 0 0 0 0.639167 0 0 0 0.25 0"/>
<feBlend mode="normal" in2="BackgroundImageFix" result="effect1_dropShadow"/>
<feBlend mode="normal" in="SourceGraphic" in2="effect1_dropShadow" result="shape"/>
</filter>
<filter id="filter1_f" x="5" y="1" width="83" height="83" filterUnits="userSpaceOnUse" color-interpolation-filters="sRGB">
<feFlood flood-opacity="0" result="BackgroundImageFix"/>
<feBlend mode="normal" in="SourceGraphic" in2="BackgroundImageFix" result="shape"/>
<feGaussianBlur stdDeviation="0.5" result="effect1_foregroundBlur"/>
</filter>
</defs>
</svg>
