<svg width="89" height="90" viewBox="0 0 89 90" fill="none" xmlns="http://www.w3.org/2000/svg">
<g filter="url(#filter0_df)">
<circle cx="44.5" cy="41.5" r="40.5" fill="white"/>
</g>
<mask id="path-2-inside-1" fill="white">
<path d="M68 56.9361C68 55.3581 67.0106 53.9259 65.5389 53.3716L61.931 52.0145V51.3695C62.5052 50.8525 62.9475 50.1934 63.2016 49.4451C64.631 49.199 65.7241 47.9545 65.7241 46.4516V43.4065C65.7241 42.2805 65.4471 41.22 64.9655 40.2821V36.3812C64.9655 34.8033 63.9761 33.371 62.5044 32.8168L58.8966 31.4596V30.8147C59.4707 30.2976 59.913 29.6385 60.1671 28.8903C61.5965 28.6442 62.6897 27.3997 62.6897 25.8968V22.8516C62.6897 19.0742 59.627 16 55.8621 16C52.0971 16 49.0345 19.0742 49.0345 22.8516V25.8968C49.0345 27.3997 50.1276 28.6442 51.557 28.8903C51.8112 29.6378 52.2534 30.2969 52.8276 30.8147V31.4596L49.9768 32.532C48.9482 31.7001 47.6599 31.2258 46.2997 31.2258H46C44.4713 31.2258 43.0496 31.6856 41.8572 32.4696L39.1724 31.4596V30.8147C39.7466 30.2976 40.1888 29.6385 40.443 28.8903C41.8724 28.6442 42.9655 27.3997 42.9655 25.8968V22.8516C42.9655 19.0742 39.9029 16 36.1379 16C32.373 16 29.3103 19.0742 29.3103 22.8516V25.8968C29.3103 27.3997 30.4035 28.6442 31.8329 28.8903C32.087 29.6378 32.5293 30.2969 33.1034 30.8147V31.4596L29.4963 32.8175C28.0239 33.371 27.0345 34.8033 27.0345 36.3812V40.2821C26.5529 41.22 26.2759 42.2805 26.2759 43.4065V46.4516C26.2759 47.9545 27.369 49.199 28.7984 49.4451C29.0525 50.1926 29.4948 50.8517 30.069 51.3695V52.0145L26.4618 53.3716C24.9894 53.9259 24 55.3581 24 56.9361V61.6774H34.6207V63.2H57.3793V61.6774H68V56.9361ZM55.8621 52.0256L53.9714 52.7817L49.0345 50.529V49.2957C49.7938 48.763 50.4054 48.0359 50.8029 47.1869C51.2748 47.1475 51.7148 47.0036 52.1008 46.7713C52.2449 48.1273 53.2662 49.2165 54.5908 49.4444C54.8456 50.1926 55.2879 50.8517 55.8621 51.3695V52.0256ZM45.8633 59.3935H46.1367L46.5916 61.6774H45.4084L45.8633 59.3935ZM46.2897 57.871H45.7103L44.7854 56.0149L46 55.0395L47.2146 56.0149L46.2897 57.871ZM38.0286 52.781L36.1379 52.0256V51.3695C36.7121 50.8525 37.1544 50.1934 37.4085 49.4451C38.7338 49.2172 39.7551 48.1281 39.8984 46.772C40.2844 47.0044 40.7245 47.1482 41.1964 47.1876C41.5939 48.0366 42.2054 48.7637 42.9648 49.2964V50.5298L38.0286 52.781ZM30.069 47.9742V44.8774C31.1795 44.7599 32.2274 44.3536 33.1034 43.6622C33.9795 44.3543 35.0274 44.7599 36.1379 44.8774V47.9742C36.1379 49.6536 34.777 51.0194 33.1034 51.0194C31.4299 51.0194 30.069 49.6536 30.069 47.9742ZM33.1034 38.0774C36.0309 38.0774 38.4138 40.468 38.4138 43.4065V43.8298C37.9656 43.5678 37.4518 43.4065 36.8966 43.4065H36.7662C35.5849 43.4065 34.4744 42.9451 33.6398 42.1069L33.1034 41.5679L32.5671 42.1069C31.7318 42.9451 30.622 43.4065 29.4407 43.4065H29.3103C28.7551 43.4065 28.2413 43.5678 27.7931 43.8298V43.4065C27.7931 40.468 30.176 38.0774 33.1034 38.0774ZM40.7208 45.4955C40.2526 45.2357 39.931 44.7417 39.931 44.1677C39.931 43.6068 40.2381 43.121 40.6897 42.8567V44.929C40.6897 45.1201 40.7011 45.3089 40.7208 45.4955ZM37.6552 45.1405C38.1067 45.4048 38.4138 45.8907 38.4138 46.4516C38.4138 47.0125 38.1067 47.4984 37.6552 47.7627V45.1405ZM47.5172 50.7658L46 52.7955L44.4828 50.7658V50.0335C44.9636 50.1781 45.4729 50.2581 46 50.2581C46.5271 50.2581 47.0364 50.1781 47.5172 50.0335V50.7658ZM46 48.7355C43.9086 48.7355 42.2069 47.0278 42.2069 44.929V41.0884C43.5589 40.9642 44.8569 40.5089 46 39.7539C47.1431 40.5089 48.4411 40.9642 49.7931 41.0884V44.929C49.7931 47.0278 48.0914 48.7355 46 48.7355ZM43.483 51.9658L44.9517 53.9314L42.4655 55.9272L41.0464 53.078L43.483 51.9658ZM47.0483 53.9314L48.517 51.9658L50.9544 53.0772L49.5353 55.9265L47.0483 53.9314ZM51.3103 44.929V42.8567C51.7619 43.121 52.069 43.6068 52.069 44.1677C52.069 44.7417 51.7474 45.2357 51.2792 45.4955C51.2989 45.3089 51.3103 45.1201 51.3103 44.929ZM64.2069 43.4065V43.8298C63.7587 43.5678 63.2449 43.4065 62.6897 43.4065H55.1034C54.5482 43.4065 54.0344 43.5678 53.5862 43.8298V43.4065C53.5862 40.468 55.9691 38.0774 58.8966 38.0774C61.824 38.0774 64.2069 40.468 64.2069 43.4065ZM54.3448 47.7627C53.8933 47.4984 53.5862 47.0125 53.5862 46.4516C53.5862 45.8907 53.8933 45.4048 54.3448 45.1405V47.7627ZM57.3793 52.2754C57.8549 52.4453 58.3639 52.5419 58.8966 52.5419C59.4292 52.5419 59.9382 52.4445 60.4138 52.2754V52.2884L58.8966 54.3188L57.3793 52.2884V52.2754ZM58.8966 51.0194C57.223 51.0194 55.8621 49.6536 55.8621 47.9742V44.929H61.931V47.9742C61.931 49.6536 60.5701 51.0194 58.8966 51.0194ZM63.4483 47.7627V45.1413C63.8998 45.4056 64.2069 45.8914 64.2069 46.4524C64.2069 47.0133 63.8998 47.4984 63.4483 47.7627ZM63.4483 36.3812V38.3142C62.2389 37.2239 60.646 36.5548 58.8966 36.5548C56.7526 36.5548 54.8386 37.5537 53.5862 39.1097V37.4403C53.5862 35.8125 52.6305 34.3654 51.1744 33.7085L53.0172 33.0149C53.4399 34.1873 54.5497 35.0323 55.8621 35.0323C57.1745 35.0323 58.2842 34.1873 58.7062 33.0142L61.9714 34.2427C62.8549 34.5754 63.4483 35.4341 63.4483 36.3812ZM55.8621 30.4645C54.1885 30.4645 52.8276 29.0988 52.8276 27.4194V24.3203C54.14 24.1991 55.4046 23.7858 56.5229 23.0687L56.5288 23.0746C57.1715 23.7196 58.0075 24.146 58.8966 24.3036V27.4194C58.8966 29.0988 57.5356 30.4645 55.8621 30.4645ZM60.4138 27.2078V24.5864C60.8653 24.8507 61.1724 25.3366 61.1724 25.8975C61.1724 26.4584 60.8653 26.9435 60.4138 27.2078ZM55.8621 17.5226C58.7895 17.5226 61.1724 19.9131 61.1724 22.8516V23.275C60.7242 23.0129 60.2104 22.8516 59.6552 22.8516C58.8906 22.8516 58.1424 22.5401 57.6016 21.9981L56.717 21.1105L55.8172 21.7127C54.7038 22.4572 53.4073 22.8516 52.069 22.8516C51.5137 22.8516 50.9999 23.0129 50.5517 23.275V22.8516C50.5517 19.9131 52.9346 17.5226 55.8621 17.5226ZM50.5517 25.8968C50.5517 25.3358 50.8588 24.85 51.3103 24.5857V27.2071C50.8588 26.9435 50.5517 26.4577 50.5517 25.8968ZM55.8621 31.9871C56.3947 31.9871 56.9037 31.8897 57.3793 31.7206V31.9871C57.3793 32.8268 56.6988 33.5097 55.8621 33.5097C55.0253 33.5097 54.3448 32.8268 54.3448 31.9871V31.7206C54.8204 31.8897 55.3294 31.9871 55.8621 31.9871ZM46.2997 32.7484C47.7584 32.7484 49.1119 33.4755 49.9205 34.6936L50.0646 34.9111L50.3113 34.9936C51.3626 35.3445 52.069 36.3281 52.069 37.4395V41.546C51.8337 41.4081 51.5804 41.3006 51.3103 41.2308V39.6H50.5517C49.2134 39.6 47.9169 39.2056 46.8034 38.461L46 37.9235L45.1966 38.461C44.0831 39.2056 42.7866 39.6 41.4483 39.6H40.6897V41.2308C40.4196 41.3014 40.1663 41.4081 39.931 41.546V38.8387C39.931 35.4806 42.6536 32.7484 46 32.7484H46.2997ZM36.1379 30.4645C34.4644 30.4645 33.1034 29.0988 33.1034 27.4194V24.3742H39.1724V27.4194C39.1724 29.0988 37.8115 30.4645 36.1379 30.4645ZM40.6897 27.2078V24.5864C41.1412 24.8507 41.4483 25.3366 41.4483 25.8975C41.4483 26.4584 41.1412 26.9435 40.6897 27.2078ZM36.1379 17.5226C39.0654 17.5226 41.4483 19.9131 41.4483 22.8516V23.275C41.0001 23.0129 40.4863 22.8516 39.931 22.8516H32.3448C31.7896 22.8516 31.2758 23.0129 30.8276 23.275V22.8516C30.8276 19.9131 33.2105 17.5226 36.1379 17.5226ZM30.8276 25.8968C30.8276 25.3358 31.1347 24.85 31.5862 24.5857V27.2071C31.1347 26.9435 30.8276 26.4577 30.8276 25.8968ZM36.1379 31.9871C36.6706 31.9871 37.1796 31.8897 37.6552 31.7206V31.9871C37.6552 32.8268 36.9747 33.5097 36.1379 33.5097C35.3012 33.5097 34.6207 32.8268 34.6207 31.9871V31.7206C35.0963 31.8897 35.6053 31.9871 36.1379 31.9871ZM30.0286 34.2427L33.2931 33.0142C33.7158 34.1873 34.8255 35.0323 36.1379 35.0323C37.4503 35.0323 38.5601 34.1873 38.982 33.0142L40.5167 33.5918C39.218 34.9583 38.4138 36.8046 38.4138 38.8387V39.1097C37.1614 37.5537 35.2474 36.5548 33.1034 36.5548C31.354 36.5548 29.7611 37.2239 28.5517 38.3142V36.3812C28.5517 35.4341 29.1451 34.5754 30.0286 34.2427ZM27.7931 46.4516C27.7931 45.8907 28.1002 45.4048 28.5517 45.1405V47.7619C28.1002 47.4984 27.7931 47.0125 27.7931 46.4516ZM33.1034 52.5419C33.6361 52.5419 34.1451 52.4445 34.6207 52.2754V52.2884L33.1034 54.3188L31.5862 52.2884V52.2754C32.0618 52.4445 32.5708 52.5419 33.1034 52.5419ZM25.5172 60.1548V56.9361C25.5172 55.9889 26.1107 55.1302 26.9941 54.7976L30.562 53.4556L33.1034 56.8562L35.6379 53.4653L36.418 53.7768C35.2967 54.7734 34.6207 56.219 34.6207 57.7665V60.1548H25.5172ZM36.1379 57.7665C36.1379 56.2778 37.0103 54.918 38.3623 54.3013L39.664 53.7073L41.9491 58.2921L43.5749 56.987L44.4472 58.7389L43.8608 61.6774H40.6897V58.6323H39.1724V61.6774H36.1379V57.7665ZM55.8621 61.6774H52.8276V58.6323H51.3103V61.6774H48.1392L47.5535 58.7389L48.4263 56.987L50.0517 58.2921L52.336 53.7073L53.6377 54.3013C54.9897 54.918 55.8621 56.2785 55.8621 57.7665V61.6774ZM66.4828 60.1548H57.3793V57.7665C57.3793 56.219 56.7033 54.7726 55.582 53.7768L56.3621 53.4646L58.8966 56.8562L61.438 53.4556L65.0059 54.7983C65.8893 55.1302 66.4828 55.9889 66.4828 56.9361V60.1548Z"/>
</mask>
<path d="M68 56.9361C68 55.3581 67.0106 53.9259 65.5389 53.3716L61.931 52.0145V51.3695C62.5052 50.8525 62.9475 50.1934 63.2016 49.4451C64.631 49.199 65.7241 47.9545 65.7241 46.4516V43.4065C65.7241 42.2805 65.4471 41.22 64.9655 40.2821V36.3812C64.9655 34.8033 63.9761 33.371 62.5044 32.8168L58.8966 31.4596V30.8147C59.4707 30.2976 59.913 29.6385 60.1671 28.8903C61.5965 28.6442 62.6897 27.3997 62.6897 25.8968V22.8516C62.6897 19.0742 59.627 16 55.8621 16C52.0971 16 49.0345 19.0742 49.0345 22.8516V25.8968C49.0345 27.3997 50.1276 28.6442 51.557 28.8903C51.8112 29.6378 52.2534 30.2969 52.8276 30.8147V31.4596L49.9768 32.532C48.9482 31.7001 47.6599 31.2258 46.2997 31.2258H46C44.4713 31.2258 43.0496 31.6856 41.8572 32.4696L39.1724 31.4596V30.8147C39.7466 30.2976 40.1888 29.6385 40.443 28.8903C41.8724 28.6442 42.9655 27.3997 42.9655 25.8968V22.8516C42.9655 19.0742 39.9029 16 36.1379 16C32.373 16 29.3103 19.0742 29.3103 22.8516V25.8968C29.3103 27.3997 30.4035 28.6442 31.8329 28.8903C32.087 29.6378 32.5293 30.2969 33.1034 30.8147V31.4596L29.4963 32.8175C28.0239 33.371 27.0345 34.8033 27.0345 36.3812V40.2821C26.5529 41.22 26.2759 42.2805 26.2759 43.4065V46.4516C26.2759 47.9545 27.369 49.199 28.7984 49.4451C29.0525 50.1926 29.4948 50.8517 30.069 51.3695V52.0145L26.4618 53.3716C24.9894 53.9259 24 55.3581 24 56.9361V61.6774H34.6207V63.2H57.3793V61.6774H68V56.9361ZM55.8621 52.0256L53.9714 52.7817L49.0345 50.529V49.2957C49.7938 48.763 50.4054 48.0359 50.8029 47.1869C51.2748 47.1475 51.7148 47.0036 52.1008 46.7713C52.2449 48.1273 53.2662 49.2165 54.5908 49.4444C54.8456 50.1926 55.2879 50.8517 55.8621 51.3695V52.0256ZM45.8633 59.3935H46.1367L46.5916 61.6774H45.4084L45.8633 59.3935ZM46.2897 57.871H45.7103L44.7854 56.0149L46 55.0395L47.2146 56.0149L46.2897 57.871ZM38.0286 52.781L36.1379 52.0256V51.3695C36.7121 50.8525 37.1544 50.1934 37.4085 49.4451C38.7338 49.2172 39.7551 48.1281 39.8984 46.772C40.2844 47.0044 40.7245 47.1482 41.1964 47.1876C41.5939 48.0366 42.2054 48.7637 42.9648 49.2964V50.5298L38.0286 52.781ZM30.069 47.9742V44.8774C31.1795 44.7599 32.2274 44.3536 33.1034 43.6622C33.9795 44.3543 35.0274 44.7599 36.1379 44.8774V47.9742C36.1379 49.6536 34.777 51.0194 33.1034 51.0194C31.4299 51.0194 30.069 49.6536 30.069 47.9742ZM33.1034 38.0774C36.0309 38.0774 38.4138 40.468 38.4138 43.4065V43.8298C37.9656 43.5678 37.4518 43.4065 36.8966 43.4065H36.7662C35.5849 43.4065 34.4744 42.9451 33.6398 42.1069L33.1034 41.5679L32.5671 42.1069C31.7318 42.9451 30.622 43.4065 29.4407 43.4065H29.3103C28.7551 43.4065 28.2413 43.5678 27.7931 43.8298V43.4065C27.7931 40.468 30.176 38.0774 33.1034 38.0774ZM40.7208 45.4955C40.2526 45.2357 39.931 44.7417 39.931 44.1677C39.931 43.6068 40.2381 43.121 40.6897 42.8567V44.929C40.6897 45.1201 40.7011 45.3089 40.7208 45.4955ZM37.6552 45.1405C38.1067 45.4048 38.4138 45.8907 38.4138 46.4516C38.4138 47.0125 38.1067 47.4984 37.6552 47.7627V45.1405ZM47.5172 50.7658L46 52.7955L44.4828 50.7658V50.0335C44.9636 50.1781 45.4729 50.2581 46 50.2581C46.5271 50.2581 47.0364 50.1781 47.5172 50.0335V50.7658ZM46 48.7355C43.9086 48.7355 42.2069 47.0278 42.2069 44.929V41.0884C43.5589 40.9642 44.8569 40.5089 46 39.7539C47.1431 40.5089 48.4411 40.9642 49.7931 41.0884V44.929C49.7931 47.0278 48.0914 48.7355 46 48.7355ZM43.483 51.9658L44.9517 53.9314L42.4655 55.9272L41.0464 53.078L43.483 51.9658ZM47.0483 53.9314L48.517 51.9658L50.9544 53.0772L49.5353 55.9265L47.0483 53.9314ZM51.3103 44.929V42.8567C51.7619 43.121 52.069 43.6068 52.069 44.1677C52.069 44.7417 51.7474 45.2357 51.2792 45.4955C51.2989 45.3089 51.3103 45.1201 51.3103 44.929ZM64.2069 43.4065V43.8298C63.7587 43.5678 63.2449 43.4065 62.6897 43.4065H55.1034C54.5482 43.4065 54.0344 43.5678 53.5862 43.8298V43.4065C53.5862 40.468 55.9691 38.0774 58.8966 38.0774C61.824 38.0774 64.2069 40.468 64.2069 43.4065ZM54.3448 47.7627C53.8933 47.4984 53.5862 47.0125 53.5862 46.4516C53.5862 45.8907 53.8933 45.4048 54.3448 45.1405V47.7627ZM57.3793 52.2754C57.8549 52.4453 58.3639 52.5419 58.8966 52.5419C59.4292 52.5419 59.9382 52.4445 60.4138 52.2754V52.2884L58.8966 54.3188L57.3793 52.2884V52.2754ZM58.8966 51.0194C57.223 51.0194 55.8621 49.6536 55.8621 47.9742V44.929H61.931V47.9742C61.931 49.6536 60.5701 51.0194 58.8966 51.0194ZM63.4483 47.7627V45.1413C63.8998 45.4056 64.2069 45.8914 64.2069 46.4524C64.2069 47.0133 63.8998 47.4984 63.4483 47.7627ZM63.4483 36.3812V38.3142C62.2389 37.2239 60.646 36.5548 58.8966 36.5548C56.7526 36.5548 54.8386 37.5537 53.5862 39.1097V37.4403C53.5862 35.8125 52.6305 34.3654 51.1744 33.7085L53.0172 33.0149C53.4399 34.1873 54.5497 35.0323 55.8621 35.0323C57.1745 35.0323 58.2842 34.1873 58.7062 33.0142L61.9714 34.2427C62.8549 34.5754 63.4483 35.4341 63.4483 36.3812ZM55.8621 30.4645C54.1885 30.4645 52.8276 29.0988 52.8276 27.4194V24.3203C54.14 24.1991 55.4046 23.7858 56.5229 23.0687L56.5288 23.0746C57.1715 23.7196 58.0075 24.146 58.8966 24.3036V27.4194C58.8966 29.0988 57.5356 30.4645 55.8621 30.4645ZM60.4138 27.2078V24.5864C60.8653 24.8507 61.1724 25.3366 61.1724 25.8975C61.1724 26.4584 60.8653 26.9435 60.4138 27.2078ZM55.8621 17.5226C58.7895 17.5226 61.1724 19.9131 61.1724 22.8516V23.275C60.7242 23.0129 60.2104 22.8516 59.6552 22.8516C58.8906 22.8516 58.1424 22.5401 57.6016 21.9981L56.717 21.1105L55.8172 21.7127C54.7038 22.4572 53.4073 22.8516 52.069 22.8516C51.5137 22.8516 50.9999 23.0129 50.5517 23.275V22.8516C50.5517 19.9131 52.9346 17.5226 55.8621 17.5226ZM50.5517 25.8968C50.5517 25.3358 50.8588 24.85 51.3103 24.5857V27.2071C50.8588 26.9435 50.5517 26.4577 50.5517 25.8968ZM55.8621 31.9871C56.3947 31.9871 56.9037 31.8897 57.3793 31.7206V31.9871C57.3793 32.8268 56.6988 33.5097 55.8621 33.5097C55.0253 33.5097 54.3448 32.8268 54.3448 31.9871V31.7206C54.8204 31.8897 55.3294 31.9871 55.8621 31.9871ZM46.2997 32.7484C47.7584 32.7484 49.1119 33.4755 49.9205 34.6936L50.0646 34.9111L50.3113 34.9936C51.3626 35.3445 52.069 36.3281 52.069 37.4395V41.546C51.8337 41.4081 51.5804 41.3006 51.3103 41.2308V39.6H50.5517C49.2134 39.6 47.9169 39.2056 46.8034 38.461L46 37.9235L45.1966 38.461C44.0831 39.2056 42.7866 39.6 41.4483 39.6H40.6897V41.2308C40.4196 41.3014 40.1663 41.4081 39.931 41.546V38.8387C39.931 35.4806 42.6536 32.7484 46 32.7484H46.2997ZM36.1379 30.4645C34.4644 30.4645 33.1034 29.0988 33.1034 27.4194V24.3742H39.1724V27.4194C39.1724 29.0988 37.8115 30.4645 36.1379 30.4645ZM40.6897 27.2078V24.5864C41.1412 24.8507 41.4483 25.3366 41.4483 25.8975C41.4483 26.4584 41.1412 26.9435 40.6897 27.2078ZM36.1379 17.5226C39.0654 17.5226 41.4483 19.9131 41.4483 22.8516V23.275C41.0001 23.0129 40.4863 22.8516 39.931 22.8516H32.3448C31.7896 22.8516 31.2758 23.0129 30.8276 23.275V22.8516C30.8276 19.9131 33.2105 17.5226 36.1379 17.5226ZM30.8276 25.8968C30.8276 25.3358 31.1347 24.85 31.5862 24.5857V27.2071C31.1347 26.9435 30.8276 26.4577 30.8276 25.8968ZM36.1379 31.9871C36.6706 31.9871 37.1796 31.8897 37.6552 31.7206V31.9871C37.6552 32.8268 36.9747 33.5097 36.1379 33.5097C35.3012 33.5097 34.6207 32.8268 34.6207 31.9871V31.7206C35.0963 31.8897 35.6053 31.9871 36.1379 31.9871ZM30.0286 34.2427L33.2931 33.0142C33.7158 34.1873 34.8255 35.0323 36.1379 35.0323C37.4503 35.0323 38.5601 34.1873 38.982 33.0142L40.5167 33.5918C39.218 34.9583 38.4138 36.8046 38.4138 38.8387V39.1097C37.1614 37.5537 35.2474 36.5548 33.1034 36.5548C31.354 36.5548 29.7611 37.2239 28.5517 38.3142V36.3812C28.5517 35.4341 29.1451 34.5754 30.0286 34.2427ZM27.7931 46.4516C27.7931 45.8907 28.1002 45.4048 28.5517 45.1405V47.7619C28.1002 47.4984 27.7931 47.0125 27.7931 46.4516ZM33.1034 52.5419C33.6361 52.5419 34.1451 52.4445 34.6207 52.2754V52.2884L33.1034 54.3188L31.5862 52.2884V52.2754C32.0618 52.4445 32.5708 52.5419 33.1034 52.5419ZM25.5172 60.1548V56.9361C25.5172 55.9889 26.1107 55.1302 26.9941 54.7976L30.562 53.4556L33.1034 56.8562L35.6379 53.4653L36.418 53.7768C35.2967 54.7734 34.6207 56.219 34.6207 57.7665V60.1548H25.5172ZM36.1379 57.7665C36.1379 56.2778 37.0103 54.918 38.3623 54.3013L39.664 53.7073L41.9491 58.2921L43.5749 56.987L44.4472 58.7389L43.8608 61.6774H40.6897V58.6323H39.1724V61.6774H36.1379V57.7665ZM55.8621 61.6774H52.8276V58.6323H51.3103V61.6774H48.1392L47.5535 58.7389L48.4263 56.987L50.0517 58.2921L52.336 53.7073L53.6377 54.3013C54.9897 54.918 55.8621 56.2785 55.8621 57.7665V61.6774ZM66.4828 60.1548H57.3793V57.7665C57.3793 56.219 56.7033 54.7726 55.582 53.7768L56.3621 53.4646L58.8966 56.8562L61.438 53.4556L65.0059 54.7983C65.8893 55.1302 66.4828 55.9889 66.4828 56.9361V60.1548Z" fill="white" stroke="#095783" stroke-width="2" mask="url(#path-2-inside-1)"/>
<defs>
<filter id="filter0_df" x="0" y="0" width="89" height="90" filterUnits="userSpaceOnUse" color-interpolation-filters="sRGB">
<feFlood flood-opacity="0" result="BackgroundImageFix"/>
<feColorMatrix in="SourceAlpha" type="matrix" values="0 0 0 0 0 0 0 0 0 0 0 0 0 0 0 0 0 0 127 0" result="hardAlpha"/>
<feOffset dy="4"/>
<feGaussianBlur stdDeviation="2"/>
<feColorMatrix type="matrix" values="0 0 0 0 0.454167 0 0 0 0 0.452274 0 0 0 0 0.452274 0 0 0 0.25 0"/>
<feBlend mode="normal" in2="BackgroundImageFix" result="effect1_dropShadow"/>
<feBlend mode="normal" in="SourceGraphic" in2="effect1_dropShadow" result="shape"/>
<feGaussianBlur stdDeviation="0.5" result="effect2_foregroundBlur"/>
</filter>
</defs>
</svg>
