<svg width="93" height="93" viewBox="0 0 93 93" fill="none" xmlns="http://www.w3.org/2000/svg">
<g filter="url(#filter0_d)">
<g filter="url(#filter1_f)">
<circle cx="46.5" cy="42.5" r="40.5" fill="white"/>
<circle cx="46.5" cy="42.5" r="40" stroke="white"/>
</g>
</g>
<path d="M66.6666 41.1333H64.9333V42.8667H66.6666C68.1001 42.8667 69.2666 44.0332 69.2666 45.4667V57.6H39.8V45.4667C39.8 44.0332 40.9665 42.8667 42.4 42.8667H44.1333V41.1333H42.4C40.0106 41.1333 38.0667 43.0773 38.0667 45.4667V59.3333C38.0667 61.7227 40.0106 63.6667 42.4 63.6667H50.6532L49.6133 66.2667H46.7333V68H50.2H58.8666H62.3333V66.2667H59.4534L58.4134 63.6667H66.6666C69.056 63.6667 71 61.7227 71 59.3333V45.4667C71 43.0773 69.056 41.1333 66.6666 41.1333ZM51.4801 66.2667L52.52 63.6667H56.5466L57.5866 66.2667H51.4801ZM66.6666 61.9333H57.1333H51.9333H42.4C40.9665 61.9333 39.8 60.7668 39.8 59.3333H69.2666C69.2666 60.7668 68.1001 61.9333 66.6666 61.9333Z" fill="#095783"/>
<path d="M57.3873 27.5206L55.4 29.5079V26.4C55.4 24.0106 53.4561 22.0667 51.0667 22.0667H36.3333V20.3333C36.3333 17.9439 34.3894 16 32 16H19.8667C19.3883 16 19 16.3883 19 16.8667V37.6667V42C19 42.4784 19.3883 42.8667 19.8667 42.8667H20.7333H24.2H27.6667V41.1333H24.7867L23.7467 38.5333H32C34.3894 38.5333 36.3333 36.5894 36.3333 34.2V23.8H51.0667C52.5001 23.8 53.6667 24.9665 53.6667 26.4V29.5079L51.6794 27.5206L50.4539 28.7461L53.9206 32.2127C54.0896 32.3817 54.3115 32.4667 54.5333 32.4667C54.7552 32.4667 54.9771 32.3817 55.1461 32.2127L58.6127 28.7461L57.3873 27.5206ZM20.7333 41.1333V38.5333H21.8799L22.9199 41.1333H20.7333ZM32 36.8H22.4667H20.7333V34.2H34.6C34.6 35.6335 33.4335 36.8 32 36.8ZM34.6 22.0667H31.1333V23.8H34.6V32.4667H20.7333V17.7333H32C33.4335 17.7333 34.6 18.8999 34.6 20.3333V22.0667Z" fill="#095783"/>
<path d="M25.9333 22.0667V20.3333H24.2V25.5333H25.9333V23.8H29.4V22.0667H25.9333Z" fill="#095783"/>
<path d="M61.4554 46.3333C62.5751 44.8479 63.2 43.0374 63.2 41.1333C63.2 36.3545 59.3121 32.4667 54.5333 32.4667C49.7545 32.4667 45.8667 36.3545 45.8667 41.1333C45.8667 43.0374 46.4915 44.8479 47.6113 46.3333H45V48.0667H49.6358H59.4309H64.0667V46.3333H61.4554ZM59.1145 46.3333H55.4V46.1739C56.4062 45.8151 57.1333 44.8617 57.1333 43.7333V42.8667C57.1333 41.4332 55.9668 40.2667 54.5333 40.2667C54.0558 40.2667 53.6667 39.8775 53.6667 39.4V38.5333C53.6667 38.0558 54.0558 37.6667 54.5333 37.6667C55.0109 37.6667 55.4 38.0558 55.4 38.5333H57.1333C57.1333 37.4049 56.4062 36.4516 55.4 36.0928V35.0667H53.6667V36.0928C52.6605 36.4516 51.9333 37.4049 51.9333 38.5333V39.4C51.9333 40.8335 53.0999 42 54.5333 42C55.0109 42 55.4 42.3891 55.4 42.8667V43.7333C55.4 44.2109 55.0109 44.6 54.5333 44.6C54.0558 44.6 53.6667 44.2109 53.6667 43.7333H51.9333C51.9333 44.8617 52.6605 45.8151 53.6667 46.1739V46.3333H49.9521C48.4537 45.0143 47.6 43.1353 47.6 41.1333C47.6 37.3105 50.7105 34.2 54.5333 34.2C58.3562 34.2 61.4667 37.3105 61.4667 41.1333C61.4667 43.1353 60.613 45.0143 59.1145 46.3333Z" fill="#095783"/>
<path d="M32.8666 29H31.1333V30.7333H32.8666V29Z" fill="#095783"/>
<path d="M29.4 29H27.6667V30.7333H29.4V29Z" fill="#095783"/>
<path d="M25.9333 29H24.2V30.7333H25.9333V29Z" fill="#095783"/>
<defs>
<filter id="filter0_d" x="0" y="0" width="93" height="93" filterUnits="userSpaceOnUse" color-interpolation-filters="sRGB">
<feFlood flood-opacity="0" result="BackgroundImageFix"/>
<feColorMatrix in="SourceAlpha" type="matrix" values="0 0 0 0 0 0 0 0 0 0 0 0 0 0 0 0 0 0 127 0" result="hardAlpha"/>
<feOffset dy="4"/>
<feGaussianBlur stdDeviation="3"/>
<feColorMatrix type="matrix" values="0 0 0 0 0.65 0 0 0 0 0.639167 0 0 0 0 0.639167 0 0 0 0.25 0"/>
<feBlend mode="normal" in2="BackgroundImageFix" result="effect1_dropShadow"/>
<feBlend mode="normal" in="SourceGraphic" in2="effect1_dropShadow" result="shape"/>
</filter>
<filter id="filter1_f" x="5" y="1" width="83" height="83" filterUnits="userSpaceOnUse" color-interpolation-filters="sRGB">
<feFlood flood-opacity="0" result="BackgroundImageFix"/>
<feBlend mode="normal" in="SourceGraphic" in2="BackgroundImageFix" result="shape"/>
<feGaussianBlur stdDeviation="0.5" result="effect1_foregroundBlur"/>
</filter>
</defs>
</svg>
