<svg width="93" height="93" viewBox="0 0 93 93" fill="none" xmlns="http://www.w3.org/2000/svg">
<g filter="url(#filter0_d)">
<g filter="url(#filter1_f)">
<circle cx="46.5" cy="42.5" r="40.5" fill="#E6F7FA"/>
<circle cx="46.5" cy="42.5" r="40" stroke="#3C8994"/>
</g>
<path d="M66.75 45.5C65.5074 45.5 64.5 46.5074 64.5 47.75V50H40.2367C40.4078 49.6495 40.4978 49.265 40.5 48.875C40.5 47.4253 39.3247 46.25 37.875 46.25H32.625C31.1753 46.25 30 47.4253 30 48.875C30.0022 49.265 30.0922 49.6495 30.2633 50H28.5V41.75C28.5 40.5074 27.4926 39.5 26.25 39.5C25.0074 39.5 24 40.5074 24 41.75V62.75C23.9979 63.8446 24.7856 64.7811 25.8644 64.9665C26.9431 65.152 27.9984 64.5324 28.362 63.5H64.638C65.0016 64.5324 66.0569 65.152 67.1356 64.9665C68.2144 64.7811 69.0021 63.8446 69 62.75V47.75C69 46.5074 67.9926 45.5 66.75 45.5ZM64.5 58.25H38.25C37.8358 58.25 37.5 57.9142 37.5 57.5V51.5H64.5V58.25ZM31.5 48.875C31.5 48.2537 32.0037 47.75 32.625 47.75H37.875C38.4963 47.75 39 48.2537 39 48.875C39 49.4963 38.4963 50 37.875 50H32.625C32.0037 50 31.5 49.4963 31.5 48.875ZM26.25 63.5C25.8358 63.5 25.5 63.1642 25.5 62.75V41.75C25.5 41.3358 25.8358 41 26.25 41C26.6642 41 27 41.3358 27 41.75V62.75C27 63.1642 26.6642 63.5 26.25 63.5ZM28.5 51.5H36V57.5C36 58.7426 37.0074 59.75 38.25 59.75H64.5V62H28.5V51.5ZM67.5 62.75C67.5 63.1642 67.1642 63.5 66.75 63.5C66.3358 63.5 66 63.1642 66 62.75V47.75C66 47.3358 66.3358 47 66.75 47C67.1642 47 67.5 47.3358 67.5 47.75V62.75Z" fill="#287CAB"/>
<path d="M46.5 44C53.1274 44 58.5 38.6274 58.5 32C58.5 25.3726 53.1274 20 46.5 20C39.8726 20 34.5 25.3726 34.5 32C34.5079 38.6242 39.8758 43.9921 46.5 44ZM46.5 21.5C52.299 21.5 57 26.201 57 32C57 37.799 52.299 42.5 46.5 42.5C40.701 42.5 36 37.799 36 32C36.0062 26.2036 40.7036 21.5062 46.5 21.5Z" fill="#287CAB"/>
<path d="M41.25 35H43.5V37.25C43.5 38.0784 44.1716 38.75 45 38.75H48C48.8284 38.75 49.5 38.0784 49.5 37.25V35H51.75C52.5784 35 53.25 34.3284 53.25 33.5V30.5C53.25 29.6716 52.5784 29 51.75 29H49.5V26.75C49.5 25.9216 48.8284 25.25 48 25.25H45C44.1716 25.25 43.5 25.9216 43.5 26.75V29H41.25C40.4216 29 39.75 29.6716 39.75 30.5V33.5C39.75 34.3284 40.4216 35 41.25 35ZM41.25 30.5H43.5C44.3284 30.5 45 29.8284 45 29V26.75H48V29C48 29.8284 48.6716 30.5 49.5 30.5H51.75V33.5H49.5C48.6716 33.5 48 34.1716 48 35V37.25H45V35C45 34.1716 44.3284 33.5 43.5 33.5H41.25V30.5Z" fill="#287CAB"/>
<path d="M39.75 54.5H56.25C56.6642 54.5 57 54.1642 57 53.75C57 53.3358 56.6642 53 56.25 53H39.75C39.3358 53 39 53.3358 39 53.75C39 54.1642 39.3358 54.5 39.75 54.5Z" fill="#287CAB"/>
<path d="M59.25 54.5C59.6642 54.5 60 54.1642 60 53.75C60 53.3358 59.6642 53 59.25 53C58.8358 53 58.5 53.3358 58.5 53.75C58.5 54.1642 58.8358 54.5 59.25 54.5Z" fill="#287CAB"/>
</g>
<defs>
<filter id="filter0_d" x="0" y="0" width="93" height="93" filterUnits="userSpaceOnUse" color-interpolation-filters="sRGB">
<feFlood flood-opacity="0" result="BackgroundImageFix"/>
<feColorMatrix in="SourceAlpha" type="matrix" values="0 0 0 0 0 0 0 0 0 0 0 0 0 0 0 0 0 0 127 0" result="hardAlpha"/>
<feOffset dy="4"/>
<feGaussianBlur stdDeviation="3"/>
<feColorMatrix type="matrix" values="0 0 0 0 0.65 0 0 0 0 0.639167 0 0 0 0 0.639167 0 0 0 0.25 0"/>
<feBlend mode="normal" in2="BackgroundImageFix" result="effect1_dropShadow"/>
<feBlend mode="normal" in="SourceGraphic" in2="effect1_dropShadow" result="shape"/>
</filter>
<filter id="filter1_f" x="5" y="1" width="83" height="83" filterUnits="userSpaceOnUse" color-interpolation-filters="sRGB">
<feFlood flood-opacity="0" result="BackgroundImageFix"/>
<feBlend mode="normal" in="SourceGraphic" in2="BackgroundImageFix" result="shape"/>
<feGaussianBlur stdDeviation="0.5" result="effect1_foregroundBlur"/>
</filter>
</defs>
</svg>
