<svg width="93" height="93" viewBox="0 0 93 93" fill="none" xmlns="http://www.w3.org/2000/svg">
<g filter="url(#filter0_d)">
<g filter="url(#filter1_f)">
<circle cx="46.5" cy="42.5" r="40.5" fill="#E6F7FA"/>
<circle cx="46.5" cy="42.5" r="40" stroke="#3C8994"/>
</g>
<path d="M40.1147 27.1559C40.9452 27.1559 41.7255 27.5596 42.2018 28.2358C42.3675 28.4709 42.6664 28.5717 42.9405 28.4849C43.2148 28.3981 43.4011 28.1435 43.4011 27.8559V20.6598C43.4011 20.2955 43.1057 20 42.7412 20H24.6598C24.2954 20 24 20.2955 24 20.6598V25.2047C24 25.5691 24.2954 25.8645 24.6598 25.8645C25.0243 25.8645 25.3197 25.5691 25.3197 25.2047V21.3197H42.0813V26.3719C41.4935 26.0261 40.8159 25.8362 40.1147 25.8362C37.9863 25.8362 36.255 27.5676 36.255 29.6958C36.255 31.8241 37.9864 33.5556 40.1147 33.5556C40.8159 33.5556 41.4935 33.3656 42.0813 33.0198V38.0721H35.4991C35.2097 38.0721 34.9541 38.2606 34.8686 38.5371C34.7832 38.8136 34.8879 39.1134 35.1268 39.2767C35.8214 39.7515 36.236 40.5359 36.236 41.3753C36.236 42.776 35.0966 43.9154 33.6959 43.9154C32.2954 43.9154 31.1559 42.776 31.1559 41.3753C31.1559 40.536 31.5706 39.7514 32.2651 39.2767C32.504 39.1135 32.6086 38.8136 32.5232 38.5371C32.4377 38.2606 32.1821 38.0721 31.8928 38.0721H25.3198V27.4042C25.3198 27.0398 25.0244 26.7444 24.6599 26.7444C24.2955 26.7444 24.0001 27.0398 24.0001 27.4042V38.7318C24.0001 39.0962 24.2955 39.3917 24.6599 39.3917H30.385C30.031 39.9825 29.8362 40.6659 29.8362 41.3751C29.8362 43.5035 31.5676 45.2349 33.6958 45.2349C35.8241 45.2349 37.5556 43.5035 37.5556 41.3751C37.5556 40.6659 37.3609 39.9825 37.0067 39.3917H42.7412C43.1056 39.3917 43.401 39.0962 43.401 38.7318V31.5358C43.401 31.2481 43.2147 30.9937 42.9405 30.9068C42.6664 30.82 42.3673 30.9207 42.2017 31.1559C41.7254 31.8322 40.9452 32.2358 40.1147 32.2358C38.7141 32.2358 37.5747 31.0964 37.5747 29.6957C37.5749 28.2953 38.7143 27.1559 40.1147 27.1559Z" fill="#287CAB"/>
<path d="M68.3401 36.3389C68.7045 36.3389 68.9999 36.0434 68.9999 35.679V28.6321C68.9999 28.2678 68.7045 27.9723 68.3401 27.9723H50.4453C50.081 27.9723 49.7855 28.2678 49.7855 28.6321V34.2849C49.2042 33.9385 48.5336 33.7481 47.8385 33.7481C45.7284 33.7481 44.0118 35.4647 44.0118 37.5747C44.0118 39.6848 45.7284 41.4014 47.8385 41.4014C48.5335 41.4014 49.204 41.211 49.7855 40.8646V45.8575H43.3143C43.0266 45.8575 42.7721 46.0438 42.6854 46.3181C42.5984 46.5923 42.6992 46.8912 42.9344 47.0569C43.6019 47.527 44.0004 48.2937 44.0004 49.1076C44.0004 50.4899 42.8757 51.6146 41.4934 51.6146C40.1111 51.6146 38.9864 50.4899 38.9864 49.1076C38.9864 48.2937 39.3849 47.527 40.0524 47.0569C40.2876 46.8912 40.3884 46.5923 40.3014 46.3181C40.2146 46.0438 39.9601 45.8575 39.6725 45.8575H32.5507C32.1862 45.8575 31.8909 46.153 31.8909 46.5174V56.9376C31.8909 57.302 32.1862 57.5975 32.5507 57.5975C32.9152 57.5975 33.2105 57.302 33.2105 56.9376V47.1774H38.1907C37.8525 47.7557 37.6667 48.4206 37.6667 49.1077C37.6667 51.2177 39.3833 52.9343 41.4933 52.9343C43.6033 52.9343 45.32 51.2177 45.32 49.1077C45.32 48.4206 45.1342 47.7557 44.7959 47.1774H49.7853V53.6393V53.6758C49.7853 53.9651 49.9739 54.2207 50.2503 54.3061C50.5268 54.3917 50.8265 54.2869 50.99 54.048C51.4578 53.3634 52.2273 52.9544 53.0487 52.9533C54.4291 52.9555 55.5515 54.0792 55.5515 55.4602C55.5515 56.8412 54.4291 57.9648 53.0487 57.967C52.2273 57.9659 51.4578 57.557 50.9899 56.8724C50.8267 56.6335 50.5268 56.5288 50.2503 56.6143C49.9738 56.6998 49.7853 56.9554 49.7853 57.2448V57.2812V63.7432H33.2105V59.1373C33.2105 58.7729 32.9152 58.4774 32.5507 58.4774C32.1862 58.4774 31.8909 58.7729 31.8909 59.1373V64.403C31.8909 64.7674 32.1862 65.0629 32.5507 65.0629H50.4453H68.3402C68.7046 65.0629 69 64.7674 69 64.403V46.5176V37.8785C69 37.5141 68.7046 37.2186 68.3402 37.2186C67.9757 37.2186 67.6803 37.5141 67.6803 37.8785V45.8578H62.7001C63.0383 45.2794 63.2241 44.6145 63.2241 43.9275C63.2241 43.9225 63.2238 43.9176 63.2238 43.9126C63.2238 43.9089 63.2241 43.9052 63.2241 43.9015C63.2241 41.7915 61.5075 40.0749 59.3975 40.0749C57.2875 40.0749 55.5709 41.7916 55.5709 43.9015C55.5709 43.9052 55.5712 43.9089 55.5712 43.9126C55.5712 43.9175 55.5709 43.9224 55.5709 43.9275C55.5709 44.6146 55.7567 45.2794 56.0949 45.8578H51.1054V39.3594C51.1054 39.07 50.917 38.8144 50.6405 38.7289C50.3639 38.6434 50.0641 38.7481 49.9008 38.9871C49.4324 39.6726 48.6615 40.0818 47.8387 40.0818C46.4564 40.0818 45.3318 38.9572 45.3318 37.5748C45.3318 36.1925 46.4564 35.0679 47.8387 35.0679C48.6615 35.0679 49.4323 35.477 49.9008 36.1625C50.064 36.4013 50.3637 36.5063 50.6405 36.4206C50.917 36.3352 51.1054 36.0796 51.1054 35.7902V29.2918H67.6806V35.6788C67.6802 36.0434 67.9757 36.3389 68.3401 36.3389ZM51.1052 47.1774H57.5764V47.1775H57.6128C57.9022 47.1775 58.1578 46.9889 58.2432 46.7125C58.3287 46.4359 58.224 46.1362 57.9851 45.9728C57.3028 45.5065 56.8945 44.7372 56.8907 43.9132C56.8985 42.5374 58.0198 41.4204 59.3974 41.4204C60.775 41.4204 61.8962 42.5374 61.9039 43.9132C61.9 44.7372 61.4918 45.5065 60.8095 45.9728C60.5707 46.1361 60.4661 46.4359 60.5515 46.7125C60.637 46.9889 60.8925 47.1775 61.1818 47.1775H61.2183H67.6802V63.7433H51.1052V58.7619C51.6855 59.1008 52.3537 59.2871 53.0448 59.2871C53.0462 59.2871 53.0477 59.287 53.0491 59.287C53.0502 59.287 53.0512 59.2871 53.0523 59.2871C55.1623 59.2871 56.879 57.5704 56.879 55.4604C56.879 53.3504 55.1623 51.6338 53.0523 51.6338C53.0512 51.6338 53.0502 51.6338 53.0491 51.6338C53.0477 51.6338 53.0462 51.6338 53.0448 51.6338C52.3538 51.6338 51.6856 51.82 51.1052 52.1589V47.1774Z" fill="#287CAB"/>
</g>
<defs>
<filter id="filter0_d" x="0" y="0" width="93" height="93" filterUnits="userSpaceOnUse" color-interpolation-filters="sRGB">
<feFlood flood-opacity="0" result="BackgroundImageFix"/>
<feColorMatrix in="SourceAlpha" type="matrix" values="0 0 0 0 0 0 0 0 0 0 0 0 0 0 0 0 0 0 127 0" result="hardAlpha"/>
<feOffset dy="4"/>
<feGaussianBlur stdDeviation="3"/>
<feColorMatrix type="matrix" values="0 0 0 0 0.65 0 0 0 0 0.639167 0 0 0 0 0.639167 0 0 0 0.25 0"/>
<feBlend mode="normal" in2="BackgroundImageFix" result="effect1_dropShadow"/>
<feBlend mode="normal" in="SourceGraphic" in2="effect1_dropShadow" result="shape"/>
</filter>
<filter id="filter1_f" x="5" y="1" width="83" height="83" filterUnits="userSpaceOnUse" color-interpolation-filters="sRGB">
<feFlood flood-opacity="0" result="BackgroundImageFix"/>
<feBlend mode="normal" in="SourceGraphic" in2="BackgroundImageFix" result="shape"/>
<feGaussianBlur stdDeviation="0.5" result="effect1_foregroundBlur"/>
</filter>
</defs>
</svg>
