<svg width="137" height="137" viewBox="0 0 137 137" fill="none" xmlns="http://www.w3.org/2000/svg">
<path d="M5.71401 90.4551C19.5204 121.943 55.9641 135.467 84.5186 133.161C92.3154 132.531 108.002 131.265 120.251 119.963C143.773 98.2583 140.15 52.8901 117.633 26.18C114.733 22.7402 94.6612 -0.305627 63.3827 0.00307281C40.4826 0.229094 24.4092 12.8511 22.4548 14.4234C19.9856 16.4097 14.5401 21.1302 9.6322 28.6192C-1.89978 46.2151 -2.91345 70.7786 5.71401 90.4551Z" fill="#E7F6FE"/>
<path d="M86.5252 108.452C86.469 107.751 85.7532 107.145 84.5414 106.658C85.8584 105.932 86.5869 105.154 86.5252 104.39C86.3388 102.08 79.024 100.785 70.1866 101.498C61.3493 102.211 54.3363 104.661 54.5222 106.97C54.5784 107.671 55.2942 108.278 56.506 108.764C55.189 109.49 54.4605 110.268 54.5222 111.032C54.5784 111.732 55.2942 112.339 56.506 112.825C55.189 113.551 54.4605 114.329 54.5222 115.093C54.5784 115.794 55.2942 116.4 56.506 116.886C55.189 117.612 54.4605 118.39 54.5222 119.154C54.6044 120.176 56.0828 120.998 58.4692 121.537C58.4384 122.292 58.4555 123.12 58.5299 124.033C58.8758 128.289 63.6633 131.627 69.9958 131.627C76.3283 131.627 81.8091 127.076 81.8713 122.807C81.8864 121.76 81.8419 120.839 81.747 120.02C84.7768 119.009 86.6221 117.773 86.5252 116.574C86.469 115.873 85.7532 115.267 84.5414 114.781C85.8584 114.055 86.5869 113.276 86.5252 112.513C86.469 111.812 85.7532 111.206 84.5414 110.72C85.8584 109.993 86.5869 109.215 86.5252 108.452Z" fill="#287CAB"/>
<path d="M66.0992 122.456C63.4745 122.456 61.0729 122.263 59.0886 121.883C58.9736 121.861 58.8978 121.75 58.9198 121.635C58.9418 121.52 59.0524 121.444 59.1683 121.467C62.2734 122.061 66.4201 122.192 70.8456 121.835C74.4669 121.543 77.8533 120.959 80.6389 120.146C80.7519 120.113 80.8693 120.178 80.9021 120.291C80.9349 120.403 80.8703 120.521 80.7578 120.554C77.9447 121.375 74.529 121.964 70.8799 122.258C69.2366 122.391 67.63 122.456 66.0992 122.456Z" fill="#6BB4DD"/>
<path d="M66.1421 118.391C62.7322 118.391 59.6848 118.07 57.5352 117.458C57.4226 117.426 57.3571 117.309 57.3889 117.196C57.4212 117.083 57.5381 117.018 57.6511 117.05C60.7141 117.922 65.646 118.192 70.8445 117.774C75.9867 117.359 80.7821 116.316 83.6729 114.982C83.7796 114.934 83.9053 114.98 83.9547 115.086C84.0036 115.193 83.9571 115.319 83.851 115.368C80.9176 116.721 76.0679 117.778 70.8792 118.197C69.2599 118.327 67.6645 118.391 66.1421 118.391Z" fill="#6BB4DD"/>
<path d="M66.0993 114.333C62.4174 114.333 59.1954 113.957 57.0266 113.241C56.9151 113.205 56.8549 113.085 56.8916 112.973C56.9283 112.862 57.0477 112.802 57.1597 112.838C60.1777 113.833 65.294 114.16 70.8457 113.712C75.9875 113.298 80.7828 112.255 83.6741 110.921C83.7808 110.872 83.9065 110.919 83.9559 111.025C84.0049 111.131 83.9584 111.257 83.8522 111.306C80.9184 112.66 76.0692 113.717 70.8805 114.135C69.2352 114.268 67.6276 114.333 66.0993 114.333Z" fill="#6BB4DD"/>
<path d="M66.1276 110.27C63.2069 110.27 60.5504 110.034 58.4854 109.575C58.3709 109.55 58.299 109.436 58.3245 109.322C58.3499 109.208 58.4639 109.135 58.5779 109.161C61.6835 109.851 66.155 110.03 70.8456 109.652C75.9414 109.241 80.7128 108.209 83.6085 106.891C83.7152 106.842 83.8409 106.889 83.8893 106.996C83.9378 107.103 83.8908 107.228 83.7841 107.277C80.8464 108.615 76.0221 109.661 70.8799 110.075C69.2547 110.206 67.6549 110.27 66.1276 110.27Z" fill="#6BB4DD"/>
<path d="M48.5923 87.9518C47.5189 84.1501 45.6956 80.5973 43.2407 77.503C37.9796 70.8725 29.3971 57.3881 28.3404 38.984C26.8037 12.2146 50.5453 -1.18766 72.2096 0.631764C93.8738 2.45119 115.251 18.5819 112.911 43.4858C111.471 58.8093 102.894 70.4322 96.5088 77.1072C92.4536 81.3458 89.5613 86.5375 87.9958 92.1904C86.0795 99.1095 81.519 107.732 70.6788 108.258C56.6513 108.938 50.8261 95.863 48.5923 87.9518Z" fill="#FAE5B0"/>
<path d="M74.261 102.919L81.8415 53.6157C81.9981 52.5971 82.4996 51.9132 82.9609 52.0878C83.4227 52.2625 83.6698 53.2302 83.5132 54.2487C83.5088 54.2761 83.5034 54.3094 83.4986 54.3358L74.8637 103.181C74.7987 103.549 74.6123 103.781 74.4469 103.699C74.2874 103.621 74.2067 103.275 74.261 102.919Z" fill="#E1A508"/>
<path d="M66.3922 103.31L58.8117 54.007C58.6552 52.9885 58.1537 52.3045 57.6924 52.4792C57.2305 52.6538 56.9835 53.6215 57.1396 54.6401C57.144 54.667 57.1493 54.7008 57.1542 54.7272L65.789 103.573C65.8541 103.94 66.0405 104.172 66.2058 104.091C66.3653 104.012 66.4465 103.666 66.3922 103.31Z" fill="#E1A508"/>
<path opacity="0.7" d="M81.7863 49.3825C81.5941 49.0728 81.1484 48.9573 80.7912 49.1242L76.5702 51.0962L75.105 46.9217C75.0277 46.704 74.8477 46.5107 74.5918 46.4051C74.1065 46.205 73.5258 46.384 73.2949 46.8047L73.2875 46.8184L69.8165 53.1475L66.5954 44.1375L66.5901 44.1223C66.5113 43.9022 66.345 43.705 66.1023 43.5724C65.5622 43.2774 64.8484 43.4183 64.5084 43.8865L59.6558 50.5674C59.4586 50.8413 59.5262 51.2082 59.8265 51.4103C60.1475 51.6265 60.6093 51.5761 60.8583 51.2983L65.1312 46.5318L68.978 55.103L68.9809 55.1098C69.0425 55.2468 69.1585 55.3666 69.3199 55.442C69.681 55.6113 70.1315 55.4943 70.3267 55.1817L74.0395 49.2244L75.4367 52.2376L75.4489 52.2645C75.4592 52.286 75.4704 52.3075 75.4837 52.3286C75.6759 52.6378 76.1211 52.7532 76.4778 52.5869L81.4879 50.2459C81.8455 50.0781 81.9791 49.6921 81.7863 49.3825Z" fill="white"/>
<path d="M2.54709 132.342C2.54709 132.342 1.94975 133.284 1.79956 135.921C1.78537 136.166 1.98008 136.376 2.22616 136.376H6.89874C7.0866 136.376 7.22114 136.191 7.16097 136.013C6.887 135.202 6.05923 133.227 4.21192 132.098L2.54709 132.342Z" fill="url(#paint0_linear)"/>
<path d="M2.34375 130.555L2.60793 132.772C2.63092 132.963 2.78063 133.116 2.97191 133.138C3.22729 133.167 3.5991 133.188 3.96014 133.129C4.28841 133.074 4.52471 132.782 4.52471 132.45V130.31L2.34375 130.555Z" fill="url(#paint1_linear)"/>
<path d="M14.1089 132.098C14.1089 132.098 13.2146 133.488 13.2337 135.396C13.2381 135.846 13.6143 136.204 14.0639 136.204H21.3211C21.6611 136.204 21.799 135.767 21.5207 135.572C20.1474 134.608 17.4484 132.806 15.4959 132.098H14.1089Z" fill="url(#paint2_linear)"/>
<path d="M13.3613 129.705L13.9249 132.442C13.988 132.748 14.2874 132.954 14.5927 132.886C14.7781 132.844 14.9968 132.765 15.2307 132.618C15.4528 132.48 15.5653 132.215 15.5198 131.957L14.9366 128.641L13.3613 129.705Z" fill="url(#paint3_linear)"/>
<path d="M3.37984 91.6514C3.37984 91.6514 1.41953 93.3793 1.05065 95.4585C0.681777 97.5377 2.09563 131.33 2.09563 131.33C2.09563 131.33 4.05546 131.656 5.0662 131.044C5.0662 131.044 6.2648 109.113 7.17524 104.045C7.17524 104.045 11.9525 126.763 13.2759 130.868C13.2759 130.868 15.1643 131.097 15.7729 130.738C15.7729 130.738 14.9329 97.7916 13.3605 92.5564L3.37984 91.6514Z" fill="url(#paint4_linear)"/>
<path d="M7.11928 103.333C7.02486 103.333 6.93827 103.269 6.9138 103.174L6.10218 100.06L4.37327 98.951C4.27444 98.8874 4.24558 98.7558 4.30918 98.657C4.37278 98.5582 4.50389 98.5293 4.6032 98.5929L6.40208 99.747C6.44708 99.7759 6.47986 99.8209 6.49307 99.8722L7.32573 103.066C7.35557 103.18 7.28708 103.296 7.17358 103.325C7.15499 103.33 7.13689 103.333 7.11928 103.333Z" fill="#6CCCD9"/>
<path d="M18.638 68.6304C10.3975 69.4357 8.58203 71.5027 8.58203 71.5027L13.6054 76.9502C13.6054 76.9502 21.5528 75.3391 26.4656 69.8921C25.1858 68.9352 24.2113 67.7973 23.5542 66.8932C22.1917 67.7743 20.5602 68.4426 18.638 68.6304Z" fill="#91D7E0"/>
<path d="M29.1798 54.3979C29.1216 54.1396 28.7561 54.1333 28.6886 54.3891L28.0555 56.7883C27.9332 57.2521 27.9562 57.7418 28.1216 58.1919L28.7194 59.412C28.9425 60.0196 28.8955 60.6923 28.5888 61.2622C27.854 62.6257 26.2229 65.1682 23.5557 66.8932C24.2127 67.7978 25.1877 68.9352 26.467 69.8921C28.2693 67.8937 29.6641 65.3795 30.1069 62.2382C30.5511 62.0078 30.7849 61.5073 30.6768 61.0186L29.1798 54.3979Z" fill="url(#paint5_linear)"/>
<path d="M12.8937 62.314L11.542 68.6979C11.542 68.6979 14.6916 70.124 16.9083 69.5296L17.15 63.9666L12.8937 62.314Z" fill="url(#paint6_linear)"/>
<path d="M16.2669 57.5148C16.3369 57.5838 19.1651 63.4334 19.1651 63.4334L15.7904 64.9774L12.2861 59.8313C12.2866 59.8313 15.0928 56.3627 16.2669 57.5148Z" fill="url(#paint7_linear)"/>
<path d="M13.7741 60.4389L15.4067 63.2925C15.4277 63.3292 15.4527 63.362 15.483 63.3914C15.6669 63.5724 16.3455 64.1487 16.8924 63.4183C17.389 62.7559 17.8518 62.1585 18.3469 61.9751C18.569 61.8929 18.817 61.9922 18.9198 62.2055C19.1766 62.7373 19.7334 63.9456 20.0563 65.0694C20.1218 65.2974 20 65.5366 19.7784 65.6217C19.1111 65.8791 17.6889 66.382 16.4502 66.5185C16.2824 66.5371 16.1185 66.4642 16.0216 66.3257C15.5505 65.6506 14.1102 63.6037 13.6205 63.0954C13.1611 62.6184 12.28 62.7945 11.9151 62.8948C11.7957 62.9276 11.669 62.9104 11.5624 62.8468C11.1861 62.6218 10.4366 62.0083 11.1465 60.9814C11.2952 60.7667 11.2365 60.4741 11.0174 60.3322C10.5805 60.0495 10.0687 59.5006 10.5492 58.616C11.0379 57.7173 11.894 57.6899 12.4386 57.7834C12.6587 57.821 12.8681 57.6929 12.9459 57.4835C12.9904 57.3641 13.0868 57.2624 13.2829 57.2438C13.5476 57.2188 13.7267 56.9615 13.6743 56.7007C13.574 56.2002 13.6381 55.533 14.4595 55.1034C15.9174 54.3407 17.1537 55.6582 17.4521 56.755C17.7505 57.8519 16.1229 58.5891 15.1063 58.6968C14.3333 58.7785 13.9052 59.6375 13.7438 60.0446C13.6939 60.1737 13.7056 60.3185 13.7741 60.4389Z" fill="url(#paint8_linear)"/>
<path d="M14.2246 64.1291C14.2246 64.1291 13.6224 62.2402 12.8005 62.2921C11.9786 62.3439 11.3157 63.1482 12.3137 64.088C13.5549 65.2573 14.2246 64.1291 14.2246 64.1291Z" fill="url(#paint9_linear)"/>
<path d="M68.3776 52.1426C67.0102 53.4479 64.7613 54.7277 61.3338 54.3813C54.8188 53.7233 54.1216 47.675 54.8315 44.5127C55.4308 41.8445 61.0099 37.7903 65.8982 40.2902C66.9354 40.8205 68.1061 39.9125 67.9011 38.7164L65.4379 24.3713L49.6912 27.5347C48.3209 27.8101 47.1565 26.4569 47.5425 25.0245C47.9642 23.4599 48.2715 21.3763 48.0425 18.8979C47.5137 13.173 42.4678 11.4896 37.9616 12.7459C34.0806 13.8281 30.272 20.9933 35.6304 26.7328C36.6788 27.8556 36.1108 29.7959 34.6598 30.0879L21.4102 32.7547L24.3245 49.7249C27.499 43.6698 33.7523 43.9065 37.0228 48.788C40.3054 53.6881 39.2032 58.9061 33.9279 60.3156C31.2294 61.0367 29.2196 60.3092 27.9051 59.4365C27.2172 58.9795 26.3758 59.5871 26.5225 60.4408L28.8747 74.1381L41.9673 71.9645C43.4198 71.7233 44.5925 73.3896 43.8963 74.7599C43.2922 75.9487 42.8969 77.3851 43.0979 79.001C43.6782 83.6716 47.6844 87.58 52.1246 87.3814C56.5961 87.1813 60.4742 82.0122 59.0427 77.6542C58.3647 75.5892 57.2218 73.7096 56.2096 72.305C55.3652 71.1343 55.9733 69.4695 57.3275 69.2444L73.0458 66.6329L70.7034 52.9934C70.5062 51.8496 69.1902 51.3672 68.3776 52.1426Z" fill="#287CAB"/>
<path d="M21.9615 71.714C18.5423 69.1554 12.8457 68.7562 9.58996 68.7591C8.16388 68.7606 6.94278 69.7767 6.69327 71.1808C5.96971 75.2516 3.92035 85.8731 3.48348 87.7141C3.12488 89.2243 2.7335 90.7071 2.48204 91.6352C2.33184 92.1895 2.65571 92.7614 3.20951 92.914C6.09397 93.709 11.1286 94.2853 13.1657 94.4972C13.6138 94.5436 13.9793 94.1469 13.8986 93.7041C13.8301 93.3284 13.8648 92.9409 13.9998 92.5833L19.1005 79.0406C24.5891 83.2709 28.6721 83.0053 31.5414 81.3375C30.7342 79.8356 30.1046 78.298 29.6506 76.7251C24.9707 76.775 21.9615 71.714 21.9615 71.714Z" fill="#6CCCD9"/>
<path d="M36.9951 74.5089L35.977 73.5662C33.6576 75.8704 31.5202 76.7055 29.6494 76.7256C30.1034 78.2984 30.733 79.8361 31.5403 81.338C35.321 79.1404 36.9951 74.5089 36.9951 74.5089Z" fill="url(#paint10_linear)"/>
<path d="M36.4209 74.6337L41.0675 73.9727L44.883 70.8261C44.2035 70.555 40.8978 71.9645 40.8978 71.9645C40.8978 71.9645 37.1939 72.076 36.2179 72.2526C35.4072 72.3994 35.7355 73.5432 35.87 73.9267C35.8974 74.005 35.917 74.0515 35.917 74.0515L36.4209 74.6337Z" fill="url(#paint11_linear)"/>
<path d="M117.165 51.2962C117.165 51.2962 108.241 62.7215 118.423 74.3416L122.25 73.9849C122.25 73.9849 114.882 62.154 118.164 52.7233L123.586 53.1191L126.584 51.1646L117.165 51.2962Z" fill="url(#paint12_linear)"/>
<path d="M132.516 34.1397C131.368 34.8471 129.962 35.5144 128.353 35.8921C119.449 37.9845 119.983 26.5542 124.342 21.6698C126.572 19.1709 129.418 19.7345 131.682 20.8949C133.345 21.7481 135.318 20.4536 135.205 18.5496L134.281 2.92523L119.686 4.20308C118.053 4.34594 117.141 6.20743 117.977 7.63107C118.94 9.27242 119.866 11.5233 120.028 14.2625C120.386 20.3088 112.565 22.3479 110.045 22.7324C107.768 23.0798 98.453 19.4908 103.458 8.96127C104.185 7.43147 103.063 5.69179 101.441 5.83367L85.3081 7.24557L86.2239 22.7222C86.3002 24.0127 84.9539 24.8356 83.9182 24.1517C79.0382 20.9282 72.6534 24.5621 71.7043 27.316C70.5795 30.5801 70.604 37.0647 77.4238 38.5299C81.0113 39.3005 83.543 38.2115 85.1447 36.9908C86.0962 36.2658 87.4328 36.9317 87.5057 38.1665L88.3765 52.8818L105.02 51.9875C106.672 51.899 107.533 49.9225 106.506 48.5683C105.037 46.632 103.389 44.2798 102.914 42.8992C102.006 40.2574 103.178 34.646 109.407 33.3652C115.692 32.0722 120.55 36.1298 120.633 41.8841C120.67 44.473 120.177 46.6364 119.624 48.2317C119.125 49.6696 120.256 51.169 121.748 51.0888L137 50.2694L136.159 36.0574C136.051 34.2209 134.065 33.1847 132.516 34.1397Z" fill="#89C9ED"/>
<path d="M122.053 107.233C122.053 107.233 129.282 122.991 133.076 129.518C133.076 129.518 133.829 133.625 133.076 134.916L132.434 135.201L135.431 135.112C135.431 135.112 135.697 129.588 135.489 129.279C135.281 128.971 134.865 128.991 134.865 128.991C134.865 128.991 133.58 118.812 129.859 116.639L126.253 104.219L122.053 107.233Z" fill="url(#paint13_linear)"/>
<path d="M131.154 135.975C131.15 136.047 133.494 136.014 134.768 135.991C135.238 135.982 135.639 135.652 135.739 135.193L136.701 130.14C136.792 129.66 136.487 129.193 136.011 129.085L135.474 128.962C135.474 128.962 134.709 130.012 134.949 131.002C135.19 131.991 135.405 134.552 134.796 134.851C134.187 135.15 132.434 135.202 132.434 135.202C132.434 135.202 131.194 135.324 131.154 135.975Z" fill="#3C8994"/>
<path d="M115.201 136.067C114.963 136.202 115.061 136.564 115.334 136.561C117.465 136.54 122.241 136.472 122.665 136.296C123.213 136.068 122.466 134.099 121.679 133.433L117.335 134.851L115.201 136.067Z" fill="#3C8994"/>
<path d="M113.851 106.228C113.851 106.228 118.523 128.83 119.845 133.239L116.718 135.202C116.718 135.202 118.285 134.935 119.447 134.851C120.609 134.767 121.677 133.433 121.677 133.433L121.302 132.836C121.302 132.836 120.131 110.356 120.416 107.804L113.851 106.228Z" fill="url(#paint14_linear)"/>
<path d="M102.253 53.508C102.253 53.508 101.609 65.2656 112.313 71.2737L109.736 77.1512C109.736 77.1512 100.047 71.2908 100.402 55.3079C100.413 54.847 100.249 54.3984 99.9478 54.0496L97.8882 51.6602C97.1034 50.7498 96.8099 49.515 97.102 48.3487L97.373 47.2651C97.464 46.9021 97.8769 46.7279 98.2003 46.9153L98.4155 47.0405C99.1014 47.4387 99.6445 48.0424 99.9683 48.7665L100.98 51.0272C101.225 51.5761 101.304 51.7645 101.583 51.807C101.956 51.8643 102.305 51.6015 102.391 51.2336L102.463 50.9259C103.369 51.696 103.329 52.5541 102.253 53.508Z" fill="url(#paint15_linear)"/>
<path d="M111.941 70.3926C113.732 70.8892 119.799 72.485 123.586 72.4199L121.261 85.5429L121.446 87.6832L113.864 87.6495C113.864 87.6495 111.729 82.6927 110.046 80.2211C109.559 79.5073 109.921 78.6561 110.197 77.8376L109.818 77.5857C109.433 77.3293 109.266 76.8469 109.41 76.4071L111.256 70.7581C111.351 70.4733 111.651 70.3124 111.941 70.3926Z" fill="#F4D279"/>
<path d="M113.257 86.5296L113.406 87.8265C113.406 87.8265 111.263 94.2437 114.477 109.231C114.477 109.231 121.438 111.203 127.159 106.484C127.159 106.484 125.545 92.3382 125.105 91.6792C122.909 88.397 121.446 87.6837 121.446 87.6837L121.38 86.2669C121.38 86.2674 115.261 87.3735 113.257 86.5296Z" fill="#AD2344"/>
<path d="M116.224 71.4503C116.198 71.4151 117.807 66.5909 117.807 66.5909L120.113 66.8003L121.013 72.2732C121.013 72.2732 117.4 73.0027 116.224 71.4503Z" fill="url(#paint16_linear)"/>
<path d="M119.561 58.9829C119.407 59.0788 114.634 61.0508 115.66 66.0062C115.721 66.2992 115.916 66.5473 116.189 66.6691C116.889 66.9817 118.397 67.5164 120.2 67.333C122.701 67.0791 124.339 62.7157 124.269 61.4461C124.2 60.1766 121.085 58.0343 119.561 58.9829Z" fill="url(#paint17_linear)"/>
<path d="M121.014 57.0569C120.888 57.0735 118.256 57.9903 119.562 59.8978C120.867 61.8053 121.357 62.9285 120.74 63.7661C120.177 64.5293 118.931 64.0943 119.04 65.6824C119.062 66.0004 118.924 66.3086 118.66 66.4871C117.485 67.2821 114.62 69.7287 117.459 73.2184C117.69 73.5021 117.737 73.8935 117.559 74.213C116.728 75.7041 114.982 80.0729 121.304 82.4965C127.552 84.8912 129.808 80.8072 130.438 79.1747C130.575 78.8214 130.922 78.6052 131.3 78.6233C131.986 78.6556 132.96 78.5416 132.915 77.6238C132.887 77.0666 132.54 76.5671 132.129 76.1669C131.722 75.7706 131.803 75.0769 132.296 74.7961C132.669 74.5843 132.999 74.2536 133.139 73.7374C133.517 72.3343 132.761 68.1392 128.74 67.4279C128.404 67.3687 128.053 67.0541 128.005 66.7171C128.004 66.7122 128.003 66.7073 128.002 66.7019C127.948 66.3761 128.059 66.0424 128.325 65.8472C128.967 65.3761 129.791 64.428 129.122 62.907C128.529 61.5582 127.391 61.1032 126.546 60.9584C126.05 60.8733 125.724 60.4041 125.829 59.9115C126.113 58.57 125.864 56.4209 121.014 57.0569Z" fill="#801932"/>
<defs>
<linearGradient id="paint0_linear" x1="1.79873" y1="134.237" x2="7.17546" y2="134.237" gradientUnits="userSpaceOnUse">
<stop stop-color="#26747E"/>
<stop offset="1" stop-color="#226367"/>
</linearGradient>
<linearGradient id="paint1_linear" x1="2.34382" y1="131.738" x2="4.52445" y2="131.738" gradientUnits="userSpaceOnUse">
<stop stop-color="#FEBBBA"/>
<stop offset="1" stop-color="#FF928E"/>
</linearGradient>
<linearGradient id="paint2_linear" x1="13.2335" y1="134.151" x2="21.6697" y2="134.151" gradientUnits="userSpaceOnUse">
<stop stop-color="#266972"/>
<stop offset="1" stop-color="#3B848E"/>
</linearGradient>
<linearGradient id="paint3_linear" x1="13.3616" y1="130.77" x2="15.5302" y2="130.77" gradientUnits="userSpaceOnUse">
<stop stop-color="#FEBBBA"/>
<stop offset="1" stop-color="#FF928E"/>
</linearGradient>
<linearGradient id="paint4_linear" x1="0.989342" y1="111.534" x2="15.7734" y2="111.534" gradientUnits="userSpaceOnUse">
<stop stop-color="#096D83"/>
<stop offset="1" stop-color="#0B4B59"/>
</linearGradient>
<linearGradient id="paint5_linear" x1="22.8334" y1="62.9313" x2="30.7624" y2="61.4862" gradientUnits="userSpaceOnUse">
<stop stop-color="#FEBBBA"/>
<stop offset="1" stop-color="#FF928E"/>
</linearGradient>
<linearGradient id="paint6_linear" x1="19.4794" y1="52.0191" x2="8.44309" y2="85.5307" gradientUnits="userSpaceOnUse">
<stop stop-color="#FEBBBA"/>
<stop offset="1" stop-color="#FF928E"/>
</linearGradient>
<linearGradient id="paint7_linear" x1="15.2735" y1="58.5892" x2="17.0915" y2="70.8163" gradientUnits="userSpaceOnUse">
<stop stop-color="#FEBBBA"/>
<stop offset="1" stop-color="#FF928E"/>
</linearGradient>
<linearGradient id="paint8_linear" x1="12.9845" y1="64.3187" x2="19.2206" y2="57.9632" gradientUnits="userSpaceOnUse">
<stop stop-color="#071E4A"/>
<stop offset="1" stop-color="#070A44"/>
</linearGradient>
<linearGradient id="paint9_linear" x1="13.2011" y1="71.8512" x2="13.0101" y2="63.2876" gradientUnits="userSpaceOnUse">
<stop stop-color="#FEBBBA"/>
<stop offset="1" stop-color="#FF928E"/>
</linearGradient>
<linearGradient id="paint10_linear" x1="42.6033" y1="14.5476" x2="37.5696" y2="47.6692" gradientUnits="userSpaceOnUse">
<stop stop-color="#FEBBBA"/>
<stop offset="1" stop-color="#FF928E"/>
</linearGradient>
<linearGradient id="paint11_linear" x1="48.8528" y1="15.4981" x2="43.8192" y2="48.6191" gradientUnits="userSpaceOnUse">
<stop stop-color="#FEBBBA"/>
<stop offset="1" stop-color="#FF928E"/>
</linearGradient>
<linearGradient id="paint12_linear" x1="123.41" y1="49.8425" x2="116.996" y2="69.5038" gradientUnits="userSpaceOnUse">
<stop stop-color="#FEBBBA"/>
<stop offset="1" stop-color="#FF928E"/>
</linearGradient>
<linearGradient id="paint13_linear" x1="122.053" y1="119.71" x2="135.568" y2="119.71" gradientUnits="userSpaceOnUse">
<stop stop-color="#FEBBBA"/>
<stop offset="1" stop-color="#FF928E"/>
</linearGradient>
<linearGradient id="paint14_linear" x1="113.851" y1="120.715" x2="121.677" y2="120.715" gradientUnits="userSpaceOnUse">
<stop stop-color="#FEBBBA"/>
<stop offset="1" stop-color="#FF928E"/>
</linearGradient>
<linearGradient id="paint15_linear" x1="108.3" y1="71.5631" x2="121.913" y2="103.244" gradientUnits="userSpaceOnUse">
<stop stop-color="#FEBBBA"/>
<stop offset="1" stop-color="#FF928E"/>
</linearGradient>
<linearGradient id="paint16_linear" x1="116.224" y1="69.5177" x2="121.013" y2="69.5177" gradientUnits="userSpaceOnUse">
<stop stop-color="#FEBBBA"/>
<stop offset="1" stop-color="#FF928E"/>
</linearGradient>
<linearGradient id="paint17_linear" x1="123.836" y1="63.3284" x2="158.697" y2="65.6989" gradientUnits="userSpaceOnUse">
<stop stop-color="#FEBBBA"/>
<stop offset="1" stop-color="#FF928E"/>
</linearGradient>
</defs>
</svg>
