<svg width="278" height="279" viewBox="0 0 278 279" fill="none" xmlns="http://www.w3.org/2000/svg">
<path d="M242.304 233.26C235.199 240.583 228.842 244.889 223.975 248.139C176.503 279.836 122.238 270.7 105.461 267.578C78.3934 262.54 55.5439 258.986 35.9118 241.25C-8.69744 200.948 -6.52803 116.873 27.5595 64.7932C31.6008 58.6183 65.6367 8.16763 120.019 1.05834C121.35 0.884192 122.342 0.785674 123.211 0.693126C131.623 -0.197526 183.756 -4.89858 226.265 30.7156C232.351 35.8137 242.143 45.0088 251.224 59.0333C284.426 110.312 284.531 189.733 242.304 233.26Z" fill="#F5FCFF"/>
<path d="M72.0779 53.1819C71.3236 52.8933 70.8937 52.0743 71.1076 51.2772C71.5743 49.5327 72.1237 47.7832 72.7407 46.0756C73.0412 45.2446 73.9567 44.8147 74.7877 45.1153C74.7976 45.1192 74.8076 45.1232 74.8165 45.1262C75.6276 45.4367 76.0445 46.3413 75.747 47.1623C75.1608 48.7843 74.6384 50.4462 74.1956 52.1031C73.9677 52.956 73.0909 53.4625 72.2381 53.2336C72.1834 53.2187 72.1296 53.2018 72.0779 53.1819ZM77.1571 40.2142C77.0984 40.1923 77.0407 40.1654 76.9839 40.1356C76.2028 39.7256 75.9012 38.7583 76.3122 37.9771C77.1561 36.3719 78.0766 34.7867 79.0479 33.2661C79.5235 32.5217 80.5077 32.3048 81.2561 32.7795C82.0004 33.2551 82.2174 34.2433 81.7427 34.9867C80.8192 36.4326 79.9445 37.9383 79.1434 39.4638C78.7613 40.1893 77.9034 40.4998 77.1571 40.2142ZM84.965 28.6874C84.7988 28.6238 84.6406 28.5312 84.4973 28.4088C83.8265 27.8346 83.7489 26.8255 84.3231 26.1548C85.5004 24.7805 86.7512 23.4391 88.0429 22.1703C88.6729 21.5513 89.6849 21.5612 90.3039 22.1902C90.9229 22.8201 90.9139 23.8321 90.284 24.4511C89.058 25.6562 87.8698 26.929 86.7512 28.2347C86.2995 28.7621 85.578 28.9223 84.965 28.6874ZM95.1562 19.1948C94.8816 19.0893 94.6328 18.9072 94.4447 18.6534C93.9193 17.9439 94.0695 16.9428 94.7781 16.4173C96.234 15.3406 97.7535 14.3126 99.295 13.3642C100.046 12.9025 101.031 13.1364 101.494 13.8877C101.957 14.639 101.722 15.6242 100.971 16.087C99.507 16.9876 98.063 17.9628 96.6798 18.9878C96.225 19.3242 95.6488 19.3839 95.1562 19.1948ZM107.208 12.2129C106.823 12.0656 106.495 11.77 106.317 11.362C105.961 10.553 106.33 9.61058 107.139 9.25631C108.793 8.53085 110.502 7.86509 112.217 7.27995C113.052 6.99434 113.961 7.44017 114.246 8.27609C114.531 9.11201 114.085 10.0196 113.249 10.3052C111.618 10.8615 109.994 11.4934 108.421 12.183C108.021 12.3592 107.588 12.3582 107.208 12.2129ZM120.503 8.07109C120.005 7.88002 119.613 7.44315 119.504 6.8809C119.337 6.01413 119.904 5.17622 120.771 5.00804C122.547 4.66571 124.362 4.39503 126.162 4.20496C127.041 4.11241 127.827 4.74831 127.919 5.62702C128.012 6.50473 127.376 7.29189 126.498 7.38444C124.788 7.56555 123.065 7.8223 121.376 8.14772C121.073 8.20643 120.773 8.17359 120.503 8.07109ZM176.565 25.4761C176.358 25.3965 176.165 25.2731 176 25.1059C174.793 23.8829 173.519 22.6957 172.208 21.5791C171.536 21.0059 171.457 19.9969 172.029 19.3261C172.602 18.6544 173.61 18.5738 174.283 19.147C175.662 20.3233 177.006 21.5732 178.276 22.8609C178.896 23.4898 178.889 24.5019 178.261 25.1219C177.8 25.5756 177.133 25.6931 176.565 25.4761ZM134.378 6.97942C133.759 6.74258 133.329 6.13156 133.353 5.43197C133.383 4.54928 134.122 3.85865 135.005 3.88851C136.813 3.94921 138.641 4.09052 140.437 4.30647C141.313 4.41593 141.939 5.20806 141.833 6.08478C141.728 6.9615 140.932 7.58645 140.055 7.48097C138.349 7.27498 136.614 7.14163 134.896 7.08391C134.713 7.07694 134.539 7.04112 134.378 6.97942ZM165.732 16.7258C165.633 16.688 165.537 16.6403 165.444 16.5815C163.994 15.659 162.485 14.7873 160.959 13.9892C160.177 13.5802 159.874 12.6139 160.283 11.8317C160.692 11.0495 161.66 10.743 162.441 11.156C164.046 11.9959 165.634 12.9135 167.16 13.8837C167.905 14.3574 168.124 15.3456 167.65 16.0909C167.236 16.7428 166.427 16.9915 165.732 16.7258ZM148.148 9.01448C147.394 8.72589 146.964 7.90888 147.176 7.11277C147.403 6.25893 148.278 5.75141 149.132 5.97731C150.879 6.44105 152.63 6.98738 154.334 7.60039C154.345 7.60337 154.356 7.60835 154.366 7.61233C155.176 7.92281 155.592 8.82541 155.298 9.6454C154.999 10.4763 154.084 10.9082 153.253 10.6087C151.633 10.0265 149.97 9.50907 148.31 9.06822C148.255 9.0523 148.2 9.03438 148.148 9.01448Z" fill="#D5EDB8"/>
<path d="M183.69 34.1487C183.397 34.0363 183.132 33.8363 182.942 33.5556C182.478 32.874 181.993 32.1913 181.499 31.5245C180.974 30.816 181.122 29.8139 181.831 29.2885C182.541 28.762 183.543 28.9103 184.067 29.6208C184.587 30.3214 185.097 31.0399 185.585 31.7574C186.082 32.4869 185.892 33.482 185.162 33.9786C184.713 34.2851 184.163 34.3298 183.69 34.1487Z" fill="#D5EDB8"/>
<path d="M193.187 81.9524C192.466 81.6767 192.032 80.9105 192.195 80.1313C192.365 79.3252 192.521 78.5012 192.657 77.6832C192.803 76.8125 193.627 76.2244 194.497 76.3706C195.372 76.5169 195.956 77.3409 195.81 78.2116C195.665 79.0724 195.502 79.9402 195.324 80.789C195.143 81.6528 194.295 82.2061 193.431 82.025C193.347 82.0071 193.264 81.9822 193.187 81.9524Z" fill="#D5EDB8"/>
<path d="M110.028 127.361C109.342 127.098 108.656 126.821 107.973 126.534C107.16 126.19 106.779 125.252 107.122 124.439C107.466 123.626 108.409 123.244 109.217 123.588C110.793 124.254 112.393 124.854 113.99 125.377C114.829 125.654 115.286 126.556 115.011 127.395C114.735 128.234 113.833 128.691 112.994 128.416C112.006 128.091 111.007 127.736 110.028 127.361ZM100.441 122.726C100.357 122.694 100.276 122.655 100.196 122.608C98.6617 121.698 97.149 120.713 95.7001 119.681C94.9816 119.169 94.8134 118.171 95.3259 117.452C95.8384 116.733 96.8396 116.564 97.5561 117.078C98.9323 118.058 100.369 118.994 101.827 119.858C102.586 120.308 102.837 121.289 102.387 122.049C101.982 122.728 101.154 123 100.441 122.726ZM121.15 130.475C120.446 130.206 120.011 129.466 120.151 128.698C120.309 127.829 121.141 127.253 122.01 127.411C123.672 127.714 125.368 127.949 127.055 128.109C127.934 128.195 128.579 128.974 128.495 129.853C128.41 130.731 127.63 131.376 126.752 131.293C124.976 131.123 123.188 130.876 121.438 130.557C121.337 130.538 121.241 130.51 121.15 130.475ZM89.4914 114.48C89.3023 114.407 89.1232 114.296 88.967 114.149C87.6713 112.926 86.4125 111.632 85.2253 110.305C84.6371 109.647 84.6929 108.637 85.3516 108.048C86.0104 107.459 87.0195 107.515 87.6086 108.174C88.7361 109.435 89.9313 110.663 91.1623 111.825C91.8041 112.431 91.833 113.443 91.227 114.085C90.7682 114.568 90.0786 114.704 89.4914 114.48ZM134.813 131.418C134.236 131.197 133.815 130.649 133.787 129.992C133.75 129.11 134.435 128.365 135.318 128.327C137.004 128.256 138.711 128.112 140.392 127.899C141.268 127.788 142.068 128.408 142.179 129.284C142.29 130.16 141.671 130.96 140.795 131.071C139.026 131.295 137.228 131.447 135.452 131.521C135.227 131.53 135.011 131.494 134.813 131.418ZM148.353 129.339C147.891 129.162 147.518 128.775 147.38 128.26C147.151 127.407 147.656 126.531 148.509 126.302C150.144 125.862 151.78 125.35 153.371 124.776C154.201 124.476 155.117 124.907 155.417 125.738C155.716 126.569 155.285 127.484 154.454 127.784C152.78 128.387 151.059 128.927 149.338 129.389C149 129.48 148.658 129.455 148.353 129.339ZM161.118 124.357C160.766 124.223 160.462 123.965 160.274 123.605C159.865 122.823 160.167 121.857 160.95 121.448C162.451 120.662 163.936 119.806 165.363 118.9C166.108 118.427 167.096 118.647 167.569 119.394C168.042 120.139 167.821 121.126 167.076 121.6C165.574 122.552 164.011 123.455 162.431 124.281C162.008 124.503 161.532 124.517 161.118 124.357ZM172.491 116.712C172.248 116.618 172.025 116.465 171.844 116.252C171.274 115.578 171.358 114.57 172.032 114C173.325 112.906 174.586 111.745 175.78 110.548C176.403 109.923 177.417 109.922 178.041 110.544C178.666 111.167 178.668 112.18 178.044 112.805C176.787 114.066 175.46 115.289 174.098 116.441C173.637 116.83 173.019 116.914 172.491 116.712ZM181.913 106.752C181.777 106.7 181.645 106.627 181.522 106.534C180.818 106.003 180.677 105 181.209 104.296C182.226 102.948 183.199 101.538 184.102 100.105C184.572 99.3574 185.561 99.1355 186.306 99.6042C187.053 100.075 187.277 101.062 186.806 101.809C185.857 103.318 184.832 104.803 183.761 106.222C183.321 106.803 182.561 107 181.913 106.752ZM188.911 94.9738C188.88 94.9619 188.85 94.9489 188.82 94.935C188.016 94.5698 187.661 93.6214 188.026 92.8183C188.542 91.6839 189.029 90.5205 189.474 89.3592C189.636 88.9393 189.792 88.5173 189.942 88.0954C190.241 87.2644 191.155 86.8315 191.986 87.1301C192.833 87.4157 193.249 88.3432 192.951 89.1741C192.792 89.6179 192.628 90.0608 192.459 90.5036C191.991 91.7257 191.479 92.9497 190.935 94.1429C190.585 94.9151 189.694 95.2733 188.911 94.9738Z" fill="#D5EDB8"/>
<path d="M80.6067 103.991C80.3101 103.877 80.0444 103.674 79.8533 103.391C79.3697 102.672 78.893 101.931 78.4353 101.185C77.9725 100.433 78.2084 99.4489 78.9597 98.9862C79.712 98.5245 80.6962 98.7583 81.159 99.5106C81.5939 100.218 82.0476 100.923 82.5054 101.604C82.998 102.336 82.804 103.33 82.0715 103.823C81.6227 104.127 81.0754 104.171 80.6067 103.991Z" fill="#D5EDB8"/>
<path d="M89.2541 87.4485C89.3537 87.7511 89.6353 87.9571 89.9537 87.962L99.0463 88.0854C101.261 91.7087 104.069 95.0056 107.42 97.811L106.199 106.816C106.157 107.131 106.319 107.44 106.603 107.583L116.344 112.492C116.628 112.636 116.973 112.583 117.202 112.361L123.714 106.023C127.962 107.048 132.282 107.344 136.512 106.969L142.02 114.205C142.213 114.459 142.545 114.562 142.847 114.462L153.206 111.045C153.508 110.946 153.714 110.664 153.719 110.346L153.843 101.253C157.466 99.039 160.763 96.2297 163.568 92.879L172.573 94.1001C172.889 94.1429 173.197 93.9807 173.341 93.696L178.25 83.9556C178.393 83.671 178.34 83.3267 178.117 83.0988L171.779 76.5866C172.804 72.3383 173.101 68.0184 172.726 63.7881L179.961 58.2799C180.215 58.0869 180.318 57.7545 180.218 57.452L176.802 47.0936C176.702 46.791 176.421 46.585 176.102 46.5801L167.01 46.4577C164.795 42.8344 161.987 39.5375 158.635 36.7321L159.856 27.7271C159.899 27.4117 159.737 27.1032 159.452 26.9599L149.712 22.0508C149.427 21.9075 149.083 21.9603 148.854 22.1822L142.342 28.5202C138.094 27.4952 133.774 27.1987 129.543 27.5739L124.036 20.3382C123.843 20.0844 123.511 19.9809 123.207 20.0814L112.849 23.4978C112.546 23.5973 112.34 23.8789 112.335 24.1973L112.212 33.29C108.589 35.5041 105.292 38.3134 102.487 41.6641L93.4815 40.443C93.166 40.4002 92.8576 40.5624 92.7143 40.8471L87.8052 50.5875C87.6619 50.8721 87.7147 51.2164 87.9366 51.4453L94.2746 57.9575C93.2496 62.2058 92.9531 66.5257 93.3283 70.756L86.0926 76.2632C85.8388 76.4562 85.7353 76.7886 85.8358 77.0921L89.2541 87.4485Z" fill="#93C257"/>
<path d="M129.099 77.5071C124.108 75.5944 121.13 70.2505 122.328 64.8827C123.646 58.9815 129.517 55.2537 135.417 56.5703C138.276 57.2072 140.714 58.9208 142.285 61.3927C143.855 63.8647 144.368 66.8003 143.73 69.6584C142.412 75.5596 136.541 79.2874 130.64 77.9708C130.109 77.8524 129.594 77.6972 129.099 77.5071ZM136.054 59.4263C135.669 59.2791 135.271 59.1586 134.86 59.0661C130.336 58.056 125.834 60.9161 124.825 65.439C123.815 69.9629 126.673 74.4659 131.198 75.475C135.722 76.4851 140.224 73.625 141.233 69.1021C141.722 66.9098 141.328 64.6598 140.124 62.764C139.147 61.2236 137.728 60.0682 136.054 59.4263Z" fill="#D5EDB8"/>
<path d="M123.642 92.3745C122.786 92.0461 121.94 91.673 121.109 91.254C120.847 91.1226 120.587 90.9863 120.331 90.846C119.063 90.1544 117.852 89.3642 116.715 88.4855C116.699 88.4736 116.684 88.4616 116.668 88.4497C116.625 88.4158 116.581 88.381 116.537 88.3462C116.451 88.2795 116.368 88.2118 116.283 88.1442C116.062 87.966 115.991 87.6705 116.087 87.4187C116.111 87.358 116.144 87.2993 116.188 87.2456C116.41 86.9709 116.812 86.9291 117.086 87.15C118.5 88.2915 120.047 89.2886 121.683 90.1126C129.808 94.2096 139.101 93.5657 146.396 89.2269C150.454 86.8147 153.895 83.258 156.173 78.7391C156.573 77.947 156.929 77.1399 157.241 76.3219C159.349 70.8197 159.498 64.8101 157.628 59.1388C155.48 52.6246 150.924 47.3364 144.799 44.2495C132.149 37.8746 116.682 42.9787 110.309 55.6229C109.916 56.4021 109.564 57.1992 109.255 58.0093C107.91 61.5192 107.349 65.2838 107.625 69.0365C107.631 69.133 107.617 69.2265 107.584 69.3121C107.498 69.536 107.289 69.7022 107.033 69.7211C106.681 69.746 106.375 69.4833 106.349 69.13C106.06 65.1912 106.649 61.2375 108.06 57.5535C108.386 56.7037 108.755 55.8668 109.168 55.0487C115.859 41.7736 132.105 36.4197 145.376 43.108C151.807 46.3492 156.589 51.9001 158.844 58.7397C160.808 64.6937 160.651 71.0029 158.438 76.7787C158.11 77.6375 157.735 78.4843 157.316 79.3153C154.075 85.7459 148.523 90.5295 141.684 92.7845C135.73 94.7469 129.419 94.5887 123.642 92.3745Z" fill="#D5EDB8"/>
<path d="M271.614 91.4152C271.904 91.7048 271.983 92.1616 271.777 92.5397C271.393 93.2473 270.981 93.9528 270.555 94.6365C270.277 95.0803 269.693 95.2157 269.248 94.939C268.802 94.6634 268.669 94.0762 268.946 93.6324C269.353 92.9806 269.744 92.3088 270.111 91.6341C270.361 91.1744 270.937 91.0042 271.398 91.254C271.478 91.2978 271.551 91.3525 271.614 91.4152Z" fill="#ADDCF6"/>
<path d="M267.555 97.4776C267.895 97.8169 267.93 98.3652 267.621 98.7464C266.748 99.8231 265.808 100.866 264.831 101.848C264.625 102.055 264.416 102.26 264.205 102.463C263.827 102.826 263.221 102.781 262.864 102.438C262.5 102.061 262.512 101.46 262.888 101.097C263.09 100.902 263.29 100.707 263.487 100.509C264.42 99.5724 265.316 98.5772 266.149 97.5512C266.48 97.1442 267.077 97.0825 267.484 97.4119C267.508 97.4338 267.532 97.4547 267.555 97.4776ZM260.458 104.305C260.49 104.337 260.521 104.371 260.548 104.408C260.862 104.827 260.778 105.422 260.359 105.736C259.015 106.746 257.597 107.681 256.144 108.516C255.69 108.776 255.109 108.617 254.85 108.165C254.589 107.711 254.745 107.131 255.2 106.871C256.586 106.075 257.939 105.183 259.219 104.22C259.602 103.933 260.13 103.978 260.458 104.305ZM251.918 109.207C252.004 109.292 252.073 109.395 252.123 109.513C252.326 109.995 252.097 110.552 251.614 110.754C250.067 111.402 248.461 111.961 246.844 112.413C246.338 112.554 245.817 112.26 245.675 111.755C245.534 111.25 245.829 110.727 246.333 110.587C247.877 110.155 249.406 109.623 250.883 109.004C251.247 108.852 251.654 108.945 251.918 109.207ZM242.434 111.86C242.574 111.999 242.67 112.182 242.702 112.391C242.78 112.908 242.422 113.392 241.905 113.47C240.242 113.719 238.55 113.868 236.874 113.91C236.351 113.923 235.916 113.508 235.902 112.987C235.888 112.463 236.302 112.029 236.826 112.015C238.423 111.974 240.037 111.833 241.622 111.594C241.932 111.548 242.228 111.656 242.434 111.86ZM232.589 112.117C232.783 112.31 232.893 112.587 232.864 112.881C232.813 113.403 232.349 113.784 231.828 113.733C230.157 113.571 228.48 113.304 226.844 112.939C226.332 112.826 226.01 112.319 226.125 111.808C226.239 111.296 226.746 110.974 227.256 111.088C228.818 111.435 230.417 111.69 232.012 111.844C232.239 111.867 232.44 111.968 232.589 112.117ZM222.982 109.977C223.234 110.227 223.333 110.61 223.206 110.968C223.031 111.46 222.488 111.718 221.995 111.543C220.414 110.98 218.852 110.312 217.356 109.558C216.887 109.32 216.7 108.752 216.935 108.284C217.17 107.816 217.741 107.628 218.209 107.863C219.636 108.581 221.123 109.218 222.631 109.756C222.768 109.803 222.887 109.881 222.982 109.977ZM214.192 105.553C214.507 105.867 214.566 106.369 214.311 106.752C214.019 107.187 213.43 107.304 212.994 107.012C211.604 106.081 210.254 105.05 208.982 103.948C208.59 103.598 208.543 103.005 208.886 102.61C209.228 102.213 209.827 102.171 210.224 102.513C211.437 103.565 212.724 104.548 214.05 105.436C214.103 105.472 214.15 105.51 214.192 105.553ZM203.676 95.2455C203.715 95.2843 203.751 95.3271 203.784 95.3738C204.578 96.5063 205.448 97.6149 206.369 98.6688C206.508 98.829 206.646 98.9852 206.786 99.1385C207.138 99.5276 207.108 100.127 206.719 100.478C206.33 100.83 205.717 100.808 205.379 100.411C205.231 100.246 205.084 100.082 204.938 99.9127C203.976 98.8111 203.063 97.6487 202.232 96.4615C201.931 96.0326 202.034 95.4415 202.463 95.141C202.846 94.8743 203.357 94.927 203.676 95.2455Z" fill="#ADDCF6"/>
<path d="M264.298 43.5549C264.666 43.9201 264.671 44.5142 264.309 44.8874C263.945 45.2626 263.344 45.2725 262.969 44.9073C261.837 43.8087 260.629 42.7697 259.378 41.8204C258.966 41.5019 258.879 40.9088 259.196 40.4909C259.514 40.0739 260.108 39.9923 260.526 40.3087C261.837 41.3059 263.104 42.3946 264.29 43.5459C264.291 43.5479 264.295 43.5519 264.298 43.5549ZM267.57 47.1374C267.594 47.1613 267.617 47.1872 267.639 47.214C268.678 48.4978 269.649 49.8571 270.526 51.2553C270.804 51.6991 270.67 52.2843 270.226 52.5619C269.783 52.8416 269.196 52.7032 268.919 52.2634C268.082 50.9289 267.155 49.6322 266.164 48.4072C265.835 48.0002 265.898 47.4031 266.305 47.0737C266.686 46.7652 267.231 46.8001 267.57 47.1374ZM256.584 37.6995C256.882 37.996 256.955 38.4667 256.734 38.8479C256.472 39.2997 255.891 39.4539 255.439 39.1912C254.074 38.3991 252.65 37.6826 251.206 37.0636C250.725 36.8546 250.502 36.2993 250.71 35.8177C250.916 35.337 251.474 35.1131 251.956 35.3201C253.469 35.9699 254.962 36.7203 256.392 37.5512C256.464 37.594 256.528 37.6438 256.584 37.6995ZM272.712 55.3493C272.789 55.425 272.854 55.5155 272.902 55.619C273.603 57.1157 274.217 58.6701 274.728 60.2404C274.891 60.738 274.619 61.2734 274.12 61.4366C273.624 61.5978 273.088 61.3262 272.925 60.8286C272.438 59.3319 271.852 57.8501 271.184 56.4231C270.962 55.9484 271.167 55.3842 271.642 55.1622C272.013 54.9891 272.439 55.0757 272.712 55.3493ZM247.685 33.8841C247.923 34.121 248.028 34.4772 247.927 34.8215C247.781 35.3251 247.254 35.6137 246.751 35.4674C245.24 35.0265 243.687 34.6733 242.133 34.4195C241.615 34.3349 241.265 33.8463 241.35 33.3298C241.435 32.8133 241.924 32.4621 242.44 32.5476C244.069 32.8153 245.698 33.1845 247.282 33.6463C247.44 33.692 247.576 33.7756 247.685 33.8841ZM238.13 32.3138C238.312 32.4949 238.42 32.7496 238.409 33.0253C238.387 33.5487 237.945 33.9558 237.422 33.9339C235.845 33.8682 234.251 33.897 232.685 34.0204C232.162 34.0612 231.705 33.6712 231.665 33.1497C231.624 32.6272 232.013 32.1715 232.535 32.1307C234.178 32.0013 235.849 31.9704 237.501 32.0391C237.747 32.0491 237.968 32.1526 238.13 32.3138ZM228.472 33.078C228.601 33.2054 228.693 33.3706 228.732 33.5607C228.837 34.0742 228.504 34.5747 227.991 34.6782C226.444 34.9907 224.905 35.4017 223.413 35.8993C222.916 36.0635 222.379 35.7958 222.214 35.2992C222.049 34.8026 222.316 34.2652 222.814 34.0991C224.377 33.5786 225.993 33.1467 227.614 32.8183C227.938 32.7546 228.255 32.8621 228.472 33.078Z" fill="#ADDCF6"/>
<path d="M275.728 64.6031C275.858 64.7325 275.951 64.8997 275.989 65.0927C276.144 65.8898 276.277 66.6939 276.383 67.4851C276.453 68.0035 276.089 68.4822 275.569 68.5518C275.051 68.6195 274.573 68.2563 274.502 67.7378C274.402 66.9835 274.274 66.2153 274.127 65.455C274.027 64.9405 274.363 64.4429 274.876 64.3424C275.198 64.2817 275.512 64.3882 275.728 64.6031Z" fill="#ADDCF6"/>
<path d="M266.521 72.7265C266.541 72.5225 266.431 72.3284 266.245 72.2428L260.935 69.7998C260.578 67.094 259.787 64.425 258.55 61.9033L261.615 56.9306C261.723 56.7564 261.708 56.5325 261.578 56.3743L257.136 50.9508C257.006 50.7925 256.79 50.7338 256.598 50.8045L251.12 52.8306C248.89 51.1209 246.429 49.8203 243.847 48.9376L242.498 43.2504C242.45 43.0513 242.282 42.9041 242.078 42.8832L235.101 42.1895C234.897 42.1696 234.703 42.2811 234.617 42.4672L232.174 47.7773C229.468 48.1335 226.799 48.9247 224.277 50.1616L219.304 47.0966C219.13 46.9891 218.906 47.004 218.748 47.1334L213.324 51.5757C213.166 51.7051 213.107 51.922 213.178 52.1141L215.204 57.5924C213.494 59.8215 212.194 62.2825 211.311 64.8648L205.624 66.2143C205.425 66.262 205.277 66.4302 205.256 66.6342L204.563 73.6111C204.543 73.8152 204.654 74.0092 204.839 74.0948L210.15 76.5379C210.506 79.2437 211.297 81.9126 212.534 84.4343L209.469 89.407C209.361 89.5812 209.376 89.8051 209.506 89.9633L213.948 95.3869C214.077 95.5451 214.294 95.6038 214.486 95.5331L219.965 93.507C222.194 95.2167 224.655 96.5173 227.237 97.4L228.587 103.087C228.633 103.286 228.802 103.435 229.006 103.454L235.983 104.148C236.187 104.168 236.381 104.058 236.467 103.87L238.91 98.5604C241.616 98.2041 244.285 97.413 246.807 96.176L251.779 99.241C251.953 99.3485 252.177 99.3336 252.336 99.2032L257.759 94.7609C257.917 94.6305 257.976 94.4146 257.905 94.2225L255.879 88.7443C257.589 86.5152 258.89 84.0552 259.772 81.4718L265.46 80.1224C265.659 80.0746 265.806 79.9064 265.827 79.7024L266.521 72.7265Z" fill="#287CAB"/>
<path d="M240.616 68.0971C241.7 69.1768 242.407 70.57 242.637 72.1105C242.919 74.0053 242.448 75.898 241.307 77.4375C238.955 80.616 234.454 81.2887 231.273 78.9352C228.094 76.5727 227.422 72.0797 229.775 68.9002C230.916 67.3597 232.588 66.3556 234.482 66.073C236.378 65.7894 238.27 66.2621 239.81 67.4025C240.098 67.6164 240.368 67.8483 240.616 68.0971ZM231.814 76.9051C231.996 77.0852 232.191 77.2544 232.402 77.4106C234.741 79.1412 238.051 78.6466 239.783 76.308C240.62 75.1755 240.969 73.7833 240.761 72.3901C240.553 70.9959 239.813 69.7669 238.681 68.927C237.548 68.0881 236.156 67.7408 234.762 67.9488C233.368 68.1568 232.138 68.8962 231.299 70.0287C229.726 72.1563 229.992 75.0899 231.814 76.9051Z" fill="#ADDCF6"/>
<path d="M247.994 60.5002C248.419 60.9241 248.826 61.3719 249.215 61.8456C249.986 62.786 250.662 63.806 251.225 64.8798C251.25 64.9285 251.275 64.9763 251.3 65.0251C251.493 65.4002 251.411 65.8431 251.128 66.1267C251.06 66.1954 250.979 66.2551 250.889 66.3018C250.423 66.5407 249.853 66.3546 249.613 65.8908C249.096 64.8828 248.468 63.9274 247.748 63.0477C247.708 62.999 247.668 62.9512 247.629 62.9034C245.904 60.8385 243.73 59.2821 241.293 58.3188C239.971 57.7954 238.569 57.4481 237.119 57.2908C237.107 57.2898 237.095 57.2878 237.084 57.2868C237.047 57.2829 237.012 57.2789 236.976 57.2759C232.731 56.8539 228.576 58.1098 225.277 60.8126C224.85 61.1619 224.444 61.5311 224.06 61.9162C221.474 64.5126 219.873 67.8901 219.505 71.586C219.083 75.8303 220.34 79.985 223.043 83.2839C225.745 86.5808 229.572 88.6328 233.816 89.0558C238.06 89.4777 242.216 88.2218 245.515 85.519C245.935 85.1757 246.336 84.8115 246.716 84.4293C248.366 82.7734 249.634 80.7752 250.424 78.5729C250.473 78.4376 250.548 78.3192 250.645 78.2236C250.896 77.9719 251.28 77.8713 251.637 77.9997C252.13 78.1779 252.386 78.7192 252.209 79.2128C251.326 81.6768 249.906 83.9129 248.061 85.7658C247.636 86.1937 247.187 86.6007 246.717 86.9859C243.025 90.0101 238.377 91.4152 233.627 90.9435C228.879 90.4708 224.597 88.182 221.574 84.4861C218.55 80.7941 217.144 76.1468 217.617 71.397C218.028 67.2631 219.819 63.4836 222.712 60.5788C223.142 60.1479 223.596 59.7349 224.074 59.3438C231.22 53.4914 241.584 54.1143 247.994 60.5002Z" fill="#ADDCF6"/>
<path d="M14.6067 146.942C14.1738 146.813 13.8603 146.412 13.8623 145.937C13.8663 145.051 13.8971 144.154 13.9549 143.269C13.9917 142.694 14.4883 142.259 15.0634 142.296C15.6396 142.331 16.0745 142.83 16.0367 143.404C15.982 144.247 15.9521 145.103 15.9481 145.949C15.9461 146.525 15.4764 146.99 14.8992 146.988C14.7987 146.986 14.7002 146.97 14.6067 146.942Z" fill="#287CAB"/>
<path d="M15.3819 138.953C14.8754 138.802 14.5549 138.288 14.6564 137.758C14.942 136.259 15.3093 134.759 15.7451 133.299C15.8367 132.991 15.9332 132.684 16.0317 132.376C16.2089 131.827 16.8199 131.555 17.3453 131.702C17.8936 131.879 18.1952 132.466 18.019 133.014C17.9245 133.308 17.8329 133.602 17.7454 133.896C17.3294 135.289 16.9791 136.72 16.7064 138.149C16.598 138.715 16.0516 139.086 15.4864 138.979C15.4506 138.972 15.4157 138.963 15.3819 138.953ZM18.7027 128.64C18.6549 128.627 18.6082 128.609 18.5624 128.588C18.0389 128.345 17.811 127.725 18.0529 127.202C18.8291 125.523 19.7157 123.878 20.689 122.313C20.9935 121.824 21.6384 121.676 22.126 121.978C22.6156 122.283 22.7659 122.925 22.4613 123.415C21.5329 124.909 20.687 126.477 19.9466 128.078C19.7267 128.555 19.1923 128.787 18.7027 128.64ZM24.4258 119.44C24.2994 119.403 24.177 119.34 24.0675 119.251C23.6197 118.889 23.551 118.231 23.9143 117.783C25.0766 116.349 26.3414 114.971 27.6739 113.69C28.0899 113.29 28.7487 113.303 29.1497 113.719C29.5487 114.134 29.5358 114.795 29.1208 115.194C27.85 116.416 26.6439 117.729 25.5363 119.097C25.2617 119.436 24.8188 119.558 24.4258 119.44ZM32.2356 111.929C32.0286 111.867 31.8396 111.741 31.6992 111.555C31.3539 111.093 31.4485 110.438 31.9102 110.094C33.392 108.986 34.9544 107.96 36.5555 107.046C37.0561 106.76 37.693 106.936 37.9786 107.435C38.2642 107.936 38.091 108.572 37.5895 108.859C36.0629 109.73 34.5722 110.709 33.1601 111.765C32.8845 111.971 32.5411 112.021 32.2356 111.929ZM41.6427 106.553C41.3541 106.467 41.1043 106.256 40.978 105.956C40.755 105.425 41.0058 104.814 41.5372 104.591C43.2409 103.878 45.0053 103.263 46.7806 102.764C47.3359 102.607 47.9121 102.931 48.0673 103.485C48.2236 104.041 47.9002 104.617 47.3459 104.772C45.6521 105.249 43.9694 105.835 42.3433 106.516C42.1124 106.612 41.8656 106.62 41.6427 106.553ZM52.0678 103.623C51.6936 103.511 51.3971 103.192 51.3344 102.779C51.2478 102.21 51.6399 101.678 52.2091 101.591C54.0352 101.313 55.8961 101.147 57.7391 101.098C58.3173 101.084 58.795 101.538 58.8099 102.114C58.8258 102.69 58.371 103.17 57.7949 103.185C56.0374 103.232 54.2641 103.39 52.5226 103.654C52.3654 103.679 52.2111 103.665 52.0678 103.623ZM62.89 103.331C62.4213 103.191 62.1018 102.735 62.1506 102.23C62.2063 101.657 62.7168 101.237 63.291 101.293C65.1231 101.471 66.9681 101.768 68.7753 102.173C69.3365 102.308 69.6918 102.858 69.5644 103.42C69.438 103.982 68.8807 104.335 68.3185 104.21C66.5949 103.823 64.8355 103.54 63.088 103.37C63.0204 103.364 62.9537 103.35 62.89 103.331ZM78.451 107.843C78.3933 107.826 78.3356 107.803 78.2799 107.775C76.9205 107.092 75.5004 106.471 74.0575 105.928C73.8395 105.845 73.6246 105.766 73.4086 105.69C72.8653 105.495 72.5827 104.899 72.7757 104.356C72.9688 103.812 73.5748 103.514 74.1092 103.723C74.3391 103.806 74.568 103.889 74.7959 103.976C76.3025 104.542 77.7922 105.193 79.2173 105.91C79.7328 106.169 79.9398 106.796 79.68 107.312C79.4501 107.77 78.9267 107.985 78.451 107.843Z" fill="#287CAB"/>
<path d="M46.626 189.515C46.0806 189.352 45.7652 188.78 45.9214 188.23C46.0786 187.675 46.6568 187.354 47.2101 187.512C48.879 187.988 50.5906 188.365 52.2983 188.634C52.8635 188.728 53.2566 189.258 53.167 189.827C53.0775 190.397 52.5431 190.785 51.9739 190.696C50.1836 190.413 48.3884 190.018 46.6399 189.519C46.6349 189.518 46.63 189.516 46.626 189.515ZM41.5886 187.747C41.5527 187.736 41.5169 187.723 41.4821 187.709C39.8073 187.007 38.1573 186.195 36.58 185.297C36.0795 185.011 35.9043 184.375 36.1899 183.874C36.4745 183.372 37.1144 183.2 37.613 183.482C39.1186 184.339 40.6929 185.114 42.2911 185.785C42.8225 186.007 43.0723 186.618 42.8494 187.15C42.6394 187.647 42.0921 187.898 41.5886 187.747ZM57.1506 191.171C56.7078 191.039 56.3913 190.621 56.4072 190.136C56.4261 189.561 56.9088 189.11 57.485 189.129C59.2205 189.186 60.9729 189.139 62.6955 188.987C63.2707 188.939 63.7762 189.361 63.826 189.935C63.8767 190.508 63.4518 191.016 62.8776 191.067C61.0724 191.226 59.2344 191.276 57.4153 191.215C57.3228 191.211 57.2342 191.196 57.1506 191.171ZM32.3268 182.468C32.2133 182.434 32.1029 182.38 32.0024 182.305C30.5445 181.219 29.1383 180.033 27.8258 178.777C27.4088 178.379 27.3939 177.718 27.7919 177.301C28.189 176.886 28.8498 176.871 29.2667 177.267C30.5196 178.463 31.8591 179.595 33.2493 180.63C33.711 180.974 33.8075 181.628 33.4632 182.09C33.1935 182.453 32.7348 182.59 32.3268 182.468ZM67.7628 190.234C67.4085 190.128 67.1219 189.837 67.0403 189.451C66.9199 188.886 67.2801 188.332 67.8434 188.213C69.5371 187.853 71.2259 187.386 72.8649 186.822C73.4112 186.634 74.0043 186.926 74.1914 187.471C74.3785 188.017 74.0879 188.611 73.5436 188.798C71.8249 189.387 70.0546 189.878 68.2783 190.256C68.1011 190.293 67.924 190.283 67.7628 190.234ZM77.8406 186.778C77.5699 186.697 77.3331 186.507 77.1997 186.233C76.9479 185.715 77.1649 185.09 77.6833 184.839C79.2457 184.082 80.7753 183.223 82.2292 182.288C82.7148 181.975 83.3606 182.116 83.6711 182.6C83.9826 183.085 83.8433 183.73 83.3586 184.041C81.8341 185.022 80.2309 185.923 78.5939 186.716C78.3501 186.835 78.0824 186.85 77.8406 186.778ZM86.8018 181.007C86.6118 180.95 86.4356 180.839 86.2993 180.673C85.9311 180.231 85.9918 179.572 86.4356 179.204C87.7711 178.096 89.0499 176.895 90.2361 175.636C90.6311 175.218 91.2919 175.197 91.7109 175.593C92.1298 175.988 92.1497 176.649 91.7546 177.068C90.5107 178.388 89.1693 179.646 87.7691 180.81C87.4885 181.042 87.1252 181.103 86.8018 181.007Z" fill="#287CAB"/>
<path d="M24.5867 175.07C24.3936 175.012 24.2155 174.899 24.0781 174.731C23.5129 174.039 22.9656 173.328 22.4501 172.617C22.1127 172.15 22.2162 171.497 22.684 171.159C23.1507 170.823 23.8025 170.926 24.1418 171.393C24.6324 172.071 25.1549 172.749 25.6943 173.41C26.0595 173.856 25.9928 174.514 25.547 174.878C25.2683 175.106 24.9071 175.165 24.5867 175.07Z" fill="#287CAB"/>
<path d="M29.2762 162.403C29.3628 162.611 29.5717 162.741 29.7966 162.727L36.2153 162.328C37.9707 164.765 40.1262 166.94 42.6399 168.739L42.2598 175.154C42.2459 175.379 42.3772 175.588 42.5852 175.674L49.7154 178.617C49.9234 178.702 50.1642 178.646 50.3135 178.478L54.5677 173.661C57.6188 174.157 60.6809 174.135 63.6434 173.645L67.9136 178.453C68.0628 178.621 68.3037 178.677 68.5117 178.591L75.6339 175.629C75.8419 175.543 75.9722 175.334 75.9583 175.109L75.5592 168.69C77.9963 166.935 80.1707 164.778 81.97 162.265L88.3856 162.646C88.6105 162.659 88.8195 162.529 88.9051 162.321L91.8477 155.19C91.9333 154.982 91.8776 154.741 91.7094 154.593L86.8919 150.339C87.3885 147.287 87.3666 144.225 86.876 141.263L91.6845 136.993C91.8527 136.843 91.9084 136.603 91.8219 136.395L88.8603 129.272C88.7737 129.064 88.5648 128.934 88.3399 128.948L81.9212 129.347C80.1668 126.91 78.0103 124.736 75.4965 122.936L75.8767 116.521C75.8896 116.296 75.7593 116.087 75.5513 116.001L68.4201 113.06C68.2121 112.974 67.9723 113.03 67.823 113.198L63.5688 118.015C60.5177 117.519 57.4556 117.541 54.4931 118.031L50.2229 113.223C50.0737 113.055 49.8328 112.999 49.6248 113.085L42.5026 116.047C42.2946 116.134 42.1643 116.343 42.1782 116.567L42.5762 122.986C40.1391 124.742 37.9648 126.898 36.1655 129.411L29.7499 129.03C29.525 129.017 29.316 129.147 29.2304 129.356L26.2878 136.486C26.2022 136.694 26.2579 136.935 26.4261 137.084L31.2436 141.339C30.748 144.389 30.7689 147.452 31.2595 150.414L26.451 154.684C26.2828 154.834 26.2271 155.074 26.3136 155.282L29.2762 162.403Z" fill="#6BB4DD"/>
<path d="M56.7915 153.396C55.1783 152.914 53.7682 151.932 52.7432 150.558C51.4824 148.869 50.954 146.79 51.2575 144.703C51.8814 140.397 55.8938 137.402 60.2008 138.025C64.5127 138.658 67.5041 142.663 66.8792 146.969C66.5767 149.056 65.48 150.9 63.7903 152.161C62.1005 153.422 60.0217 153.951 57.9339 153.647C57.5448 153.591 57.1626 153.506 56.7915 153.396ZM60.7332 140.275C60.4645 140.194 60.1869 140.132 59.9003 140.091C56.7318 139.632 53.7812 141.835 53.3214 145.004C53.0995 146.538 53.4866 148.069 54.4151 149.31C55.3435 150.552 56.6999 151.358 58.2344 151.582C59.7689 151.805 61.2994 151.416 62.5414 150.489C63.7843 149.56 64.5914 148.204 64.8143 146.669C65.2322 143.789 63.445 141.085 60.7332 140.275Z" fill="#287CAB"/>
<path d="M53.6004 164.6C52.9675 164.411 52.3396 164.188 51.7166 163.932C50.4797 163.422 49.2935 162.786 48.1879 162.038C48.1381 162.005 48.0893 161.971 48.0396 161.937C47.6575 161.674 47.5052 161.202 47.6316 160.78C47.6624 160.677 47.7092 160.577 47.7729 160.485C48.1003 160.01 48.7491 159.894 49.2238 160.218C50.2498 160.926 51.3564 161.526 52.5118 162.002H52.5128C52.5764 162.027 52.6401 162.053 52.7038 162.079C55.4504 163.182 58.3682 163.558 61.2322 163.223C62.7866 163.04 64.3261 162.647 65.8138 162.044C65.8258 162.039 65.8377 162.034 65.8497 162.029C65.8865 162.013 65.9233 162 65.9601 161.984C70.293 160.181 73.6655 156.8 75.4557 152.462C75.6876 151.901 75.8886 151.333 76.0608 150.758C77.2142 146.896 77.0062 142.788 75.4378 139.015C73.6356 134.682 70.2541 131.31 65.9163 129.52C61.5805 127.733 56.8028 127.737 52.469 129.538C48.1361 131.34 44.7636 134.722 42.9733 139.06C42.7454 139.612 42.5464 140.173 42.3762 140.741C41.6408 143.206 41.4518 145.803 41.8339 148.348C41.8568 148.505 41.8448 148.659 41.802 148.801C41.6896 149.176 41.3702 149.473 40.9572 149.534C40.3869 149.618 39.8555 149.228 39.77 148.657C39.343 145.809 39.554 142.902 40.377 140.145C40.5671 139.508 40.789 138.88 41.0437 138.263C43.047 133.409 46.8195 129.627 51.6679 127.61C56.5152 125.595 61.8571 125.583 66.7114 127.59C71.5657 129.592 75.3483 133.364 77.3644 138.213C79.1199 142.433 79.3527 147.029 78.062 151.351C77.87 151.992 77.6451 152.628 77.3863 153.256C73.5073 162.655 63.1389 167.45 53.6004 164.6Z" fill="#287CAB"/>
<path d="M129.487 209.057C128.702 209.127 127.975 208.594 127.821 207.804C127.482 206.076 127.215 204.309 127.024 202.55C126.931 201.694 127.549 200.925 128.405 200.832C128.415 200.831 128.425 200.83 128.435 200.829C129.278 200.753 130.03 201.367 130.121 202.213C130.303 203.884 130.557 205.564 130.879 207.205C131.044 208.05 130.494 208.869 129.649 209.034C129.594 209.044 129.54 209.052 129.487 209.057ZM128.38 195.526C128.319 195.531 128.258 195.533 128.195 195.532C127.335 195.507 126.657 194.79 126.681 193.93C126.732 192.162 126.859 190.38 127.058 188.633C127.156 187.778 127.925 187.166 128.783 187.26C129.638 187.358 130.252 188.131 130.154 188.985C129.964 190.647 129.844 192.34 129.796 194.019C129.774 194.816 129.155 195.457 128.38 195.526ZM130.28 182.089C130.107 182.104 129.928 182.091 129.751 182.045C128.918 181.829 128.418 180.979 128.633 180.146C129.075 178.438 129.596 176.729 130.183 175.064C130.47 174.252 131.36 173.828 132.171 174.112C132.983 174.399 133.408 175.289 133.123 176.101C132.566 177.681 132.07 179.305 131.65 180.927C131.48 181.582 130.918 182.032 130.28 182.089ZM135.138 169.41C134.852 169.436 134.557 169.383 134.283 169.241C133.519 168.845 133.221 167.904 133.617 167.141C134.431 165.574 135.322 164.024 136.265 162.532C136.726 161.806 137.689 161.59 138.416 162.048C139.143 162.508 139.359 163.471 138.9 164.199C138.004 165.615 137.157 167.088 136.385 168.577C136.129 169.067 135.65 169.366 135.138 169.41ZM142.701 158.135C142.301 158.171 141.887 158.053 141.556 157.772C140.899 157.216 140.817 156.233 141.374 155.576C142.511 154.233 143.723 152.918 144.974 151.67C145.583 151.062 146.57 151.063 147.177 151.673C147.784 152.282 147.783 153.269 147.173 153.877C145.983 155.063 144.832 156.312 143.751 157.589C143.475 157.916 143.095 158.1 142.701 158.135ZM152.569 148.814C152.05 148.861 151.52 148.646 151.184 148.199C150.666 147.511 150.804 146.534 151.491 146.017C152.9 144.956 154.372 143.942 155.867 143.004C156.596 142.547 157.558 142.768 158.015 143.497C158.473 144.225 158.252 145.188 157.524 145.644C156.104 146.536 154.704 147.498 153.366 148.507C153.125 148.689 152.85 148.789 152.569 148.814ZM209.115 140.043C208.9 140.062 208.678 140.037 208.461 139.96C206.882 139.406 205.256 138.912 203.631 138.495C202.797 138.281 202.295 137.433 202.509 136.599C202.723 135.765 203.572 135.262 204.406 135.477C206.117 135.917 207.829 136.435 209.493 137.019C210.305 137.303 210.732 138.193 210.447 139.005C210.238 139.602 209.704 139.99 209.115 140.043ZM164.251 141.916C163.607 141.973 162.969 141.623 162.69 141C162.338 140.214 162.69 139.292 163.476 138.941C165.086 138.22 166.747 137.56 168.412 136.98C169.226 136.7 170.112 137.126 170.396 137.939C170.678 138.752 170.25 139.64 169.437 139.923C167.854 140.474 166.278 141.101 164.748 141.785C164.586 141.857 164.418 141.901 164.251 141.916ZM195.88 137.021C195.778 137.03 195.673 137.03 195.567 137.018C193.902 136.831 192.207 136.714 190.53 136.668C189.669 136.644 188.99 135.929 189.014 135.069C189.038 134.209 189.752 133.527 190.614 133.554C192.38 133.601 194.163 133.725 195.915 133.921C196.77 134.016 197.386 134.788 197.291 135.643C197.205 136.391 196.603 136.956 195.88 137.021ZM177.18 137.8C176.397 137.869 175.67 137.339 175.515 136.55C175.348 135.706 175.897 134.886 176.741 134.718C178.469 134.375 180.236 134.104 181.991 133.911C182.002 133.909 182.013 133.908 182.024 133.907C182.866 133.831 183.617 134.443 183.711 135.288C183.805 136.144 183.188 136.914 182.333 137.008C180.665 137.192 178.987 137.45 177.345 137.776C177.29 137.787 177.234 137.795 177.18 137.8Z" fill="#F4D279"/>
<path d="M219.07 144.586C218.764 144.612 218.447 144.551 218.16 144.387C217.462 143.989 216.745 143.598 216.026 143.226C215.262 142.83 214.964 141.89 215.36 141.127C215.756 140.362 216.696 140.063 217.46 140.46C218.216 140.851 218.97 141.261 219.704 141.681C220.452 142.108 220.713 143.059 220.286 143.806C220.023 144.266 219.56 144.542 219.07 144.586Z" fill="#F4D279"/>
<path d="M247.858 182.378C247.109 182.445 246.401 181.96 246.21 181.208C246.013 180.429 245.796 179.642 245.566 178.866C245.32 178.041 245.791 177.174 246.615 176.929C247.443 176.683 248.308 177.154 248.553 177.978C248.795 178.794 249.023 179.623 249.231 180.443C249.442 181.277 248.937 182.124 248.103 182.335C248.021 182.357 247.94 182.371 247.858 182.378Z" fill="#F4D279"/>
<path d="M194.489 257.758C193.774 257.822 193.057 257.874 192.335 257.913C191.476 257.961 190.741 257.302 190.693 256.444C190.645 255.585 191.307 254.845 192.163 254.802C193.828 254.709 195.486 254.55 197.109 254.324C197.963 254.206 198.748 254.801 198.867 255.652C198.986 256.505 198.391 257.292 197.538 257.411C196.534 257.55 195.508 257.667 194.489 257.758ZM184.109 257.806C184.023 257.814 183.934 257.814 183.844 257.807C182.111 257.668 180.365 257.454 178.653 257.169C177.804 257.029 177.23 256.226 177.37 255.378C177.512 254.529 178.315 253.952 179.162 254.095C180.788 254.365 182.446 254.568 184.093 254.701C184.951 254.77 185.59 255.521 185.521 256.379C185.46 257.147 184.852 257.739 184.109 257.806ZM205.562 255.721C204.83 255.787 204.132 255.325 203.926 254.593C203.692 253.764 204.174 252.903 205.002 252.669C206.587 252.222 208.174 251.701 209.719 251.12C210.525 250.818 211.424 251.224 211.727 252.029C212.029 252.835 211.622 253.734 210.816 254.036C209.189 254.648 207.517 255.198 205.848 255.668C205.753 255.696 205.657 255.713 205.562 255.721ZM170.988 255.274C170.791 255.292 170.588 255.271 170.387 255.21C168.728 254.693 167.073 254.1 165.464 253.446C164.667 253.122 164.284 252.213 164.609 251.416C164.933 250.618 165.842 250.235 166.639 250.559C168.165 251.18 169.738 251.743 171.314 252.234C172.136 252.49 172.595 253.364 172.339 254.185C172.146 254.806 171.599 255.22 170.988 255.274ZM217.93 250.695C217.33 250.748 216.727 250.449 216.422 249.886C216.012 249.129 216.292 248.183 217.049 247.773C218.495 246.989 219.928 246.131 221.309 245.224C222.028 244.752 222.995 244.952 223.467 245.671C223.939 246.391 223.739 247.356 223.02 247.829C221.567 248.783 220.058 249.687 218.535 250.513C218.341 250.616 218.135 250.676 217.93 250.695ZM228.896 243.075C228.416 243.118 227.922 242.937 227.582 242.547C227.017 241.899 227.084 240.914 227.732 240.349C228.976 239.264 230.188 238.114 231.336 236.931C231.934 236.312 232.92 236.297 233.539 236.897C234.157 237.496 234.172 238.482 233.573 239.101C232.365 240.346 231.089 241.556 229.78 242.698C229.524 242.922 229.212 243.047 228.896 243.075ZM237.941 233.246C237.575 233.279 237.198 233.183 236.88 232.949C236.186 232.44 236.038 231.464 236.547 230.771C237.527 229.44 238.459 228.054 239.321 226.65C239.771 225.917 240.73 225.687 241.464 226.137C242.198 226.588 242.428 227.547 241.977 228.281C241.07 229.759 240.088 231.218 239.058 232.618C238.781 232.992 238.369 233.208 237.941 233.246ZM244.625 221.679C244.372 221.702 244.11 221.662 243.862 221.554C243.073 221.208 242.715 220.289 243.062 219.501C243.725 217.989 244.331 216.432 244.864 214.872C245.141 214.058 246.029 213.624 246.842 213.901C247.657 214.179 248.091 215.066 247.813 215.88C247.253 217.523 246.614 219.162 245.916 220.754C245.678 221.292 245.172 221.63 244.625 221.679ZM248.608 208.923C248.466 208.935 248.32 208.929 248.173 208.9C247.328 208.736 246.775 207.918 246.94 207.074C247.253 205.456 247.501 203.806 247.677 202.165C247.769 201.309 248.54 200.691 249.393 200.782C250.248 200.874 250.867 201.642 250.776 202.498C250.59 204.225 250.329 205.964 249.999 207.667C249.864 208.363 249.283 208.862 248.608 208.923ZM249.692 195.612C249.66 195.615 249.629 195.616 249.596 195.617C248.736 195.641 248.018 194.964 247.994 194.104C247.961 192.89 247.888 191.662 247.781 190.455C247.742 190.018 247.697 189.582 247.649 189.148C247.555 188.292 248.171 187.522 249.025 187.427C249.889 187.314 250.651 187.949 250.746 188.804C250.797 189.261 250.843 189.718 250.884 190.179C250.998 191.449 251.073 192.742 251.109 194.018C251.133 194.843 250.506 195.539 249.692 195.612Z" fill="#F4D279"/>
<path d="M158.716 249.896C158.408 249.923 158.088 249.86 157.8 249.694C157.069 249.272 156.334 248.827 155.614 248.37C154.886 247.909 154.67 246.947 155.131 246.219C155.592 245.493 156.554 245.276 157.281 245.737C157.965 246.171 158.664 246.593 159.357 246.994C160.103 247.424 160.358 248.377 159.928 249.122C159.665 249.579 159.205 249.852 158.716 249.896Z" fill="#F4D279"/>
<path d="M159.203 231.706C159.42 231.928 159.755 231.989 160.035 231.856L168.05 228.069C171.541 230.293 175.412 231.977 179.548 232.998L182.335 241.406C182.433 241.701 182.707 241.902 183.018 241.905L193.65 242.033C193.961 242.037 194.239 241.843 194.345 241.55L197.332 233.211C201.491 232.288 205.402 230.698 208.944 228.558L216.867 232.535C217.144 232.675 217.48 232.623 217.703 232.406L225.31 224.978C225.533 224.761 225.593 224.427 225.46 224.146L221.673 216.131C223.897 212.64 225.581 208.769 226.602 204.633L235.011 201.846C235.306 201.749 235.507 201.474 235.51 201.163L235.637 190.531C235.641 190.221 235.447 189.942 235.154 189.837L226.815 186.849C225.894 182.691 224.302 178.78 222.162 175.237L226.139 167.315C226.279 167.037 226.227 166.702 226.01 166.48L218.582 158.872C218.365 158.649 218.031 158.589 217.75 158.723L209.736 162.509C206.245 160.285 202.373 158.601 198.238 157.58L195.45 149.171C195.353 148.877 195.078 148.676 194.768 148.672L184.135 148.544C183.825 148.54 183.546 148.734 183.441 149.027L180.453 157.366C176.294 158.288 172.384 159.879 168.841 162.02L160.92 158.042C160.642 157.903 160.307 157.954 160.084 158.171L152.476 165.599C152.254 165.816 152.193 166.15 152.326 166.431L156.112 174.446C153.888 177.937 152.204 181.808 151.183 185.944L142.774 188.731C142.48 188.829 142.279 189.103 142.276 189.414L142.148 200.046C142.145 200.356 142.339 200.635 142.631 200.74L150.97 203.728C151.893 207.887 153.483 211.797 155.624 215.34L151.646 223.263C151.507 223.54 151.559 223.876 151.775 224.098L159.203 231.706Z" fill="#E1A508"/>
<path d="M189.836 205.935C184.646 206.398 179.75 202.995 178.5 197.781C177.126 192.05 180.67 186.27 186.401 184.896C189.178 184.229 192.047 184.685 194.48 186.178C196.914 187.669 198.621 190.021 199.286 192.796C200.661 198.527 197.116 204.307 191.385 205.681C190.868 205.805 190.35 205.889 189.836 205.935ZM188.181 187.123C187.78 187.159 187.38 187.224 186.982 187.319C182.588 188.372 179.87 192.804 180.924 197.198C181.978 201.591 186.408 204.311 190.804 203.256C195.197 202.203 197.915 197.771 196.861 193.377C196.351 191.249 195.042 189.447 193.176 188.302C191.66 187.373 189.921 186.968 188.181 187.123Z" fill="#F4D279"/>
<path d="M191.425 221.291C190.533 221.371 189.633 221.406 188.726 221.395C188.44 221.392 188.155 221.384 187.87 221.371C186.464 221.309 185.064 221.135 183.693 220.852C183.674 220.848 183.655 220.844 183.638 220.84C183.585 220.829 183.532 220.819 183.478 220.807C183.375 220.785 183.272 220.762 183.17 220.738C182.9 220.676 182.711 220.448 182.687 220.187C182.681 220.123 182.686 220.057 182.701 219.992C182.778 219.656 183.112 219.447 183.447 219.523C185.174 219.917 186.955 220.127 188.741 220.148C197.61 220.255 205.472 215.711 210.002 208.787C212.523 204.937 214.011 200.349 214.07 195.417C214.081 194.552 214.047 193.692 213.972 192.842C213.46 187.121 211.018 181.795 206.951 177.629C202.28 172.845 196.025 170.166 189.339 170.086C175.531 169.923 164.174 181.017 164.008 194.817C163.998 195.668 164.031 196.517 164.107 197.359C164.433 201.008 165.554 204.546 167.402 207.713C167.45 207.795 167.476 207.884 167.484 207.972C167.505 208.205 167.393 208.441 167.178 208.566C166.88 208.739 166.499 208.64 166.325 208.341C164.385 205.016 163.207 201.302 162.865 197.472C162.785 196.588 162.752 195.697 162.761 194.805C162.935 180.314 174.867 168.668 189.353 168.84C196.371 168.924 202.937 171.736 207.841 176.759C212.111 181.131 214.675 186.723 215.212 192.729C215.292 193.621 215.327 194.523 215.316 195.43C215.232 202.45 212.42 209.016 207.398 213.92C203.026 218.19 197.432 220.755 191.425 221.291Z" fill="#F4D279"/>
<path d="M187.847 37.8517C187.847 37.8517 190.997 39.3833 191.576 41.1437C192.041 42.5558 195.523 42.7379 195.867 45.5143C196.044 46.9483 197.106 48.0967 198.534 48.3147C202.091 48.86 207.572 50.707 208.448 56.8818C209.118 61.5948 206.715 63.3821 204.193 64.0011C202.341 64.4559 201.11 66.2571 201.484 68.1269C201.844 69.9202 201.308 71.9941 198.2 73.6331C191.237 77.3071 184.284 64.9295 184.284 64.9295L182.859 43.3171L187.847 37.8517Z" fill="#801932"/>
<path d="M159.204 25.0204C159.204 25.0204 165.697 50.2124 180.131 59.3219C180.131 59.3219 174.252 67.0671 171.564 67.305C171.564 67.305 157.407 44.9183 157.448 27.7381L159.204 25.0204Z" fill="url(#paint0_linear)"/>
<path d="M216.467 173.369L216.917 177.073C217.003 177.776 217.556 178.331 218.26 178.412C219.447 178.547 221.353 178.686 223.217 178.489C224.035 178.403 224.566 177.574 224.317 176.789C223.863 175.359 223.032 173.213 221.832 171.95H217.723C216.963 171.951 216.374 172.616 216.467 173.369Z" fill="#E12F08"/>
<path d="M184.284 129.98L183.591 134.059C183.591 134.059 185.913 157.583 186.326 166.993C186.391 168.468 186.01 169.926 185.235 171.184L181.196 177.742L191.459 171.685L191.663 170.432L189.983 168.123L192.184 141.769C192.313 140.221 191.994 138.669 191.263 137.297L189.141 133.309L184.284 129.98Z" fill="url(#paint1_linear)"/>
<path d="M180.522 178.692H183.797C184.41 178.692 184.988 178.411 185.362 177.925C186.383 176.598 188.499 174.01 189.51 173.942C190.871 173.852 190.697 178.692 190.697 178.692H191.46L192.428 172.677C192.671 171.163 191.918 169.663 190.559 168.955C190.559 168.955 190.247 171.256 188.559 172.275C186.872 173.293 181.691 176.94 181.691 176.94C181.691 176.94 181.056 176.849 180.359 176.976C179.327 177.162 179.472 178.692 180.522 178.692Z" fill="#E12F08"/>
<path d="M198.342 131.918C198.342 131.918 211.947 157.726 214.11 163.619C216.272 169.511 217.031 174.427 217.059 174.893C217.105 175.62 218.01 176.318 220.504 176.318C221.79 176.318 222.421 175.802 222.73 175.303C222.993 174.877 223.006 174.343 222.785 173.895C221.997 172.302 219.5 167.212 218.575 164.903C217.47 162.147 215.095 149.656 213.792 145.312C212.49 140.969 211.017 136.258 205.344 131.918C205.343 131.918 201.448 128.103 198.342 131.918Z" fill="url(#paint2_linear)"/>
<path d="M189.747 89.6289C186.237 74.7575 195.129 66.3456 195.129 66.3456C189.519 60.9609 179.297 58.5098 179.297 58.5098C179.297 58.5098 169.544 65.64 170.701 71.2218C171.38 74.4928 177.556 90.8151 177.556 90.8151C177.556 90.8151 183.269 93.5199 189.747 89.6289Z" fill="#F4D279"/>
<path d="M197.528 96.992C196.1 92.689 189.747 89.6299 189.747 89.6299C183.269 93.521 177.557 90.8172 177.557 90.8172C177.557 90.8172 176.276 95.7143 177.16 100.264C178.043 104.815 183.591 134.06 183.591 134.06C192.331 135.831 205.775 132.278 205.775 132.278C200.207 122.393 198.956 101.295 197.528 96.992Z" fill="#E04167"/>
<path d="M185.673 48.6839L188.526 61.5003C188.799 62.6288 187.77 62.4447 186.629 62.2297C184.76 61.8774 182.351 61.152 181.546 59.6971C181.464 59.5488 181.422 59.3816 181.399 59.2145L180.173 50.3268C180.076 49.6213 180.457 48.9376 181.108 48.649L183.473 47.6002C184.385 47.1951 185.44 47.7146 185.673 48.6839Z" fill="url(#paint3_linear)"/>
<path d="M182.325 36.4804C182.325 36.4804 178.946 37.9074 176.648 42.7906C174.35 47.6738 176.066 49.9288 178.221 50.2382C180.377 50.5477 183.6 50.501 187.01 47.3464C190.419 44.1908 186.718 34.7887 182.325 36.4804Z" fill="url(#paint4_linear)"/>
<path d="M184.717 44.7381C184.717 44.7381 187.267 37.594 180.933 37.5094L179.442 38.5513C179.442 38.5513 177.118 34.5906 180.933 32.6989C184.747 30.8081 189.211 32.3695 190.835 37.5094C192.459 42.6483 192.736 46.0885 190.035 48.5475C187.335 51.0065 186.222 48.2181 186.222 48.2181C186.222 48.2181 187.693 45.9183 187.094 44.6883C186.495 43.4583 185.114 44.9431 185.114 44.9431L184.717 44.7381Z" fill="#801932"/>
<path d="M185.428 45.5342C185.428 45.5342 186.716 41.8542 188.436 43.32C190.156 44.7859 187.039 46.7194 185.818 47.3464L185.428 45.5342Z" fill="url(#paint5_linear)"/>
<path d="M157.907 29.3582C157.728 29.7772 159.238 30.5922 160.341 28.9164C160.458 28.0725 161.335 24.492 160.898 23.7516C158.567 19.8048 155.742 19.2834 155.742 19.2834C155.116 20.189 154.387 20.9343 153.968 22.0638C153.651 22.9196 153.698 23.872 154.062 24.7159C154.427 25.5627 154.931 26.6664 155.424 27.5391C156.358 29.192 157.907 29.3582 157.907 29.3582Z" fill="url(#paint6_linear)"/>
<path d="M196.705 70.3053C196.705 70.3053 170.605 102.176 151.105 65.8869C151.105 65.8869 150.731 64.9594 150.964 63.6199C151.083 62.9432 150.635 60.545 150.389 59.3199C150.311 58.9259 150.59 58.5537 150.99 58.5149C151.304 58.485 151.611 58.6164 151.805 58.8642L155.367 63.4C155.633 64.2986 155.205 65.256 154.359 65.657C153.819 65.9128 153.649 66.5984 154.012 67.0741C168.841 86.5132 193.645 65.1823 194.1 65.4331C195.71 66.3218 197.571 67.304 196.705 70.3053Z" fill="url(#paint7_linear)"/>
<path d="M181.085 277.093C181.649 277.093 182.107 276.732 182.107 276.286V179.757C182.107 179.311 181.649 178.95 181.085 178.95C180.52 178.95 180.063 179.311 180.063 179.757V276.286C180.062 276.731 180.519 277.093 181.085 277.093Z" fill="#095783"/>
<path d="M208.782 277.093C209.346 277.093 209.804 276.732 209.804 276.286V179.757C209.804 179.311 209.346 178.95 208.782 178.95C208.218 178.95 207.76 179.311 207.76 179.757V276.286C207.76 276.731 208.217 277.093 208.782 277.093Z" fill="#095783"/>
<path d="M276.83 277.705C276.963 277.705 277.099 277.684 277.229 277.64C277.749 277.466 277.99 276.991 277.77 276.581L225.505 179.44C225.284 179.03 224.683 178.839 224.164 179.014C223.645 179.188 223.403 179.662 223.624 180.072L275.889 277.213C276.054 277.52 276.432 277.705 276.83 277.705Z" fill="#095783"/>
<path d="M244.546 277.705C244.679 277.705 244.815 277.684 244.945 277.64C245.464 277.466 245.706 276.991 245.485 276.581L193.22 179.44C193 179.03 192.398 178.839 191.88 179.014C191.361 179.188 191.119 179.662 191.34 180.072L243.604 277.213C243.77 277.52 244.148 277.705 244.546 277.705Z" fill="#095783"/>
<path d="M179.498 180.645H227.374C228.169 180.645 228.815 180.135 228.815 179.506C228.815 178.877 228.17 178.368 227.374 178.368H179.498C178.702 178.368 178.057 178.877 178.057 179.506C178.057 180.135 178.702 180.645 179.498 180.645Z" fill="#095783"/>
<path d="M200.176 195.417H232.555C233.12 195.417 233.577 195.056 233.577 194.609C233.577 194.164 233.12 193.802 232.555 193.802H200.176C199.612 193.802 199.154 194.164 199.154 194.609C199.154 195.056 199.612 195.417 200.176 195.417Z" fill="#095783"/>
<path d="M242.49 212.174H210.111V213.789H242.49V212.174Z" fill="#095783"/>
<path d="M252.108 230.546H219.729V232.161H252.108V230.546Z" fill="#095783"/>
<path d="M229.816 250.532H262.195C262.759 250.532 263.217 250.171 263.217 249.724C263.217 249.279 262.759 248.917 262.195 248.917H229.816C229.252 248.917 228.794 249.279 228.794 249.724C228.794 250.171 229.252 250.532 229.816 250.532Z" fill="#095783"/>
<path d="M239.568 268.905H271.947C272.511 268.905 272.969 268.543 272.969 268.098C272.969 267.652 272.511 267.291 271.947 267.291H239.568C239.004 267.291 238.546 267.652 238.546 268.098C238.546 268.543 239.004 268.905 239.568 268.905Z" fill="#095783"/>
<path d="M85.5377 276.186C82.3075 273.374 75.3654 271.121 75.3654 271.121L71.1888 271.212C70.129 272.405 69.6493 274.715 69.4453 276.164C70.2315 276.636 71.7053 277.048 74.4081 277.177C79.4107 277.415 83.4489 276.684 85.5377 276.186Z" fill="#336066"/>
<path d="M85.5375 276.186C83.4487 276.684 79.4104 277.415 74.4068 277.177C71.705 277.049 70.2312 276.636 69.444 276.164C69.4271 276.281 69.4122 276.393 69.3992 276.498C69.3246 277.092 69.6928 277.65 70.265 277.825C74.0804 278.994 82.4714 278.618 85.7425 278.415C86.442 278.371 86.8073 277.551 86.3594 277.012C86.1276 276.732 85.8489 276.457 85.5375 276.186Z" fill="#336066"/>
<path d="M73.1454 267.606L71.5303 270.927C71.5303 271.567 71.9761 272.117 72.601 272.252C73.2479 272.393 74.1067 272.482 74.9406 272.275C75.4621 272.146 75.8432 271.698 75.9059 271.165L77.94 267.605H73.1454V267.606Z" fill="url(#paint8_linear)"/>
<path d="M4.12351 268.223C2.90845 265.517 3.25575 264.3 0.849501 264.57C0.559915 264.603 0.320087 264.658 0.117078 264.73C-0.0341829 265.177 -0.0441364 265.67 0.118072 266.139C0.726103 267.89 1.19083 271.284 3.52344 274.23C4.01405 274.849 4.76339 275.207 5.55353 275.221L8.20658 275.265C5.69086 273.253 5.13259 270.468 4.12351 268.223Z" fill="#1A5760"/>
<path d="M8.37586 271.252C6.3398 269.818 6.38657 263.559 6.38657 263.559L3.24789 261.962L0.88144 263.676C0.515227 263.948 0.257484 264.319 0.118164 264.729C0.321173 264.656 0.561004 264.601 0.850591 264.569C3.25685 264.299 2.90954 265.516 4.12461 268.222C5.13269 270.467 5.69196 273.253 8.20768 275.264L10.0308 275.295C10.8498 275.308 11.3235 274.372 10.8269 273.72C10.2039 272.903 9.3511 271.94 8.37586 271.252Z" fill="#1A5760"/>
<path d="M6.40487 259.014L2.89501 261.962C2.65518 262.334 2.73678 262.827 3.08508 263.101C3.69211 263.579 4.74497 264.113 6.03368 263.56L9.88487 261.474L6.40487 259.014Z" fill="url(#paint9_linear)"/>
<path d="M4.0762 260.467L6.95614 262.615C7.37907 263.007 8.42098 263.047 8.8887 262.71C13.6634 259.268 58.9533 238.45 67.9285 235.198L61.0779 220.816C61.0769 220.815 2.8671 259.354 4.0762 260.467Z" fill="#287CAB"/>
<path d="M96.0741 232.532C90.7321 229.666 75.8528 227.187 75.8528 227.187L58.5473 222.501C58.5473 222.501 53.7955 236.676 62.1218 239.234C70.4482 241.791 82.4834 240.58 87.5288 239.911C87.5288 239.911 80.7837 244.756 72.7081 268.224C72.7081 268.224 75.4259 268.282 77.6371 268.799C77.6371 268.799 95.6601 246.367 97.5489 240.58C98.7948 236.763 100.54 234.929 96.0741 232.532Z" fill="#176693"/>
<path d="M106.432 185.794C102.688 185.531 91.3145 188.003 91.3145 188.003L97.155 192.805C97.155 192.805 101.758 191.686 104.827 191.086C104.827 191.086 112.4 186.214 106.432 185.794Z" fill="url(#paint10_linear)"/>
<path d="M119.802 189.193C119.802 189.193 114.786 193.85 111.739 195.115C108.692 196.38 106.911 197.758 105.023 194.384C103.135 191.01 103.861 187.354 106.381 184.626C106.381 184.626 110.249 180.381 112.405 180.271C114.56 180.162 119.802 189.193 119.802 189.193Z" fill="url(#paint11_linear)"/>
<path d="M109.038 185.073L109.197 185.528C109.197 185.528 112.379 182.307 113.632 183.716C114.883 185.124 118.501 191.171 121.306 191.765C124.011 192.337 126.465 190.118 126.635 188.028C126.646 187.895 126.545 187.78 126.413 187.76L126.077 187.71C125.847 187.675 125.775 187.379 125.964 187.243C126.144 187.115 126.093 186.83 125.878 186.783C125.035 186.596 123.502 185.825 121.828 182.903C119.452 178.756 116.628 176.455 113.538 177.459C113.342 177.523 113.163 177.353 113.206 177.152C113.29 176.755 113.2 176.197 112.366 175.705C110.915 174.847 108.434 176.278 107.187 179.714C107.127 179.877 106.929 179.946 106.792 179.84C106.307 179.466 105.304 179.009 104.962 181.228C104.612 183.499 105.12 184.59 105.38 184.979C105.45 185.084 105.582 185.125 105.697 185.076L108.354 183.954C108.492 183.897 108.65 183.966 108.699 184.107L109.038 185.073Z" fill="#01141E"/>
<path d="M108.51 185.383C108.51 185.383 111.947 183.072 110.291 181.748C108.635 180.425 106.362 184.117 106.7 185.53L108.51 185.383Z" fill="url(#paint12_linear)"/>
<path d="M139.814 200.099C139.814 200.099 142.637 201.101 143.157 199.422C143.679 197.743 142.223 193.266 143.146 192.648C144.07 192.03 145.664 188.94 145.159 187.528L144.003 188.627C144.003 188.627 144.791 186.035 143.925 184.932L141.737 190.559C141.738 190.56 138.837 197.256 139.814 200.099Z" fill="url(#paint13_linear)"/>
<path d="M88.8161 188.921C88.8161 188.921 93.8465 183.37 104.844 192.034C112.423 198.005 139.733 196.791 139.733 196.791C139.733 196.791 139.719 198.337 140.254 200.205C140.254 200.205 117.336 206.4 100.133 202.194C100.133 202.194 81.1246 223.742 79.6608 227.962C79.6608 227.962 67.3081 229.807 58.5488 222.5C58.5488 222.5 60.8983 215.215 68.5042 206.766C78.38 195.799 88.8161 188.921 88.8161 188.921Z" fill="#7CBDC7"/>
<path d="M91.4575 200.023C91.366 199.989 91.3142 199.89 91.3411 199.794C91.3689 199.694 91.4744 199.635 91.5749 199.663C91.6406 199.682 98.119 201.501 99.141 201.753C99.2415 201.779 99.3042 201.881 99.2793 201.982C99.2544 202.084 99.1519 202.146 99.0504 202.121C98.0225 201.866 91.5381 200.045 91.4724 200.027C91.4675 200.026 91.4625 200.025 91.4575 200.023Z" fill="#3C8994"/>
<defs>
<linearGradient id="paint0_linear" x1="165.905" y1="38.0797" x2="179.183" y2="78.8647" gradientUnits="userSpaceOnUse">
<stop stop-color="#FEBBBA"/>
<stop offset="1" stop-color="#FF928E"/>
</linearGradient>
<linearGradient id="paint1_linear" x1="182.984" y1="206.507" x2="194.384" y2="73.276" gradientUnits="userSpaceOnUse">
<stop stop-color="#FEBBBA"/>
<stop offset="1" stop-color="#FF928E"/>
</linearGradient>
<linearGradient id="paint2_linear" x1="205.915" y1="208.489" x2="217.318" y2="75.2233" gradientUnits="userSpaceOnUse">
<stop stop-color="#FEBBBA"/>
<stop offset="1" stop-color="#FF928E"/>
</linearGradient>
<linearGradient id="paint3_linear" x1="181.98" y1="69.2373" x2="186.213" y2="45.6245" gradientUnits="userSpaceOnUse">
<stop stop-color="#FEBBBA"/>
<stop offset="1" stop-color="#FF928E"/>
</linearGradient>
<linearGradient id="paint4_linear" x1="176.33" y1="54.9835" x2="195.013" y2="21.7333" gradientUnits="userSpaceOnUse">
<stop stop-color="#FEBBBA"/>
<stop offset="1" stop-color="#FF928E"/>
</linearGradient>
<linearGradient id="paint5_linear" x1="180.306" y1="57.2182" x2="198.99" y2="23.9677" gradientUnits="userSpaceOnUse">
<stop stop-color="#FEBBBA"/>
<stop offset="1" stop-color="#FF928E"/>
</linearGradient>
<linearGradient id="paint6_linear" x1="161.415" y1="36.3247" x2="170.586" y2="64.494" gradientUnits="userSpaceOnUse">
<stop stop-color="#FEBBBA"/>
<stop offset="1" stop-color="#FF928E"/>
</linearGradient>
<linearGradient id="paint7_linear" x1="177.342" y1="57.0597" x2="165.215" y2="81.3299" gradientUnits="userSpaceOnUse">
<stop stop-color="#FEBBBA"/>
<stop offset="1" stop-color="#FF928E"/>
</linearGradient>
<linearGradient id="paint8_linear" x1="71.5303" y1="270.002" x2="77.9403" y2="270.002" gradientUnits="userSpaceOnUse">
<stop stop-color="#FEBBBA"/>
<stop offset="1" stop-color="#FF928E"/>
</linearGradient>
<linearGradient id="paint9_linear" x1="2.75799" y1="261.404" x2="9.88521" y2="261.404" gradientUnits="userSpaceOnUse">
<stop stop-color="#FEBBBA"/>
<stop offset="1" stop-color="#FF928E"/>
</linearGradient>
<linearGradient id="paint10_linear" x1="119.235" y1="175.307" x2="94.731" y2="191.791" gradientUnits="userSpaceOnUse">
<stop stop-color="#FEBBBA"/>
<stop offset="1" stop-color="#FF928E"/>
</linearGradient>
<linearGradient id="paint11_linear" x1="112.395" y1="196.585" x2="110.836" y2="176.536" gradientUnits="userSpaceOnUse">
<stop stop-color="#FEBBBA"/>
<stop offset="1" stop-color="#FF928E"/>
</linearGradient>
<linearGradient id="paint12_linear" x1="109.704" y1="196.794" x2="108.145" y2="176.745" gradientUnits="userSpaceOnUse">
<stop stop-color="#FEBBBA"/>
<stop offset="1" stop-color="#FF928E"/>
</linearGradient>
<linearGradient id="paint13_linear" x1="139.135" y1="199.698" x2="146.825" y2="186.639" gradientUnits="userSpaceOnUse">
<stop stop-color="#FEBBBA"/>
<stop offset="1" stop-color="#FF928E"/>
</linearGradient>
</defs>
</svg>
