<svg width="58" height="58" viewBox="0 0 58 58" fill="none" xmlns="http://www.w3.org/2000/svg">
<path d="M17.2188 36.25V32.625C17.2188 31.6636 16.8368 30.7416 16.157 30.0617C15.4772 29.3819 14.5552 29 13.5938 29H6.34375C5.38234 29 4.46031 29.3819 3.78049 30.0617C3.10067 30.7416 2.71875 31.6636 2.71875 32.625V36.25H17.2188Z" fill="#F37B60"/>
<path d="M29 32.7545L22.7759 34.5328C20.9562 35.0528 19.4119 36.2637 18.4729 37.9069L16.3125 41.6876L10.875 45.3126V48.9376H17.2188L20.8438 45.3126V55.2813H37.1562V45.3126L40.7812 48.9376H47.125V45.3126L41.6875 41.6876L39.5271 37.9069C38.5881 36.2637 37.0438 35.0528 35.2241 34.5328L29 32.7545Z" fill="#ADDCF6"/>
<path d="M31.7188 33.5313L29.9062 38.0625L31.7188 47.125L29 49.8438L26.2812 47.125L28.0938 38.0625L26.2812 33.5313L29 32.7545L31.7188 33.5313Z" fill="#F37B60"/>
<path d="M24.4688 25.375H33.5312V29.9062C33.5312 31.108 33.0539 32.2606 32.2041 33.1103C31.3543 33.9601 30.2018 34.4375 29 34.4375C27.7982 34.4375 26.6457 33.9601 25.7959 33.1103C24.9461 32.2606 24.4688 31.108 24.4688 29.9062V25.375Z" fill="#F3C5BB"/>
<path d="M24.4688 25.375V23.9626C24.4688 23.1354 24.7973 22.3421 25.3822 21.7572C25.9671 21.1723 26.7604 20.8438 27.5876 20.8438C27.9228 20.8437 28.2559 20.8978 28.5739 21.0038L30.952 21.7965C31.7031 22.0469 32.3563 22.5272 32.8192 23.1694C33.2822 23.8117 33.5313 24.5833 33.5312 25.375H24.4688Z" fill="#3C8994"/>
<path d="M10.875 45.3125L9.0625 42.5938H7.25V44.4062H2.71875V46.2188L5.4375 48.9375H10.875V45.3125Z" fill="#F3C5BB"/>
<path d="M47.125 45.3125L48.9375 42.5938H50.75V44.4062H55.2812V46.2188L52.5625 48.9375H47.125V45.3125Z" fill="#F3C5BB"/>
<path d="M9.96875 31.7188C10.9302 31.7188 11.8522 32.1007 12.532 32.7805C13.2118 33.4603 13.5937 34.3823 13.5938 35.3438V39.875H6.34375V35.3438C6.34375 34.3823 6.72567 33.4603 7.40549 32.7805C8.08531 32.1007 9.00734 31.7188 9.96875 31.7188V31.7188Z" fill="#F37B60"/>
<path d="M52.5625 24.4688H47.125C46.124 24.4688 45.3125 25.2802 45.3125 26.2812V37.1562C45.3125 38.1573 46.124 38.9688 47.125 38.9688H52.5625C53.5635 38.9688 54.375 38.1573 54.375 37.1562V26.2812C54.375 25.2802 53.5635 24.4688 52.5625 24.4688Z" fill="#E6F7FA"/>
<path d="M39.875 26.2812L36.25 19.0312L39.875 17.2188L41.6875 20.8438V25.375L39.875 26.2812Z" fill="#93C257"/>
<path d="M33.5137 13.5958L37.1369 11.7842L39.8544 17.2191L36.2311 19.0308L33.5137 13.5958Z" fill="#93C257"/>
<path d="M39.875 17.2188L52.5625 13.5938L46.2188 2.71875L37.1562 11.7812L39.875 17.2188Z" fill="#93C257"/>
<path d="M33.5314 13.5938L31.3884 16.5579L32.6251 19.0312H36.2501L33.5314 13.5938Z" fill="#93C257"/>
<path d="M20.8438 11.6261V23.5625C20.8438 23.8005 20.797 24.0363 20.7059 24.2562C20.6149 24.4761 20.4813 24.676 20.313 24.8443C20.1447 25.0126 19.9449 25.1461 19.7249 25.2372C19.505 25.3282 19.2693 25.3751 19.0312 25.375H8.15625C7.91821 25.3751 7.68249 25.3282 7.46256 25.2372C7.24263 25.1461 7.04279 25.0126 6.87447 24.8443C6.70615 24.676 6.57265 24.4761 6.48158 24.2562C6.39052 24.0363 6.34368 23.8005 6.34375 23.5625V8.15625C6.34368 7.91821 6.39052 7.68249 6.48158 7.46256C6.57265 7.24262 6.70615 7.04279 6.87447 6.87447C7.04279 6.70615 7.24262 6.57265 7.46256 6.48158C7.68249 6.39052 7.91821 6.34368 8.15625 6.34375H15.5615C16.0421 6.34546 16.5028 6.53632 16.8438 6.87504L20.3125 10.3437C20.6512 10.6847 20.842 11.1454 20.8438 11.6261V11.6261Z" fill="#ADDCF6"/>
<path d="M20.6795 10.875H16.3125V6.50806C16.5104 6.59723 16.6904 6.72159 16.8438 6.87509L20.3125 10.3438C20.466 10.4972 20.5903 10.6772 20.6795 10.875Z" fill="#ADDCF6"/>
<path d="M47.8682 5.54623L48.4471 5.16029C48.7442 4.96218 49.0785 4.82644 49.4297 4.76131C49.7808 4.69617 50.1416 4.70298 50.49 4.78134C50.8385 4.85969 51.1674 5.00795 51.4569 5.21715C51.7463 5.42634 51.9903 5.69211 52.1741 5.99836C52.523 6.57993 52.6347 7.27351 52.4859 7.9352C52.3371 8.59689 51.9393 9.17591 51.375 9.55211L50.5325 10.1137L47.8682 5.54623Z" fill="#93C257"/>
<path d="M4.79664 49.5783C4.96661 49.7483 5.19713 49.8437 5.4375 49.8438H17.2188C17.4591 49.8437 17.6896 49.7483 17.8596 49.5783L19.9375 47.5004V55.2812C19.9375 55.5216 20.033 55.7521 20.2029 55.9221C20.3729 56.092 20.6034 56.1875 20.8438 56.1875H37.1562C37.3966 56.1875 37.6271 56.092 37.7971 55.9221C37.967 55.7521 38.0625 55.5216 38.0625 55.2812V47.5004L40.1404 49.5783C40.3104 49.7483 40.5409 49.8437 40.7812 49.8438H52.5625C52.8029 49.8437 53.0334 49.7483 53.2034 49.5783L55.9221 46.8596C56.092 46.6896 56.1875 46.4591 56.1875 46.2188V43.5C56.1875 43.2596 56.092 43.0291 55.9221 42.8592C55.7521 42.6892 55.5216 42.5938 55.2812 42.5938H51.6562C51.6562 42.3534 51.5608 42.1229 51.3908 41.9529C51.2209 41.783 50.9904 41.6875 50.75 41.6875H48.9375C48.7883 41.6875 48.6414 41.7243 48.5099 41.7947C48.3783 41.8651 48.2662 41.9669 48.1835 42.0911L46.8737 44.0558L42.3682 41.0521L40.314 37.4572C39.2612 35.6055 37.5224 34.2421 35.4731 33.6613L33.4156 33.0735C34.0808 32.1515 34.4384 31.0432 34.4375 29.9062V25.375C34.4384 24.3929 34.1298 23.4354 33.5555 22.6387C32.9813 21.842 32.1705 21.2465 31.2385 20.9368L28.8606 20.1441C28.2556 19.9424 27.6112 19.8873 26.9807 19.9835C26.3502 20.0797 25.7515 20.3243 25.2341 20.6972C24.7167 21.0701 24.2953 21.5607 24.0047 22.1284C23.714 22.6961 23.5625 23.3248 23.5625 23.9626V29.9062C23.5616 31.0432 23.9192 32.1515 24.5844 33.0735L22.5269 33.6613C20.4776 34.2421 18.7388 35.6055 17.686 37.4572L15.6318 41.0521L11.1263 44.0558L9.81653 42.0911C9.73378 41.9669 9.62166 41.8651 9.49012 41.7947C9.35858 41.7243 9.21169 41.6875 9.0625 41.6875H7.25C7.00965 41.6875 6.77914 41.783 6.60919 41.9529C6.43923 42.1229 6.34375 42.3534 6.34375 42.5938H2.71875C2.4784 42.5938 2.24789 42.6892 2.07794 42.8592C1.90798 43.0291 1.8125 43.2596 1.8125 43.5V46.2188C1.8125 46.4591 1.90796 46.6896 2.07789 46.8596L4.79664 49.5783ZM48.0312 45.5869L49.4225 43.5H49.8438V46.2188H51.6562V44.4062H54.375V45.8434L52.1871 48.0312H48.0312V45.5869ZM25.375 23.9626C25.375 23.612 25.4583 23.2665 25.6181 22.9544C25.7778 22.6423 26.0095 22.3726 26.2939 22.1676C26.5783 21.9626 26.9074 21.8282 27.254 21.7753C27.6006 21.7224 27.9547 21.7527 28.2873 21.8636L30.6655 22.6562C31.0877 22.7966 31.4714 23.0336 31.7861 23.3482C32.1007 23.6628 32.3376 24.0465 32.478 24.4687H25.375V23.9626ZM25.375 26.2812H32.625V29.9062C32.625 30.8677 32.2431 31.7897 31.5633 32.4695C30.8834 33.1493 29.9614 33.5312 29 33.5312C28.0386 33.5312 27.1166 33.1493 26.4367 32.4695C25.7569 31.7897 25.375 30.8677 25.375 29.9062V26.2812ZM28.8367 38.9688H29.1633L30.7349 46.8271L29 48.5621L27.265 46.8271L28.8367 38.9688ZM27.9405 35.2393C28.64 35.3786 29.36 35.3786 30.0595 35.2393L29.2927 37.1562H28.7073L27.9405 35.2393ZM11.7812 45.7975L16.8152 42.4415C16.9322 42.3635 17.0295 42.2593 17.0994 42.1371L19.2598 38.3564C20.0785 36.9162 21.4309 35.8558 23.0249 35.4042L25.7436 34.6274L27.1522 38.149L25.3926 46.9473C25.3633 47.0936 25.3707 47.2448 25.4139 47.3876C25.4571 47.5304 25.5349 47.6603 25.6404 47.7658L28.3591 50.4846C28.5291 50.6545 28.7596 50.75 29 50.75C29.2404 50.75 29.4709 50.6545 29.6409 50.4846L32.3596 47.7658C32.4651 47.6603 32.5429 47.5304 32.5861 47.3876C32.6293 47.2448 32.6367 47.0936 32.6074 46.9473L30.8478 38.149L32.2564 34.6274L34.975 35.4042C36.569 35.8557 37.9214 36.9162 38.7402 38.3564L40.9006 42.1371C40.9705 42.2593 41.0678 42.3635 41.1848 42.4415L46.2188 45.7975V48.0312H41.1566L37.7971 44.6717C37.6704 44.5449 37.5089 44.4586 37.3331 44.4237C37.1573 44.3887 36.9751 44.4066 36.8095 44.4752C36.6439 44.5438 36.5023 44.66 36.4027 44.809C36.3032 44.958 36.25 45.1333 36.25 45.3125V54.375H21.75V45.3125C21.75 45.1333 21.6968 44.958 21.5973 44.809C21.4977 44.66 21.3561 44.5438 21.1905 44.4752C21.0249 44.4066 20.8427 44.3887 20.6669 44.4237C20.4911 44.4586 20.3296 44.5449 20.2029 44.6717L16.8434 48.0312H11.7812V45.7975ZM3.625 44.4062H6.34375V46.2188H8.15625V43.5H8.57751L9.96875 45.5869V48.0312H5.81286L3.625 45.8434V44.4062Z" fill="#095783"/>
<path d="M2.71875 37.1562H5.4375V39.875C5.4375 40.1154 5.53298 40.3459 5.70294 40.5158C5.87289 40.6858 6.1034 40.7812 6.34375 40.7812H13.5938C13.8341 40.7812 14.0646 40.6858 14.2346 40.5158C14.4045 40.3459 14.5 40.1154 14.5 39.875V37.1562H17.2188C17.4591 37.1562 17.6896 37.0608 17.8596 36.8908C18.0295 36.7209 18.125 36.4904 18.125 36.25V32.625C18.1236 31.4237 17.6458 30.2719 16.7963 29.4224C15.9468 28.573 14.7951 28.0951 13.5938 28.0938H6.34375C5.14241 28.0951 3.99066 28.573 3.14118 29.4224C2.2917 30.2719 1.81386 31.4237 1.8125 32.625V36.25C1.8125 36.4904 1.90798 36.7209 2.07794 36.8908C2.24789 37.0608 2.4784 37.1562 2.71875 37.1562V37.1562ZM12.6875 38.9688H7.25V35.3438C7.25 34.6227 7.53644 33.9312 8.0463 33.4213C8.55617 32.9114 9.24769 32.625 9.96875 32.625C10.6898 32.625 11.3813 32.9114 11.8912 33.4213C12.4011 33.9312 12.6875 34.6227 12.6875 35.3438V38.9688ZM3.625 32.625C3.62581 31.9042 3.91252 31.2131 4.4222 30.7035C4.93189 30.1938 5.62294 29.9071 6.34375 29.9062H13.5938C14.3146 29.9071 15.0056 30.1938 15.5153 30.7035C16.025 31.2131 16.3117 31.9042 16.3125 32.625V35.3438H14.5C14.5 34.142 14.0226 32.9894 13.1728 32.1397C12.3231 31.2899 11.1705 30.8125 9.96875 30.8125C8.76699 30.8125 7.61445 31.2899 6.76467 32.1397C5.9149 32.9894 5.4375 34.142 5.4375 35.3438H3.625V32.625Z" fill="#095783"/>
<path d="M9.96875 37.1562C10.4693 37.1562 10.875 36.7505 10.875 36.25C10.875 35.7495 10.4693 35.3438 9.96875 35.3438C9.46824 35.3438 9.0625 35.7495 9.0625 36.25C9.0625 36.7505 9.46824 37.1562 9.96875 37.1562Z" fill="#095783"/>
<path d="M47.125 23.5625C46.4042 23.5633 45.7131 23.85 45.2035 24.3597C44.6938 24.8694 44.4071 25.5604 44.4062 26.2812V37.1562C44.4071 37.8771 44.6938 38.5681 45.2035 39.0778C45.7131 39.5875 46.4042 39.8742 47.125 39.875H52.5625C53.2833 39.8742 53.9744 39.5875 54.484 39.0778C54.9937 38.5681 55.2804 37.8771 55.2812 37.1562V26.2812C55.2804 25.5604 54.9937 24.8694 54.484 24.3597C53.9744 23.85 53.2833 23.5633 52.5625 23.5625H47.125ZM53.4688 26.2812V37.1562C53.4685 37.3965 53.3729 37.6269 53.203 37.7968C53.0331 37.9667 52.8028 38.0622 52.5625 38.0625H47.125C46.8847 38.0622 46.6544 37.9667 46.4845 37.7968C46.3146 37.6269 46.219 37.3965 46.2188 37.1562V26.2812C46.219 26.041 46.3146 25.8106 46.4845 25.6407C46.6544 25.4708 46.8847 25.3753 47.125 25.375H47.6558L48.2966 26.0158C48.4666 26.1858 48.6971 26.2812 48.9375 26.2812H50.75C50.9904 26.2812 51.2209 26.1858 51.3909 26.0158L52.0317 25.375H52.5625C52.8028 25.3753 53.0331 25.4708 53.203 25.6407C53.3729 25.8106 53.4685 26.041 53.4688 26.2812V26.2812Z" fill="#095783"/>
<path d="M8.15625 26.2813H19.0312C19.7521 26.2804 20.4431 25.9937 20.9528 25.484C21.4625 24.9744 21.7492 24.2833 21.75 23.5625V11.6258C21.751 11.2686 21.6811 10.9148 21.5444 10.5848C21.4077 10.2548 21.207 9.95519 20.9537 9.70331L17.4843 6.23385C17.2324 5.9806 16.9328 5.77981 16.6028 5.64312C16.2728 5.50643 15.919 5.43654 15.5618 5.43751H8.15625C7.43545 5.43833 6.7444 5.72504 6.23471 6.23472C5.72503 6.74441 5.43832 7.43546 5.4375 8.15626V23.5625C5.43832 24.2833 5.72503 24.9744 6.23471 25.484C6.7444 25.9937 7.43545 26.2804 8.15625 26.2813ZM17.2187 8.53167L18.6558 9.96876H17.2187V8.53167ZM7.25 8.15626C7.25027 7.91599 7.34584 7.68564 7.51574 7.51575C7.68563 7.34585 7.91598 7.25028 8.15625 7.25001H15.4062V10.875C15.4063 11.1154 15.5017 11.3459 15.6717 11.5158C15.8416 11.6858 16.0721 11.7813 16.3125 11.7813H19.9375V23.5625C19.9372 23.8028 19.8417 24.0331 19.6718 24.203C19.5019 24.3729 19.2715 24.4685 19.0312 24.4688H8.15625C7.91598 24.4685 7.68563 24.3729 7.51574 24.203C7.34584 24.0331 7.25027 23.8028 7.25 23.5625V8.15626Z" fill="#095783"/>
<path d="M9.0625 20.8438H18.125V22.6562H9.0625V20.8438Z" fill="#095783"/>
<path d="M12.6875 17.2188H18.125V19.0312H12.6875V17.2188Z" fill="#095783"/>
<path d="M9.0625 17.2188H10.875V19.0312H9.0625V17.2188Z" fill="#095783"/>
<path d="M15.4062 13.5938H18.125V15.4062H15.4062V13.5938Z" fill="#095783"/>
<path d="M9.0625 13.5938H13.5938V15.4062H9.0625V13.5938Z" fill="#095783"/>
<path d="M9.0625 9.96875H13.5938V11.7812H9.0625V9.96875Z" fill="#095783"/>
<path d="M48.1716 4.26779L47.0017 2.26217C46.9318 2.14238 46.8354 2.04022 46.7198 1.96356C46.6043 1.8869 46.4727 1.83778 46.3351 1.81999C46.1976 1.8022 46.0578 1.8162 45.9266 1.86093C45.7953 1.90566 45.6761 1.97991 45.578 2.07797L36.6195 11.0365L33.126 12.7832C32.9954 12.8485 32.8825 12.9445 32.7973 13.0631L32.7969 13.0628L32.7894 13.0732L32.7883 13.0747L30.654 16.0269C30.557 16.1612 30.4986 16.3194 30.4852 16.4844C30.4717 16.6495 30.5038 16.8151 30.5779 16.9632L31.8146 19.4366C31.8898 19.5871 32.0055 19.7137 32.1487 19.8022C32.2918 19.8907 32.4568 19.9375 32.6251 19.9375H35.69L39.0646 26.6866C39.1177 26.7931 39.1914 26.888 39.2813 26.9661C39.3711 27.0441 39.4756 27.1036 39.5885 27.1413C39.7014 27.1789 39.8207 27.1939 39.9394 27.1854C40.0581 27.177 40.174 27.1451 40.2805 27.0918L42.093 26.1856C42.2435 26.1103 42.3701 25.9946 42.4585 25.8515C42.547 25.7083 42.5939 25.5433 42.5939 25.375V20.8438C42.5939 20.7031 42.5611 20.5643 42.4982 20.4385L41.174 17.7902L52.8116 14.4652C52.9444 14.4272 53.0668 14.3595 53.1693 14.267C53.2719 14.1746 53.352 14.0599 53.4035 13.9318C53.455 13.8037 53.4765 13.6655 53.4665 13.5277C53.4564 13.39 53.415 13.2564 53.3454 13.1372L51.7455 10.3944L51.8777 10.3062C52.6411 9.7976 53.1776 9.01285 53.3745 8.1169C53.5714 7.22095 53.4133 6.28357 52.9334 5.50176C52.4536 4.71995 51.6894 4.15458 50.8014 3.92447C49.9134 3.69435 48.9708 3.81742 48.1716 4.26779V4.26779ZM33.1852 18.125L32.4446 16.6438L33.3896 15.3367L34.7838 18.125H33.1852ZM34.7473 13.9991L36.751 12.9971L38.6593 16.8135L36.6554 17.8154L34.7473 13.9991ZM40.7814 24.8149L40.2805 25.0654L37.466 19.4366L39.4698 18.4346L40.7814 21.0577V24.8149ZM40.3493 16.1407L38.2591 11.9602L46.0284 4.19088L51.1921 13.0429L40.3493 16.1407ZM51.397 6.46469C51.6266 6.8464 51.7003 7.30197 51.6026 7.7366C51.5049 8.17124 51.2433 8.55145 50.8724 8.79813L50.8305 8.82599L49.085 5.83367C49.4774 5.6204 49.937 5.56697 50.3678 5.68456C50.7986 5.80215 51.1674 6.08166 51.397 6.46469V6.46469Z" fill="#095783"/>
</svg>
