<svg width="58" height="58" viewBox="0 0 58 58" fill="none" xmlns="http://www.w3.org/2000/svg">
<path d="M1.8125 1.8125H38.0625V56.1875H1.8125V1.8125Z" fill="#E6F7FA"/>
<path d="M32.625 46.2188C40.1326 46.2188 46.2188 40.1326 46.2188 32.625C46.2188 25.1174 40.1326 19.0312 32.625 19.0312C25.1174 19.0312 19.0312 25.1174 19.0312 32.625C19.0312 40.1326 25.1174 46.2188 32.625 46.2188Z" fill="#287CAB"/>
<path d="M32.625 42.5938C38.1306 42.5938 42.5938 38.1306 42.5938 32.625C42.5938 27.1194 38.1306 22.6562 32.625 22.6562C27.1194 22.6562 22.6562 27.1194 22.6562 32.625C22.6562 38.1306 27.1194 42.5938 32.625 42.5938Z" fill="#E6F7FA"/>
<path d="M49.8437 44.4062L44.4062 49.8437L49.6235 55.061C50.3446 55.7822 51.3225 56.1874 52.3423 56.1875C52.8473 56.1876 53.3473 56.0882 53.8139 55.895C54.2805 55.7018 54.7044 55.4186 55.0615 55.0615C55.4186 54.7044 55.7018 54.2805 55.895 53.8139C56.0882 53.3473 56.1876 52.8473 56.1875 52.3423C56.1874 51.3225 55.7822 50.3446 55.061 49.6235L49.8437 44.4062Z" fill="#4898C5"/>
<path d="M49.8437 44.4062L46.2188 48.0312L49.6235 51.436C50.0463 51.8604 50.5627 52.1795 51.1313 52.3678C51.7 52.5561 52.3048 52.6082 52.8973 52.5201C53.4897 52.4319 54.0532 52.2059 54.5423 51.8602C55.0315 51.5145 55.4327 51.0588 55.7135 50.5298C55.5414 50.1975 55.3216 49.8922 55.061 49.6235L49.8437 44.4062Z" fill="#287CAB"/>
<path d="M48.9375 45.3125L43.8779 40.2529C42.9093 41.6793 41.6793 42.9093 40.2529 43.8779L45.3125 48.9375L48.9375 45.3125Z" fill="#F4D279"/>
<path d="M41.7627 42.669L44.6718 45.5781C44.8417 45.7479 45.0722 45.8434 45.3125 45.8434C45.5528 45.8434 45.7833 45.7479 45.9532 45.5781L47.5781 43.9531L43.8779 40.2529C43.2704 41.1388 42.5604 41.9497 41.7627 42.669Z" fill="#93C257"/>
<path d="M38.0625 40.9815C39.4542 40.0763 40.5978 38.8378 41.3895 37.3784C42.1811 35.9191 42.5958 34.2852 42.5958 32.625C42.5958 30.9647 42.1811 29.3308 41.3895 27.8715C40.5978 26.4122 39.4542 25.1737 38.0625 24.2684V40.9815Z" fill="#E6F7FA"/>
<path d="M31.7188 19.0612V11.7812H26.2812V20.5991C27.9649 19.708 29.8179 19.1829 31.7188 19.0584V19.0612Z" fill="#4898C5"/>
<path d="M26.2812 40.3154V24.9346C27.8261 23.6566 29.7218 22.8765 31.7188 22.697V42.553C29.7218 42.3735 27.8261 41.5934 26.2812 40.3154V40.3154Z" fill="#4898C5"/>
<path d="M21.75 40.7812C19.9861 38.4279 19.0326 35.5661 19.0326 32.625C19.0326 29.6839 19.9861 26.8221 21.75 24.4688V17.2188H16.3125V40.7812H21.75Z" fill="#93C257"/>
<path d="M25.839 44.4062H5.4375V40.7812H21.75C22.8553 42.2526 24.2464 43.4856 25.8399 44.4062H25.839Z" fill="#4898C5"/>
<path d="M7.25 40.7812V24.4688H12.6875V40.7812" fill="#F39B88"/>
<path d="M9.96875 36.25V24.4688H7.25V38.0625H8.15625C8.63695 38.0625 9.09797 37.8715 9.43788 37.5316C9.77779 37.1917 9.96875 36.7307 9.96875 36.25Z" fill="#F39B88"/>
<path d="M6.34375 6.34375H13.5938V8.15625H6.34375V6.34375Z" fill="#A7D7DE"/>
<path d="M4.53125 9.96875H13.5938V11.7812H4.53125V9.96875Z" fill="#A7D7DE"/>
<path d="M4.53125 13.5938H13.5938V15.4062H4.53125V13.5938Z" fill="#A7D7DE"/>
<path d="M19.0312 51.6562H31.7188V53.4688H19.0312V51.6562Z" fill="#A7D7DE"/>
<path d="M33.5312 51.6562H35.3438V53.4688H33.5312V51.6562Z" fill="#A7D7DE"/>
<path d="M19.0312 48.0312H31.7188V49.8438H19.0312V48.0312Z" fill="#A7D7DE"/>
<path d="M33.5312 48.0312H35.3438V49.8438H33.5312V48.0312Z" fill="#A7D7DE"/>
<path d="M29 38.0625V23.3423C28.0151 23.7257 27.0974 24.2631 26.2812 24.9346V38.9688H28.0938C28.3341 38.9688 28.5646 38.8733 28.7346 38.7033C28.9045 38.5334 29 38.3029 29 38.0625Z" fill="#6BB4DD"/>
<path d="M29 11.7812H26.2812V20.5991C27.146 20.1441 28.0576 19.7843 29 19.5261V11.7812Z" fill="#6BB4DD"/>
<path d="M16.3125 17.2188V38.0625H17.2187C17.6995 38.0625 18.1605 37.8715 18.5004 37.5316C18.8403 37.1917 19.0312 36.7307 19.0312 36.25V17.2188H16.3125Z" fill="#93C257"/>
<path d="M55.7027 48.9837L50.4845 43.7655C50.3145 43.5956 50.0841 43.5002 49.8438 43.5002C49.6035 43.5002 49.373 43.5956 49.203 43.7655L48.9375 44.0311L45.0189 40.1124C46.0662 38.3927 46.7421 36.4729 47.0032 34.4764C47.2643 32.4799 47.1048 30.4509 46.535 28.5197C45.9652 26.5885 44.9977 24.7979 43.6947 23.2629C42.3916 21.7279 40.7818 20.4825 38.9688 19.6067V1.8125C38.9688 1.57215 38.8733 1.34164 38.7033 1.17168C38.5334 1.00173 38.3029 0.90625 38.0625 0.90625H1.8125C1.57215 0.90625 1.34164 1.00173 1.17168 1.17168C1.00173 1.34164 0.90625 1.57215 0.90625 1.8125V56.1875C0.90625 56.4279 1.00173 56.6584 1.17168 56.8283C1.34164 56.9983 1.57215 57.0938 1.8125 57.0938H38.0625C38.3029 57.0938 38.5334 56.9983 38.7033 56.8283C38.8733 56.6584 38.9688 56.4279 38.9688 56.1875V45.6433C39.3603 45.4524 39.7415 45.2442 40.1124 45.0189L44.0311 48.9375L43.7655 49.203C43.5956 49.373 43.5002 49.6035 43.5002 49.8438C43.5002 50.0841 43.5956 50.3145 43.7655 50.4845L48.9837 55.7027C49.8747 56.5937 51.0831 57.0942 52.3432 57.0942C53.6032 57.0942 54.8117 56.5937 55.7027 55.7027C56.5937 54.8117 57.0942 53.6032 57.0942 52.3432C57.0942 51.0831 56.5937 49.8747 55.7027 48.9837ZM45.3125 32.625C45.3165 34.8534 44.7325 37.0434 43.6194 38.9739C42.5062 40.9044 40.9035 42.507 38.9729 43.6199C37.0423 44.7329 34.8523 45.3167 32.6239 45.3125C30.3955 45.3083 28.2076 44.7163 26.2813 43.5961V43.5H26.1236C24.2202 42.3616 22.6486 40.7438 21.5659 38.8082C20.4831 36.8726 19.9269 34.6869 19.9529 32.4692C19.9788 30.2514 20.586 28.0793 21.7138 26.1696C22.8417 24.2599 24.4506 22.6794 26.3802 21.5859C28.3097 20.4923 30.4923 19.924 32.7102 19.9376C34.928 19.9513 37.1035 20.5464 39.0194 21.6635C40.9354 22.7807 42.5248 24.3809 43.6291 26.3043C44.7333 28.2277 45.3138 30.4071 45.3125 32.625ZM11.7813 39.875H8.15625V25.375H11.7813V39.875ZM21.3241 41.6875C21.8517 42.3407 22.4348 42.9472 23.0668 43.5H6.34375V41.6875H21.3241ZM20.8438 24.2041C19.2147 26.4628 18.2761 29.1457 18.1418 31.9274C18.0075 34.709 18.6832 37.4698 20.087 39.875H17.2188V18.125H20.8438V24.2041ZM30.8125 18.251C29.5682 18.4051 28.3495 18.7217 27.1875 19.1926V12.6875H30.8125V18.251ZM37.1563 55.2813H2.71875V2.71875H37.1563V18.86C35.6948 18.3746 34.165 18.1265 32.625 18.125V11.7813C32.625 11.5409 32.5295 11.3104 32.3596 11.1404C32.1896 10.9705 31.9591 10.875 31.7188 10.875H26.2813C26.0409 10.875 25.8104 10.9705 25.6404 11.1404C25.4705 11.3104 25.375 11.5409 25.375 11.7813V20.087C24.3925 20.6571 23.48 21.3403 22.6563 22.1225V17.2188C22.6563 16.9784 22.5608 16.7479 22.3908 16.5779C22.2209 16.408 21.9904 16.3125 21.75 16.3125H16.3125C16.0721 16.3125 15.8416 16.408 15.6717 16.5779C15.5017 16.7479 15.4063 16.9784 15.4063 17.2188V39.875H13.5938V24.4688C13.5938 24.2284 13.4983 23.9979 13.3283 23.8279C13.1584 23.658 12.9279 23.5625 12.6875 23.5625H7.25C7.00965 23.5625 6.77914 23.658 6.60919 23.8279C6.43923 23.9979 6.34375 24.2284 6.34375 24.4688V39.875H5.4375C5.19715 39.875 4.96664 39.9705 4.79669 40.1404C4.62673 40.3104 4.53125 40.5409 4.53125 40.7813V44.4063C4.53125 44.6466 4.62673 44.8771 4.79669 45.0471C4.96664 45.217 5.19715 45.3125 5.4375 45.3125H25.6206C27.364 46.2811 29.2895 46.8771 31.2753 47.0626C33.261 47.2481 35.2637 47.019 37.1563 46.39V55.2813ZM41.6277 43.9713C42.4947 43.2809 43.2809 42.4947 43.9713 41.6277L47.6561 45.3125L45.3125 47.6561L41.6277 43.9713ZM52.3432 55.2813C51.9572 55.2824 51.5747 55.207 51.2181 55.0593C50.8614 54.9117 50.5375 54.6948 50.2652 54.4212L45.6877 49.8438L49.8438 45.6877L54.4212 50.2652C54.8319 50.6762 55.1115 51.1998 55.2247 51.7697C55.3379 52.3396 55.2796 52.9303 55.0572 53.4671C54.8348 54.0039 54.4583 54.4628 53.9753 54.7857C53.4922 55.1086 52.9242 55.281 52.3432 55.2813Z" fill="#095783"/>
<path d="M21.75 32.625C21.75 34.7759 22.3878 36.8784 23.5828 38.6668C24.7777 40.4552 26.4762 41.8491 28.4633 42.6722C30.4505 43.4953 32.6371 43.7106 34.7466 43.291C36.8561 42.8714 38.7939 41.8357 40.3148 40.3148C41.8357 38.7939 42.8714 36.8561 43.291 34.7466C43.7106 32.6371 43.4953 30.4505 42.6722 28.4633C41.8491 26.4762 40.4552 24.7777 38.6668 23.5828C36.8784 22.3878 34.7759 21.75 32.625 21.75C29.7417 21.7531 26.9774 22.8999 24.9387 24.9387C22.8999 26.9774 21.7531 29.7417 21.75 32.625V32.625ZM27.1875 25.3922C28.2577 24.5791 29.4963 24.0158 30.8125 23.7438V41.5062C29.4964 41.2347 28.2578 40.6721 27.1875 39.8596V25.3922ZM23.5625 32.625C23.5631 30.6715 24.1993 28.7712 25.375 27.2111V38.0389C24.1993 36.4788 23.5631 34.5785 23.5625 32.625V32.625ZM32.625 23.5625C34.2173 23.5631 35.7809 23.9862 37.1562 24.7887V40.4613C35.7809 41.2638 34.2173 41.6869 32.625 41.6875V23.5625ZM41.6875 32.625C41.6878 33.8287 41.4474 35.0204 40.9805 36.1299C40.5136 37.2394 39.8296 38.2443 38.9687 39.0857V26.1643C39.8296 27.0057 40.5136 28.0106 40.9805 29.1201C41.4474 30.2296 41.6878 31.4213 41.6875 32.625V32.625Z" fill="#095783"/>
<path d="M6.34375 6.34375H13.5938V8.15625H6.34375V6.34375Z" fill="#095783"/>
<path d="M4.53125 9.96875H13.5938V11.7812H4.53125V9.96875Z" fill="#095783"/>
<path d="M4.53125 13.5938H13.5938V15.4062H4.53125V13.5938Z" fill="#095783"/>
<path d="M19.0312 51.6562H31.7188V53.4688H19.0312V51.6562Z" fill="#095783"/>
<path d="M33.5312 51.6562H35.3438V53.4688H33.5312V51.6562Z" fill="#095783"/>
<path d="M19.0312 48.0312H31.7188V49.8438H19.0312V48.0312Z" fill="#095783"/>
<path d="M33.5312 48.0312H35.3438V49.8438H33.5312V48.0312Z" fill="#095783"/>
</svg>
