<svg width="54" height="54" viewBox="0 0 54 54" fill="none" xmlns="http://www.w3.org/2000/svg">
<mask id="path-1-inside-1" fill="white">
<path d="M52.8346 26.1914C52.697 25.6363 52.4255 25.1234 52.0438 24.6975C51.6621 24.2716 51.1819 23.9458 50.6451 23.7484C50.1083 23.5511 49.5314 23.4883 48.9647 23.5655C48.3981 23.6427 47.859 23.8576 47.3946 24.1914C46.7041 24.7204 45.8641 25.0179 44.9946 25.0414H42.9246C42.551 21.9781 41.3049 19.0866 39.3346 16.7114L39.5346 16.5114C40.63 15.4808 41.8866 14.6363 43.2546 14.0114C43.4913 13.8935 43.7074 13.7382 43.8946 13.5514C44.1662 13.2778 44.3712 12.9453 44.4936 12.5796C44.6159 12.214 44.6524 11.8251 44.6002 11.4431C44.548 11.061 44.4084 10.6962 44.1924 10.3768C43.9764 10.0574 43.6897 9.7921 43.3546 9.60143C42.9851 9.39381 42.5684 9.28475 42.1446 9.28475C41.7208 9.28475 41.3041 9.39381 40.9346 9.60143C40.513 9.83293 40.1661 10.1798 39.9346 10.6014C39.269 12.0127 38.3923 13.3143 37.3346 14.4614L37.2746 14.5214C34.8845 12.5765 31.9865 11.3582 28.9246 11.0114V9.01143C28.9471 8.11557 29.2476 7.24889 29.7846 6.53143C30.1994 5.94686 30.4229 5.24819 30.4246 4.53143C30.4296 3.97913 30.3037 3.4335 30.0574 2.93914C29.8111 2.44479 29.4513 2.01574 29.0074 1.68708C28.5635 1.35843 28.0481 1.13949 27.5034 1.04817C26.9587 0.956851 26.4001 0.995744 25.8733 1.16167C25.3465 1.32759 24.8664 1.61584 24.4724 2.00284C24.0783 2.38984 23.7814 2.8646 23.606 3.38832C23.4305 3.91204 23.3815 4.46984 23.463 5.01613C23.5444 5.56241 23.754 6.08166 24.0746 6.53143C24.6036 7.22195 24.9011 8.06188 24.9246 8.93143V10.9314C21.8648 11.3069 18.977 12.5529 16.6046 14.5214L16.3946 14.3114C15.3818 13.2381 14.5479 12.0091 13.9246 10.6714C13.8067 10.4348 13.6513 10.2187 13.4646 10.0314C13.191 9.75978 12.8584 9.55481 12.4928 9.43245C12.1272 9.31008 11.7382 9.27359 11.3562 9.32581C10.9742 9.37804 10.6093 9.51757 10.29 9.73359C9.97059 9.94961 9.70527 10.2363 9.51459 10.5714C9.30697 10.9409 9.19792 11.3576 9.19792 11.7814C9.19792 12.2053 9.30697 12.6219 9.51459 12.9914C9.74609 13.413 10.093 13.7599 10.5146 13.9914C11.9259 14.657 13.2275 15.5337 14.3746 16.5914L14.4446 16.6614C12.496 19.0504 11.2743 21.9485 10.9246 25.0114H8.92459C8.05504 24.9879 7.21512 24.6904 6.52459 24.1614C6.00085 23.79 5.38504 23.5698 4.74454 23.525C4.10405 23.4801 3.46355 23.6123 2.89315 23.9071C2.32275 24.2019 1.84443 24.6478 1.51052 25.1963C1.17662 25.7447 1 26.3744 1 27.0164C1 27.6585 1.17662 28.2882 1.51052 28.8366C1.84443 29.385 2.32275 29.831 2.89315 30.1258C3.46355 30.4205 4.10405 30.5527 4.74454 30.5079C5.38504 30.463 6.00085 30.2428 6.52459 29.8714C7.21986 29.3499 8.05629 29.0501 8.92459 29.0114H10.9246C11.2982 32.0748 12.5443 34.9662 14.5146 37.3414L14.4546 37.4014C13.296 38.4661 11.9806 39.3463 10.5546 40.0114C10.133 40.2429 9.78609 40.5898 9.55459 41.0114C9.34697 41.3809 9.23792 41.7976 9.23792 42.2214C9.23792 42.6453 9.34697 43.0619 9.55459 43.4314C9.74527 43.7666 10.0106 44.0532 10.33 44.2693C10.6493 44.4853 11.0142 44.6248 11.3962 44.677C11.7782 44.7293 12.1672 44.6928 12.5328 44.5704C12.8984 44.448 13.231 44.2431 13.5046 43.9714C13.6915 43.7843 13.8468 43.5682 13.9646 43.3314C14.575 41.9817 15.3989 40.7391 16.4046 39.6514L16.6046 39.4514C18.9805 41.4091 21.8679 42.6446 24.9246 43.0114V45.0114C24.9011 45.881 24.6036 46.7209 24.0746 47.4114C23.7032 47.9352 23.483 48.551 23.4381 49.1915C23.3933 49.832 23.5255 50.4725 23.8202 51.0429C24.115 51.6133 24.561 52.0916 25.1094 52.4255C25.6578 52.7594 26.2875 52.936 26.9296 52.936C27.5717 52.936 28.2014 52.7594 28.7498 52.4255C29.2982 52.0916 29.7442 51.6133 30.0389 51.0429C30.3337 50.4725 30.4659 49.832 30.421 49.1915C30.3762 48.551 30.156 47.9352 29.7846 47.4114C29.263 46.7162 28.9633 45.8797 28.9246 45.0114V43.0114C31.989 42.635 34.8805 41.3853 37.2546 39.4114L37.3146 39.4714C38.3791 40.6302 39.2593 41.9455 39.9246 43.3714C40.1561 43.793 40.503 44.1399 40.9246 44.3714C41.2941 44.5791 41.7108 44.6881 42.1346 44.6881C42.5584 44.6881 42.9751 44.5791 43.3446 44.3714C43.6791 44.1837 43.9662 43.9219 44.1838 43.6059C44.4014 43.29 44.5436 42.9283 44.5996 42.5488C44.6556 42.1693 44.6239 41.7821 44.5069 41.4167C44.3899 41.0514 44.1907 40.7178 43.9246 40.4414C43.7374 40.2547 43.5213 40.0994 43.2846 39.9814C41.9348 39.371 40.6922 38.5471 39.6046 37.5414L39.4046 37.3414C41.3497 34.9581 42.5712 32.0674 42.9246 29.0114H44.9246C45.8204 29.0339 46.6871 29.3345 47.4046 29.8714C47.9892 30.2862 48.6878 30.5098 49.4046 30.5114C49.9357 30.5137 50.4603 30.3954 50.939 30.1654C51.4177 29.9355 51.838 29.5999 52.1682 29.184C52.4985 28.7681 52.73 28.2827 52.8454 27.7643C52.9609 27.246 52.9571 26.7082 52.8346 26.1914V26.1914Z"/>
</mask>
<path d="M52.8346 26.1914C52.697 25.6363 52.4255 25.1234 52.0438 24.6975C51.6621 24.2716 51.1819 23.9458 50.6451 23.7484C50.1083 23.5511 49.5314 23.4883 48.9647 23.5655C48.3981 23.6427 47.859 23.8576 47.3946 24.1914C46.7041 24.7204 45.8641 25.0179 44.9946 25.0414H42.9246C42.551 21.9781 41.3049 19.0866 39.3346 16.7114L39.5346 16.5114C40.63 15.4808 41.8866 14.6363 43.2546 14.0114C43.4913 13.8935 43.7074 13.7382 43.8946 13.5514C44.1662 13.2778 44.3712 12.9453 44.4936 12.5796C44.6159 12.214 44.6524 11.8251 44.6002 11.4431C44.548 11.061 44.4084 10.6962 44.1924 10.3768C43.9764 10.0574 43.6897 9.7921 43.3546 9.60143C42.9851 9.39381 42.5684 9.28475 42.1446 9.28475C41.7208 9.28475 41.3041 9.39381 40.9346 9.60143C40.513 9.83293 40.1661 10.1798 39.9346 10.6014C39.269 12.0127 38.3923 13.3143 37.3346 14.4614L37.2746 14.5214C34.8845 12.5765 31.9865 11.3582 28.9246 11.0114V9.01143C28.9471 8.11557 29.2476 7.24889 29.7846 6.53143C30.1994 5.94686 30.4229 5.24819 30.4246 4.53143C30.4296 3.97913 30.3037 3.4335 30.0574 2.93914C29.8111 2.44479 29.4513 2.01574 29.0074 1.68708C28.5635 1.35843 28.0481 1.13949 27.5034 1.04817C26.9587 0.956851 26.4001 0.995744 25.8733 1.16167C25.3465 1.32759 24.8664 1.61584 24.4724 2.00284C24.0783 2.38984 23.7814 2.8646 23.606 3.38832C23.4305 3.91204 23.3815 4.46984 23.463 5.01613C23.5444 5.56241 23.754 6.08166 24.0746 6.53143C24.6036 7.22195 24.9011 8.06188 24.9246 8.93143V10.9314C21.8648 11.3069 18.977 12.5529 16.6046 14.5214L16.3946 14.3114C15.3818 13.2381 14.5479 12.0091 13.9246 10.6714C13.8067 10.4348 13.6513 10.2187 13.4646 10.0314C13.191 9.75978 12.8584 9.55481 12.4928 9.43245C12.1272 9.31008 11.7382 9.27359 11.3562 9.32581C10.9742 9.37804 10.6093 9.51757 10.29 9.73359C9.97059 9.94961 9.70527 10.2363 9.51459 10.5714C9.30697 10.9409 9.19792 11.3576 9.19792 11.7814C9.19792 12.2053 9.30697 12.6219 9.51459 12.9914C9.74609 13.413 10.093 13.7599 10.5146 13.9914C11.9259 14.657 13.2275 15.5337 14.3746 16.5914L14.4446 16.6614C12.496 19.0504 11.2743 21.9485 10.9246 25.0114H8.92459C8.05504 24.9879 7.21512 24.6904 6.52459 24.1614C6.00085 23.79 5.38504 23.5698 4.74454 23.525C4.10405 23.4801 3.46355 23.6123 2.89315 23.9071C2.32275 24.2019 1.84443 24.6478 1.51052 25.1963C1.17662 25.7447 1 26.3744 1 27.0164C1 27.6585 1.17662 28.2882 1.51052 28.8366C1.84443 29.385 2.32275 29.831 2.89315 30.1258C3.46355 30.4205 4.10405 30.5527 4.74454 30.5079C5.38504 30.463 6.00085 30.2428 6.52459 29.8714C7.21986 29.3499 8.05629 29.0501 8.92459 29.0114H10.9246C11.2982 32.0748 12.5443 34.9662 14.5146 37.3414L14.4546 37.4014C13.296 38.4661 11.9806 39.3463 10.5546 40.0114C10.133 40.2429 9.78609 40.5898 9.55459 41.0114C9.34697 41.3809 9.23792 41.7976 9.23792 42.2214C9.23792 42.6453 9.34697 43.0619 9.55459 43.4314C9.74527 43.7666 10.0106 44.0532 10.33 44.2693C10.6493 44.4853 11.0142 44.6248 11.3962 44.677C11.7782 44.7293 12.1672 44.6928 12.5328 44.5704C12.8984 44.448 13.231 44.2431 13.5046 43.9714C13.6915 43.7843 13.8468 43.5682 13.9646 43.3314C14.575 41.9817 15.3989 40.7391 16.4046 39.6514L16.6046 39.4514C18.9805 41.4091 21.8679 42.6446 24.9246 43.0114V45.0114C24.9011 45.881 24.6036 46.7209 24.0746 47.4114C23.7032 47.9352 23.483 48.551 23.4381 49.1915C23.3933 49.832 23.5255 50.4725 23.8202 51.0429C24.115 51.6133 24.561 52.0916 25.1094 52.4255C25.6578 52.7594 26.2875 52.936 26.9296 52.936C27.5717 52.936 28.2014 52.7594 28.7498 52.4255C29.2982 52.0916 29.7442 51.6133 30.0389 51.0429C30.3337 50.4725 30.4659 49.832 30.421 49.1915C30.3762 48.551 30.156 47.9352 29.7846 47.4114C29.263 46.7162 28.9633 45.8797 28.9246 45.0114V43.0114C31.989 42.635 34.8805 41.3853 37.2546 39.4114L37.3146 39.4714C38.3791 40.6302 39.2593 41.9455 39.9246 43.3714C40.1561 43.793 40.503 44.1399 40.9246 44.3714C41.2941 44.5791 41.7108 44.6881 42.1346 44.6881C42.5584 44.6881 42.9751 44.5791 43.3446 44.3714C43.6791 44.1837 43.9662 43.9219 44.1838 43.6059C44.4014 43.29 44.5436 42.9283 44.5996 42.5488C44.6556 42.1693 44.6239 41.7821 44.5069 41.4167C44.3899 41.0514 44.1907 40.7178 43.9246 40.4414C43.7374 40.2547 43.5213 40.0994 43.2846 39.9814C41.9348 39.371 40.6922 38.5471 39.6046 37.5414L39.4046 37.3414C41.3497 34.9581 42.5712 32.0674 42.9246 29.0114H44.9246C45.8204 29.0339 46.6871 29.3345 47.4046 29.8714C47.9892 30.2862 48.6878 30.5098 49.4046 30.5114C49.9357 30.5137 50.4603 30.3954 50.939 30.1654C51.4177 29.9355 51.838 29.5999 52.1682 29.184C52.4985 28.7681 52.73 28.2827 52.8454 27.7643C52.9609 27.246 52.9571 26.7082 52.8346 26.1914V26.1914Z" fill="#B5D988" stroke="#095783" stroke-width="2" mask="url(#path-1-inside-1)"/>
<path d="M38.7145 27.0114C38.7145 33.5229 33.436 38.8014 26.9245 38.8014C20.4131 38.8014 15.1345 33.5229 15.1345 27.0114C15.1345 20.5 20.4131 15.2214 26.9245 15.2214C33.436 15.2214 38.7145 20.5 38.7145 27.0114Z" fill="#ADDCF6" stroke="#095783"/>
<path d="M28.1945 19.5814C28.1945 20.2828 27.6259 20.8514 26.9245 20.8514C26.2231 20.8514 25.6545 20.2828 25.6545 19.5814C25.6545 18.88 26.2231 18.3114 26.9245 18.3114C27.6259 18.3114 28.1945 18.88 28.1945 19.5814Z" fill="#ADDCF6" stroke="#095783"/>
<path d="M34.9847 28.7814C34.9847 29.7203 34.2236 30.4814 33.2847 30.4814C32.3458 30.4814 31.5847 29.7203 31.5847 28.7814C31.5847 27.8425 32.3458 27.0814 33.2847 27.0814C34.2236 27.0814 34.9847 27.8425 34.9847 28.7814Z" fill="#ADDCF6" stroke="#095783"/>
<path d="M19.1408 13.4262C21.5316 23.829 26.9676 33.2842 34.7546 40.5844C32.9425 41.6138 30.9405 42.2711 28.8662 42.5149L28.4246 42.5668V43.0115V45.0115V45.0226L28.4251 45.0337C28.4682 46.0002 28.8011 46.9312 29.3804 47.7058C29.6965 48.1536 29.884 48.6796 29.9223 49.2265C29.9607 49.7755 29.8474 50.3245 29.5947 50.8134C29.3421 51.3023 28.9598 51.7123 28.4897 51.9985C28.0197 52.2847 27.4799 52.4361 26.9296 52.4361C26.3793 52.4361 25.8395 52.2847 25.3694 51.9985C24.8994 51.7123 24.5171 51.3023 24.2644 50.8134C24.0118 50.3245 23.8985 49.7755 23.9369 49.2265C23.9752 48.6803 24.1621 48.1551 24.4775 47.7077C25.0668 46.9351 25.3981 45.9965 25.4244 45.025L25.4246 45.025V45.0115V43.0115V42.5679L24.9842 42.515C22.0224 42.1596 19.2247 40.9625 16.9226 39.0656L16.5721 38.7768L16.251 39.0979L16.051 39.2979L16.0441 39.3048L16.0375 39.312C14.9976 40.4367 14.1452 41.7212 13.5131 43.1164C13.42 43.3016 13.2979 43.4707 13.1514 43.6175C12.9325 43.8346 12.6665 43.9984 12.3741 44.0963C12.0813 44.1943 11.7699 44.2235 11.4639 44.1817C11.158 44.1399 10.8659 44.0281 10.6101 43.8552C10.3547 43.6824 10.1425 43.4532 9.98981 43.1853C9.82466 42.8909 9.73792 42.559 9.73792 42.2215C9.73792 41.8834 9.82489 41.5511 9.99049 41.2564L9.99051 41.2564L9.99287 41.2521C10.1761 40.9183 10.4496 40.6429 10.7818 40.4572C12.2481 39.7713 13.6008 38.865 14.7929 37.7697L14.8007 37.7625L14.8081 37.755L14.8681 37.695L15.1903 37.3729L14.8994 37.0223C12.9903 34.7208 11.7829 31.9192 11.4209 28.951L11.3673 28.5115H10.9246H8.92459H8.91345L8.90233 28.512C7.93591 28.5551 7.00488 28.8879 6.23027 29.4672C5.78245 29.7834 5.25653 29.9708 4.70961 30.0092C4.16061 30.0476 3.61162 29.9343 3.1227 29.6816C2.63379 29.429 2.22379 29.0467 1.93759 28.5766C1.65139 28.1066 1.5 27.5668 1.5 27.0165C1.5 26.4661 1.65139 25.9264 1.93759 25.4563C2.22379 24.9863 2.63379 24.604 3.1227 24.3513C3.61162 24.0987 4.16061 23.9854 4.70961 24.0238C5.25574 24.0621 5.78094 24.249 6.22833 24.5644C7.00097 25.1537 7.93953 25.485 8.91108 25.5113L8.91107 25.5115H8.92459H10.9246H11.3708L11.4214 25.0682C11.7602 22.1004 12.944 19.2922 14.832 16.9775L15.1176 16.6274L14.7981 16.3079L14.7281 16.2379L14.721 16.2308L14.7135 16.2239C13.533 15.1355 12.1942 14.2326 10.7426 13.5462C10.41 13.3605 10.1363 13.0849 9.95287 12.7508L9.95289 12.7508L9.95049 12.7465C9.78489 12.4518 9.69792 12.1195 9.69792 11.7815C9.69792 11.4439 9.78467 11.112 9.94983 10.8176C10.1025 10.5497 10.3147 10.3205 10.5701 10.1478C10.8258 9.97482 11.118 9.86308 11.4239 9.82126C11.7299 9.77944 12.0413 9.80866 12.3341 9.90665C12.6265 10.0045 12.8925 10.1683 13.1114 10.3854C13.2579 10.5325 13.3802 10.7019 13.4735 10.8874C14.1142 12.2887 14.9772 13.5771 16.0293 14.7029L16.0351 14.7091L16.041 14.715L16.251 14.925L16.5727 15.2467L16.9232 14.9568C17.617 14.3832 18.3591 13.8711 19.1408 13.4262Z" fill="#F39B88" stroke="#095783"/>
<path d="M14.6345 27.0115C14.6337 29.1358 15.1835 31.224 16.2303 33.0725C17.2771 34.9209 18.7852 36.4665 20.6074 37.5584C22.4295 38.6503 24.5036 39.2512 26.6273 39.3026C28.751 39.354 30.8517 38.854 32.7245 37.8515C27.0367 31.8045 22.8507 24.5047 20.5045 16.5415C18.7113 17.6378 17.2297 19.1764 16.2018 21.0097C15.174 22.8431 14.6343 24.9097 14.6345 27.0115Z" fill="#6BB4DD"/>
<path d="M27.5145 28.7614C27.5145 30.8711 25.8042 32.5814 23.6945 32.5814C21.5848 32.5814 19.8745 30.8711 19.8745 28.7614C19.8745 26.6517 21.5848 24.9414 23.6945 24.9414C25.8042 24.9414 27.5145 26.6517 27.5145 28.7614Z" fill="#B5D988" stroke="#095783"/>
<path d="M23.5545 24.4614C22.813 24.4871 22.0907 24.7038 21.4575 25.0905C20.8243 25.4772 20.3017 26.0207 19.9401 26.6686C19.5786 27.3165 19.3904 28.0467 19.3938 28.7886C19.3973 29.5305 19.5921 30.259 19.9596 30.9035C20.3271 31.5481 20.8547 32.0868 21.4914 32.4677C22.1281 32.8485 22.8524 33.0585 23.594 33.0774C24.3357 33.0963 25.0697 32.9235 25.725 32.5755C26.3803 32.2276 26.9346 31.7164 27.3345 31.0914C25.9156 28.9759 24.6523 26.76 23.5545 24.4614V24.4614Z" fill="#E4F8CB"/>
<path d="M23.6945 33.0814C26.0804 33.0814 28.0145 31.1473 28.0145 28.7614C28.0145 26.3755 26.0804 24.4414 23.6945 24.4414C21.3086 24.4414 19.3745 26.3755 19.3745 28.7614C19.3745 31.1473 21.3086 33.0814 23.6945 33.0814Z" stroke="#095783" stroke-width="2" stroke-linecap="round" stroke-linejoin="round"/>
<path d="M52.8346 26.1914C52.697 25.6363 52.4255 25.1234 52.0438 24.6975C51.6621 24.2716 51.1819 23.9458 50.6451 23.7484C50.1083 23.5511 49.5314 23.4883 48.9647 23.5655C48.3981 23.6427 47.859 23.8576 47.3946 24.1914C46.7041 24.7204 45.8641 25.0179 44.9946 25.0414H42.9246C42.551 21.9781 41.3049 19.0866 39.3346 16.7114L39.5346 16.5114C40.63 15.4808 41.8866 14.6363 43.2546 14.0114C43.4913 13.8935 43.7074 13.7382 43.8946 13.5514C44.1662 13.2778 44.3712 12.9453 44.4936 12.5796C44.6159 12.214 44.6524 11.8251 44.6002 11.4431C44.548 11.061 44.4084 10.6962 44.1924 10.3768C43.9764 10.0574 43.6897 9.7921 43.3546 9.60143C42.9851 9.39381 42.5684 9.28475 42.1446 9.28475C41.7208 9.28475 41.3041 9.39381 40.9346 9.60143C40.513 9.83293 40.1661 10.1798 39.9346 10.6014C39.269 12.0127 38.3923 13.3143 37.3346 14.4614L37.2746 14.5214C34.8845 12.5765 31.9865 11.3582 28.9246 11.0114V9.01143C28.9471 8.11557 29.2476 7.24889 29.7846 6.53143C30.1994 5.94686 30.4229 5.24819 30.4246 4.53143C30.4296 3.97913 30.3037 3.4335 30.0574 2.93914C29.8111 2.44479 29.4513 2.01574 29.0074 1.68708C28.5635 1.35843 28.0481 1.13949 27.5034 1.04817C26.9587 0.956851 26.4001 0.995744 25.8733 1.16167C25.3465 1.32759 24.8664 1.61584 24.4724 2.00284C24.0783 2.38984 23.7814 2.8646 23.606 3.38832C23.4305 3.91204 23.3815 4.46984 23.463 5.01613C23.5444 5.56241 23.754 6.08166 24.0746 6.53143C24.6036 7.22195 24.9011 8.06188 24.9246 8.93143V10.9314C21.8648 11.3069 18.977 12.5529 16.6046 14.5214L16.3946 14.3114C15.3818 13.2381 14.5479 12.0091 13.9246 10.6714C13.8067 10.4348 13.6513 10.2187 13.4646 10.0314C13.191 9.75978 12.8584 9.55481 12.4928 9.43245C12.1272 9.31008 11.7382 9.27359 11.3562 9.32581C10.9742 9.37804 10.6093 9.51757 10.29 9.73359C9.97059 9.94961 9.70527 10.2363 9.51459 10.5714C9.30697 10.9409 9.19792 11.3576 9.19792 11.7814C9.19792 12.2053 9.30697 12.6219 9.51459 12.9914C9.74609 13.413 10.093 13.7599 10.5146 13.9914C11.9259 14.657 13.2275 15.5337 14.3746 16.5914L14.4446 16.6614C12.496 19.0504 11.2743 21.9485 10.9246 25.0114H8.92459C8.05504 24.9879 7.21512 24.6904 6.52459 24.1614C6.00085 23.79 5.38504 23.5698 4.74454 23.525C4.10405 23.4801 3.46355 23.6123 2.89315 23.9071C2.32275 24.2019 1.84443 24.6478 1.51052 25.1963C1.17662 25.7447 1 26.3744 1 27.0164C1 27.6585 1.17662 28.2882 1.51052 28.8366C1.84443 29.385 2.32275 29.831 2.89315 30.1258C3.46355 30.4205 4.10405 30.5527 4.74454 30.5079C5.38504 30.463 6.00085 30.2428 6.52459 29.8714C7.21986 29.3499 8.05629 29.0501 8.92459 29.0114H10.9246C11.2982 32.0748 12.5443 34.9662 14.5146 37.3414L14.4546 37.4014C13.296 38.4661 11.9806 39.3463 10.5546 40.0114C10.133 40.2429 9.78609 40.5898 9.55459 41.0114C9.34697 41.3809 9.23792 41.7976 9.23792 42.2214C9.23792 42.6453 9.34697 43.0619 9.55459 43.4314C9.74527 43.7666 10.0106 44.0532 10.33 44.2693C10.6493 44.4853 11.0142 44.6248 11.3962 44.677C11.7782 44.7293 12.1672 44.6928 12.5328 44.5704C12.8984 44.448 13.231 44.2431 13.5046 43.9714C13.6913 43.7842 13.8467 43.5681 13.9646 43.3314C14.575 41.9817 15.3989 40.7391 16.4046 39.6514L16.6046 39.4514C18.9805 41.4091 21.8679 42.6446 24.9246 43.0114V45.0114C24.9011 45.881 24.6036 46.7209 24.0746 47.4114C23.7032 47.9352 23.483 48.551 23.4381 49.1915C23.3933 49.832 23.5255 50.4725 23.8202 51.0429C24.115 51.6133 24.561 52.0916 25.1094 52.4255C25.6578 52.7594 26.2875 52.936 26.9296 52.936C27.5717 52.936 28.2014 52.7594 28.7498 52.4255C29.2982 52.0916 29.7442 51.6133 30.0389 51.0429C30.3337 50.4725 30.4659 49.832 30.421 49.1915C30.3762 48.551 30.156 47.9352 29.7846 47.4114C29.263 46.7162 28.9633 45.8797 28.9246 45.0114V43.0114C31.989 42.635 34.8805 41.3853 37.2546 39.4114L37.3146 39.4714C38.3791 40.6302 39.2593 41.9455 39.9246 43.3714C40.1561 43.793 40.503 44.1399 40.9246 44.3714C41.2941 44.5791 41.7108 44.6881 42.1346 44.6881C42.5584 44.6881 42.9751 44.5791 43.3446 44.3714C43.6791 44.1837 43.9662 43.9219 44.1838 43.6059C44.4014 43.29 44.5436 42.9283 44.5996 42.5488C44.6556 42.1693 44.6239 41.7821 44.5069 41.4167C44.3899 41.0514 44.1907 40.7178 43.9246 40.4414C43.7374 40.2547 43.5213 40.0994 43.2846 39.9814C41.9348 39.371 40.6922 38.5471 39.6046 37.5414L39.4046 37.3414C41.3497 34.9581 42.5712 32.0674 42.9246 29.0114H44.9246C45.8204 29.0339 46.6871 29.3345 47.4046 29.8714C47.9892 30.2862 48.6878 30.5098 49.4046 30.5114C49.9357 30.5137 50.4603 30.3954 50.939 30.1654C51.4177 29.9355 51.838 29.5999 52.1682 29.184C52.4985 28.7681 52.73 28.2827 52.8454 27.7643C52.9609 27.246 52.9571 26.7082 52.8346 26.1914V26.1914Z" stroke="#095783" stroke-width="2" stroke-linecap="round" stroke-linejoin="round"/>
<path d="M37.0346 20.0114C38.6025 22.272 39.3673 24.993 39.2067 27.7395C39.0461 30.4859 37.9694 33.0992 36.1487 35.1617C34.3279 37.2241 31.8683 38.6166 29.163 39.1166C26.4577 39.6166 23.6628 39.1952 21.2252 37.9197C18.7876 36.6442 16.848 34.5884 15.7164 32.0807C14.5848 29.5731 14.3265 26.7585 14.9829 24.0868C15.6393 21.4151 17.1724 19.0406 19.3372 17.3429C21.502 15.6451 24.1735 14.7221 26.9246 14.7214" stroke="#095783" stroke-width="2" stroke-linecap="round" stroke-linejoin="round"/>
<path d="M26.9245 21.3514C27.9021 21.3514 28.6945 20.5589 28.6945 19.5814C28.6945 18.6039 27.9021 17.8114 26.9245 17.8114C25.947 17.8114 25.1545 18.6039 25.1545 19.5814C25.1545 20.5589 25.947 21.3514 26.9245 21.3514Z" stroke="#095783" stroke-width="2" stroke-linecap="round" stroke-linejoin="round"/>
<path d="M33.2847 30.9814C34.4997 30.9814 35.4847 29.9964 35.4847 28.7814C35.4847 27.5664 34.4997 26.5814 33.2847 26.5814C32.0697 26.5814 31.0847 27.5664 31.0847 28.7814C31.0847 29.9964 32.0697 30.9814 33.2847 30.9814Z" stroke="#095783" stroke-width="2" stroke-linecap="round" stroke-linejoin="round"/>
</svg>
