<svg width="58" height="58" viewBox="0 0 58 58" fill="none" xmlns="http://www.w3.org/2000/svg">
<rect x="1" y="1" width="56" height="56" rx="7" fill="#E6F7FA" stroke="#095783" stroke-width="2"/>
<path d="M23.8092 32.3841L28.6546 22.6932L33.5 32.3841H23.8092Z" fill="#F37B60"/>
<path d="M16.8261 27.9662H19.6763L23.8092 19.9855H34.3551L36.0652 23.5483L53.0242 22.6932V14L40.1981 18.1329L37.4903 14.8551H21.529L16.8261 27.9662Z" fill="#F37B60"/>
<path d="M4 43.5V33.8092H21.529L22.9541 37.372H33.5L37.9179 29.2488L40.1981 29.8188L35.0676 42.5024H19.6763L16.8261 39.3672L4 43.5Z" fill="#F37B60"/>
<path d="M23.8092 32.3841L28.6546 22.6932L33.5 32.3841H23.8092Z" stroke="#095783" stroke-width="2"/>
<path d="M16.8261 27.9662H19.6763L23.8092 19.9855H34.3551L36.0652 23.5483L53.0242 22.6932V14L40.1981 18.1329L37.4903 14.8551H21.529L16.8261 27.9662Z" stroke="#095783" stroke-width="2"/>
<path d="M4 43.5V33.8092H21.529L22.9541 37.372H33.5L37.9179 29.2488L40.1981 29.8188L35.0676 42.5024H19.6763L16.8261 39.3672L4 43.5Z" stroke="#095783" stroke-width="2"/>
<path d="M24.6503 31.6703L28.6544 23.6682L32.6585 31.6703H24.6503Z" fill="#6BB4DD" stroke="#095783"/>
</svg>
