<svg width="58" height="58" viewBox="0 0 58 58" fill="none" xmlns="http://www.w3.org/2000/svg">
<path d="M50.5234 22.8828V25.1484C49.7011 25.1484 44.5543 25.1484 43.7266 25.1484V22.8828C43.7266 21.6311 44.7404 20.6172 45.9922 20.6172H48.2578C49.5096 20.6172 50.5234 21.6311 50.5234 22.8828Z" fill="#6BB4DD"/>
<path d="M42.5938 52.3359C43.8455 52.3359 44.8594 53.3498 44.8594 54.6016C44.8594 55.8533 43.8455 56.8672 42.5938 56.8672C41.342 56.8672 40.3281 55.8533 40.3281 54.6016C40.3281 53.3498 41.342 52.3359 42.5938 52.3359Z" fill="#93C257"/>
<path d="M42.5938 38.7422C41.4557 38.7422 16.5605 38.7422 15.4062 38.7422C15.4062 36.1252 17.298 31.6304 19.8763 31.1999C22.9342 30.6907 25.997 30.4454 29 30.4454C32.0026 30.4454 35.0653 30.6907 38.1237 31.1999C40.7017 31.6304 42.5938 36.1244 42.5938 38.7422Z" fill="#6BB4DD"/>
<path d="M39.1953 7.92969V22.8828C39.1953 24.1346 38.1814 25.1484 36.9297 25.1484C33.6231 25.1484 24.3701 25.1484 21.0703 25.1484C19.8186 25.1484 18.8047 24.1346 18.8047 22.8828V7.92969C18.8047 4.17555 21.8474 1.13281 25.6016 1.13281H32.3984C36.1526 1.13281 39.1953 4.17555 39.1953 7.92969Z" fill="#6BB4DD"/>
<path d="M31.2656 38.7422V47.8047C29.6808 47.8047 28.3192 47.8047 26.7344 47.8047V38.7422H31.2656Z" fill="#93C257"/>
<path d="M31.2656 25.1484V30.4919C30.5112 30.4613 29.7556 30.4455 29 30.4455C28.2444 30.4455 27.4888 30.4613 26.7344 30.4919V25.1484H31.2656Z" fill="#93C257"/>
<path d="M29 52.3359C30.2518 52.3359 31.2656 53.3498 31.2656 54.6016C31.2656 55.8533 30.2518 56.8672 29 56.8672C27.7482 56.8672 26.7344 55.8533 26.7344 54.6016C26.7344 53.3498 27.7482 52.3359 29 52.3359Z" fill="#93C257"/>
<path d="M15.4062 52.3359C16.658 52.3359 17.6719 53.3498 17.6719 54.6016C17.6719 55.8533 16.658 56.8672 15.4062 56.8672C14.1545 56.8672 13.1406 55.8533 13.1406 54.6016C13.1406 53.3498 14.1545 52.3359 15.4062 52.3359Z" fill="#93C257"/>
<path d="M14.2734 22.8828V25.1484C13.4511 25.1484 8.30431 25.1484 7.47656 25.1484V22.8828C7.47656 21.6311 8.49043 20.6172 9.74219 20.6172H12.0078C13.2596 20.6172 14.2734 21.6311 14.2734 22.8828Z" fill="#6BB4DD"/>
<path d="M34.6641 19.4844C35.2894 19.4844 35.7969 18.9769 35.7969 18.3516C35.7969 17.7263 35.2894 17.2188 34.6641 17.2188C34.0388 17.2188 33.5312 17.7263 33.5312 18.3516C33.5312 18.9769 34.0388 19.4844 34.6641 19.4844Z" fill="#095783"/>
<path d="M51.6562 25.1484V22.8828C51.6562 21.0089 50.1317 19.4844 48.2578 19.4844H45.9922C44.1183 19.4844 42.5938 21.0089 42.5938 22.8828V25.1484C42.5938 25.7741 43.1009 26.2812 43.7266 26.2812H45.9922V34.2109C45.9922 35.7286 44.9921 37.0167 43.6166 37.4518C43.4185 36.2 42.9619 34.8225 42.3277 33.6227C41.2549 31.5932 39.8281 30.336 38.3097 30.0825C36.3626 29.7583 34.379 29.5357 32.3984 29.4163V26.2812H36.9297C38.8036 26.2812 40.3281 24.7567 40.3281 22.8828V7.92969C40.3281 3.55726 36.7709 0 32.3984 0H25.6016C21.2291 0 17.6719 3.55726 17.6719 7.92969V22.8828C17.6719 24.7567 19.1964 26.2812 21.0703 26.2812H25.6016V29.4163C23.6211 29.5357 21.6374 29.7583 19.6898 30.0826C18.1719 30.336 16.7451 31.5932 15.6723 33.6227C15.0381 34.8227 14.5813 36.2 14.3834 37.4518C13.0079 37.0167 12.0078 35.7286 12.0078 34.2109V26.2812H14.2734C14.8991 26.2812 15.4062 25.7741 15.4062 25.1484V22.8828C15.4062 21.0089 13.8817 19.4844 12.0078 19.4844H9.74219C7.86829 19.4844 6.34375 21.0089 6.34375 22.8828V25.1484C6.34375 25.7741 6.85091 26.2812 7.47656 26.2812H9.74219V34.2109C9.74219 37.3341 12.2831 39.875 15.4062 39.875H25.6016V46.6719H17.6719C15.798 46.6719 14.2734 48.1964 14.2734 50.0703V51.398C12.955 51.8656 12.0078 53.1247 12.0078 54.6016C12.0078 56.4755 13.5324 58 15.4062 58C17.2801 58 18.8047 56.4755 18.8047 54.6016C18.8047 53.1248 17.8575 51.8656 16.5391 51.398V50.0703C16.5391 49.4457 17.0472 48.9375 17.6719 48.9375H27.8672V51.398C26.5487 51.8656 25.6016 53.1247 25.6016 54.6016C25.6016 56.4755 27.1261 58 29 58C30.8739 58 32.3984 56.4755 32.3984 54.6016C32.3984 53.1248 31.4513 51.8656 30.1328 51.398V48.9375H40.3281C40.9528 48.9375 41.4609 49.4457 41.4609 50.0703V51.398C40.1425 51.8656 39.1953 53.1247 39.1953 54.6016C39.1953 56.4755 40.7199 58 42.5938 58C44.4676 58 45.9922 56.4755 45.9922 54.6016C45.9922 53.1248 45.045 51.8656 43.7266 51.398V50.0703C43.7266 48.1964 42.202 46.6719 40.3281 46.6719H32.3984V39.875H42.5938C45.7169 39.875 48.2578 37.3341 48.2578 34.2109V26.2812H50.5234C51.1491 26.2812 51.6562 25.7741 51.6562 25.1484ZM8.60938 22.8828C8.60938 22.2582 9.11755 21.75 9.74219 21.75H12.0078C12.6324 21.75 13.1406 22.2582 13.1406 22.8828V24.0156H8.60938V22.8828ZM15.4062 55.7344C14.7816 55.7344 14.2734 55.2262 14.2734 54.6016C14.2734 53.9769 14.7816 53.4688 15.4062 53.4688C16.0309 53.4688 16.5391 53.9769 16.5391 54.6016C16.5391 55.2262 16.0309 55.7344 15.4062 55.7344ZM29 55.7344C28.3754 55.7344 27.8672 55.2262 27.8672 54.6016C27.8672 53.9769 28.3754 53.4688 29 53.4688C29.6246 53.4688 30.1328 53.9769 30.1328 54.6016C30.1328 55.2262 29.6246 55.7344 29 55.7344ZM42.5938 55.7344C41.9691 55.7344 41.4609 55.2262 41.4609 54.6016C41.4609 53.9769 41.9691 53.4688 42.5938 53.4688C43.2184 53.4688 43.7266 53.9769 43.7266 54.6016C43.7266 55.2262 43.2184 55.7344 42.5938 55.7344ZM19.9375 22.8828V7.92969C19.9375 4.80652 22.4784 2.26562 25.6016 2.26562H32.3984C35.5216 2.26562 38.0625 4.80652 38.0625 7.92969V22.8828C38.0625 23.5074 37.5543 24.0156 36.9297 24.0156H21.0703C20.4457 24.0156 19.9375 23.5074 19.9375 22.8828ZM30.1328 26.2812V29.3243C29.7522 29.3166 29.3737 29.3127 29 29.3127C28.6263 29.3127 28.2478 29.3166 27.8672 29.3243V26.2812H30.1328ZM30.1328 46.6719H27.8672V39.875H30.1328V46.6719ZM16.6523 37.6094C16.8263 36.6578 17.1905 35.5985 17.6754 34.6814C18.3889 33.3314 19.2815 32.4477 20.0623 32.3173C22.9235 31.841 25.9329 31.5783 29 31.5783C31.8891 31.5783 34.9018 31.812 37.9371 32.3172C38.7185 32.4477 39.6111 33.3315 40.3246 34.6814C40.8095 35.5985 41.1738 36.6578 41.3477 37.6094H16.6523ZM49.3906 24.0156H44.8594V22.8828C44.8594 22.2582 45.3676 21.75 45.9922 21.75H48.2578C48.8824 21.75 49.3906 22.2582 49.3906 22.8828V24.0156Z" fill="#095783"/>
<path d="M34.6641 14.9531C35.2897 14.9531 35.7969 14.446 35.7969 13.8203V7.92969C35.7969 7.30404 35.2897 6.79688 34.6641 6.79688C34.0384 6.79688 33.5312 7.30404 33.5312 7.92969V13.8203C33.5312 14.446 34.0384 14.9531 34.6641 14.9531Z" fill="#095783"/>
</svg>
