<svg width="58" height="58" viewBox="0 0 58 58" fill="none" xmlns="http://www.w3.org/2000/svg">
<g clip-path="url(#clip0)">
<path d="M0.966553 29.9667H57.0332V33.8333H0.966553V29.9667Z" fill="#F37B60"/>
<path d="M0.966553 33.8334H4.83322V57.0334H0.966553V33.8334Z" fill="#F37B60"/>
<path d="M53.1665 33.8334H57.0332V57.0334H53.1665V33.8334Z" fill="#F37B60"/>
<path d="M57.0334 3.86667C57.0334 2.26516 55.735 0.966675 54.1334 0.966675H30.9334C29.3319 0.966675 28.0334 2.26516 28.0334 3.86667V17.4H57.0334V3.86667Z" fill="#B5D988"/>
<path d="M47.3666 29.9666H37.7L39.6333 22.2333H45.4333L47.3666 29.9666Z" fill="white"/>
<path d="M28.0334 17.4V19.3334C28.0334 20.9349 29.3319 22.2334 30.9334 22.2334H54.1334C55.735 22.2334 57.0334 20.9349 57.0334 19.3334V17.4H28.0334Z" fill="white"/>
<path d="M26.0999 38.6667V25.1334C26.0999 22.998 24.3686 21.2667 22.2333 21.2667H12.5666C10.4313 21.2667 8.69995 22.998 8.69995 25.1334V39.6334C8.69995 41.7687 10.4313 43.5001 12.5666 43.5001H30.4499C31.7848 43.5001 32.8666 42.4182 32.8666 41.0834C32.8666 39.7486 31.7848 38.6667 30.4499 38.6667H26.0999Z" fill="#6BB4DD"/>
<path d="M27.0668 51.2333H21.2668V43.5H17.4001V51.2333H11.6001C10.1237 51.2272 8.87855 52.3312 8.70768 53.7977C8.53682 55.2638 9.49451 56.6246 10.9327 56.9583C12.3709 57.292 13.8304 56.4919 14.3222 55.1H24.3447C24.8385 56.4868 26.2946 57.2821 27.7285 56.9484C29.162 56.6147 30.1174 55.2581 29.9479 53.7954C29.7785 52.3331 28.539 51.2305 27.0668 51.2333Z" fill="white"/>
<path d="M17.4001 43.5H21.2668V45.4333H17.4001V43.5Z" fill="#E4F8CB"/>
<path d="M30.4501 38.6667H26.1001V25.1334C26.0963 23.4611 25.0144 21.9818 23.4214 21.4716C21.785 29.5211 18.2676 37.0694 13.1562 43.5H30.4501C31.7849 43.5 32.8667 42.4182 32.8667 41.0834C32.8667 39.7485 31.7849 38.6667 30.4501 38.6667Z" fill="#89C9ED"/>
<path d="M48.3333 57.0333H38.6666L37.7 43.5H49.3L48.3333 57.0333Z" fill="#6BB4DD"/>
<path d="M45.9168 24.1666L45.4335 22.2333H39.6335L39.1501 24.1666H45.9168Z" fill="#E4F8CB"/>
<path d="M38.6021 56.1313L38.6667 57.0333H48.3334L49.1514 45.582L38.6021 56.1313Z" fill="#89C9ED"/>
<path d="M54.1334 0.966675H51.2334L34.8 17.4H57.0334V3.86667C57.0334 2.26516 55.7349 0.966675 54.1334 0.966675Z" fill="#89C9ED"/>
<path d="M26.0999 29.9667H28.9999V33.8333H26.0999V29.9667Z" fill="#F37B60"/>
<path d="M37.0166 12.8504L44.7499 5.11707L46.1173 6.48399L38.3835 14.2173L37.0166 12.8504Z" fill="#A7D7DE"/>
<path d="M36.0503 8.01657L39.9174 4.1499L41.2844 5.51683L37.4177 9.38397L36.0503 8.01657Z" fill="#A7D7DE"/>
<path d="M42.8167 12.8499L46.6833 8.98328L48.0502 10.3502L44.1836 14.2169L42.8167 12.8499Z" fill="#A7D7DE"/>
<path d="M54.1333 0H30.9333C28.798 0 27.0667 1.73132 27.0667 3.86667V19.3333C27.0667 21.4687 28.798 23.2 30.9333 23.2H38.3962L36.9462 29H27.0667V25.1333C27.0634 22.4651 24.9016 20.3033 22.2333 20.3H12.5667C9.89842 20.3033 7.73664 22.4651 7.73333 25.1333V29H0.966667C0.432829 29 0 29.4328 0 29.9667V57.0333C0 57.5672 0.432829 58 0.966667 58H4.83333C5.36717 58 5.8 57.5672 5.8 57.0333V34.8H7.73333V39.6333C7.73664 42.3016 9.89842 44.4634 12.5667 44.4667H16.4333V50.2667H11.6C9.72095 50.2572 8.10763 51.5996 7.77487 53.4489C7.44258 55.2982 8.4876 57.1188 10.252 57.7645C12.0163 58.4102 13.9898 57.6937 14.9291 56.0667H23.7376C24.6788 57.6856 26.6461 58.3955 28.4043 57.7503C30.1621 57.1051 31.2033 55.2907 30.8739 53.4475C30.5444 51.6039 28.9391 50.2629 27.0667 50.2667H22.2333V44.4667H30.45C32.3187 44.4667 33.8333 42.952 33.8333 41.0833C33.8333 39.2147 32.3187 37.7 30.45 37.7H27.0667V34.8H52.2V57.0333C52.2 57.5672 52.6328 58 53.1667 58H57.0333C57.5672 58 58 57.5672 58 57.0333V29.9667C58 29.4328 57.5672 29 57.0333 29H48.1205L46.6705 23.2H54.1333C56.2687 23.2 58 21.4687 58 19.3333V3.86667C58 1.73132 56.2687 0 54.1333 0ZM3.86667 56.0667H1.93333V34.8H3.86667V56.0667ZM4.83333 32.8667H1.93333V30.9333H7.73333V32.8667H4.83333ZM29 3.86667C29 2.79899 29.8657 1.93333 30.9333 1.93333H54.1333C55.201 1.93333 56.0667 2.79899 56.0667 3.86667V16.4333H29V3.86667ZM11.6 56.0667C10.5323 56.0667 9.66667 55.201 9.66667 54.1333C9.66667 53.0657 10.5323 52.2 11.6 52.2C12.6677 52.2 13.5333 53.0657 13.5333 54.1333C13.5333 55.201 12.6677 56.0667 11.6 56.0667ZM29 54.1333C29 55.201 28.1343 56.0667 27.0667 56.0667C25.999 56.0667 25.1333 55.201 25.1333 54.1333C25.1333 53.0657 25.999 52.2 27.0667 52.2C28.1343 52.2 29 53.0657 29 54.1333ZM21.2667 52.2H23.7376C23.3897 52.7853 23.2038 53.4527 23.2 54.1333H15.4667C15.4629 53.4527 15.2769 52.7853 14.9291 52.2H17.4C17.9338 52.2 18.3667 51.7672 18.3667 51.2333V44.4667H20.3V51.2333C20.3 51.7672 20.7328 52.2 21.2667 52.2ZM30.45 39.6333C31.251 39.6333 31.9 40.2823 31.9 41.0833C31.9 41.8843 31.251 42.5333 30.45 42.5333H12.5667C10.9652 42.5333 9.66667 41.2348 9.66667 39.6333V25.1333C9.66667 23.5318 10.9652 22.2333 12.5667 22.2333H22.2333C23.8348 22.2333 25.1333 23.5318 25.1333 25.1333V38.6667C25.1333 39.2005 25.5662 39.6333 26.1 39.6333H30.45ZM56.0667 56.0667H54.1333V34.8H56.0667V56.0667ZM56.0667 32.8667H27.0667V30.9333H56.0667V32.8667ZM46.1286 29H38.9381L40.3881 23.2H44.6786L46.1286 29ZM56.0667 19.3333C56.0667 20.401 55.201 21.2667 54.1333 21.2667H30.9333C29.8657 21.2667 29 20.401 29 19.3333V18.3667H56.0667V19.3333Z" fill="#095783"/>
<path d="M49.3 42.5333H37.7C37.4315 42.5329 37.1742 42.6438 36.9911 42.8401C36.8075 43.0365 36.7145 43.3008 36.7334 43.5684L37.7 57.1018C37.7359 57.6087 38.1583 58.0014 38.6667 58H48.3334C48.8417 58.0014 49.2641 57.6087 49.3 57.1018L50.2667 43.5684C50.2856 43.3008 50.1926 43.0365 50.009 42.8401C49.8258 42.6438 49.5686 42.5329 49.3 42.5333ZM47.4332 56.0666H39.5668L38.7384 44.4667H48.2616L47.4332 56.0666Z" fill="#095783"/>
<path d="M37.0166 12.8504L44.7499 5.11707L46.1173 6.48399L38.3835 14.2173L37.0166 12.8504Z" fill="#095783"/>
<path d="M36.0503 8.01657L39.9174 4.1499L41.2844 5.51683L37.4177 9.38397L36.0503 8.01657Z" fill="#095783"/>
<path d="M42.8167 12.8499L46.6833 8.98328L48.0502 10.3502L44.1836 14.2169L42.8167 12.8499Z" fill="#095783"/>
</g>
<defs>
<clipPath id="clip0">
<rect width="58" height="58" fill="white"/>
</clipPath>
</defs>
</svg>
