<svg width="58" height="58" viewBox="0 0 58 58" fill="none" xmlns="http://www.w3.org/2000/svg">
<path d="M10.6333 0.966675H47.3666C48.4343 0.966675 49.3 1.83233 49.3 2.90001V55.1C49.3 56.1677 48.4343 57.0333 47.3666 57.0333H10.6333C9.56561 57.0333 8.69995 56.1677 8.69995 55.1V2.90001C8.69995 1.83233 9.56561 0.966675 10.6333 0.966675Z" fill="#E6F7FA"/>
<path d="M17.4001 30.9333H25.1335C25.1335 33.0687 23.4022 34.8 21.2668 34.8C19.1315 34.8 17.4001 33.0687 17.4001 30.9333Z" fill="#93C257"/>
<path d="M32.8667 30.9333H40.6C40.6 33.0687 38.8687 34.8 36.7334 34.8C34.598 34.8 32.8667 33.0687 32.8667 30.9333Z" fill="#93C257"/>
<path d="M30.9333 23.1999C30.9333 24.2676 30.0677 25.1333 29 25.1333C27.9323 25.1333 27.0667 24.2676 27.0667 23.1999C27.0667 22.1323 27.9323 21.2666 29 21.2666C30.0677 21.2666 30.9333 22.1323 30.9333 23.1999Z" fill="#B5D988"/>
<path d="M43.4999 0.966675V10.6333L40.5999 6.76668L37.7 10.6333V0.966675H43.4999Z" fill="#F39B88"/>
<path d="M40.6 6.7666L41.5666 8.05234L39.6333 10.6333V8.05234L40.6 6.7666Z" fill="#E6F7FA"/>
<path d="M45.4333 0.966675V10.6333L43.5 8.05242V0.966675H45.4333Z" fill="#E6F7FA"/>
<path d="M47.3667 0H10.6334C9.03188 0 7.7334 1.29849 7.7334 2.9V55.1C7.7334 56.7015 9.03188 58 10.6334 58H47.3667C48.9682 58 50.2667 56.7015 50.2667 55.1V2.9C50.2667 1.29849 48.9682 0 47.3667 0ZM38.6667 1.93333H42.5334V7.73333L41.3732 6.18657C41.183 5.95529 40.8993 5.82171 40.6001 5.82171C40.3008 5.82171 40.0171 5.95529 39.8269 6.18657L38.6667 7.73333V1.93333ZM48.3334 55.1C48.3334 55.6338 47.9006 56.0667 47.3667 56.0667H10.6334C10.0996 56.0667 9.66673 55.6338 9.66673 55.1V2.9C9.66673 2.36616 10.0996 1.93333 10.6334 1.93333H36.7334V10.6333C36.7334 11.0496 36.9996 11.4187 37.3942 11.5504C37.7893 11.6821 38.2235 11.5462 38.4732 11.2134L40.6001 8.37809L42.7269 11.2134C42.9091 11.4565 43.1956 11.6 43.5001 11.6C43.6039 11.5995 43.7068 11.583 43.8055 11.5509C44.2005 11.4192 44.4667 11.0496 44.4667 10.6333V1.93333H47.3667C47.9006 1.93333 48.3334 2.36616 48.3334 2.9V55.1Z" fill="#095783"/>
<path d="M23.2 13.5333H34.7999V15.4667H23.2V13.5333Z" fill="#095783"/>
<path d="M23.2 9.66663H34.7999V11.6H23.2V9.66663Z" fill="#095783"/>
<path d="M13.5334 43.5H19.3334V45.4333H13.5334V43.5Z" fill="#095783"/>
<path d="M21.2666 43.5H34.7999V45.4333H21.2666V43.5Z" fill="#095783"/>
<path d="M36.7334 43.5H38.6667V45.4333H36.7334V43.5Z" fill="#095783"/>
<path d="M40.5999 43.5H44.4665V45.4333H40.5999V43.5Z" fill="#095783"/>
<path d="M13.5334 47.3667H32.8668V49.3H13.5334V47.3667Z" fill="#095783"/>
<path d="M34.8 47.3667H44.4667V49.3H34.8V47.3667Z" fill="#095783"/>
<path d="M21.2667 35.7667C23.9349 35.7634 26.0967 33.6016 26.1 30.9334C26.1 30.7833 26.0656 30.6355 25.9985 30.5015L22.8309 24.1667H26.278C26.5701 24.9856 27.2144 25.6299 28.0333 25.9221V37.7H23.2V39.6334H34.8V37.7H29.9667V25.9221C30.7856 25.6299 31.4299 24.9856 31.7221 24.1667H35.1691L31.9968 30.5015C31.9316 30.636 31.8986 30.7837 31.9 30.9334C31.9 33.6026 34.0642 35.7667 36.7334 35.7667C39.4025 35.7667 41.5667 33.6026 41.5667 30.9334C41.5681 30.7837 41.5351 30.636 41.4699 30.5015L38.2976 24.1667H39.6334V22.2334H31.7221C31.4299 21.4144 30.7856 20.7702 29.9667 20.478V19.3334H28.0333V20.478C27.2144 20.7702 26.5701 21.4144 26.278 22.2334H18.3667V24.1667H19.7025L16.5348 30.5015C16.4678 30.6355 16.4333 30.7833 16.4333 30.9334C16.4367 33.6016 18.5984 35.7634 21.2667 35.7667V35.7667ZM36.7334 25.3614L39.0358 29.9667H34.4309L36.7334 25.3614ZM36.7334 33.8334C35.509 33.8277 34.4201 33.0541 34.0122 31.9H39.4545C39.0466 33.0541 37.9577 33.8277 36.7334 33.8334V33.8334ZM29 22.2334C29.5339 22.2334 29.9667 22.6662 29.9667 23.2C29.9667 23.7339 29.5339 24.1667 29 24.1667C28.4662 24.1667 28.0333 23.7339 28.0333 23.2C28.0333 22.6662 28.4662 22.2334 29 22.2334ZM21.2667 33.8334C20.0423 33.8277 18.9534 33.0541 18.5456 31.9H23.9878C23.58 33.0541 22.4911 33.8277 21.2667 33.8334ZM18.9642 29.9667L21.2667 25.3614L23.5691 29.9667H18.9642Z" fill="#095783"/>
<path d="M19.3333 37.7001H21.2666V39.6334H19.3333V37.7001Z" fill="#095783"/>
<path d="M36.7334 37.7001H38.6667V39.6334H36.7334V37.7001Z" fill="#095783"/>
</svg>
