<svg width="58" height="58" viewBox="0 0 58 58" fill="none" xmlns="http://www.w3.org/2000/svg">
<g clip-path="url(#clip0)">
<path d="M18.3378 11.1363C17.7577 10.8057 17.1013 10.6324 16.4335 10.6337C16.4335 7.43046 13.8368 4.83374 10.6336 4.83374C7.43034 4.83374 4.83363 7.43046 4.83363 10.6337C2.69818 10.6337 0.967041 12.3648 0.967041 14.5003C0.967041 16.6357 2.69818 18.3668 4.83363 18.3668H10.8849L14.8705 14.5003L18.3378 11.1363Z" fill="#E6F7FA"/>
<path d="M27.0668 0.967041V4.94C24.1669 6.88297 20.3003 4.94 20.3003 4.94V0.967041C20.3003 0.967041 24.1669 2.91002 27.0668 0.967041Z" fill="#93C257"/>
<path d="M46.4001 0.967041V4.94C43.5001 6.88297 39.6335 4.94 39.6335 4.94V0.967041C39.6335 0.967041 43.5001 2.91002 46.4001 0.967041Z" fill="#93C257"/>
<path d="M55.0998 53.1664H54.1332V27.0667H57.0332L40.1166 10.6335H18.8503L1.93384 27.0667H4.8338V53.1664H3.86719C3.33398 53.168 2.90204 53.5998 2.90057 54.133V57.033H56.0666V54.133C56.065 53.5998 55.6331 53.168 55.0998 53.1664Z" fill="white"/>
<path d="M54.1331 31.9H32.8667V53.1664H54.1331V31.9Z" fill="#F37B60"/>
<path d="M51.2331 31.9H32.8667V53.1664H51.2331V31.9Z" fill="white"/>
<path d="M54.1331 27.0668H32.8667V31.9001H54.1331V27.0668Z" fill="#6BB4DD"/>
<path d="M51.2331 27.0668H32.8667V31.9001H51.2331V27.0668Z" fill="#6BB4DD"/>
<path d="M57.033 27.0667H35.7665L18.8501 10.6335H40.1165L57.033 27.0667Z" fill="#ADDCF6"/>
<path d="M53.1663 27.0667H35.7665L18.8501 10.6335H36.2499L53.1663 27.0667Z" fill="#ADDCF6"/>
<path d="M35.7667 27.0667H1.93384L18.8503 10.6335L35.7667 27.0667Z" fill="#6BB4DD"/>
<path d="M32.8668 27.0668H4.83374V31.9001H32.8668V27.0668Z" fill="#ADDCF6"/>
<path d="M13.5336 35.7666H9.66699V49.2998H13.5336V35.7666Z" fill="#E6F7FA"/>
<path d="M28.0333 35.7666H24.1667V49.2998H28.0333V35.7666Z" fill="#E6F7FA"/>
<path d="M18.3668 23.2001C19.9684 23.2001 21.2667 21.9017 21.2667 20.3001C21.2667 18.6985 19.9684 17.4001 18.3668 17.4001C16.7652 17.4001 15.4668 18.6985 15.4668 20.3001C15.4668 21.9017 16.7652 23.2001 18.3668 23.2001Z" fill="#93C257"/>
<path d="M38.6666 37.7C39.7344 37.7 40.6 38.5655 40.6 39.6333V45.4332H36.7334V39.6333C36.7334 38.5655 37.599 37.7 38.6666 37.7Z" fill="#93C257"/>
<path d="M48.3331 37.7C49.4009 37.7 50.2665 38.5655 50.2665 39.6333V45.4332H46.3999V39.6333C46.3998 38.5655 47.2654 37.7 48.3331 37.7Z" fill="#93C257"/>
<path d="M34.8 54.133V57.033H2.90039V54.133C2.90198 53.5998 3.3338 53.1679 3.86701 53.1664H33.8333C34.3666 53.168 34.7984 53.5998 34.8 54.133Z" fill="#ADDCF6"/>
<path d="M56.0665 54.133V57.033H34.8001V54.133C34.7985 53.5998 34.3667 53.1679 33.8335 53.1664H55.0999C55.6331 53.168 56.065 53.5998 56.0665 54.133Z" fill="#6BB4DD"/>
<path d="M53.1665 54.133V57.033H34.8001V54.133C34.7985 53.5998 34.3667 53.1679 33.8335 53.1664H52.1999C52.7331 53.168 53.1651 53.5998 53.1665 54.133Z" fill="#6BB4DD"/>
<path d="M8.70117 31.9H14.5011V34.8C14.5011 35.3339 14.0683 35.7666 13.5345 35.7666H9.66779C9.1339 35.7666 8.70117 35.3338 8.70117 34.8V31.9Z" fill="#E6F7FA"/>
<path d="M9.66693 49.2998H13.5335C14.0674 49.2998 14.5001 49.7325 14.5001 50.2664V53.1664H8.7002V50.2664C8.70031 49.7325 9.13304 49.2998 9.66693 49.2998Z" fill="#E6F7FA"/>
<path d="M23.2002 31.9H29.0001V34.8C29.0001 35.3339 28.5673 35.7666 28.0335 35.7666H24.1669C23.633 35.7666 23.2003 35.3338 23.2003 34.8V31.9H23.2002Z" fill="#E6F7FA"/>
<path d="M24.1667 49.2998H28.0333C28.5672 49.2998 28.9999 49.7325 28.9999 50.2664V53.1664H23.2V50.2664C23.2001 49.7325 23.6328 49.2998 24.1667 49.2998Z" fill="#E6F7FA"/>
<path d="M57.0326 56.0672V54.1338C57.0313 53.0666 56.1666 52.2017 55.0992 52.2005V28.0341H57.0326C57.4261 28.0341 57.7803 27.7957 57.9284 27.431C58.0765 27.0664 57.9888 26.6485 57.7066 26.3741L41.5559 10.6849C41.557 10.6672 41.5661 10.6522 41.5661 10.6343V6.33502C42.4599 6.61313 43.3895 6.75937 44.3254 6.76923C45.5949 6.79301 46.8423 6.43414 47.905 5.73928C48.1716 5.55509 48.326 5.24765 48.3147 4.92389C48.3221 4.89444 48.3283 4.86465 48.3327 4.83452V0.96782C48.3326 0.610762 48.1358 0.282703 47.8207 0.114709C47.5056 -0.0532852 47.1235 -0.0340276 46.827 0.164892C44.4433 1.7678 41.0657 0.120033 41.0336 0.104514C40.734 -0.0463751 40.3776 -0.0310823 40.092 0.144841C39.8064 0.320878 39.6326 0.632285 39.6327 0.967707V9.66761H20.2996V6.33491C21.1934 6.61301 22.123 6.75926 23.0589 6.76911C24.3284 6.7929 25.5758 6.43403 26.6386 5.73917C26.9051 5.55498 27.0595 5.24754 27.0482 4.92378C27.0557 4.89433 27.0618 4.86454 27.0662 4.8344V0.96782C27.0661 0.610762 26.8693 0.282703 26.5542 0.114709C26.239 -0.0532852 25.857 -0.0340276 25.5605 0.164892C23.1759 1.7678 19.8002 0.120033 19.7671 0.104514C19.4675 -0.0463751 19.1111 -0.0310823 18.8255 0.144841C18.5399 0.320878 18.3661 0.632285 18.3662 0.967707V9.81566C18.3441 9.8288 18.3237 9.84353 18.303 9.85837C18.2582 9.88227 18.2156 9.90991 18.1755 9.94095L18.1344 9.98082C17.8775 9.88295 17.6128 9.80717 17.3429 9.75449C16.9009 6.38634 14.0304 3.86779 10.6333 3.86756C7.23631 3.86733 4.36546 6.38543 3.92298 9.75347C1.47512 10.2228 -0.214451 12.4764 0.0211709 14.9577C0.256793 17.4389 2.34058 19.3341 4.83296 19.3341H8.50584L1.25898 26.374C0.9768 26.6484 0.889122 27.0663 1.03718 27.4309C1.18524 27.7956 1.53946 28.034 1.933 28.034H3.86634V52.2004C2.79913 52.2016 1.93424 53.0664 1.933 54.1337V56.0671H0.966492C0.432604 56.0671 -0.000125753 56.4998 -0.000125753 57.0337C-0.000125753 57.5676 0.432717 58.0003 0.966492 58.0003H57.0325C57.5664 58.0003 57.9991 57.5675 57.9991 57.0337C57.9991 56.4999 57.5664 56.0672 57.0326 56.0672ZM29.9662 52.2006V50.2672C29.9639 49.5797 29.5955 48.9455 28.9995 48.6029V36.4651C29.5956 36.1224 29.9639 35.4883 29.9662 34.8008V32.8674H31.8995V52.2006H29.9662ZM15.4663 52.2006V50.2672C15.4641 49.5797 15.0957 48.9455 14.4997 48.6029V36.4651C15.0958 36.1224 15.4641 35.4883 15.4663 34.8008V32.8674H22.2329V34.8008C22.2351 35.4883 22.6035 36.1225 23.1995 36.4651V48.6029C22.6034 48.9456 22.2351 49.5797 22.2329 50.2672V52.2006H15.4663V52.2006ZM10.6331 36.734H12.5665V48.3339H10.6331V36.734ZM13.534 34.8008H9.66639V32.8674H13.533L13.534 34.8008ZM9.66639 50.2672H13.533V52.2006H9.66639V50.2672ZM25.133 36.734H27.0663V48.3339H25.133V36.734ZM28.0338 34.8008H24.1662V32.8674H28.0328L28.0338 34.8008ZM24.1662 52.2006V50.2672H28.0328V52.2006H24.1662ZM33.8328 52.2006V32.8674H53.166V52.2006H33.8328ZM53.1659 30.9341H33.8328V28.0341H53.166V30.9341H53.1659ZM54.1326 26.1009H36.1588L21.2325 11.6011H39.7233L54.6499 26.1009H54.1326ZM46.3993 2.49427V4.37992C44.8394 4.98631 43.1037 4.95573 41.566 4.29474V2.36875C43.1294 2.8869 44.8111 2.93051 46.3993 2.49427ZM25.133 2.49427V4.37992C23.5731 4.98643 21.8373 4.95584 20.2996 4.29485V2.36875C21.863 2.88678 23.5448 2.93051 25.133 2.49427ZM4.83319 17.401C3.23164 17.401 1.93322 16.1026 1.93322 14.501C1.93322 12.8995 3.23164 11.6011 4.83319 11.6011C5.08954 11.6012 5.33547 11.4993 5.51683 11.318C5.69808 11.1367 5.79992 10.8908 5.79992 10.6343C5.79992 7.96501 7.96391 5.80102 10.6332 5.80102C13.3026 5.80102 15.4666 7.96501 15.4666 10.6343C15.4664 10.8907 15.5683 11.1366 15.7496 11.318C15.9309 11.4992 16.1768 11.6011 16.4333 11.6011C16.4436 11.6011 16.4529 11.6048 16.4632 11.6049L10.4965 17.401H4.83319V17.401ZM18.8497 11.9819L33.3835 26.1009H4.31584L18.8497 11.9819ZM23.1996 28.0341H31.8995V30.9341H5.79981V28.0341H23.1996ZM5.79981 32.8674H7.73316V34.8008C7.73542 35.4883 8.10381 36.1225 8.69977 36.4651V48.6029C8.10369 48.9456 7.73542 49.5797 7.73316 50.2672V52.2006H5.79981V32.8674ZM24.1662 56.0672H3.86646V54.1338H33.8327V56.0672H24.1662ZM35.7661 56.0672V54.1338H55.0992V56.0672H35.7661Z" fill="#095783"/>
<path d="M18.3668 24.1669C20.5023 24.1669 22.2334 22.4357 22.2334 20.3003C22.2334 18.1649 20.5023 16.4337 18.3668 16.4337C16.2314 16.4337 14.5002 18.1649 14.5002 20.3003C14.5025 22.4348 16.2323 24.1646 18.3668 24.1669ZM18.3668 18.367C19.4346 18.367 20.3002 19.2325 20.3002 20.3003C20.3002 21.3681 19.4346 22.2336 18.3668 22.2336C17.2991 22.2336 16.4335 21.3681 16.4335 20.3003C16.4347 19.233 17.2996 18.3682 18.3668 18.367Z" fill="#095783"/>
<path d="M38.6666 36.7334C37.0657 36.7351 35.7683 38.0325 35.7666 39.6334V45.4333C35.7665 45.6897 35.8683 45.9356 36.0497 46.1169C36.2309 46.2982 36.4769 46.4 36.7333 46.4H40.5999C40.8563 46.4001 41.1022 46.2983 41.2836 46.1169C41.4648 45.9357 41.5666 45.6898 41.5666 45.4333V39.6334C41.5648 38.0325 40.2674 36.7352 38.6666 36.7334ZM39.6333 44.4667H37.6999V39.6334C37.6999 39.0995 38.1327 38.6667 38.6666 38.6667C39.2005 38.6667 39.6332 39.0995 39.6332 39.6334V44.4667H39.6333Z" fill="#095783"/>
<path d="M48.3331 36.7334C46.7322 36.7351 45.4348 38.0325 45.4331 39.6334V45.4333C45.433 45.6897 45.5348 45.9356 45.7162 46.1169C45.8974 46.2982 46.1434 46.4 46.3998 46.4H50.2664C50.5228 46.4001 50.7687 46.2983 50.9501 46.1169C51.1313 45.9357 51.2332 45.6898 51.2332 45.4333V39.6334C51.2312 38.0325 49.9339 36.7352 48.3331 36.7334ZM49.2997 44.4667H47.3663V39.6334C47.3663 39.0995 47.7992 38.6667 48.333 38.6667C48.8667 38.6667 49.2996 39.0995 49.2996 39.6334V44.4667H49.2997Z" fill="#095783"/>
</g>
<defs>
<clipPath id="clip0">
<rect width="58" height="58" fill="white"/>
</clipPath>
</defs>
</svg>
