<svg width="58" height="58" viewBox="0 0 58 58" fill="none" xmlns="http://www.w3.org/2000/svg">
<path fill-rule="evenodd" clip-rule="evenodd" d="M6.78115 0.849609H46.2417C46.7939 0.849609 47.2467 1.30239 47.2467 1.85464V51.9675C47.2467 52.5199 46.7939 52.9726 46.2417 52.9726H6.78115C6.22891 52.9726 5.77612 52.5198 5.77612 51.9675V1.85464C5.77612 1.30239 6.2288 0.849609 6.78115 0.849609V0.849609Z" fill="#B5D988"/>
<path fill-rule="evenodd" clip-rule="evenodd" d="M11.7358 5.02417H51.2412C51.7807 5.02417 52.2239 5.46733 52.2239 6.00677V56.1678C52.2239 56.7073 51.7807 57.1504 51.2412 57.1504H11.7358C11.1963 57.1504 10.7532 56.7073 10.7532 56.1678V6.00677C10.7533 5.46721 11.1963 5.02417 11.7358 5.02417V5.02417Z" fill="white"/>
<path fill-rule="evenodd" clip-rule="evenodd" d="M28.6387 15.7781C29.0144 16.9181 30.103 17.7402 31.3842 17.7402C32.6589 17.7402 33.7411 16.9277 34.12 15.7974C34.2163 15.5149 34.2678 15.213 34.2678 14.8983C34.2678 13.3281 32.9769 12.0564 31.3843 12.0564C29.7917 12.0564 28.5007 13.328 28.5007 14.8983C28.5006 15.2065 28.5488 15.502 28.6387 15.7781V15.7781Z" fill="#F37B60"/>
<path fill-rule="evenodd" clip-rule="evenodd" d="M16.9506 22.9133C17.1304 25.7006 19.4456 27.9066 22.2778 27.9066C25.1453 27.9066 27.4861 25.6428 27.6081 22.8009C27.6177 22.5151 27.3801 22.5697 27.0944 22.5697H26.7251H22.3998H18.0778H17.6379C17.2589 22.5697 16.9249 22.5087 16.9506 22.9133Z" fill="#B5D988"/>
<path fill-rule="evenodd" clip-rule="evenodd" d="M35.1604 22.8009C35.2824 25.6428 37.6201 27.9066 40.4907 27.9066C43.3229 27.9066 45.638 25.7006 45.8146 22.9133C45.8403 22.5087 45.5095 22.5697 45.1274 22.5697H44.6907H40.3654H36.0434H35.6741C35.3883 22.5697 35.1476 22.5151 35.1604 22.8009V22.8009Z" fill="#B5D988"/>
<path fill-rule="evenodd" clip-rule="evenodd" d="M27.2902 36.4643H35.6774C35.8123 36.4643 35.9214 36.3551 35.9214 36.2235V34.4477C35.9214 33.3366 35.0127 32.431 33.9017 32.431H31.3843H29.0658C27.9548 32.431 27.0493 33.3366 27.0493 34.4477V36.2235C27.0493 36.3551 27.1585 36.4643 27.2902 36.4643Z" fill="#F37B60"/>
<path fill-rule="evenodd" clip-rule="evenodd" d="M25.4437 22.8009C25.341 25.2735 23.5524 27.3126 21.1956 27.7974C21.5456 27.8713 21.9051 27.9066 22.2777 27.9066C25.1452 27.9066 27.4861 25.6428 27.6081 22.8009C27.6177 22.5151 27.38 22.5697 27.0943 22.5697H26.725H25.248C25.373 22.5825 25.4533 22.634 25.4437 22.8009V22.8009Z" fill="#CEE7F5"/>
<path fill-rule="evenodd" clip-rule="evenodd" d="M43.6534 22.9132C43.4993 25.3377 41.73 27.3221 39.4084 27.7973C39.7585 27.8712 40.1213 27.9065 40.4906 27.9065C42.3144 27.9065 43.9233 26.9946 44.8865 25.5978C45.4163 24.8271 45.7534 23.9055 45.8145 22.9132C45.8306 22.6563 45.7021 22.5889 45.5094 22.5696C45.4002 22.5632 45.2686 22.5696 45.1273 22.5696H44.6906H43.3291C43.5314 22.5824 43.6695 22.6467 43.6534 22.9132Z" fill="#CEE7F5"/>
<path fill-rule="evenodd" clip-rule="evenodd" d="M30.302 12.262C31.3616 12.6826 32.1066 13.707 32.1066 14.8984C32.1066 15.1392 32.0745 15.3769 32.0166 15.6016C32.0005 15.6659 31.9813 15.7333 31.9589 15.7975C31.6923 16.5874 31.0823 17.2233 30.302 17.5347C30.636 17.6696 31.002 17.7402 31.3842 17.7402C32.6589 17.7402 33.7411 16.9277 34.12 15.7974C34.2163 15.5149 34.2678 15.213 34.2678 14.8983C34.2678 13.3281 32.9769 12.0564 31.3843 12.0564C31.002 12.0564 30.636 12.1303 30.302 12.262V12.262Z" fill="#F37B60"/>
<path fill-rule="evenodd" clip-rule="evenodd" d="M33.7573 34.4477V36.2235C33.7573 36.3551 33.6481 36.4643 33.5164 36.4643H35.6775C35.8124 36.4643 35.9215 36.3551 35.9215 36.2235V34.4477C35.9215 33.3366 35.0128 32.431 33.9018 32.431H31.7568C32.8582 32.4375 33.7573 33.3431 33.7573 34.4477Z" fill="#F37B60"/>
<path fill-rule="evenodd" clip-rule="evenodd" d="M52.2239 26.4552V6.00677C52.2239 5.46733 51.7808 5.02417 51.2413 5.02417H47.2468C47.7863 5.02417 48.2294 5.46733 48.2294 6.00677V56.1678C48.2294 56.7073 47.7863 57.1504 47.2468 57.1504H51.2413C51.7808 57.1504 52.2239 56.7073 52.2239 56.1678V31.0888V26.4552Z" fill="#CEE7F5"/>
<path d="M44.4403 40.1166H31.1145C30.6453 40.1166 30.2649 40.497 30.2649 40.9662C30.2649 41.4354 30.6453 41.8158 31.1145 41.8158H44.4403C44.9096 41.8158 45.29 41.4354 45.29 40.9662C45.29 40.497 44.9096 40.1166 44.4403 40.1166Z" fill="#095783"/>
<path d="M18.1868 46.3147H29.3098C29.7791 46.3147 30.1595 45.9343 30.1595 45.4651C30.1595 44.9959 29.7791 44.6155 29.3098 44.6155H18.1868C17.7176 44.6155 17.3372 44.9959 17.3372 45.4651C17.3372 45.9343 17.7176 46.3147 18.1868 46.3147V46.3147Z" fill="#095783"/>
<path d="M18.1868 50.8135H44.4403C44.9095 50.8135 45.2899 50.4331 45.2899 49.9639C45.2899 49.4947 44.9095 49.1143 44.4403 49.1143H18.1868C17.7176 49.1143 17.3372 49.4947 17.3372 49.9639C17.3372 50.4331 17.7176 50.8135 18.1868 50.8135V50.8135Z" fill="#095783"/>
<path d="M18.1868 41.8158H27.0268C27.496 41.8158 27.8764 41.4354 27.8764 40.9662C27.8764 40.497 27.496 40.1166 27.0268 40.1166H18.1868C17.7176 40.1166 17.3372 40.497 17.3372 40.9662C17.3372 41.4354 17.7176 41.8158 18.1868 41.8158Z" fill="#095783"/>
<path d="M44.4404 44.6155H35.6035C35.1343 44.6155 34.7539 44.9959 34.7539 45.4651C34.7539 45.9343 35.1343 46.3147 35.6035 46.3147H44.4404C44.9096 46.3147 45.29 45.9343 45.29 45.4651C45.29 44.9959 44.9096 44.6155 44.4404 44.6155Z" fill="#095783"/>
<path d="M35.5782 21.7182C35.3512 21.7118 34.9294 21.6999 34.6034 22.0315C34.4605 22.1769 34.2938 22.4347 34.3114 22.8373C34.4539 26.1563 37.1681 28.7562 40.4905 28.7562C43.7457 28.7562 46.4566 26.2133 46.6623 22.9671C46.691 22.5163 46.5145 22.2311 46.3614 22.0711C46.0098 21.7037 45.5488 21.7126 45.2446 21.7185C45.2064 21.7192 45.1671 21.7201 45.1272 21.7201H45.0681L41.1134 17.3395C41.0302 17.184 40.899 17.0524 40.7272 16.9716C38.8557 16.0902 36.9704 15.4646 35.1108 15.1057C35.1147 15.0371 35.117 14.968 35.117 14.8983C35.117 12.8628 33.4424 11.2068 31.3839 11.2068C29.3253 11.2068 27.6507 12.8628 27.6507 14.8983C27.6507 14.9595 27.6524 15.0202 27.6553 15.0806C25.7728 15.4355 23.8835 16.0712 22.0269 16.9765C21.8597 17.0581 21.7321 17.1876 21.6507 17.3401L17.6994 21.7201H17.6372C17.5977 21.7201 17.5589 21.7193 17.5209 21.7185C17.2161 21.7126 16.7554 21.7037 16.4032 22.0716C16.25 22.2315 16.0735 22.5168 16.1022 22.968C16.3117 26.2137 19.024 28.7562 22.2772 28.7562C25.5996 28.7562 28.3138 26.1563 28.4563 22.8373C28.4564 22.8348 28.4565 22.8322 28.4565 22.8296C28.4701 22.4277 28.3024 22.1716 28.1592 22.0276C27.8334 21.7 27.4147 21.7119 27.1895 21.7182C27.1613 21.7189 27.1318 21.7197 27.1019 21.7199L23.7817 18.0421C25.2287 17.4221 26.6882 16.979 28.1388 16.7198C28.6464 17.6006 29.5096 18.2554 30.5342 18.4922V31.5816H29.0654C27.485 31.5816 26.1993 32.8673 26.1993 34.4478V35.6148H18.1865C17.7173 35.6148 17.3369 35.9952 17.3369 36.4644C17.3369 36.9336 17.7173 37.314 18.1865 37.314H44.4402C44.9094 37.314 45.2898 36.9336 45.2898 36.4644C45.2898 35.9952 44.9094 35.6148 44.4402 35.6148H36.7708V34.4477C36.7708 32.8672 35.4836 31.5814 33.9015 31.5814H32.2337V18.4921C33.2497 18.2573 34.1069 17.6115 34.6162 16.7418C36.0543 17.0057 37.5138 17.4447 38.9738 18.0527L35.6657 21.7199C35.6357 21.7197 35.6064 21.7189 35.5782 21.7182V21.7182ZM22.2776 27.057C20.1085 27.057 18.2707 25.4988 17.87 23.4193H26.6834C26.287 25.5048 24.4638 27.057 22.2776 27.057V27.057ZM24.8134 21.7201H19.9883L22.4001 19.0465L24.8134 21.7201ZM33.9016 33.2807C34.5468 33.2807 35.0717 33.8042 35.0717 34.4477V35.6147H27.8989V34.4477C27.8989 33.8042 28.4223 33.2807 29.0658 33.2807H33.9016ZM31.3841 16.8906C30.2626 16.8906 29.3501 15.9968 29.3501 14.8983C29.3501 13.7998 30.2625 12.906 31.3841 12.906C32.5057 12.906 33.418 13.7998 33.418 14.8983C33.418 15.9968 32.5057 16.8906 31.3841 16.8906ZM40.3658 19.0465L42.7792 21.7201H37.954L40.3658 19.0465ZM44.8957 23.4193C44.4972 25.499 42.6607 27.057 40.4906 27.057C38.3044 27.057 36.4813 25.5048 36.0848 23.4193H44.8957Z" fill="#095783"/>
<path d="M52.2238 27.3047C52.693 27.3047 53.0734 26.9243 53.0734 26.4551V6.00662C53.0734 4.99638 52.2516 4.17441 51.2412 4.17441H48.0957V1.85441C48.0957 0.831938 47.2639 0 46.2413 0H6.78093C5.75845 0 4.92651 0.831938 4.92651 1.85441V24.6885C4.92651 25.1577 5.30691 25.5381 5.77612 25.5381C6.24533 25.5381 6.62573 25.1577 6.62573 24.6885V1.85441C6.62573 1.77172 6.69823 1.69922 6.78093 1.69922H46.2414C46.324 1.69922 46.3966 1.77172 46.3966 1.85441V4.17441H11.7359C10.7256 4.17441 9.90364 4.99627 9.90364 6.00662V52.123H6.78093C6.69835 52.123 6.62573 52.0505 6.62573 51.9678V28.6103C6.62573 28.1411 6.24533 27.7607 5.77612 27.7607C5.30691 27.7607 4.92651 28.1411 4.92651 28.6103V51.9678C4.92651 52.9903 5.75834 53.8222 6.78093 53.8222H9.90353V56.1678C9.90353 57.178 10.7254 58 11.7357 58H51.2412C52.2515 58 53.0734 57.1781 53.0734 56.1678V31.0888C53.0734 30.6196 52.693 30.2392 52.2238 30.2392C51.7546 30.2392 51.3742 30.6196 51.3742 31.0888V56.1678C51.3742 56.2386 51.3121 56.3008 51.2412 56.3008H11.7359C11.665 56.3008 11.6029 56.2387 11.6029 56.1678V52.9836C11.6029 52.9799 11.6034 52.9763 11.6034 52.9726C11.6034 52.9688 11.603 52.9653 11.6029 52.9616V6.00662C11.6029 5.93582 11.6649 5.87363 11.7359 5.87363H51.2413C51.3121 5.87363 51.3743 5.93571 51.3743 6.00662V26.4551C51.3742 26.9243 51.7546 27.3047 52.2238 27.3047V27.3047Z" fill="#095783"/>
</svg>
