<svg width="58" height="58" viewBox="0 0 58 58" fill="none" xmlns="http://www.w3.org/2000/svg">
<path d="M24.4688 39.5441C23.8706 39.6071 23.2725 39.6432 22.6562 39.6432V37.1565C22.6562 36.4717 22.2666 35.85 21.6503 35.5437L20.0372 34.7328C19.4209 34.4265 19.0312 33.8048 19.0312 33.1201V32.4353C19.0312 31.4442 18.2156 30.6334 17.2188 30.6334H15.4062C14.4094 30.6334 13.5938 29.8225 13.5938 28.8314C13.5938 28.3359 13.7931 27.8854 14.1284 27.561C14.4547 27.2276 14.9078 27.0294 15.4062 27.0294H17.2188C18.2156 27.0294 19.0312 26.2185 19.0312 25.2275C19.0312 24.7319 18.8319 24.2814 18.4966 23.9571C18.1703 23.6237 17.7172 23.4255 17.2188 23.4255H5.46469H5.45562C5.44656 23.1282 5.4375 22.8218 5.4375 22.5245C5.4375 21.6055 5.51 20.7045 5.655 19.8216H16.4666C17.8803 19.8216 19.0312 18.6773 19.0312 17.2718C19.0312 16.5961 18.7594 15.9474 18.2791 15.4698L17.0647 14.2625C16.5844 13.785 16.3125 13.1363 16.3125 12.4606V11.8659C16.3125 11.1902 16.0406 10.5415 15.5603 10.064L13.5122 8.02774C16.1584 6.36092 19.3031 5.40588 22.6562 5.40588C25.9822 5.40588 29.0906 6.3429 31.7188 7.96467V9.00981H25.2209C24.5141 9.00981 23.8706 9.29812 23.4084 9.75762C22.9462 10.2171 22.6562 10.8568 22.6562 11.5596C22.6562 12.2353 22.9281 12.884 23.4084 13.3615L25.5291 15.4698C26.0094 15.9474 26.2812 16.5961 26.2812 17.2718V19.0738C26.2812 20.4793 27.4322 21.6235 28.8459 21.6235H30.2688C31.1659 21.6235 31.9997 22.0921 32.4619 22.8579L34.1384 25.6239C34.3287 25.9573 34.4375 26.3267 34.4375 26.7141C34.4375 27.8854 33.4859 28.8314 32.3078 28.8314H28.0938C27.5953 28.8314 27.1422 29.0296 26.8159 29.363C26.4806 29.6873 26.2812 30.1378 26.2812 30.6334C26.2812 31.6244 27.0969 32.4353 28.0938 32.4353H29.6525C30.3594 32.4353 31.0028 32.8498 31.3019 33.4895L32.6703 36.4447C30.3141 38.1295 27.5047 39.2287 24.4688 39.5441V39.5441Z" fill="#ADDCF6"/>
<path d="M22.6562 37.1565V39.6432C22.0399 39.6432 21.4418 39.6072 20.8437 39.5441C12.479 38.6791 5.89963 31.8587 5.45557 23.4255H5.46463H17.2187C17.7171 23.4255 18.1703 23.6238 18.4965 23.9571C18.8318 24.2815 19.0312 24.732 19.0312 25.2275C19.0312 26.2186 18.2156 27.0295 17.2187 27.0295H15.4062C14.9078 27.0295 14.4546 27.2277 14.1284 27.561C13.7931 27.8854 13.5937 28.3359 13.5937 28.8314C13.5937 29.8225 14.4093 30.6334 15.4062 30.6334H17.2187C18.2156 30.6334 19.0312 31.4443 19.0312 32.4353V33.1201C19.0312 33.8048 19.4209 34.4265 20.0371 34.7329L21.6502 35.5437C22.2665 35.8501 22.6562 36.4717 22.6562 37.1565V37.1565Z" fill="#B5D988"/>
<path d="M18.2791 15.4699C18.7594 15.9475 19.0313 16.5962 19.0313 17.2719C19.0313 18.6774 17.8803 19.8217 16.4666 19.8217H5.65503C6.44347 14.8483 9.38878 10.5956 13.5122 8.02783L15.5603 10.064C16.0407 10.5416 16.3125 11.1903 16.3125 11.866V12.4607C16.3125 13.1364 16.5844 13.7851 17.0647 14.2626L18.2791 15.4699Z" fill="#B5D988"/>
<path d="M36.6941 12.6138C38.6969 15.4069 39.875 18.8306 39.875 22.5246C39.875 28.2639 37.0294 33.3454 32.6703 36.4448L31.3019 33.4895C31.0028 32.8498 30.3594 32.4354 29.6525 32.4354H28.0938C27.0969 32.4354 26.2812 31.6245 26.2812 30.6334C26.2812 30.1379 26.4806 29.6874 26.8159 29.3631C27.1422 29.0297 27.5953 28.8315 28.0938 28.8315H32.3078C33.4859 28.8315 34.4375 27.8854 34.4375 26.7142C34.4375 26.3267 34.3287 25.9573 34.1384 25.624L32.4619 22.858C31.9997 22.0921 31.1659 21.6236 30.2688 21.6236H28.8459C27.4322 21.6236 26.2812 20.4794 26.2812 19.0738V17.2719C26.2812 16.5961 26.0094 15.9474 25.5291 15.4699L23.4084 13.3616C22.9281 12.8841 22.6562 12.2354 22.6562 11.5597C22.6562 10.8569 22.9462 10.2172 23.4084 9.7577C23.8706 9.2982 24.5141 9.00989 25.2209 9.00989H31.7188V15.1005C31.7188 15.7222 32.2172 16.2177 32.8425 16.2177C33.2594 16.2177 33.6491 15.9835 33.8394 15.6051L35.3438 12.6138H36.6941Z" fill="#B5D988"/>
<path d="M30.8125 49.554V53.1579C30.8125 54.6535 27.1603 55.8608 22.6562 55.8608C18.1522 55.8608 14.5 54.6535 14.5 53.1579V49.554C14.5 51.0496 18.1522 52.2569 22.6562 52.2569C27.1603 52.2569 30.8125 51.0496 30.8125 49.554Z" fill="#F37B60"/>
<path d="M24.4688 46.9231C28.1028 47.1934 30.8125 48.2656 30.8125 49.554C30.8125 51.0496 27.1603 52.2569 22.6562 52.2569C18.1522 52.2569 14.5 51.0496 14.5 49.554C14.5 48.2656 17.2097 47.1934 20.8438 46.9231V48.653H24.4688V46.9231Z" fill="#F39B88"/>
<path d="M24.4688 46.9231V48.653H20.8438V46.9231V43.166V39.5441C21.4419 39.6071 22.04 39.6432 22.6562 39.6432C23.2725 39.6432 23.8706 39.6071 24.4688 39.5441V46.9231Z" fill="#E6F7FA"/>
<path d="M31.7188 9.00985V7.96471V3.60396C31.7188 2.61289 32.5344 1.802 33.5312 1.802H49.8438C50.8406 1.802 51.6562 2.61289 51.6562 3.60396V10.8118C51.6562 11.8029 50.8406 12.6138 49.8438 12.6138H36.6941H35.3438L33.8394 15.605C33.6491 15.9834 33.2594 16.2177 32.8425 16.2177C32.2172 16.2177 31.7188 15.7222 31.7188 15.1005V9.00985Z" fill="#E6F7FA"/>
<path d="M56.1875 23.4255V25.2275H52.5625H48.9375H45.3125V23.4255C45.3125 21.9299 45.9197 20.5784 46.9075 19.6054C47.8862 18.6233 49.2456 18.0197 50.75 18.0197C53.7497 18.0197 56.1875 20.4433 56.1875 23.4255V23.4255Z" fill="#ADDCF6"/>
<path d="M56.1875 46.8511L52.0641 55.059C51.8103 55.5455 51.3028 55.8609 50.75 55.8609C50.1972 55.8609 49.6897 55.5455 49.4359 55.059L45.3125 46.8511H48.9375H52.5625H56.1875Z" fill="#ADDCF6"/>
<path d="M52.5625 25.2275H56.1875V46.8511H52.5625V25.2275Z" fill="#F39B88"/>
<path d="M45.3125 25.2275H48.9375V46.8511H45.3125V25.2275Z" fill="#F39B88"/>
<path d="M48.9375 25.2275H52.5625V46.8511H48.9375V25.2275Z" fill="#F4D279"/>
<path d="M50.75 17.1187C47.2528 17.1187 44.4062 19.9486 44.4062 23.4255V47.0637L48.6276 55.4581C49.0327 56.2618 49.8465 56.7618 50.75 56.7618C51.6535 56.7618 52.4673 56.2618 52.8724 55.4581L57.0938 47.0637V23.4255C57.0938 19.9486 54.2472 17.1187 50.75 17.1187V17.1187ZM50.75 18.9206C53.2485 18.9206 55.2812 20.9415 55.2812 23.4255V24.3265H46.2188V23.4255C46.2188 20.9415 48.2515 18.9206 50.75 18.9206ZM53.4688 45.95V26.1285H55.2812V45.95H53.4688ZM46.2188 45.95V26.1285H48.0312V45.95H46.2188ZM49.8438 26.1285H51.6562V45.95H49.8438V26.1285ZM51.2512 54.6508C51.0599 55.0328 50.4401 55.0319 50.2498 54.6517L46.7788 47.752H54.7212L51.2512 54.6508Z" fill="#095783"/>
<path d="M49.8438 13.5147C51.3427 13.5147 52.5625 12.302 52.5625 10.8118V3.60394C52.5625 2.11372 51.3427 0.901001 49.8438 0.901001H33.5312C32.0323 0.901001 30.8125 2.11372 30.8125 3.60394V6.43933C28.5614 5.3104 26.0964 4.6617 23.5625 4.53646V0.901001H22.6562C10.6638 0.901001 0.90625 10.6019 0.90625 22.5245C0.90625 33.3706 9.20388 42.6128 19.9375 43.9553V46.1023C16.7321 46.4636 13.5938 47.5259 13.5938 49.5531V53.157C13.5938 55.6329 18.2918 56.7609 22.6562 56.7609C27.0207 56.7609 31.7188 55.6329 31.7188 53.157V49.5531C31.7188 47.525 28.5804 46.4627 25.375 46.1023V40.318C34.0804 39.0071 40.7812 31.5389 40.7812 22.5236C40.7812 19.3261 39.9393 16.2447 38.3462 13.5138H49.8438V13.5147ZM32.625 3.60394C32.625 3.1066 33.031 2.70296 33.5312 2.70296H49.8438C50.344 2.70296 50.75 3.1066 50.75 3.60394V10.8118C50.75 11.3091 50.344 11.7128 49.8438 11.7128H34.7837L33.031 15.1978C32.9413 15.3762 32.625 15.3014 32.625 15.1041V3.60394ZM22.7659 13.9968L24.8902 16.1087C25.1983 16.415 25.375 16.8394 25.375 17.2736V19.0756C25.375 20.9767 26.9319 22.5245 28.8441 22.5245H30.2669C30.846 22.5245 31.3898 22.8309 31.6879 23.3246L33.3572 26.0906C33.4714 26.2789 33.5312 26.4943 33.5312 26.7141C33.5312 27.3844 32.983 27.9304 32.3078 27.9304H28.0938C26.5948 27.9304 25.375 29.1432 25.375 30.6334C25.375 32.1236 26.5948 33.3363 28.0938 33.3363H29.6507C30.0041 33.3363 30.3267 33.5426 30.4736 33.8616L31.5176 36.1213C29.2021 37.6178 26.4842 38.535 23.5625 38.6963V37.1529C23.5625 36.1222 22.9861 35.1959 22.0599 34.7346L20.4387 33.9283C20.1296 33.776 19.9375 33.4679 19.9375 33.1237V32.4353C19.9375 30.9451 18.7177 29.7324 17.2188 29.7324H15.4062C14.906 29.7324 14.5 29.3288 14.5 28.8314C14.5 28.3341 14.906 27.9304 15.4062 27.9304H17.2188C18.7177 27.9304 19.9375 26.7177 19.9375 25.2275C19.9375 23.7373 18.7177 22.5245 17.2188 22.5245H6.34375C6.34375 21.9146 6.38453 21.3154 6.45069 20.7226H16.4684C18.3806 20.7226 19.9375 19.1747 19.9375 17.2736C19.9375 16.3528 19.5768 15.4861 18.9216 14.8347L17.7036 13.6238C17.3955 13.3174 17.2188 12.8931 17.2188 12.4588V11.8677C17.2188 10.9469 16.8581 10.0802 16.2028 9.42879L14.9867 8.21967C17.2749 7.00245 19.8849 6.30689 22.6562 6.30689C25.2699 6.30689 27.8255 6.93037 30.1256 8.10885H25.2191C23.3069 8.10885 21.75 9.65674 21.75 11.5578C21.75 12.4795 22.1107 13.3463 22.7659 13.9968V13.9968ZM13.398 9.18823L14.9214 10.7028C15.2295 11.0091 15.4062 11.4335 15.4062 11.8677V12.4588C15.4062 13.3796 15.7669 14.2463 16.4222 14.8977L17.6402 16.1087C17.9483 16.415 18.125 16.8394 18.125 17.2736C18.125 18.1818 17.3819 18.9206 16.4684 18.9206H6.76425C7.68409 14.9095 10.0965 11.4605 13.398 9.18823V9.18823ZM15.4062 31.5344H17.2188C17.719 31.5344 18.125 31.938 18.125 32.4353V33.1237C18.125 34.1544 18.7014 35.0806 19.6276 35.5419L21.2488 36.3483C21.5579 36.5006 21.75 36.8087 21.75 37.1529V38.6963C13.7832 38.2584 7.32341 32.1272 6.45069 24.3265H17.2188C17.719 24.3265 18.125 24.7301 18.125 25.2275C18.125 25.7248 17.719 26.1285 17.2188 26.1285H15.4062C13.9073 26.1285 12.6875 27.3412 12.6875 28.8314C12.6875 30.3216 13.9073 31.5344 15.4062 31.5344V31.5344ZM2.71875 22.5245C2.71875 11.8966 11.1759 3.1967 21.75 2.72278V4.54997C12.1782 5.02479 4.53125 12.8922 4.53125 22.5245C4.53125 31.5398 11.2321 39.008 19.9375 40.3189V42.1398C10.208 40.8082 2.71875 32.3912 2.71875 22.5245ZM22.6562 54.9599C17.8993 54.9599 15.4062 53.621 15.4062 53.1579V51.8281C17.1725 52.7299 19.9747 53.1579 22.6562 53.1579C25.3378 53.1579 28.14 52.7299 29.9062 51.8281V53.1579C29.9062 53.621 27.4132 54.9599 22.6562 54.9599V54.9599ZM29.9062 49.554C29.9062 50.0171 27.4132 51.3559 22.6562 51.3559C17.8993 51.3559 15.4062 50.0171 15.4062 49.554C15.4062 49.2242 16.8227 48.3052 19.9375 47.9232V49.554H25.375V47.9232C28.4898 48.3052 29.9062 49.2242 29.9062 49.554ZM23.5625 47.752H21.75V40.4982C22.0518 40.5135 22.3499 40.5442 22.6562 40.5442C22.9626 40.5442 23.2607 40.5135 23.5625 40.4982V47.752ZM38.9688 22.5245C38.9688 27.5601 36.6478 32.0659 33.0138 35.0437L32.1211 33.1102C31.6798 32.1533 30.7101 31.5344 29.6507 31.5344H28.0938C27.5935 31.5344 27.1875 31.1307 27.1875 30.6334C27.1875 30.136 27.5935 29.7324 28.0938 29.7324H32.3078C33.9817 29.7324 35.3438 28.3782 35.3438 26.7141C35.3438 26.1672 35.1942 25.6293 34.9106 25.1617L33.2422 22.3966C32.6187 21.3641 31.4777 20.7226 30.2669 20.7226H28.8441C27.9306 20.7226 27.1875 19.9838 27.1875 19.0756V17.2736C27.1875 16.3528 26.8268 15.4861 26.1716 14.8347L24.0473 12.7228C23.7392 12.4164 23.5625 11.9921 23.5625 11.5578C23.5625 10.6496 24.3056 9.91081 25.2191 9.91081H30.8125V15.1041C30.8125 16.215 31.7215 17.1187 32.8389 17.1187C33.611 17.1187 34.3043 16.6916 34.6514 16.005L35.9038 13.5147H36.2092C38.0099 16.1852 38.9688 19.2873 38.9688 22.5245V22.5245Z" fill="#095783"/>
<path d="M34.4375 4.50488H36.25V6.30685H34.4375V4.50488Z" fill="#095783"/>
<path d="M38.0625 4.50488H48.9375V6.30685H38.0625V4.50488Z" fill="#095783"/>
<path d="M34.4375 8.10889H48.9375V9.91085H34.4375V8.10889Z" fill="#095783"/>
</svg>
