<svg width="58" height="58" viewBox="0 0 58 58" fill="none" xmlns="http://www.w3.org/2000/svg">
<path d="M40.6702 28.3963C41.3977 27.9892 41.9964 27.3882 42.3988 26.6611C42.8013 25.9339 42.9916 25.1095 42.9481 24.2807C42.9047 23.4518 42.6293 22.6515 42.153 21.9699C41.6768 21.2882 41.0185 20.7523 40.2524 20.4226C40.5879 19.8427 40.7876 19.195 40.8368 18.5278C40.886 17.8605 40.7833 17.1908 40.5364 16.5685C40.2895 15.9461 39.9048 15.387 39.4107 14.9328C38.9167 14.4785 38.3261 14.1407 37.6827 13.9446C37.9272 13.2718 38.0049 12.5504 37.9093 11.8415C37.8137 11.1326 37.5476 10.457 37.1336 9.87206C36.7195 9.28711 36.1698 8.81001 35.5308 8.4812C34.8919 8.1524 34.1827 7.98157 33.4632 7.98321C33.451 7.98321 33.4392 7.98321 33.427 7.98321C33.532 7.34508 33.4962 6.69187 33.3221 6.06886C33.148 5.44584 32.8397 4.86792 32.4186 4.37514C31.9974 3.88237 31.4736 3.48653 30.8833 3.21506C30.2929 2.94359 29.6503 2.80298 28.9999 2.80298C28.3495 2.80298 27.7069 2.94359 27.1166 3.21506C26.5263 3.48653 26.0024 3.88237 25.5813 4.37514C25.1602 4.86792 24.8519 5.44584 24.6777 6.06886C24.5036 6.69187 24.4678 7.34508 24.5729 7.98321C24.5607 7.98321 24.5489 7.98321 24.5366 7.98321C23.8173 7.98163 23.1082 8.15245 22.4693 8.4812C21.8305 8.80996 21.2808 9.28697 20.8668 9.8718C20.4528 10.4566 20.1866 11.1321 20.091 11.8409C19.9953 12.5497 20.0729 13.271 20.3171 13.9437C19.6738 14.1398 19.0832 14.4776 18.5891 14.9319C18.0951 15.3861 17.7103 15.9452 17.4634 16.5676C17.2166 17.1899 17.1139 17.8596 17.1631 18.5269C17.2122 19.1941 17.412 19.8418 17.7475 20.4217C16.9814 20.7514 16.3231 21.2873 15.8468 21.969C15.3705 22.6506 15.0952 23.4509 15.0517 24.2798C15.0083 25.1086 15.1985 25.933 15.601 26.6602C16.0035 27.3873 16.6022 27.9883 17.3297 28.3954C16.6991 29.0175 16.2685 29.8118 16.0926 30.6776C15.9166 31.5433 16.0031 32.4415 16.3412 33.2583C16.6793 34.075 17.2537 34.7736 17.9917 35.2654C18.7296 35.7573 19.5978 36.0202 20.4862 36.0208C20.608 36.0208 20.7277 36.0123 20.8487 36.0028C20.6129 37.0269 20.7488 38.1009 21.2323 39.0351C21.7157 39.9693 22.5157 40.7036 23.4909 41.1082C24.466 41.5129 25.5537 41.562 26.5617 41.2468C27.5698 40.9316 28.4333 40.2724 28.9999 39.3856C29.5649 40.2754 30.4285 40.9376 31.4377 41.2549C32.447 41.5721 33.5365 41.5238 34.5134 41.1187C35.4902 40.7135 36.2912 39.9775 36.7744 39.0413C37.2575 38.105 37.3917 37.0289 37.153 36.0037C37.2722 36.0132 37.3918 36.0217 37.5155 36.0217C38.4039 36.0211 39.2721 35.7582 40.01 35.2663C40.7479 34.7745 41.3223 34.0759 41.6604 33.2592C41.9985 32.4424 42.0851 31.5442 41.9091 30.6785C41.7331 29.8127 41.3026 29.0185 40.672 28.3963H40.6702Z" fill="#B5D988"/>
<path d="M28.9999 39.3855C28.4822 40.1929 27.7176 40.8139 26.8186 41.1573V54.822H31.1813V41.1573C30.2823 40.8139 29.5177 40.1929 28.9999 39.3855V39.3855Z" fill="#F37B60"/>
<path d="M55.1426 27.3844C55.1425 26.6786 54.9348 25.9883 54.545 25.3983C54.1553 24.8084 53.6005 24.3447 52.949 24.0643C53.2212 23.5937 53.3834 23.0681 53.4234 22.5267C53.4633 21.9852 53.3801 21.4417 53.1798 20.9366C52.9796 20.4315 52.6675 19.9778 52.2667 19.609C51.8659 19.2403 51.3866 18.966 50.8646 18.8066C51.0631 18.2608 51.1262 17.6754 51.0487 17.1001C50.9712 16.5249 50.7553 15.9767 50.4193 15.502C50.0833 15.0274 49.6371 14.6403 49.1186 14.3735C48.6001 14.1068 48.0246 13.9682 47.4408 13.9697C47.4308 13.9697 47.4209 13.9697 47.4109 13.9697C47.4961 13.4519 47.4671 12.9218 47.3258 12.4162C47.1845 11.9106 46.9343 11.4416 46.5926 11.0417C46.2508 10.6418 45.8257 10.3206 45.3466 10.1003C44.8676 9.87997 44.3461 9.76587 43.8183 9.76587C43.2905 9.76587 42.769 9.87997 42.2899 10.1003C41.8109 10.3206 41.3858 10.6418 41.044 11.0417C40.7023 11.4416 40.4521 11.9106 40.3108 12.4162C40.1695 12.9218 40.1404 13.4519 40.2257 13.9697C40.2157 13.9697 40.2057 13.9697 40.1958 13.9697C39.641 13.9689 39.0935 14.0946 38.5953 14.3373V14.3373C39.1065 14.6278 39.555 15.0157 39.9151 15.4788C40.2752 15.9419 40.5399 16.471 40.6939 17.036C40.848 17.6009 40.8884 18.1906 40.8129 18.7711C40.7373 19.3516 40.5474 19.9116 40.2538 20.4189C41.0199 20.7487 41.6782 21.2845 42.1544 21.9662C42.6307 22.6478 42.9061 23.4481 42.9495 24.277C42.993 25.1058 42.8027 25.9303 42.4002 26.6574C41.9978 27.3846 41.3991 27.9855 40.6716 28.3926C41.3021 29.0148 41.7327 29.8091 41.9087 30.6748C42.0847 31.5405 41.9981 32.4387 41.66 33.2555C41.3219 34.0723 40.7475 34.7708 40.0096 35.2627C39.2717 35.7545 38.4035 36.0174 37.5151 36.0181C37.4322 36.0181 37.3506 36.0113 37.2695 36.0059L37.2396 36.4911C37.2596 36.6578 37.2697 36.8255 37.2699 36.9934C37.2687 37.3383 37.2272 37.6819 37.1462 38.0174V38.0327C37.2525 38.7638 37.5814 39.445 38.0888 39.9847C38.5961 40.5244 39.2575 40.8967 39.984 41.0516C40.7105 41.2064 41.4673 41.1363 42.1526 40.8508C42.8379 40.5653 43.4188 40.078 43.8171 39.4544C44.2757 40.1763 44.9765 40.7134 45.7954 40.9707C46.6142 41.2279 47.4982 41.1887 48.2908 40.8599C49.0833 40.5312 49.7332 39.9341 50.1253 39.1745C50.5173 38.4149 50.6263 37.5418 50.4328 36.71C50.5297 36.7177 50.6272 36.7249 50.7259 36.7249C51.4473 36.7251 52.1525 36.5122 52.7519 36.1132C53.3513 35.7141 53.8179 35.147 54.0924 34.4837C54.3669 33.8205 54.4369 33.0911 54.2936 32.3882C54.1503 31.6853 53.8001 31.0406 53.2875 30.5361C53.8501 30.2216 54.3184 29.7639 54.6444 29.2101C54.9704 28.6562 55.1423 28.0261 55.1426 27.3844Z" fill="#B5D988"/>
<path d="M43.817 39.4545C43.3969 40.1096 42.7766 40.6136 42.0471 40.8924V54.8221H45.5874V40.8924C44.8579 40.6135 44.2374 40.1096 43.817 39.4545V39.4545Z" fill="#F37B60"/>
<path d="M20.7311 36.997C20.7314 36.8291 20.7415 36.6614 20.7615 36.4947L20.7316 36.0095C20.6505 36.0149 20.5689 36.0217 20.486 36.0217C19.5976 36.021 18.7294 35.7581 17.9915 35.2663C17.2536 34.7744 16.6792 34.0759 16.3411 33.2591C16.003 32.4423 15.9164 31.5441 16.0924 30.6784C16.2684 29.8127 16.6989 29.0184 17.3295 28.3962C16.602 27.9891 16.0033 27.3882 15.6008 26.661C15.1984 25.9339 15.0081 25.1094 15.0516 24.2806C15.095 23.4517 15.3704 22.6514 15.8466 21.9698C16.3229 21.2881 16.9812 20.7523 17.7473 20.4225C17.4537 19.9152 17.2637 19.3552 17.1882 18.7747C17.1127 18.1942 17.1531 17.6045 17.3072 17.0396C17.4612 16.4746 17.7259 15.9455 18.086 15.4824C18.4461 15.0193 18.8946 14.6314 19.4057 14.3409V14.3409C18.9086 14.0973 18.3618 13.9704 17.8076 13.9697C17.7976 13.9697 17.7876 13.9697 17.7777 13.9697C17.8629 13.4519 17.8339 12.9218 17.6926 12.4162C17.5513 11.9106 17.3011 11.4416 16.9593 11.0417C16.6176 10.6418 16.1925 10.3206 15.7134 10.1003C15.2344 9.87997 14.7129 9.76587 14.1851 9.76587C13.6573 9.76587 13.1358 9.87997 12.6567 10.1003C12.1777 10.3206 11.7525 10.6418 11.4108 11.0417C11.069 11.4416 10.8188 11.9106 10.6775 12.4162C10.5362 12.9218 10.5072 13.4519 10.5925 13.9697C10.5825 13.9697 10.5725 13.9697 10.5626 13.9697C9.97857 13.9679 9.40275 14.1061 8.88395 14.3727C8.36516 14.6393 7.9187 15.0264 7.58246 15.5011C7.24621 15.9758 7.0301 16.5241 6.95247 17.0996C6.87483 17.675 6.93795 18.2606 7.13648 18.8066C6.61445 18.966 6.13523 19.2403 5.73442 19.609C5.3336 19.9778 5.02149 20.4315 4.82124 20.9366C4.62099 21.4417 4.53777 21.9852 4.57773 22.5267C4.6177 23.0681 4.77984 23.5937 5.05211 24.0643C4.43006 24.3317 3.89549 24.7665 3.50868 25.3197C3.12187 25.8729 2.89819 26.5225 2.86286 27.1954C2.82753 27.8682 2.98195 28.5375 3.30871 29.1277C3.63548 29.718 4.1216 30.2058 4.71226 30.5361C4.19964 31.0406 3.84942 31.6853 3.7061 32.3882C3.56278 33.0911 3.63282 33.8205 3.90733 34.4837C4.18184 35.1469 4.64842 35.7141 5.24782 36.1132C5.84723 36.5122 6.5524 36.7251 7.27378 36.7249C7.37256 36.7249 7.46998 36.7177 7.56695 36.71C7.37553 37.5412 7.48577 38.413 7.8782 39.1712C8.27062 39.9294 8.91998 40.5254 9.71155 40.8538C10.5031 41.1821 11.3859 41.2218 12.2041 40.9657C13.0222 40.7097 13.723 40.1744 14.1826 39.4544C14.5805 40.0786 15.1611 40.5665 15.8464 40.8527C16.5317 41.1389 17.2887 41.2094 18.0156 41.055C18.7424 40.9005 19.4042 40.5284 19.9119 39.9887C20.4196 39.449 20.7489 38.7676 20.8553 38.0363V38.021C20.7742 37.6856 20.7326 37.3419 20.7311 36.997V36.997Z" fill="#B5D988"/>
<path d="M14.1827 39.4545C13.7623 40.1096 13.1419 40.6135 12.4124 40.8924V54.8221H15.9526V40.8924C15.2232 40.6136 14.6028 40.1096 14.1827 39.4545V39.4545Z" fill="#F37B60"/>
<path d="M26.8191 46.6934C26.6088 46.6934 26.4071 46.7764 26.2584 46.9243C26.1097 47.0721 26.0261 47.2726 26.0261 47.4817V49.5089C26.0261 49.718 26.1097 49.9185 26.2584 50.0664C26.4071 50.2142 26.6088 50.2973 26.8191 50.2973C27.0294 50.2973 27.2311 50.2142 27.3798 50.0664C27.5285 49.9185 27.6121 49.718 27.6121 49.5089V47.4817C27.6119 47.2727 27.5284 47.0722 27.3797 46.9244C27.231 46.7766 27.0294 46.6935 26.8191 46.6934Z" fill="#095783"/>
<path d="M46.8874 41.9236C48.0626 41.9215 49.189 41.4565 50.0199 40.6303C50.8508 39.8042 51.3185 38.6843 51.3204 37.516V37.4736C52.0627 37.3735 52.7674 37.0881 53.3687 36.644C53.9701 36.2 54.4485 35.6117 54.7594 34.9341C55.0703 34.2565 55.2035 33.5117 55.1465 32.7691C55.0896 32.0265 54.8444 31.3103 54.4338 30.6874C54.9424 30.2419 55.3414 29.6863 55.6 29.0633C55.8586 28.4403 55.97 27.7667 55.9255 27.0942C55.8811 26.4217 55.6819 25.7683 55.3435 25.1844C55.0051 24.6004 54.5363 24.1015 53.9734 23.726C54.3308 22.7193 54.3079 21.6178 53.9092 20.6265C53.5105 19.6353 52.7631 18.8219 51.8061 18.3377C51.8501 18.0904 51.8722 17.8397 51.8723 17.5885C51.8705 16.5599 51.5073 15.5643 50.8453 14.7738C50.1834 13.9832 49.2644 13.4475 48.2473 13.2593C48.2078 12.1178 47.7242 11.0362 46.8983 10.2423C46.0724 9.44841 44.9687 9.00429 43.8199 9.00353C42.6711 9.00277 41.5669 9.44543 40.7399 10.2382C39.9129 11.031 39.4279 12.112 39.3869 13.2534C39.1317 13.3032 38.8815 13.3754 38.6392 13.4692V13.4692C38.708 13.1314 38.7428 12.7877 38.743 12.443C38.741 11.1926 38.2904 9.98386 37.4722 9.0342C36.654 8.08455 35.5218 7.45628 34.2792 7.26237C34.28 5.87046 33.7246 4.53525 32.7352 3.55047C31.7457 2.56569 30.4033 2.01201 29.0033 2.01123C27.6032 2.01045 26.2602 2.56265 25.2697 3.54633C24.2791 4.53001 23.7222 5.8646 23.7214 7.25652C22.4784 7.45125 21.3459 8.08044 20.5277 9.03097C19.7095 9.9815 19.2592 11.191 19.2577 12.4421C19.2579 12.7872 19.2929 13.1315 19.3619 13.4697V13.4697C19.1197 13.3761 18.8695 13.3045 18.6143 13.2557C18.5724 12.1154 18.0874 11.0357 17.2612 10.2437C16.435 9.45173 15.332 9.00918 14.1843 9.00918C13.0366 9.00918 11.9336 9.45173 11.1074 10.2437C10.2812 11.0357 9.79614 12.1154 9.75431 13.2557C8.73664 13.4447 7.8174 13.9814 7.15549 14.7728C6.49358 15.5642 6.1306 16.5606 6.12931 17.5899C6.12937 17.841 6.1515 18.0917 6.19546 18.339C5.23844 18.8229 4.49084 19.636 4.09182 20.6269C3.6928 21.6179 3.66953 22.7193 4.02635 23.726C3.46344 24.1015 2.99471 24.6004 2.65627 25.1844C2.31784 25.7683 2.11871 26.4217 2.07424 27.0942C2.02977 27.7667 2.14113 28.4403 2.39975 29.0633C2.65838 29.6863 3.05736 30.2419 3.56598 30.6874C3.15539 31.3103 2.91019 32.0265 2.85326 32.7691C2.79632 33.5117 2.9295 34.2565 3.24036 34.9341C3.55123 35.6117 4.02967 36.2 4.63103 36.644C5.2324 37.0881 5.9371 37.3735 6.6794 37.4736V37.516C6.68132 38.6843 7.14896 39.8042 7.97986 40.6303C8.81077 41.4565 9.93718 41.9215 11.1123 41.9236C11.282 41.9227 11.4514 41.912 11.6198 41.8916V54.0332H2.85774C2.64743 54.0332 2.44574 54.1163 2.29703 54.2641C2.14832 54.412 2.06477 54.6125 2.06477 54.8216C2.06477 55.0306 2.14832 55.2312 2.29703 55.379C2.44574 55.5269 2.64743 55.6099 2.85774 55.6099H48.3728C48.5831 55.6099 48.7848 55.5269 48.9335 55.379C49.0822 55.2312 49.1658 55.0306 49.1658 54.8216C49.1658 54.6125 49.0822 54.412 48.9335 54.2641C48.7848 54.1163 48.5831 54.0332 48.3728 54.0332H46.379V41.8916C46.5477 41.912 46.7175 41.9227 46.8874 41.9236V41.9236ZM40.8264 14.4837C40.9008 14.3974 40.9555 14.2961 40.9867 14.1867C41.018 14.0774 41.0252 13.9627 41.0077 13.8503C40.9835 13.7065 40.9708 13.561 40.9696 13.4152C40.9696 12.6645 41.2696 11.9446 41.8035 11.4138C42.3374 10.8829 43.0616 10.5847 43.8166 10.5847C44.5717 10.5847 45.2958 10.8829 45.8297 11.4138C46.3637 11.9446 46.6636 12.6645 46.6636 13.4152C46.6625 13.561 46.6498 13.7065 46.6255 13.8503C46.611 13.9633 46.6211 14.0781 46.655 14.1869C46.6889 14.2957 46.7459 14.396 46.8222 14.481C46.8996 14.5676 46.9946 14.6369 47.1009 14.6842C47.2072 14.7316 47.3224 14.756 47.4389 14.7558C47.8958 14.7543 48.3462 14.8624 48.7521 15.071C49.1579 15.2796 49.5071 15.5825 49.77 15.9539C50.0329 16.3254 50.2017 16.7545 50.2621 17.2047C50.3225 17.6549 50.2727 18.113 50.1169 18.54C50.0807 18.6403 50.0654 18.7468 50.0718 18.8532C50.0781 18.9596 50.1062 19.0636 50.1541 19.1589C50.202 19.2542 50.2689 19.3389 50.3507 19.4078C50.4324 19.4767 50.5274 19.5284 50.6298 19.5599C51.0382 19.6842 51.4132 19.8984 51.7269 20.1866C52.0406 20.4749 52.2849 20.8297 52.4416 21.2248C52.5984 21.6198 52.6636 22.0449 52.6323 22.4684C52.601 22.8919 52.4741 23.303 52.2611 23.671C52.2054 23.7672 52.1708 23.8741 52.1596 23.9845C52.1483 24.0949 52.1606 24.2064 52.1958 24.3118C52.2309 24.4171 52.288 24.5139 52.3634 24.5958C52.4387 24.6777 52.5306 24.7428 52.6331 24.7869C53.1197 24.996 53.5378 25.3362 53.8403 25.7689C54.1429 26.2017 54.3178 26.7099 54.3453 27.2362C54.3729 27.7625 54.252 28.286 53.9963 28.7477C53.7406 29.2094 53.3603 29.5908 52.8982 29.8491C52.7914 29.909 52.7001 29.9927 52.6314 30.0936C52.5627 30.1946 52.5185 30.31 52.5022 30.4307C52.4859 30.5515 52.498 30.6744 52.5375 30.7898C52.5771 30.9051 52.643 31.0098 52.73 31.0956C53.131 31.4903 53.4048 31.9945 53.5168 32.5443C53.6289 33.0941 53.574 33.6645 53.3592 34.1833C53.1444 34.702 52.7794 35.1455 52.3105 35.4575C51.8417 35.7695 51.2901 35.936 50.7259 35.9356C50.6484 35.9356 50.5723 35.9298 50.4966 35.9235C50.3726 35.9136 50.248 35.9329 50.1329 35.9798C50.0178 36.0266 49.9154 36.0998 49.834 36.1933C49.7526 36.2868 49.6945 36.398 49.6644 36.518C49.6342 36.638 49.6329 36.7634 49.6606 36.8839C49.7085 37.0908 49.7333 37.3023 49.7344 37.5146C49.7351 38.1276 49.5354 38.7243 49.1654 39.2147C48.7955 39.7051 48.2752 40.0627 47.6831 40.2337C47.091 40.4046 46.459 40.3797 45.8823 40.1626C45.3057 39.9456 44.8156 39.5481 44.4859 39.0301C44.4142 38.9183 44.3153 38.8262 44.1984 38.7625C44.0814 38.6987 43.9502 38.6653 43.8168 38.6653C43.6835 38.6653 43.5523 38.6987 43.4353 38.7625C43.3184 38.8262 43.2195 38.9183 43.1478 39.0301C42.8431 39.5099 42.4 39.8872 41.8763 40.1129C41.3526 40.3385 40.7726 40.402 40.2121 40.295C39.6515 40.188 39.1365 39.9155 38.7341 39.513C38.3317 39.1106 38.0606 38.5969 37.9564 38.039C38.0265 37.696 38.0621 37.347 38.0624 36.997C38.0624 36.9258 38.0624 36.8546 38.0574 36.7826C38.9721 36.6883 39.8462 36.3582 40.5931 35.8248C41.34 35.2914 41.9339 34.5733 42.3158 33.7416C42.6977 32.9099 42.8544 31.9934 42.7705 31.083C42.6866 30.1725 42.3649 29.2996 41.8374 28.5508C42.4792 28.0228 42.9862 27.3512 43.3167 26.591C43.6472 25.8307 43.7918 25.0035 43.7388 24.1769C43.6857 23.3504 43.4365 22.5481 43.0115 21.8358C42.5865 21.1235 41.9978 20.5214 41.2936 20.0788C41.6373 19.188 41.7303 18.2209 41.5626 17.2815C41.395 16.342 40.973 15.4658 40.3421 14.7468C40.5291 14.7171 40.7002 14.6242 40.8264 14.4837V14.4837ZM32.783 42.2443C33.6298 42.2438 34.4641 42.0404 35.2151 41.6515C35.9661 41.2625 36.6119 40.6994 37.0977 40.0099C37.5056 40.5978 38.0504 41.0789 38.6858 41.4122C39.3213 41.7454 40.0283 41.9209 40.7467 41.9236C40.9162 41.9227 41.0855 41.912 41.2537 41.8916V54.0332H31.9737V42.1763C32.2413 42.2196 32.5119 42.2424 32.783 42.2443V42.2443ZM21.0249 14.2963C21.0729 14.2011 21.101 14.0972 21.1074 13.9909C21.1139 13.8846 21.0986 13.7781 21.0625 13.6778C20.8623 13.1271 20.7979 12.5368 20.8745 11.9563C20.9512 11.3757 21.1667 10.8219 21.503 10.3413C21.8393 9.86062 22.2866 9.46712 22.8074 9.19376C23.3282 8.92039 23.9074 8.77514 24.4963 8.77017C24.623 8.77911 24.75 8.75921 24.8678 8.71198C24.9856 8.66475 25.091 8.59144 25.176 8.49762C25.2503 8.41118 25.305 8.30979 25.3363 8.20039C25.3675 8.091 25.3747 7.97617 25.3572 7.86378C25.3261 7.67748 25.3097 7.48905 25.3083 7.30022C25.3083 6.32647 25.6974 5.39261 26.3899 4.70407C27.0825 4.01554 28.0218 3.62872 29.0012 3.62872C29.9807 3.62872 30.92 4.01554 31.6126 4.70407C32.3051 5.39261 32.6942 6.32647 32.6942 7.30022C32.6927 7.48905 32.6764 7.67748 32.6453 7.86378C32.631 7.97735 32.6414 8.09266 32.6759 8.20186C32.7104 8.31107 32.7681 8.41163 32.8451 8.49672C32.9233 8.5834 33.019 8.65269 33.126 8.70004C33.2329 8.7474 33.3488 8.77176 33.4659 8.77152C34.058 8.77007 34.6418 8.91059 35.1677 9.18117C35.6936 9.45176 36.1462 9.84442 36.487 10.3259C36.8277 10.8073 37.0467 11.3634 37.1254 11.9469C37.204 12.5304 37.1399 13.1242 36.9386 13.6778C36.9026 13.7781 36.8874 13.8846 36.8938 13.9909C36.9003 14.0972 36.9283 14.2011 36.9763 14.2964C37.0242 14.3916 37.091 14.4762 37.1727 14.5451C37.2544 14.614 37.3492 14.6658 37.4516 14.6973C37.981 14.8588 38.4669 15.1369 38.8734 15.5109C39.2798 15.8848 39.5963 16.345 39.7993 16.8572C40.0023 17.3695 40.0866 17.9206 40.046 18.4697C40.0053 19.0188 39.8408 19.5517 39.5645 20.0288C39.5089 20.1251 39.4744 20.232 39.4632 20.3424C39.452 20.4529 39.4644 20.5644 39.4996 20.6698C39.5347 20.7752 39.5919 20.872 39.6672 20.9539C39.7426 21.0358 39.8345 21.101 39.937 21.1451C40.568 21.4162 41.1103 21.8572 41.5028 22.4183C41.8953 22.9793 42.1223 23.6383 42.1582 24.3208C42.1942 25.0033 42.0376 25.6822 41.7062 26.281C41.3749 26.8797 40.8818 27.3746 40.2827 27.7097C40.176 27.7696 40.0847 27.8534 40.016 27.9543C39.9473 28.0552 39.9031 28.1705 39.8868 28.2913C39.8704 28.412 39.8825 28.5349 39.9219 28.6503C39.9614 28.7656 40.0272 28.8704 40.1141 28.9562C40.634 29.468 40.9891 30.1219 41.1344 30.8348C41.2797 31.5477 41.2087 32.2875 40.9302 32.9601C40.6518 33.6328 40.1786 34.208 39.5707 34.6128C38.9628 35.0175 38.2476 35.2335 37.5159 35.2333C37.4149 35.2333 37.3165 35.2257 37.2178 35.218C37.0937 35.2082 36.9691 35.2275 36.8539 35.2745C36.7388 35.3214 36.6364 35.3947 36.555 35.4883C36.4736 35.5819 36.4155 35.6932 36.3854 35.8133C36.3553 35.9333 36.354 36.0587 36.3817 36.1794C36.577 37.0228 36.4658 37.9077 36.0679 38.6775C35.67 39.4473 35.0111 40.0523 34.2076 40.3855C33.4042 40.7188 32.5081 40.7587 31.6779 40.4983C30.8477 40.2378 30.137 39.6938 29.6714 38.9625C29.5998 38.8505 29.5009 38.7583 29.384 38.6944C29.267 38.6305 29.1356 38.597 29.0021 38.597C28.8687 38.597 28.7373 38.6305 28.6203 38.6944C28.5034 38.7583 28.4045 38.8505 28.3329 38.9625C27.8687 39.6963 27.1579 40.2428 26.3268 40.5049C25.4956 40.767 24.5979 40.7276 23.7932 40.3939C22.9884 40.0601 22.3288 39.4535 21.9314 38.6819C21.5339 37.9103 21.4245 37.0236 21.6226 36.1794C21.6503 36.0587 21.649 35.9333 21.6189 35.8133C21.5888 35.6932 21.5307 35.5819 21.4493 35.4883C21.3679 35.3947 21.2655 35.3214 21.1504 35.2745C21.0352 35.2275 20.9106 35.2082 20.7865 35.218C20.6878 35.2257 20.5894 35.2333 20.4884 35.2333C19.7566 35.2337 19.0413 35.0179 18.4332 34.6131C17.8252 34.2084 17.3518 33.6332 17.0734 32.9604C16.7949 32.2877 16.7239 31.5478 16.8693 30.8348C17.0148 30.1219 17.3701 29.468 17.8902 28.9562C17.977 28.87 18.0425 28.7651 18.0816 28.6495C18.1207 28.5339 18.1323 28.4109 18.1155 28.2901C18.0987 28.1694 18.054 28.0541 17.9849 27.9534C17.9158 27.8527 17.8241 27.7692 17.7171 27.7097C17.1179 27.3748 16.6247 26.8801 16.2931 26.2815C15.9616 25.6828 15.8048 25.004 15.8405 24.3215C15.8762 23.639 16.103 22.98 16.4952 22.4188C16.8875 21.8576 17.4296 21.4164 18.0605 21.1451C18.163 21.101 18.2549 21.0358 18.3303 20.9539C18.4056 20.872 18.4628 20.7752 18.4979 20.6698C18.5331 20.5644 18.5455 20.4529 18.5343 20.3424C18.5231 20.232 18.4886 20.1251 18.433 20.0288C18.1568 19.5515 17.9923 19.0185 17.9518 18.4693C17.9113 17.9201 17.9958 17.3688 18.199 16.8566C18.4022 16.3443 18.719 15.8842 19.1257 15.5103C19.5324 15.1365 20.0186 14.8586 20.5482 14.6973C20.6508 14.666 20.7459 14.6143 20.8279 14.5454C20.9098 14.4765 20.9768 14.3917 21.0249 14.2963V14.2963ZM8.26534 37.516C8.26647 37.3037 8.29124 37.0922 8.3392 36.8853C8.36683 36.7647 8.36553 36.6394 8.3354 36.5194C8.30527 36.3994 8.24716 36.2881 8.16576 36.1946C8.08437 36.1011 7.98197 36.028 7.86687 35.9811C7.75176 35.9342 7.62717 35.915 7.50318 35.9248C7.42751 35.9311 7.35138 35.937 7.2739 35.937C6.70949 35.9375 6.15768 35.7711 5.68861 35.4591C5.21954 35.147 4.85439 34.7033 4.63956 34.1844C4.42474 33.6655 4.36995 33.0949 4.48216 32.5449C4.59437 31.995 4.86851 31.4907 5.26973 31.096C5.35681 31.0103 5.42271 30.9056 5.46225 30.7902C5.50178 30.6749 5.51388 30.552 5.49759 30.4312C5.4813 30.3104 5.43707 30.195 5.36836 30.0941C5.29966 29.9932 5.20835 29.9095 5.10162 29.8495C4.63951 29.5913 4.25916 29.2098 4.00345 28.7482C3.74775 28.2865 3.62686 27.763 3.65442 27.2367C3.68198 26.7104 3.85689 26.2022 4.15943 25.7694C4.46198 25.3366 4.88011 24.9965 5.3667 24.7874C5.46914 24.7433 5.56105 24.6781 5.63641 24.5962C5.71177 24.5144 5.76888 24.4176 5.804 24.3122C5.83913 24.2069 5.85147 24.0953 5.84021 23.9849C5.82896 23.8745 5.79437 23.7677 5.73871 23.6715C5.52564 23.3034 5.39875 22.8924 5.36748 22.4688C5.33622 22.0453 5.40138 21.6202 5.55812 21.2252C5.71487 20.8302 5.95916 20.4753 6.27284 20.1871C6.58653 19.8989 6.96153 19.6846 7.36996 19.5603C7.47251 19.529 7.56761 19.4774 7.64952 19.4086C7.73143 19.3397 7.79845 19.255 7.84652 19.1597C7.89459 19.0644 7.92272 18.9604 7.92921 18.8539C7.93569 18.7475 7.9204 18.6408 7.88426 18.5404C7.72989 18.1165 7.67988 17.662 7.73841 17.2149C7.79695 16.7679 7.96232 16.3412 8.22071 15.9707C8.47909 15.6002 8.82296 15.2966 9.22355 15.0853C9.62415 14.8741 10.0698 14.7612 10.5233 14.7563C10.6485 14.7641 10.7739 14.7436 10.8901 14.6963C11.0062 14.649 11.1101 14.5762 11.1939 14.4833C11.2682 14.3969 11.3229 14.2956 11.3542 14.1863C11.3855 14.077 11.3926 13.9622 11.3751 13.8499C11.3509 13.7061 11.3382 13.5606 11.3371 13.4147C11.3371 12.664 11.637 11.9441 12.1709 11.4133C12.7048 10.8825 13.429 10.5843 14.1841 10.5843C14.9391 10.5843 15.6633 10.8825 16.1972 11.4133C16.7311 11.9441 17.031 12.664 17.031 13.4147C17.0299 13.5606 17.0172 13.7061 16.993 13.8499C16.9785 13.9629 16.9885 14.0777 17.0224 14.1865C17.0564 14.2953 17.1134 14.3956 17.1896 14.4806C17.3134 14.619 17.4815 14.7108 17.6654 14.7405C17.0329 15.4593 16.6096 16.3359 16.441 17.2761C16.2724 18.2163 16.3651 19.1844 16.7089 20.0761C16.0047 20.5187 15.416 21.1208 14.991 21.8331C14.566 22.5454 14.3167 23.3477 14.2637 24.1742C14.2106 25.0008 14.3553 25.828 14.6858 26.5883C15.0163 27.3485 15.5232 28.0201 16.1651 28.5481C15.6368 29.2968 15.3144 30.1698 15.23 31.0805C15.1455 31.9913 15.302 32.9082 15.6838 33.7403C16.0656 34.5724 16.6595 35.2909 17.4066 35.8246C18.1537 36.3582 19.0282 36.6884 19.9433 36.7826C19.9401 36.8546 19.9383 36.9258 19.9383 36.997C19.9384 37.3466 19.9736 37.6954 20.0434 38.0381C19.9391 38.596 19.6681 39.1097 19.2657 39.5121C18.8633 39.9146 18.3482 40.1871 17.7877 40.2941C17.2272 40.4011 16.6472 40.3376 16.1235 40.112C15.5998 39.8863 15.1567 39.509 14.852 39.0292C14.7803 38.9174 14.6814 38.8253 14.5644 38.7616C14.4475 38.6978 14.3163 38.6644 14.1829 38.6644C14.0496 38.6644 13.9183 38.6978 13.8014 38.7616C13.6845 38.8253 13.5856 38.9174 13.5139 39.0292C13.1842 39.5472 12.6941 39.9447 12.1174 40.1617C11.5408 40.3788 10.9088 40.4037 10.3167 40.2328C9.72452 40.0618 9.20429 39.7042 8.83432 39.2138C8.46435 38.7234 8.26466 38.1267 8.26534 37.5137V37.516ZM13.2044 54.0332V41.4001C13.5616 41.2102 13.8907 40.9724 14.1827 40.6933C14.4742 40.9725 14.8031 41.2104 15.1601 41.4001V54.0337L13.2044 54.0332ZM27.6106 54.0332V53.2196C27.6106 53.0105 27.5271 52.81 27.3783 52.6622C27.2296 52.5143 27.0279 52.4313 26.8176 52.4313C26.6073 52.4313 26.4056 52.5143 26.2569 52.6622C26.1082 52.81 26.0247 53.0105 26.0247 53.2196V54.0332H16.746V41.8916C16.9143 41.912 17.0836 41.9227 17.2531 41.9236C17.9715 41.9209 18.6785 41.7454 19.3139 41.4122C19.9493 41.0789 20.4942 40.5978 20.9021 40.0099C21.462 40.8165 22.2409 41.4483 23.1481 41.8318C24.0552 42.2154 25.0532 42.3348 26.026 42.1763V43.5823C26.026 43.7914 26.1096 43.9919 26.2583 44.1397C26.407 44.2876 26.6087 44.3706 26.819 44.3706C27.0293 44.3706 27.231 44.2876 27.3797 44.1397C27.5284 43.9919 27.612 43.7914 27.612 43.5823V41.6704C28.1278 41.4094 28.5967 41.0655 28.9999 40.6527C29.4031 41.0655 29.872 41.4094 30.3878 41.6704V54.035L27.6106 54.0332ZM44.7927 54.0332H42.8397V41.4001C43.1967 41.2104 43.5256 40.9725 43.8171 40.6933C44.1086 40.9723 44.4373 41.2101 44.794 41.4001L44.7927 54.0332Z" fill="#095783"/>
<path d="M55.1419 54.0332H51.8513C51.641 54.0332 51.4393 54.1163 51.2906 54.2641C51.1419 54.412 51.0583 54.6125 51.0583 54.8216C51.0583 55.0306 51.1419 55.2312 51.2906 55.379C51.4393 55.5269 51.641 55.6099 51.8513 55.6099H55.1419C55.3522 55.6099 55.5539 55.5269 55.7026 55.379C55.8513 55.2312 55.9349 55.0306 55.9349 54.8216C55.9349 54.6125 55.8513 54.412 55.7026 54.2641C55.5539 54.1163 55.3522 54.0332 55.1419 54.0332V54.0332Z" fill="#095783"/>
<path d="M32.6477 14.9338C32.5835 15.1326 32.6013 15.3487 32.6972 15.5345C32.7932 15.7203 32.9593 15.8607 33.1592 15.9248C33.2378 15.9503 33.3199 15.9632 33.4026 15.9631C33.5704 15.963 33.7338 15.91 33.8695 15.8117C34.0051 15.7135 34.1059 15.575 34.1575 15.4162C34.3287 14.9463 34.3505 14.4354 34.2197 13.9527C34.089 13.4701 33.8121 13.0391 33.4266 12.7183C33.2731 12.5753 33.0687 12.4988 32.8585 12.5057C32.6482 12.5125 32.4493 12.6021 32.3056 12.7547C32.1618 12.9074 32.0849 13.1105 32.0917 13.3196C32.0986 13.5286 32.1887 13.7263 32.3423 13.8693C32.5072 13.9858 32.6273 14.1547 32.6828 14.3482C32.7384 14.5417 32.726 14.7482 32.6477 14.9338V14.9338Z" fill="#095783"/>
<path d="M34.1841 32.152H34.1809C34.0768 32.1524 33.9738 32.1732 33.8777 32.2132C33.7817 32.2532 33.6945 32.3116 33.6212 32.3851C33.5478 32.4586 33.4898 32.5457 33.4503 32.6416C33.4108 32.7374 33.3907 32.84 33.3912 32.9435C33.3948 33.7341 33.3141 33.8201 32.9272 34.2328C32.7838 34.3858 32.7074 34.5891 32.7149 34.7981C32.7223 35.0071 32.8129 35.2045 32.9668 35.3471C33.1207 35.4896 33.3252 35.5655 33.5354 35.5581C33.7456 35.5508 33.9442 35.4607 34.0876 35.3077C34.7487 34.6026 34.9825 34.1364 34.9771 32.9367C34.9761 32.7283 34.8922 32.5287 34.7436 32.3816C34.5949 32.2345 34.3938 32.152 34.1841 32.152V32.152Z" fill="#095783"/>
<path d="M34.1736 17.6066C34.0558 17.7797 34.0119 17.9923 34.0517 18.1976C34.0914 18.4029 34.2116 18.5841 34.3857 18.7013C34.397 18.709 35.5158 19.4906 35.6286 20.5956C35.6654 21.0375 35.6077 21.4821 35.4593 21.9002C35.3109 22.3183 35.0752 22.7004 34.7677 23.0215C34.622 23.1666 34.5389 23.3624 34.5359 23.5673C34.533 23.7723 34.6104 23.9704 34.7517 24.1196C34.8931 24.2688 35.0873 24.3574 35.2933 24.3667C35.4993 24.376 35.7008 24.3052 35.8552 24.1694C36.3369 23.6803 36.7068 23.0936 36.9396 22.4494C37.1724 21.8052 37.2627 21.1186 37.2042 20.4366C37.0152 18.5896 35.3436 17.4435 35.2729 17.3958C35.0989 17.2792 34.8855 17.2359 34.6795 17.2754C34.4734 17.3149 34.2915 17.434 34.1736 17.6066V17.6066Z" fill="#095783"/>
</svg>
