<svg width="58" height="59" viewBox="0 0 58 59" fill="none" xmlns="http://www.w3.org/2000/svg">
<g clip-path="url(#clip0)">
<path d="M1.13281 47.1199H56.8672V53.2737H1.13281V47.1199Z" fill="#B5D988"/>
<path d="M23.6634 47.1198H6.29834V43.4335C6.29834 42.3428 7.17049 41.4586 8.24621 41.4586H21.7156C22.7914 41.4586 23.6634 42.3429 23.6634 43.4335V47.1198Z" fill="#F39B88"/>
<path d="M28.9998 44.8579L37.5028 21.7117L43.5345 23.9895L35.0314 47.1357L28.9998 44.8579Z" fill="#E6F7FA"/>
<path d="M32.0535 36.5463L34.5937 29.6315L40.6253 31.9093L38.0851 38.8241L32.0535 36.5463Z" fill="#B5D988"/>
<path d="M51.9949 41.4268C51.4001 42.031 51.032 42.8648 51.032 43.7848C51.032 45.4123 52.1806 46.7676 53.7009 47.0604V47.1202H39.765C37.948 47.1202 36.4753 45.6271 36.4753 43.7848C36.4753 42.8648 36.8435 42.031 37.4394 41.4268C38.0341 40.8238 38.8565 40.4506 39.765 40.4506H53.7009V40.5103C53.0405 40.6366 52.4514 40.964 51.9949 41.4268V41.4268Z" fill="#E6F7FA"/>
<path d="M54.443 34.7583C53.8482 35.3613 53.4801 36.1951 53.4801 37.1163C53.4801 38.7426 54.6288 40.0967 56.149 40.3908V40.4505H42.2131C40.3961 40.4505 38.9246 38.9574 38.9246 37.1163C38.9246 36.1951 39.2927 35.3613 39.8875 34.7583C40.4822 34.1542 41.3046 33.7809 42.2131 33.7809H56.149V33.8406C55.4897 33.9681 54.8995 34.2954 54.443 34.7583V34.7583Z" fill="#E6F7FA"/>
<path d="M18.6705 41.4586H11.2915V39.9778C11.2915 37.9118 12.9434 36.2371 14.981 36.2371C17.0187 36.2371 18.6704 37.9119 18.6704 39.9778V41.4586H18.6705Z" fill="#E6F7FA"/>
<path d="M4.1909 27.0808C5.8681 27.0808 7.22774 25.7023 7.22774 24.0018C7.22774 22.3013 5.8681 20.9227 4.1909 20.9227C2.51369 20.9227 1.15405 22.3013 1.15405 24.0018C1.15405 25.7023 2.51369 27.0808 4.1909 27.0808Z" fill="#E6F7FA"/>
<path d="M16.3406 11.8266L14.4946 9.95491C13.4963 8.9427 13.4963 7.30165 14.4946 6.28956C15.493 5.27734 17.1115 5.27734 18.1098 6.28956L19.9558 8.16123L16.3406 11.8266Z" fill="#E6F7FA"/>
<path d="M18.7491 20.9943L15.8947 18.1002C14.3092 16.4927 14.3092 13.8864 15.8947 12.2789L20.4021 7.70884C21.9876 6.10133 23.7191 5.25061 26.1437 7.70884L28.9981 10.6029L18.7491 20.9943Z" fill="#F39B88"/>
<path d="M27.5241 19.5001C26.4234 20.616 24.6376 20.616 23.5369 19.5001C22.8458 18.7993 22.5879 17.8272 22.7641 16.9239L24.9841 14.6731C25.8751 14.4944 26.834 14.7559 27.525 15.4566C28.6256 16.5724 28.6256 18.3831 27.5241 19.5001V19.5001Z" fill="#E1A508"/>
<path d="M56.8672 45.9711H54.0571C51.5725 45.9711 51.4502 41.5991 54.0586 41.5991H56.1491C56.7748 41.5991 57.2819 41.0848 57.2819 40.4505V40.3908C57.2819 39.8395 56.8955 39.366 56.3614 39.2626C54.0958 38.8244 54.0898 35.408 56.3614 34.9689C56.8955 34.8655 57.2819 34.392 57.2819 33.8406V33.7808C57.2819 33.1466 56.7748 32.6323 56.1491 32.6323H42.2131C41.9855 32.6323 41.7608 32.6499 41.54 32.6839L41.6843 32.2907C41.6858 32.2867 41.6867 32.2826 41.6881 32.2786L44.5909 24.3685C44.6957 24.0831 44.6844 23.767 44.5593 23.4901C44.4342 23.213 44.2057 22.9978 43.9242 22.8916L37.8912 20.6157C37.3049 20.3947 36.6526 20.6971 36.4345 21.2916L27.9382 44.4433C27.806 44.8036 27.8638 45.2178 28.0891 45.5268C28.2559 45.7553 28.4839 45.8747 28.7398 45.9711H24.7962V43.4334C24.7962 41.7112 23.4142 40.3099 21.7156 40.3099H19.8033V39.9777C19.8033 37.4648 17.9235 35.3893 15.5148 35.1191L7.70868 26.2669C8.12068 25.6115 8.3605 24.8347 8.3605 24.0016C8.3605 23.2617 8.17154 22.5659 7.84065 21.9604L13.6571 16.1357C13.8433 17.1817 14.3364 18.1447 15.0934 18.9123L17.9478 21.8064C18.3809 22.2454 19.1159 22.2464 19.55 21.8064L22.0137 19.3084C22.199 19.6738 22.4408 20.013 22.7358 20.3119C24.2678 21.8656 26.7902 21.8424 28.325 20.312C29.8664 18.7492 29.8668 16.2066 28.3259 14.6442C28.031 14.3452 27.6964 14.1 27.3359 13.9122L29.799 11.4149C30.2413 10.9664 30.2413 10.2392 29.799 9.79055L26.9445 6.89645C23.6707 3.57715 21.1189 5.4448 19.9604 6.54132L18.9107 5.47708C17.4723 4.01865 15.1319 4.01877 13.6934 5.47708C12.2551 6.93538 12.2551 9.30828 13.6934 10.7669L14.7372 11.8252L6.2478 20.3266C5.64027 19.9756 4.9385 19.7741 4.19061 19.7741C1.89146 19.7741 0.020957 21.6705 0.020957 24.0016C0.020957 26.3327 1.89146 28.2293 4.19061 28.2293C4.84685 28.2293 5.46786 28.0744 6.02067 27.7993L12.8797 35.5776C11.2705 36.3707 10.1584 38.0449 10.1584 39.9777V40.3099H8.24631C6.54754 40.3099 5.16562 41.7112 5.16562 43.4334V45.9711H1.13281C0.50716 45.9711 0 46.4854 0 47.1197V53.2735C0 53.9077 0.50716 54.422 1.13281 54.422H24.0666C24.6923 54.422 25.1994 53.9077 25.1994 53.2735C25.1994 52.6392 24.6923 52.1249 24.0666 52.1249H2.26562V48.2682H55.7344V52.1249H34.0151C33.3894 52.1249 32.8823 52.6392 32.8823 53.2735C32.8823 53.9077 33.3894 54.422 34.0151 54.422H56.8672C57.4928 54.422 58 53.9077 58 53.2735V47.1197C58 46.4854 57.4928 45.9711 56.8672 45.9711V45.9711ZM26.723 18.6878C26.0753 19.3445 24.9858 19.3446 24.3379 18.6878C24.0118 18.3571 23.8366 17.9116 23.8433 17.4538L25.5069 15.7671C25.9573 15.762 26.3978 15.9378 26.7241 16.2686C27.3816 16.9354 27.3811 18.0206 26.723 18.6878V18.6878ZM50.4607 45.9711H39.7564C38.5711 45.9663 37.6082 44.9876 37.6082 43.7848C37.6082 42.5949 38.591 41.5991 39.7651 41.5991H50.4582C50.0933 42.2598 49.8993 43.0074 49.8993 43.7848C49.8993 44.5724 50.1019 45.3202 50.4607 45.9711V45.9711ZM35.2563 31.091L39.1655 32.5658L37.4174 37.3292L33.5078 35.8544L35.2563 31.091ZM40.6893 35.5697C41.0956 35.1568 41.6369 34.9295 42.2131 34.9295H52.9064C52.5414 35.5901 52.3473 36.338 52.3473 37.1163C52.3473 37.9035 52.55 38.6511 52.909 39.302H42.2131C41.0245 39.302 40.0574 38.3215 40.0574 37.1163C40.0574 36.5384 40.2864 35.9782 40.6893 35.5697V35.5697ZM38.163 23.169L42.0727 24.6439L39.9555 30.4129L36.046 28.938L38.163 23.169ZM32.7177 38.0072L36.6272 39.4822L34.3664 45.6429L30.4567 44.168L32.7177 38.0072ZM23.0846 7.32555C23.9569 7.22505 24.7747 7.94519 25.3426 8.52095L27.3961 10.6029L18.749 19.37L16.6955 17.288C15.5542 16.131 15.5542 14.2482 16.6955 13.0911L17.1416 12.6388L18.9492 10.8061L21.203 8.52095C21.9469 7.7667 22.5448 7.38699 23.0846 7.32555V7.32555ZM15.2957 7.10158C15.8436 6.54603 16.7609 6.54603 17.3088 7.10158L18.3538 8.161L16.3407 10.2022L15.2957 9.14277C14.7407 8.5801 14.7407 7.66437 15.2957 7.10158V7.10158ZM2.28681 24.0017C2.28681 22.9373 3.14095 22.0713 4.19084 22.0713C5.24073 22.0713 6.09487 22.9373 6.09487 24.0017C6.09487 25.0663 5.24073 25.9323 4.19084 25.9323C3.14095 25.9323 2.28681 25.0663 2.28681 24.0017ZM12.4242 39.9778C12.4242 38.5485 13.5712 37.3856 14.981 37.3856C16.3908 37.3856 17.5376 38.5485 17.5376 39.9778V40.3101H12.4242V39.9778ZM7.43125 45.9711V43.4334C7.43125 42.9777 7.79692 42.607 8.24631 42.607H21.7157C22.1651 42.607 22.5307 42.9778 22.5307 43.4334V45.9711H7.43125Z" fill="#095783"/>
<path d="M30.0455 52.8345C29.8624 52.382 29.3976 52.0922 28.9168 52.1287C28.4232 52.1663 28.0057 52.5332 27.8949 53.0218C27.668 54.0225 28.8253 54.8035 29.6515 54.2124C30.0791 53.9067 30.247 53.3251 30.0455 52.8345Z" fill="#095783"/>
</g>
<defs>
<clipPath id="clip0">
<rect width="58" height="58.8056" fill="white"/>
</clipPath>
</defs>
</svg>
