<svg width="58" height="58" viewBox="0 0 58 58" fill="none" xmlns="http://www.w3.org/2000/svg">
<path d="M20.1634 34.3652H9.78369V56.9481H20.1634V34.3652Z" fill="#ADDCF6"/>
<path d="M34.2601 23.4946H23.8804V56.9481H34.2601V23.4946Z" fill="#ADDCF6"/>
<path d="M48.2867 13.6058H37.907V56.948H48.2867V13.6058Z" fill="#ADDCF6"/>
<path d="M13.0799 34.3652H9.78369V56.9481H13.0799V34.3652Z" fill="#F37B60"/>
<path d="M27.1766 23.4946H23.8804V56.9481H27.1766V23.4946Z" fill="#4898C5"/>
<path d="M41.2032 13.6058H37.907V56.948H41.2032V13.6058Z" fill="#F37B60"/>
<path d="M10.3445 28.3337L46.2526 4.48851L44.4292 10.7304L46.3929 11.2914L48.8476 2.80532L48.9177 2.73519H48.8476L49.2684 1.26239L47.7956 1.12213V1.052L47.7254 1.12213L38.3977 0L38.1873 1.96372L45.1305 2.80532L9.22241 26.6505L10.3445 28.3337Z" fill="#095783"/>
<path d="M49.3386 55.896V12.5538H36.925V55.896H35.312V22.4426H22.8283V55.896H21.1451V33.3833H8.80171V55.9662H3.82227V58H8.80171H21.2153H22.8984H35.312H36.9952H49.3386H54.1778V55.9662H49.3386V55.896ZM10.7654 55.896V35.4172H19.1814V55.9662H10.7654V55.896V55.896ZM24.8622 55.896V24.4764H33.208V55.896H24.8622V55.896ZM38.9589 55.896V14.5176H47.3047V55.896H38.9589Z" fill="#095783"/>
</svg>
