<svg width="58" height="58" viewBox="0 0 58 58" fill="none" xmlns="http://www.w3.org/2000/svg">
<g clip-path="url(#clip0)">
<path d="M33.7511 36.8298H17.7637V42.3384H33.7511V36.8298Z" fill="#A7D7DE"/>
<path d="M33.7512 36.8298H30.4185V42.3384H33.7512V36.8298Z" fill="#89C9ED"/>
<path d="M44.9523 51.6011H7.53759C4.69174 51.6011 2.38477 49.3076 2.38477 46.4782V46.4758C2.38477 43.6465 4.69174 41.3529 7.53759 41.3529H44.9522C47.7981 41.3529 50.1051 43.6465 50.1051 46.4758V46.4782C50.1051 49.3076 47.7981 51.6011 44.9523 51.6011Z" fill="#6BB4DD"/>
<path d="M44.9536 41.353H41.655C44.5001 41.353 46.8066 43.6471 46.8066 46.4771C46.8066 49.3071 44.5002 51.6012 41.655 51.6012H44.9536C47.7986 51.6012 50.1051 49.3071 50.1051 46.4771C50.105 43.6471 47.7986 41.353 44.9536 41.353Z" fill="#89C9ED"/>
<path d="M8.33746 48.8332C9.64566 48.8332 10.7062 47.7784 10.7062 46.4772C10.7062 45.1759 9.64566 44.1211 8.33746 44.1211C7.02926 44.1211 5.96875 45.1759 5.96875 46.4772C5.96875 47.7784 7.02926 48.8332 8.33746 48.8332Z" fill="#89C9ED"/>
<path d="M44.1524 48.8332C45.4606 48.8332 46.5211 47.7784 46.5211 46.4772C46.5211 45.1759 45.4606 44.1211 44.1524 44.1211C42.8442 44.1211 41.7837 45.1759 41.7837 46.4772C41.7837 47.7784 42.8442 48.8332 44.1524 48.8332Z" fill="#89C9ED"/>
<path d="M39.742 45.0104H12.7478C12.8926 45.4737 12.9705 45.9663 12.9705 46.4771C12.9705 46.9878 12.8925 47.4804 12.7478 47.9437H39.742C39.5973 47.4804 39.5192 46.9878 39.5192 46.4771C39.5193 45.9664 39.5974 45.4738 39.742 45.0104Z" fill="#89C9ED"/>
<path d="M55.4001 34.1703L53.4411 35.0121C52.6815 35.3384 51.8186 35.3313 51.0645 34.9925L43.3788 31.5391C42.8922 31.3204 42.8978 30.631 43.3881 30.4204L54.8382 25.5007L56.9335 30.3254C57.5776 31.8083 56.891 33.5297 55.4001 34.1703Z" fill="#A7D7DE"/>
<path d="M56.9336 30.3254L54.8383 25.5007L51.886 26.7692L53.4304 30.3254C54.0744 31.8083 53.3879 33.5297 51.897 34.1703L50.5361 34.755L51.0646 34.9925C51.8187 35.3313 52.6816 35.3384 53.4412 35.0121L55.4002 34.1703C56.891 33.5297 57.5776 31.8083 56.9336 30.3254Z" fill="#89C9ED"/>
<path d="M51.2139 16.9048L49.8886 13.7573L47.2271 7.43616C46.7486 6.29969 45.4375 5.76056 44.2919 6.22918C43.067 6.73024 42.5387 8.16911 43.1507 9.33746L52.2114 26.6334L54.8338 25.5026L51.2139 16.9048Z" fill="#93C257"/>
<path d="M32.4317 20.6135V17.7181C32.4317 15.5566 30.6701 13.8043 28.497 13.8043H25.0548C24.307 13.8043 23.7007 14.4074 23.7007 15.1513V20.6134H32.4317V20.6135Z" fill="#A7D7DE"/>
<path d="M28.4968 13.8043H25.1982C27.3713 13.8043 29.133 15.5565 29.133 17.7181V20.6135H32.4315V17.7181C32.4315 15.5566 30.6698 13.8043 28.4968 13.8043Z" fill="#89C9ED"/>
<path d="M32.4315 17.718V17.8612L44.3138 11.5578L43.1506 9.33742C42.9773 9.00665 42.8957 8.65414 42.8951 8.30737L29.2708 13.8804C31.0731 14.2381 32.4315 15.8201 32.4315 17.718Z" fill="#F37B60"/>
<path d="M33.0183 19.6279H20.5672C19.9508 19.6279 19.4511 20.1249 19.4511 20.7381V25.5396C19.4511 26.1527 18.9515 26.6497 18.3351 26.6497H1.94149C1.32512 26.6497 0.825439 27.1467 0.825439 27.7598V36.7049C0.825439 37.318 1.32512 37.815 1.94149 37.815H35.6837C36.3315 37.815 36.8567 37.2927 36.8567 36.6482V26.4063C36.8567 26.1094 36.7886 25.8163 36.6576 25.5494L34.0722 20.2828C33.8756 19.8821 33.4665 19.6279 33.0183 19.6279Z" fill="#93C257"/>
<path d="M36.6575 25.5494L34.0722 20.2828C33.8756 19.8821 33.4664 19.6279 33.0181 19.6279H29.7196C30.168 19.6279 30.577 19.8821 30.7737 20.2828L33.359 25.5494C33.49 25.8163 33.5581 26.1094 33.5581 26.4063V33.1074C33.5581 33.8986 32.9133 34.5399 32.1179 34.5399H1.94136C1.32499 34.5399 0.825195 34.0429 0.825195 33.4298V36.7049C0.825195 37.318 1.32488 37.815 1.94136 37.815H32.3849H35.6834C36.3313 37.815 36.8564 37.2926 36.8564 36.6482V33.3732V26.4063C36.8566 26.1094 36.7885 25.8163 36.6575 25.5494Z" fill="#4898C5"/>
<path d="M31.5042 22.4071H22.8183C22.6837 22.4071 22.5747 22.5156 22.5747 22.6494V26.6267C22.5747 26.6915 22.6008 26.7536 22.6471 26.7992L25.6466 29.7459C25.6921 29.7908 25.7536 29.8159 25.8177 29.8159H33.4696C33.6042 29.8159 33.7132 29.7074 33.7132 29.5736V26.6533C33.7132 26.6165 33.7047 26.5801 33.6885 26.547L31.7231 22.543C31.6823 22.4598 31.5973 22.4071 31.5042 22.4071Z" fill="#ADDCF6"/>
<path d="M33.6889 26.547L31.7234 22.543C31.6825 22.4598 31.5977 22.4071 31.5046 22.4071H28.2061C28.2992 22.4071 28.3841 22.4599 28.4249 22.543L30.3903 26.547C30.4065 26.5801 30.415 26.6165 30.415 26.6533V29.5735C30.415 29.7073 30.306 29.8158 30.1715 29.8158H33.47C33.6045 29.8158 33.7136 29.7073 33.7136 29.5735V26.6533C33.7136 26.6165 33.7051 26.5801 33.6889 26.547Z" fill="#ADDCF6"/>
<path d="M5.14307 46.477C5.14307 48.2287 6.57596 49.6538 8.33726 49.6538C10.0986 49.6538 11.5314 48.2287 11.5314 46.477C11.5314 44.7254 10.0986 43.3003 8.33726 43.3003C6.57596 43.3003 5.14307 44.7254 5.14307 46.477ZM8.33726 44.9415C9.18823 44.9415 9.8806 45.6303 9.8806 46.477C9.8806 47.3237 9.18834 48.0125 8.33726 48.0125C7.48629 48.0125 6.79391 47.3237 6.79391 46.477C6.79391 45.6303 7.48618 44.9415 8.33726 44.9415Z" fill="#095783"/>
<path d="M44.1527 49.6539C45.914 49.6539 47.3469 48.2288 47.3469 46.4772C47.3469 44.7255 45.914 43.3004 44.1527 43.3004C42.3914 43.3004 40.9585 44.7255 40.9585 46.4772C40.9585 48.2288 42.3914 49.6539 44.1527 49.6539ZM44.1527 44.9416C45.0037 44.9416 45.696 45.6304 45.696 46.477C45.696 47.3237 45.0038 48.0125 44.1527 48.0125C43.3017 48.0125 42.6093 47.3237 42.6093 46.477C42.6093 45.6304 43.3016 44.9416 44.1527 44.9416Z" fill="#095783"/>
<path d="M12.0831 48.4304C12.2388 48.6404 12.4854 48.7644 12.7477 48.7644H39.7421C40.0045 48.7644 40.2511 48.6404 40.4067 48.4304C40.5623 48.2205 40.6081 47.9495 40.5303 47.7004C40.4072 47.3061 40.3446 46.8946 40.3446 46.4771C40.3446 46.0596 40.4071 45.648 40.5303 45.2538C40.6081 45.0046 40.5623 44.7337 40.4067 44.5237C40.2511 44.3137 40.0045 44.1897 39.7421 44.1897H12.7477C12.4854 44.1897 12.2388 44.3137 12.0831 44.5237C11.9276 44.7337 11.8817 45.0046 11.9595 45.2538C12.0827 45.648 12.1452 46.0596 12.1452 46.4771C12.1452 46.8946 12.0828 47.3061 11.9595 47.7004C11.8817 47.9495 11.9276 48.2205 12.0831 48.4304ZM13.7599 45.8311H38.7299C38.7058 46.0448 38.6938 46.2605 38.6938 46.4771C38.6938 46.6936 38.7058 46.9093 38.7299 47.1231H13.7599C13.784 46.9093 13.796 46.6936 13.796 46.4771C13.7959 46.2605 13.7839 46.0448 13.7599 45.8311Z" fill="#095783"/>
<path d="M34.5389 29.5735V26.6533C34.5389 26.4928 34.5016 26.3318 34.4307 26.1871L32.4651 22.1828C32.2872 21.8206 31.9101 21.5864 31.5045 21.5864H22.8185C22.2291 21.5864 21.7495 22.0632 21.7495 22.6494V26.6267C21.7495 26.909 21.8653 27.1846 22.0672 27.3829L25.0667 30.3297C25.2681 30.5274 25.5349 30.6364 25.8181 30.6364H33.4699C34.0593 30.6364 34.5389 30.1596 34.5389 29.5735ZM32.888 28.9952H26.0569L23.4004 26.3853V23.2278H31.141L32.8879 26.7867V28.9952H32.888Z" fill="#095783"/>
<path d="M57.6914 30L55.5962 25.1754C55.5855 25.1509 55.5736 25.1269 55.5607 25.1037L52.4824 17.7925C52.3065 17.3743 51.8224 17.1772 51.4024 17.3523C50.9818 17.5272 50.7836 18.0081 50.9597 18.4261L53.7574 25.071L52.5871 25.5738L45.0467 11.1803C45.0464 11.1797 45.0463 11.1791 45.0459 11.1787L43.8827 8.95822C43.8574 8.91002 43.8355 8.8608 43.8162 8.81102C43.81 8.79537 43.8055 8.77938 43.8 8.7635C43.7877 8.72847 43.7761 8.69322 43.7667 8.65741C43.7622 8.64063 43.759 8.62362 43.7551 8.60684C43.747 8.57001 43.7397 8.53296 43.7345 8.49546C43.7325 8.48104 43.7309 8.46662 43.7294 8.45221C43.725 8.41043 43.7223 8.3683 43.7216 8.32585C43.7189 8.15432 43.7462 7.98167 43.8077 7.8142C43.947 7.435 44.2304 7.14139 44.6059 6.98789C45.3289 6.69214 46.1634 7.03519 46.4656 7.75293L49.6726 15.3695C49.8486 15.7878 50.3327 15.9849 50.7526 15.8096C51.1732 15.6347 51.3713 15.1538 51.1953 14.7359L47.9883 7.11921C47.3368 5.572 45.5379 4.83229 43.9775 5.47007C43.18 5.79634 42.5529 6.4455 42.257 7.25109C42.1987 7.40944 42.1548 7.5715 42.124 7.73525L29.1743 13.0323C28.9529 13.0008 28.7269 12.9836 28.4968 12.9836H25.0546C23.8528 12.9836 22.875 13.956 22.875 15.1511V18.8072H20.567C19.4964 18.8072 18.6255 19.6734 18.6255 20.738V25.5395C18.6255 25.6991 18.4951 25.829 18.3348 25.829H1.94153C0.870906 25.8292 0 26.6954 0 27.76V29.8974C0 30.3507 0.369523 30.718 0.82548 30.718C1.28144 30.718 1.65096 30.3507 1.65096 29.8974V27.76C1.65096 27.6004 1.78135 27.4705 1.94153 27.4705H18.335C19.4056 27.4705 20.2767 26.6043 20.2767 25.5398V20.7382C20.2767 20.5786 20.4071 20.4488 20.5673 20.4488H23.7008H32.4317H33.0184C33.1502 20.4488 33.2729 20.5249 33.3306 20.6428L35.9159 25.9094C35.9915 26.0633 36.0315 26.2353 36.0315 26.4065V36.6485C36.0315 36.8394 35.8755 36.9946 35.6838 36.9946H1.94153C1.78123 36.9946 1.65096 36.8648 1.65096 36.7052V33.2271C1.65096 32.7737 1.28144 32.4064 0.82548 32.4064C0.369523 32.4064 0 32.7736 0 33.2269V36.7051C0 37.7697 0.870906 38.6358 1.94153 38.6358H16.9382V40.5323H7.53773C4.24125 40.5323 1.55943 43.1986 1.55943 46.4783C1.55943 49.7556 4.24125 52.4218 7.53773 52.4218H44.9523C48.2486 52.4218 50.9305 49.7556 50.9305 46.4759C50.9305 43.1986 48.2486 40.5323 44.9523 40.5323H34.5764V38.6358H35.6836C36.7856 38.6358 37.6822 37.7441 37.6822 36.6484V26.4064C37.6822 25.9872 37.5845 25.5665 37.3995 25.1895L34.8142 19.9229C34.5168 19.3171 33.9216 18.9039 33.257 18.823V18.3533L43.9668 12.672L51.0676 26.2268L43.0606 29.6671C42.5294 29.8953 42.1966 30.3946 42.1917 30.9699C42.187 31.5451 42.5116 32.0497 43.0388 32.2868L50.7245 35.7402C51.2151 35.9605 51.7369 36.0724 52.2751 36.0724C52.7918 36.0724 53.2942 35.9691 53.7685 35.7652L55.7275 34.9235C57.6338 34.1045 58.5146 31.8959 57.6914 30ZM49.2796 46.4783C49.2796 48.8506 47.3384 50.7805 44.9523 50.7805H7.53773C5.15158 50.7805 3.21028 48.8506 3.21028 46.4759C3.21028 44.1036 5.15158 42.1736 7.53773 42.1736H44.9523C47.3384 42.1736 49.2796 44.1036 49.2796 46.4783ZM32.9255 40.5323H18.589V38.6358H32.9255V40.5323ZM24.5261 18.8074V15.1513C24.5261 14.8611 24.7633 14.6251 25.0549 14.6251H28.497C28.7086 14.6251 28.9153 14.6463 29.1151 14.6867C29.1926 14.7022 29.2686 14.7216 29.3437 14.7426C29.3616 14.7477 29.3796 14.7524 29.3973 14.7578C29.4657 14.7783 29.5329 14.8015 29.599 14.8265C29.6221 14.8353 29.645 14.8443 29.6679 14.8536C29.7302 14.8788 29.7917 14.9056 29.8518 14.9347C29.8756 14.9461 29.8988 14.9585 29.9222 14.9706C29.9713 14.9958 30.0195 15.0223 30.0669 15.05C30.0955 15.0667 30.1237 15.0839 30.1517 15.1015C30.1978 15.1304 30.243 15.1605 30.2874 15.1918C30.3082 15.2064 30.3292 15.2207 30.3496 15.2358C30.4032 15.2756 30.4552 15.3172 30.506 15.3601C30.5237 15.3751 30.5413 15.3902 30.5588 15.4056C30.6112 15.4522 30.6624 15.5 30.7115 15.5498C30.7228 15.5613 30.7338 15.5731 30.745 15.5848C30.7985 15.6407 30.8506 15.6978 30.8996 15.7575C30.9002 15.7583 30.9007 15.7591 30.9014 15.7597C30.9557 15.8257 31.0072 15.8941 31.0559 15.9644C31.0567 15.9655 31.0576 15.9667 31.0584 15.9679C31.1069 16.0381 31.1526 16.1104 31.1952 16.1845C31.1964 16.1868 31.1978 16.1889 31.199 16.1912C31.3698 16.4897 31.4915 16.818 31.5551 17.1642C31.5566 17.1728 31.5582 17.1815 31.5597 17.19C31.5738 17.2702 31.5846 17.3512 31.5922 17.4331C31.5932 17.4439 31.5938 17.4547 31.5947 17.4655C31.6016 17.549 31.6059 17.6331 31.6059 17.7179V17.8609V18.8072H24.5261V18.8074V18.8074ZM33.1144 16.5687C32.9483 15.909 32.6423 15.3043 32.2302 14.7863C32.2215 14.7753 32.2129 14.7641 32.204 14.7532C32.1733 14.7153 32.1417 14.678 32.1099 14.6409C32.0934 14.6217 32.0767 14.6025 32.0598 14.5835C32.0324 14.5526 32.0046 14.5221 31.9764 14.492C31.9527 14.4667 31.9287 14.4418 31.9045 14.417C31.8809 14.3928 31.8571 14.3687 31.8328 14.345C31.8005 14.3133 31.7677 14.2825 31.7345 14.2517C31.7165 14.235 31.6987 14.2182 31.6805 14.2018C31.6337 14.1598 31.586 14.1188 31.5375 14.0786C31.5316 14.0738 31.5259 14.0686 31.5199 14.0637C31.4608 14.0151 31.4007 13.9676 31.3391 13.9217L42.2916 9.4416C42.3025 9.46863 42.3146 9.49509 42.3263 9.52167C42.3343 9.54003 42.3417 9.55861 42.3502 9.57697C42.3718 9.62405 42.3946 9.67056 42.4186 9.71651L43.2042 11.2162L33.1144 16.5687ZM55.0727 33.4169L53.1137 34.2587C52.57 34.4924 51.9444 34.4872 51.4047 34.2447L44.1524 30.9861L52.4716 27.4118C52.4945 27.4042 52.5174 27.3961 52.5401 27.3864L54.4083 26.5807L56.1758 30.6507C56.6382 31.7158 56.1434 32.9568 55.0727 33.4169Z" fill="#095783"/>
<path d="M24.9987 31.4707H22.9781C22.5221 31.4707 22.1526 31.8381 22.1526 32.2914C22.1526 32.7447 22.5221 33.1121 22.9781 33.1121H24.9987C25.4546 33.1121 25.8241 32.7447 25.8241 32.2914C25.824 31.838 25.4545 31.4707 24.9987 31.4707Z" fill="#095783"/>
<path d="M4.70579 34.4726C5.01176 34.4726 5.30584 34.3026 5.44869 34.0107L7.49851 29.8217C7.698 29.4141 7.52728 28.923 7.11743 28.7248C6.70735 28.5261 6.21345 28.6962 6.01407 29.1036L3.96425 33.2926C3.76476 33.7002 3.93548 34.1914 4.34533 34.3896C4.46167 34.4459 4.58469 34.4726 4.70579 34.4726Z" fill="#095783"/>
<path d="M8.81199 34.4726C9.11796 34.4726 9.41204 34.3026 9.55489 34.0107L11.6047 29.8217C11.8042 29.4141 11.6335 28.923 11.2236 28.7248C10.8136 28.5261 10.3196 28.6962 10.1203 29.1036L8.07045 33.2926C7.87096 33.7002 8.04168 34.1914 8.45153 34.3896C8.56787 34.4459 8.69089 34.4726 8.81199 34.4726Z" fill="#095783"/>
<path d="M12.9184 34.4726C13.2244 34.4726 13.5185 34.3026 13.6613 34.0107L15.7112 29.8217C15.9106 29.4141 15.7399 28.923 15.3301 28.7248C14.9199 28.5261 14.4261 28.6962 14.2267 29.1036L12.1769 33.2926C11.9774 33.7002 12.1481 34.1914 12.558 34.3896C12.6742 34.4459 12.7972 34.4726 12.9184 34.4726Z" fill="#095783"/>
</g>
<defs>
<clipPath id="clip0">
<rect width="58" height="57.6628" fill="white"/>
</clipPath>
</defs>
</svg>
