<svg width="58" height="58" viewBox="0 0 58 58" fill="none" xmlns="http://www.w3.org/2000/svg">
<path d="M36.25 34.9352H21.75C15.2431 34.9352 9.96875 40.1486 9.96875 46.5802V51.9549H17.2188V56.4337H40.7812V51.9549H48.0312V46.5802C48.0312 40.1486 42.7569 34.9352 36.25 34.9352Z" fill="#6BB4DD"/>
<path d="M40.7812 51.9548H46.2188V56.4337H40.7812V51.9548Z" fill="#E6F7FA"/>
<path d="M11.7812 51.9548H17.2188V56.4337H11.7812V51.9548Z" fill="#E6F7FA"/>
<path d="M40.7812 14.3324V21.4986C40.7812 27.9302 35.5069 33.1436 29 33.1436C22.4931 33.1436 17.2188 27.9302 17.2188 21.4986V14.3324H40.7812Z" fill="#E6F7FA"/>
<path d="M40.7812 14.3324V21.4986C40.7812 27.9302 35.5069 33.1436 29 33.1436C22.4931 33.1436 17.2188 27.9302 17.2188 21.4986V14.3324H40.7812Z" fill="#E6F7FA"/>
<path d="M29 33.1436C27.0371 33.1436 25.1901 32.6626 23.5625 31.8232V34.9352L29 40.3098L34.4375 34.9352V31.8232C32.8099 32.6626 30.9629 33.1436 29 33.1436V33.1436Z" fill="#E6F7FA"/>
<path d="M17.2187 21.4986V17.0198H16.7656C15.0138 17.0198 13.5938 18.4235 13.5938 20.155C13.5938 21.8865 15.0138 23.2902 16.7656 23.2902H17.3719C17.2804 22.7044 17.2187 22.1096 17.2187 21.4986Z" fill="#E6F7FA"/>
<path d="M41.2345 17.0198H40.7813V21.4986C40.7813 22.1096 40.7197 22.7044 40.6282 23.2902H41.2345C42.9862 23.2902 44.4063 21.8865 44.4063 20.155C44.4063 18.4235 42.9862 17.0198 41.2345 17.0198Z" fill="#E6F7FA"/>
<path d="M21.75 48.3717C22.751 48.3717 23.5625 47.5696 23.5625 46.5801C23.5625 45.5907 22.751 44.7886 21.75 44.7886C20.749 44.7886 19.9375 45.5907 19.9375 46.5801C19.9375 47.5696 20.749 48.3717 21.75 48.3717Z" fill="#E6F7FA"/>
<path d="M41.6875 14.3323H16.3125V6.27037C16.3125 3.79714 18.3416 1.7915 20.8438 1.7915H37.1562C39.6584 1.7915 41.6875 3.79714 41.6875 6.27037V14.3323Z" fill="#6BB4DD"/>
<path d="M31.7188 8.06193H29.9062V6.27039H28.0938V8.06193H26.2812V9.85348H28.0938V11.645H29.9062V9.85348H31.7188V8.06193Z" fill="#B5D988"/>
<path d="M20.8438 29.8892C22.9607 31.9011 25.8317 33.1436 29 33.1436C32.1683 33.1436 35.0393 31.9011 37.1562 29.8892V21.4985H20.8438V29.8892Z" fill="#B5D988"/>
<path d="M18.125 43.8929H16.3125V51.059H10.875V46.5802C10.875 40.9547 15.2712 36.3343 20.8438 35.8766V44.0586C19.7916 44.4294 19.0312 45.4148 19.0312 46.5811C19.0312 48.0627 20.2511 49.2684 21.75 49.2684C23.2489 49.2684 24.4688 48.0627 24.4688 46.5811C24.4688 45.4148 23.7084 44.4294 22.6562 44.0586V35.8309H23.1873L28.3593 40.9431C28.536 41.1178 28.768 41.2055 29 41.2055C29.232 41.2055 29.464 41.1178 29.6407 40.9431L34.4375 36.2018V44.0201C32.8787 44.4205 31.7188 45.8107 31.7188 47.476V48.3717C31.7188 48.8671 32.1248 49.2675 32.625 49.2675H34.4375V47.476H33.5312C33.5312 46.4879 34.3442 45.6844 35.3438 45.6844C36.3433 45.6844 37.1562 46.4879 37.1562 47.476H36.25V49.2675H38.0625C38.5627 49.2675 38.9688 48.8671 38.9688 48.3717V47.476C38.9688 45.8107 37.8088 44.4205 36.25 44.0201V35.8309C42.2467 35.8309 47.125 40.6528 47.125 46.5802V51.059H41.6875V43.8929H39.875V56.4337H41.6875V52.8506H45.3125V56.4337H47.125V52.8506H48.0312C48.5315 52.8506 48.9375 52.4502 48.9375 51.9548V46.5802C48.9375 39.6648 43.2462 34.0394 36.25 34.0394H35.3438V32.3428C38.3797 30.6005 40.6218 27.6579 41.3912 24.1706C43.5662 24.0873 45.3125 22.3244 45.3125 20.1549C45.3125 18.0856 43.7211 16.3953 41.6875 16.1696V15.2281C42.1877 15.2281 42.5938 14.8268 42.5938 14.3323V6.27039C42.5938 3.30628 40.155 0.895752 37.1562 0.895752H20.8438C17.845 0.895752 15.4062 3.30628 15.4062 6.27039V14.3323C15.4062 14.8268 15.8123 15.2281 16.3125 15.2281V16.1696C14.2789 16.3953 12.6875 18.0856 12.6875 20.1549C12.6875 22.3244 14.4338 24.0873 16.6088 24.1706C17.3782 27.6579 19.6203 30.6014 22.6562 32.3428V34.0394H21.75C14.7538 34.0394 9.0625 39.6648 9.0625 46.5802V51.9548C9.0625 52.4502 9.4685 52.8506 9.96875 52.8506H10.875V56.4337H12.6875V52.8506H16.3125V56.4337H18.125V43.8929ZM36.25 29.4879C34.3233 31.1971 31.7867 32.2478 29 32.2478C26.2133 32.2478 23.6767 31.1971 21.75 29.4879V22.3943H36.25V29.4879ZM38.0625 27.4277V21.8694L39.875 20.0778V21.4985C39.875 23.6887 39.2053 25.7266 38.0625 27.4277V27.4277ZM43.5 20.1549C43.5 21.2513 42.698 22.1614 41.644 22.3531C41.663 22.07 41.6875 21.787 41.6875 21.4985V17.9611C42.7206 18.1689 43.5 19.0737 43.5 20.1549V20.1549ZM17.2188 6.27039C17.2188 4.29431 18.8446 2.6873 20.8438 2.6873H37.1562C39.1554 2.6873 40.7812 4.29431 40.7812 6.27039V13.4366H17.2188V6.27039ZM39.875 15.2281V17.5446L36.7811 20.6028H21.2189L18.125 17.5446V15.2281H39.875ZM14.5 20.1549C14.5 19.0737 15.2794 18.1689 16.3125 17.9611V21.4985C16.3125 21.787 16.337 22.07 16.356 22.3531C15.302 22.1614 14.5 21.2513 14.5 20.1549V20.1549ZM18.125 20.0778L19.9375 21.8694V27.4277C18.7947 25.7266 18.125 23.6896 18.125 21.4985V20.0778ZM21.75 47.476C21.2507 47.476 20.8438 47.0746 20.8438 46.5802C20.8438 46.0857 21.2507 45.6844 21.75 45.6844C22.2493 45.6844 22.6562 46.0857 22.6562 46.5802C22.6562 47.0746 22.2493 47.476 21.75 47.476ZM29 39.0431L24.4688 34.5643V33.1982C25.878 33.7339 27.4023 34.0394 29 34.0394C30.5977 34.0394 32.122 33.7339 33.5312 33.1982V34.5643L29 39.0431Z" fill="#095783"/>
<path d="M29.9062 6.27039H28.0938V8.06193H26.2812V9.85348H28.0938V11.645H29.9062V9.85348H31.7188V8.06193H29.9062V6.27039Z" fill="#095783"/>
</svg>
