<svg width="58" height="59" viewBox="0 0 58 59" fill="none" xmlns="http://www.w3.org/2000/svg">
<g clip-path="url(#clip0)">
<path d="M24.7014 18.2248V12.8374C24.7014 12.5241 24.4466 12.2677 24.135 12.2677H21.2937C20.9822 12.2677 20.7273 12.5241 20.7273 12.8374V15.3184L24.7014 18.2248Z" fill="#4898C5"/>
<path d="M26.9198 31.6879V20.4164C26.9198 20.103 26.7136 19.6958 26.4613 19.5115L15.9191 11.8025C15.6673 11.6182 15.2549 11.6182 15.0027 11.8025L4.46088 19.5115C4.20865 19.6958 4.00244 20.103 4.00244 20.4164V34.4435C4.00244 34.7568 4.25732 35.0132 4.56885 35.0132H22.3726L26.9198 31.6879Z" fill="#6BB4DD"/>
<path d="M18.1634 23.9434H12.7587C12.4852 23.9434 12.2617 24.1686 12.2617 24.4432V35.0133H18.6599V24.4432C18.6603 24.1681 18.4364 23.9434 18.1634 23.9434V23.9434Z" fill="#F39B88"/>
<path d="M52.5726 8.0108V3.50246C52.5726 3.18911 52.3177 2.93274 52.0062 2.93274H49.7512C49.4397 2.93274 49.1848 3.18911 49.1848 3.50246V5.53342L52.5726 8.0108Z" fill="#4898C5"/>
<path d="M54.4631 9.96304C54.4631 9.6497 54.2569 9.24244 54.0051 9.05817L45.1541 2.58608C44.9019 2.40181 44.4899 2.40181 44.2377 2.58608L35.3871 9.05817C35.1349 9.24244 34.9287 9.6497 34.9287 9.96304V21.7513C34.9287 22.0647 35.1836 22.321 35.4951 22.321H53.8967C54.2082 22.321 54.4631 22.0647 54.4631 21.7513V9.96304Z" fill="#93C257"/>
<path d="M46.9992 12.885H42.3922C42.1595 12.885 41.9688 13.0768 41.9688 13.311V22.321H47.4226V13.311C47.4226 13.0768 47.2324 12.885 46.9992 12.885V12.885Z" fill="#F39B88"/>
<path d="M46.9404 34.3349V27.2847C46.9404 26.9713 46.6855 26.715 46.374 26.715H42.4229C42.1113 26.715 41.8564 26.9713 41.8564 27.2847V30.6171L46.9404 34.3349Z" fill="#4898C5"/>
<path d="M49.7773 36.9791C49.7773 36.6658 49.5711 36.2585 49.3189 36.0742L35.5782 26.0263C35.3264 25.842 34.914 25.842 34.6622 26.0263L20.9211 36.0742C20.6693 36.2585 20.4631 36.6658 20.4631 36.9791V55.2399C20.4631 55.5533 20.718 55.8096 21.0295 55.8096H49.2109C49.5224 55.8096 49.7773 55.5533 49.7773 55.2399V36.9791Z" fill="#CEE7F5"/>
<path d="M38.577 41.6495H31.6638C31.3142 41.6495 31.0283 41.9375 31.0283 42.2891V55.8097H39.2125V42.2891C39.2125 41.9375 38.9266 41.6495 38.577 41.6495V41.6495Z" fill="#F39B88"/>
<path d="M46.377 49.6447C46.377 49.9581 46.1221 50.2145 45.8106 50.2145H42.9856C42.6741 50.2145 42.4192 49.9581 42.4192 49.6447V42.2193C42.4192 41.9059 42.6741 41.6495 42.9856 41.6495H45.8106C46.1221 41.6495 46.377 41.9059 46.377 42.2193V49.6447Z" fill="#F4D279"/>
<path d="M27.7473 49.6447C27.7473 49.9581 27.4924 50.2145 27.1809 50.2145H24.3555C24.0439 50.2145 23.7891 49.9581 23.7891 49.6447V42.2193C23.7891 41.9059 24.0439 41.6495 24.3555 41.6495H27.1809C27.4924 41.6495 27.7473 41.9059 27.7473 42.2193V49.6447Z" fill="#F4D279"/>
<path d="M57.6498 10.6672L53.4221 7.57561V3.50257C53.4221 2.71743 52.7867 2.07827 52.0061 2.07827H49.7511C48.9701 2.07827 48.3351 2.71743 48.3351 3.50257V3.85553L45.6535 1.89489C45.1075 1.49565 44.284 1.49565 43.7384 1.89489L31.7421 10.6672C31.3624 10.945 31.2783 11.4791 31.5544 11.861C31.7208 12.0911 31.9797 12.2135 32.2421 12.2135C32.4156 12.2135 32.5903 12.1601 32.7412 12.0497L34.0794 11.0714V21.4665H32.839C32.3695 21.4665 31.9894 21.8488 31.9894 22.3211C31.9894 22.7929 32.3695 23.1757 32.839 23.1757H48.9374C49.4069 23.1757 49.787 22.7929 49.787 22.3211C49.787 21.8488 49.4069 21.4665 48.9374 21.4665H48.2723V13.3111C48.2723 12.6052 47.7014 12.0305 46.9992 12.0305H42.3923C41.6905 12.0305 41.1196 12.6052 41.1196 13.3111V21.4665H35.7786L35.7781 9.97021C35.7839 9.91101 35.8476 9.78461 35.8866 9.74989L44.6959 3.30762L53.5009 9.74633C53.5452 9.78683 53.608 9.91101 53.6133 9.96309V21.4665H53.0155C52.5464 21.4665 52.1659 21.8488 52.1659 22.3211C52.1659 22.7933 52.5464 23.1757 53.0155 23.1757H56.5529C57.0224 23.1757 57.4025 22.7933 57.4025 22.3211C57.4025 21.8488 57.0224 21.4665 56.5529 21.4665H55.313V11.0714L56.6511 12.0497C57.0308 12.3274 57.5618 12.2429 57.8379 11.861C58.1136 11.4791 58.0295 10.945 57.6498 10.6672V10.6672ZM42.8184 13.7397H46.5731V21.4665H42.8184V13.7397ZM51.7229 6.33291L50.0343 5.09823V3.78743H51.7229V6.33291Z" fill="#095783"/>
<path d="M54.3099 38.6674L49.8199 35.384C49.8194 35.384 49.819 35.3835 49.8185 35.3831L47.7896 33.8996V27.2846C47.7896 26.499 47.1547 25.8603 46.3736 25.8603H42.4225C41.6419 25.8603 41.0065 26.499 41.0065 27.2846V28.9395L36.0779 25.3351C35.5318 24.9359 34.7083 24.9359 34.1627 25.3351L27.7694 30.0104V21.5243L29.5731 22.8435C29.9528 23.1208 30.4838 23.0362 30.7599 22.6548C31.0356 22.2729 30.9515 21.7383 30.5723 21.4606L26.9632 18.8221C26.9628 18.8212 26.9619 18.8208 26.961 18.8203L25.5512 17.7891V12.837C25.5512 12.0518 24.9162 11.4127 24.1352 11.4127H21.2938C20.5128 11.4127 19.8778 12.0518 19.8778 12.837V13.6404L16.4188 11.1113C16.3852 11.0864 16.3502 11.0633 16.3139 11.0415C16.309 11.0383 16.3037 11.0361 16.2989 11.033C16.0542 10.8888 15.7621 10.8096 15.4612 10.8096C15.1616 10.8096 14.8705 10.8884 14.6266 11.0312C14.6204 11.0348 14.6143 11.0379 14.6081 11.0415C14.5722 11.0633 14.5373 11.0864 14.5032 11.1113L3.96097 18.8203C3.96053 18.8208 3.95964 18.8212 3.95876 18.8221L0.350141 21.4611C-0.0290849 21.7388 -0.113161 22.2729 0.162519 22.6548C0.328901 22.8849 0.587765 23.0069 0.850613 23.0069C1.02363 23.0069 1.19842 22.9539 1.34931 22.8435L3.15296 21.5247V34.1586H1.55065C1.0816 34.1586 0.701046 34.541 0.701046 35.0132C0.701046 35.485 1.0816 35.8678 1.55065 35.8678H19.7597L15.9311 38.6674C15.5515 38.9451 15.4674 39.4797 15.7435 39.8616C16.0192 40.243 16.5506 40.3276 16.9303 40.0499L19.6137 38.0874V54.9551H17.3268C16.8577 54.9551 16.4772 55.3374 16.4772 55.8097C16.4772 56.2815 16.8577 56.6642 17.3268 56.6642H52.9138C53.3833 56.6642 53.7634 56.2815 53.7634 55.8097C53.7634 55.3374 53.3833 54.9551 52.9138 54.9551H50.627V50.2082C50.627 49.7364 50.2464 49.3536 49.7774 49.3536C49.3079 49.3536 48.9278 49.7364 48.9278 50.2082V54.9551H40.0622V42.2891C40.0622 41.4652 39.3958 40.7949 38.5772 40.7949H31.6639C30.8448 40.7949 30.1789 41.4652 30.1789 42.2891V54.9551H21.3133L21.3129 36.9863C21.3186 36.9271 21.3815 36.802 21.4208 36.7664L35.1208 26.7479L48.8154 36.7624C48.8596 36.8029 48.9225 36.9271 48.9278 36.9792V46.1058C48.9278 46.578 49.3079 46.9603 49.7774 46.9603C50.2469 46.9603 50.627 46.578 50.627 46.1058V38.0874L53.3108 40.0499C53.4617 40.1602 53.6364 40.2137 53.8099 40.2137C54.0723 40.2137 54.3316 40.0913 54.4976 39.8611C54.7732 39.4793 54.6892 38.9451 54.3099 38.6674V38.6674ZM31.8777 42.5041H38.363V54.9551H31.8777V42.5041ZM21.577 13.1223H23.852V16.5468L21.577 14.883V13.1223ZM4.85217 20.4235C4.85748 20.3639 4.9212 20.2384 4.96015 20.2032L15.4612 12.5241L25.9578 20.1997C26.0021 20.2402 26.0649 20.3643 26.0702 20.416V31.2526L22.0965 34.1582H19.5101V30.8374C19.5101 30.3656 19.1296 29.9828 18.6605 29.9828C18.1915 29.9828 17.8109 30.3656 17.8109 30.8374V34.1582H13.1115V24.7975H17.8109V26.394C17.8109 26.8658 18.1915 27.2486 18.6605 27.2486C19.1296 27.2486 19.5101 26.8658 19.5101 26.394V24.4427C19.5101 23.6959 18.9061 23.0883 18.1636 23.0883H12.7588C12.0163 23.0883 11.4123 23.6959 11.4123 24.4427V34.1586H4.85217V20.4235ZM42.7062 27.5695H46.0909V32.6569L42.7062 30.1817V27.5695Z" fill="#095783"/>
<path d="M42.9856 40.7949C42.2046 40.7949 41.5696 41.4336 41.5696 42.2192V49.6447C41.5696 50.4303 42.2046 51.069 42.9856 51.069H45.8106C46.5916 51.069 47.2266 50.4303 47.2266 49.6447V42.2192C47.2266 41.4336 46.5916 40.7949 45.8106 40.7949H42.9856ZM45.5274 49.3598H43.2688V42.5041H45.5274V49.3598Z" fill="#095783"/>
<path d="M24.3555 40.7949C23.5749 40.7949 22.9395 41.4336 22.9395 42.2192V49.6447C22.9395 50.4303 23.5749 51.069 24.3555 51.069H27.1809C27.9614 51.069 28.5969 50.4303 28.5969 49.6447V42.2192C28.5969 41.4336 27.9614 40.7949 27.1809 40.7949H24.3555ZM26.8977 49.3598H24.6387V42.5041H26.8977V49.3598Z" fill="#095783"/>
</g>
<defs>
<clipPath id="clip0">
<rect width="58" height="58.3392" fill="white"/>
</clipPath>
</defs>
</svg>
