<svg width="58" height="58" viewBox="0 0 58 58" fill="none" xmlns="http://www.w3.org/2000/svg">
<g clip-path="url(#clip0)">
<path d="M56.7539 54.6015L49.4796 47.3272C47.6361 45.4837 44.6474 45.4837 42.8039 47.3272L35.5632 54.5679L56.7539 54.6015Z" fill="#F39B88"/>
<path d="M14.766 40.8237V49.7305H3.45508C2.10986 49.7305 1.01953 50.8208 1.01953 52.166C1.01953 53.5112 2.10986 54.6016 3.45508 54.6016H15.5815C18.3418 54.6016 20.5796 52.3638 20.5796 49.6039V41.3477L14.766 40.8237Z" fill="#89C9ED"/>
<path d="M20.4229 3.39844H15.0673C13.9079 3.39844 12.9685 4.33788 12.9685 5.49724V8.44477H22.5218V5.49724C22.5218 4.33788 21.5823 3.39844 20.4229 3.39844Z" fill="#4898C5"/>
<path d="M17.872 16.624C15.4758 16.624 13.5337 14.6814 13.5337 12.2856V8.4447H22.2103V12.2856C22.2103 14.6814 20.2677 16.624 17.872 16.624Z" fill="#E6F7FA"/>
<path d="M11.1714 30.2651V22.778C11.1714 19.8357 13.5569 17.4502 16.4991 17.4502C18.2032 17.4502 19.8047 18.2653 20.8074 19.6437L24.5386 24.7719H32.3948C33.7732 24.7719 34.891 25.8892 34.891 27.2681C34.891 28.6465 33.7732 29.7638 32.3948 29.7638H21.7508L19.2117 26.9096L20.2719 28.2637V34.8774H26.8617C29.6221 34.8774 31.8594 37.1151 31.8594 39.875V52.1661C31.8594 53.5113 30.7691 54.6016 29.4238 54.6016C28.0791 54.6016 26.9883 53.5113 26.9883 52.1661V41.1437H17.2027C13.8716 41.1437 11.1714 38.4435 11.1714 35.1128C11.1714 34.8654 11.1714 28.2637 11.1714 28.2637" fill="#89C9ED"/>
<path d="M20.2719 35.1124V28.2637L19.2117 26.9096L21.7504 29.7638H32.3948C33.7732 29.7638 34.8905 28.6465 34.8905 27.2681C34.8905 25.8897 33.7732 24.7723 32.3948 24.7723H24.5386L20.8074 19.6437C19.8047 18.2657 18.2037 17.4502 16.4991 17.4502C13.5569 17.4502 11.1714 19.8357 11.1714 22.778V30.2652V35.1124H20.2719Z" fill="#CEE7F5"/>
<path d="M43.3721 9.98778C43.3721 12.0945 44.4743 13.9429 46.1329 14.9907C47.7914 13.9429 48.8936 12.0945 48.8936 9.98778C48.8936 7.88057 47.7914 6.03223 46.1329 4.98438C44.4743 6.03223 43.3721 7.88057 43.3721 9.98778V9.98778Z" fill="#B5D988"/>
<path d="M48.309 22.0571C46.4354 23.9302 45.7721 26.5542 46.3151 28.9606C48.7214 29.5031 51.345 28.8398 53.2186 26.9667C55.0917 25.0931 55.7551 22.4695 55.2125 20.0631C52.8062 19.5202 50.1821 20.1835 48.309 22.0571Z" fill="#B5D988"/>
<path d="M44.2269 17.8953C45.8668 19.5352 46.4474 21.8318 45.9721 23.9386C43.8658 24.4134 41.5692 23.8328 39.9293 22.1929C38.2894 20.553 37.7088 18.2564 38.1836 16.15C40.2904 15.6748 42.587 16.2553 44.2269 17.8953V17.8953Z" fill="#B5D988"/>
<path d="M43.7371 30.0705C45.7988 32.1325 46.5289 35.0199 45.9315 37.6683C43.2831 38.2657 40.3958 37.5355 38.3337 35.4739C36.2721 33.4118 35.5419 30.5245 36.1393 27.8761C38.7877 27.2791 41.6751 28.0088 43.7371 30.0705V30.0705Z" fill="#B5D988"/>
<path d="M57.5549 53.8007L50.2805 46.5263C49.4265 45.6718 48.3711 45.1373 47.2658 44.9227V30.2497C47.5034 30.2696 47.7401 30.2793 47.9764 30.2793C50.2221 30.2793 52.3895 29.3978 54.0197 27.7676C56.1105 25.6768 56.9694 22.7036 56.3176 19.8136C56.2216 19.387 55.8884 19.0543 55.4618 18.9578C52.5723 18.3064 49.5986 19.1653 47.5082 21.2562C47.4251 21.3389 47.345 21.4239 47.2658 21.5093V15.5806C49.0052 14.25 50.0265 12.2034 50.0265 9.98734C50.0265 7.55622 48.7973 5.32776 46.7383 4.0268C46.3684 3.79315 45.8975 3.79315 45.5276 4.0268C43.4686 5.32776 42.2393 7.55622 42.2393 9.98734C42.2393 12.2034 43.2606 14.25 45.0001 15.5806V17.0674C43.1372 15.2226 40.499 14.4664 37.9346 15.0447C37.5081 15.1412 37.1749 15.4744 37.0788 15.9005C36.4978 18.4777 37.2638 21.1292 39.1281 22.9939C40.5822 24.448 42.515 25.2339 44.5178 25.2339C44.6784 25.2339 44.8391 25.2272 45.0001 25.2175V29.7673C44.8528 29.597 44.6992 29.4306 44.5381 29.2695C42.288 27.0198 39.0975 26.0826 35.9859 26.7512C35.7341 24.994 34.2198 23.6391 32.3949 23.6391H25.1153L21.7235 18.9773C21.2438 18.3175 20.6464 17.7653 19.9734 17.3365C21.95 16.5108 23.343 14.558 23.343 12.2857V9.57758H25.0896C25.7153 9.57758 26.2224 9.07047 26.2224 8.44477C26.2224 7.81907 25.7153 7.31195 25.0896 7.31195H23.6546V5.49724C23.6546 3.71527 22.2049 2.26562 20.4229 2.26562H15.0673C13.2853 2.26562 11.8357 3.71527 11.8357 5.49724V7.31195H10.4006C9.77494 7.31195 9.26783 7.81907 9.26783 8.44477C9.26783 9.07047 9.77494 9.57758 10.4006 9.57758H12.4008V12.2857C12.4008 14.0495 13.2406 15.6204 14.5407 16.6218C11.933 17.4533 10.0387 19.8981 10.0387 22.778V35.1123C10.0387 37.7634 11.487 40.0812 13.6331 41.3198V48.5977H3.45508C1.4877 48.5977 -0.113281 50.1987 -0.113281 52.1661C-0.113281 54.1334 1.4877 55.7344 3.45508 55.7344H4.91358C5.53928 55.7344 6.04639 55.2273 6.04639 54.6016C6.04639 53.9759 5.53928 53.4688 4.91358 53.4688H3.45508C2.73689 53.4688 2.15235 52.8842 2.15235 52.1661C2.15235 51.4479 2.73689 50.8633 3.45508 50.8633H14.766C15.3917 50.8633 15.8988 50.3562 15.8988 49.7305V42.1553C16.3218 42.2336 16.7572 42.2765 17.2028 42.2765H19.4468V49.6035C19.4468 51.7351 17.7126 53.4688 15.5815 53.4688H13.9761C13.3504 53.4688 12.8433 53.9759 12.8433 54.6016C12.8433 55.2273 13.3504 55.7344 13.9761 55.7344H15.5815C18.9622 55.7344 21.7124 52.9842 21.7124 49.6035V42.2765H25.8556V52.1661C25.8556 54.1334 27.4566 55.7344 29.4239 55.7344C31.3918 55.7344 32.9923 54.1334 32.9923 52.1661V39.875C32.9923 36.4943 30.2426 33.7441 26.8618 33.7441H21.4049V30.8422C21.5155 30.8776 21.6319 30.8966 21.7509 30.8966H32.3949C33.3198 30.8966 34.1645 30.5483 34.8061 29.9766C34.8747 32.3206 35.8265 34.5681 37.5328 36.2748C39.3055 38.0475 41.6619 39.0055 44.1032 39.0055C44.4014 39.0055 44.7005 38.9905 45.0001 38.9617V44.9267C43.9009 45.1435 42.8526 45.6763 42.003 46.5263L34.7623 53.767C34.3198 54.2091 34.3198 54.9264 34.7623 55.3689C35.2044 55.8114 35.9221 55.8114 36.3642 55.3689L43.6049 48.1286C45.0037 46.7294 47.2795 46.7294 48.6787 48.1286L55.953 55.4025C56.1743 55.6238 56.4641 55.7344 56.7539 55.7344C57.0438 55.7344 57.3336 55.6238 57.5549 55.4025C57.9974 54.96 57.9974 54.2427 57.5549 53.8007V53.8007ZM44.982 22.9479C43.412 23.0811 41.8641 22.5253 40.7304 21.392C39.5971 20.2583 39.0405 18.7109 39.1745 17.1404C40.7446 17.0068 42.2924 17.563 43.4261 18.6963C44.5594 19.83 45.1156 21.3779 44.982 22.9479ZM49.1101 22.858C50.4717 21.4969 52.3417 20.8451 54.2295 21.0464C54.4304 22.9333 53.779 24.8042 52.4178 26.1653C51.0563 27.5269 49.1862 28.1783 47.2985 27.9769C47.2781 27.7849 47.2688 27.5933 47.2658 27.4021V27.1818C47.2972 25.5728 47.9406 24.0276 49.1101 22.858V22.858ZM46.1329 6.39331C47.1635 7.2947 47.7609 8.59212 47.7609 9.98778C47.7609 11.383 47.1635 12.6804 46.1329 13.5818C45.1023 12.6804 44.505 11.3834 44.505 9.98778C44.505 8.59212 45.1023 7.2947 46.1329 6.39331ZM21.0774 12.2857C21.0774 14.0531 19.6393 15.4912 17.8719 15.4912C16.1041 15.4912 14.6664 14.0531 14.6664 12.2857V9.57758H21.0774V12.2857ZM14.1013 5.49724C14.1013 4.96446 14.5345 4.53125 15.0673 4.53125H20.4229C20.9557 4.53125 21.3889 4.96446 21.3889 5.49724V7.31195H14.1013V5.49724ZM26.8618 36.0097C28.9929 36.0097 30.7267 37.7439 30.7267 39.875V52.1661C30.7267 52.8842 30.1426 53.4688 29.4239 53.4688C28.7058 53.4688 28.1212 52.8842 28.1212 52.1661V41.1437C28.1212 40.5184 27.6141 40.0109 26.9884 40.0109H17.2024C14.8084 40.0109 12.811 38.2838 12.3879 36.0097H26.8618ZM32.3949 28.631H22.2589L20.0583 26.1569C19.6424 25.6892 18.9264 25.6476 18.4587 26.0631C17.9914 26.4791 17.9493 27.195 18.3653 27.6628L19.1392 28.5323V33.7441H12.3043V22.778C12.3043 20.465 14.1863 18.583 16.4992 18.583C17.8365 18.583 19.1047 19.2286 19.8915 20.3101L23.6227 25.4383C23.836 25.7317 24.1763 25.9047 24.5387 25.9047H32.3949C33.1467 25.9047 33.7583 26.5162 33.7583 27.2681C33.7583 28.0194 33.1463 28.631 32.3949 28.631V28.631ZM44.9523 36.689C42.8106 36.9443 40.6799 36.2177 39.1352 34.6729C37.5904 33.1282 36.8629 30.997 37.1187 28.8553C39.2599 28.5987 41.3915 29.327 42.9363 30.8718C44.2642 32.1998 44.986 33.9614 45.0001 35.7903V35.9504C44.9966 36.196 44.9815 36.4425 44.9523 36.689Z" fill="#095783"/>
<path d="M9.44443 53.4688C9.14618 53.4688 8.85545 53.59 8.64349 53.8006C8.43286 54.0113 8.3125 54.3038 8.3125 54.6016C8.3125 54.8994 8.43286 55.1919 8.64349 55.4025C8.85545 55.6131 9.14618 55.7344 9.44443 55.7344C9.74223 55.7344 10.0343 55.6131 10.2462 55.4025C10.4569 55.1919 10.5781 54.8994 10.5781 54.6016C10.5781 54.3038 10.4569 54.0113 10.2462 53.8006C10.0343 53.59 9.74223 53.4688 9.44443 53.4688Z" fill="#095783"/>
</g>
<defs>
<clipPath id="clip0">
<rect width="58" height="58" fill="white"/>
</clipPath>
</defs>
</svg>
