<svg width="58" height="58" viewBox="0 0 58 58" fill="none" xmlns="http://www.w3.org/2000/svg">
<g clip-path="url(#clip0)">
<path d="M42.5334 10.6333H57.0334V33.8333H42.5334V10.6333Z" fill="white"/>
<path d="M0.966553 10.6333H15.4666V33.8333H0.966553V10.6333Z" fill="white"/>
<path d="M15.4666 16.4333V33.8333H23.1999V16.4333H15.4666Z" fill="#F39B88"/>
<path d="M34.8 16.4333V33.8333H42.5334V16.4333H34.8Z" fill="#F39B88"/>
<path d="M19.3333 6.76672H23.1999V16.4334H19.3333V6.76672Z" fill="#93C257"/>
<path d="M34.8 6.76672H38.6667V16.4334H34.8V6.76672Z" fill="#93C257"/>
<path d="M23.2 33.8333V0.966675H34.7999V33.8333" fill="white"/>
<path d="M26.1001 3.8667H28.0334V5.80003H26.1001V3.8667Z" fill="#F39B88"/>
<path d="M29.9668 3.8667H31.9001V5.80003H29.9668V3.8667Z" fill="#F39B88"/>
<path d="M26.1001 7.7334H28.0334V9.66673H26.1001V7.7334Z" fill="#F39B88"/>
<path d="M29.9668 7.7334H31.9001V9.66673H29.9668V7.7334Z" fill="#F39B88"/>
<path d="M26.1001 11.6H28.0334V13.5333H26.1001V11.6Z" fill="#F39B88"/>
<path d="M29.9668 11.6H31.9001V13.5333H29.9668V11.6Z" fill="#F39B88"/>
<path d="M26.1001 15.4668H28.0334V17.4001H26.1001V15.4668Z" fill="#F39B88"/>
<path d="M29.9668 15.4668H31.9001V17.4001H29.9668V15.4668Z" fill="#F39B88"/>
<path d="M26.1001 19.3334H28.0334V21.2667H26.1001V19.3334Z" fill="#F39B88"/>
<path d="M29.9668 19.3334H31.9001V21.2667H29.9668V19.3334Z" fill="#F39B88"/>
<path d="M37.7 19.3334H39.6333V21.2667H37.7V19.3334Z" fill="#93C257"/>
<path d="M37.7 23.2H39.6333V25.1333H37.7V23.2Z" fill="#93C257"/>
<path d="M37.7 27.0667H39.6333V29H37.7V27.0667Z" fill="#93C257"/>
<path d="M37.7 30.9333H39.6333V32.8667H37.7V30.9333Z" fill="#93C257"/>
<path d="M18.3667 19.3334H20.3V21.2667H18.3667V19.3334Z" fill="#93C257"/>
<path d="M18.3667 23.2H20.3V25.1333H18.3667V23.2Z" fill="#93C257"/>
<path d="M18.3667 27.0667H20.3V29H18.3667V27.0667Z" fill="#93C257"/>
<path d="M18.3667 30.9333H20.3V32.8667H18.3667V30.9333Z" fill="#93C257"/>
<path d="M44.4666 6.76672H55.0999V10.6334H44.4666V6.76672Z" fill="#D5EDB8"/>
<path d="M45.4333 13.5333H49.3V15.4667H45.4333V13.5333Z" fill="#F39B88"/>
<path d="M51.2334 13.5333H55.1001V15.4667H51.2334V13.5333Z" fill="#F39B88"/>
<path d="M45.4333 17.4H49.3V19.3334H45.4333V17.4Z" fill="#F39B88"/>
<path d="M51.2334 17.4H55.1001V19.3334H51.2334V17.4Z" fill="#F39B88"/>
<path d="M2.90015 6.76672H13.5335V10.6334H2.90015V6.76672Z" fill="#D5EDB8"/>
<path d="M3.8667 13.5333H12.5667V15.4667H3.8667V13.5333Z" fill="#F39B88"/>
<path d="M3.8667 17.4H12.5667V19.3334H3.8667V17.4Z" fill="#F39B88"/>
<path d="M36.9074 36.5011C36.2168 34.8826 34.6266 33.8324 32.8665 33.8334H25.1332C23.3736 33.8338 21.7843 34.8836 21.0923 36.5011L18.8499 41.2651L21.2665 46.4L25.1332 37.7V57.0334H32.8665V38.6667L36.7332 46.4L39.1499 41.2651L36.9074 36.5011Z" fill="#6BB4DD"/>
<path d="M53.1667 33.8334H45.4334C43.6742 33.8334 42.0841 34.8817 41.3907 36.4983L39.1501 41.2651L36.7334 46.4H41.5667L45.4334 37.7V57.0334H53.1667V46.4H57.0334V37.7C57.0334 35.5647 55.3021 33.8334 53.1667 33.8334Z" fill="#ADDCF6"/>
<path d="M18.8499 41.267L16.6083 36.5002C15.9154 34.8831 14.3257 33.8343 12.5666 33.8334H4.83322C2.69787 33.8334 0.966553 35.5647 0.966553 37.7V46.4H4.83322V57.0334H12.5666V38.6667L16.4332 46.4H21.2666L18.8499 41.2651V41.267Z" fill="#ADDCF6"/>
<path d="M29 24.1666C31.1353 24.1666 32.8666 25.8979 32.8666 28.0333V29.9666C32.8666 32.102 31.1353 33.8333 29 33.8333C26.8646 33.8333 25.1333 32.102 25.1333 29.9666V28.0333C25.1333 25.8979 26.8646 24.1666 29 24.1666Z" fill="#6BB4DD"/>
<path d="M8.69992 24.1666C10.8353 24.1666 12.5666 25.8979 12.5666 28.0333V29.9666C12.5666 32.102 10.8353 33.8333 8.69992 33.8333C6.56457 33.8333 4.83325 32.102 4.83325 29.9666V28.0333C4.83325 25.8979 6.56457 24.1666 8.69992 24.1666Z" fill="#ADDCF6"/>
<path d="M49.3 33.8333C47.1647 33.8333 45.4333 32.102 45.4333 29.9666V28.0333C45.4333 25.8979 47.1647 24.1666 49.3 24.1666C51.4354 24.1666 53.1667 25.8979 53.1667 28.0333V29.9666C53.1667 32.102 51.4354 33.8333 49.3 33.8333Z" fill="#ADDCF6"/>
<path d="M7.7334 46.4H9.66673V57.0334H7.7334V46.4Z" fill="#6BB4DD"/>
<path d="M3.8667 37.7H5.80003V46.3999H3.8667V37.7Z" fill="#6BB4DD"/>
<path d="M52.2 36.7334H54.1333V46.4001H52.2V36.7334Z" fill="#6BB4DD"/>
<path d="M48.3333 46.4H50.2666V57.0334H48.3333V46.4Z" fill="#6BB4DD"/>
<path d="M28.0334 47.3667H29.9668V57.0334H28.0334V47.3667Z" fill="#6BB4DD"/>
<path d="M0 56.0667H58V58H0V56.0667Z" fill="white"/>
<path d="M26.1001 3.8667H28.0334V5.80003H26.1001V3.8667Z" fill="#095783"/>
<path d="M29.9666 3.8667H31.8999V5.80003H29.9666V3.8667Z" fill="#095783"/>
<path d="M26.1001 7.73328H28.0334V9.66661H26.1001V7.73328Z" fill="#095783"/>
<path d="M29.9666 7.73328H31.8999V9.66661H29.9666V7.73328Z" fill="#095783"/>
<path d="M26.1001 11.6H28.0334V13.5333H26.1001V11.6Z" fill="#095783"/>
<path d="M29.9666 11.6H31.8999V13.5333H29.9666V11.6Z" fill="#095783"/>
<path d="M26.1001 15.4667H28.0334V17.4H26.1001V15.4667Z" fill="#095783"/>
<path d="M29.9666 15.4667H31.8999V17.4H29.9666V15.4667Z" fill="#095783"/>
<path d="M26.1001 19.3334H28.0334V21.2667H26.1001V19.3334Z" fill="#095783"/>
<path d="M29.9666 19.3334H31.8999V21.2667H29.9666V19.3334Z" fill="#095783"/>
<path d="M37.7 19.3334H39.6333V21.2667H37.7V19.3334Z" fill="#095783"/>
<path d="M37.7 23.2H39.6333V25.1333H37.7V23.2Z" fill="#095783"/>
<path d="M37.7 27.0667H39.6333V29H37.7V27.0667Z" fill="#095783"/>
<path d="M37.7 30.9333H39.6333V32.8667H37.7V30.9333Z" fill="#095783"/>
<path d="M18.3667 19.3334H20.3V21.2667H18.3667V19.3334Z" fill="#095783"/>
<path d="M18.3667 23.2H20.3V25.1333H18.3667V23.2Z" fill="#095783"/>
<path d="M18.3667 27.0667H20.3V29H18.3667V27.0667Z" fill="#095783"/>
<path d="M18.3667 30.9333H20.3V32.8667H18.3667V30.9333Z" fill="#095783"/>
<path d="M57.0333 9.66667H56.0667V6.76667C56.0667 6.23283 55.6338 5.8 55.1 5.8H44.4667C43.9328 5.8 43.5 6.23283 43.5 6.76667V9.66667H42.5333C41.9995 9.66667 41.5667 10.0995 41.5667 10.6333V15.4667H39.6333V6.76667C39.6333 6.23283 39.2005 5.8 38.6667 5.8H35.7667V0.966667C35.7667 0.432829 35.3338 0 34.8 0H23.2C22.6662 0 22.2333 0.432829 22.2333 0.966667V5.8H19.3333C18.7995 5.8 18.3667 6.23283 18.3667 6.76667V15.4667H16.4333V10.6333C16.4333 10.0995 16.0005 9.66667 15.4667 9.66667H14.5V6.76667C14.5 6.23283 14.0672 5.8 13.5333 5.8H2.9C2.36616 5.8 1.93333 6.23283 1.93333 6.76667V9.66667H0.966667C0.432829 9.66667 0 10.0995 0 10.6333V31.9H1.93333V11.6H14.5V24.1667H16.4333V17.4H22.2333V23.2H24.1667V1.93333H33.8333V23.2H35.7667V17.4H41.5667V29H43.5V11.6H56.0667V31.9H58V10.6333C58 10.0995 57.5672 9.66667 57.0333 9.66667ZM3.86667 9.66667V7.73333H12.5667V9.66667H3.86667ZM20.3 15.4667V7.73333H22.2333V15.4667H20.3ZM35.7667 15.4667V7.73333H37.7V15.4667H35.7667ZM45.4333 9.66667V7.73333H54.1333V9.66667H45.4333Z" fill="#095783"/>
<path d="M45.4333 13.5333H49.3V15.4667H45.4333V13.5333Z" fill="#095783"/>
<path d="M51.2334 13.5333H55.1001V15.4667H51.2334V13.5333Z" fill="#095783"/>
<path d="M45.4333 17.4H49.3V19.3334H45.4333V17.4Z" fill="#095783"/>
<path d="M51.2334 17.4H55.1001V19.3334H51.2334V17.4Z" fill="#095783"/>
<path d="M53.1667 32.8666H53.1416C53.7812 32.0349 54.1296 31.0159 54.1333 29.9666V28.0333C54.1333 25.3641 51.9692 23.2 49.3 23.2C46.6308 23.2 44.4667 25.3641 44.4667 28.0333V29.9666C44.4704 31.0159 44.8188 32.0349 45.4583 32.8666H45.4333C43.2933 32.8652 41.3571 34.1373 40.5089 36.1022L39.15 38.9942L37.7968 36.1206C36.9538 34.1457 35.0133 32.8652 32.8667 32.8666H32.8416C33.4812 32.0349 33.8296 31.0159 33.8333 29.9666V28.0333C33.8333 25.3641 31.6692 23.2 29 23.2C26.3308 23.2 24.1667 25.3641 24.1667 28.0333V29.9666C24.1704 31.0159 24.5188 32.0349 25.1583 32.8666H25.1333C22.9994 32.8671 21.0689 34.133 20.2179 36.0895L18.8509 38.9895L17.4977 36.1126C16.6519 34.141 14.7119 32.8638 12.5667 32.8666H12.5417C13.1812 32.0349 13.5296 31.0159 13.5333 29.9666V28.0333C13.5333 25.3641 11.3692 23.2 8.7 23.2C6.03081 23.2 3.86667 25.3641 3.86667 28.0333V29.9666C3.87044 31.0159 4.21878 32.0349 4.85835 32.8666H4.83333C2.16509 32.8699 0.00330404 35.0317 0 37.6999V46.3999C0 46.9338 0.432829 47.3666 0.966667 47.3666H3.86667V56.0666H0V57.9999H58V56.0666H54.1333V47.3666H57.0333C57.5672 47.3666 58 46.9338 58 46.3999V37.6999C57.9967 35.0317 55.8349 32.8699 53.1667 32.8666V32.8666ZM46.4 29.9666V28.0333C46.4 26.4318 47.6985 25.1333 49.3 25.1333C50.9015 25.1333 52.2 26.4318 52.2 28.0333V29.9666C52.2 31.5681 50.9015 32.8666 49.3 32.8666C47.6985 32.8666 46.4 31.5681 46.4 29.9666ZM26.1 29.9666V28.0333C26.1 26.4318 27.3985 25.1333 29 25.1333C30.6015 25.1333 31.9 26.4318 31.9 28.0333V29.9666C31.9 31.5681 30.6015 32.8666 29 32.8666C27.3985 32.8666 26.1 31.5681 26.1 29.9666ZM5.8 29.9666V28.0333C5.8 26.4318 7.09849 25.1333 8.7 25.1333C10.3015 25.1333 11.6 26.4318 11.6 28.0333V29.9666C11.6 31.5681 10.3015 32.8666 8.7 32.8666C7.09849 32.8666 5.8 31.5681 5.8 29.9666ZM9.66667 56.0666V46.3999H7.73333V56.0666H5.8V37.6999H3.86667V45.4333H1.93333V37.6999C1.93333 36.0984 3.23182 34.7999 4.83333 34.7999H12.5667C13.9506 34.8018 15.199 35.6335 15.7333 36.9103L19.744 45.4333H17.0309L13.4366 38.2347C13.2393 37.8269 12.7857 37.6112 12.3453 37.7146C11.9044 37.8184 11.5948 38.214 11.6 38.6666V56.0666H9.66667ZM21.5277 47.3279C21.5546 47.3189 21.581 47.3086 21.607 47.2972C21.6617 47.2774 21.7141 47.2529 21.7646 47.2236C21.8364 47.1759 21.9034 47.1212 21.9648 47.0603C21.9884 47.0348 22.0105 47.0079 22.0313 46.98C22.0497 46.9602 22.0672 46.9394 22.0837 46.9182C22.0979 46.8941 22.1049 46.8677 22.1182 46.8436C22.1319 46.8196 22.1413 46.8115 22.1503 46.7922L24.1667 42.2548V56.0666H13.5333V42.7613L15.5681 46.8318C15.7319 47.1599 16.0671 47.3666 16.4333 47.3666H21.2667C21.3549 47.3661 21.4427 47.3529 21.5277 47.3279V47.3279ZM29.9667 56.0666V47.3666H28.0333V56.0666H26.1V37.6999C26.1 37.243 25.7805 36.8489 25.3339 36.754C24.8874 36.6592 24.4352 36.89 24.2497 37.3077L21.2416 44.0744L19.9191 41.2631L21.9808 36.8791C22.2465 36.2589 22.6888 35.7307 23.2533 35.3607C23.8103 34.9916 24.465 34.7966 25.1333 34.7999H32.8667C34.2511 34.8028 35.4981 35.6359 36.0315 36.9131L38.08 41.2631L36.7064 44.1834L33.7366 38.2347C33.5393 37.8269 33.0857 37.6112 32.6453 37.7146C32.2044 37.8184 31.8948 38.214 31.9 38.6666V56.0666H29.9667ZM42.4503 46.7922L44.4667 42.2548V56.0666H33.8333V42.7613L35.8634 46.8318C35.87 46.8455 35.8818 46.8564 35.8894 46.8686C35.8969 46.8814 35.9021 46.9026 35.9116 46.9182C35.9319 46.9451 35.9536 46.9706 35.9762 46.9956C35.997 47.0235 36.0187 47.0499 36.0423 47.0759C36.0796 47.1108 36.1197 47.1429 36.1622 47.1721C36.1891 47.1915 36.2132 47.2127 36.2415 47.2293C36.2906 47.2566 36.3425 47.2798 36.3958 47.2982C36.4223 47.3076 36.4464 47.3213 36.4733 47.3289C36.5577 47.3529 36.6455 47.3657 36.7333 47.3666H41.5667C41.949 47.3666 42.295 47.1415 42.4503 46.7922V46.7922ZM56.0667 45.4333H54.1333V36.7333H52.2V56.0666H50.2667V46.3999H48.3333V56.0666H46.4V37.6999C46.4 37.243 46.0805 36.8489 45.6339 36.754C45.1874 36.6592 44.7352 36.89 44.5497 37.3077L40.9394 45.4333H38.256L42.2666 36.9103C42.2714 36.8994 42.2751 36.89 42.2789 36.8791C42.8194 35.617 44.0603 34.799 45.4333 34.7999H53.1667C54.7682 34.7999 56.0667 36.0984 56.0667 37.6999V45.4333Z" fill="#095783"/>
<path d="M3.8667 13.5333H12.5667V15.4667H3.8667V13.5333Z" fill="#095783"/>
<path d="M3.8667 17.4H12.5667V19.3334H3.8667V17.4Z" fill="#095783"/>
</g>
<defs>
<clipPath id="clip0">
<rect width="58" height="58" fill="white"/>
</clipPath>
</defs>
</svg>
