<svg width="58" height="59" viewBox="0 0 58 59" fill="none" xmlns="http://www.w3.org/2000/svg">
<g clip-path="url(#clip0)">
<path d="M31.6538 17.8597C56.2734 17.8597 48.6637 53.9016 51.8611 53.9016C52.8842 53.9016 53.6516 54.7398 53.6516 55.7069V56.674C53.6516 57.7056 52.8203 58.4793 51.8611 58.4793C38.3682 58.4793 24.8754 58.4793 11.3826 58.4793C10.3594 58.4793 9.59204 57.6412 9.59204 56.674V55.7069C9.59204 54.6753 10.4234 53.9016 11.3826 53.9016C14.6439 53.9016 7.03416 17.8597 31.6538 17.8597Z" fill="#B5D988"/>
<path d="M48.0882 50.3554C47.8324 49.5172 47.7685 47.1961 47.7045 45.1329C47.3848 36.1063 46.7453 18.2466 32.5491 14.8294C32.6769 14.636 32.7409 14.4425 32.7409 14.1846C32.7409 13.6043 32.2933 13.153 31.7177 13.0885C34.0198 10.8319 36.1301 7.09231 37.0893 2.3856C37.2172 1.80532 37.0893 1.28951 36.7696 0.902658C36.1301 0.128951 34.9151 0 33.9559 0C32.4851 0 30.4388 0.257902 28.2646 0.58028C25.8346 0.902658 23.3407 1.22504 21.3583 1.22504C20.3352 1.22504 19.5038 1.16056 18.9923 0.967133C18.6725 0.838182 18.2889 0.902658 17.9691 1.09608C17.6494 1.28951 17.5215 1.67636 17.5215 1.99874C17.5215 5.93175 20.0154 10.3806 22.7651 13.0885C22.2536 13.2175 21.9338 13.6688 21.9338 14.1846C21.9338 14.4425 22.0617 14.7004 22.1896 14.8939C8.18522 18.44 7.54574 36.1063 7.22601 45.1329C7.16206 47.1961 7.09811 49.5172 6.84232 50.3554C5.43549 50.5488 4.34839 51.7739 4.34839 53.2568V54.224C4.34839 55.8358 5.69128 57.1898 7.28995 57.1898H47.7685C49.3671 57.1898 50.71 55.8358 50.71 54.224V53.2568C50.5821 51.8384 49.495 50.6133 48.0882 50.3554ZM19.8875 3.48168C22.1257 3.73958 25.4509 3.28825 28.5843 2.9014C30.6946 2.6435 32.613 2.3856 33.9559 2.3856C34.4035 2.3856 34.6593 2.3856 34.8511 2.45007C33.5083 8.51077 30.247 12.1859 28.0088 13.153H26.3462C24.108 11.9925 20.527 7.67259 19.8875 3.48168ZM48.344 54.224C48.344 54.6108 48.0242 54.9332 47.6406 54.9332H7.16206C6.77838 54.9332 6.45864 54.6108 6.45864 54.224V53.2568C6.45864 52.87 6.77838 52.5476 7.16206 52.5476C9.08047 52.5476 9.20837 50.0975 9.40021 45.1974C9.78389 35.2037 10.4234 16.5702 27.4333 16.5702C44.4432 16.5702 45.0827 35.2037 45.4664 45.2618C45.6582 50.162 45.7222 52.6121 47.7045 52.6121C48.0882 52.6121 48.4079 52.9344 48.4079 53.3213V54.224H48.344Z" fill="#095783"/>
<path d="M24.0442 43.392C23.8523 43.3275 23.5965 43.1986 23.4047 43.1341L23.085 43.0051L23.1489 42.6828L23.3408 40.9419L23.4047 40.2972L23.9802 40.6195C24.0442 40.684 24.1721 40.684 24.236 40.7485C24.3 40.813 24.4279 40.813 24.4918 40.8774C24.6836 40.9419 24.8755 41.0064 25.1313 41.0709C25.3231 41.1353 25.515 41.1998 25.7707 41.1998C25.9626 41.2643 26.1544 41.2643 26.2823 41.2643C26.4742 41.2643 26.6021 41.3288 26.7939 41.3288C26.9218 41.3288 27.0497 41.3288 27.1776 41.3288C27.3055 41.3288 27.4334 41.3288 27.4973 41.3288C27.6252 41.3288 27.817 41.2643 27.9449 41.2643C28.0728 41.1998 28.2007 41.1353 28.3286 41.0709C28.4565 41.0064 28.5844 40.8774 28.7123 40.813C28.8402 40.7485 28.9041 40.6195 28.9681 40.4906C29.032 40.3616 29.096 40.2327 29.1599 40.1037C29.2239 39.9748 29.2239 39.7814 29.1599 39.6524C29.1599 39.5235 29.096 39.33 29.096 39.2011C29.032 39.0721 28.9681 38.9432 28.9041 38.8787C28.8402 38.7498 28.7123 38.6853 28.6484 38.6208C28.5205 38.5563 28.4565 38.4274 28.3286 38.3629C28.2007 38.2984 28.0728 38.2339 27.9449 38.1695C27.817 38.105 27.6892 38.0405 27.5613 38.0405C27.3055 37.9116 26.9857 37.8471 26.7299 37.7181C26.4742 37.5892 26.2184 37.4602 25.9626 37.3313C25.7068 37.2023 25.451 37.0734 25.2592 36.9444C25.0673 36.8155 24.8115 36.6221 24.6197 36.4286C24.4279 36.2352 24.236 36.1063 24.1081 35.9128C23.9802 35.7194 23.7884 35.526 23.7244 35.2681C23.5965 35.0102 23.5326 34.7523 23.4686 34.4944C23.4047 34.2365 23.4047 33.9786 23.4047 33.7207C23.4047 33.3983 23.4047 33.0759 23.4686 32.7535C23.5326 32.4311 23.5965 32.1732 23.7244 31.8509C23.8523 31.593 23.9802 31.3351 24.1721 31.0772C24.3639 30.8193 24.5557 30.6258 24.7476 30.4324C25.0034 30.239 25.1952 30.0456 25.451 29.9166C25.7068 29.7877 25.9626 29.6587 26.2823 29.5942L26.4102 29.5297V27.9823V27.531H26.8578H28.2007H28.6484V27.9823V29.4008H28.7763C28.9041 29.4008 29.096 29.4653 29.2239 29.4653C29.4157 29.5297 29.5436 29.5297 29.6715 29.5942C29.7994 29.6587 29.9273 29.6587 29.9912 29.6587C30.0552 29.6587 30.1831 29.7232 30.311 29.7877L30.6947 29.9166L30.6307 30.3035L30.4389 31.8509L30.3749 32.3667L29.8634 32.1732C29.7994 32.1732 29.6715 32.1088 29.4797 32.0443C29.4157 32.0443 29.2878 31.9798 29.1599 31.9798C28.9681 31.9153 28.8402 31.9153 28.6484 31.8509C28.4565 31.8509 28.3286 31.8509 28.1368 31.8509C28.0089 31.8509 27.881 31.8509 27.817 31.8509C27.7531 31.8509 27.6252 31.8509 27.4973 31.8509C27.3055 31.8509 27.1776 31.9153 26.9857 31.9153C26.8578 31.9798 26.666 32.0443 26.5381 32.1088C26.4102 32.1732 26.2823 32.3022 26.2184 32.4311C26.1544 32.5601 26.0905 32.6891 26.0265 32.818C25.9626 32.947 25.9626 33.0759 25.8986 33.2049C25.8986 33.3338 25.8986 33.5272 25.8986 33.6562C25.8986 33.7851 25.9626 33.9786 26.0265 34.1075C26.0905 34.2365 26.1544 34.3654 26.2184 34.4299C26.2823 34.5588 26.4102 34.6233 26.4742 34.6878C26.6021 34.7523 26.666 34.8167 26.7939 34.8812C26.9218 34.9457 27.0497 35.0102 27.1776 35.0746C27.3055 35.1391 27.4334 35.2036 27.5613 35.2036C27.817 35.3325 28.0728 35.397 28.3926 35.526C28.6484 35.6549 28.9041 35.7839 29.1599 35.9128C29.4157 36.0418 29.6076 36.1707 29.8634 36.3642C30.1191 36.4931 30.311 36.6865 30.5028 36.88C30.6947 37.0734 30.8865 37.2668 31.0144 37.4602C31.1423 37.6537 31.2702 37.8471 31.3981 38.105C31.526 38.3629 31.5899 38.6208 31.6539 38.8787C31.7178 39.1366 31.7178 39.3945 31.7178 39.6524C31.7178 39.9748 31.7178 40.2972 31.6539 40.5551C31.5899 40.8774 31.526 41.1353 31.3981 41.4577C31.2702 41.7156 31.1423 41.9735 30.9505 42.2314C30.7586 42.4893 30.5668 42.6828 30.3749 42.8762C30.1191 43.0696 29.8634 43.263 29.6076 43.392C29.3518 43.5209 29.032 43.6499 28.7123 43.7144L28.5844 43.7788V45.3263V45.7776H28.1368H26.7939H26.3463V45.3263V43.9078H26.2184C25.9626 43.9078 25.7068 43.8433 25.451 43.7788C25.1952 43.7144 24.9394 43.6499 24.7476 43.5854C24.4918 43.5854 24.236 43.4565 24.0442 43.392Z" fill="#095783"/>
</g>
<defs>
<clipPath id="clip0">
<rect width="58" height="58.4793" fill="white"/>
</clipPath>
</defs>
</svg>
