<svg width="58" height="58" viewBox="0 0 58 58" fill="none" xmlns="http://www.w3.org/2000/svg">
<g clip-path="url(#clip0)">
<path d="M43.5525 8.12571L39.5831 4.1563L36.8114 5.96012C35.4913 5.14888 34.0387 4.53816 32.4893 4.16772L31.8064 0.935547H26.1935L25.5097 4.16772C23.9603 4.53816 22.5078 5.14888 21.1877 5.96012L18.4159 4.1563L14.4465 8.12571L15.8836 11.5534L16.0201 18.7097H17.7742C17.7742 12.5103 22.8006 7.48393 29 7.48393C35.1994 7.48393 40.2258 12.5103 40.2258 18.7097H42.0967L42.0894 11.5534L43.5525 8.12571Z" fill="#D5EDB8"/>
<path d="M14.9893 9.41833L15.8845 11.5533L15.9033 18.7097H17.7742C17.7742 16.2988 18.5412 14.0706 19.8352 12.2417C18.649 10.732 16.9342 9.67779 14.9893 9.41833Z" fill="#93C257"/>
<path d="M42.9985 9.42517C41.0303 9.68142 39.3055 10.7064 38.1238 12.1846C39.4411 14.0249 40.2259 16.2737 40.2259 18.7097H42.0968L42.0895 11.5533L42.9985 9.42517Z" fill="#93C257"/>
<path d="M54.2581 34.6129V30.0506C54.2581 28.334 53.0897 26.8372 51.4238 26.4201L46.7743 25.2581L46.7724 23.5666C48.4497 22.5955 49.5807 20.7867 49.5807 18.7097V17.0744C49.5807 14.0012 47.2119 11.3213 44.1409 11.2285C40.9622 11.1331 38.3549 13.6815 38.3549 16.8387V18.7097C38.3549 20.7867 39.485 22.5946 41.1614 23.5657V25.2581L36.5118 26.421C34.8459 26.8372 33.6775 28.334 33.6775 30.0506V34.6129H54.2581Z" fill="#ADDCF6"/>
<path d="M41.1614 30.0506C41.1614 28.345 40.3876 26.8016 39.1483 25.7615L36.5118 26.4211C34.8459 26.8372 33.6775 28.3341 33.6775 30.0506V34.613H41.1614V30.0506Z" fill="#89C9ED"/>
<path d="M24.3226 34.6129V30.0506C24.3226 28.334 23.1541 26.8372 21.4883 26.4201L16.8387 25.2581L16.8369 23.5666C18.5142 22.5955 19.6452 20.7867 19.6452 18.7097V17.0744C19.6452 14.0012 17.2763 11.3213 14.2054 11.2285C11.0267 11.1331 8.41936 13.6815 8.41936 16.8387V18.7097C8.41936 20.7867 9.54943 22.5946 11.2258 23.5657V25.2581L6.57626 26.421C4.91038 26.8372 3.74194 28.334 3.74194 30.0506V34.6129H24.3226Z" fill="#ADDCF6"/>
<path d="M24.3225 30.0506C24.3225 28.3331 23.154 26.8371 21.4882 26.4201L18.8516 25.7605C17.6124 26.8015 16.8386 28.3459 16.8386 30.0506V34.6129H24.3225V30.0506Z" fill="#89C9ED"/>
<path d="M39.2904 34.6129V30.0506C39.2904 28.334 38.1219 26.8372 36.456 26.4201L31.8065 25.2581L31.8047 23.5666C33.482 22.5955 34.6129 20.7867 34.6129 18.7097V17.0744C34.6129 14.0012 32.2441 11.3213 29.1732 11.2285C25.9944 11.1331 23.3871 13.6815 23.3871 16.8387V18.7097C23.3871 20.7867 24.5172 22.5946 26.1936 23.5657V25.2581L21.544 26.421C19.8782 26.8372 18.7097 28.334 18.7097 30.0506V34.6129H39.2904Z" fill="#ADDCF6"/>
<path d="M54.2581 30.0506C54.2581 28.3331 53.0897 26.8371 51.4238 26.4201L50.3929 26.1625L37.8926 32.7419H37.6812L33.6775 31.5986V34.6129H54.2581V30.0506Z" fill="#89C9ED"/>
<path d="M39.2904 32.0065L37.8926 32.7419H37.6811L32.0545 31.135C31.5621 30.9934 31.0565 30.9253 30.5472 30.897L26.4613 29.5902C25.2366 29.1982 23.9627 29 22.675 29C21.7688 29 20.8621 29.0991 19.9622 29.2992L18.7499 29.5801C18.7294 29.7354 18.7097 29.8907 18.7097 30.0506V34.6129H39.2904V32.0065Z" fill="#89C9ED"/>
<path d="M19.9622 29.2992L15.9032 30.2397V28.8607L10.1761 25.5198L6.57626 26.4201C4.91038 26.8371 3.74194 28.334 3.74194 30.0506V34.6129H24.3226V30.0506C24.3226 29.7221 24.2673 29.407 24.1869 29.1009C23.6863 29.0402 23.182 29 22.675 29C21.7696 29 20.862 29.0991 19.9622 29.2992Z" fill="#89C9ED"/>
<path d="M39.5832 45.2604L31.6782 38.1461L30.174 32.7419L25.8912 31.3725C24.8521 31.0404 23.7668 30.871 22.6751 30.871C21.9045 30.871 21.1366 30.955 20.3843 31.1227L9.35492 33.6774L8.41943 41.1613L15.0144 45.3057L27.0122 55.3105L28.4583 56.5863C28.8073 56.8942 29.2572 57.0645 29.7232 57.0645H29.8954C30.9505 57.0645 31.8065 56.2085 31.8065 55.1534C31.8065 54.5865 31.5548 54.0484 31.1191 53.6848C31.5635 54.0553 32.1235 54.2581 32.7018 54.2581C33.757 54.2581 34.613 53.4021 34.613 52.3469C34.613 51.78 34.3613 51.242 33.9255 50.8784L30.3407 47.891L34.0808 51.0081C34.4248 51.2945 34.8583 51.4516 35.3055 51.4516H35.5083C36.5634 51.4516 37.4194 50.5956 37.4194 49.5405C37.4194 48.9736 37.1677 48.4355 36.732 48.0719L36.8795 48.1952C37.2285 48.4862 37.6684 48.6452 38.122 48.6452H38.2837C39.3566 48.6452 40.2259 47.7759 40.2259 46.7029C40.2259 46.153 39.992 45.6281 39.5832 45.2604Z" fill="#FAE5B0"/>
<path d="M39.5831 45.2604L31.6781 38.1461C31.1592 37.6783 30.4836 37.4193 29.7838 37.4193C29.2704 37.4193 28.767 37.5587 28.3271 37.8227L24.8447 39.9124C24.503 40.1171 24.112 40.2258 23.7137 40.2258C22.5 40.2258 21.5161 39.2419 21.5161 38.0282V37.8423C21.5161 37.0096 21.9866 36.2491 22.7311 35.8768L27.9503 33.2677C28.641 32.9214 29.4024 32.7419 30.1739 32.7419C30.6362 32.7419 31.0966 32.8063 31.5406 32.9338L37.4193 34.6129H38.3548L56.129 25.2581H57.0645V37.4193L40.2258 45.8387L39.5831 45.2604Z" fill="#F3C5BB"/>
<path d="M28.9999 46.7742L27.6995 48.1267L32.8839 52.4469C33.3274 52.8155 33.8505 53.0636 34.4032 53.2001C34.5333 52.9416 34.6128 52.6548 34.6128 52.3469C34.6128 51.78 34.3611 51.2419 33.9254 50.8783L28.9999 46.7742Z" fill="#FAE5B0"/>
<path d="M23.3872 54.1448C23.3872 55.2401 24.2761 56.129 25.3715 56.129C25.8981 56.129 26.4024 55.9203 26.7747 55.548L28.4182 53.9045C28.7905 53.5322 28.9992 53.0279 28.9992 52.5013C29.0001 51.405 28.1112 50.5161 27.0159 50.5161C26.4892 50.5161 25.9849 50.7249 25.6126 51.0971L23.9691 52.7406C23.596 53.1138 23.3872 53.6181 23.3872 54.1448Z" fill="#F3C5BB"/>
<path d="M20.5806 51.3384C20.5806 52.4337 21.4695 53.3226 22.5648 53.3226C23.0915 53.3226 23.5958 53.1139 23.968 52.7416L25.6115 51.0981C25.9838 50.7258 26.1926 50.2215 26.1926 49.6949C26.1935 48.5986 25.3046 47.7097 24.2092 47.7097C23.6826 47.7097 23.1783 47.9185 22.806 48.2907L21.1625 49.9342C20.7893 50.3074 20.5806 50.8117 20.5806 51.3384Z" fill="#F3C5BB"/>
<path d="M17.7742 48.5319C17.7742 49.6272 18.6631 50.5161 19.7584 50.5161C20.2851 50.5161 20.7894 50.3073 21.1616 49.9351L22.8051 48.2916C23.1774 47.9193 23.3862 47.415 23.3862 46.8884C23.3871 45.7921 22.4982 44.9032 21.4028 44.9032C20.8762 44.9032 20.3719 45.1119 19.9996 45.4842L18.3561 47.1277C17.9829 47.5009 17.7742 48.0052 17.7742 48.5319Z" fill="#F3C5BB"/>
<path d="M21.3224 46.8071C21.7893 46.3402 22.1099 45.7519 22.289 45.1211C22.0213 44.9863 21.723 44.9032 21.4028 44.9032C20.8762 44.9032 20.3719 45.1119 19.9996 45.4842L18.3561 47.1277C17.9838 47.5 17.7742 48.0052 17.7742 48.5319C17.7742 48.8521 17.8573 49.1503 17.9921 49.418C18.6229 49.2389 19.2121 48.9183 19.678 48.4515L21.3224 46.8071Z" fill="#F3C5BB"/>
<path d="M24.1288 49.6136C24.5957 49.1467 24.9163 48.5584 25.0954 47.9276C24.8277 47.7929 24.5294 47.7097 24.2092 47.7097C23.6826 47.7097 23.1783 47.9185 22.806 48.2907L21.1625 49.9342C20.7902 50.3065 20.5806 50.8117 20.5806 51.3384C20.5806 51.6586 20.6637 51.9569 20.7984 52.2245C21.4293 52.0455 22.0185 51.7248 22.4844 51.258L24.1288 49.6136Z" fill="#F3C5BB"/>
<path d="M26.9355 52.42C27.4023 51.9531 27.723 51.3648 27.902 50.734C27.6343 50.5992 27.3361 50.5161 27.0159 50.5161C26.4892 50.5161 25.9849 50.7249 25.6126 51.0971L23.9691 52.7406C23.5969 53.1129 23.3872 53.6181 23.3872 54.1448C23.3872 54.465 23.4703 54.7632 23.6051 55.0309C24.2359 54.8519 24.8251 54.5312 25.2911 54.0644L26.9355 52.42Z" fill="#F3C5BB"/>
<path d="M14.9678 45.7255C14.9678 46.8208 15.8567 47.7097 16.952 47.7097C17.4787 47.7097 17.983 47.501 18.3552 47.1287L19.9987 45.4852C20.371 45.1129 20.5798 44.6086 20.5798 44.082C20.5807 42.9857 19.6918 42.0968 18.5964 42.0968C18.0698 42.0968 17.5655 42.3055 17.1932 42.6778L15.5497 44.3213C15.1765 44.6945 14.9678 45.1988 14.9678 45.7255Z" fill="#F3C5BB"/>
<path d="M15.589 32.2332L9.35492 33.6775L8.41943 41.1614L12.3354 43.6216L15.589 32.2332Z" fill="#FAE5B0"/>
<path d="M14.0323 30.871L10.2904 43.9677H9.3549L0.935547 41.1613V23.3871H2.80651L14.0323 29.9355V30.871Z" fill="#E6F7FA"/>
<path d="M10.3521 27.7886L2.80651 23.3871H0.935547V41.1613L6.54845 43.0322L10.2904 28.0645L10.3521 27.7886Z" fill="#93C257"/>
<path d="M31.8066 43.9678L30.5061 45.3203L35.6905 49.6405C36.1341 50.0091 36.6571 50.2572 37.2098 50.3937C37.34 50.1352 37.4195 49.8484 37.4195 49.5405C37.4195 48.9736 37.1678 48.4355 36.732 48.0719L31.8066 43.9678Z" fill="#FAE5B0"/>
<path d="M58 24.3226H55.8979L52.7649 25.9711C52.4122 25.7765 52.0454 25.6116 51.6499 25.5125L47.7088 24.5263V24.0782C49.4523 22.8613 50.5161 20.8511 50.5161 18.7097V17.0744C50.5161 13.4403 47.6686 10.399 44.1687 10.2931C43.991 10.2885 43.8161 10.2949 43.6402 10.3036L44.662 7.91142L39.7083 2.95902L36.7881 4.85967C35.6786 4.2348 34.5051 3.74833 33.2864 3.40712L32.5652 0H25.4358L24.7145 3.40803C23.4958 3.74924 22.3214 4.23571 21.2128 4.86059L18.2926 2.95993L13.343 7.90959L14.3474 10.3036C14.3091 10.3017 14.2725 10.2949 14.2342 10.294C12.4427 10.2419 10.7553 10.8956 9.4736 12.1398C8.19005 13.3832 7.48387 15.0518 7.48387 16.8387V18.7097C7.48387 20.8511 8.5468 22.8604 10.2903 24.0773V24.5263L7.71957 25.169L3.05996 22.4516H0V41.836L9.20319 44.9032H10.9956L11.2194 44.1194L14.0405 45.8127C14.0866 47.3465 15.3167 48.5808 16.8492 48.6347C16.9031 50.1608 18.1296 51.3872 19.6557 51.4411C19.7096 52.9672 20.936 54.1937 22.4621 54.2476C22.5178 55.8093 23.7968 57.0645 25.3713 57.0645C25.956 57.0645 26.5293 56.8823 27.0112 56.5575L27.8398 57.2893C28.3591 57.7465 29.0279 58 29.7222 58H29.8953C31.452 58 32.7186 56.7416 32.7383 55.1899C34.2781 55.1703 35.5251 53.9232 35.5447 52.3834C37.0854 52.3638 38.3334 51.115 38.3512 49.5743C39.9061 49.5377 41.1613 48.2674 41.1613 46.7038C41.1613 46.6098 41.1567 46.517 41.1471 46.4234L58 37.9976V24.3226ZM48.6452 17.0744V18.7097C48.6452 20.3701 47.748 21.9213 46.3037 22.7577L45.836 23.0281L45.8396 25.9885L50.5134 27.156L40.2258 32.5706V30.0506C40.2258 28.7931 39.7179 27.6415 38.8861 26.7906L42.0968 25.9885V23.0258L41.6299 22.7558C40.1865 21.9213 39.2903 20.3701 39.2903 18.7097V16.8387C39.2903 15.5629 39.7946 14.3698 40.7114 13.4814C41.6272 12.5934 42.8422 12.1147 44.1125 12.164C46.6116 12.2389 48.6452 14.442 48.6452 17.0744ZM30.4105 31.8352L26.1757 30.4818C24.2458 29.8633 22.157 29.771 20.1814 30.2086L19.6452 30.3274V30.0506C19.6452 28.7606 20.5199 27.6406 21.7706 27.3273L27.129 25.9885V23.0258L26.6622 22.7558C25.2188 21.9213 24.3226 20.3701 24.3226 18.7097V16.8387C24.3226 15.5629 24.8269 14.3698 25.7436 13.4814C26.6595 12.5934 27.8823 12.1147 29.1448 12.164C31.6438 12.2389 33.6774 14.442 33.6774 17.0744V18.7097C33.6774 20.3701 32.7803 21.9213 31.336 22.7577L30.8682 23.0281L30.8719 25.9885L36.2294 27.3273C37.4801 27.6406 38.3548 28.7606 38.3548 30.0506V33.5559L38.1237 33.6774H37.5505L31.7991 32.0339C31.346 31.9056 30.8792 31.853 30.4105 31.8352V31.8352ZM19.8548 14.0012C21.6116 10.5973 25.1475 8.41935 29 8.41935C32.8159 8.41935 36.3368 10.568 38.1068 13.9258C37.6614 14.8188 37.4194 15.8078 37.4194 16.8387V18.7097C37.4194 20.8511 38.4823 22.8604 40.2258 24.0773V24.5263L36.4839 25.4632L32.741 24.5263V24.0782C34.4845 22.8613 35.5484 20.8511 35.5484 18.7097V17.0744C35.5484 13.4403 32.7008 10.399 29.201 10.2931C27.4104 10.2405 25.7222 10.8946 24.4404 12.1389C23.1578 13.3832 22.4516 15.0518 22.4516 16.8387V18.7097C22.4516 20.8511 23.5145 22.8604 25.2581 24.0773V24.5263L21.5161 25.4632L17.7733 24.5263V24.0782C19.5168 22.8613 20.5806 20.8511 20.5806 18.7097V17.0744C20.5806 15.9736 20.3157 14.9285 19.8548 14.0012V14.0012ZM15.5524 8.34353L18.5411 5.35482L21.1717 7.06683L21.6751 6.75805C22.9363 5.98518 24.2993 5.41923 25.7258 5.07801L26.3013 4.94007L26.9523 1.87097H31.0487L31.6977 4.93915L32.2733 5.07664C33.6998 5.41832 35.0628 5.98426 36.324 6.75714L36.8274 7.06592L39.458 5.35391L42.443 8.33988L41.3819 10.8243C40.6597 11.1349 39.9901 11.572 39.4073 12.1371C39.3689 12.1745 39.336 12.2147 39.2985 12.2531C37.0946 8.74961 33.1983 6.54839 29 6.54839C24.7716 6.54839 20.8643 8.77016 18.6658 12.3093C18.0775 11.6935 17.3777 11.1947 16.6021 10.8462L15.5524 8.34353ZM12.1613 25.9885V23.0258L11.6945 22.7558C10.251 21.9213 9.35484 20.3701 9.35484 18.7097V16.8387C9.35484 15.5629 9.85912 14.3698 10.7759 13.4814C11.6917 12.5934 12.9095 12.1147 14.1771 12.164C16.6761 12.2389 18.7097 14.442 18.7097 17.0744V18.7097C18.7097 20.3701 17.8126 21.9213 16.3682 22.7577L15.9005 23.0281L15.9041 25.9885L19.1139 26.7906C18.2821 27.6415 17.7742 28.7931 17.7742 30.0506V30.7435L14.8563 31.3922L14.9321 31.1272L14.9677 29.3983L10.0341 26.5201L12.1613 25.9885ZM1.87097 24.3226H2.55294L9.28084 28.2468L5.88606 41.8254L1.87097 40.4866V24.3226ZM9.50649 43.0323L7.66521 42.4188L10.9632 29.2284L13.0968 30.4727V30.7399L9.58506 43.0323H9.50649ZM15.9032 45.7254C15.9032 45.4495 16.0147 45.1791 16.2102 44.9836L17.8546 43.3392C18.0501 43.1437 18.3205 43.0323 18.5964 43.0323C19.1747 43.0323 19.6452 43.5027 19.6452 44.081C19.6452 44.3569 19.5337 44.6273 19.3382 44.8228L17.6938 46.4672C17.4983 46.6627 17.2279 46.7742 16.952 46.7742C16.3737 46.7742 15.9032 46.3037 15.9032 45.7254ZM18.7097 48.5319C18.7097 48.256 18.8211 47.9856 19.0166 47.7901L20.661 46.1457C20.8565 45.9502 21.127 45.8387 21.4028 45.8387C21.9811 45.8387 22.4516 46.3092 22.4516 46.8875C22.4516 47.1634 22.3402 47.4338 22.1447 47.6293L20.5003 49.2737C20.3048 49.4692 20.0343 49.5806 19.7584 49.5806C19.1802 49.5806 18.7097 49.1102 18.7097 48.5319ZM21.5161 51.3383C21.5161 51.0624 21.6276 50.792 21.8231 50.5965L23.4675 48.9521C23.663 48.7566 23.9334 48.6452 24.2093 48.6452C24.7876 48.6452 25.2581 49.1156 25.2581 49.6939C25.2581 49.9698 25.1466 50.2402 24.9511 50.4357L23.3067 52.0801C23.1112 52.2756 22.8408 52.3871 22.5649 52.3871C21.9866 52.3871 21.5161 51.9166 21.5161 51.3383ZM25.3713 55.1935C24.7931 55.1935 24.3226 54.7231 24.3226 54.1448C24.3226 53.8689 24.434 53.5985 24.6295 53.403L26.2739 51.7586C26.4694 51.5631 26.7399 51.4516 27.0158 51.4516C27.594 51.4516 28.0645 51.9221 28.0645 52.5004C28.0645 52.7763 27.9531 53.0467 27.7576 53.2422L26.1132 54.8866C25.9177 55.0821 25.6472 55.1935 25.3713 55.1935ZM29.8953 56.129H29.7222C29.4837 56.129 29.2553 56.0422 29.0777 55.8847L28.3779 55.2675L29.0804 54.565C29.3312 54.3142 29.5258 54.016 29.6696 53.6958L30.5202 54.4038C30.7426 54.5892 30.871 54.8624 30.871 55.1534C30.871 55.6914 30.4334 56.129 29.8953 56.129V56.129ZM38.2845 47.7097H38.1228C37.888 47.7097 37.6587 47.6265 37.4792 47.4758L32.4062 43.2483L31.2076 44.6863L36.134 48.7909C36.3555 48.9763 36.4839 49.2495 36.4839 49.5404C36.4839 50.0785 36.0463 50.5161 35.5082 50.5161H35.304C35.077 50.5161 34.855 50.4357 34.68 50.2896L29.5988 46.0557L28.4002 47.4936L33.3266 51.5987C33.5491 51.7828 33.6774 52.0559 33.6774 52.3469C33.6774 52.885 33.2398 53.3226 32.7017 53.3226C32.3427 53.3226 31.9928 53.1951 31.7174 52.9663L29.6294 51.226C29.1695 50.2859 28.2244 49.6304 27.1176 49.5912C27.0637 48.0651 25.8373 46.8386 24.3112 46.7847C24.2573 45.2586 23.0308 44.0321 21.5047 43.9782C21.4499 42.4165 20.1709 41.1613 18.5964 41.1613C17.8276 41.1613 17.0753 41.4728 16.5318 42.0164L14.8873 43.6608C14.7891 43.759 14.7078 43.8704 14.6252 43.981L11.7516 42.2566L14.2707 33.4399L20.5861 32.0358C22.2429 31.6653 23.9896 31.7457 25.6052 32.2628L26.9833 32.7036L22.3114 35.0395C21.2439 35.5744 20.5806 36.6483 20.5806 37.8423V38.0273C20.5806 39.7553 21.9866 41.1613 23.7146 41.1613C24.2824 41.1613 24.841 41.0069 25.3266 40.7141L28.81 38.6253C29.5098 38.2059 30.4489 38.2977 31.0532 38.8413L38.9573 45.9547C39.1688 46.1466 39.2903 46.4188 39.2903 46.7038C39.2903 47.2588 38.8395 47.7097 38.2845 47.7097V47.7097ZM56.129 36.8411L40.3688 44.7219C40.3176 44.6675 40.2642 44.6159 40.208 44.5657L32.3053 37.4522C31.6128 36.8274 30.7175 36.4839 29.7847 36.4839C29.1028 36.4839 28.4331 36.6693 27.8466 37.021L24.3619 39.1108C24.1664 39.2287 23.943 39.2903 23.7146 39.2903C23.0176 39.2903 22.4516 38.7244 22.4516 38.0273V37.8423C22.4516 37.3604 22.7193 36.9283 23.1496 36.7132L28.3678 34.1041C29.2608 33.6569 30.321 33.5568 31.2834 33.8336L37.1622 35.5128L38.586 35.5484L56.129 26.3151V36.8411Z" fill="#095783"/>
</g>
<defs>
<clipPath id="clip0">
<rect width="58" height="58" fill="white"/>
</clipPath>
</defs>
</svg>
