<svg width="58" height="59" viewBox="0 0 58 59" fill="none" xmlns="http://www.w3.org/2000/svg">
<g clip-path="url(#clip0)">
<path d="M26.7637 46.3082H32.1069V57.4847H26.7637V46.3082Z" fill="#A7D7DE"/>
<path d="M29.751 46.3082H32.107V57.4847H29.751V46.3082Z" fill="#A7D7DE"/>
<path d="M38.0344 16.0723C38.0344 16.0723 40.8406 16.1876 41.8048 13.477C42.2334 12.2719 42.4767 10.6621 43.3273 9.58535C43.6213 9.21309 43.3604 8.66479 42.8877 8.66479H38.0344V16.0723Z" fill="#A7D7DE"/>
<path d="M38.0344 29.2549C38.0344 29.2549 40.8406 29.3702 41.8048 26.6596C42.2334 25.4545 42.4767 23.8447 43.3273 22.768C43.6213 22.3957 43.3604 21.8474 42.8877 21.8474H38.0344V29.2549Z" fill="#A7D7DE"/>
<path d="M38.0344 42.4374C38.0344 42.4374 40.8406 42.5527 41.8048 39.8421C42.2334 38.637 42.4767 37.0272 43.3273 35.9505C43.6213 35.5782 43.3604 35.0299 42.8877 35.0299H38.0344V42.4374Z" fill="#A7D7DE"/>
<path d="M19.9656 16.0723C19.9656 16.0723 17.1594 16.1876 16.1953 13.477C15.7666 12.2719 15.5233 10.6621 14.6728 9.58535C14.3787 9.21309 14.6397 8.66479 15.1123 8.66479H19.9656V16.0723Z" fill="#A7D7DE"/>
<path d="M19.9656 29.2549C19.9656 29.2549 17.1594 29.3702 16.1953 26.6596C15.7666 25.4545 15.5233 23.8447 14.6728 22.768C14.3787 22.3957 14.6397 21.8474 15.1123 21.8474H19.9656V29.2549Z" fill="#A7D7DE"/>
<path d="M19.9656 42.4374C19.9656 42.4374 17.1594 42.5527 16.1953 39.8421C15.7666 38.637 15.5233 37.0272 14.6728 35.9505C14.3787 35.5782 14.6397 35.0299 15.1123 35.0299H19.9656V42.4374Z" fill="#A7D7DE"/>
<path d="M43.3276 9.58547C42.477 10.6621 42.2334 12.272 41.8052 13.4774C40.8402 16.1879 38.0344 16.0717 38.0344 16.0717V14.7751C38.7061 14.406 39.3767 13.776 39.7585 12.7016C40.1867 11.4962 40.4301 9.88628 41.2808 8.80963C41.3171 8.76405 41.3454 8.71505 41.3647 8.66492H42.8882C43.3605 8.66492 43.621 9.21287 43.3276 9.58547V9.58547Z" fill="#A7D7DE"/>
<path d="M43.3276 22.7675C42.477 23.8441 42.2334 25.454 41.8052 26.6594C40.8402 29.3699 38.0344 29.2549 38.0344 29.2549V27.9572C38.7061 27.588 39.3767 26.958 39.7585 25.8836C40.1867 24.6793 40.4301 23.0694 41.2808 21.9928C41.3171 21.9461 41.3454 21.8971 41.3658 21.8469H42.8882C43.3605 21.8469 43.621 22.395 43.3276 22.7675V22.7675Z" fill="#A7D7DE"/>
<path d="M43.3276 35.9507C42.477 37.0274 42.2334 38.6373 41.8052 39.8415C40.8402 42.552 38.0344 42.437 38.0344 42.437V41.1404C38.7061 40.7712 39.3767 40.1412 39.7585 39.0668C40.1867 37.8614 40.4301 36.2515 41.2808 35.1749C41.3171 35.1293 41.3454 35.0803 41.3647 35.0302H42.8882C43.3605 35.03 43.621 35.5781 43.3276 35.9507V35.9507Z" fill="#A7D7DE"/>
<path d="M34.7834 4.79455H23.2163V2.49916C23.2163 1.59091 23.9483 0.854492 24.8514 0.854492H33.1486C34.0515 0.854492 34.7837 1.5908 34.7837 2.49916V4.79455H34.7834Z" fill="#A7D7DE"/>
<path d="M34.7835 2.49883V4.79457H32.5181V2.49883C32.5181 1.59081 31.7864 0.854736 30.8835 0.854736H33.1489C34.0518 0.854736 34.7835 1.5907 34.7835 2.49883Z" fill="#A7D7DE"/>
<path d="M35.3697 46.3082H22.6303C21.1585 46.3082 19.9656 45.1082 19.9656 43.6279V7.47498C19.9656 5.99462 21.1587 4.79468 22.6303 4.79468H35.3697C36.8414 4.79468 38.0344 5.99473 38.0344 7.47498V43.6279C38.0344 45.1082 36.8414 46.3082 35.3697 46.3082Z" fill="#A7D7DE"/>
<path d="M38.0345 7.47555V43.6277C38.0345 45.1077 36.8418 46.3086 35.3692 46.3086H33.1333C34.6047 46.3086 35.7986 45.1077 35.7986 43.6277V7.47555C35.7986 5.99439 34.6047 4.79468 33.1333 4.79468H35.3692C36.8418 4.79468 38.0345 5.99439 38.0345 7.47555V7.47555Z" fill="#ADDCF6"/>
<path d="M28.9999 17.46C31.323 17.46 33.2062 15.5658 33.2062 13.2291C33.2062 10.8925 31.323 8.99829 28.9999 8.99829C26.6769 8.99829 24.7937 10.8925 24.7937 13.2291C24.7937 15.5658 26.6769 17.46 28.9999 17.46Z" fill="#F3C5BB"/>
<path d="M28.9999 29.7824C31.323 29.7824 33.2062 27.8882 33.2062 25.5515C33.2062 23.2149 31.323 21.3207 28.9999 21.3207C26.6769 21.3207 24.7937 23.2149 24.7937 25.5515C24.7937 27.8882 26.6769 29.7824 28.9999 29.7824Z" fill="#FAE5B0"/>
<path d="M28.9999 42.1045C31.323 42.1045 33.2062 40.2103 33.2062 37.8737C33.2062 35.537 31.323 33.6428 28.9999 33.6428C26.6769 33.6428 24.7937 35.537 24.7937 37.8737C24.7937 40.2103 26.6769 42.1045 28.9999 42.1045Z" fill="#B5D988"/>
<path d="M33.2059 13.2291C33.2059 15.5658 31.3234 17.4593 29.0001 17.4593C27.6465 17.4593 26.4424 16.8168 25.6733 15.8187C26.0585 15.9372 26.4685 15.9998 26.8921 15.9998C29.2153 15.9998 31.0991 14.1063 31.0991 11.7694C31.0991 10.7931 30.7705 9.89416 30.219 9.17859C31.9474 9.70398 33.2059 11.3185 33.2059 13.2291Z" fill="#F37B60"/>
<path d="M33.206 25.551C33.206 27.8877 31.3234 29.7825 29.0002 29.7825C27.6477 29.7825 26.4448 29.1411 25.6746 28.143C26.0597 28.2603 26.4685 28.323 26.8922 28.323C29.2154 28.323 31.0991 26.4282 31.0991 24.0915C31.0991 23.1162 30.7706 22.2162 30.2191 21.5006C31.9475 22.0259 33.206 23.6404 33.206 25.551V25.551Z" fill="#EFC047"/>
<path d="M33.2059 37.874C33.2059 40.2108 31.3234 42.1044 29.0001 42.1044C27.6465 42.1044 26.4424 41.4619 25.6733 40.4637C26.0585 40.5822 26.4685 40.6449 26.8921 40.6449C29.2153 40.6449 31.0991 38.7502 31.0991 36.4145C31.0991 35.4381 30.7694 34.5391 30.2178 33.8225C31.9463 34.3478 33.2059 35.9634 33.2059 37.874Z" fill="#93C257"/>
<path d="M28.9999 18.3145C30.3506 18.3145 31.6204 17.7854 32.5753 16.8247C32.907 16.491 32.907 15.9499 32.5752 15.6162C32.2435 15.2826 31.7056 15.2826 31.3739 15.6163C30.7398 16.2542 29.8968 16.6055 29.0001 16.6055C27.1492 16.6055 25.6433 15.0908 25.6433 13.2291C25.6433 11.3674 27.1492 9.85273 29.0001 9.85273C30.6539 9.85273 32.0471 11.042 32.3127 12.6805C32.3883 13.1463 32.8251 13.4617 33.288 13.3862C33.7511 13.3102 34.0652 12.8711 33.9896 12.4053C33.5892 9.93602 31.4908 8.1438 28.9999 8.1438C26.2121 8.1438 23.9441 10.4251 23.9441 13.2292C23.9441 16.0334 26.2121 18.3145 28.9999 18.3145V18.3145Z" fill="#095783"/>
<path d="M28.9999 20.4659C26.2121 20.4659 23.9441 22.7472 23.9441 25.5514C23.9441 28.3555 26.2121 30.6367 28.9999 30.6367C31.7878 30.6367 34.0558 28.3554 34.0558 25.5513C34.0558 22.7471 31.7878 20.4659 28.9999 20.4659V20.4659ZM28.9999 28.9277C27.149 28.9277 25.6432 27.4131 25.6432 25.5514C25.6432 23.6896 27.149 22.175 28.9999 22.175C30.8508 22.175 32.3567 23.6896 32.3567 25.5514C32.3567 27.4131 30.8508 28.9277 28.9999 28.9277Z" fill="#095783"/>
<path d="M28.9999 32.7882C26.2121 32.7882 23.9441 35.0695 23.9441 37.8736C23.9441 40.6777 26.2121 42.9589 28.9999 42.9589C31.7878 42.9589 34.0558 40.6777 34.0558 37.8736C34.0558 35.0695 31.7878 32.7882 28.9999 32.7882V32.7882ZM28.9999 41.25C27.149 41.25 25.6432 39.7354 25.6432 37.8736C25.6432 36.0119 27.149 34.4972 28.9999 34.4972C30.8508 34.4972 32.3567 36.0119 32.3567 37.8736C32.3567 39.7354 30.8508 41.25 28.9999 41.25Z" fill="#095783"/>
<path d="M42.6046 26.9473C42.7355 26.5795 42.8493 26.1797 42.9595 25.7931C43.2194 24.881 43.4882 23.9379 43.9924 23.2994C44.3335 22.8676 44.3975 22.2913 44.1595 21.7953C43.922 21.3003 43.4346 20.9928 42.8877 20.9928H38.8839V16.8596C40.1548 16.6382 41.8687 15.8333 42.6046 13.7647C42.7355 13.3969 42.8493 12.9971 42.9595 12.6105C43.2194 11.6984 43.4882 10.7553 43.9924 10.1168C44.3335 9.68499 44.3975 9.10866 44.1595 8.61266C43.922 8.11769 43.4346 7.81016 42.8877 7.81016H38.8839V7.47494C38.8839 5.61503 37.4482 4.08716 35.6331 3.951V2.49913C35.6332 1.12109 34.5186 0 33.1486 0H24.8515C23.4815 0 22.3669 1.12109 22.3669 2.49913V3.951C20.5518 4.08716 19.1161 5.61503 19.1161 7.47494V7.81016H15.1123C14.5654 7.81016 14.078 8.11758 13.8405 8.61266C13.6025 9.10866 13.6665 9.68499 14.0076 10.1168C14.5119 10.7553 14.7806 11.6984 15.0405 12.6105C15.1507 12.9971 15.2645 13.3969 15.3954 13.7647C16.1313 15.8335 17.8452 16.6383 19.1161 16.8596V20.9928H15.1123C14.5654 20.9928 14.078 21.3002 13.8405 21.7953C13.6025 22.2913 13.6665 22.8676 14.0076 23.2994C14.5119 23.9379 14.7806 24.881 15.0405 25.7931C15.1507 26.1797 15.2645 26.5795 15.3954 26.9473C16.1313 29.0161 17.8453 29.8209 19.1161 30.0423V34.1754H15.1123C14.5654 34.1754 14.078 34.4828 13.8405 34.9779C13.6025 35.4739 13.6665 36.0502 14.0076 36.482C14.5119 37.1205 14.7806 38.0636 15.0405 38.9757C15.1507 39.3623 15.2645 39.7621 15.3954 40.13C16.1313 42.1987 17.8452 43.0035 19.1161 43.2248V43.6278C19.1161 45.5769 20.6926 47.1627 22.6304 47.1627H25.9143V49.5949C25.9143 50.0669 26.2947 50.4494 26.7638 50.4494C27.233 50.4494 27.6133 50.0668 27.6133 49.5949V47.1627H31.2575V56.6301H27.6133V53.5955C27.6133 53.1235 27.2329 52.741 26.7638 52.741C26.2946 52.741 25.9143 53.1236 25.9143 53.5955V57.4847C25.9143 57.9567 26.2947 58.3392 26.7638 58.3392H32.1071C32.5763 58.3392 32.9566 57.9566 32.9566 57.4847V47.1628H35.3697C37.3075 47.1628 38.884 45.577 38.884 43.6279V43.2248C40.1549 43.0034 41.8689 42.1985 42.6047 40.13C42.7356 39.7621 42.8494 39.3623 42.9596 38.9757C43.2195 38.0636 43.4883 37.1205 43.9925 36.482C44.3336 36.0502 44.3976 35.4739 44.1596 34.9779C43.9221 34.4829 43.4347 34.1754 42.8878 34.1754H38.884V30.0423C40.1548 29.8209 41.8689 29.016 42.6046 26.9473V26.9473ZM38.884 9.5192H42.3392C41.8403 10.3358 41.5697 11.2853 41.3262 12.1397C41.2187 12.5169 41.1172 12.8731 41.0049 13.1891C40.5548 14.4542 39.5874 14.9318 38.8839 15.1113V9.5192H38.884ZM38.884 22.7018H42.3392C41.8403 23.5184 41.5697 24.468 41.3262 25.3223C41.2187 25.6995 41.1172 26.0557 41.0049 26.3717C40.5549 27.6368 39.5874 28.1144 38.8839 28.2939V22.7018H38.884ZM19.116 41.4764C18.4126 41.2968 17.4451 40.8193 16.995 39.5542C16.8826 39.2382 16.7811 38.882 16.6736 38.5048C16.4302 37.6505 16.1596 36.7009 15.6607 35.8843H19.1159V41.4764H19.116ZM19.116 28.2938C18.414 28.1141 17.445 27.6365 16.995 26.3717C16.8826 26.0557 16.7811 25.6995 16.6736 25.3223C16.4302 24.468 16.1596 23.5184 15.6607 22.7018H19.1159V28.2938H19.116ZM19.116 15.1113C18.4126 14.9318 17.4451 14.4542 16.995 13.1891C16.8826 12.8731 16.7811 12.5169 16.6736 12.1397C16.4302 11.2854 16.1596 10.3358 15.6607 9.5192H19.1159V15.1113H19.116ZM24.0659 2.49913C24.0659 2.06341 24.4183 1.70904 24.8514 1.70904H33.1485C33.5817 1.70904 33.934 2.06352 33.934 2.49913V3.94006H24.0658V2.49913H24.0659ZM37.1849 43.6278C37.1849 44.6346 36.3706 45.4536 35.3697 45.4536H22.6303C21.6294 45.4536 20.8151 44.6346 20.8151 43.6278V7.47494C20.8151 6.46813 21.6294 5.6491 22.6303 5.6491H35.3697C36.3706 5.6491 37.1849 6.46813 37.1849 7.47494V43.6278ZM42.3392 35.8843C41.8403 36.7009 41.5697 37.6504 41.3262 38.5048C41.2187 38.882 41.1172 39.2382 41.0049 39.5542C40.5548 40.8193 39.5874 41.2968 38.8839 41.4764V35.8843H42.3392Z" fill="#095783"/>
</g>
<defs>
<clipPath id="clip0">
<rect width="58" height="58.3392" fill="white"/>
</clipPath>
</defs>
</svg>
