<svg width="58" height="58" viewBox="0 0 58 58" fill="none" xmlns="http://www.w3.org/2000/svg">
<g clip-path="url(#clip0)">
<path d="M32.8666 6.76669C32.8666 8.90204 31.1353 10.6334 29 10.6334C26.8646 10.6334 25.1333 8.90204 25.1333 6.76669C25.1333 4.63134 26.8646 2.90002 29 2.90002C31.1353 2.90002 32.8666 4.63134 32.8666 6.76669Z" fill="#F39B88"/>
<path d="M50.2665 11.6001C50.2665 13.7354 48.5352 15.4667 46.3999 15.4667C44.2645 15.4667 42.5332 13.7354 42.5332 11.6001C42.5332 9.46471 44.2645 7.7334 46.3999 7.7334C48.5352 7.7334 50.2665 9.46471 50.2665 11.6001Z" fill="#B5D988"/>
<path d="M43.5 45.4333H47.3667V41.5667H43.5V45.4333Z" fill="#CECECE"/>
<path d="M12.5945 45.4333H14.5V41.5667H10.6333V45.4333H12.5945Z" fill="#CECECE"/>
<path d="M30.9333 31.9V30.9333H27.0667V31.9C27.0667 32.9677 27.9323 33.8333 29 33.8333C30.0677 33.8333 30.9333 32.9677 30.9333 31.9Z" fill="#B5D988"/>
<path d="M36.7333 30.9333V19.3333C36.7333 16.1303 34.1363 13.5333 30.9333 13.5333H27.0666C23.8636 13.5333 21.2666 16.1303 21.2666 19.3333V30.9333H36.7333Z" fill="#F39B88"/>
<path d="M15.4667 11.6001C15.4667 13.7354 13.7354 15.4667 11.6001 15.4667C9.46471 15.4667 7.7334 13.7354 7.7334 11.6001C7.7334 9.46471 9.46471 7.7334 11.6001 7.7334C13.7354 7.7334 15.4667 9.46471 15.4667 11.6001Z" fill="#A7D7DE"/>
<path d="M24.1667 56.0667V37.7C24.1667 35.5647 22.4354 33.8334 20.3 33.8334H14.5V23.2L19.8167 28.0334H25.1334C26.201 28.0334 27.0667 27.1677 27.0667 26.1V24.1667H21.8756L16.5009 18.3667H9.6667C6.46367 18.3667 3.8667 20.9637 3.8667 24.1667V34.8C3.8667 36.9354 5.59801 38.6667 7.73337 38.6667H17.4C18.4677 38.6667 19.3334 39.5324 19.3334 40.6V56.0667H24.1667Z" fill="#A7D7DE"/>
<path d="M38.6667 56.0667V40.6C38.6667 39.5324 39.5323 38.6667 40.6 38.6667H50.2667C52.402 38.6667 54.1333 36.9354 54.1333 34.8V24.1667C54.1333 20.9637 51.5364 18.3667 48.3333 18.3667H41.4992L36.1245 24.1667H30.9333V26.1C30.9333 27.1677 31.799 28.0334 32.8667 28.0334H38.1833L43.5 23.2V33.8334H37.7C35.5647 33.8334 33.8333 35.5647 33.8333 37.7V56.0667H38.6667Z" fill="#B5D988"/>
<path d="M29.0001 11.6C26.3309 11.6 24.1667 9.43587 24.1667 6.76668C24.1667 4.09749 26.3309 1.93335 29.0001 1.93335C31.6693 1.93335 33.8334 4.09749 33.8334 6.76668C33.8301 9.43493 31.6683 11.5967 29.0001 11.6ZM29.0001 3.86668C27.3986 3.86668 26.1001 5.16517 26.1001 6.76668C26.1001 8.3682 27.3986 9.66668 29.0001 9.66668C30.6016 9.66668 31.9001 8.3682 31.9001 6.76668C31.9001 5.16517 30.6016 3.86668 29.0001 3.86668Z" fill="#095783"/>
<path d="M46.4 16.4333C43.7308 16.4333 41.5667 14.2691 41.5667 11.5999C41.5667 8.93075 43.7308 6.7666 46.4 6.7666C49.0692 6.7666 51.2333 8.93075 51.2333 11.5999C51.23 14.2682 49.0682 16.43 46.4 16.4333ZM46.4 8.69993C44.7985 8.69993 43.5 9.99842 43.5 11.5999C43.5 13.2014 44.7985 14.4999 46.4 14.4999C48.0015 14.4999 49.3 13.2014 49.3 11.5999C49.3 9.99842 48.0015 8.69993 46.4 8.69993Z" fill="#095783"/>
<path d="M11.5999 16.4333C8.93075 16.4333 6.7666 14.2691 6.7666 11.5999C6.7666 8.93075 8.93075 6.7666 11.5999 6.7666C14.2691 6.7666 16.4333 8.93075 16.4333 11.5999C16.43 14.2682 14.2682 16.43 11.5999 16.4333ZM11.5999 8.69993C9.99842 8.69993 8.69993 9.99842 8.69993 11.5999C8.69993 13.2014 9.99842 14.4999 11.5999 14.4999C13.2014 14.4999 14.4999 13.2014 14.4999 11.5999C14.4999 9.99842 13.2014 8.69993 11.5999 8.69993Z" fill="#095783"/>
<path d="M37.7001 20.3H35.7667V19.3333C35.7634 16.6651 33.6016 14.5033 30.9334 14.5H27.0667C24.3985 14.5033 22.2367 16.6651 22.2334 19.3333V20.3H20.3V19.3333C20.3043 15.5979 23.3313 12.5709 27.0667 12.5667H30.9334C34.6688 12.5709 37.6958 15.5979 37.7001 19.3333V20.3Z" fill="#095783"/>
<path d="M56.0668 19.3334V35.7667C56.0635 38.435 53.9017 40.5967 51.2334 40.6H40.6001V42.5334H42.5334V46.4H44.4417L44.4668 54.1334H41.5668V56.0667H49.3001V54.1334H46.4001L46.3779 46.4H48.3334V42.5334H51.2334C54.9689 42.5291 57.9958 39.5022 58.0001 35.7667V19.3334H56.0668ZM46.4001 44.4667H44.4668V42.5334H46.4001V44.4667Z" fill="#095783"/>
<path d="M50.2668 39.6334C52.935 39.6301 55.0968 37.4683 55.1001 34.8V24.1667C55.0959 20.4312 52.0689 17.4043 48.3335 17.4H41.0778L35.7031 23.2H29.9668V26.1C29.9668 27.7015 31.2653 29 32.8668 29H38.5578L42.5335 25.3859V32.8667H37.7001C35.0319 32.87 32.8701 35.0318 32.8668 37.7V56.0667H34.8001V37.7C34.8001 36.0985 36.0986 34.8 37.7001 34.8H44.4668V21.0142L37.8092 27.0667H32.8668C32.333 27.0667 31.9001 26.6339 31.9001 26.1V25.1334H36.547L41.9217 19.3334H48.3335C51.0017 19.3367 53.1635 21.4984 53.1668 24.1667V34.8C53.1668 36.4015 51.8683 37.7 50.2668 37.7H40.6001C38.9986 37.7 37.7001 38.9985 37.7001 40.6V56.0667H39.6335V40.6C39.6335 40.0662 40.0663 39.6334 40.6001 39.6334H50.2668Z" fill="#095783"/>
<path d="M20.2999 32.8667H15.4666V25.3859L19.4423 29H25.1332C26.7347 29 28.0332 27.7015 28.0332 26.1V23.2H22.297L16.9222 17.4H9.66657C5.93112 17.4043 2.90415 20.4312 2.8999 24.1667V34.8C2.90321 37.4683 5.06499 39.6301 7.73324 39.6334H17.3999C17.9337 39.6334 18.3666 40.0662 18.3666 40.6V56.0667H20.2999V40.6C20.2999 38.9985 19.0014 37.7 17.3999 37.7H7.73324C6.13172 37.7 4.83324 36.4015 4.83324 34.8V24.1667C4.83654 21.4984 6.99832 19.3367 9.66657 19.3334H16.0783L21.453 25.1334H26.0999V26.1C26.0999 26.6339 25.6671 27.0667 25.1332 27.0667H20.1909L13.5332 21.0142V34.8H20.2999C21.9014 34.8 23.1999 36.0985 23.1999 37.7V56.0667H25.1332V37.7C25.1299 35.0318 22.9681 32.87 20.2999 32.8667Z" fill="#095783"/>
<path d="M6.76667 40.6C4.09842 40.5967 1.93664 38.435 1.93333 35.7667V19.3334H0V35.7667C0.00424804 39.5022 3.03122 42.5291 6.76667 42.5334H9.66667V46.4H11.625L11.6 54.1334H8.7V56.0667H16.4333V54.1334H13.5333L13.5555 46.4H15.4667V42.5334H17.4V40.6H6.76667ZM13.5333 44.4667H11.6V42.5334H13.5333V44.4667Z" fill="#095783"/>
<path d="M40.5999 29.9667H17.3999V31.9H26.0999C26.1051 33.1244 26.8787 34.2138 28.0332 34.6221V56.0667H29.9666V34.6221C31.1211 34.2138 31.8947 33.1244 31.8999 31.9H40.5999V29.9667ZM28.9999 32.8667C28.4661 32.8667 28.0332 32.4338 28.0332 31.9H29.9666C29.9666 32.4338 29.5337 32.8667 28.9999 32.8667Z" fill="#095783"/>
</g>
<defs>
<clipPath id="clip0">
<rect width="58" height="58" fill="white"/>
</clipPath>
</defs>
</svg>
