<svg width="232" height="359" viewBox="0 0 232 359" fill="none" xmlns="http://www.w3.org/2000/svg">
<path d="M20.0439 332.321C19.6104 332.942 19.0039 333.408 18.2246 333.719C17.4512 334.023 16.5488 334.176 15.5176 334.176C14.4746 334.176 13.5488 333.933 12.7402 333.446C11.9316 332.954 11.3047 332.257 10.8594 331.354C10.4199 330.452 10.1943 329.406 10.1826 328.217V327.101C10.1826 325.173 10.6309 323.679 11.5273 322.618C12.4297 321.558 13.6953 321.027 15.3242 321.027C16.6602 321.027 17.7354 321.37 18.5498 322.056C19.3643 322.735 19.8623 323.702 20.0439 324.956H18.3564C18.04 323.263 17.0322 322.416 15.333 322.416C14.2021 322.416 13.3438 322.814 12.7578 323.611C12.1777 324.402 11.8848 325.551 11.8789 327.057V328.103C11.8789 329.538 12.207 330.681 12.8633 331.53C13.5195 332.374 14.4072 332.796 15.5264 332.796C16.1592 332.796 16.7129 332.726 17.1875 332.585C17.6621 332.444 18.0547 332.207 18.3652 331.873V328.999H15.4033V327.628H20.0439V332.321ZM28.4814 334C28.3877 333.812 28.3115 333.479 28.2529 332.998C27.4971 333.783 26.5947 334.176 25.5459 334.176C24.6084 334.176 23.8379 333.912 23.2344 333.385C22.6367 332.852 22.3379 332.178 22.3379 331.363C22.3379 330.373 22.7129 329.605 23.4629 329.061C24.2188 328.51 25.2793 328.234 26.6445 328.234H28.2266V327.487C28.2266 326.919 28.0566 326.468 27.7168 326.134C27.377 325.794 26.876 325.624 26.2139 325.624C25.6338 325.624 25.1475 325.771 24.7549 326.063C24.3623 326.356 24.166 326.711 24.166 327.127H22.5312C22.5312 326.652 22.6982 326.195 23.0322 325.756C23.3721 325.311 23.8291 324.959 24.4033 324.701C24.9834 324.443 25.6191 324.314 26.3105 324.314C27.4062 324.314 28.2646 324.59 28.8857 325.141C29.5068 325.686 29.8291 326.438 29.8525 327.399V331.776C29.8525 332.649 29.9639 333.344 30.1865 333.859V334H28.4814ZM25.7832 332.761C26.293 332.761 26.7764 332.629 27.2334 332.365C27.6904 332.102 28.0215 331.759 28.2266 331.337V329.386H26.9521C24.96 329.386 23.9639 329.969 23.9639 331.135C23.9639 331.645 24.1338 332.043 24.4736 332.33C24.8135 332.617 25.25 332.761 25.7832 332.761ZM37.9385 331.478C37.9385 331.038 37.7715 330.698 37.4375 330.458C37.1094 330.212 36.5322 330.001 35.7061 329.825C34.8857 329.649 34.2324 329.438 33.7461 329.192C33.2656 328.946 32.9082 328.653 32.6738 328.313C32.4453 327.974 32.3311 327.569 32.3311 327.101C32.3311 326.321 32.6592 325.662 33.3154 325.123C33.9775 324.584 34.8213 324.314 35.8467 324.314C36.9248 324.314 37.7979 324.593 38.4658 325.149C39.1396 325.706 39.4766 326.418 39.4766 327.285H37.8418C37.8418 326.84 37.6514 326.456 37.2705 326.134C36.8955 325.812 36.4209 325.65 35.8467 325.65C35.2549 325.65 34.792 325.779 34.458 326.037C34.124 326.295 33.957 326.632 33.957 327.048C33.957 327.44 34.1123 327.736 34.4229 327.936C34.7334 328.135 35.293 328.325 36.1016 328.507C36.916 328.688 37.5752 328.905 38.0791 329.157C38.583 329.409 38.9551 329.714 39.1953 330.071C39.4414 330.423 39.5645 330.854 39.5645 331.363C39.5645 332.213 39.2246 332.896 38.5449 333.411C37.8652 333.921 36.9834 334.176 35.8994 334.176C35.1377 334.176 34.4639 334.041 33.8779 333.771C33.292 333.502 32.832 333.127 32.498 332.646C32.1699 332.16 32.0059 331.636 32.0059 331.073H33.6318C33.6611 331.618 33.8779 332.052 34.2822 332.374C34.6924 332.69 35.2314 332.849 35.8994 332.849C36.5146 332.849 37.0068 332.726 37.376 332.479C37.751 332.228 37.9385 331.894 37.9385 331.478ZM43.8887 322.188V324.49H45.6641V325.747H43.8887V331.645C43.8887 332.025 43.9678 332.312 44.126 332.506C44.2842 332.693 44.5537 332.787 44.9346 332.787C45.1221 332.787 45.3799 332.752 45.708 332.682V334C45.2803 334.117 44.8643 334.176 44.46 334.176C43.7334 334.176 43.1855 333.956 42.8164 333.517C42.4473 333.077 42.2627 332.453 42.2627 331.645V325.747H40.5312V324.49H42.2627V322.188H43.8887ZM46.9648 329.157C46.9648 328.226 47.1465 327.388 47.5098 326.644C47.8789 325.899 48.3887 325.325 49.0391 324.921C49.6953 324.517 50.4424 324.314 51.2803 324.314C52.5752 324.314 53.6211 324.763 54.418 325.659C55.2207 326.556 55.6221 327.748 55.6221 329.236V329.351C55.6221 330.276 55.4434 331.108 55.0859 331.847C54.7344 332.579 54.2275 333.15 53.5654 333.561C52.9092 333.971 52.1533 334.176 51.2979 334.176C50.0088 334.176 48.9629 333.728 48.1602 332.831C47.3633 331.935 46.9648 330.748 46.9648 329.271V329.157ZM48.5996 329.351C48.5996 330.405 48.8428 331.252 49.3291 331.891C49.8213 332.529 50.4775 332.849 51.2979 332.849C52.124 332.849 52.7803 332.526 53.2666 331.882C53.7529 331.231 53.9961 330.323 53.9961 329.157C53.9961 328.114 53.7471 327.271 53.249 326.626C52.7568 325.976 52.1006 325.65 51.2803 325.65C50.4775 325.65 49.8301 325.97 49.3379 326.608C48.8457 327.247 48.5996 328.161 48.5996 329.351ZM63.1982 331.478C63.1982 331.038 63.0312 330.698 62.6973 330.458C62.3691 330.212 61.792 330.001 60.9658 329.825C60.1455 329.649 59.4922 329.438 59.0059 329.192C58.5254 328.946 58.168 328.653 57.9336 328.313C57.7051 327.974 57.5908 327.569 57.5908 327.101C57.5908 326.321 57.9189 325.662 58.5752 325.123C59.2373 324.584 60.0811 324.314 61.1064 324.314C62.1846 324.314 63.0576 324.593 63.7256 325.149C64.3994 325.706 64.7363 326.418 64.7363 327.285H63.1016C63.1016 326.84 62.9111 326.456 62.5303 326.134C62.1553 325.812 61.6807 325.65 61.1064 325.65C60.5146 325.65 60.0518 325.779 59.7178 326.037C59.3838 326.295 59.2168 326.632 59.2168 327.048C59.2168 327.44 59.3721 327.736 59.6826 327.936C59.9932 328.135 60.5527 328.325 61.3613 328.507C62.1758 328.688 62.835 328.905 63.3389 329.157C63.8428 329.409 64.2148 329.714 64.4551 330.071C64.7012 330.423 64.8242 330.854 64.8242 331.363C64.8242 332.213 64.4844 332.896 63.8047 333.411C63.125 333.921 62.2432 334.176 61.1592 334.176C60.3975 334.176 59.7236 334.041 59.1377 333.771C58.5518 333.502 58.0918 333.127 57.7578 332.646C57.4297 332.16 57.2656 331.636 57.2656 331.073H58.8916C58.9209 331.618 59.1377 332.052 59.542 332.374C59.9521 332.69 60.4912 332.849 61.1592 332.849C61.7744 332.849 62.2666 332.726 62.6357 332.479C63.0107 332.228 63.1982 331.894 63.1982 331.478ZM75.3535 334.176C74.0645 334.176 73.0156 333.754 72.207 332.91C71.3984 332.061 70.9941 330.927 70.9941 329.509V329.21C70.9941 328.267 71.1729 327.426 71.5303 326.688C71.8936 325.943 72.3975 325.363 73.042 324.947C73.6924 324.525 74.3955 324.314 75.1514 324.314C76.3877 324.314 77.3486 324.722 78.0342 325.536C78.7197 326.351 79.0625 327.517 79.0625 329.034V329.711H72.6201C72.6436 330.648 72.916 331.407 73.4375 331.987C73.9648 332.562 74.6328 332.849 75.4414 332.849C76.0156 332.849 76.502 332.731 76.9004 332.497C77.2988 332.263 77.6475 331.952 77.9463 331.565L78.9395 332.339C78.1426 333.563 76.9473 334.176 75.3535 334.176ZM75.1514 325.65C74.4951 325.65 73.9443 325.891 73.499 326.371C73.0537 326.846 72.7783 327.514 72.6729 328.375H77.4365V328.252C77.3896 327.426 77.167 326.787 76.7686 326.336C76.3701 325.879 75.8311 325.65 75.1514 325.65ZM82.4814 324.49L82.5254 325.545C83.2227 324.725 84.1631 324.314 85.3467 324.314C86.6768 324.314 87.582 324.824 88.0625 325.844C88.3789 325.387 88.7891 325.018 89.293 324.736C89.8027 324.455 90.4033 324.314 91.0947 324.314C93.1807 324.314 94.2412 325.419 94.2764 327.628V334H92.6504V327.725C92.6504 327.045 92.4951 326.538 92.1846 326.204C91.874 325.864 91.3525 325.694 90.6201 325.694C90.0166 325.694 89.5156 325.876 89.1172 326.239C88.7188 326.597 88.4873 327.08 88.4229 327.689V334H86.7881V327.769C86.7881 326.386 86.1113 325.694 84.7578 325.694C83.6914 325.694 82.9619 326.148 82.5693 327.057V334H80.9434V324.49H82.4814ZM108.523 330.66H103.162L101.958 334H100.218L105.104 321.203H106.581L111.477 334H109.745L108.523 330.66ZM103.672 329.271H108.022L105.843 323.286L103.672 329.271ZM118.481 331.478C118.481 331.038 118.314 330.698 117.98 330.458C117.652 330.212 117.075 330.001 116.249 329.825C115.429 329.649 114.775 329.438 114.289 329.192C113.809 328.946 113.451 328.653 113.217 328.313C112.988 327.974 112.874 327.569 112.874 327.101C112.874 326.321 113.202 325.662 113.858 325.123C114.521 324.584 115.364 324.314 116.39 324.314C117.468 324.314 118.341 324.593 119.009 325.149C119.683 325.706 120.02 326.418 120.02 327.285H118.385C118.385 326.84 118.194 326.456 117.813 326.134C117.438 325.812 116.964 325.65 116.39 325.65C115.798 325.65 115.335 325.779 115.001 326.037C114.667 326.295 114.5 326.632 114.5 327.048C114.5 327.44 114.655 327.736 114.966 327.936C115.276 328.135 115.836 328.325 116.645 328.507C117.459 328.688 118.118 328.905 118.622 329.157C119.126 329.409 119.498 329.714 119.738 330.071C119.984 330.423 120.107 330.854 120.107 331.363C120.107 332.213 119.768 332.896 119.088 333.411C118.408 333.921 117.526 334.176 116.442 334.176C115.681 334.176 115.007 334.041 114.421 333.771C113.835 333.502 113.375 333.127 113.041 332.646C112.713 332.16 112.549 331.636 112.549 331.073H114.175C114.204 331.618 114.421 332.052 114.825 332.374C115.235 332.69 115.774 332.849 116.442 332.849C117.058 332.849 117.55 332.726 117.919 332.479C118.294 332.228 118.481 331.894 118.481 331.478ZM127.763 331.478C127.763 331.038 127.596 330.698 127.262 330.458C126.934 330.212 126.356 330.001 125.53 329.825C124.71 329.649 124.057 329.438 123.57 329.192C123.09 328.946 122.732 328.653 122.498 328.313C122.27 327.974 122.155 327.569 122.155 327.101C122.155 326.321 122.483 325.662 123.14 325.123C123.802 324.584 124.646 324.314 125.671 324.314C126.749 324.314 127.622 324.593 128.29 325.149C128.964 325.706 129.301 326.418 129.301 327.285H127.666C127.666 326.84 127.476 326.456 127.095 326.134C126.72 325.812 126.245 325.65 125.671 325.65C125.079 325.65 124.616 325.779 124.282 326.037C123.948 326.295 123.781 326.632 123.781 327.048C123.781 327.44 123.937 327.736 124.247 327.936C124.558 328.135 125.117 328.325 125.926 328.507C126.74 328.688 127.399 328.905 127.903 329.157C128.407 329.409 128.779 329.714 129.02 330.071C129.266 330.423 129.389 330.854 129.389 331.363C129.389 332.213 129.049 332.896 128.369 333.411C127.689 333.921 126.808 334.176 125.724 334.176C124.962 334.176 124.288 334.041 123.702 333.771C123.116 333.502 122.656 333.127 122.322 332.646C121.994 332.16 121.83 331.636 121.83 331.073H123.456C123.485 331.618 123.702 332.052 124.106 332.374C124.517 332.69 125.056 332.849 125.724 332.849C126.339 332.849 126.831 332.726 127.2 332.479C127.575 332.228 127.763 331.894 127.763 331.478ZM133.273 334H131.647V324.49H133.273V334ZM131.516 321.968C131.516 321.704 131.595 321.481 131.753 321.3C131.917 321.118 132.157 321.027 132.474 321.027C132.79 321.027 133.03 321.118 133.194 321.3C133.358 321.481 133.44 321.704 133.44 321.968C133.44 322.231 133.358 322.451 133.194 322.627C133.03 322.803 132.79 322.891 132.474 322.891C132.157 322.891 131.917 322.803 131.753 322.627C131.595 322.451 131.516 322.231 131.516 321.968ZM141.421 331.478C141.421 331.038 141.254 330.698 140.92 330.458C140.592 330.212 140.015 330.001 139.188 329.825C138.368 329.649 137.715 329.438 137.229 329.192C136.748 328.946 136.391 328.653 136.156 328.313C135.928 327.974 135.813 327.569 135.813 327.101C135.813 326.321 136.142 325.662 136.798 325.123C137.46 324.584 138.304 324.314 139.329 324.314C140.407 324.314 141.28 324.593 141.948 325.149C142.622 325.706 142.959 326.418 142.959 327.285H141.324C141.324 326.84 141.134 326.456 140.753 326.134C140.378 325.812 139.903 325.65 139.329 325.65C138.737 325.65 138.274 325.779 137.94 326.037C137.606 326.295 137.439 326.632 137.439 327.048C137.439 327.44 137.595 327.736 137.905 327.936C138.216 328.135 138.775 328.325 139.584 328.507C140.398 328.688 141.058 328.905 141.562 329.157C142.065 329.409 142.438 329.714 142.678 330.071C142.924 330.423 143.047 330.854 143.047 331.363C143.047 332.213 142.707 332.896 142.027 333.411C141.348 333.921 140.466 334.176 139.382 334.176C138.62 334.176 137.946 334.041 137.36 333.771C136.774 333.502 136.314 333.127 135.98 332.646C135.652 332.16 135.488 331.636 135.488 331.073H137.114C137.144 331.618 137.36 332.052 137.765 332.374C138.175 332.69 138.714 332.849 139.382 332.849C139.997 332.849 140.489 332.726 140.858 332.479C141.233 332.228 141.421 331.894 141.421 331.478ZM147.371 322.188V324.49H149.146V325.747H147.371V331.645C147.371 332.025 147.45 332.312 147.608 332.506C147.767 332.693 148.036 332.787 148.417 332.787C148.604 332.787 148.862 332.752 149.19 332.682V334C148.763 334.117 148.347 334.176 147.942 334.176C147.216 334.176 146.668 333.956 146.299 333.517C145.93 333.077 145.745 332.453 145.745 331.645V325.747H144.014V324.49H145.745V322.188H147.371ZM155 334.176C153.711 334.176 152.662 333.754 151.854 332.91C151.045 332.061 150.641 330.927 150.641 329.509V329.21C150.641 328.267 150.819 327.426 151.177 326.688C151.54 325.943 152.044 325.363 152.688 324.947C153.339 324.525 154.042 324.314 154.798 324.314C156.034 324.314 156.995 324.722 157.681 325.536C158.366 326.351 158.709 327.517 158.709 329.034V329.711H152.267C152.29 330.648 152.562 331.407 153.084 331.987C153.611 332.562 154.279 332.849 155.088 332.849C155.662 332.849 156.148 332.731 156.547 332.497C156.945 332.263 157.294 331.952 157.593 331.565L158.586 332.339C157.789 333.563 156.594 334.176 155 334.176ZM154.798 325.65C154.142 325.65 153.591 325.891 153.146 326.371C152.7 326.846 152.425 327.514 152.319 328.375H157.083V328.252C157.036 327.426 156.813 326.787 156.415 326.336C156.017 325.879 155.478 325.65 154.798 325.65ZM157.452 322.908V322.996H156.107L154.789 321.502L153.479 322.996H152.135V322.891L154.297 320.5H155.281L157.452 322.908ZM162.137 324.49L162.189 325.686C162.916 324.771 163.865 324.314 165.037 324.314C167.047 324.314 168.061 325.448 168.078 327.716V334H166.452V327.707C166.446 327.021 166.288 326.515 165.978 326.187C165.673 325.858 165.195 325.694 164.545 325.694C164.018 325.694 163.555 325.835 163.156 326.116C162.758 326.397 162.447 326.767 162.225 327.224V334H160.599V324.49H162.137ZM174.345 332.849C174.925 332.849 175.432 332.673 175.865 332.321C176.299 331.97 176.539 331.53 176.586 331.003H178.124C178.095 331.548 177.907 332.066 177.562 332.559C177.216 333.051 176.753 333.443 176.173 333.736C175.599 334.029 174.989 334.176 174.345 334.176C173.05 334.176 172.019 333.745 171.251 332.884C170.489 332.017 170.108 330.833 170.108 329.333V329.061C170.108 328.135 170.278 327.312 170.618 326.591C170.958 325.87 171.444 325.311 172.077 324.912C172.716 324.514 173.469 324.314 174.336 324.314C175.402 324.314 176.287 324.634 176.99 325.272C177.699 325.911 178.077 326.74 178.124 327.76H176.586C176.539 327.145 176.305 326.641 175.883 326.248C175.467 325.85 174.951 325.65 174.336 325.65C173.51 325.65 172.868 325.949 172.411 326.547C171.96 327.139 171.734 327.997 171.734 329.122V329.43C171.734 330.525 171.96 331.369 172.411 331.961C172.862 332.553 173.507 332.849 174.345 332.849ZM181.719 334H180.093V324.49H181.719V334ZM179.961 321.968C179.961 321.704 180.04 321.481 180.198 321.3C180.362 321.118 180.603 321.027 180.919 321.027C181.235 321.027 181.476 321.118 181.64 321.3C181.804 321.481 181.886 321.704 181.886 321.968C181.886 322.231 181.804 322.451 181.64 322.627C181.476 322.803 181.235 322.891 180.919 322.891C180.603 322.891 180.362 322.803 180.198 322.627C180.04 322.451 179.961 322.231 179.961 321.968ZM190.2 334C190.106 333.812 190.03 333.479 189.972 332.998C189.216 333.783 188.313 334.176 187.265 334.176C186.327 334.176 185.557 333.912 184.953 333.385C184.355 332.852 184.057 332.178 184.057 331.363C184.057 330.373 184.432 329.605 185.182 329.061C185.938 328.51 186.998 328.234 188.363 328.234H189.945V327.487C189.945 326.919 189.775 326.468 189.436 326.134C189.096 325.794 188.595 325.624 187.933 325.624C187.353 325.624 186.866 325.771 186.474 326.063C186.081 326.356 185.885 326.711 185.885 327.127H184.25C184.25 326.652 184.417 326.195 184.751 325.756C185.091 325.311 185.548 324.959 186.122 324.701C186.702 324.443 187.338 324.314 188.029 324.314C189.125 324.314 189.983 324.59 190.604 325.141C191.226 325.686 191.548 326.438 191.571 327.399V331.776C191.571 332.649 191.683 333.344 191.905 333.859V334H190.2ZM187.502 332.761C188.012 332.761 188.495 332.629 188.952 332.365C189.409 332.102 189.74 331.759 189.945 331.337V329.386H188.671C186.679 329.386 185.683 329.969 185.683 331.135C185.683 331.645 185.853 332.043 186.192 332.33C186.532 332.617 186.969 332.761 187.502 332.761ZM81.7959 352.296C80.3486 351.88 79.2939 351.37 78.6318 350.767C77.9756 350.157 77.6475 349.407 77.6475 348.517C77.6475 347.509 78.0488 346.677 78.8516 346.021C79.6602 345.358 80.709 345.027 81.998 345.027C82.877 345.027 83.6592 345.197 84.3447 345.537C85.0361 345.877 85.5693 346.346 85.9443 346.943C86.3252 347.541 86.5156 348.194 86.5156 348.903H84.8193C84.8193 348.13 84.5732 347.523 84.0811 347.084C83.5889 346.639 82.8945 346.416 81.998 346.416C81.166 346.416 80.5156 346.601 80.0469 346.97C79.584 347.333 79.3525 347.84 79.3525 348.49C79.3525 349.012 79.5723 349.454 80.0117 349.817C80.457 350.175 81.21 350.503 82.2705 350.802C83.3369 351.101 84.1689 351.432 84.7666 351.795C85.3701 352.152 85.8154 352.571 86.1025 353.052C86.3955 353.532 86.542 354.098 86.542 354.748C86.542 355.785 86.1377 356.617 85.3291 357.244C84.5205 357.865 83.4395 358.176 82.0859 358.176C81.207 358.176 80.3867 358.009 79.625 357.675C78.8633 357.335 78.2744 356.872 77.8584 356.286C77.4482 355.7 77.2432 355.035 77.2432 354.291H78.9395C78.9395 355.064 79.2236 355.677 79.792 356.128C80.3662 356.573 81.1309 356.796 82.0859 356.796C82.9766 356.796 83.6592 356.614 84.1338 356.251C84.6084 355.888 84.8457 355.393 84.8457 354.766C84.8457 354.139 84.626 353.655 84.1865 353.315C83.7471 352.97 82.9502 352.63 81.7959 352.296ZM88.0273 353.157C88.0273 352.226 88.209 351.388 88.5723 350.644C88.9414 349.899 89.4512 349.325 90.1016 348.921C90.7578 348.517 91.5049 348.314 92.3428 348.314C93.6377 348.314 94.6836 348.763 95.4805 349.659C96.2832 350.556 96.6846 351.748 96.6846 353.236V353.351C96.6846 354.276 96.5059 355.108 96.1484 355.847C95.7969 356.579 95.29 357.15 94.6279 357.561C93.9717 357.971 93.2158 358.176 92.3604 358.176C91.0713 358.176 90.0254 357.728 89.2227 356.831C88.4258 355.935 88.0273 354.748 88.0273 353.271V353.157ZM89.6621 353.351C89.6621 354.405 89.9053 355.252 90.3916 355.891C90.8838 356.529 91.54 356.849 92.3604 356.849C93.1865 356.849 93.8428 356.526 94.3291 355.882C94.8154 355.231 95.0586 354.323 95.0586 353.157C95.0586 352.114 94.8096 351.271 94.3115 350.626C93.8193 349.976 93.1631 349.65 92.3428 349.65C91.54 349.65 90.8926 349.97 90.4004 350.608C89.9082 351.247 89.6621 352.161 89.6621 353.351ZM102.538 356.849C103.118 356.849 103.625 356.673 104.059 356.321C104.492 355.97 104.732 355.53 104.779 355.003H106.317C106.288 355.548 106.101 356.066 105.755 356.559C105.409 357.051 104.946 357.443 104.366 357.736C103.792 358.029 103.183 358.176 102.538 358.176C101.243 358.176 100.212 357.745 99.4443 356.884C98.6826 356.017 98.3018 354.833 98.3018 353.333V353.061C98.3018 352.135 98.4717 351.312 98.8115 350.591C99.1514 349.87 99.6377 349.311 100.271 348.912C100.909 348.514 101.662 348.314 102.529 348.314C103.596 348.314 104.48 348.634 105.184 349.272C105.893 349.911 106.271 350.74 106.317 351.76H104.779C104.732 351.145 104.498 350.641 104.076 350.248C103.66 349.85 103.145 349.65 102.529 349.65C101.703 349.65 101.062 349.949 100.604 350.547C100.153 351.139 99.9277 351.997 99.9277 353.122V353.43C99.9277 354.525 100.153 355.369 100.604 355.961C101.056 356.553 101.7 356.849 102.538 356.849ZM109.912 358H108.286V348.49H109.912V358ZM108.154 345.968C108.154 345.704 108.233 345.481 108.392 345.3C108.556 345.118 108.796 345.027 109.112 345.027C109.429 345.027 109.669 345.118 109.833 345.3C109.997 345.481 110.079 345.704 110.079 345.968C110.079 346.231 109.997 346.451 109.833 346.627C109.669 346.803 109.429 346.891 109.112 346.891C108.796 346.891 108.556 346.803 108.392 346.627C108.233 346.451 108.154 346.231 108.154 345.968ZM118.394 358C118.3 357.812 118.224 357.479 118.165 356.998C117.409 357.783 116.507 358.176 115.458 358.176C114.521 358.176 113.75 357.912 113.146 357.385C112.549 356.852 112.25 356.178 112.25 355.363C112.25 354.373 112.625 353.605 113.375 353.061C114.131 352.51 115.191 352.234 116.557 352.234H118.139V351.487C118.139 350.919 117.969 350.468 117.629 350.134C117.289 349.794 116.788 349.624 116.126 349.624C115.546 349.624 115.06 349.771 114.667 350.063C114.274 350.356 114.078 350.711 114.078 351.127H112.443C112.443 350.652 112.61 350.195 112.944 349.756C113.284 349.311 113.741 348.959 114.315 348.701C114.896 348.443 115.531 348.314 116.223 348.314C117.318 348.314 118.177 348.59 118.798 349.141C119.419 349.686 119.741 350.438 119.765 351.399V355.776C119.765 356.649 119.876 357.344 120.099 357.859V358H118.394ZM115.695 356.761C116.205 356.761 116.688 356.629 117.146 356.365C117.603 356.102 117.934 355.759 118.139 355.337V353.386H116.864C114.872 353.386 113.876 353.969 113.876 355.135C113.876 355.645 114.046 356.043 114.386 356.33C114.726 356.617 115.162 356.761 115.695 356.761ZM124.08 358H122.454V344.5H124.08V358Z" fill="#DD664C"/>
<ellipse rx="50.4911" ry="48.1607" transform="matrix(-1 0 0 1 98.9728 257.893)" fill="#C4C4C4"/>
<rect width="46.6071" height="250.125" rx="23.3036" transform="matrix(-1 0 0 1 123.053 0)" fill="#C4C4C4"/>
<ellipse rx="50.4911" ry="48.1607" transform="matrix(-1 0 0 1 98.9728 257.893)" fill="#F39B88"/>
<line x1="95.6426" y1="38.2857" x2="77.4462" y2="38.2857" stroke="#787878" stroke-width="2" stroke-linecap="round"/>
<line x1="95.6426" y1="47.6071" x2="77.4462" y2="47.6071" stroke="#787878" stroke-width="2" stroke-linecap="round"/>
<line x1="104.964" y1="56.9286" x2="77.4465" y2="56.9286" stroke="#787878" stroke-width="2" stroke-linecap="round"/>
<line x1="95.6426" y1="64.6964" x2="77.4462" y2="64.6964" stroke="#787878" stroke-width="2" stroke-linecap="round"/>
<line x1="95.6426" y1="74.0179" x2="77.4462" y2="74.0179" stroke="#787878" stroke-width="2" stroke-linecap="round"/>
<line x1="104.964" y1="83.3393" x2="77.4465" y2="83.3393" stroke="#787878" stroke-width="2" stroke-linecap="round"/>
<line x1="95.6426" y1="91.1072" x2="77.4462" y2="91.1071" stroke="#787878" stroke-width="2" stroke-linecap="round"/>
<line x1="95.6426" y1="100.429" x2="77.4462" y2="100.429" stroke="#787878" stroke-width="2" stroke-linecap="round"/>
<line x1="104.964" y1="109.75" x2="77.4465" y2="109.75" stroke="#787878" stroke-width="2" stroke-linecap="round"/>
<line x1="95.6426" y1="145.482" x2="77.4462" y2="145.482" stroke="#787878" stroke-width="2" stroke-linecap="round"/>
<line x1="95.6426" y1="119.071" x2="77.4462" y2="119.071" stroke="#787878" stroke-width="2" stroke-linecap="round"/>
<line x1="104.964" y1="128.393" x2="77.4465" y2="128.393" stroke="#787878" stroke-width="2" stroke-linecap="round"/>
<line x1="104.964" y1="137.714" x2="77.4465" y2="137.714" stroke="#787878" stroke-width="2" stroke-linecap="round"/>
<line x1="95.6426" y1="154.804" x2="77.4462" y2="154.804" stroke="#787878" stroke-width="2" stroke-linecap="round"/>
<line x1="104.964" y1="164.125" x2="77.4465" y2="164.125" stroke="#787878" stroke-width="2" stroke-linecap="round"/>
<line x1="95.6426" y1="198.304" x2="77.4462" y2="198.304" stroke="#787878" stroke-width="2" stroke-linecap="round"/>
<line x1="95.6426" y1="171.893" x2="77.4462" y2="171.893" stroke="#787878" stroke-width="2" stroke-linecap="round"/>
<line x1="104.964" y1="181.214" x2="77.4465" y2="181.214" stroke="#787878" stroke-width="2" stroke-linecap="round"/>
<line x1="104.964" y1="190.536" x2="77.4465" y2="190.536" stroke="#787878" stroke-width="2" stroke-linecap="round"/>
<line x1="95.6426" y1="207.625" x2="77.4462" y2="207.625" stroke="#787878" stroke-width="2" stroke-linecap="round"/>
<mask id="mask0" style="mask-type:alpha" maskUnits="userSpaceOnUse" x="48" y="209" width="102" height="97">
<ellipse rx="50.4911" ry="48.1607" transform="matrix(-1 0 0 1 98.9728 257.161)" fill="#CECECE"/>
</mask>
<g mask="url(#mask0)">
<rect x="48" y="139" width="108" height="142" fill="#C4C4C4"/>
</g>
<path d="M214.345 150.766C215.32 150.766 216.172 150.93 216.901 151.258C217.626 151.586 218.18 152.051 218.562 152.652C218.945 153.254 219.137 153.956 219.137 154.758C219.137 155.542 218.945 156.237 218.562 156.843C218.175 157.449 217.626 157.921 216.915 158.258C216.2 158.59 215.372 158.761 214.434 158.771L213.716 158.771C212.759 158.771 211.913 158.604 211.18 158.271C210.446 157.939 209.885 157.469 209.498 156.863C209.106 156.253 208.91 155.555 208.91 154.771C208.91 153.974 209.104 153.272 209.491 152.666C209.874 152.055 210.432 151.586 211.166 151.258C211.895 150.93 212.745 150.766 213.716 150.766L214.345 150.766ZM213.702 152.071C212.522 152.071 211.617 152.308 210.988 152.782C210.355 153.256 210.038 153.919 210.038 154.771C210.038 155.601 210.355 156.255 210.988 156.733C211.617 157.207 212.492 157.451 213.613 157.465L214.345 157.465C215.489 157.465 216.389 157.226 217.045 156.747C217.697 156.264 218.022 155.601 218.022 154.758C218.022 153.91 217.715 153.254 217.1 152.789C216.48 152.324 215.593 152.085 214.44 152.071L213.702 152.071ZM212.738 145.42C212.706 145.611 212.69 145.819 212.69 146.042C212.69 146.871 213.044 147.434 213.75 147.73L219 147.73L219 148.995L211.604 148.995L211.604 147.765L212.458 147.744C211.797 147.329 211.467 146.742 211.467 145.98C211.467 145.734 211.499 145.548 211.562 145.42L212.738 145.42ZM218.104 141.421C218.104 140.97 217.968 140.576 217.694 140.238C217.421 139.901 217.079 139.714 216.669 139.678L216.669 138.481C217.093 138.504 217.496 138.65 217.879 138.919C218.262 139.188 218.567 139.548 218.795 139.999C219.023 140.446 219.137 140.92 219.137 141.421C219.137 142.428 218.802 143.23 218.132 143.827C217.457 144.42 216.537 144.716 215.37 144.716L215.158 144.716C214.438 144.716 213.798 144.584 213.237 144.319C212.677 144.055 212.242 143.677 211.932 143.185C211.622 142.688 211.467 142.102 211.467 141.428C211.467 140.598 211.715 139.91 212.212 139.363C212.709 138.812 213.354 138.518 214.146 138.481L214.146 139.678C213.668 139.714 213.276 139.896 212.971 140.225C212.661 140.548 212.506 140.949 212.506 141.428C212.506 142.07 212.738 142.569 213.203 142.925C213.663 143.276 214.331 143.451 215.206 143.451L215.445 143.451C216.298 143.451 216.954 143.276 217.414 142.925C217.874 142.574 218.104 142.073 218.104 141.421ZM219.062 141.216L219.417 141.298C219.54 140.601 219.934 140.252 220.6 140.252C221.042 140.252 221.39 140.434 221.646 140.799C221.905 141.163 222.035 141.672 222.035 142.323L221.304 142.371C221.304 142.011 221.244 141.733 221.126 141.537C221.007 141.337 220.841 141.236 220.627 141.236C220.426 141.236 220.278 141.309 220.183 141.455C220.087 141.601 220.019 141.897 219.978 142.344L219.062 142.125L219.062 141.216ZM219 132.493C218.854 132.566 218.594 132.625 218.221 132.671C218.831 133.259 219.137 133.961 219.137 134.776C219.137 135.506 218.932 136.105 218.521 136.574C218.107 137.039 217.583 137.271 216.949 137.271C216.179 137.271 215.582 136.98 215.158 136.396C214.73 135.809 214.516 134.984 214.516 133.922L214.516 132.691L213.935 132.691C213.493 132.691 213.142 132.824 212.882 133.088C212.618 133.352 212.485 133.742 212.485 134.257C212.485 134.708 212.599 135.086 212.827 135.392C213.055 135.697 213.331 135.85 213.654 135.85L213.654 137.121C213.285 137.121 212.93 136.991 212.588 136.731C212.242 136.467 211.968 136.112 211.768 135.665C211.567 135.214 211.467 134.719 211.467 134.182C211.467 133.329 211.681 132.662 212.109 132.179C212.533 131.696 213.119 131.445 213.866 131.427L217.271 131.427C217.95 131.427 218.49 131.34 218.891 131.167L219 131.167L219 132.493ZM218.036 134.592C218.036 134.195 217.934 133.819 217.729 133.464C217.523 133.108 217.257 132.851 216.929 132.691L215.411 132.691L215.411 133.683C215.411 135.232 215.865 136.007 216.771 136.007C217.168 136.007 217.478 135.875 217.701 135.61C217.924 135.346 218.036 135.007 218.036 134.592ZM211.604 128.255L212.424 128.221C211.786 127.678 211.467 126.947 211.467 126.026C211.467 124.992 211.863 124.288 212.656 123.914C212.301 123.668 212.014 123.349 211.795 122.957C211.576 122.561 211.467 122.093 211.467 121.556C211.467 119.933 212.326 119.108 214.044 119.081L219 119.081L219 120.346L214.119 120.346C213.59 120.346 213.196 120.466 212.937 120.708C212.672 120.95 212.54 121.355 212.54 121.925C212.54 122.394 212.681 122.784 212.964 123.094C213.242 123.404 213.618 123.584 214.092 123.634L219 123.634L219 124.905L214.153 124.905C213.078 124.905 212.54 125.432 212.54 126.484C212.54 127.314 212.893 127.881 213.6 128.187L219 128.187L219 129.451L211.604 129.451L211.604 128.255ZM219.137 114.098C219.137 115.1 218.809 115.916 218.152 116.545C217.492 117.174 216.61 117.488 215.507 117.488L215.274 117.488C214.541 117.488 213.887 117.349 213.312 117.071C212.734 116.789 212.283 116.397 211.959 115.896C211.631 115.39 211.467 114.843 211.467 114.255C211.467 113.293 211.784 112.546 212.417 112.013C213.05 111.479 213.957 111.213 215.138 111.213L215.664 111.213L215.664 116.224C216.393 116.205 216.983 115.993 217.435 115.588C217.881 115.178 218.104 114.658 218.104 114.029C218.104 113.583 218.013 113.204 217.831 112.895C217.649 112.585 217.407 112.313 217.106 112.081L217.708 111.309C218.66 111.928 219.137 112.858 219.137 114.098ZM212.506 114.255C212.506 114.765 212.693 115.194 213.066 115.54C213.436 115.886 213.955 116.101 214.625 116.183L214.625 112.478L214.529 112.478C213.887 112.514 213.39 112.687 213.039 112.997C212.684 113.307 212.506 113.726 212.506 114.255ZM211.604 108.547L212.533 108.506C211.822 107.941 211.467 107.202 211.467 106.291C211.467 104.728 212.349 103.939 214.112 103.926L219 103.926L219 105.19L214.105 105.19C213.572 105.195 213.178 105.318 212.923 105.56C212.668 105.797 212.54 106.168 212.54 106.674C212.54 107.084 212.649 107.444 212.868 107.754C213.087 108.064 213.374 108.305 213.729 108.479L219 108.479L219 109.743L211.604 109.743L211.604 108.547ZM209.812 100.303L211.604 100.303L211.604 98.9219L212.581 98.9219L212.581 100.303L217.168 100.303C217.464 100.303 217.687 100.241 217.838 100.118C217.984 99.9951 218.057 99.7855 218.057 99.4893C218.057 99.3434 218.029 99.1429 217.975 98.8877L219 98.8877C219.091 99.2204 219.137 99.5439 219.137 99.8584C219.137 100.424 218.966 100.85 218.624 101.137C218.282 101.424 217.797 101.567 217.168 101.567L212.581 101.567L212.581 102.914L211.604 102.914L211.604 101.567L209.812 101.567L209.812 100.303ZM215.233 97.9102C214.509 97.9102 213.857 97.7689 213.278 97.4863C212.7 97.1992 212.253 96.8027 211.938 96.2969C211.624 95.7865 211.467 95.2054 211.467 94.5537C211.467 93.5465 211.815 92.7331 212.513 92.1133C213.21 91.4889 214.137 91.1768 215.295 91.1768L215.384 91.1768C216.104 91.1768 216.751 91.3158 217.325 91.5937C217.895 91.8672 218.339 92.2614 218.658 92.7764C218.977 93.2868 219.137 93.8747 219.137 94.54C219.137 95.5426 218.788 96.3561 218.091 96.9805C217.394 97.6003 216.471 97.9102 215.322 97.9102L215.233 97.9102ZM215.384 96.6387C216.204 96.6387 216.863 96.4495 217.359 96.0713C217.856 95.6885 218.104 95.1781 218.104 94.54C218.104 93.8975 217.854 93.387 217.353 93.0088C216.847 92.6305 216.14 92.4414 215.233 92.4414C214.422 92.4414 213.766 92.6351 213.265 93.0225C212.759 93.4053 212.506 93.9157 212.506 94.5537C212.506 95.1781 212.754 95.6816 213.251 96.0645C213.748 96.4473 214.459 96.6387 215.384 96.6387Z" fill="#787878"/>
<path d="M196.072 3.10714L196.072 257.893M195.149 3.10714L166.554 3.10714M195.149 257.893H166.554" stroke="#E0E0E0" stroke-width="2" stroke-linecap="round"/>
<path d="M83.6485 266.464H80.8126V252.765L76.629 254.195V251.792L83.2852 249.343H83.6485V266.464ZM90.1641 270.308L88.629 269.394C89.0821 268.683 89.3907 268.062 89.5548 267.531C89.7266 267.007 89.8165 266.472 89.8243 265.925V263.71H92.3907L92.379 265.761C92.3712 266.589 92.1602 267.417 91.7462 268.246C91.3399 269.081 90.8126 269.769 90.1641 270.308ZM106.324 266.464H94.8516V264.507L100.535 258.308C101.356 257.394 101.938 256.632 102.281 256.023C102.633 255.406 102.809 254.788 102.809 254.171C102.809 253.359 102.578 252.703 102.117 252.203C101.664 251.703 101.051 251.453 100.277 251.453C99.3555 251.453 98.6407 251.734 98.1329 252.296C97.6251 252.859 97.3712 253.628 97.3712 254.605H94.5235C94.5235 253.566 94.7579 252.632 95.2266 251.804C95.7032 250.968 96.379 250.32 97.254 249.859C98.1368 249.398 99.1524 249.167 100.301 249.167C101.957 249.167 103.262 249.585 104.215 250.421C105.176 251.249 105.656 252.398 105.656 253.867C105.656 254.718 105.414 255.613 104.93 256.55C104.453 257.48 103.668 258.538 102.574 259.726L98.4024 264.191H106.324V266.464ZM108.375 252.683C108.375 251.652 108.707 250.808 109.371 250.152C110.035 249.488 110.906 249.156 111.984 249.156C113.078 249.156 113.953 249.488 114.609 250.152C115.274 250.808 115.606 251.671 115.606 252.742V253.585C115.606 254.609 115.274 255.449 114.609 256.105C113.953 256.761 113.086 257.089 112.008 257.089C110.953 257.089 110.082 256.769 109.395 256.128C108.715 255.48 108.375 254.609 108.375 253.515V252.683ZM110.367 253.585C110.367 254.124 110.516 254.562 110.813 254.898C111.117 255.226 111.516 255.39 112.008 255.39C112.492 255.39 112.883 255.226 113.18 254.898C113.477 254.562 113.625 254.109 113.625 253.538V252.683C113.625 252.144 113.473 251.706 113.168 251.371C112.871 251.035 112.477 250.867 111.984 250.867C111.492 250.867 111.098 251.038 110.801 251.382C110.512 251.718 110.367 252.163 110.367 252.718V253.585ZM116.578 262.281C116.578 261.234 116.918 260.386 117.598 259.738C118.277 259.089 119.145 258.765 120.199 258.765C121.262 258.765 122.129 259.089 122.801 259.738C123.481 260.386 123.82 261.261 123.82 262.363V263.195C123.82 264.21 123.492 265.05 122.836 265.714C122.188 266.371 121.316 266.699 120.223 266.699C119.129 266.699 118.246 266.374 117.574 265.726C116.91 265.07 116.578 264.206 116.578 263.136V262.281ZM118.57 263.195C118.57 263.726 118.723 264.163 119.027 264.507C119.34 264.843 119.738 265.011 120.223 265.011C120.723 265.011 121.113 264.851 121.395 264.531C121.684 264.203 121.828 263.746 121.828 263.16V262.281C121.828 261.734 121.676 261.296 121.371 260.968C121.066 260.64 120.676 260.476 120.199 260.476C119.715 260.476 119.32 260.64 119.016 260.968C118.719 261.296 118.57 261.749 118.57 262.328V263.195ZM112.594 265.187L111.129 264.343L119.461 251.007L120.926 251.851L112.594 265.187Z" fill="white"/>
</svg>
