<svg width="232" height="359" viewBox="0 0 232 359" fill="none" xmlns="http://www.w3.org/2000/svg">
<path d="M41.375 332.321C40.9414 332.942 40.335 333.408 39.5557 333.719C38.7822 334.023 37.8799 334.176 36.8486 334.176C35.8057 334.176 34.8799 333.933 34.0713 333.446C33.2627 332.954 32.6357 332.257 32.1904 331.354C31.751 330.452 31.5254 329.406 31.5137 328.217V327.101C31.5137 325.173 31.9619 323.679 32.8584 322.618C33.7607 321.558 35.0264 321.027 36.6553 321.027C37.9912 321.027 39.0664 321.37 39.8809 322.056C40.6953 322.735 41.1934 323.702 41.375 324.956H39.6875C39.3711 323.263 38.3633 322.416 36.6641 322.416C35.5332 322.416 34.6748 322.814 34.0889 323.611C33.5088 324.402 33.2158 325.551 33.21 327.057V328.103C33.21 329.538 33.5381 330.681 34.1943 331.53C34.8506 332.374 35.7383 332.796 36.8574 332.796C37.4902 332.796 38.0439 332.726 38.5186 332.585C38.9932 332.444 39.3857 332.207 39.6963 331.873V328.999H36.7344V327.628H41.375V332.321ZM49.8125 334C49.7188 333.812 49.6426 333.479 49.584 332.998C48.8281 333.783 47.9258 334.176 46.877 334.176C45.9395 334.176 45.1689 333.912 44.5654 333.385C43.9678 332.852 43.6689 332.178 43.6689 331.363C43.6689 330.373 44.0439 329.605 44.7939 329.061C45.5498 328.51 46.6104 328.234 47.9756 328.234H49.5576V327.487C49.5576 326.919 49.3877 326.468 49.0479 326.134C48.708 325.794 48.207 325.624 47.5449 325.624C46.9648 325.624 46.4785 325.771 46.0859 326.063C45.6934 326.356 45.4971 326.711 45.4971 327.127H43.8623C43.8623 326.652 44.0293 326.195 44.3633 325.756C44.7031 325.311 45.1602 324.959 45.7344 324.701C46.3145 324.443 46.9502 324.314 47.6416 324.314C48.7373 324.314 49.5957 324.59 50.2168 325.141C50.8379 325.686 51.1602 326.438 51.1836 327.399V331.776C51.1836 332.649 51.2949 333.344 51.5176 333.859V334H49.8125ZM47.1143 332.761C47.624 332.761 48.1074 332.629 48.5645 332.365C49.0215 332.102 49.3525 331.759 49.5576 331.337V329.386H48.2832C46.291 329.386 45.2949 329.969 45.2949 331.135C45.2949 331.645 45.4648 332.043 45.8047 332.33C46.1445 332.617 46.5811 332.761 47.1143 332.761ZM59.2695 331.478C59.2695 331.038 59.1025 330.698 58.7686 330.458C58.4404 330.212 57.8633 330.001 57.0371 329.825C56.2168 329.649 55.5635 329.438 55.0771 329.192C54.5967 328.946 54.2393 328.653 54.0049 328.313C53.7764 327.974 53.6621 327.569 53.6621 327.101C53.6621 326.321 53.9902 325.662 54.6465 325.123C55.3086 324.584 56.1523 324.314 57.1777 324.314C58.2559 324.314 59.1289 324.593 59.7969 325.149C60.4707 325.706 60.8076 326.418 60.8076 327.285H59.1729C59.1729 326.84 58.9824 326.456 58.6016 326.134C58.2266 325.812 57.752 325.65 57.1777 325.65C56.5859 325.65 56.123 325.779 55.7891 326.037C55.4551 326.295 55.2881 326.632 55.2881 327.048C55.2881 327.44 55.4434 327.736 55.7539 327.936C56.0645 328.135 56.624 328.325 57.4326 328.507C58.2471 328.688 58.9062 328.905 59.4102 329.157C59.9141 329.409 60.2861 329.714 60.5264 330.071C60.7725 330.423 60.8955 330.854 60.8955 331.363C60.8955 332.213 60.5557 332.896 59.876 333.411C59.1963 333.921 58.3145 334.176 57.2305 334.176C56.4688 334.176 55.7949 334.041 55.209 333.771C54.623 333.502 54.1631 333.127 53.8291 332.646C53.501 332.16 53.3369 331.636 53.3369 331.073H54.9629C54.9922 331.618 55.209 332.052 55.6133 332.374C56.0234 332.69 56.5625 332.849 57.2305 332.849C57.8457 332.849 58.3379 332.726 58.707 332.479C59.082 332.228 59.2695 331.894 59.2695 331.478ZM65.2197 322.188V324.49H66.9951V325.747H65.2197V331.645C65.2197 332.025 65.2988 332.312 65.457 332.506C65.6152 332.693 65.8848 332.787 66.2656 332.787C66.4531 332.787 66.7109 332.752 67.0391 332.682V334C66.6113 334.117 66.1953 334.176 65.791 334.176C65.0645 334.176 64.5166 333.956 64.1475 333.517C63.7783 333.077 63.5938 332.453 63.5938 331.645V325.747H61.8623V324.49H63.5938V322.188H65.2197ZM68.2959 329.157C68.2959 328.226 68.4775 327.388 68.8408 326.644C69.21 325.899 69.7197 325.325 70.3701 324.921C71.0264 324.517 71.7734 324.314 72.6113 324.314C73.9062 324.314 74.9521 324.763 75.749 325.659C76.5518 326.556 76.9531 327.748 76.9531 329.236V329.351C76.9531 330.276 76.7744 331.108 76.417 331.847C76.0654 332.579 75.5586 333.15 74.8965 333.561C74.2402 333.971 73.4844 334.176 72.6289 334.176C71.3398 334.176 70.2939 333.728 69.4912 332.831C68.6943 331.935 68.2959 330.748 68.2959 329.271V329.157ZM69.9307 329.351C69.9307 330.405 70.1738 331.252 70.6602 331.891C71.1523 332.529 71.8086 332.849 72.6289 332.849C73.4551 332.849 74.1113 332.526 74.5977 331.882C75.084 331.231 75.3271 330.323 75.3271 329.157C75.3271 328.114 75.0781 327.271 74.5801 326.626C74.0879 325.976 73.4316 325.65 72.6113 325.65C71.8086 325.65 71.1611 325.97 70.6689 326.608C70.1768 327.247 69.9307 328.161 69.9307 329.351ZM84.5293 331.478C84.5293 331.038 84.3623 330.698 84.0283 330.458C83.7002 330.212 83.123 330.001 82.2969 329.825C81.4766 329.649 80.8232 329.438 80.3369 329.192C79.8564 328.946 79.499 328.653 79.2646 328.313C79.0361 327.974 78.9219 327.569 78.9219 327.101C78.9219 326.321 79.25 325.662 79.9062 325.123C80.5684 324.584 81.4121 324.314 82.4375 324.314C83.5156 324.314 84.3887 324.593 85.0566 325.149C85.7305 325.706 86.0674 326.418 86.0674 327.285H84.4326C84.4326 326.84 84.2422 326.456 83.8613 326.134C83.4863 325.812 83.0117 325.65 82.4375 325.65C81.8457 325.65 81.3828 325.779 81.0488 326.037C80.7148 326.295 80.5479 326.632 80.5479 327.048C80.5479 327.44 80.7031 327.736 81.0137 327.936C81.3242 328.135 81.8838 328.325 82.6924 328.507C83.5068 328.688 84.166 328.905 84.6699 329.157C85.1738 329.409 85.5459 329.714 85.7861 330.071C86.0322 330.423 86.1553 330.854 86.1553 331.363C86.1553 332.213 85.8154 332.896 85.1357 333.411C84.4561 333.921 83.5742 334.176 82.4902 334.176C81.7285 334.176 81.0547 334.041 80.4688 333.771C79.8828 333.502 79.4229 333.127 79.0889 332.646C78.7607 332.16 78.5967 331.636 78.5967 331.073H80.2227C80.252 331.618 80.4688 332.052 80.873 332.374C81.2832 332.69 81.8223 332.849 82.4902 332.849C83.1055 332.849 83.5977 332.726 83.9668 332.479C84.3418 332.228 84.5293 331.894 84.5293 331.478ZM96.6846 334.176C95.3955 334.176 94.3467 333.754 93.5381 332.91C92.7295 332.061 92.3252 330.927 92.3252 329.509V329.21C92.3252 328.267 92.5039 327.426 92.8613 326.688C93.2246 325.943 93.7285 325.363 94.373 324.947C95.0234 324.525 95.7266 324.314 96.4824 324.314C97.7188 324.314 98.6797 324.722 99.3652 325.536C100.051 326.351 100.394 327.517 100.394 329.034V329.711H93.9512C93.9746 330.648 94.2471 331.407 94.7686 331.987C95.2959 332.562 95.9639 332.849 96.7725 332.849C97.3467 332.849 97.833 332.731 98.2314 332.497C98.6299 332.263 98.9785 331.952 99.2773 331.565L100.271 332.339C99.4736 333.563 98.2783 334.176 96.6846 334.176ZM96.4824 325.65C95.8262 325.65 95.2754 325.891 94.8301 326.371C94.3848 326.846 94.1094 327.514 94.0039 328.375H98.7676V328.252C98.7207 327.426 98.498 326.787 98.0996 326.336C97.7012 325.879 97.1621 325.65 96.4824 325.65ZM103.812 324.49L103.856 325.545C104.554 324.725 105.494 324.314 106.678 324.314C108.008 324.314 108.913 324.824 109.394 325.844C109.71 325.387 110.12 325.018 110.624 324.736C111.134 324.455 111.734 324.314 112.426 324.314C114.512 324.314 115.572 325.419 115.607 327.628V334H113.981V327.725C113.981 327.045 113.826 326.538 113.516 326.204C113.205 325.864 112.684 325.694 111.951 325.694C111.348 325.694 110.847 325.876 110.448 326.239C110.05 326.597 109.818 327.08 109.754 327.689V334H108.119V327.769C108.119 326.386 107.442 325.694 106.089 325.694C105.022 325.694 104.293 326.148 103.9 327.057V334H102.274V324.49H103.812ZM129.854 330.66H124.493L123.289 334H121.549L126.436 321.203H127.912L132.808 334H131.076L129.854 330.66ZM125.003 329.271H129.354L127.174 323.286L125.003 329.271ZM138.09 332.849C138.67 332.849 139.177 332.673 139.61 332.321C140.044 331.97 140.284 331.53 140.331 331.003H141.869C141.84 331.548 141.652 332.066 141.307 332.559C140.961 333.051 140.498 333.443 139.918 333.736C139.344 334.029 138.734 334.176 138.09 334.176C136.795 334.176 135.764 333.745 134.996 332.884C134.234 332.017 133.854 330.833 133.854 329.333V329.061C133.854 328.135 134.023 327.312 134.363 326.591C134.703 325.87 135.189 325.311 135.822 324.912C136.461 324.514 137.214 324.314 138.081 324.314C139.147 324.314 140.032 324.634 140.735 325.272C141.444 325.911 141.822 326.74 141.869 327.76H140.331C140.284 327.145 140.05 326.641 139.628 326.248C139.212 325.85 138.696 325.65 138.081 325.65C137.255 325.65 136.613 325.949 136.156 326.547C135.705 327.139 135.479 327.997 135.479 329.122V329.43C135.479 330.525 135.705 331.369 136.156 331.961C136.607 332.553 137.252 332.849 138.09 332.849ZM138.354 334.079L138.248 334.536C139.145 334.694 139.593 335.201 139.593 336.057C139.593 336.625 139.358 337.073 138.89 337.401C138.421 337.735 137.768 337.902 136.93 337.902L136.868 336.962C137.331 336.962 137.688 336.886 137.94 336.733C138.198 336.581 138.327 336.367 138.327 336.092C138.327 335.834 138.233 335.644 138.046 335.521C137.858 335.397 137.478 335.31 136.903 335.257L137.185 334.079H138.354ZM143.267 329.157C143.267 328.226 143.448 327.388 143.812 326.644C144.181 325.899 144.69 325.325 145.341 324.921C145.997 324.517 146.744 324.314 147.582 324.314C148.877 324.314 149.923 324.763 150.72 325.659C151.522 326.556 151.924 327.748 151.924 329.236V329.351C151.924 330.276 151.745 331.108 151.388 331.847C151.036 332.579 150.529 333.15 149.867 333.561C149.211 333.971 148.455 334.176 147.6 334.176C146.311 334.176 145.265 333.728 144.462 332.831C143.665 331.935 143.267 330.748 143.267 329.271V329.157ZM144.901 329.351C144.901 330.405 145.145 331.252 145.631 331.891C146.123 332.529 146.779 332.849 147.6 332.849C148.426 332.849 149.082 332.526 149.568 331.882C150.055 331.231 150.298 330.323 150.298 329.157C150.298 328.114 150.049 327.271 149.551 326.626C149.059 325.976 148.402 325.65 147.582 325.65C146.779 325.65 146.132 325.97 145.64 326.608C145.147 327.247 144.901 328.161 144.901 329.351ZM150.641 320.781C150.641 321.414 150.459 321.927 150.096 322.319C149.738 322.712 149.29 322.908 148.751 322.908C148.511 322.908 148.303 322.879 148.127 322.82C147.951 322.762 147.72 322.642 147.433 322.46C147.151 322.278 146.946 322.17 146.817 322.135C146.694 322.094 146.551 322.073 146.387 322.073C146.146 322.073 145.941 322.167 145.771 322.354C145.602 322.536 145.517 322.771 145.517 323.058L144.427 322.996C144.427 322.369 144.603 321.851 144.954 321.44C145.312 321.03 145.763 320.825 146.308 320.825C146.513 320.825 146.697 320.854 146.861 320.913C147.025 320.972 147.248 321.086 147.529 321.256C147.811 321.426 148.024 321.537 148.171 321.59C148.323 321.643 148.49 321.669 148.672 321.669C148.924 321.669 149.132 321.569 149.296 321.37C149.466 321.171 149.551 320.939 149.551 320.676L150.641 320.781ZM157.909 334.176C156.62 334.176 155.571 333.754 154.763 332.91C153.954 332.061 153.55 330.927 153.55 329.509V329.21C153.55 328.267 153.729 327.426 154.086 326.688C154.449 325.943 154.953 325.363 155.598 324.947C156.248 324.525 156.951 324.314 157.707 324.314C158.943 324.314 159.904 324.722 160.59 325.536C161.275 326.351 161.618 327.517 161.618 329.034V329.711H155.176C155.199 330.648 155.472 331.407 155.993 331.987C156.521 332.562 157.188 332.849 157.997 332.849C158.571 332.849 159.058 332.731 159.456 332.497C159.854 332.263 160.203 331.952 160.502 331.565L161.495 332.339C160.698 333.563 159.503 334.176 157.909 334.176ZM157.707 325.65C157.051 325.65 156.5 325.891 156.055 326.371C155.609 326.846 155.334 327.514 155.229 328.375H159.992V328.252C159.945 327.426 159.723 326.787 159.324 326.336C158.926 325.879 158.387 325.65 157.707 325.65ZM169.045 331.478C169.045 331.038 168.878 330.698 168.544 330.458C168.216 330.212 167.639 330.001 166.812 329.825C165.992 329.649 165.339 329.438 164.853 329.192C164.372 328.946 164.015 328.653 163.78 328.313C163.552 327.974 163.438 327.569 163.438 327.101C163.438 326.321 163.766 325.662 164.422 325.123C165.084 324.584 165.928 324.314 166.953 324.314C168.031 324.314 168.904 324.593 169.572 325.149C170.246 325.706 170.583 326.418 170.583 327.285H168.948C168.948 326.84 168.758 326.456 168.377 326.134C168.002 325.812 167.527 325.65 166.953 325.65C166.361 325.65 165.898 325.779 165.564 326.037C165.23 326.295 165.063 326.632 165.063 327.048C165.063 327.44 165.219 327.736 165.529 327.936C165.84 328.135 166.399 328.325 167.208 328.507C168.022 328.688 168.682 328.905 169.186 329.157C169.689 329.409 170.062 329.714 170.302 330.071C170.548 330.423 170.671 330.854 170.671 331.363C170.671 332.213 170.331 332.896 169.651 333.411C168.972 333.921 168.09 334.176 167.006 334.176C166.244 334.176 165.57 334.041 164.984 333.771C164.398 333.502 163.938 333.127 163.604 332.646C163.276 332.16 163.112 331.636 163.112 331.073H164.738C164.768 331.618 164.984 332.052 165.389 332.374C165.799 332.69 166.338 332.849 167.006 332.849C167.621 332.849 168.113 332.726 168.482 332.479C168.857 332.228 169.045 331.894 169.045 331.478ZM76.373 353.939C76.2148 355.293 75.7139 356.339 74.8701 357.077C74.0322 357.81 72.916 358.176 71.5215 358.176C70.0098 358.176 68.7969 357.634 67.8828 356.55C66.9746 355.466 66.5205 354.016 66.5205 352.199V350.969C66.5205 349.779 66.7314 348.733 67.1533 347.831C67.5811 346.929 68.1846 346.237 68.9639 345.757C69.7432 345.271 70.6455 345.027 71.6709 345.027C73.0303 345.027 74.1201 345.408 74.9404 346.17C75.7607 346.926 76.2383 347.975 76.373 349.316H74.6768C74.5303 348.297 74.2109 347.559 73.7188 347.102C73.2324 346.645 72.5498 346.416 71.6709 346.416C70.5928 346.416 69.7461 346.814 69.1309 347.611C68.5215 348.408 68.2168 349.542 68.2168 351.013V352.252C68.2168 353.641 68.5068 354.745 69.0869 355.565C69.667 356.386 70.4785 356.796 71.5215 356.796C72.459 356.796 73.1768 356.585 73.6748 356.163C74.1787 355.735 74.5127 354.994 74.6768 353.939H76.373ZM84.3008 357.06C83.668 357.804 82.7393 358.176 81.5146 358.176C80.501 358.176 79.7275 357.883 79.1943 357.297C78.667 356.705 78.4004 355.832 78.3945 354.678V348.49H80.0205V354.634C80.0205 356.075 80.6064 356.796 81.7783 356.796C83.0205 356.796 83.8467 356.333 84.2568 355.407V348.49H85.8828V358H84.3359L84.3008 357.06ZM90.1279 358H88.502V344.5H90.1279V358ZM94.9443 346.188V348.49H96.7197V349.747H94.9443V355.645C94.9443 356.025 95.0234 356.312 95.1816 356.506C95.3398 356.693 95.6094 356.787 95.9902 356.787C96.1777 356.787 96.4355 356.752 96.7637 356.682V358C96.3359 358.117 95.9199 358.176 95.5156 358.176C94.7891 358.176 94.2412 357.956 93.8721 357.517C93.5029 357.077 93.3184 356.453 93.3184 355.645V349.747H91.5869V348.49H93.3184V346.188H94.9443ZM104.498 357.06C103.865 357.804 102.937 358.176 101.712 358.176C100.698 358.176 99.9248 357.883 99.3916 357.297C98.8643 356.705 98.5977 355.832 98.5918 354.678V348.49H100.218V354.634C100.218 356.075 100.804 356.796 101.976 356.796C103.218 356.796 104.044 356.333 104.454 355.407V348.49H106.08V358H104.533L104.498 357.06ZM113.155 349.949C112.909 349.908 112.643 349.888 112.355 349.888C111.289 349.888 110.565 350.342 110.185 351.25V358H108.559V348.49H110.141L110.167 349.589C110.7 348.739 111.456 348.314 112.435 348.314C112.751 348.314 112.991 348.355 113.155 348.438V349.949ZM120.178 358C120.084 357.812 120.008 357.479 119.949 356.998C119.193 357.783 118.291 358.176 117.242 358.176C116.305 358.176 115.534 357.912 114.931 357.385C114.333 356.852 114.034 356.178 114.034 355.363C114.034 354.373 114.409 353.605 115.159 353.061C115.915 352.51 116.976 352.234 118.341 352.234H119.923V351.487C119.923 350.919 119.753 350.468 119.413 350.134C119.073 349.794 118.572 349.624 117.91 349.624C117.33 349.624 116.844 349.771 116.451 350.063C116.059 350.356 115.862 350.711 115.862 351.127H114.228C114.228 350.652 114.395 350.195 114.729 349.756C115.068 349.311 115.525 348.959 116.1 348.701C116.68 348.443 117.315 348.314 118.007 348.314C119.103 348.314 119.961 348.59 120.582 349.141C121.203 349.686 121.525 350.438 121.549 351.399V355.776C121.549 356.649 121.66 357.344 121.883 357.859V358H120.178ZM117.479 356.761C117.989 356.761 118.473 356.629 118.93 356.365C119.387 356.102 119.718 355.759 119.923 355.337V353.386H118.648C116.656 353.386 115.66 353.969 115.66 355.135C115.66 355.645 115.83 356.043 116.17 356.33C116.51 356.617 116.946 356.761 117.479 356.761ZM125.864 358H124.238V348.49H125.864V358ZM124.106 345.968C124.106 345.704 124.186 345.481 124.344 345.3C124.508 345.118 124.748 345.027 125.064 345.027C125.381 345.027 125.621 345.118 125.785 345.3C125.949 345.481 126.031 345.704 126.031 345.968C126.031 346.231 125.949 346.451 125.785 346.627C125.621 346.803 125.381 346.891 125.064 346.891C124.748 346.891 124.508 346.803 124.344 346.627C124.186 346.451 124.106 346.231 124.106 345.968ZM134.012 355.478C134.012 355.038 133.845 354.698 133.511 354.458C133.183 354.212 132.605 354.001 131.779 353.825C130.959 353.649 130.306 353.438 129.819 353.192C129.339 352.946 128.981 352.653 128.747 352.313C128.519 351.974 128.404 351.569 128.404 351.101C128.404 350.321 128.732 349.662 129.389 349.123C130.051 348.584 130.895 348.314 131.92 348.314C132.998 348.314 133.871 348.593 134.539 349.149C135.213 349.706 135.55 350.418 135.55 351.285H133.915C133.915 350.84 133.725 350.456 133.344 350.134C132.969 349.812 132.494 349.65 131.92 349.65C131.328 349.65 130.865 349.779 130.531 350.037C130.197 350.295 130.03 350.632 130.03 351.048C130.03 351.44 130.186 351.736 130.496 351.936C130.807 352.135 131.366 352.325 132.175 352.507C132.989 352.688 133.648 352.905 134.152 353.157C134.656 353.409 135.028 353.714 135.269 354.071C135.515 354.423 135.638 354.854 135.638 355.363C135.638 356.213 135.298 356.896 134.618 357.411C133.938 357.921 133.057 358.176 131.973 358.176C131.211 358.176 130.537 358.041 129.951 357.771C129.365 357.502 128.905 357.127 128.571 356.646C128.243 356.16 128.079 355.636 128.079 355.073H129.705C129.734 355.618 129.951 356.052 130.355 356.374C130.766 356.69 131.305 356.849 131.973 356.849C132.588 356.849 133.08 356.726 133.449 356.479C133.824 356.228 134.012 355.894 134.012 355.478Z" fill="#9B51E0"/>
<ellipse rx="50.4911" ry="48.1607" transform="matrix(-1 0 0 1 98.9728 257.893)" fill="#C4C4C4"/>
<rect width="46.6071" height="250.125" rx="23.3036" transform="matrix(-1 0 0 1 123.053 0)" fill="#C4C4C4"/>
<ellipse rx="50.4911" ry="48.1607" transform="matrix(-1 0 0 1 98.9728 257.893)" fill="#BB6BD9"/>
<line x1="95.6426" y1="38.2857" x2="77.4462" y2="38.2857" stroke="#787878" stroke-width="2" stroke-linecap="round"/>
<line x1="95.6426" y1="47.6071" x2="77.4462" y2="47.6071" stroke="#787878" stroke-width="2" stroke-linecap="round"/>
<line x1="104.964" y1="56.9286" x2="77.4465" y2="56.9286" stroke="#787878" stroke-width="2" stroke-linecap="round"/>
<line x1="95.6426" y1="64.6964" x2="77.4462" y2="64.6964" stroke="#787878" stroke-width="2" stroke-linecap="round"/>
<line x1="95.6426" y1="74.0179" x2="77.4462" y2="74.0179" stroke="#787878" stroke-width="2" stroke-linecap="round"/>
<line x1="104.964" y1="83.3393" x2="77.4465" y2="83.3393" stroke="#787878" stroke-width="2" stroke-linecap="round"/>
<line x1="95.6426" y1="91.1071" x2="77.4462" y2="91.1071" stroke="#787878" stroke-width="2" stroke-linecap="round"/>
<line x1="95.6426" y1="100.429" x2="77.4462" y2="100.429" stroke="#787878" stroke-width="2" stroke-linecap="round"/>
<line x1="104.964" y1="109.75" x2="77.4465" y2="109.75" stroke="#787878" stroke-width="2" stroke-linecap="round"/>
<line x1="95.6426" y1="145.482" x2="77.4462" y2="145.482" stroke="#787878" stroke-width="2" stroke-linecap="round"/>
<line x1="95.6426" y1="119.071" x2="77.4462" y2="119.071" stroke="#787878" stroke-width="2" stroke-linecap="round"/>
<line x1="104.964" y1="128.393" x2="77.4465" y2="128.393" stroke="#787878" stroke-width="2" stroke-linecap="round"/>
<line x1="104.964" y1="137.714" x2="77.4465" y2="137.714" stroke="#787878" stroke-width="2" stroke-linecap="round"/>
<line x1="95.6426" y1="154.804" x2="77.4462" y2="154.804" stroke="#787878" stroke-width="2" stroke-linecap="round"/>
<line x1="104.964" y1="164.125" x2="77.4465" y2="164.125" stroke="#787878" stroke-width="2" stroke-linecap="round"/>
<line x1="95.6426" y1="198.304" x2="77.4462" y2="198.304" stroke="#787878" stroke-width="2" stroke-linecap="round"/>
<line x1="95.6426" y1="171.893" x2="77.4462" y2="171.893" stroke="#787878" stroke-width="2" stroke-linecap="round"/>
<line x1="104.964" y1="181.214" x2="77.4465" y2="181.214" stroke="#787878" stroke-width="2" stroke-linecap="round"/>
<line x1="104.964" y1="190.536" x2="77.4465" y2="190.536" stroke="#787878" stroke-width="2" stroke-linecap="round"/>
<line x1="95.6426" y1="207.625" x2="77.4462" y2="207.625" stroke="#787878" stroke-width="2" stroke-linecap="round"/>
<mask id="mask0" style="mask-type:alpha" maskUnits="userSpaceOnUse" x="48" y="209" width="102" height="97">
<ellipse rx="50.4911" ry="48.1607" transform="matrix(-1 0 0 1 98.9728 257.161)" fill="#CECECE"/>
</mask>
<g mask="url(#mask0)">
<rect x="48" y="139" width="108" height="148" fill="#C4C4C4"/>
</g>
<path d="M214.345 150.766C215.32 150.766 216.172 150.93 216.901 151.258C217.626 151.586 218.18 152.051 218.562 152.652C218.945 153.254 219.137 153.956 219.137 154.758C219.137 155.542 218.945 156.237 218.562 156.843C218.175 157.449 217.626 157.921 216.915 158.258C216.2 158.59 215.372 158.761 214.434 158.771L213.716 158.771C212.759 158.771 211.913 158.604 211.18 158.271C210.446 157.939 209.885 157.469 209.498 156.863C209.106 156.253 208.91 155.555 208.91 154.771C208.91 153.974 209.104 153.272 209.491 152.666C209.874 152.055 210.432 151.586 211.166 151.258C211.895 150.93 212.745 150.766 213.716 150.766L214.345 150.766ZM213.702 152.071C212.522 152.071 211.617 152.308 210.988 152.782C210.355 153.256 210.038 153.919 210.038 154.771C210.038 155.601 210.355 156.255 210.988 156.733C211.617 157.207 212.492 157.451 213.613 157.465L214.345 157.465C215.489 157.465 216.389 157.226 217.045 156.747C217.697 156.264 218.022 155.601 218.022 154.758C218.022 153.91 217.715 153.254 217.1 152.789C216.48 152.324 215.593 152.085 214.44 152.071L213.702 152.071ZM212.738 145.42C212.706 145.611 212.69 145.819 212.69 146.042C212.69 146.871 213.044 147.434 213.75 147.73L219 147.73L219 148.995L211.604 148.995L211.604 147.765L212.458 147.744C211.797 147.329 211.467 146.742 211.467 145.98C211.467 145.734 211.499 145.548 211.562 145.42L212.738 145.42ZM218.104 141.421C218.104 140.97 217.968 140.576 217.694 140.238C217.421 139.901 217.079 139.714 216.669 139.678L216.669 138.481C217.093 138.504 217.496 138.65 217.879 138.919C218.262 139.188 218.567 139.548 218.795 139.999C219.023 140.446 219.137 140.92 219.137 141.421C219.137 142.428 218.802 143.23 218.132 143.827C217.457 144.42 216.537 144.716 215.37 144.716L215.158 144.716C214.438 144.716 213.798 144.584 213.237 144.319C212.677 144.055 212.242 143.677 211.932 143.185C211.622 142.688 211.467 142.102 211.467 141.428C211.467 140.598 211.715 139.91 212.212 139.363C212.709 138.812 213.354 138.518 214.146 138.481L214.146 139.678C213.668 139.714 213.276 139.896 212.971 140.225C212.661 140.548 212.506 140.949 212.506 141.428C212.506 142.07 212.738 142.569 213.203 142.925C213.663 143.276 214.331 143.451 215.206 143.451L215.445 143.451C216.298 143.451 216.954 143.276 217.414 142.925C217.874 142.574 218.104 142.073 218.104 141.421ZM219.062 141.216L219.417 141.298C219.54 140.601 219.934 140.252 220.6 140.252C221.042 140.252 221.39 140.434 221.646 140.799C221.905 141.163 222.035 141.672 222.035 142.323L221.304 142.371C221.304 142.011 221.244 141.733 221.126 141.537C221.007 141.337 220.841 141.236 220.627 141.236C220.426 141.236 220.278 141.309 220.183 141.455C220.087 141.601 220.019 141.897 219.978 142.344L219.062 142.125L219.062 141.216ZM219 132.493C218.854 132.566 218.594 132.625 218.221 132.671C218.831 133.259 219.137 133.961 219.137 134.776C219.137 135.506 218.932 136.105 218.521 136.574C218.107 137.039 217.583 137.271 216.949 137.271C216.179 137.271 215.582 136.98 215.158 136.396C214.73 135.809 214.516 134.984 214.516 133.922L214.516 132.691L213.935 132.691C213.493 132.691 213.142 132.824 212.882 133.088C212.618 133.352 212.485 133.742 212.485 134.257C212.485 134.708 212.599 135.086 212.827 135.392C213.055 135.697 213.331 135.85 213.654 135.85L213.654 137.121C213.285 137.121 212.93 136.991 212.588 136.731C212.242 136.467 211.968 136.112 211.768 135.665C211.567 135.214 211.467 134.719 211.467 134.182C211.467 133.329 211.681 132.662 212.109 132.179C212.533 131.696 213.119 131.445 213.866 131.427L217.271 131.427C217.95 131.427 218.49 131.34 218.891 131.167L219 131.167L219 132.493ZM218.036 134.592C218.036 134.195 217.934 133.819 217.729 133.464C217.523 133.108 217.257 132.851 216.929 132.691L215.411 132.691L215.411 133.683C215.411 135.232 215.865 136.007 216.771 136.007C217.168 136.007 217.478 135.875 217.701 135.61C217.924 135.346 218.036 135.007 218.036 134.592ZM211.604 128.255L212.424 128.221C211.786 127.678 211.467 126.947 211.467 126.026C211.467 124.992 211.863 124.288 212.656 123.914C212.301 123.668 212.014 123.349 211.795 122.957C211.576 122.561 211.467 122.093 211.467 121.556C211.467 119.933 212.326 119.108 214.044 119.081L219 119.081L219 120.346L214.119 120.346C213.59 120.346 213.196 120.466 212.937 120.708C212.672 120.95 212.54 121.355 212.54 121.925C212.54 122.394 212.681 122.784 212.964 123.094C213.242 123.404 213.618 123.584 214.092 123.634L219 123.634L219 124.905L214.153 124.905C213.078 124.905 212.54 125.432 212.54 126.484C212.54 127.314 212.893 127.881 213.6 128.187L219 128.187L219 129.451L211.604 129.451L211.604 128.255ZM219.137 114.098C219.137 115.1 218.809 115.916 218.152 116.545C217.492 117.174 216.61 117.488 215.507 117.488L215.274 117.488C214.541 117.488 213.887 117.349 213.312 117.071C212.734 116.789 212.283 116.397 211.959 115.896C211.631 115.39 211.467 114.843 211.467 114.255C211.467 113.293 211.784 112.546 212.417 112.013C213.05 111.479 213.957 111.213 215.138 111.213L215.664 111.213L215.664 116.224C216.393 116.205 216.983 115.993 217.435 115.588C217.881 115.178 218.104 114.658 218.104 114.029C218.104 113.583 218.013 113.204 217.831 112.895C217.649 112.585 217.407 112.313 217.106 112.081L217.708 111.309C218.66 111.928 219.137 112.858 219.137 114.098ZM212.506 114.255C212.506 114.765 212.693 115.194 213.066 115.54C213.436 115.886 213.955 116.101 214.625 116.183L214.625 112.478L214.529 112.478C213.887 112.514 213.39 112.687 213.039 112.997C212.684 113.307 212.506 113.726 212.506 114.255ZM211.604 108.547L212.533 108.506C211.822 107.941 211.467 107.202 211.467 106.291C211.467 104.728 212.349 103.939 214.112 103.926L219 103.926L219 105.19L214.105 105.19C213.572 105.195 213.178 105.318 212.923 105.56C212.668 105.797 212.54 106.168 212.54 106.674C212.54 107.084 212.649 107.444 212.868 107.754C213.087 108.064 213.374 108.305 213.729 108.479L219 108.479L219 109.743L211.604 109.743L211.604 108.547ZM209.812 100.303L211.604 100.303L211.604 98.9219L212.581 98.9219L212.581 100.303L217.168 100.303C217.464 100.303 217.687 100.241 217.838 100.118C217.984 99.9951 218.057 99.7855 218.057 99.4893C218.057 99.3434 218.029 99.1429 217.975 98.8877L219 98.8877C219.091 99.2204 219.137 99.5439 219.137 99.8584C219.137 100.424 218.966 100.85 218.624 101.137C218.282 101.424 217.797 101.567 217.168 101.567L212.581 101.567L212.581 102.914L211.604 102.914L211.604 101.567L209.812 101.567L209.812 100.303ZM215.233 97.9102C214.509 97.9102 213.857 97.7689 213.278 97.4863C212.7 97.1992 212.253 96.8027 211.938 96.2969C211.624 95.7865 211.467 95.2054 211.467 94.5537C211.467 93.5465 211.815 92.7331 212.513 92.1133C213.21 91.4889 214.137 91.1768 215.295 91.1768L215.384 91.1768C216.104 91.1768 216.751 91.3158 217.325 91.5937C217.895 91.8672 218.339 92.2614 218.658 92.7764C218.977 93.2868 219.137 93.8747 219.137 94.54C219.137 95.5426 218.788 96.3561 218.091 96.9805C217.394 97.6003 216.471 97.9102 215.322 97.9102L215.233 97.9102ZM215.384 96.6387C216.204 96.6387 216.863 96.4495 217.359 96.0713C217.856 95.6885 218.104 95.1781 218.104 94.54C218.104 93.8975 217.854 93.387 217.353 93.0088C216.847 92.6305 216.14 92.4414 215.233 92.4414C214.422 92.4414 213.766 92.6351 213.265 93.0225C212.759 93.4053 212.506 93.9157 212.506 94.5537C212.506 95.1781 212.754 95.6816 213.251 96.0645C213.748 96.4473 214.459 96.6387 215.384 96.6387Z" fill="#787878"/>
<path d="M196.072 3.10715L196.072 257.893M195.149 3.10715L166.554 3.10715M195.149 257.893H166.554" stroke="#E0E0E0" stroke-width="2" stroke-linecap="round"/>
<path d="M80.2383 259.281C80.2383 261.734 79.7774 263.585 78.8555 264.835C77.9415 266.078 76.5469 266.699 74.6719 266.699C72.8282 266.699 71.4376 266.093 70.5001 264.882C69.5704 263.664 69.0938 261.863 69.0704 259.48V256.527C69.0704 254.074 69.5274 252.234 70.4415 251.007C71.3633 249.781 72.7657 249.167 74.6485 249.167C76.5157 249.167 77.9063 249.765 78.8204 250.96C79.7423 252.156 80.2149 253.945 80.2383 256.328V259.281ZM77.3907 256.093C77.3907 254.492 77.1719 253.32 76.7344 252.578C76.2969 251.828 75.6016 251.453 74.6485 251.453C73.7188 251.453 73.0352 251.808 72.5977 252.519C72.1602 253.222 71.9298 254.324 71.9063 255.824V259.691C71.9063 261.285 72.129 262.472 72.5743 263.253C73.0196 264.035 73.7188 264.425 74.6719 264.425C75.586 264.425 76.2618 264.066 76.6993 263.347C77.1368 262.621 77.3673 261.488 77.3907 259.949V256.093ZM83.3438 270.308L81.8087 269.394C82.2618 268.683 82.5704 268.062 82.7344 267.531C82.9063 267.007 82.9962 266.472 83.004 265.925V263.71H85.5704L85.5587 265.761C85.5508 266.589 85.3399 267.417 84.9258 268.246C84.5196 269.081 83.9923 269.769 83.3438 270.308ZM91.3243 256.632H93.0587C93.9337 256.624 94.6251 256.398 95.1329 255.953C95.6485 255.507 95.9063 254.863 95.9063 254.019C95.9063 253.206 95.6915 252.578 95.2618 252.132C94.8399 251.679 94.1915 251.453 93.3165 251.453C92.5508 251.453 91.9219 251.675 91.4298 252.121C90.9376 252.558 90.6915 253.132 90.6915 253.843H87.8438C87.8438 252.968 88.0743 252.171 88.5352 251.453C89.004 250.734 89.6524 250.175 90.4805 249.777C91.3165 249.371 92.2501 249.167 93.2813 249.167C94.9844 249.167 96.3204 249.597 97.2891 250.456C98.2657 251.308 98.754 252.496 98.754 254.019C98.754 254.785 98.5079 255.507 98.0157 256.187C97.5313 256.859 96.9024 257.367 96.129 257.71C97.0665 258.031 97.7774 258.535 98.2618 259.222C98.754 259.91 99.0001 260.73 99.0001 261.683C99.0001 263.214 98.4727 264.433 97.418 265.339C96.3712 266.246 94.9923 266.699 93.2813 266.699C91.6407 266.699 90.2969 266.261 89.2501 265.386C88.2032 264.511 87.6798 263.347 87.6798 261.894H90.5274C90.5274 262.644 90.7774 263.253 91.2774 263.722C91.7852 264.191 92.4649 264.425 93.3165 264.425C94.1993 264.425 94.8946 264.191 95.4024 263.722C95.9102 263.253 96.1641 262.574 96.1641 261.683C96.1641 260.785 95.8985 260.093 95.3673 259.609C94.836 259.124 94.0469 258.882 93.0001 258.882H91.3243V256.632ZM102.434 258.003L103.359 249.402H112.524V251.863H105.727L105.258 255.941C106.047 255.488 106.938 255.261 107.93 255.261C109.555 255.261 110.816 255.781 111.715 256.82C112.621 257.859 113.074 259.257 113.074 261.015C113.074 262.749 112.574 264.132 111.574 265.164C110.574 266.187 109.203 266.699 107.461 266.699C105.899 266.699 104.602 266.257 103.57 265.374C102.547 264.484 101.992 263.312 101.906 261.859H104.66C104.77 262.687 105.066 263.324 105.551 263.769C106.035 264.206 106.668 264.425 107.449 264.425C108.324 264.425 109.004 264.113 109.488 263.488C109.981 262.863 110.227 262.011 110.227 260.933C110.227 259.894 109.957 259.074 109.418 258.472C108.879 257.863 108.137 257.558 107.191 257.558C106.676 257.558 106.238 257.628 105.879 257.769C105.52 257.902 105.129 258.167 104.707 258.566L102.434 258.003ZM115.195 252.683C115.195 251.652 115.527 250.808 116.191 250.152C116.856 249.488 117.727 249.156 118.805 249.156C119.899 249.156 120.774 249.488 121.43 250.152C122.094 250.808 122.426 251.671 122.426 252.742V253.585C122.426 254.609 122.094 255.449 121.43 256.105C120.774 256.761 119.906 257.089 118.828 257.089C117.774 257.089 116.902 256.769 116.215 256.128C115.535 255.48 115.195 254.609 115.195 253.515V252.683ZM117.188 253.585C117.188 254.124 117.336 254.562 117.633 254.898C117.938 255.226 118.336 255.39 118.828 255.39C119.313 255.39 119.703 255.226 120 254.898C120.297 254.562 120.445 254.109 120.445 253.539V252.683C120.445 252.144 120.293 251.706 119.988 251.371C119.691 251.035 119.297 250.867 118.805 250.867C118.313 250.867 117.918 251.039 117.621 251.382C117.332 251.718 117.188 252.164 117.188 252.718V253.585ZM123.399 262.281C123.399 261.234 123.738 260.386 124.418 259.738C125.098 259.089 125.965 258.765 127.02 258.765C128.082 258.765 128.949 259.089 129.621 259.738C130.301 260.386 130.641 261.261 130.641 262.363V263.195C130.641 264.21 130.313 265.05 129.656 265.714C129.008 266.371 128.137 266.699 127.043 266.699C125.949 266.699 125.066 266.374 124.395 265.726C123.731 265.07 123.399 264.206 123.399 263.136V262.281ZM125.391 263.195C125.391 263.726 125.543 264.164 125.848 264.507C126.16 264.843 126.559 265.011 127.043 265.011C127.543 265.011 127.934 264.851 128.215 264.531C128.504 264.203 128.649 263.746 128.649 263.16V262.281C128.649 261.734 128.496 261.296 128.191 260.968C127.887 260.64 127.496 260.476 127.02 260.476C126.535 260.476 126.141 260.64 125.836 260.968C125.539 261.296 125.391 261.749 125.391 262.328V263.195ZM119.414 265.187L117.949 264.343L126.281 251.007L127.746 251.851L119.414 265.187Z" fill="white"/>
</svg>
