<svg width="240" height="348" viewBox="0 0 240 348" fill="none" xmlns="http://www.w3.org/2000/svg">
<path d="M41.0482 340.464C40.6146 341.085 40.0082 341.551 39.2289 341.862C38.4554 342.166 37.5531 342.319 36.5218 342.319C35.4789 342.319 34.5531 342.075 33.7445 341.589C32.9359 341.097 32.3089 340.4 31.8636 339.497C31.4242 338.595 31.1986 337.549 31.1869 336.36V335.243C31.1869 333.316 31.6351 331.822 32.5316 330.761C33.4339 329.7 34.6996 329.17 36.3285 329.17C37.6644 329.17 38.7396 329.513 39.5541 330.199C40.3685 330.878 40.8666 331.845 41.0482 333.099H39.3607C39.0443 331.406 38.0365 330.559 36.3373 330.559C35.2064 330.559 34.348 330.957 33.7621 331.754C33.182 332.545 32.889 333.694 32.8832 335.199V336.245C32.8832 337.681 33.2113 338.824 33.8675 339.673C34.5238 340.517 35.4115 340.939 36.5306 340.939C37.1634 340.939 37.7171 340.868 38.1918 340.728C38.6664 340.587 39.0589 340.35 39.3695 340.016V337.142H36.4076V335.771H41.0482V340.464ZM49.4857 342.143C49.392 341.955 49.3158 341.621 49.2572 341.141C48.5013 341.926 47.599 342.319 46.5502 342.319C45.6127 342.319 44.8421 342.055 44.2386 341.528C43.641 340.994 43.3421 340.321 43.3421 339.506C43.3421 338.516 43.7171 337.748 44.4671 337.203C45.223 336.653 46.2836 336.377 47.6488 336.377H49.2308V335.63C49.2308 335.062 49.0609 334.611 48.7211 334.277C48.3812 333.937 47.8802 333.767 47.2181 333.767C46.638 333.767 46.1517 333.913 45.7591 334.206C45.3666 334.499 45.1703 334.854 45.1703 335.27H43.5355C43.5355 334.795 43.7025 334.338 44.0365 333.899C44.3763 333.453 44.8334 333.102 45.4076 332.844C45.9877 332.586 46.6234 332.457 47.3148 332.457C48.4105 332.457 49.2689 332.733 49.89 333.283C50.5111 333.828 50.8334 334.581 50.8568 335.542V339.919C50.8568 340.792 50.9681 341.487 51.1908 342.002V342.143H49.4857ZM46.7875 340.904C47.2972 340.904 47.7806 340.772 48.2377 340.508C48.6947 340.244 49.0257 339.902 49.2308 339.48V337.529H47.9564C45.9642 337.529 44.9681 338.112 44.9681 339.278C44.9681 339.787 45.138 340.186 45.4779 340.473C45.8177 340.76 46.2543 340.904 46.7875 340.904ZM58.9427 339.62C58.9427 339.181 58.7757 338.841 58.4418 338.601C58.1136 338.355 57.5365 338.144 56.7103 337.968C55.89 337.792 55.2367 337.581 54.7504 337.335C54.2699 337.089 53.9125 336.796 53.6781 336.456C53.4496 336.116 53.3353 335.712 53.3353 335.243C53.3353 334.464 53.6634 333.805 54.3197 333.266C54.9818 332.727 55.8255 332.457 56.8509 332.457C57.9291 332.457 58.8021 332.736 59.4701 333.292C60.1439 333.849 60.4808 334.561 60.4808 335.428H58.8461C58.8461 334.983 58.6556 334.599 58.2748 334.277C57.8998 333.954 57.4252 333.793 56.8509 333.793C56.2591 333.793 55.7962 333.922 55.4623 334.18C55.1283 334.438 54.9613 334.775 54.9613 335.191C54.9613 335.583 55.1166 335.879 55.4271 336.078C55.7377 336.278 56.2972 336.468 57.1058 336.65C57.9203 336.831 58.5795 337.048 59.0834 337.3C59.5873 337.552 59.9593 337.857 60.1996 338.214C60.4457 338.566 60.5687 338.996 60.5687 339.506C60.5687 340.356 60.2289 341.038 59.5492 341.554C58.8695 342.064 57.9877 342.319 56.9037 342.319C56.142 342.319 55.4681 342.184 54.8822 341.914C54.2962 341.645 53.8363 341.27 53.5023 340.789C53.1742 340.303 53.0101 339.779 53.0101 339.216H54.6361C54.6654 339.761 54.8822 340.195 55.2865 340.517C55.6966 340.833 56.2357 340.991 56.9037 340.991C57.5189 340.991 58.0111 340.868 58.3802 340.622C58.7552 340.37 58.9427 340.036 58.9427 339.62ZM64.8929 330.33V332.633H66.6683V333.89H64.8929V339.787C64.8929 340.168 64.972 340.455 65.1302 340.649C65.2884 340.836 65.558 340.93 65.9388 340.93C66.1263 340.93 66.3841 340.895 66.7123 340.824V342.143C66.2845 342.26 65.8685 342.319 65.4642 342.319C64.7377 342.319 64.1898 342.099 63.8207 341.659C63.4515 341.22 63.267 340.596 63.267 339.787V333.89H61.5355V332.633H63.267V330.33H64.8929ZM67.9691 337.3C67.9691 336.368 68.1507 335.531 68.514 334.786C68.8832 334.042 69.3929 333.468 70.0433 333.064C70.6996 332.659 71.4466 332.457 72.2845 332.457C73.5795 332.457 74.6254 332.906 75.4222 333.802C76.225 334.699 76.6263 335.891 76.6263 337.379V337.493C76.6263 338.419 76.4476 339.251 76.0902 339.99C75.7386 340.722 75.2318 341.293 74.5697 341.703C73.9134 342.114 73.1576 342.319 72.3021 342.319C71.013 342.319 69.9671 341.87 69.1644 340.974C68.3675 340.077 67.9691 338.891 67.9691 337.414V337.3ZM69.6039 337.493C69.6039 338.548 69.847 339.395 70.3334 340.033C70.8255 340.672 71.4818 340.991 72.3021 340.991C73.1283 340.991 73.7845 340.669 74.2709 340.025C74.7572 339.374 75.0004 338.466 75.0004 337.3C75.0004 336.257 74.7513 335.413 74.2533 334.769C73.7611 334.118 73.1048 333.793 72.2845 333.793C71.4818 333.793 70.8343 334.113 70.3421 334.751C69.85 335.39 69.6039 336.304 69.6039 337.493ZM84.2025 339.62C84.2025 339.181 84.0355 338.841 83.7015 338.601C83.3734 338.355 82.7962 338.144 81.9701 337.968C81.1498 337.792 80.4964 337.581 80.0101 337.335C79.5296 337.089 79.1722 336.796 78.9379 336.456C78.7093 336.116 78.5951 335.712 78.5951 335.243C78.5951 334.464 78.9232 333.805 79.5795 333.266C80.2416 332.727 81.0853 332.457 82.1107 332.457C83.1888 332.457 84.0619 332.736 84.7298 333.292C85.4037 333.849 85.7406 334.561 85.7406 335.428H84.1058C84.1058 334.983 83.9154 334.599 83.5345 334.277C83.1595 333.954 82.6849 333.793 82.1107 333.793C81.5189 333.793 81.056 333.922 80.722 334.18C80.388 334.438 80.2211 334.775 80.2211 335.191C80.2211 335.583 80.3763 335.879 80.6869 336.078C80.9974 336.278 81.557 336.468 82.3656 336.65C83.18 336.831 83.8392 337.048 84.3431 337.3C84.847 337.552 85.2191 337.857 85.4593 338.214C85.7054 338.566 85.8285 338.996 85.8285 339.506C85.8285 340.356 85.4886 341.038 84.8089 341.554C84.1293 342.064 83.2474 342.319 82.1634 342.319C81.4017 342.319 80.7279 342.184 80.142 341.914C79.556 341.645 79.0961 341.27 78.7621 340.789C78.4339 340.303 78.2699 339.779 78.2699 339.216H79.8959C79.9252 339.761 80.142 340.195 80.5462 340.517C80.9564 340.833 81.4955 340.991 82.1634 340.991C82.7787 340.991 83.2709 340.868 83.64 340.622C84.015 340.37 84.2025 340.036 84.2025 339.62ZM96.3578 342.319C95.0687 342.319 94.0199 341.897 93.2113 341.053C92.4027 340.203 91.9984 339.07 91.9984 337.652V337.353C91.9984 336.409 92.1771 335.569 92.5345 334.83C92.8978 334.086 93.4017 333.506 94.0462 333.09C94.6966 332.668 95.3998 332.457 96.1556 332.457C97.392 332.457 98.3529 332.865 99.0384 333.679C99.724 334.493 100.067 335.659 100.067 337.177V337.854H93.6244C93.6478 338.791 93.9203 339.55 94.4418 340.13C94.9691 340.704 95.6371 340.991 96.4457 340.991C97.0199 340.991 97.5062 340.874 97.9046 340.64C98.3031 340.406 98.6517 340.095 98.9505 339.708L99.9437 340.482C99.1468 341.706 97.9515 342.319 96.3578 342.319ZM96.1556 333.793C95.4994 333.793 94.9486 334.033 94.5033 334.514C94.058 334.989 93.7826 335.657 93.6771 336.518H98.4408V336.395C98.3939 335.569 98.1712 334.93 97.7728 334.479C97.3744 334.022 96.8353 333.793 96.1556 333.793ZM103.486 332.633L103.53 333.688C104.227 332.867 105.167 332.457 106.351 332.457C107.681 332.457 108.586 332.967 109.067 333.987C109.383 333.53 109.793 333.16 110.297 332.879C110.807 332.598 111.408 332.457 112.099 332.457C114.185 332.457 115.245 333.562 115.281 335.771V342.143H113.655V335.867C113.655 335.188 113.499 334.681 113.189 334.347C112.878 334.007 112.357 333.837 111.624 333.837C111.021 333.837 110.52 334.019 110.121 334.382C109.723 334.74 109.492 335.223 109.427 335.832V342.143H107.792V335.911C107.792 334.529 107.116 333.837 105.762 333.837C104.696 333.837 103.966 334.291 103.574 335.199V342.143H101.948V332.633H103.486ZM129.695 336.228H124.149V340.763H130.591V342.143H122.461V329.346H130.503V330.735H124.149V334.848H129.695V336.228ZM131.866 337.309C131.866 335.85 132.211 334.678 132.903 333.793C133.594 332.903 134.499 332.457 135.619 332.457C136.732 332.457 137.614 332.838 138.264 333.6V328.643H139.89V342.143H138.396L138.317 341.123C137.666 341.92 136.761 342.319 135.601 342.319C134.499 342.319 133.6 341.867 132.903 340.965C132.211 340.063 131.866 338.885 131.866 337.432V337.309ZM133.492 337.493C133.492 338.572 133.714 339.415 134.16 340.025C134.605 340.634 135.22 340.939 136.005 340.939C137.036 340.939 137.789 340.476 138.264 339.55V335.182C137.778 334.285 137.031 333.837 136.023 333.837C135.226 333.837 134.605 334.145 134.16 334.76C133.714 335.375 133.492 336.286 133.492 337.493ZM148.292 341.202C147.66 341.947 146.731 342.319 145.506 342.319C144.493 342.319 143.719 342.026 143.186 341.44C142.659 340.848 142.392 339.975 142.386 338.821V332.633H144.012V338.777C144.012 340.218 144.598 340.939 145.77 340.939C147.012 340.939 147.838 340.476 148.248 339.55V332.633H149.874V342.143H148.327L148.292 341.202ZM156.167 340.991C156.747 340.991 157.254 340.816 157.688 340.464C158.121 340.113 158.362 339.673 158.409 339.146H159.947C159.917 339.691 159.73 340.209 159.384 340.701C159.038 341.194 158.576 341.586 157.995 341.879C157.421 342.172 156.812 342.319 156.167 342.319C154.872 342.319 153.841 341.888 153.074 341.027C152.312 340.159 151.931 338.976 151.931 337.476V337.203C151.931 336.278 152.101 335.454 152.441 334.734C152.781 334.013 153.267 333.453 153.9 333.055C154.538 332.657 155.291 332.457 156.159 332.457C157.225 332.457 158.11 332.777 158.813 333.415C159.522 334.054 159.9 334.883 159.947 335.903H158.409C158.362 335.287 158.127 334.783 157.705 334.391C157.289 333.992 156.774 333.793 156.159 333.793C155.332 333.793 154.691 334.092 154.234 334.69C153.783 335.282 153.557 336.14 153.557 337.265V337.573C153.557 338.668 153.783 339.512 154.234 340.104C154.685 340.696 155.329 340.991 156.167 340.991ZM167.646 342.143C167.552 341.955 167.476 341.621 167.417 341.141C166.661 341.926 165.759 342.319 164.71 342.319C163.773 342.319 163.002 342.055 162.399 341.528C161.801 340.994 161.502 340.321 161.502 339.506C161.502 338.516 161.877 337.748 162.627 337.203C163.383 336.653 164.444 336.377 165.809 336.377H167.391V335.63C167.391 335.062 167.221 334.611 166.881 334.277C166.541 333.937 166.04 333.767 165.378 333.767C164.798 333.767 164.312 333.913 163.919 334.206C163.527 334.499 163.33 334.854 163.33 335.27H161.696C161.696 334.795 161.863 334.338 162.197 333.899C162.536 333.453 162.994 333.102 163.568 332.844C164.148 332.586 164.784 332.457 165.475 332.457C166.571 332.457 167.429 332.733 168.05 333.283C168.671 333.828 168.994 334.581 169.017 335.542V339.919C169.017 340.792 169.128 341.487 169.351 342.002V342.143H167.646ZM164.948 340.904C165.457 340.904 165.941 340.772 166.398 340.508C166.855 340.244 167.186 339.902 167.391 339.48V337.529H166.117C164.124 337.529 163.128 338.112 163.128 339.278C163.128 339.787 163.298 340.186 163.638 340.473C163.978 340.76 164.414 340.904 164.948 340.904ZM175.38 340.991C175.96 340.991 176.467 340.816 176.901 340.464C177.334 340.113 177.575 339.673 177.621 339.146H179.16C179.13 339.691 178.943 340.209 178.597 340.701C178.251 341.194 177.788 341.586 177.208 341.879C176.634 342.172 176.025 342.319 175.38 342.319C174.085 342.319 173.054 341.888 172.286 341.027C171.525 340.159 171.144 338.976 171.144 337.476V337.203C171.144 336.278 171.314 335.454 171.654 334.734C171.994 334.013 172.48 333.453 173.113 333.055C173.751 332.657 174.504 332.457 175.371 332.457C176.438 332.457 177.323 332.777 178.026 333.415C178.735 334.054 179.113 334.883 179.16 335.903H177.621C177.575 335.287 177.34 334.783 176.918 334.391C176.502 333.992 175.987 333.793 175.371 333.793C174.545 333.793 173.904 334.092 173.447 334.69C172.995 335.282 172.77 336.14 172.77 337.265V337.573C172.77 338.668 172.995 339.512 173.447 340.104C173.898 340.696 174.542 340.991 175.38 340.991ZM175.644 342.222L175.538 342.679C176.435 342.837 176.883 343.344 176.883 344.199C176.883 344.768 176.649 345.216 176.18 345.544C175.711 345.878 175.058 346.045 174.22 346.045L174.159 345.105C174.621 345.105 174.979 345.029 175.231 344.876C175.489 344.724 175.618 344.51 175.618 344.235C175.618 343.977 175.524 343.786 175.336 343.663C175.149 343.54 174.768 343.452 174.194 343.4L174.475 342.222H175.644ZM186.859 342.143C186.765 341.955 186.689 341.621 186.63 341.141C185.874 341.926 184.972 342.319 183.923 342.319C182.986 342.319 182.215 342.055 181.612 341.528C181.014 340.994 180.715 340.321 180.715 339.506C180.715 338.516 181.09 337.748 181.84 337.203C182.596 336.653 183.657 336.377 185.022 336.377H186.604V335.63C186.604 335.062 186.434 334.611 186.094 334.277C185.754 333.937 185.253 333.767 184.591 333.767C184.011 333.767 183.525 333.913 183.132 334.206C182.74 334.499 182.543 334.854 182.543 335.27H180.909C180.909 334.795 181.076 334.338 181.41 333.899C181.749 333.453 182.206 333.102 182.781 332.844C183.361 332.586 183.996 332.457 184.688 332.457C185.784 332.457 186.642 332.733 187.263 333.283C187.884 333.828 188.206 334.581 188.23 335.542V339.919C188.23 340.792 188.341 341.487 188.564 342.002V342.143H186.859ZM184.161 340.904C184.67 340.904 185.154 340.772 185.611 340.508C186.068 340.244 186.399 339.902 186.604 339.48V337.529H185.329C183.337 337.529 182.341 338.112 182.341 339.278C182.341 339.787 182.511 340.186 182.851 340.473C183.191 340.76 183.627 340.904 184.161 340.904ZM187.984 328.924C187.984 329.557 187.802 330.07 187.439 330.462C187.081 330.855 186.633 331.051 186.094 331.051C185.854 331.051 185.646 331.022 185.47 330.963C185.294 330.905 185.063 330.784 184.776 330.603C184.494 330.421 184.289 330.313 184.161 330.278C184.037 330.237 183.894 330.216 183.73 330.216C183.49 330.216 183.285 330.31 183.115 330.497C182.945 330.679 182.86 330.913 182.86 331.2L181.77 331.139C181.77 330.512 181.946 329.993 182.297 329.583C182.655 329.173 183.106 328.968 183.651 328.968C183.856 328.968 184.04 328.997 184.204 329.056C184.369 329.115 184.591 329.229 184.872 329.399C185.154 329.569 185.368 329.68 185.514 329.733C185.666 329.785 185.833 329.812 186.015 329.812C186.267 329.812 186.475 329.712 186.639 329.513C186.809 329.314 186.894 329.082 186.894 328.819L187.984 328.924ZM190.348 337.3C190.348 336.368 190.53 335.531 190.893 334.786C191.262 334.042 191.772 333.468 192.422 333.064C193.078 332.659 193.826 332.457 194.663 332.457C195.958 332.457 197.004 332.906 197.801 333.802C198.604 334.699 199.005 335.891 199.005 337.379V337.493C199.005 338.419 198.827 339.251 198.469 339.99C198.118 340.722 197.611 341.293 196.949 341.703C196.292 342.114 195.536 342.319 194.681 342.319C193.392 342.319 192.346 341.87 191.543 340.974C190.746 340.077 190.348 338.891 190.348 337.414V337.3ZM191.983 337.493C191.983 338.548 192.226 339.395 192.712 340.033C193.204 340.672 193.861 340.991 194.681 340.991C195.507 340.991 196.163 340.669 196.65 340.025C197.136 339.374 197.379 338.466 197.379 337.3C197.379 336.257 197.13 335.413 196.632 334.769C196.14 334.118 195.484 333.793 194.663 333.793C193.861 333.793 193.213 334.113 192.721 334.751C192.229 335.39 191.983 336.304 191.983 337.493Z" fill="#E1A508"/>
<ellipse rx="50.4911" ry="48.1607" transform="matrix(-1 0 0 1 107.973 257.893)" fill="#C4C4C4"/>
<rect width="46.6071" height="250.125" rx="23.3036" transform="matrix(-1 0 0 1 132.053 0)" fill="#C4C4C4"/>
<ellipse rx="50.4911" ry="48.1607" transform="matrix(-1 0 0 1 107.973 257.893)" fill="#EFC047"/>
<rect width="46.6071" height="96.3214" transform="matrix(-1 0 0 1 132.053 153.804)" fill="#EFC047"/>
<line x1="104.643" y1="38.2857" x2="86.4462" y2="38.2857" stroke="#787878" stroke-width="2" stroke-linecap="round"/>
<line x1="104.643" y1="47.6071" x2="86.4462" y2="47.6071" stroke="#787878" stroke-width="2" stroke-linecap="round"/>
<line x1="113.964" y1="56.9286" x2="86.4465" y2="56.9286" stroke="#787878" stroke-width="2" stroke-linecap="round"/>
<line x1="104.643" y1="64.6964" x2="86.4462" y2="64.6964" stroke="#787878" stroke-width="2" stroke-linecap="round"/>
<line x1="104.643" y1="74.0179" x2="86.4462" y2="74.0179" stroke="#787878" stroke-width="2" stroke-linecap="round"/>
<line x1="113.964" y1="83.3393" x2="86.4465" y2="83.3393" stroke="#787878" stroke-width="2" stroke-linecap="round"/>
<line x1="104.643" y1="91.1071" x2="86.4462" y2="91.1071" stroke="#787878" stroke-width="2" stroke-linecap="round"/>
<line x1="104.643" y1="100.429" x2="86.4462" y2="100.429" stroke="#787878" stroke-width="2" stroke-linecap="round"/>
<line x1="113.964" y1="109.75" x2="86.4465" y2="109.75" stroke="#787878" stroke-width="2" stroke-linecap="round"/>
<line x1="104.643" y1="145.482" x2="86.4462" y2="145.482" stroke="#787878" stroke-width="2" stroke-linecap="round"/>
<line x1="104.643" y1="119.071" x2="86.4462" y2="119.071" stroke="#787878" stroke-width="2" stroke-linecap="round"/>
<line x1="113.964" y1="128.393" x2="86.4465" y2="128.393" stroke="#787878" stroke-width="2" stroke-linecap="round"/>
<line x1="113.964" y1="137.714" x2="86.4465" y2="137.714" stroke="#787878" stroke-width="2" stroke-linecap="round"/>
<line x1="104.643" y1="154.804" x2="86.4462" y2="154.804" stroke="#787878" stroke-width="2" stroke-linecap="round"/>
<line x1="113.964" y1="164.125" x2="86.4465" y2="164.125" stroke="#787878" stroke-width="2" stroke-linecap="round"/>
<line x1="104.643" y1="198.304" x2="86.4462" y2="198.304" stroke="#787878" stroke-width="2" stroke-linecap="round"/>
<line x1="104.643" y1="171.893" x2="86.4462" y2="171.893" stroke="#787878" stroke-width="2" stroke-linecap="round"/>
<line x1="113.964" y1="181.214" x2="86.4465" y2="181.214" stroke="#787878" stroke-width="2" stroke-linecap="round"/>
<line x1="113.964" y1="190.536" x2="86.4465" y2="190.536" stroke="#787878" stroke-width="2" stroke-linecap="round"/>
<line x1="104.643" y1="207.625" x2="86.4462" y2="207.625" stroke="#787878" stroke-width="2" stroke-linecap="round"/>
<path d="M33.6464 258.354C33.8417 258.549 34.1583 258.549 34.3536 258.354L37.5355 255.172C37.7308 254.976 37.7308 254.66 37.5355 254.464C37.3403 254.269 37.0237 254.269 36.8284 254.464L34 257.293L31.1716 254.464C30.9763 254.269 30.6597 254.269 30.4645 254.464C30.2692 254.66 30.2692 254.976 30.4645 255.172L33.6464 258.354ZM34.5 258L34.5 257L33.5 257L33.5 258L34.5 258ZM34.5 255L34.5 253L33.5 253L33.5 255L34.5 255ZM34.5 251L34.5 249L33.5 249L33.5 251L34.5 251ZM34.5 247L34.5 245L33.5 245L33.5 247L34.5 247ZM34.5 243L34.5 241L33.5 241L33.5 243L34.5 243ZM34.5 239L34.5 237L33.5 237L33.5 239L34.5 239ZM34.5 235L34.5 233L33.5 233L33.5 235L34.5 235ZM34.5 231L34.5 229L33.5 229L33.5 231L34.5 231ZM34.5 227L34.5 225L33.5 225L33.5 227L34.5 227ZM34.5 223L34.5 221L33.5 221L33.5 223L34.5 223ZM34.5 219L34.5 217L33.5 217L33.5 219L34.5 219ZM34.5 215L34.5 213L33.5 213L33.5 215L34.5 215ZM34.5 211L34.5 209L33.5 209L33.5 211L34.5 211ZM34.5 207L34.5 205L33.5 205L33.5 207L34.5 207ZM34.5 203L34.5 201L33.5 201L33.5 203L34.5 203ZM34.5 199L34.5 197L33.5 197L33.5 199L34.5 199ZM34.5 195L34.5 193L33.5 193L33.5 195L34.5 195ZM34.5 191L34.5 189L33.5 189L33.5 191L34.5 191ZM34.5 187L34.5 185L33.5 185L33.5 187L34.5 187ZM34.5 183L34.5 181L33.5 181L33.5 183L34.5 183ZM34.5 179L34.5 177L33.5 177L33.5 179L34.5 179ZM34.5 175L34.5 173L33.5 173L33.5 175L34.5 175ZM34.5 171L34.5 169L33.5 169L33.5 171L34.5 171ZM34.5 167L34.5 165L33.5 165L33.5 167L34.5 167ZM34.5 163L34.5 161L33.5 161L33.5 163L34.5 163ZM34.5 159L34.5 157L33.5 157L33.5 159L34.5 159ZM34.5 155L34.5 154L33.5 154L33.5 155L34.5 155Z" fill="#579EA8"/>
<path d="M222.345 156.766C223.32 156.766 224.172 156.93 224.901 157.258C225.626 157.586 226.18 158.051 226.562 158.652C226.945 159.254 227.137 159.956 227.137 160.758C227.137 161.542 226.945 162.237 226.562 162.843C226.175 163.449 225.626 163.921 224.915 164.258C224.2 164.59 223.372 164.761 222.434 164.771L221.716 164.771C220.759 164.771 219.913 164.604 219.18 164.271C218.446 163.939 217.885 163.469 217.498 162.863C217.106 162.253 216.91 161.555 216.91 160.771C216.91 159.974 217.104 159.272 217.491 158.666C217.874 158.055 218.432 157.586 219.166 157.258C219.895 156.93 220.745 156.766 221.716 156.766L222.345 156.766ZM221.702 158.071C220.522 158.071 219.617 158.308 218.988 158.782C218.355 159.256 218.038 159.919 218.038 160.771C218.038 161.601 218.355 162.255 218.988 162.733C219.617 163.207 220.492 163.451 221.613 163.465L222.345 163.465C223.489 163.465 224.389 163.226 225.045 162.747C225.697 162.264 226.022 161.601 226.022 160.758C226.022 159.91 225.715 159.254 225.1 158.789C224.48 158.324 223.593 158.085 222.44 158.071L221.702 158.071ZM220.738 151.42C220.706 151.611 220.69 151.819 220.69 152.042C220.69 152.871 221.044 153.434 221.75 153.73L227 153.73L227 154.995L219.604 154.995L219.604 153.765L220.458 153.744C219.797 153.329 219.467 152.742 219.467 151.98C219.467 151.734 219.499 151.548 219.562 151.42L220.738 151.42ZM226.104 147.421C226.104 146.97 225.968 146.576 225.694 146.238C225.421 145.901 225.079 145.714 224.669 145.678L224.669 144.481C225.093 144.504 225.496 144.65 225.879 144.919C226.262 145.188 226.567 145.548 226.795 145.999C227.023 146.446 227.137 146.92 227.137 147.421C227.137 148.428 226.802 149.23 226.132 149.827C225.457 150.42 224.537 150.716 223.37 150.716L223.158 150.716C222.438 150.716 221.798 150.584 221.237 150.319C220.677 150.055 220.242 149.677 219.932 149.185C219.622 148.688 219.467 148.102 219.467 147.428C219.467 146.598 219.715 145.91 220.212 145.363C220.709 144.812 221.354 144.518 222.146 144.481L222.146 145.678C221.668 145.714 221.276 145.896 220.971 146.225C220.661 146.548 220.506 146.949 220.506 147.428C220.506 148.07 220.738 148.569 221.203 148.925C221.663 149.276 222.331 149.451 223.206 149.451L223.445 149.451C224.298 149.451 224.954 149.276 225.414 148.925C225.874 148.574 226.104 148.073 226.104 147.421ZM227.062 147.216L227.417 147.298C227.54 146.601 227.934 146.252 228.6 146.252C229.042 146.252 229.39 146.434 229.646 146.799C229.905 147.163 230.035 147.672 230.035 148.323L229.304 148.371C229.304 148.011 229.244 147.733 229.126 147.537C229.007 147.337 228.841 147.236 228.627 147.236C228.426 147.236 228.278 147.309 228.183 147.455C228.087 147.601 228.019 147.897 227.978 148.344L227.062 148.125L227.062 147.216ZM227 138.493C226.854 138.566 226.594 138.625 226.221 138.671C226.831 139.259 227.137 139.961 227.137 140.776C227.137 141.506 226.932 142.105 226.521 142.574C226.107 143.039 225.583 143.271 224.949 143.271C224.179 143.271 223.582 142.98 223.158 142.396C222.73 141.809 222.516 140.984 222.516 139.922L222.516 138.691L221.935 138.691C221.493 138.691 221.142 138.824 220.882 139.088C220.618 139.352 220.485 139.742 220.485 140.257C220.485 140.708 220.599 141.086 220.827 141.392C221.055 141.697 221.331 141.85 221.654 141.85L221.654 143.121C221.285 143.121 220.93 142.991 220.588 142.731C220.242 142.467 219.968 142.112 219.768 141.665C219.567 141.214 219.467 140.719 219.467 140.182C219.467 139.329 219.681 138.662 220.109 138.179C220.533 137.696 221.119 137.445 221.866 137.427L225.271 137.427C225.95 137.427 226.49 137.34 226.891 137.167L227 137.167L227 138.493ZM226.036 140.592C226.036 140.195 225.934 139.819 225.729 139.464C225.523 139.108 225.257 138.851 224.929 138.691L223.411 138.691L223.411 139.683C223.411 141.232 223.865 142.007 224.771 142.007C225.168 142.007 225.478 141.875 225.701 141.61C225.924 141.346 226.036 141.007 226.036 140.592ZM219.604 134.255L220.424 134.221C219.786 133.678 219.467 132.947 219.467 132.026C219.467 130.992 219.863 130.288 220.656 129.914C220.301 129.668 220.014 129.349 219.795 128.957C219.576 128.561 219.467 128.093 219.467 127.556C219.467 125.933 220.326 125.108 222.044 125.081L227 125.081L227 126.346L222.119 126.346C221.59 126.346 221.196 126.466 220.937 126.708C220.672 126.95 220.54 127.355 220.54 127.925C220.54 128.394 220.681 128.784 220.964 129.094C221.242 129.404 221.618 129.584 222.092 129.634L227 129.634L227 130.905L222.153 130.905C221.078 130.905 220.54 131.432 220.54 132.484C220.54 133.314 220.893 133.881 221.6 134.187L227 134.187L227 135.451L219.604 135.451L219.604 134.255ZM227.137 120.098C227.137 121.1 226.809 121.916 226.152 122.545C225.492 123.174 224.61 123.488 223.507 123.488L223.274 123.488C222.541 123.488 221.887 123.349 221.312 123.071C220.734 122.789 220.283 122.397 219.959 121.896C219.631 121.39 219.467 120.843 219.467 120.255C219.467 119.293 219.784 118.546 220.417 118.013C221.05 117.479 221.957 117.213 223.138 117.213L223.664 117.213L223.664 122.224C224.393 122.205 224.983 121.993 225.435 121.588C225.881 121.178 226.104 120.658 226.104 120.029C226.104 119.583 226.013 119.204 225.831 118.895C225.649 118.585 225.407 118.313 225.106 118.081L225.708 117.309C226.66 117.928 227.137 118.858 227.137 120.098ZM220.506 120.255C220.506 120.765 220.693 121.194 221.066 121.54C221.436 121.886 221.955 122.101 222.625 122.183L222.625 118.478L222.529 118.478C221.887 118.514 221.39 118.687 221.039 118.997C220.684 119.307 220.506 119.726 220.506 120.255ZM219.604 114.547L220.533 114.506C219.822 113.941 219.467 113.202 219.467 112.291C219.467 110.728 220.349 109.939 222.112 109.926L227 109.926L227 111.19L222.105 111.19C221.572 111.195 221.178 111.318 220.923 111.56C220.668 111.797 220.54 112.168 220.54 112.674C220.54 113.084 220.649 113.444 220.868 113.754C221.087 114.064 221.374 114.305 221.729 114.479L227 114.479L227 115.743L219.604 115.743L219.604 114.547ZM217.812 106.303L219.604 106.303L219.604 104.922L220.581 104.922L220.581 106.303L225.168 106.303C225.464 106.303 225.687 106.241 225.838 106.118C225.984 105.995 226.057 105.785 226.057 105.489C226.057 105.343 226.029 105.143 225.975 104.888L227 104.888C227.091 105.22 227.137 105.544 227.137 105.858C227.137 106.424 226.966 106.85 226.624 107.137C226.282 107.424 225.797 107.567 225.168 107.567L220.581 107.567L220.581 108.914L219.604 108.914L219.604 107.567L217.812 107.567L217.812 106.303ZM223.233 103.91C222.509 103.91 221.857 103.769 221.278 103.486C220.7 103.199 220.253 102.803 219.938 102.297C219.624 101.786 219.467 101.205 219.467 100.554C219.467 99.5465 219.815 98.7331 220.513 98.1133C221.21 97.4889 222.137 97.1768 223.295 97.1768L223.384 97.1768C224.104 97.1768 224.751 97.3158 225.325 97.5937C225.895 97.8672 226.339 98.2614 226.658 98.7764C226.977 99.2868 227.137 99.8747 227.137 100.54C227.137 101.543 226.788 102.356 226.091 102.98C225.394 103.6 224.471 103.91 223.322 103.91L223.233 103.91ZM223.384 102.639C224.204 102.639 224.863 102.45 225.359 102.071C225.856 101.688 226.104 101.178 226.104 100.54C226.104 99.8975 225.854 99.387 225.353 99.0088C224.847 98.6305 224.14 98.4414 223.233 98.4414C222.422 98.4414 221.766 98.6351 221.265 99.0225C220.759 99.4053 220.506 99.9157 220.506 100.554C220.506 101.178 220.754 101.682 221.251 102.064C221.748 102.447 222.459 102.639 223.384 102.639Z" fill="#787878"/>
<path d="M205.072 3.10712L205.072 257.893M204.149 3.10712L175.554 3.10712M204.149 257.893H175.554" stroke="#E0E0E0" stroke-width="2" stroke-linecap="round"/>
<path d="M8.46875 233.9L15.998 230.753L8.46875 227.595L8.46875 226.634L17 226.634L17 227.355L13.2852 227.355L9.47656 227.296L17 230.472L17 231.029L9.50586 234.193L13.2617 234.134L17 234.134L17 234.855L8.46875 234.855L8.46875 233.9ZM17 223.863L17 224.566L10.6602 224.566L10.6602 223.863L17 223.863ZM8.07031 223.499L8.07031 222.65L9.71094 224.003L9.71094 224.619L8.07031 223.499ZM10.6602 221.296L11.7441 221.273C11.3535 221.035 11.0566 220.738 10.8535 220.382C10.6465 220.027 10.543 219.634 10.543 219.205C10.543 218.525 10.7344 218.019 11.1172 217.687C11.5 217.355 12.0742 217.187 12.8398 217.183L17 217.183L17 217.88L12.834 217.88C12.2676 217.884 11.8457 218.005 11.5684 218.244C11.291 218.478 11.1523 218.855 11.1523 219.374C11.1523 219.808 11.2891 220.193 11.5625 220.529C11.832 220.861 12.1973 221.107 12.6582 221.267L17 221.267L17 221.964L10.6602 221.964L10.6602 221.296ZM17 214.581L17 215.285L10.6602 215.285L10.6602 214.581L17 214.581ZM8.82617 215.408C8.69336 215.408 8.58203 215.365 8.49219 215.279C8.39844 215.193 8.35156 215.076 8.35156 214.927C8.35156 214.779 8.39844 214.662 8.49219 214.576C8.58203 214.486 8.69336 214.441 8.82617 214.441C8.95898 214.441 9.07031 214.486 9.16015 214.576C9.25 214.662 9.29492 214.779 9.29492 214.927C9.29492 215.076 9.25 215.193 9.16015 215.279C9.07031 215.365 8.95898 215.408 8.82617 215.408ZM10.6602 212.033L11.6914 212.009C11.3086 211.775 11.0215 211.482 10.8301 211.13C10.6387 210.779 10.543 210.388 10.543 209.958C10.543 208.958 10.9531 208.324 11.7734 208.054C11.3789 207.828 11.0762 207.525 10.8652 207.146C10.6504 206.767 10.543 206.349 10.543 205.892C10.543 204.533 11.2852 203.839 12.7695 203.812L17 203.812L17 204.515L12.8223 204.515C12.2559 204.519 11.8359 204.642 11.5625 204.884C11.2891 205.123 11.1523 205.513 11.1523 206.056C11.1602 206.56 11.3242 206.986 11.6445 207.333C11.9609 207.681 12.3477 207.874 12.8047 207.914L17 207.914L17 208.617L12.7695 208.617C12.2266 208.621 11.8223 208.749 11.5566 209.003C11.2871 209.253 11.1523 209.64 11.1523 210.164C11.1523 210.605 11.2793 210.984 11.5332 211.3C11.7832 211.617 12.1562 211.851 12.6523 212.003L17 212.003L17 212.706L10.6602 212.706L10.6602 212.033ZM13.7363 202.417C13.127 202.417 12.5781 202.3 12.0898 202.066C11.6016 201.828 11.2227 201.494 10.9531 201.064C10.6797 200.63 10.543 200.14 10.543 199.593C10.543 198.749 10.8398 198.066 11.4336 197.542C12.0234 197.019 12.8066 196.757 13.7832 196.757L13.9297 196.757C14.543 196.757 15.0957 196.876 15.5879 197.115C16.0762 197.349 16.4531 197.681 16.7187 198.111C16.9844 198.54 17.1172 199.031 17.1172 199.581C17.1172 200.421 16.8223 201.105 16.2324 201.632C15.6387 202.156 14.8535 202.417 13.877 202.417L13.7363 202.417ZM13.9297 201.714C14.6875 201.714 15.3105 201.519 15.7988 201.128C16.2832 200.734 16.5254 200.218 16.5254 199.581C16.5254 198.949 16.2832 198.437 15.7988 198.046C15.3105 197.652 14.668 197.455 13.8711 197.455L13.7363 197.455C13.252 197.455 12.8086 197.544 12.4062 197.724C12.0039 197.904 11.6934 198.156 11.4746 198.48C11.252 198.804 11.1406 199.175 11.1406 199.593C11.1406 200.218 11.3867 200.728 11.8789 201.123C12.3672 201.517 13.0078 201.714 13.8008 201.714L13.9297 201.714ZM17 191.601L17 192.304L8 192.304L8 191.601L17 191.601ZM17.1172 187.236C17.1172 187.775 16.9844 188.263 16.7187 188.701C16.4531 189.134 16.084 189.472 15.6113 189.714C15.1348 189.956 14.6016 190.078 14.0117 190.078L13.7598 190.078C13.1504 190.078 12.6016 189.96 12.1133 189.726C11.625 189.488 11.2422 189.158 10.9648 188.736C10.6836 188.314 10.543 187.857 10.543 187.365C10.543 186.595 10.8066 185.986 11.334 185.537C11.8574 185.083 12.5742 184.857 13.4844 184.857L13.877 184.857L13.877 189.38L14.0117 189.38C14.7305 189.38 15.3301 189.175 15.8105 188.765C16.2871 188.351 16.5254 187.831 16.5254 187.206C16.5254 186.831 16.457 186.501 16.3203 186.216C16.1836 185.927 15.9648 185.665 15.6641 185.431L15.998 184.992C16.7441 185.507 17.1172 186.255 17.1172 187.236ZM11.1406 187.365C11.1406 187.892 11.334 188.337 11.7207 188.701C12.1074 189.06 12.627 189.279 13.2793 189.357L13.2793 185.554L13.2031 185.554C12.5937 185.574 12.0977 185.748 11.7148 186.076C11.332 186.404 11.1406 186.833 11.1406 187.365ZM13.7715 183.773C12.7793 183.773 11.9941 183.554 11.416 183.117C10.834 182.675 10.543 182.078 10.543 181.324C10.543 180.46 10.8867 179.804 11.5742 179.355L10.6602 179.32L10.6602 178.664L16.8711 178.664C17.6875 178.664 18.334 178.892 18.8105 179.349C19.2871 179.806 19.5254 180.425 19.5254 181.206C19.5254 181.648 19.4258 182.07 19.2266 182.472C19.0312 182.871 18.7695 183.185 18.4414 183.415L18.0195 183.023C18.6289 182.527 18.9336 181.937 18.9336 181.253C18.9336 180.667 18.7598 180.21 18.4121 179.882C18.0684 179.554 17.5898 179.384 16.9766 179.373L16.1797 179.373C16.8047 179.822 17.1172 180.476 17.1172 181.335C17.1172 182.07 16.8242 182.66 16.2383 183.105C15.6523 183.55 14.8613 183.773 13.8652 183.773L13.7715 183.773ZM13.8945 183.064C14.7031 183.064 15.3418 182.902 15.8105 182.578C16.2754 182.253 16.5078 181.796 16.5078 181.206C16.5078 180.343 16.1211 179.732 15.3477 179.373L12.4004 179.373C11.9941 179.537 11.6855 179.773 11.4746 180.081C11.2598 180.39 11.1523 180.761 11.1523 181.195C11.1523 181.785 11.3848 182.244 11.8496 182.572C12.3105 182.9 12.9922 183.064 13.8945 183.064ZM17 172.833C16.8008 172.904 16.5059 172.949 16.1152 172.968C16.4355 173.214 16.6836 173.529 16.8594 173.912C17.0312 174.29 17.1172 174.693 17.1172 175.119C17.1172 175.728 16.9473 176.222 16.6074 176.601C16.2676 176.976 15.8379 177.164 15.3184 177.164C14.7012 177.164 14.2129 176.908 13.8535 176.396C13.4941 175.88 13.3145 175.164 13.3144 174.246L13.3144 172.974L12.5937 172.974C12.1406 172.974 11.7852 173.115 11.5273 173.396C11.2656 173.673 11.1348 174.08 11.1348 174.615C11.1348 175.103 11.2598 175.507 11.5098 175.828C11.7598 176.148 12.0605 176.308 12.4121 176.308L12.4062 177.011C11.9023 177.011 11.4668 176.777 11.0996 176.308C10.7285 175.839 10.543 175.263 10.543 174.58C10.543 173.873 10.7207 173.316 11.0762 172.91C11.4277 172.499 11.9199 172.289 12.5527 172.277L15.5527 172.277C16.166 172.277 16.625 172.212 16.9297 172.083L17 172.083L17 172.833ZM16.4961 175.037C16.4961 174.568 16.3828 174.15 16.1562 173.783C15.9297 173.412 15.6269 173.142 15.248 172.974L13.8535 172.974L13.8535 174.228C13.8613 174.927 13.9902 175.474 14.2402 175.869C14.4863 176.263 14.8262 176.46 15.2598 176.46C15.6152 176.46 15.9102 176.33 16.1445 176.068C16.3789 175.802 16.4961 175.458 16.4961 175.037ZM17 169.617L17 170.32L8 170.32L8 169.617L17 169.617Z" fill="#579EA8"/>
<path d="M29.082 147H21.0664V146.191L25.4521 141.217C26.1787 140.379 26.6826 139.688 26.9639 139.143C27.2451 138.598 27.3857 138.067 27.3857 137.552C27.3857 136.743 27.1484 136.104 26.6738 135.636C26.1992 135.161 25.5459 134.924 24.7139 134.924C23.8525 134.924 23.1553 135.199 22.6221 135.75C22.0947 136.301 21.8311 137.016 21.8311 137.895H20.7852C20.7852 137.174 20.9463 136.518 21.2686 135.926C21.5967 135.334 22.0596 134.871 22.6572 134.537C23.2607 134.197 23.9463 134.027 24.7139 134.027C25.8857 134.027 26.7998 134.335 27.4561 134.95C28.1182 135.565 28.4492 136.403 28.4492 137.464C28.4492 138.062 28.2617 138.715 27.8867 139.424C27.5176 140.133 26.8643 141.018 25.9268 142.078L22.3584 146.112H29.082V147ZM31.7627 140.443L32.3867 134.203H38.7852V135.179H33.292L32.8438 139.503C33.5293 139.034 34.332 138.8 35.252 138.8C36.4062 138.8 37.3262 139.175 38.0117 139.925C38.6973 140.675 39.04 141.674 39.04 142.922C39.04 144.27 38.7061 145.315 38.0381 146.06C37.3701 146.804 36.4297 147.176 35.2168 147.176C34.1035 147.176 33.2012 146.865 32.5098 146.244C31.8184 145.623 31.4229 144.753 31.3232 143.634H32.334C32.4336 144.507 32.7295 145.169 33.2217 145.62C33.7139 146.065 34.3789 146.288 35.2168 146.288C36.1309 146.288 36.8193 145.998 37.2822 145.418C37.751 144.838 37.9854 144.012 37.9854 142.939C37.9854 142.002 37.7246 141.237 37.2031 140.646C36.6816 140.054 35.9697 139.758 35.0674 139.758C34.5693 139.758 34.1357 139.822 33.7666 139.951C33.3975 140.074 33.0078 140.317 32.5977 140.681L31.7627 140.443ZM40.7891 136.664C40.7891 135.902 41.0234 135.272 41.4922 134.774C41.9668 134.271 42.5674 134.019 43.2939 134.019C44.0205 134.019 44.6182 134.271 45.0869 134.774C45.5615 135.272 45.7988 135.92 45.7988 136.717V137.341C45.7988 138.091 45.5645 138.718 45.0957 139.222C44.6328 139.72 44.0381 139.969 43.3115 139.969C42.5908 139.969 41.9902 139.723 41.5098 139.23C41.0293 138.738 40.7891 138.088 40.7891 137.279V136.664ZM41.6416 137.341C41.6416 137.886 41.791 138.334 42.0898 138.686C42.3945 139.037 42.8018 139.213 43.3115 139.213C43.8096 139.213 44.2051 139.037 44.498 138.686C44.7969 138.328 44.9463 137.868 44.9463 137.306V136.664C44.9463 136.119 44.7939 135.671 44.4893 135.319C44.1846 134.962 43.7861 134.783 43.2939 134.783C42.8076 134.783 42.4092 134.959 42.0986 135.311C41.7939 135.662 41.6416 136.131 41.6416 136.717V137.341ZM47.2314 143.862C47.2314 143.101 47.4658 142.471 47.9346 141.973C48.4092 141.475 49.0068 141.226 49.7275 141.226C50.4482 141.226 51.0459 141.475 51.5205 141.973C52.001 142.465 52.2412 143.115 52.2412 143.924V144.548C52.2412 145.31 52.0039 145.939 51.5293 146.438C51.0605 146.936 50.4658 147.185 49.7451 147.185C49.0244 147.185 48.4238 146.938 47.9434 146.446C47.4688 145.948 47.2314 145.301 47.2314 144.504V143.862ZM48.0752 144.548C48.0752 145.099 48.2246 145.55 48.5234 145.901C48.8281 146.253 49.2354 146.429 49.7451 146.429C50.249 146.429 50.6475 146.253 50.9404 145.901C51.2393 145.544 51.3887 145.078 51.3887 144.504V143.862C51.3887 143.3 51.2363 142.849 50.9316 142.509C50.6328 142.163 50.2314 141.99 49.7275 141.99C49.2354 141.99 48.8369 142.163 48.5322 142.509C48.2275 142.854 48.0752 143.317 48.0752 143.897V144.548ZM43.6455 145.937L42.9863 145.515L49.2354 135.513L49.8945 135.935L43.6455 145.937Z" fill="#579EA8"/>
<path d="M89.5899 266.464H78.1173V264.507L83.8008 258.308C84.6212 257.394 85.2032 256.632 85.5469 256.023C85.8985 255.406 86.0743 254.789 86.0743 254.171C86.0743 253.359 85.8438 252.703 85.3829 252.203C84.9298 251.703 84.3165 251.453 83.543 251.453C82.6212 251.453 81.9063 251.734 81.3985 252.296C80.8907 252.859 80.6368 253.628 80.6368 254.605H77.7891C77.7891 253.566 78.0235 252.632 78.4923 251.804C78.9688 250.968 79.6446 250.32 80.5196 249.859C81.4024 249.398 82.418 249.167 83.5665 249.167C85.2227 249.167 86.5274 249.585 87.4805 250.421C88.4415 251.249 88.9219 252.398 88.9219 253.867C88.9219 254.718 88.6798 255.613 88.1954 256.55C87.7188 257.48 86.9337 258.539 85.8399 259.726L81.668 264.191H89.5899V266.464ZM92.5196 258.003L93.4454 249.402H102.609V251.863H95.8126L95.3438 255.941C96.1329 255.488 97.0235 255.261 98.0157 255.261C99.6407 255.261 100.902 255.781 101.801 256.82C102.707 257.859 103.16 259.257 103.16 261.015C103.16 262.749 102.66 264.132 101.66 265.164C100.66 266.187 99.2891 266.699 97.5469 266.699C95.9844 266.699 94.6876 266.257 93.6563 265.374C92.6329 264.484 92.0782 263.312 91.9923 261.859H94.7462C94.8555 262.687 95.1524 263.324 95.6368 263.769C96.1212 264.206 96.754 264.425 97.5352 264.425C98.4102 264.425 99.0899 264.113 99.5743 263.488C100.066 262.863 100.313 262.011 100.313 260.933C100.313 259.894 100.043 259.074 99.504 258.472C98.9649 257.863 98.2227 257.558 97.2774 257.558C96.7618 257.558 96.3243 257.628 95.9649 257.769C95.6055 257.902 95.2149 258.167 94.793 258.566L92.5196 258.003ZM105.984 270.308L104.449 269.394C104.902 268.683 105.211 268.062 105.375 267.531C105.547 267.007 105.637 266.472 105.645 265.925V263.71H108.211L108.199 265.761C108.191 266.589 107.981 267.417 107.566 268.246C107.16 269.081 106.633 269.769 105.984 270.308ZM118.383 266.464H115.547V252.765L111.363 254.195V251.792L118.02 249.343H118.383V266.464ZM124.195 252.683C124.195 251.652 124.527 250.808 125.191 250.152C125.856 249.488 126.727 249.156 127.805 249.156C128.899 249.156 129.774 249.488 130.43 250.152C131.094 250.808 131.426 251.671 131.426 252.742V253.585C131.426 254.609 131.094 255.449 130.43 256.105C129.774 256.761 128.906 257.089 127.828 257.089C126.774 257.089 125.902 256.769 125.215 256.128C124.535 255.48 124.195 254.609 124.195 253.515V252.683ZM126.188 253.585C126.188 254.124 126.336 254.562 126.633 254.898C126.938 255.226 127.336 255.39 127.828 255.39C128.313 255.39 128.703 255.226 129 254.898C129.297 254.562 129.445 254.109 129.445 253.539V252.683C129.445 252.144 129.293 251.706 128.988 251.371C128.691 251.035 128.297 250.867 127.805 250.867C127.313 250.867 126.918 251.039 126.621 251.382C126.332 251.718 126.188 252.164 126.188 252.718V253.585ZM132.399 262.281C132.399 261.234 132.738 260.386 133.418 259.738C134.098 259.089 134.965 258.765 136.02 258.765C137.082 258.765 137.949 259.089 138.621 259.738C139.301 260.386 139.641 261.261 139.641 262.363V263.195C139.641 264.21 139.313 265.05 138.656 265.714C138.008 266.371 137.137 266.699 136.043 266.699C134.949 266.699 134.066 266.374 133.395 265.726C132.731 265.07 132.399 264.206 132.399 263.136V262.281ZM134.391 263.195C134.391 263.726 134.543 264.164 134.848 264.507C135.16 264.843 135.559 265.011 136.043 265.011C136.543 265.011 136.934 264.851 137.215 264.531C137.504 264.203 137.649 263.746 137.649 263.16V262.281C137.649 261.734 137.496 261.296 137.191 260.968C136.887 260.64 136.496 260.476 136.02 260.476C135.535 260.476 135.141 260.64 134.836 260.968C134.539 261.296 134.391 261.749 134.391 262.328V263.195ZM128.414 265.187L126.949 264.343L135.281 251.007L136.746 251.851L128.414 265.187Z" fill="white"/>
</svg>
