<svg width="232" height="362" viewBox="0 0 232 362" fill="none" xmlns="http://www.w3.org/2000/svg">
<path d="M17.8203 332.321C17.3867 332.942 16.7803 333.408 16.001 333.719C15.2275 334.023 14.3252 334.176 13.2939 334.176C12.251 334.176 11.3252 333.933 10.5166 333.446C9.70801 332.954 9.08105 332.257 8.63574 331.354C8.19629 330.452 7.9707 329.406 7.95898 328.217V327.101C7.95898 325.173 8.40723 323.679 9.30371 322.618C10.2061 321.558 11.4717 321.027 13.1006 321.027C14.4365 321.027 15.5117 321.37 16.3262 322.056C17.1406 322.735 17.6387 323.702 17.8203 324.956H16.1328C15.8164 323.263 14.8086 322.416 13.1094 322.416C11.9785 322.416 11.1201 322.814 10.5342 323.611C9.9541 324.402 9.66113 325.551 9.65527 327.057V328.103C9.65527 329.538 9.9834 330.681 10.6396 331.53C11.2959 332.374 12.1836 332.796 13.3027 332.796C13.9355 332.796 14.4893 332.726 14.9639 332.585C15.4385 332.444 15.8311 332.207 16.1416 331.873V328.999H13.1797V327.628H17.8203V332.321ZM26.2578 334C26.1641 333.812 26.0879 333.479 26.0293 332.998C25.2734 333.783 24.3711 334.176 23.3223 334.176C22.3848 334.176 21.6143 333.912 21.0107 333.385C20.4131 332.852 20.1143 332.178 20.1143 331.363C20.1143 330.373 20.4893 329.605 21.2393 329.061C21.9951 328.51 23.0557 328.234 24.4209 328.234H26.0029V327.487C26.0029 326.919 25.833 326.468 25.4932 326.134C25.1533 325.794 24.6523 325.624 23.9902 325.624C23.4102 325.624 22.9238 325.771 22.5312 326.063C22.1387 326.356 21.9424 326.711 21.9424 327.127H20.3076C20.3076 326.652 20.4746 326.195 20.8086 325.756C21.1484 325.311 21.6055 324.959 22.1797 324.701C22.7598 324.443 23.3955 324.314 24.0869 324.314C25.1826 324.314 26.041 324.59 26.6621 325.141C27.2832 325.686 27.6055 326.438 27.6289 327.399V331.776C27.6289 332.649 27.7402 333.344 27.9629 333.859V334H26.2578ZM23.5596 332.761C24.0693 332.761 24.5527 332.629 25.0098 332.365C25.4668 332.102 25.7979 331.759 26.0029 331.337V329.386H24.7285C22.7363 329.386 21.7402 329.969 21.7402 331.135C21.7402 331.645 21.9102 332.043 22.25 332.33C22.5898 332.617 23.0264 332.761 23.5596 332.761ZM35.7148 331.478C35.7148 331.038 35.5479 330.698 35.2139 330.458C34.8857 330.212 34.3086 330.001 33.4824 329.825C32.6621 329.649 32.0088 329.438 31.5225 329.192C31.042 328.946 30.6846 328.653 30.4502 328.313C30.2217 327.974 30.1074 327.569 30.1074 327.101C30.1074 326.321 30.4355 325.662 31.0918 325.123C31.7539 324.584 32.5977 324.314 33.623 324.314C34.7012 324.314 35.5742 324.593 36.2422 325.149C36.916 325.706 37.2529 326.418 37.2529 327.285H35.6182C35.6182 326.84 35.4277 326.456 35.0469 326.134C34.6719 325.812 34.1973 325.65 33.623 325.65C33.0312 325.65 32.5684 325.779 32.2344 326.037C31.9004 326.295 31.7334 326.632 31.7334 327.048C31.7334 327.44 31.8887 327.736 32.1992 327.936C32.5098 328.135 33.0693 328.325 33.8779 328.507C34.6924 328.688 35.3516 328.905 35.8555 329.157C36.3594 329.409 36.7314 329.714 36.9717 330.071C37.2178 330.423 37.3408 330.854 37.3408 331.363C37.3408 332.213 37.001 332.896 36.3213 333.411C35.6416 333.921 34.7598 334.176 33.6758 334.176C32.9141 334.176 32.2402 334.041 31.6543 333.771C31.0684 333.502 30.6084 333.127 30.2744 332.646C29.9463 332.16 29.7822 331.636 29.7822 331.073H31.4082C31.4375 331.618 31.6543 332.052 32.0586 332.374C32.4688 332.69 33.0078 332.849 33.6758 332.849C34.291 332.849 34.7832 332.726 35.1523 332.479C35.5273 332.228 35.7148 331.894 35.7148 331.478ZM41.665 322.188V324.49H43.4404V325.747H41.665V331.645C41.665 332.025 41.7441 332.312 41.9023 332.506C42.0605 332.693 42.3301 332.787 42.7109 332.787C42.8984 332.787 43.1562 332.752 43.4844 332.682V334C43.0566 334.117 42.6406 334.176 42.2363 334.176C41.5098 334.176 40.9619 333.956 40.5928 333.517C40.2236 333.077 40.0391 332.453 40.0391 331.645V325.747H38.3076V324.49H40.0391V322.188H41.665ZM44.7412 329.157C44.7412 328.226 44.9229 327.388 45.2861 326.644C45.6553 325.899 46.165 325.325 46.8154 324.921C47.4717 324.517 48.2188 324.314 49.0566 324.314C50.3516 324.314 51.3975 324.763 52.1943 325.659C52.9971 326.556 53.3984 327.748 53.3984 329.236V329.351C53.3984 330.276 53.2197 331.108 52.8623 331.847C52.5107 332.579 52.0039 333.15 51.3418 333.561C50.6855 333.971 49.9297 334.176 49.0742 334.176C47.7852 334.176 46.7393 333.728 45.9365 332.831C45.1396 331.935 44.7412 330.748 44.7412 329.271V329.157ZM46.376 329.351C46.376 330.405 46.6191 331.252 47.1055 331.891C47.5977 332.529 48.2539 332.849 49.0742 332.849C49.9004 332.849 50.5566 332.526 51.043 331.882C51.5293 331.231 51.7725 330.323 51.7725 329.157C51.7725 328.114 51.5234 327.271 51.0254 326.626C50.5332 325.976 49.877 325.65 49.0566 325.65C48.2539 325.65 47.6064 325.97 47.1143 326.608C46.6221 327.247 46.376 328.161 46.376 329.351ZM60.9746 331.478C60.9746 331.038 60.8076 330.698 60.4736 330.458C60.1455 330.212 59.5684 330.001 58.7422 329.825C57.9219 329.649 57.2686 329.438 56.7822 329.192C56.3018 328.946 55.9443 328.653 55.71 328.313C55.4814 327.974 55.3672 327.569 55.3672 327.101C55.3672 326.321 55.6953 325.662 56.3516 325.123C57.0137 324.584 57.8574 324.314 58.8828 324.314C59.9609 324.314 60.834 324.593 61.502 325.149C62.1758 325.706 62.5127 326.418 62.5127 327.285H60.8779C60.8779 326.84 60.6875 326.456 60.3066 326.134C59.9316 325.812 59.457 325.65 58.8828 325.65C58.291 325.65 57.8281 325.779 57.4941 326.037C57.1602 326.295 56.9932 326.632 56.9932 327.048C56.9932 327.44 57.1484 327.736 57.459 327.936C57.7695 328.135 58.3291 328.325 59.1377 328.507C59.9521 328.688 60.6113 328.905 61.1152 329.157C61.6191 329.409 61.9912 329.714 62.2314 330.071C62.4775 330.423 62.6006 330.854 62.6006 331.363C62.6006 332.213 62.2607 332.896 61.5811 333.411C60.9014 333.921 60.0195 334.176 58.9355 334.176C58.1738 334.176 57.5 334.041 56.9141 333.771C56.3281 333.502 55.8682 333.127 55.5342 332.646C55.2061 332.16 55.042 331.636 55.042 331.073H56.668C56.6973 331.618 56.9141 332.052 57.3184 332.374C57.7285 332.69 58.2676 332.849 58.9355 332.849C59.5508 332.849 60.043 332.726 60.4121 332.479C60.7871 332.228 60.9746 331.894 60.9746 331.478ZM73.1299 334.176C71.8408 334.176 70.792 333.754 69.9834 332.91C69.1748 332.061 68.7705 330.927 68.7705 329.509V329.21C68.7705 328.267 68.9492 327.426 69.3066 326.688C69.6699 325.943 70.1738 325.363 70.8184 324.947C71.4688 324.525 72.1719 324.314 72.9277 324.314C74.1641 324.314 75.125 324.722 75.8105 325.536C76.4961 326.351 76.8389 327.517 76.8389 329.034V329.711H70.3965C70.4199 330.648 70.6924 331.407 71.2139 331.987C71.7412 332.562 72.4092 332.849 73.2178 332.849C73.792 332.849 74.2783 332.731 74.6768 332.497C75.0752 332.263 75.4238 331.952 75.7227 331.565L76.7158 332.339C75.9189 333.563 74.7236 334.176 73.1299 334.176ZM72.9277 325.65C72.2715 325.65 71.7207 325.891 71.2754 326.371C70.8301 326.846 70.5547 327.514 70.4492 328.375H75.2129V328.252C75.166 327.426 74.9434 326.787 74.5449 326.336C74.1465 325.879 73.6074 325.65 72.9277 325.65ZM80.2578 324.49L80.3018 325.545C80.999 324.725 81.9395 324.314 83.123 324.314C84.4531 324.314 85.3584 324.824 85.8389 325.844C86.1553 325.387 86.5654 325.018 87.0693 324.736C87.5791 324.455 88.1797 324.314 88.8711 324.314C90.957 324.314 92.0176 325.419 92.0527 327.628V334H90.4268V327.725C90.4268 327.045 90.2715 326.538 89.9609 326.204C89.6504 325.864 89.1289 325.694 88.3965 325.694C87.793 325.694 87.292 325.876 86.8936 326.239C86.4951 326.597 86.2637 327.08 86.1992 327.689V334H84.5645V327.769C84.5645 326.386 83.8877 325.694 82.5342 325.694C81.4678 325.694 80.7383 326.148 80.3457 327.057V334H78.7197V324.49H80.2578ZM101.044 334H99.3564V321.203H101.044V334ZM105.421 324.49L105.474 325.686C106.2 324.771 107.149 324.314 108.321 324.314C110.331 324.314 111.345 325.448 111.362 327.716V334H109.736V327.707C109.73 327.021 109.572 326.515 109.262 326.187C108.957 325.858 108.479 325.694 107.829 325.694C107.302 325.694 106.839 325.835 106.44 326.116C106.042 326.397 105.731 326.767 105.509 327.224V334H103.883V324.49H105.421ZM117.629 332.849C118.209 332.849 118.716 332.673 119.149 332.321C119.583 331.97 119.823 331.53 119.87 331.003H121.408C121.379 331.548 121.191 332.066 120.846 332.559C120.5 333.051 120.037 333.443 119.457 333.736C118.883 334.029 118.273 334.176 117.629 334.176C116.334 334.176 115.303 333.745 114.535 332.884C113.773 332.017 113.393 330.833 113.393 329.333V329.061C113.393 328.135 113.562 327.312 113.902 326.591C114.242 325.87 114.729 325.311 115.361 324.912C116 324.514 116.753 324.314 117.62 324.314C118.687 324.314 119.571 324.634 120.274 325.272C120.983 325.911 121.361 326.74 121.408 327.76H119.87C119.823 327.145 119.589 326.641 119.167 326.248C118.751 325.85 118.235 325.65 117.62 325.65C116.794 325.65 116.152 325.949 115.695 326.547C115.244 327.139 115.019 327.997 115.019 329.122V329.43C115.019 330.525 115.244 331.369 115.695 331.961C116.146 332.553 116.791 332.849 117.629 332.849ZM127.183 334.176C125.894 334.176 124.845 333.754 124.036 332.91C123.228 332.061 122.823 330.927 122.823 329.509V329.21C122.823 328.267 123.002 327.426 123.359 326.688C123.723 325.943 124.227 325.363 124.871 324.947C125.521 324.525 126.225 324.314 126.98 324.314C128.217 324.314 129.178 324.722 129.863 325.536C130.549 326.351 130.892 327.517 130.892 329.034V329.711H124.449C124.473 330.648 124.745 331.407 125.267 331.987C125.794 332.562 126.462 332.849 127.271 332.849C127.845 332.849 128.331 332.731 128.729 332.497C129.128 332.263 129.477 331.952 129.775 331.565L130.769 332.339C129.972 333.563 128.776 334.176 127.183 334.176ZM126.98 325.65C126.324 325.65 125.773 325.891 125.328 326.371C124.883 326.846 124.607 327.514 124.502 328.375H129.266V328.252C129.219 327.426 128.996 326.787 128.598 326.336C128.199 325.879 127.66 325.65 126.98 325.65ZM134.319 324.49L134.372 325.686C135.099 324.771 136.048 324.314 137.22 324.314C139.229 324.314 140.243 325.448 140.261 327.716V334H138.635V327.707C138.629 327.021 138.471 326.515 138.16 326.187C137.855 325.858 137.378 325.694 136.728 325.694C136.2 325.694 135.737 325.835 135.339 326.116C134.94 326.397 134.63 326.767 134.407 327.224V334H132.781V324.49H134.319ZM144.919 322.188V324.49H146.694V325.747H144.919V331.645C144.919 332.025 144.998 332.312 145.156 332.506C145.314 332.693 145.584 332.787 145.965 332.787C146.152 332.787 146.41 332.752 146.738 332.682V334C146.311 334.117 145.895 334.176 145.49 334.176C144.764 334.176 144.216 333.956 143.847 333.517C143.478 333.077 143.293 332.453 143.293 331.645V325.747H141.562V324.49H143.293V322.188H144.919ZM150.368 334H148.742V324.49H150.368V334ZM148.61 321.968C148.61 321.704 148.689 321.481 148.848 321.3C149.012 321.118 149.252 321.027 149.568 321.027C149.885 321.027 150.125 321.118 150.289 321.3C150.453 321.481 150.535 321.704 150.535 321.968C150.535 322.231 150.453 322.451 150.289 322.627C150.125 322.803 149.885 322.891 149.568 322.891C149.252 322.891 149.012 322.803 148.848 322.627C148.689 322.451 148.61 322.231 148.61 321.968ZM156.116 331.794L158.472 324.49H160.133L156.723 334H155.483L152.038 324.49H153.699L156.116 331.794ZM161.126 329.157C161.126 328.226 161.308 327.388 161.671 326.644C162.04 325.899 162.55 325.325 163.2 324.921C163.856 324.517 164.604 324.314 165.441 324.314C166.736 324.314 167.782 324.763 168.579 325.659C169.382 326.556 169.783 327.748 169.783 329.236V329.351C169.783 330.276 169.604 331.108 169.247 331.847C168.896 332.579 168.389 333.15 167.727 333.561C167.07 333.971 166.314 334.176 165.459 334.176C164.17 334.176 163.124 333.728 162.321 332.831C161.524 331.935 161.126 330.748 161.126 329.271V329.157ZM162.761 329.351C162.761 330.405 163.004 331.252 163.49 331.891C163.982 332.529 164.639 332.849 165.459 332.849C166.285 332.849 166.941 332.526 167.428 331.882C167.914 331.231 168.157 330.323 168.157 329.157C168.157 328.114 167.908 327.271 167.41 326.626C166.918 325.976 166.262 325.65 165.441 325.65C164.639 325.65 163.991 325.97 163.499 326.608C163.007 327.247 162.761 328.161 162.761 329.351ZM182.158 334C182.064 333.812 181.988 333.479 181.93 332.998C181.174 333.783 180.271 334.176 179.223 334.176C178.285 334.176 177.515 333.912 176.911 333.385C176.313 332.852 176.015 332.178 176.015 331.363C176.015 330.373 176.39 329.605 177.14 329.061C177.896 328.51 178.956 328.234 180.321 328.234H181.903V327.487C181.903 326.919 181.733 326.468 181.394 326.134C181.054 325.794 180.553 325.624 179.891 325.624C179.311 325.624 178.824 325.771 178.432 326.063C178.039 326.356 177.843 326.711 177.843 327.127H176.208C176.208 326.652 176.375 326.195 176.709 325.756C177.049 325.311 177.506 324.959 178.08 324.701C178.66 324.443 179.296 324.314 179.987 324.314C181.083 324.314 181.941 324.59 182.562 325.141C183.184 325.686 183.506 326.438 183.529 327.399V331.776C183.529 332.649 183.641 333.344 183.863 333.859V334H182.158ZM179.46 332.761C179.97 332.761 180.453 332.629 180.91 332.365C181.367 332.102 181.698 331.759 181.903 331.337V329.386H180.629C178.637 329.386 177.641 329.969 177.641 331.135C177.641 331.645 177.811 332.043 178.15 332.33C178.49 332.617 178.927 332.761 179.46 332.761ZM185.647 329.157C185.647 328.226 185.829 327.388 186.192 326.644C186.562 325.899 187.071 325.325 187.722 324.921C188.378 324.517 189.125 324.314 189.963 324.314C191.258 324.314 192.304 324.763 193.101 325.659C193.903 326.556 194.305 327.748 194.305 329.236V329.351C194.305 330.276 194.126 331.108 193.769 331.847C193.417 332.579 192.91 333.15 192.248 333.561C191.592 333.971 190.836 334.176 189.98 334.176C188.691 334.176 187.646 333.728 186.843 332.831C186.046 331.935 185.647 330.748 185.647 329.271V329.157ZM187.282 329.351C187.282 330.405 187.525 331.252 188.012 331.891C188.504 332.529 189.16 332.849 189.98 332.849C190.807 332.849 191.463 332.526 191.949 331.882C192.436 331.231 192.679 330.323 192.679 329.157C192.679 328.114 192.43 327.271 191.932 326.626C191.439 325.976 190.783 325.65 189.963 325.65C189.16 325.65 188.513 325.97 188.021 326.608C187.528 327.247 187.282 328.161 187.282 329.351ZM78.79 352.085H73.2441V356.62H79.6865V358H71.5566V345.203H79.5986V346.592H73.2441V350.705H78.79V352.085ZM87.0693 355.478C87.0693 355.038 86.9023 354.698 86.5684 354.458C86.2402 354.212 85.6631 354.001 84.8369 353.825C84.0166 353.649 83.3633 353.438 82.877 353.192C82.3965 352.946 82.0391 352.653 81.8047 352.313C81.5762 351.974 81.4619 351.569 81.4619 351.101C81.4619 350.321 81.79 349.662 82.4463 349.123C83.1084 348.584 83.9521 348.314 84.9775 348.314C86.0557 348.314 86.9287 348.593 87.5967 349.149C88.2705 349.706 88.6074 350.418 88.6074 351.285H86.9727C86.9727 350.84 86.7822 350.456 86.4014 350.134C86.0264 349.812 85.5518 349.65 84.9775 349.65C84.3857 349.65 83.9229 349.779 83.5889 350.037C83.2549 350.295 83.0879 350.632 83.0879 351.048C83.0879 351.44 83.2432 351.736 83.5537 351.936C83.8643 352.135 84.4238 352.325 85.2324 352.507C86.0469 352.688 86.7061 352.905 87.21 353.157C87.7139 353.409 88.0859 353.714 88.3262 354.071C88.5723 354.423 88.6953 354.854 88.6953 355.363C88.6953 356.213 88.3555 356.896 87.6758 357.411C86.9961 357.921 86.1143 358.176 85.0303 358.176C84.2686 358.176 83.5947 358.041 83.0088 357.771C82.4229 357.502 81.9629 357.127 81.6289 356.646C81.3008 356.16 81.1367 355.636 81.1367 355.073H82.7627C82.792 355.618 83.0088 356.052 83.4131 356.374C83.8232 356.69 84.3623 356.849 85.0303 356.849C85.6455 356.849 86.1377 356.726 86.5068 356.479C86.8818 356.228 87.0693 355.894 87.0693 355.478ZM98.8467 353.351C98.8467 354.798 98.5156 355.964 97.8535 356.849C97.1914 357.733 96.2949 358.176 95.1641 358.176C94.0098 358.176 93.1016 357.81 92.4395 357.077V361.656H90.8135V348.49H92.2988L92.3779 349.545C93.04 348.725 93.96 348.314 95.1377 348.314C96.2803 348.314 97.1826 348.745 97.8447 349.606C98.5127 350.468 98.8467 351.666 98.8467 353.201V353.351ZM97.2207 353.166C97.2207 352.094 96.9922 351.247 96.5352 350.626C96.0781 350.005 95.4512 349.694 94.6543 349.694C93.6699 349.694 92.9316 350.131 92.4395 351.004V355.548C92.9258 356.415 93.6699 356.849 94.6719 356.849C95.4512 356.849 96.0693 356.541 96.5264 355.926C96.9893 355.305 97.2207 354.385 97.2207 353.166ZM100.49 353.157C100.49 352.226 100.672 351.388 101.035 350.644C101.404 349.899 101.914 349.325 102.564 348.921C103.221 348.517 103.968 348.314 104.806 348.314C106.101 348.314 107.146 348.763 107.943 349.659C108.746 350.556 109.147 351.748 109.147 353.236V353.351C109.147 354.276 108.969 355.108 108.611 355.847C108.26 356.579 107.753 357.15 107.091 357.561C106.435 357.971 105.679 358.176 104.823 358.176C103.534 358.176 102.488 357.728 101.686 356.831C100.889 355.935 100.49 354.748 100.49 353.271V353.157ZM102.125 353.351C102.125 354.405 102.368 355.252 102.854 355.891C103.347 356.529 104.003 356.849 104.823 356.849C105.649 356.849 106.306 356.526 106.792 355.882C107.278 355.231 107.521 354.323 107.521 353.157C107.521 352.114 107.272 351.271 106.774 350.626C106.282 349.976 105.626 349.65 104.806 349.65C104.003 349.65 103.355 349.97 102.863 350.608C102.371 351.247 102.125 352.161 102.125 353.351ZM115.783 349.949C115.537 349.908 115.271 349.888 114.983 349.888C113.917 349.888 113.193 350.342 112.812 351.25V358H111.187V348.49H112.769L112.795 349.589C113.328 348.739 114.084 348.314 115.062 348.314C115.379 348.314 115.619 348.355 115.783 348.438V349.949ZM119.932 346.188V348.49H121.707V349.747H119.932V355.645C119.932 356.025 120.011 356.312 120.169 356.506C120.327 356.693 120.597 356.787 120.978 356.787C121.165 356.787 121.423 356.752 121.751 356.682V358C121.323 358.117 120.907 358.176 120.503 358.176C119.776 358.176 119.229 357.956 118.859 357.517C118.49 357.077 118.306 356.453 118.306 355.645V349.747H116.574V348.49H118.306V346.188H119.932ZM127.561 358.176C126.271 358.176 125.223 357.754 124.414 356.91C123.605 356.061 123.201 354.927 123.201 353.509V353.21C123.201 352.267 123.38 351.426 123.737 350.688C124.101 349.943 124.604 349.363 125.249 348.947C125.899 348.525 126.603 348.314 127.358 348.314C128.595 348.314 129.556 348.722 130.241 349.536C130.927 350.351 131.27 351.517 131.27 353.034V353.711H124.827C124.851 354.648 125.123 355.407 125.645 355.987C126.172 356.562 126.84 356.849 127.648 356.849C128.223 356.849 128.709 356.731 129.107 356.497C129.506 356.263 129.854 355.952 130.153 355.565L131.146 356.339C130.35 357.563 129.154 358.176 127.561 358.176ZM127.358 349.65C126.702 349.65 126.151 349.891 125.706 350.371C125.261 350.846 124.985 351.514 124.88 352.375H129.644V352.252C129.597 351.426 129.374 350.787 128.976 350.336C128.577 349.879 128.038 349.65 127.358 349.65Z" fill="#4FBB7C"/>
<ellipse rx="50.4911" ry="48.1607" transform="matrix(-1 0 0 1 98.9728 257.893)" fill="#C4C4C4"/>
<rect width="46.6071" height="250.125" rx="23.3036" transform="matrix(-1 0 0 1 123.053 0)" fill="#C4C4C4"/>
<ellipse rx="50.4911" ry="48.1607" transform="matrix(-1 0 0 1 98.9728 257.893)" fill="#6FCF97"/>
<line x1="95.6426" y1="38.2857" x2="77.4462" y2="38.2857" stroke="#787878" stroke-width="2" stroke-linecap="round"/>
<line x1="95.6426" y1="47.6071" x2="77.4462" y2="47.6071" stroke="#787878" stroke-width="2" stroke-linecap="round"/>
<line x1="104.964" y1="56.9286" x2="77.4465" y2="56.9286" stroke="#787878" stroke-width="2" stroke-linecap="round"/>
<line x1="95.6426" y1="64.6964" x2="77.4462" y2="64.6964" stroke="#787878" stroke-width="2" stroke-linecap="round"/>
<line x1="95.6426" y1="74.0179" x2="77.4462" y2="74.0179" stroke="#787878" stroke-width="2" stroke-linecap="round"/>
<line x1="104.964" y1="83.3393" x2="77.4465" y2="83.3393" stroke="#787878" stroke-width="2" stroke-linecap="round"/>
<line x1="95.6426" y1="91.1071" x2="77.4462" y2="91.1071" stroke="#787878" stroke-width="2" stroke-linecap="round"/>
<line x1="95.6426" y1="100.429" x2="77.4462" y2="100.429" stroke="#787878" stroke-width="2" stroke-linecap="round"/>
<line x1="104.964" y1="109.75" x2="77.4465" y2="109.75" stroke="#787878" stroke-width="2" stroke-linecap="round"/>
<line x1="95.6426" y1="145.482" x2="77.4462" y2="145.482" stroke="#787878" stroke-width="2" stroke-linecap="round"/>
<line x1="95.6426" y1="119.071" x2="77.4462" y2="119.071" stroke="#787878" stroke-width="2" stroke-linecap="round"/>
<line x1="104.964" y1="128.393" x2="77.4465" y2="128.393" stroke="#787878" stroke-width="2" stroke-linecap="round"/>
<line x1="104.964" y1="137.714" x2="77.4465" y2="137.714" stroke="#787878" stroke-width="2" stroke-linecap="round"/>
<line x1="95.6426" y1="154.804" x2="77.4462" y2="154.804" stroke="#787878" stroke-width="2" stroke-linecap="round"/>
<line x1="104.964" y1="164.125" x2="77.4465" y2="164.125" stroke="#787878" stroke-width="2" stroke-linecap="round"/>
<line x1="95.6426" y1="198.304" x2="77.4462" y2="198.304" stroke="#787878" stroke-width="2" stroke-linecap="round"/>
<line x1="95.6426" y1="171.893" x2="77.4462" y2="171.893" stroke="#787878" stroke-width="2" stroke-linecap="round"/>
<line x1="104.964" y1="181.214" x2="77.4465" y2="181.214" stroke="#787878" stroke-width="2" stroke-linecap="round"/>
<line x1="104.964" y1="190.536" x2="77.4465" y2="190.536" stroke="#787878" stroke-width="2" stroke-linecap="round"/>
<line x1="95.6426" y1="207.625" x2="77.4462" y2="207.625" stroke="#787878" stroke-width="2" stroke-linecap="round"/>
<mask id="mask0" style="mask-type:alpha" maskUnits="userSpaceOnUse" x="48" y="209" width="102" height="97">
<ellipse rx="50.4911" ry="48.1607" transform="matrix(-1 0 0 1 98.9728 257.161)" fill="#CECECE"/>
</mask>
<g mask="url(#mask0)">
<rect x="48" y="139" width="108" height="148" fill="#C4C4C4"/>
</g>
<path d="M214.345 150.766C215.32 150.766 216.172 150.93 216.901 151.258C217.626 151.586 218.18 152.051 218.562 152.652C218.945 153.254 219.137 153.956 219.137 154.758C219.137 155.542 218.945 156.237 218.562 156.843C218.175 157.449 217.626 157.921 216.915 158.258C216.2 158.59 215.372 158.761 214.434 158.771L213.716 158.771C212.759 158.771 211.913 158.604 211.18 158.271C210.446 157.939 209.885 157.469 209.498 156.863C209.106 156.253 208.91 155.555 208.91 154.771C208.91 153.974 209.104 153.272 209.491 152.666C209.874 152.055 210.432 151.586 211.166 151.258C211.895 150.93 212.745 150.766 213.716 150.766L214.345 150.766ZM213.702 152.071C212.522 152.071 211.617 152.308 210.988 152.782C210.355 153.256 210.038 153.919 210.038 154.771C210.038 155.601 210.355 156.255 210.988 156.733C211.617 157.207 212.492 157.451 213.613 157.465L214.345 157.465C215.489 157.465 216.389 157.226 217.045 156.747C217.697 156.264 218.022 155.601 218.022 154.758C218.022 153.91 217.715 153.254 217.1 152.789C216.48 152.324 215.593 152.085 214.44 152.071L213.702 152.071ZM212.738 145.42C212.706 145.611 212.69 145.819 212.69 146.042C212.69 146.871 213.044 147.434 213.75 147.73L219 147.73L219 148.995L211.604 148.995L211.604 147.765L212.458 147.744C211.797 147.329 211.467 146.742 211.467 145.98C211.467 145.734 211.499 145.548 211.562 145.42L212.738 145.42ZM218.104 141.421C218.104 140.97 217.968 140.576 217.694 140.238C217.421 139.901 217.079 139.714 216.669 139.678L216.669 138.481C217.093 138.504 217.496 138.65 217.879 138.919C218.262 139.188 218.567 139.548 218.795 139.999C219.023 140.446 219.137 140.92 219.137 141.421C219.137 142.428 218.802 143.23 218.132 143.827C217.457 144.42 216.537 144.716 215.37 144.716L215.158 144.716C214.438 144.716 213.798 144.584 213.237 144.319C212.677 144.055 212.242 143.677 211.932 143.185C211.622 142.688 211.467 142.102 211.467 141.428C211.467 140.598 211.715 139.91 212.212 139.363C212.709 138.812 213.354 138.518 214.146 138.481L214.146 139.678C213.668 139.714 213.276 139.896 212.971 140.225C212.661 140.548 212.506 140.949 212.506 141.428C212.506 142.07 212.738 142.569 213.203 142.925C213.663 143.276 214.331 143.451 215.206 143.451L215.445 143.451C216.298 143.451 216.954 143.276 217.414 142.925C217.874 142.574 218.104 142.073 218.104 141.421ZM219.062 141.216L219.417 141.298C219.54 140.601 219.934 140.252 220.6 140.252C221.042 140.252 221.39 140.434 221.646 140.799C221.905 141.163 222.035 141.672 222.035 142.323L221.304 142.371C221.304 142.011 221.244 141.733 221.126 141.537C221.007 141.337 220.841 141.236 220.627 141.236C220.426 141.236 220.278 141.309 220.183 141.455C220.087 141.601 220.019 141.897 219.978 142.344L219.062 142.125L219.062 141.216ZM219 132.493C218.854 132.566 218.594 132.625 218.221 132.671C218.831 133.259 219.137 133.961 219.137 134.776C219.137 135.506 218.932 136.105 218.521 136.574C218.107 137.039 217.583 137.271 216.949 137.271C216.179 137.271 215.582 136.98 215.158 136.396C214.73 135.809 214.516 134.984 214.516 133.922L214.516 132.691L213.935 132.691C213.493 132.691 213.142 132.824 212.882 133.088C212.618 133.352 212.485 133.742 212.485 134.257C212.485 134.708 212.599 135.086 212.827 135.392C213.055 135.697 213.331 135.85 213.654 135.85L213.654 137.121C213.285 137.121 212.93 136.991 212.588 136.731C212.242 136.467 211.968 136.112 211.768 135.665C211.567 135.214 211.467 134.719 211.467 134.182C211.467 133.329 211.681 132.662 212.109 132.179C212.533 131.696 213.119 131.445 213.866 131.427L217.271 131.427C217.95 131.427 218.49 131.34 218.891 131.167L219 131.167L219 132.493ZM218.036 134.592C218.036 134.195 217.934 133.819 217.729 133.464C217.523 133.108 217.257 132.851 216.929 132.691L215.411 132.691L215.411 133.683C215.411 135.232 215.865 136.007 216.771 136.007C217.168 136.007 217.478 135.875 217.701 135.61C217.924 135.346 218.036 135.007 218.036 134.592ZM211.604 128.255L212.424 128.221C211.786 127.678 211.467 126.947 211.467 126.026C211.467 124.992 211.863 124.288 212.656 123.914C212.301 123.668 212.014 123.349 211.795 122.957C211.576 122.561 211.467 122.093 211.467 121.556C211.467 119.933 212.326 119.108 214.044 119.081L219 119.081L219 120.346L214.119 120.346C213.59 120.346 213.196 120.466 212.937 120.708C212.672 120.95 212.54 121.355 212.54 121.925C212.54 122.394 212.681 122.784 212.964 123.094C213.242 123.404 213.618 123.584 214.092 123.634L219 123.634L219 124.905L214.153 124.905C213.078 124.905 212.54 125.432 212.54 126.484C212.54 127.314 212.893 127.881 213.6 128.187L219 128.187L219 129.451L211.604 129.451L211.604 128.255ZM219.137 114.098C219.137 115.1 218.809 115.916 218.152 116.545C217.492 117.174 216.61 117.488 215.507 117.488L215.274 117.488C214.541 117.488 213.887 117.349 213.312 117.071C212.734 116.789 212.283 116.397 211.959 115.896C211.631 115.39 211.467 114.843 211.467 114.255C211.467 113.293 211.784 112.546 212.417 112.013C213.05 111.479 213.957 111.213 215.138 111.213L215.664 111.213L215.664 116.224C216.393 116.205 216.983 115.993 217.435 115.588C217.881 115.178 218.104 114.658 218.104 114.029C218.104 113.583 218.013 113.204 217.831 112.895C217.649 112.585 217.407 112.313 217.106 112.081L217.708 111.309C218.66 111.928 219.137 112.858 219.137 114.098ZM212.506 114.255C212.506 114.765 212.693 115.194 213.066 115.54C213.436 115.886 213.955 116.101 214.625 116.183L214.625 112.478L214.529 112.478C213.887 112.514 213.39 112.687 213.039 112.997C212.684 113.307 212.506 113.726 212.506 114.255ZM211.604 108.547L212.533 108.506C211.822 107.941 211.467 107.202 211.467 106.291C211.467 104.728 212.349 103.939 214.112 103.926L219 103.926L219 105.19L214.105 105.19C213.572 105.195 213.178 105.318 212.923 105.56C212.668 105.797 212.54 106.168 212.54 106.674C212.54 107.084 212.649 107.444 212.868 107.754C213.087 108.064 213.374 108.305 213.729 108.479L219 108.479L219 109.743L211.604 109.743L211.604 108.547ZM209.812 100.303L211.604 100.303L211.604 98.9219L212.581 98.9219L212.581 100.303L217.168 100.303C217.464 100.303 217.687 100.241 217.838 100.118C217.984 99.9951 218.057 99.7855 218.057 99.4893C218.057 99.3434 218.029 99.1429 217.975 98.8877L219 98.8877C219.091 99.2204 219.137 99.5439 219.137 99.8584C219.137 100.424 218.966 100.85 218.624 101.137C218.282 101.424 217.797 101.567 217.168 101.567L212.581 101.567L212.581 102.914L211.604 102.914L211.604 101.567L209.812 101.567L209.812 100.303ZM215.233 97.9102C214.509 97.9102 213.857 97.7689 213.278 97.4863C212.7 97.1992 212.253 96.8027 211.938 96.2969C211.624 95.7865 211.467 95.2054 211.467 94.5537C211.467 93.5465 211.815 92.7331 212.513 92.1133C213.21 91.4889 214.137 91.1768 215.295 91.1768L215.384 91.1768C216.104 91.1768 216.751 91.3158 217.325 91.5937C217.895 91.8672 218.339 92.2614 218.658 92.7764C218.977 93.2868 219.137 93.8747 219.137 94.54C219.137 95.5426 218.788 96.3561 218.091 96.9805C217.394 97.6003 216.471 97.9102 215.322 97.9102L215.233 97.9102ZM215.384 96.6387C216.204 96.6387 216.863 96.4495 217.359 96.0713C217.856 95.6885 218.104 95.1781 218.104 94.54C218.104 93.8975 217.854 93.387 217.353 93.0088C216.847 92.6305 216.14 92.4414 215.233 92.4414C214.422 92.4414 213.766 92.6351 213.265 93.0225C212.759 93.4053 212.506 93.9157 212.506 94.5537C212.506 95.1781 212.754 95.6816 213.251 96.0645C213.748 96.4473 214.459 96.6387 215.384 96.6387Z" fill="#787878"/>
<path d="M196.072 3.10715L196.072 257.893M195.149 3.10715L166.554 3.10715M195.149 257.893H166.554" stroke="#E0E0E0" stroke-width="2" stroke-linecap="round"/>
<path d="M80.2383 259.281C80.2383 261.734 79.7774 263.585 78.8555 264.835C77.9415 266.078 76.5469 266.699 74.6719 266.699C72.8282 266.699 71.4376 266.093 70.5001 264.882C69.5704 263.664 69.0938 261.863 69.0704 259.48V256.527C69.0704 254.074 69.5274 252.234 70.4415 251.007C71.3633 249.781 72.7657 249.167 74.6485 249.167C76.5157 249.167 77.9063 249.765 78.8204 250.96C79.7423 252.156 80.2149 253.945 80.2383 256.328V259.281ZM77.3907 256.093C77.3907 254.492 77.1719 253.32 76.7344 252.578C76.2969 251.828 75.6016 251.453 74.6485 251.453C73.7188 251.453 73.0352 251.808 72.5977 252.519C72.1602 253.222 71.9298 254.324 71.9063 255.824V259.691C71.9063 261.285 72.129 262.472 72.5743 263.253C73.0196 264.035 73.7188 264.425 74.6719 264.425C75.586 264.425 76.2618 264.066 76.6993 263.347C77.1368 262.621 77.3673 261.488 77.3907 259.949V256.093ZM83.3438 270.308L81.8087 269.394C82.2618 268.683 82.5704 268.062 82.7344 267.531C82.9063 267.007 82.9962 266.472 83.004 265.925V263.71H85.5704L85.5587 265.761C85.5508 266.589 85.3399 267.417 84.9258 268.246C84.5196 269.081 83.9923 269.769 83.3438 270.308ZM91.3243 256.632H93.0587C93.9337 256.624 94.6251 256.398 95.1329 255.953C95.6485 255.507 95.9063 254.863 95.9063 254.019C95.9063 253.206 95.6915 252.578 95.2618 252.132C94.8399 251.679 94.1915 251.453 93.3165 251.453C92.5508 251.453 91.9219 251.675 91.4298 252.121C90.9376 252.558 90.6915 253.132 90.6915 253.843H87.8438C87.8438 252.968 88.0743 252.171 88.5352 251.453C89.004 250.734 89.6524 250.175 90.4805 249.777C91.3165 249.371 92.2501 249.167 93.2813 249.167C94.9844 249.167 96.3204 249.597 97.2891 250.456C98.2657 251.308 98.754 252.496 98.754 254.019C98.754 254.785 98.5079 255.507 98.0157 256.187C97.5313 256.859 96.9024 257.367 96.129 257.71C97.0665 258.031 97.7774 258.535 98.2618 259.222C98.754 259.91 99.0001 260.73 99.0001 261.683C99.0001 263.214 98.4727 264.433 97.418 265.339C96.3712 266.246 94.9923 266.699 93.2813 266.699C91.6407 266.699 90.2969 266.261 89.2501 265.386C88.2032 264.511 87.6798 263.347 87.6798 261.894H90.5274C90.5274 262.644 90.7774 263.253 91.2774 263.722C91.7852 264.191 92.4649 264.425 93.3165 264.425C94.1993 264.425 94.8946 264.191 95.4024 263.722C95.9102 263.253 96.1641 262.574 96.1641 261.683C96.1641 260.785 95.8985 260.093 95.3673 259.609C94.836 259.124 94.0469 258.882 93.0001 258.882H91.3243V256.632ZM113.145 266.464H101.672V264.507L107.356 258.308C108.176 257.394 108.758 256.632 109.102 256.023C109.453 255.406 109.629 254.789 109.629 254.171C109.629 253.359 109.399 252.703 108.938 252.203C108.484 251.703 107.871 251.453 107.098 251.453C106.176 251.453 105.461 251.734 104.953 252.296C104.445 252.859 104.191 253.628 104.191 254.605H101.344C101.344 253.566 101.578 252.632 102.047 251.804C102.524 250.968 103.199 250.32 104.074 249.859C104.957 249.398 105.973 249.167 107.121 249.167C108.777 249.167 110.082 249.585 111.035 250.421C111.996 251.249 112.477 252.398 112.477 253.867C112.477 254.718 112.234 255.613 111.75 256.55C111.274 257.48 110.488 258.539 109.395 259.726L105.223 264.191H113.145V266.464ZM115.195 252.683C115.195 251.652 115.527 250.808 116.191 250.152C116.856 249.488 117.727 249.156 118.805 249.156C119.899 249.156 120.774 249.488 121.43 250.152C122.094 250.808 122.426 251.671 122.426 252.742V253.585C122.426 254.609 122.094 255.449 121.43 256.105C120.774 256.761 119.906 257.089 118.828 257.089C117.774 257.089 116.902 256.769 116.215 256.128C115.535 255.48 115.195 254.609 115.195 253.515V252.683ZM117.188 253.585C117.188 254.124 117.336 254.562 117.633 254.898C117.938 255.226 118.336 255.39 118.828 255.39C119.313 255.39 119.703 255.226 120 254.898C120.297 254.562 120.445 254.109 120.445 253.539V252.683C120.445 252.144 120.293 251.706 119.988 251.371C119.691 251.035 119.297 250.867 118.805 250.867C118.313 250.867 117.918 251.039 117.621 251.382C117.332 251.718 117.188 252.164 117.188 252.718V253.585ZM123.399 262.281C123.399 261.234 123.738 260.386 124.418 259.738C125.098 259.089 125.965 258.765 127.02 258.765C128.082 258.765 128.949 259.089 129.621 259.738C130.301 260.386 130.641 261.261 130.641 262.363V263.195C130.641 264.21 130.313 265.05 129.656 265.714C129.008 266.371 128.137 266.699 127.043 266.699C125.949 266.699 125.066 266.374 124.395 265.726C123.731 265.07 123.399 264.206 123.399 263.136V262.281ZM125.391 263.195C125.391 263.726 125.543 264.164 125.848 264.507C126.16 264.843 126.559 265.011 127.043 265.011C127.543 265.011 127.934 264.851 128.215 264.531C128.504 264.203 128.649 263.746 128.649 263.16V262.281C128.649 261.734 128.496 261.296 128.191 260.968C127.887 260.64 127.496 260.476 127.02 260.476C126.535 260.476 126.141 260.64 125.836 260.968C125.539 261.296 125.391 261.749 125.391 262.328V263.195ZM119.414 265.187L117.949 264.343L126.281 251.007L127.746 251.851L119.414 265.187Z" fill="white"/>
</svg>
