<svg width="241" height="348" viewBox="0 0 241 348" fill="none" xmlns="http://www.w3.org/2000/svg">
<path d="M43.5094 340.464C43.0758 341.085 42.4694 341.551 41.6901 341.862C40.9166 342.166 40.0143 342.319 38.983 342.319C37.9401 342.319 37.0143 342.075 36.2057 341.589C35.3971 341.097 34.7702 340.4 34.3248 339.497C33.8854 338.595 33.6598 337.549 33.6481 336.36V335.243C33.6481 333.316 34.0963 331.822 34.9928 330.761C35.8952 329.7 37.1608 329.17 38.7897 329.17C40.1256 329.17 41.2008 329.513 42.0153 330.199C42.8297 330.878 43.3278 331.845 43.5094 333.099H41.8219C41.5055 331.406 40.4977 330.559 38.7985 330.559C37.6676 330.559 36.8092 330.957 36.2233 331.754C35.6432 332.545 35.3502 333.694 35.3444 335.199V336.245C35.3444 337.681 35.6725 338.824 36.3288 339.673C36.985 340.517 37.8727 340.939 38.9918 340.939C39.6246 340.939 40.1784 340.868 40.653 340.728C41.1276 340.587 41.5202 340.35 41.8307 340.016V337.142H38.8688V335.771H43.5094V340.464ZM51.9469 342.143C51.8532 341.955 51.777 341.621 51.7184 341.141C50.9625 341.926 50.0602 342.319 49.0114 342.319C48.0739 342.319 47.3034 342.055 46.6998 341.528C46.1022 340.994 45.8034 340.321 45.8034 339.506C45.8034 338.516 46.1784 337.748 46.9284 337.203C47.6842 336.653 48.7448 336.377 50.11 336.377H51.692V335.63C51.692 335.062 51.5221 334.611 51.1823 334.277C50.8424 333.937 50.3414 333.767 49.6793 333.767C49.0993 333.767 48.6129 333.913 48.2204 334.206C47.8278 334.499 47.6315 334.854 47.6315 335.27H45.9967C45.9967 334.795 46.1637 334.338 46.4977 333.899C46.8375 333.453 47.2946 333.102 47.8688 332.844C48.4489 332.586 49.0846 332.457 49.776 332.457C50.8717 332.457 51.7301 332.733 52.3512 333.283C52.9723 333.828 53.2946 334.581 53.318 335.542V339.919C53.318 340.792 53.4293 341.487 53.652 342.002V342.143H51.9469ZM49.2487 340.904C49.7584 340.904 50.2418 340.772 50.6989 340.508C51.1559 340.244 51.487 339.902 51.692 339.48V337.529H50.4176C48.4254 337.529 47.4293 338.112 47.4293 339.278C47.4293 339.787 47.5993 340.186 47.9391 340.473C48.2789 340.76 48.7155 340.904 49.2487 340.904ZM61.4039 339.62C61.4039 339.181 61.237 338.841 60.903 338.601C60.5748 338.355 59.9977 338.144 59.1715 337.968C58.3512 337.792 57.6979 337.581 57.2116 337.335C56.7311 337.089 56.3737 336.796 56.1393 336.456C55.9108 336.116 55.7965 335.712 55.7965 335.243C55.7965 334.464 56.1246 333.805 56.7809 333.266C57.443 332.727 58.2868 332.457 59.3121 332.457C60.3903 332.457 61.2633 332.736 61.9313 333.292C62.6051 333.849 62.942 334.561 62.942 335.428H61.3073C61.3073 334.983 61.1168 334.599 60.736 334.277C60.361 333.954 59.8864 333.793 59.3121 333.793C58.7204 333.793 58.2575 333.922 57.9235 334.18C57.5895 334.438 57.4225 334.775 57.4225 335.191C57.4225 335.583 57.5778 335.879 57.8883 336.078C58.1989 336.278 58.7584 336.468 59.567 336.65C60.3815 336.831 61.0407 337.048 61.5446 337.3C62.0485 337.552 62.4205 337.857 62.6608 338.214C62.9069 338.566 63.0299 338.996 63.0299 339.506C63.0299 340.356 62.6901 341.038 62.0104 341.554C61.3307 342.064 60.4489 342.319 59.3649 342.319C58.6032 342.319 57.9293 342.184 57.3434 341.914C56.7575 341.645 56.2975 341.27 55.9635 340.789C55.6354 340.303 55.4713 339.779 55.4713 339.216H57.0973C57.1266 339.761 57.3434 340.195 57.7477 340.517C58.1579 340.833 58.6969 340.991 59.3649 340.991C59.9801 340.991 60.4723 340.868 60.8414 340.622C61.2164 340.37 61.4039 340.036 61.4039 339.62ZM67.3541 330.33V332.633H69.1295V333.89H67.3541V339.787C67.3541 340.168 67.4332 340.455 67.5914 340.649C67.7496 340.836 68.0192 340.93 68.4 340.93C68.5875 340.93 68.8454 340.895 69.1735 340.824V342.143C68.7457 342.26 68.3297 342.319 67.9254 342.319C67.1989 342.319 66.651 342.099 66.2819 341.659C65.9127 341.22 65.7282 340.596 65.7282 339.787V333.89H63.9967V332.633H65.7282V330.33H67.3541ZM70.4303 337.3C70.4303 336.368 70.612 335.531 70.9752 334.786C71.3444 334.042 71.8541 333.468 72.5045 333.064C73.1608 332.659 73.9079 332.457 74.7457 332.457C76.0407 332.457 77.0866 332.906 77.8834 333.802C78.6862 334.699 79.0875 335.891 79.0875 337.379V337.493C79.0875 338.419 78.9088 339.251 78.5514 339.99C78.1998 340.722 77.693 341.293 77.0309 341.703C76.3746 342.114 75.6188 342.319 74.7633 342.319C73.4743 342.319 72.4284 341.87 71.6256 340.974C70.8288 340.077 70.4303 338.891 70.4303 337.414V337.3ZM72.0651 337.493C72.0651 338.548 72.3082 339.395 72.7946 340.033C73.2868 340.672 73.943 340.991 74.7633 340.991C75.5895 340.991 76.2457 340.669 76.7321 340.025C77.2184 339.374 77.4616 338.466 77.4616 337.3C77.4616 336.257 77.2125 335.413 76.7145 334.769C76.2223 334.118 75.5661 333.793 74.7457 333.793C73.943 333.793 73.2955 334.113 72.8034 334.751C72.3112 335.39 72.0651 336.304 72.0651 337.493ZM86.6637 339.62C86.6637 339.181 86.4967 338.841 86.1627 338.601C85.8346 338.355 85.2575 338.144 84.4313 337.968C83.611 337.792 82.9577 337.581 82.4713 337.335C81.9909 337.089 81.6334 336.796 81.3991 336.456C81.1705 336.116 81.0563 335.712 81.0563 335.243C81.0563 334.464 81.3844 333.805 82.0407 333.266C82.7028 332.727 83.5465 332.457 84.5719 332.457C85.65 332.457 86.5231 332.736 87.1911 333.292C87.8649 333.849 88.2018 334.561 88.2018 335.428H86.567C86.567 334.983 86.3766 334.599 85.9957 334.277C85.6207 333.954 85.1461 333.793 84.5719 333.793C83.9801 333.793 83.5172 333.922 83.1832 334.18C82.8493 334.438 82.6823 334.775 82.6823 335.191C82.6823 335.583 82.8375 335.879 83.1481 336.078C83.4586 336.278 84.0182 336.468 84.8268 336.65C85.6413 336.831 86.3004 337.048 86.8043 337.3C87.3082 337.552 87.6803 337.857 87.9205 338.214C88.1666 338.566 88.2897 338.996 88.2897 339.506C88.2897 340.356 87.9498 341.038 87.2702 341.554C86.5905 342.064 85.7086 342.319 84.6246 342.319C83.8629 342.319 83.1891 342.184 82.6032 341.914C82.0172 341.645 81.5573 341.27 81.2233 340.789C80.8952 340.303 80.7311 339.779 80.7311 339.216H82.3571C82.3864 339.761 82.6032 340.195 83.0075 340.517C83.4176 340.833 83.9567 340.991 84.6246 340.991C85.2399 340.991 85.7321 340.868 86.1012 340.622C86.4762 340.37 86.6637 340.036 86.6637 339.62ZM98.6871 340.991C99.2672 340.991 99.7741 340.816 100.208 340.464C100.641 340.113 100.881 339.673 100.928 339.146H102.466C102.437 339.691 102.25 340.209 101.904 340.701C101.558 341.194 101.095 341.586 100.515 341.879C99.9411 342.172 99.3317 342.319 98.6871 342.319C97.3922 342.319 96.361 341.888 95.5934 341.027C94.8317 340.159 94.4508 338.976 94.4508 337.476V337.203C94.4508 336.278 94.6207 335.454 94.9606 334.734C95.3004 334.013 95.7868 333.453 96.4196 333.055C97.0582 332.657 97.8112 332.457 98.6784 332.457C99.7448 332.457 100.63 332.777 101.333 333.415C102.042 334.054 102.42 334.883 102.466 335.903H100.928C100.881 335.287 100.647 334.783 100.225 334.391C99.8092 333.992 99.2936 333.793 98.6784 333.793C97.8522 333.793 97.2106 334.092 96.7536 334.69C96.3024 335.282 96.0768 336.14 96.0768 337.265V337.573C96.0768 338.668 96.3024 339.512 96.7536 340.104C97.2047 340.696 97.8493 340.991 98.6871 340.991ZM103.864 337.3C103.864 336.368 104.046 335.531 104.409 334.786C104.778 334.042 105.288 333.468 105.938 333.064C106.594 332.659 107.341 332.457 108.179 332.457C109.474 332.457 110.52 332.906 111.317 333.802C112.12 334.699 112.521 335.891 112.521 337.379V337.493C112.521 338.419 112.342 339.251 111.985 339.99C111.633 340.722 111.127 341.293 110.464 341.703C109.808 342.114 109.052 342.319 108.197 342.319C106.908 342.319 105.862 341.87 105.059 340.974C104.262 340.077 103.864 338.891 103.864 337.414V337.3ZM105.499 337.493C105.499 338.548 105.742 339.395 106.228 340.033C106.72 340.672 107.377 340.991 108.197 340.991C109.023 340.991 109.679 340.669 110.166 340.025C110.652 339.374 110.895 338.466 110.895 337.3C110.895 336.257 110.646 335.413 110.148 334.769C109.656 334.118 109 333.793 108.179 333.793C107.377 333.793 106.729 334.113 106.237 334.751C105.745 335.39 105.499 336.304 105.499 337.493ZM116.089 332.633L116.133 333.688C116.831 332.867 117.771 332.457 118.955 332.457C120.285 332.457 121.19 332.967 121.671 333.987C121.987 333.53 122.397 333.16 122.901 332.879C123.411 332.598 124.011 332.457 124.703 332.457C126.789 332.457 127.849 333.562 127.884 335.771V342.143H126.258V335.867C126.258 335.188 126.103 334.681 125.793 334.347C125.482 334.007 124.961 333.837 124.228 333.837C123.625 333.837 123.124 334.019 122.725 334.382C122.327 334.74 122.095 335.223 122.031 335.832V342.143H120.396V335.911C120.396 334.529 119.719 333.837 118.366 333.837C117.299 333.837 116.57 334.291 116.177 335.199V342.143H114.551V332.633H116.089ZM136.753 337.133V342.143H135.065V329.346H139.785C141.185 329.346 142.281 329.703 143.072 330.418C143.869 331.133 144.267 332.079 144.267 333.257C144.267 334.499 143.878 335.457 143.098 336.131C142.325 336.799 141.214 337.133 139.767 337.133H136.753ZM136.753 335.753H139.785C140.687 335.753 141.379 335.542 141.859 335.12C142.339 334.693 142.58 334.077 142.58 333.275C142.58 332.513 142.339 331.904 141.859 331.447C141.379 330.99 140.719 330.752 139.881 330.735H136.753V335.753ZM149.989 342.319C148.7 342.319 147.651 341.897 146.842 341.053C146.034 340.203 145.63 339.07 145.63 337.652V337.353C145.63 336.409 145.808 335.569 146.166 334.83C146.529 334.086 147.033 333.506 147.677 333.09C148.328 332.668 149.031 332.457 149.787 332.457C151.023 332.457 151.984 332.865 152.67 333.679C153.355 334.493 153.698 335.659 153.698 337.177V337.854H147.256C147.279 338.791 147.551 339.55 148.073 340.13C148.6 340.704 149.268 340.991 150.077 340.991C150.651 340.991 151.137 340.874 151.536 340.64C151.934 340.406 152.283 340.095 152.582 339.708L153.575 340.482C152.778 341.706 151.583 342.319 149.989 342.319ZM149.787 333.793C149.131 333.793 148.58 334.033 148.134 334.514C147.689 334.989 147.414 335.657 147.308 336.518H152.072V336.395C152.025 335.569 151.802 334.93 151.404 334.479C151.006 334.022 150.466 333.793 149.787 333.793ZM161.125 339.62C161.125 339.181 160.958 338.841 160.624 338.601C160.296 338.355 159.718 338.144 158.892 337.968C158.072 337.792 157.419 337.581 156.932 337.335C156.452 337.089 156.094 336.796 155.86 336.456C155.631 336.116 155.517 335.712 155.517 335.243C155.517 334.464 155.845 333.805 156.502 333.266C157.164 332.727 158.007 332.457 159.033 332.457C160.111 332.457 160.984 332.736 161.652 333.292C162.326 333.849 162.663 334.561 162.663 335.428H161.028C161.028 334.983 160.838 334.599 160.457 334.277C160.082 333.954 159.607 333.793 159.033 333.793C158.441 333.793 157.978 333.922 157.644 334.18C157.31 334.438 157.143 334.775 157.143 335.191C157.143 335.583 157.298 335.879 157.609 336.078C157.92 336.278 158.479 336.468 159.288 336.65C160.102 336.831 160.761 337.048 161.265 337.3C161.769 337.552 162.141 337.857 162.381 338.214C162.628 338.566 162.751 338.996 162.751 339.506C162.751 340.356 162.411 341.038 161.731 341.554C161.051 342.064 160.17 342.319 159.086 342.319C158.324 342.319 157.65 342.184 157.064 341.914C156.478 341.645 156.018 341.27 155.684 340.789C155.356 340.303 155.192 339.779 155.192 339.216H156.818C156.847 339.761 157.064 340.195 157.468 340.517C157.879 340.833 158.418 340.991 159.086 340.991C159.701 340.991 160.193 340.868 160.562 340.622C160.937 340.37 161.125 340.036 161.125 339.62ZM170.406 339.62C170.406 339.181 170.239 338.841 169.905 338.601C169.577 338.355 169 338.144 168.173 337.968C167.353 337.792 166.7 337.581 166.214 337.335C165.733 337.089 165.376 336.796 165.141 336.456C164.913 336.116 164.798 335.712 164.798 335.243C164.798 334.464 165.127 333.805 165.783 333.266C166.445 332.727 167.289 332.457 168.314 332.457C169.392 332.457 170.265 332.736 170.933 333.292C171.607 333.849 171.944 334.561 171.944 335.428H170.309C170.309 334.983 170.119 334.599 169.738 334.277C169.363 333.954 168.888 333.793 168.314 333.793C167.722 333.793 167.259 333.922 166.925 334.18C166.591 334.438 166.424 334.775 166.424 335.191C166.424 335.583 166.58 335.879 166.89 336.078C167.201 336.278 167.76 336.468 168.569 336.65C169.383 336.831 170.043 337.048 170.547 337.3C171.05 337.552 171.423 337.857 171.663 338.214C171.909 338.566 172.032 338.996 172.032 339.506C172.032 340.356 171.692 341.038 171.012 341.554C170.333 342.064 169.451 342.319 168.367 342.319C167.605 342.319 166.931 342.184 166.345 341.914C165.759 341.645 165.299 341.27 164.965 340.789C164.637 340.303 164.473 339.779 164.473 339.216H166.099C166.129 339.761 166.345 340.195 166.75 340.517C167.16 340.833 167.699 340.991 168.367 340.991C168.982 340.991 169.474 340.868 169.843 340.622C170.218 340.37 170.406 340.036 170.406 339.62ZM173.719 337.3C173.719 336.368 173.901 335.531 174.264 334.786C174.633 334.042 175.143 333.468 175.794 333.064C176.45 332.659 177.197 332.457 178.035 332.457C179.33 332.457 180.376 332.906 181.173 333.802C181.975 334.699 182.377 335.891 182.377 337.379V337.493C182.377 338.419 182.198 339.251 181.84 339.99C181.489 340.722 180.982 341.293 180.32 341.703C179.664 342.114 178.908 342.319 178.052 342.319C176.763 342.319 175.717 341.87 174.915 340.974C174.118 340.077 173.719 338.891 173.719 337.414V337.3ZM175.354 337.493C175.354 338.548 175.597 339.395 176.084 340.033C176.576 340.672 177.232 340.991 178.052 340.991C178.879 340.991 179.535 340.669 180.021 340.025C180.507 339.374 180.751 338.466 180.751 337.3C180.751 336.257 180.502 335.413 180.004 334.769C179.511 334.118 178.855 333.793 178.035 333.793C177.232 333.793 176.585 334.113 176.092 334.751C175.6 335.39 175.354 336.304 175.354 337.493ZM190.287 342.143C190.193 341.955 190.117 341.621 190.058 341.141C189.302 341.926 188.4 342.319 187.351 342.319C186.414 342.319 185.643 342.055 185.04 341.528C184.442 340.994 184.143 340.321 184.143 339.506C184.143 338.516 184.518 337.748 185.268 337.203C186.024 336.653 187.085 336.377 188.45 336.377H190.032V335.63C190.032 335.062 189.862 334.611 189.522 334.277C189.182 333.937 188.681 333.767 188.019 333.767C187.439 333.767 186.953 333.913 186.56 334.206C186.168 334.499 185.971 334.854 185.971 335.27H184.337C184.337 334.795 184.504 334.338 184.838 333.899C185.177 333.453 185.634 333.102 186.209 332.844C186.789 332.586 187.424 332.457 188.116 332.457C189.212 332.457 190.07 332.733 190.691 333.283C191.312 333.828 191.634 334.581 191.658 335.542V339.919C191.658 340.792 191.769 341.487 191.992 342.002V342.143H190.287ZM187.589 340.904C188.098 340.904 188.582 340.772 189.039 340.508C189.496 340.244 189.827 339.902 190.032 339.48V337.529H188.757C186.765 337.529 185.769 338.112 185.769 339.278C185.769 339.787 185.939 340.186 186.279 340.473C186.619 340.76 187.055 340.904 187.589 340.904ZM195.973 342.143H194.347V328.643H195.973V342.143Z" fill="#E24320"/>
<ellipse rx="50.4911" ry="48.1607" transform="matrix(-1 0 0 1 107.973 257.893)" fill="#C4C4C4"/>
<rect width="46.6071" height="250.125" rx="23.3036" transform="matrix(-1 0 0 1 132.054 0)" fill="#C4C4C4"/>
<ellipse rx="50.4911" ry="48.1607" transform="matrix(-1 0 0 1 107.973 257.893)" fill="#E24320"/>
<rect width="46.6071" height="105.643" transform="matrix(-1 0 0 1 132.054 144.482)" fill="#E24320"/>
<path d="M34.5323 102.075C34.337 101.88 34.0204 101.88 33.8252 102.075L30.6432 105.257C30.4479 105.452 30.4479 105.769 30.6432 105.964C30.8384 106.159 31.155 106.159 31.3503 105.964L34.1787 103.136L37.0071 105.964C37.2024 106.159 37.519 106.159 37.7142 105.964C37.9095 105.769 37.9095 105.452 37.7142 105.257L34.5323 102.075ZM33.6787 102.429L33.6787 103.419L34.6787 103.419L34.6787 102.429L33.6787 102.429ZM33.6787 105.4L33.6787 107.381L34.6787 107.381L34.6787 105.4L33.6787 105.4ZM33.6787 109.361L33.6787 111.342L34.6787 111.342L34.6787 109.361L33.6787 109.361ZM33.6787 113.323L33.6787 115.304L34.6787 115.304L34.6787 113.323L33.6787 113.323ZM33.6787 117.285L33.6787 119.265L34.6787 119.265L34.6787 117.285L33.6787 117.285ZM33.6787 121.246L33.6787 123.227L34.6787 123.227L34.6787 121.246L33.6787 121.246ZM33.6787 125.208L33.6787 127.189L34.6787 127.189L34.6787 125.208L33.6787 125.208ZM33.6787 129.169L33.6787 131.15L34.6787 131.15L34.6787 129.169L33.6787 129.169ZM33.6787 133.131L33.6787 135.112L34.6787 135.112L34.6787 133.131L33.6787 133.131ZM33.6787 137.093L33.6787 139.073L34.6787 139.073L34.6787 137.093L33.6787 137.093ZM33.6787 141.054L33.6787 143.035L34.6787 143.035L34.6787 141.054L33.6787 141.054ZM33.6787 145.016L33.6787 146.997L34.6787 146.997L34.6787 145.016L33.6787 145.016ZM33.6787 148.977L33.6787 150.958L34.6787 150.958L34.6787 148.977L33.6787 148.977ZM33.6787 152.939L33.6787 154.92L34.6787 154.92L34.6787 152.939L33.6787 152.939ZM33.6787 156.901L33.6787 158.882L34.6787 158.882L34.6787 156.901L33.6787 156.901ZM33.6787 160.862L33.6787 162.843L34.6787 162.843L34.6787 160.862L33.6787 160.862ZM33.6787 164.824L33.6787 166.805L34.6787 166.805L34.6787 164.824L33.6787 164.824ZM33.6787 168.786L33.6787 170.766L34.6787 170.766L34.6787 168.786L33.6787 168.786ZM33.6787 172.747L33.6787 174.728L34.6787 174.728L34.6787 172.747L33.6787 172.747ZM33.6787 176.709L33.6787 178.69L34.6787 178.69L34.6787 176.709L33.6787 176.709ZM33.6787 180.67L33.6787 182.651L34.6787 182.651L34.6787 180.67L33.6787 180.67ZM33.6787 184.632L33.6787 186.613L34.6787 186.613L34.6787 184.632L33.6787 184.632ZM33.6787 188.594L33.6787 190.574L34.6787 190.574L34.6787 188.594L33.6787 188.594ZM33.6787 192.555L33.6787 194.536L34.6787 194.536L34.6787 192.555L33.6787 192.555ZM33.6787 196.517L33.6787 198.498L34.6787 198.498L34.6787 196.517L33.6787 196.517ZM33.6787 200.478L33.6787 202.459L34.6787 202.459L34.6787 200.478L33.6787 200.478ZM33.6787 204.44L33.6787 206.421L34.6787 206.421L34.6787 204.44L33.6787 204.44ZM33.6787 208.402L33.6787 210.382L34.6787 210.382L34.6787 208.402L33.6787 208.402ZM33.6787 212.363L33.6787 214.344L34.6787 214.344L34.6787 212.363L33.6787 212.363ZM33.6787 216.325L33.6787 218.306L34.6787 218.306L34.6787 216.325L33.6787 216.325ZM33.6787 220.286L33.6787 222.267L34.6787 222.267L34.6787 220.286L33.6787 220.286ZM33.6787 224.248L33.6787 226.229L34.6787 226.229L34.6787 224.248L33.6787 224.248ZM33.6787 228.21L33.6787 230.19L34.6787 230.19L34.6787 228.21L33.6787 228.21ZM33.6787 232.171L33.6787 234.152L34.6787 234.152L34.6787 232.171L33.6787 232.171ZM33.6787 236.133L33.6787 238.114L34.6787 238.114L34.6787 236.133L33.6787 236.133ZM33.6787 240.094L33.6787 242.075L34.6787 242.075L34.6787 240.094L33.6787 240.094ZM33.6787 244.056L33.6787 246.037L34.6787 246.037L34.6787 244.056L33.6787 244.056ZM33.6787 248.018L33.6787 249.999L34.6787 249.999L34.6787 248.018L33.6787 248.018ZM33.6787 251.979L33.6787 253.96L34.6787 253.96L34.6787 251.979L33.6787 251.979ZM33.6787 255.941L33.6787 257.922L34.6787 257.922L34.6787 255.941L33.6787 255.941ZM33.6787 259.903L33.6787 260.893L34.6787 260.893L34.6787 259.903L33.6787 259.903Z" fill="#579EA8"/>
<path d="M223.345 155.766C224.32 155.766 225.172 155.93 225.901 156.258C226.626 156.586 227.18 157.051 227.562 157.652C227.945 158.254 228.137 158.956 228.137 159.758C228.137 160.542 227.945 161.237 227.562 161.843C227.175 162.449 226.626 162.921 225.915 163.258C225.2 163.59 224.372 163.761 223.434 163.771L222.716 163.771C221.759 163.771 220.913 163.604 220.18 163.271C219.446 162.939 218.885 162.469 218.498 161.863C218.106 161.253 217.91 160.555 217.91 159.771C217.91 158.974 218.104 158.272 218.491 157.666C218.874 157.055 219.432 156.586 220.166 156.258C220.895 155.93 221.745 155.766 222.716 155.766L223.345 155.766ZM222.702 157.071C221.522 157.071 220.617 157.308 219.988 157.782C219.355 158.256 219.038 158.919 219.038 159.771C219.038 160.601 219.355 161.255 219.988 161.733C220.617 162.207 221.492 162.451 222.613 162.465L223.345 162.465C224.489 162.465 225.389 162.226 226.045 161.747C226.697 161.264 227.022 160.601 227.022 159.758C227.022 158.91 226.715 158.254 226.1 157.789C225.48 157.324 224.593 157.085 223.44 157.071L222.702 157.071ZM221.738 150.42C221.706 150.611 221.69 150.819 221.69 151.042C221.69 151.871 222.044 152.434 222.75 152.73L228 152.73L228 153.995L220.604 153.995L220.604 152.765L221.458 152.744C220.797 152.329 220.467 151.742 220.467 150.98C220.467 150.734 220.499 150.548 220.562 150.42L221.738 150.42ZM227.104 146.421C227.104 145.97 226.968 145.576 226.694 145.238C226.421 144.901 226.079 144.714 225.669 144.678L225.669 143.481C226.093 143.504 226.496 143.65 226.879 143.919C227.262 144.188 227.567 144.548 227.795 144.999C228.023 145.446 228.137 145.92 228.137 146.421C228.137 147.428 227.802 148.23 227.132 148.827C226.457 149.42 225.537 149.716 224.37 149.716L224.158 149.716C223.438 149.716 222.798 149.584 222.237 149.319C221.677 149.055 221.242 148.677 220.932 148.185C220.622 147.688 220.467 147.102 220.467 146.428C220.467 145.598 220.715 144.91 221.212 144.363C221.709 143.812 222.354 143.518 223.146 143.481L223.146 144.678C222.668 144.714 222.276 144.896 221.971 145.225C221.661 145.548 221.506 145.949 221.506 146.428C221.506 147.07 221.738 147.569 222.203 147.925C222.663 148.276 223.331 148.451 224.206 148.451L224.445 148.451C225.298 148.451 225.954 148.276 226.414 147.925C226.874 147.574 227.104 147.073 227.104 146.421ZM228.062 146.216L228.417 146.298C228.54 145.601 228.934 145.252 229.6 145.252C230.042 145.252 230.39 145.434 230.646 145.799C230.905 146.163 231.035 146.672 231.035 147.323L230.304 147.371C230.304 147.011 230.244 146.733 230.126 146.537C230.007 146.337 229.841 146.236 229.627 146.236C229.426 146.236 229.278 146.309 229.183 146.455C229.087 146.601 229.019 146.897 228.978 147.344L228.062 147.125L228.062 146.216ZM228 137.493C227.854 137.566 227.594 137.625 227.221 137.671C227.831 138.259 228.137 138.961 228.137 139.776C228.137 140.506 227.932 141.105 227.521 141.574C227.107 142.039 226.583 142.271 225.949 142.271C225.179 142.271 224.582 141.98 224.158 141.396C223.73 140.809 223.516 139.984 223.516 138.922L223.516 137.691L222.935 137.691C222.493 137.691 222.142 137.824 221.882 138.088C221.618 138.352 221.485 138.742 221.485 139.257C221.485 139.708 221.599 140.086 221.827 140.392C222.055 140.697 222.331 140.85 222.654 140.85L222.654 142.121C222.285 142.121 221.93 141.991 221.588 141.731C221.242 141.467 220.968 141.112 220.768 140.665C220.567 140.214 220.467 139.719 220.467 139.182C220.467 138.329 220.681 137.662 221.109 137.179C221.533 136.696 222.119 136.445 222.866 136.427L226.271 136.427C226.95 136.427 227.49 136.34 227.891 136.167L228 136.167L228 137.493ZM227.036 139.592C227.036 139.195 226.934 138.819 226.729 138.464C226.523 138.108 226.257 137.851 225.929 137.691L224.411 137.691L224.411 138.683C224.411 140.232 224.865 141.007 225.771 141.007C226.168 141.007 226.478 140.875 226.701 140.61C226.924 140.346 227.036 140.007 227.036 139.592ZM220.604 133.255L221.424 133.221C220.786 132.678 220.467 131.947 220.467 131.026C220.467 129.992 220.863 129.288 221.656 128.914C221.301 128.668 221.014 128.349 220.795 127.957C220.576 127.561 220.467 127.093 220.467 126.556C220.467 124.933 221.326 124.108 223.044 124.081L228 124.081L228 125.346L223.119 125.346C222.59 125.346 222.196 125.466 221.937 125.708C221.672 125.95 221.54 126.355 221.54 126.925C221.54 127.394 221.681 127.784 221.964 128.094C222.242 128.404 222.618 128.584 223.092 128.634L228 128.634L228 129.905L223.153 129.905C222.078 129.905 221.54 130.432 221.54 131.484C221.54 132.314 221.893 132.881 222.6 133.187L228 133.187L228 134.451L220.604 134.451L220.604 133.255ZM228.137 119.098C228.137 120.1 227.809 120.916 227.152 121.545C226.492 122.174 225.61 122.488 224.507 122.488L224.274 122.488C223.541 122.488 222.887 122.349 222.312 122.071C221.734 121.789 221.283 121.397 220.959 120.896C220.631 120.39 220.467 119.843 220.467 119.255C220.467 118.293 220.784 117.546 221.417 117.013C222.05 116.479 222.957 116.213 224.138 116.213L224.664 116.213L224.664 121.224C225.393 121.205 225.983 120.993 226.435 120.588C226.881 120.178 227.104 119.658 227.104 119.029C227.104 118.583 227.013 118.204 226.831 117.895C226.649 117.585 226.407 117.313 226.106 117.081L226.708 116.309C227.66 116.928 228.137 117.858 228.137 119.098ZM221.506 119.255C221.506 119.765 221.693 120.194 222.066 120.54C222.436 120.886 222.955 121.101 223.625 121.183L223.625 117.478L223.529 117.478C222.887 117.514 222.39 117.687 222.039 117.997C221.684 118.307 221.506 118.726 221.506 119.255ZM220.604 113.547L221.533 113.506C220.822 112.941 220.467 112.202 220.467 111.291C220.467 109.728 221.349 108.939 223.112 108.926L228 108.926L228 110.19L223.105 110.19C222.572 110.195 222.178 110.318 221.923 110.56C221.668 110.797 221.54 111.168 221.54 111.674C221.54 112.084 221.649 112.444 221.868 112.754C222.087 113.064 222.374 113.305 222.729 113.479L228 113.479L228 114.743L220.604 114.743L220.604 113.547ZM218.812 105.303L220.604 105.303L220.604 103.922L221.581 103.922L221.581 105.303L226.168 105.303C226.464 105.303 226.687 105.241 226.838 105.118C226.984 104.995 227.057 104.785 227.057 104.489C227.057 104.343 227.029 104.143 226.975 103.888L228 103.888C228.091 104.22 228.137 104.544 228.137 104.858C228.137 105.424 227.966 105.85 227.624 106.137C227.282 106.424 226.797 106.567 226.168 106.567L221.581 106.567L221.581 107.914L220.604 107.914L220.604 106.567L218.812 106.567L218.812 105.303ZM224.233 102.91C223.509 102.91 222.857 102.769 222.278 102.486C221.7 102.199 221.253 101.803 220.938 101.297C220.624 100.786 220.467 100.205 220.467 99.5537C220.467 98.5465 220.815 97.7331 221.513 97.1133C222.21 96.4889 223.137 96.1768 224.295 96.1768L224.384 96.1768C225.104 96.1768 225.751 96.3158 226.325 96.5937C226.895 96.8672 227.339 97.2614 227.658 97.7764C227.977 98.2868 228.137 98.8747 228.137 99.54C228.137 100.543 227.788 101.356 227.091 101.98C226.394 102.6 225.471 102.91 224.322 102.91L224.233 102.91ZM224.384 101.639C225.204 101.639 225.863 101.45 226.359 101.071C226.856 100.688 227.104 100.178 227.104 99.54C227.104 98.8975 226.854 98.387 226.353 98.0088C225.847 97.6305 225.14 97.4414 224.233 97.4414C223.422 97.4414 222.766 97.6351 222.265 98.0225C221.759 98.4053 221.506 98.9157 221.506 99.5537C221.506 100.178 221.754 100.682 222.251 101.064C222.748 101.447 223.459 101.639 224.384 101.639Z" fill="#787878"/>
<path d="M205.072 3.10712L205.072 257.893M204.149 3.10712L175.554 3.10712M204.149 257.893H175.554" stroke="#E0E0E0" stroke-width="2" stroke-linecap="round"/>
<path d="M8.46875 203.514L15.4297 200.725L8.46875 197.936L8.46875 196.477L17 196.477L17 197.602L13.6777 197.602L10.0918 197.497L17 200.298L17 201.159L10.1094 203.954L13.6777 203.843L17 203.843L17 204.968L8.46875 204.968L8.46875 203.514ZM17 190.747C16.875 190.809 16.6523 190.86 16.332 190.899C16.8555 191.403 17.1172 192.005 17.1172 192.704C17.1172 193.329 16.9414 193.843 16.5898 194.245C16.2344 194.643 15.7852 194.843 15.2422 194.843C14.582 194.843 14.0703 194.593 13.707 194.093C13.3398 193.589 13.1562 192.882 13.1562 191.972L13.1562 190.917L12.6582 190.917C12.2793 190.917 11.9785 191.03 11.7559 191.257C11.5293 191.483 11.416 191.817 11.416 192.259C11.416 192.645 11.5137 192.97 11.709 193.231C11.9043 193.493 12.1406 193.624 12.418 193.624L12.418 194.714C12.1016 194.714 11.7969 194.602 11.5039 194.38C11.207 194.153 10.9727 193.848 10.8008 193.466C10.6289 193.079 10.543 192.655 10.543 192.194C10.543 191.464 10.7266 190.891 11.0937 190.477C11.457 190.063 11.959 189.848 12.5996 189.833L15.5176 189.833C16.0996 189.833 16.5625 189.759 16.9062 189.61L17 189.61L17 190.747ZM16.1738 192.546C16.1738 192.206 16.0859 191.884 15.9102 191.579C15.7344 191.274 15.5059 191.054 15.2246 190.917L13.9238 190.917L13.9238 191.766C13.9238 193.095 14.3125 193.759 15.0898 193.759C15.4297 193.759 15.6953 193.645 15.8867 193.419C16.0781 193.192 16.1738 192.901 16.1738 192.546ZM8 191.544L8 190.231L9.72266 191.802L9.72266 192.675L8 191.544ZM12.9746 186.007L10.6602 184.6L10.6602 183.335L13.7949 185.409L17 183.27L17 184.524L14.627 185.989L17 187.454L17 188.714L13.7949 186.575L10.6602 188.649L10.6602 187.395L12.9746 186.007ZM17 181.003L17 182.087L10.6602 182.087L10.6602 181.003L17 181.003ZM8.97851 182.175C8.80273 182.175 8.6543 182.122 8.5332 182.016C8.41211 181.907 8.35156 181.747 8.35156 181.536C8.35156 181.325 8.41211 181.165 8.5332 181.056C8.6543 180.946 8.80273 180.891 8.97851 180.891C9.1543 180.891 9.30078 180.946 9.41797 181.056C9.53515 181.165 9.59375 181.325 9.59375 181.536C9.59375 181.747 9.53515 181.907 9.41797 182.016C9.30078 182.122 9.1543 182.175 8.97851 182.175ZM10.6602 178.243L11.3633 178.214C10.8164 177.749 10.543 177.122 10.543 176.333C10.543 175.446 10.8828 174.843 11.5625 174.522C11.2578 174.311 11.0117 174.038 10.8242 173.702C10.6367 173.362 10.543 172.962 10.543 172.501C10.543 171.11 11.2793 170.403 12.752 170.38L17 170.38L17 171.464L12.8164 171.464C12.3633 171.464 12.0254 171.567 11.8027 171.774C11.5762 171.981 11.4629 172.329 11.4629 172.817C11.4629 173.22 11.584 173.554 11.8262 173.819C12.0645 174.085 12.3867 174.239 12.793 174.282L17 174.282L17 175.372L12.8457 175.372C11.9238 175.372 11.4629 175.823 11.4629 176.725C11.4629 177.436 11.7656 177.923 12.3711 178.184L17 178.184L17 179.268L10.6602 179.268L10.6602 178.243ZM13.7715 169.026C13.1504 169.026 12.5918 168.905 12.0957 168.663C11.5996 168.417 11.2168 168.077 10.9473 167.643C10.6777 167.206 10.543 166.708 10.543 166.149C10.543 165.286 10.8418 164.589 11.4395 164.057C12.0371 163.522 12.832 163.255 13.8242 163.255L13.9004 163.255C14.5176 163.255 15.0723 163.374 15.5645 163.612C16.0527 163.847 16.4336 164.184 16.707 164.626C16.9805 165.063 17.1172 165.567 17.1172 166.138C17.1172 166.997 16.8184 167.694 16.2207 168.229C15.623 168.761 14.832 169.026 13.8477 169.026L13.7715 169.026ZM13.9004 167.936C14.6035 167.936 15.168 167.774 15.5937 167.45C16.0195 167.122 16.2324 166.684 16.2324 166.138C16.2324 165.587 16.0176 165.149 15.5879 164.825C15.1543 164.501 14.5488 164.339 13.7715 164.339C13.0762 164.339 12.5137 164.505 12.084 164.837C11.6504 165.165 11.4336 165.602 11.4336 166.149C11.4336 166.684 11.6465 167.116 12.0723 167.444C12.498 167.772 13.1074 167.936 13.9004 167.936ZM17 157.741L17 158.825L8 158.825L8 157.741L17 157.741ZM17.1172 153.37C17.1172 154.229 16.8359 154.929 16.2734 155.468C15.707 156.007 14.9512 156.276 14.0059 156.276L13.8066 156.276C13.1777 156.276 12.6172 156.157 12.125 155.919C11.6289 155.677 11.2422 155.341 10.9648 154.911C10.6836 154.477 10.543 154.009 10.543 153.505C10.543 152.681 10.8145 152.04 11.3574 151.583C11.9004 151.126 12.6777 150.897 13.6895 150.897L14.1406 150.897L14.1406 155.192C14.7656 155.177 15.2715 154.995 15.6582 154.647C16.041 154.296 16.2324 153.85 16.2324 153.311C16.2324 152.929 16.1543 152.604 15.998 152.339C15.8418 152.073 15.6348 151.841 15.377 151.641L15.8926 150.979C16.709 151.511 17.1172 152.307 17.1172 153.37ZM11.4336 153.505C11.4336 153.942 11.5937 154.309 11.9141 154.606C12.2305 154.903 12.6758 155.087 13.25 155.157L13.25 151.981L13.168 151.981C12.6172 152.013 12.1914 152.161 11.8906 152.427C11.5859 152.692 11.4336 153.052 11.4336 153.505ZM13.7773 149.895C12.7891 149.895 12.0039 149.667 11.4219 149.21C10.8359 148.753 10.543 148.147 10.543 147.393C10.543 146.62 10.8164 146.016 11.3633 145.583L10.6602 145.53L10.6602 144.54L16.8477 144.54C17.668 144.54 18.3145 144.784 18.7871 145.272C19.2598 145.757 19.4961 146.409 19.4961 147.229C19.4961 147.686 19.3984 148.134 19.2031 148.571C19.0078 149.009 18.7402 149.343 18.4004 149.573L17.75 149.011C18.3242 148.546 18.6113 147.977 18.6113 147.306C18.6113 146.778 18.4629 146.368 18.166 146.075C17.8691 145.778 17.4512 145.63 16.9121 145.63L16.3672 145.63C16.8672 146.063 17.1172 146.655 17.1172 147.405C17.1172 148.147 16.8184 148.749 16.2207 149.21C15.623 149.667 14.8086 149.895 13.7773 149.895ZM13.9004 148.806C14.6152 148.806 15.1777 148.659 15.5879 148.366C15.9941 148.073 16.1973 147.663 16.1973 147.136C16.1973 146.452 15.8867 145.95 15.2656 145.63L12.3711 145.63C11.7656 145.962 11.4629 146.46 11.4629 147.124C11.4629 147.651 11.668 148.063 12.0781 148.36C12.4883 148.657 13.0957 148.806 13.9004 148.806ZM17 138.985C16.875 139.048 16.6523 139.098 16.332 139.138C16.8555 139.641 17.1172 140.243 17.1172 140.942C17.1172 141.567 16.9414 142.081 16.5898 142.483C16.2344 142.882 15.7852 143.081 15.2422 143.081C14.582 143.081 14.0703 142.831 13.707 142.331C13.3398 141.827 13.1562 141.12 13.1562 140.21L13.1562 139.155L12.6582 139.155C12.2793 139.155 11.9785 139.268 11.7559 139.495C11.5293 139.722 11.416 140.056 11.416 140.497C11.416 140.884 11.5137 141.208 11.709 141.47C11.9043 141.731 12.1406 141.862 12.418 141.862L12.418 142.952C12.1016 142.952 11.7969 142.841 11.5039 142.618C11.207 142.391 10.9727 142.087 10.8008 141.704C10.6289 141.317 10.543 140.893 10.543 140.432C10.543 139.702 10.7266 139.13 11.0937 138.716C11.457 138.302 11.959 138.087 12.5996 138.071L15.5176 138.071C16.0996 138.071 16.5625 137.997 16.9062 137.848L17 137.848L17 138.985ZM16.1738 140.784C16.1738 140.444 16.0859 140.122 15.9102 139.817C15.7344 139.513 15.5059 139.292 15.2246 139.155L13.9238 139.155L13.9238 140.005C13.9238 141.333 14.3125 141.997 15.0898 141.997C15.4297 141.997 15.6953 141.884 15.8867 141.657C16.0781 141.431 16.1738 141.139 16.1738 140.784ZM17 135.194L17 136.278L8 136.278L8 135.194L17 135.194Z" fill="#579EA8"/>
<path d="M27.2715 80.1064V81.0293H27.1484C25.6191 81.0293 24.415 81.4805 23.5361 82.3828C22.6572 83.2793 22.1709 84.5273 22.0771 86.127C22.4287 85.6406 22.877 85.2656 23.4219 85.002C23.9668 84.7324 24.5762 84.5977 25.25 84.5977C26.375 84.5977 27.2686 84.9873 27.9307 85.7666C28.5986 86.54 28.9326 87.5537 28.9326 88.8076C28.9326 89.6396 28.7773 90.3896 28.4668 91.0576C28.1562 91.7256 27.7109 92.2471 27.1309 92.6221C26.5508 92.9912 25.8887 93.1758 25.1445 93.1758C23.9199 93.1758 22.9238 92.7334 22.1562 91.8486C21.3887 90.958 21.0049 89.8096 21.0049 88.4033V87.3486C21.0049 85.0576 21.5264 83.2852 22.5693 82.0312C23.6123 80.7715 25.0918 80.1299 27.0078 80.1064H27.2715ZM25.083 85.5029C24.415 85.5029 23.791 85.7021 23.2109 86.1006C22.6367 86.4932 22.2529 86.9941 22.0596 87.6035V88.5C22.0596 89.6133 22.3437 90.5215 22.9121 91.2246C23.4863 91.9277 24.2305 92.2793 25.1445 92.2793C25.9648 92.2793 26.627 91.9541 27.1309 91.3037C27.6406 90.6533 27.8955 89.833 27.8955 88.8428C27.8955 87.835 27.6406 87.0264 27.1309 86.417C26.627 85.8076 25.9443 85.5029 25.083 85.5029ZM38.7676 87.665C38.7676 89.4697 38.4365 90.8408 37.7744 91.7783C37.1123 92.71 36.1367 93.1758 34.8477 93.1758C33.582 93.1758 32.6123 92.7188 31.9385 91.8047C31.2646 90.8848 30.9189 89.5488 30.9014 87.7969V85.5029C30.9014 83.7041 31.2354 82.3418 31.9033 81.416C32.5713 80.4902 33.5469 80.0273 34.8301 80.0273C36.0957 80.0273 37.0625 80.4756 37.7305 81.3721C38.3984 82.2627 38.7441 83.5781 38.7676 85.3184V87.665ZM37.7129 85.3711C37.7129 83.9062 37.4727 82.7988 36.9922 82.0488C36.5176 81.2988 35.7969 80.9238 34.8301 80.9238C33.8809 80.9238 33.166 81.29 32.6855 82.0225C32.2051 82.7549 31.959 83.8359 31.9473 85.2656V87.7793C31.9473 89.2383 32.1934 90.3545 32.6855 91.1279C33.1836 91.9014 33.9043 92.2881 34.8477 92.2881C35.7852 92.2881 36.4941 91.9102 36.9746 91.1543C37.4609 90.3984 37.707 89.291 37.7129 87.832V85.3711ZM40.7891 82.6641C40.7891 81.9023 41.0234 81.2725 41.4922 80.7744C41.9668 80.2705 42.5674 80.0186 43.2939 80.0186C44.0205 80.0186 44.6182 80.2705 45.0869 80.7744C45.5615 81.2725 45.7988 81.9199 45.7988 82.7168V83.3408C45.7988 84.0908 45.5645 84.7178 45.0957 85.2217C44.6328 85.7197 44.0381 85.9688 43.3115 85.9688C42.5908 85.9688 41.9902 85.7227 41.5098 85.2305C41.0293 84.7383 40.7891 84.0879 40.7891 83.2793V82.6641ZM41.6416 83.3408C41.6416 83.8857 41.791 84.334 42.0898 84.6855C42.3945 85.0371 42.8018 85.2129 43.3115 85.2129C43.8096 85.2129 44.2051 85.0371 44.498 84.6855C44.7969 84.3281 44.9463 83.8682 44.9463 83.3057V82.6641C44.9463 82.1191 44.7939 81.6709 44.4893 81.3193C44.1846 80.9619 43.7861 80.7832 43.2939 80.7832C42.8076 80.7832 42.4092 80.959 42.0986 81.3105C41.7939 81.6621 41.6416 82.1309 41.6416 82.7168V83.3408ZM47.2314 89.8623C47.2314 89.1006 47.4658 88.4707 47.9346 87.9727C48.4092 87.4746 49.0068 87.2256 49.7275 87.2256C50.4482 87.2256 51.0459 87.4746 51.5205 87.9727C52.001 88.4648 52.2412 89.1152 52.2412 89.9238V90.5479C52.2412 91.3096 52.0039 91.9395 51.5293 92.4375C51.0605 92.9355 50.4658 93.1846 49.7451 93.1846C49.0244 93.1846 48.4238 92.9385 47.9434 92.4463C47.4688 91.9482 47.2314 91.3008 47.2314 90.5039V89.8623ZM48.0752 90.5479C48.0752 91.0986 48.2246 91.5498 48.5234 91.9014C48.8281 92.2529 49.2354 92.4287 49.7451 92.4287C50.249 92.4287 50.6475 92.2529 50.9404 91.9014C51.2393 91.5439 51.3887 91.0781 51.3887 90.5039V89.8623C51.3887 89.2998 51.2363 88.8486 50.9316 88.5088C50.6328 88.1631 50.2314 87.9902 49.7275 87.9902C49.2354 87.9902 48.8369 88.1631 48.5322 88.5088C48.2275 88.8545 48.0752 89.3174 48.0752 89.8975V90.5479ZM43.6455 91.9365L42.9863 91.5146L49.2354 81.5127L49.8945 81.9346L43.6455 91.9365Z" fill="#579EA8"/>
<path d="M81.4102 256.632H83.1446C84.0196 256.624 84.711 256.398 85.2188 255.953C85.7344 255.507 85.9923 254.863 85.9923 254.019C85.9923 253.206 85.7774 252.578 85.3477 252.132C84.9258 251.679 84.2774 251.453 83.4024 251.453C82.6368 251.453 82.0079 251.675 81.5157 252.121C81.0235 252.558 80.7774 253.132 80.7774 253.843H77.9298C77.9298 252.968 78.1602 252.171 78.6212 251.453C79.0899 250.734 79.7383 250.175 80.5665 249.777C81.4024 249.371 82.336 249.167 83.3673 249.167C85.0704 249.167 86.4063 249.597 87.3751 250.456C88.3516 251.308 88.8399 252.496 88.8399 254.019C88.8399 254.785 88.5938 255.507 88.1016 256.187C87.6173 256.859 86.9883 257.367 86.2149 257.71C87.1524 258.031 87.8633 258.535 88.3477 259.222C88.8399 259.91 89.086 260.73 89.086 261.683C89.086 263.214 88.5587 264.433 87.504 265.339C86.4571 266.246 85.0782 266.699 83.3673 266.699C81.7266 266.699 80.3829 266.261 79.336 265.386C78.2891 264.511 77.7657 263.347 77.7657 261.894H80.6133C80.6133 262.644 80.8633 263.253 81.3633 263.722C81.8712 264.191 82.5508 264.425 83.4024 264.425C84.2852 264.425 84.9805 264.191 85.4883 263.722C85.9962 263.253 86.2501 262.574 86.2501 261.683C86.2501 260.785 85.9844 260.093 85.4532 259.609C84.9219 259.124 84.1329 258.882 83.086 258.882H81.4102V256.632ZM103.113 250.984L96.293 266.464H93.3048L100.113 251.687H91.2891V249.402H103.113V250.984ZM105.984 270.308L104.449 269.394C104.902 268.683 105.211 268.062 105.375 267.531C105.547 267.007 105.637 266.472 105.645 265.925V263.71H108.211L108.199 265.761C108.191 266.589 107.981 267.417 107.566 268.246C107.16 269.081 106.633 269.769 105.984 270.308ZM121.418 253.902C121.418 254.738 121.203 255.484 120.774 256.14C120.344 256.789 119.758 257.3 119.016 257.675C119.906 258.089 120.59 258.656 121.066 259.374C121.551 260.093 121.793 260.906 121.793 261.812C121.793 263.312 121.285 264.503 120.27 265.386C119.254 266.261 117.902 266.699 116.215 266.699C114.52 266.699 113.16 266.257 112.137 265.374C111.121 264.492 110.613 263.304 110.613 261.812C110.613 260.898 110.856 260.078 111.34 259.351C111.824 258.624 112.504 258.066 113.379 257.675C112.645 257.3 112.063 256.789 111.633 256.14C111.211 255.484 111 254.738 111 253.902C111 252.449 111.469 251.296 112.406 250.445C113.344 249.593 114.609 249.167 116.203 249.167C117.805 249.167 119.074 249.593 120.012 250.445C120.949 251.296 121.418 252.449 121.418 253.902ZM118.945 261.671C118.945 260.828 118.691 260.148 118.184 259.632C117.684 259.109 117.02 258.847 116.191 258.847C115.363 258.847 114.699 259.105 114.199 259.621C113.707 260.136 113.461 260.82 113.461 261.671C113.461 262.507 113.703 263.175 114.188 263.675C114.68 264.175 115.356 264.425 116.215 264.425C117.074 264.425 117.742 264.183 118.219 263.699C118.703 263.214 118.945 262.539 118.945 261.671ZM118.582 254.007C118.582 253.265 118.367 252.656 117.938 252.179C117.508 251.695 116.93 251.453 116.203 251.453C115.477 251.453 114.902 251.683 114.481 252.144C114.059 252.597 113.848 253.218 113.848 254.007C113.848 254.789 114.059 255.41 114.481 255.871C114.91 256.331 115.488 256.562 116.215 256.562C116.941 256.562 117.516 256.331 117.938 255.871C118.367 255.41 118.582 254.789 118.582 254.007ZM124.195 252.683C124.195 251.652 124.527 250.808 125.191 250.152C125.856 249.488 126.727 249.156 127.805 249.156C128.899 249.156 129.774 249.488 130.43 250.152C131.094 250.808 131.426 251.671 131.426 252.742V253.585C131.426 254.609 131.094 255.449 130.43 256.105C129.774 256.761 128.906 257.089 127.828 257.089C126.774 257.089 125.902 256.769 125.215 256.128C124.535 255.48 124.195 254.609 124.195 253.515V252.683ZM126.188 253.585C126.188 254.124 126.336 254.562 126.633 254.898C126.938 255.226 127.336 255.39 127.828 255.39C128.313 255.39 128.703 255.226 129 254.898C129.297 254.562 129.445 254.109 129.445 253.539V252.683C129.445 252.144 129.293 251.706 128.988 251.371C128.691 251.035 128.297 250.867 127.805 250.867C127.313 250.867 126.918 251.039 126.621 251.382C126.332 251.718 126.188 252.164 126.188 252.718V253.585ZM132.399 262.281C132.399 261.234 132.738 260.386 133.418 259.738C134.098 259.089 134.965 258.765 136.02 258.765C137.082 258.765 137.949 259.089 138.621 259.738C139.301 260.386 139.641 261.261 139.641 262.363V263.195C139.641 264.21 139.313 265.05 138.656 265.714C138.008 266.371 137.137 266.699 136.043 266.699C134.949 266.699 134.066 266.374 133.395 265.726C132.731 265.07 132.399 264.206 132.399 263.136V262.281ZM134.391 263.195C134.391 263.726 134.543 264.164 134.848 264.507C135.16 264.843 135.559 265.011 136.043 265.011C136.543 265.011 136.934 264.851 137.215 264.531C137.504 264.203 137.649 263.746 137.649 263.16V262.281C137.649 261.734 137.496 261.296 137.191 260.968C136.887 260.64 136.496 260.476 136.02 260.476C135.535 260.476 135.141 260.64 134.836 260.968C134.539 261.296 134.391 261.749 134.391 262.328V263.195ZM128.414 265.187L126.949 264.343L135.281 251.007L136.746 251.851L128.414 265.187Z" fill="white"/>
<line x1="104.643" y1="41.3929" x2="86.4466" y2="41.3929" stroke="#787878" stroke-width="2" stroke-linecap="round"/>
<line x1="104.643" y1="50.7143" x2="86.4466" y2="50.7143" stroke="#787878" stroke-width="2" stroke-linecap="round"/>
<line x1="113.965" y1="60.0357" x2="86.447" y2="60.0357" stroke="#787878" stroke-width="2" stroke-linecap="round"/>
<line x1="104.643" y1="67.8036" x2="86.4466" y2="67.8036" stroke="#787878" stroke-width="2" stroke-linecap="round"/>
<line x1="104.643" y1="77.125" x2="86.4466" y2="77.125" stroke="#787878" stroke-width="2" stroke-linecap="round"/>
<line x1="113.965" y1="86.4465" x2="86.447" y2="86.4465" stroke="#787878" stroke-width="2" stroke-linecap="round"/>
<line x1="104.643" y1="94.2143" x2="86.4466" y2="94.2143" stroke="#787878" stroke-width="2" stroke-linecap="round"/>
<line x1="104.643" y1="103.536" x2="86.4466" y2="103.536" stroke="#787878" stroke-width="2" stroke-linecap="round"/>
<line x1="113.965" y1="112.857" x2="86.447" y2="112.857" stroke="#787878" stroke-width="2" stroke-linecap="round"/>
<line x1="104.643" y1="148.589" x2="86.4466" y2="148.589" stroke="#787878" stroke-width="2" stroke-linecap="round"/>
<line x1="104.643" y1="122.179" x2="86.4466" y2="122.179" stroke="#787878" stroke-width="2" stroke-linecap="round"/>
<line x1="113.965" y1="131.5" x2="86.447" y2="131.5" stroke="#787878" stroke-width="2" stroke-linecap="round"/>
<line x1="113.965" y1="140.821" x2="86.447" y2="140.821" stroke="#787878" stroke-width="2" stroke-linecap="round"/>
<line x1="104.643" y1="157.911" x2="86.4466" y2="157.911" stroke="#787878" stroke-width="2" stroke-linecap="round"/>
<line x1="113.965" y1="167.232" x2="86.447" y2="167.232" stroke="#787878" stroke-width="2" stroke-linecap="round"/>
<line x1="104.643" y1="201.411" x2="86.4466" y2="201.411" stroke="#787878" stroke-width="2" stroke-linecap="round"/>
<line x1="104.643" y1="175" x2="86.4466" y2="175" stroke="#787878" stroke-width="2" stroke-linecap="round"/>
<line x1="113.965" y1="184.321" x2="86.447" y2="184.321" stroke="#787878" stroke-width="2" stroke-linecap="round"/>
<line x1="113.965" y1="193.643" x2="86.447" y2="193.643" stroke="#787878" stroke-width="2" stroke-linecap="round"/>
<line x1="104.643" y1="210.732" x2="86.4466" y2="210.732" stroke="#787878" stroke-width="2" stroke-linecap="round"/>
</svg>
