<svg width="232" height="354" viewBox="0 0 232 354" fill="none" xmlns="http://www.w3.org/2000/svg">
<path d="M19.7012 344.321C19.2676 344.942 18.6611 345.408 17.8818 345.719C17.1084 346.023 16.2061 346.176 15.1748 346.176C14.1318 346.176 13.2061 345.933 12.3975 345.446C11.5889 344.954 10.9619 344.257 10.5166 343.354C10.0771 342.452 9.85156 341.406 9.83984 340.217V339.101C9.83984 337.173 10.2881 335.679 11.1846 334.618C12.0869 333.558 13.3525 333.027 14.9814 333.027C16.3174 333.027 17.3926 333.37 18.207 334.056C19.0215 334.735 19.5195 335.702 19.7012 336.956H18.0137C17.6973 335.263 16.6895 334.416 14.9902 334.416C13.8594 334.416 13.001 334.814 12.415 335.611C11.835 336.402 11.542 337.551 11.5361 339.057V340.103C11.5361 341.538 11.8643 342.681 12.5205 343.53C13.1768 344.374 14.0645 344.796 15.1836 344.796C15.8164 344.796 16.3701 344.726 16.8447 344.585C17.3193 344.444 17.7119 344.207 18.0225 343.873V340.999H15.0605V339.628H19.7012V344.321ZM28.1387 346C28.0449 345.812 27.9688 345.479 27.9102 344.998C27.1543 345.783 26.252 346.176 25.2031 346.176C24.2656 346.176 23.4951 345.912 22.8916 345.385C22.2939 344.852 21.9951 344.178 21.9951 343.363C21.9951 342.373 22.3701 341.605 23.1201 341.061C23.876 340.51 24.9365 340.234 26.3018 340.234H27.8838V339.487C27.8838 338.919 27.7139 338.468 27.374 338.134C27.0342 337.794 26.5332 337.624 25.8711 337.624C25.291 337.624 24.8047 337.771 24.4121 338.063C24.0195 338.356 23.8232 338.711 23.8232 339.127H22.1885C22.1885 338.652 22.3555 338.195 22.6895 337.756C23.0293 337.311 23.4863 336.959 24.0605 336.701C24.6406 336.443 25.2764 336.314 25.9678 336.314C27.0635 336.314 27.9219 336.59 28.543 337.141C29.1641 337.686 29.4863 338.438 29.5098 339.399V343.776C29.5098 344.649 29.6211 345.344 29.8438 345.859V346H28.1387ZM25.4404 344.761C25.9502 344.761 26.4336 344.629 26.8906 344.365C27.3477 344.102 27.6787 343.759 27.8838 343.337V341.386H26.6094C24.6172 341.386 23.6211 341.969 23.6211 343.135C23.6211 343.645 23.791 344.043 24.1309 344.33C24.4707 344.617 24.9072 344.761 25.4404 344.761ZM37.5957 343.478C37.5957 343.038 37.4287 342.698 37.0947 342.458C36.7666 342.212 36.1895 342.001 35.3633 341.825C34.543 341.649 33.8896 341.438 33.4033 341.192C32.9229 340.946 32.5654 340.653 32.3311 340.313C32.1025 339.974 31.9883 339.569 31.9883 339.101C31.9883 338.321 32.3164 337.662 32.9727 337.123C33.6348 336.584 34.4785 336.314 35.5039 336.314C36.582 336.314 37.4551 336.593 38.123 337.149C38.7969 337.706 39.1338 338.418 39.1338 339.285H37.499C37.499 338.84 37.3086 338.456 36.9277 338.134C36.5527 337.812 36.0781 337.65 35.5039 337.65C34.9121 337.65 34.4492 337.779 34.1152 338.037C33.7812 338.295 33.6143 338.632 33.6143 339.048C33.6143 339.44 33.7695 339.736 34.0801 339.936C34.3906 340.135 34.9502 340.325 35.7588 340.507C36.5732 340.688 37.2324 340.905 37.7363 341.157C38.2402 341.409 38.6123 341.714 38.8525 342.071C39.0986 342.423 39.2217 342.854 39.2217 343.363C39.2217 344.213 38.8818 344.896 38.2021 345.411C37.5225 345.921 36.6406 346.176 35.5566 346.176C34.7949 346.176 34.1211 346.041 33.5352 345.771C32.9492 345.502 32.4893 345.127 32.1553 344.646C31.8271 344.16 31.6631 343.636 31.6631 343.073H33.2891C33.3184 343.618 33.5352 344.052 33.9395 344.374C34.3496 344.69 34.8887 344.849 35.5566 344.849C36.1719 344.849 36.6641 344.726 37.0332 344.479C37.4082 344.228 37.5957 343.894 37.5957 343.478ZM43.5459 334.188V336.49H45.3213V337.747H43.5459V343.645C43.5459 344.025 43.625 344.312 43.7832 344.506C43.9414 344.693 44.2109 344.787 44.5918 344.787C44.7793 344.787 45.0371 344.752 45.3652 344.682V346C44.9375 346.117 44.5215 346.176 44.1172 346.176C43.3906 346.176 42.8428 345.956 42.4736 345.517C42.1045 345.077 41.9199 344.453 41.9199 343.645V337.747H40.1885V336.49H41.9199V334.188H43.5459ZM46.6221 341.157C46.6221 340.226 46.8037 339.388 47.167 338.644C47.5361 337.899 48.0459 337.325 48.6963 336.921C49.3525 336.517 50.0996 336.314 50.9375 336.314C52.2324 336.314 53.2783 336.763 54.0752 337.659C54.8779 338.556 55.2793 339.748 55.2793 341.236V341.351C55.2793 342.276 55.1006 343.108 54.7432 343.847C54.3916 344.579 53.8848 345.15 53.2227 345.561C52.5664 345.971 51.8105 346.176 50.9551 346.176C49.666 346.176 48.6201 345.728 47.8174 344.831C47.0205 343.935 46.6221 342.748 46.6221 341.271V341.157ZM48.2568 341.351C48.2568 342.405 48.5 343.252 48.9863 343.891C49.4785 344.529 50.1348 344.849 50.9551 344.849C51.7812 344.849 52.4375 344.526 52.9238 343.882C53.4102 343.231 53.6533 342.323 53.6533 341.157C53.6533 340.114 53.4043 339.271 52.9062 338.626C52.4141 337.976 51.7578 337.65 50.9375 337.65C50.1348 337.65 49.4873 337.97 48.9951 338.608C48.5029 339.247 48.2568 340.161 48.2568 341.351ZM62.8555 343.478C62.8555 343.038 62.6885 342.698 62.3545 342.458C62.0264 342.212 61.4492 342.001 60.623 341.825C59.8027 341.649 59.1494 341.438 58.6631 341.192C58.1826 340.946 57.8252 340.653 57.5908 340.313C57.3623 339.974 57.248 339.569 57.248 339.101C57.248 338.321 57.5762 337.662 58.2324 337.123C58.8945 336.584 59.7383 336.314 60.7637 336.314C61.8418 336.314 62.7148 336.593 63.3828 337.149C64.0566 337.706 64.3936 338.418 64.3936 339.285H62.7588C62.7588 338.84 62.5684 338.456 62.1875 338.134C61.8125 337.812 61.3379 337.65 60.7637 337.65C60.1719 337.65 59.709 337.779 59.375 338.037C59.041 338.295 58.874 338.632 58.874 339.048C58.874 339.44 59.0293 339.736 59.3398 339.936C59.6504 340.135 60.21 340.325 61.0186 340.507C61.833 340.688 62.4922 340.905 62.9961 341.157C63.5 341.409 63.8721 341.714 64.1123 342.071C64.3584 342.423 64.4814 342.854 64.4814 343.363C64.4814 344.213 64.1416 344.896 63.4619 345.411C62.7822 345.921 61.9004 346.176 60.8164 346.176C60.0547 346.176 59.3809 346.041 58.7949 345.771C58.209 345.502 57.749 345.127 57.415 344.646C57.0869 344.16 56.9229 343.636 56.9229 343.073H58.5488C58.5781 343.618 58.7949 344.052 59.1992 344.374C59.6094 344.69 60.1484 344.849 60.8164 344.849C61.4316 344.849 61.9238 344.726 62.293 344.479C62.668 344.228 62.8555 343.894 62.8555 343.478ZM75.0107 346.176C73.7217 346.176 72.6729 345.754 71.8643 344.91C71.0557 344.061 70.6514 342.927 70.6514 341.509V341.21C70.6514 340.267 70.8301 339.426 71.1875 338.688C71.5508 337.943 72.0547 337.363 72.6992 336.947C73.3496 336.525 74.0527 336.314 74.8086 336.314C76.0449 336.314 77.0059 336.722 77.6914 337.536C78.377 338.351 78.7197 339.517 78.7197 341.034V341.711H72.2773C72.3008 342.648 72.5732 343.407 73.0947 343.987C73.6221 344.562 74.29 344.849 75.0986 344.849C75.6729 344.849 76.1592 344.731 76.5576 344.497C76.9561 344.263 77.3047 343.952 77.6035 343.565L78.5967 344.339C77.7998 345.563 76.6045 346.176 75.0107 346.176ZM74.8086 337.65C74.1523 337.65 73.6016 337.891 73.1562 338.371C72.7109 338.846 72.4355 339.514 72.3301 340.375H77.0938V340.252C77.0469 339.426 76.8242 338.787 76.4258 338.336C76.0273 337.879 75.4883 337.65 74.8086 337.65ZM82.1387 336.49L82.1826 337.545C82.8799 336.725 83.8203 336.314 85.0039 336.314C86.334 336.314 87.2393 336.824 87.7197 337.844C88.0361 337.387 88.4463 337.018 88.9502 336.736C89.46 336.455 90.0605 336.314 90.752 336.314C92.8379 336.314 93.8984 337.419 93.9336 339.628V346H92.3076V339.725C92.3076 339.045 92.1523 338.538 91.8418 338.204C91.5312 337.864 91.0098 337.694 90.2773 337.694C89.6738 337.694 89.1729 337.876 88.7744 338.239C88.376 338.597 88.1445 339.08 88.0801 339.689V346H86.4453V339.769C86.4453 338.386 85.7686 337.694 84.415 337.694C83.3486 337.694 82.6191 338.148 82.2266 339.057V346H80.6006V336.49H82.1387ZM102.802 340.99V346H101.114V333.203H105.834C107.234 333.203 108.33 333.561 109.121 334.275C109.918 334.99 110.316 335.937 110.316 337.114C110.316 338.356 109.927 339.314 109.147 339.988C108.374 340.656 107.264 340.99 105.816 340.99H102.802ZM102.802 339.61H105.834C106.736 339.61 107.428 339.399 107.908 338.978C108.389 338.55 108.629 337.935 108.629 337.132C108.629 336.37 108.389 335.761 107.908 335.304C107.428 334.847 106.769 334.609 105.931 334.592H102.802V339.61ZM118.086 345.06C117.453 345.804 116.524 346.176 115.3 346.176C114.286 346.176 113.513 345.883 112.979 345.297C112.452 344.705 112.186 343.832 112.18 342.678V336.49H113.806V342.634C113.806 344.075 114.392 344.796 115.563 344.796C116.806 344.796 117.632 344.333 118.042 343.407V336.49H119.668V346H118.121L118.086 345.06ZM130.197 341.351C130.197 342.804 129.863 343.973 129.195 344.857C128.527 345.736 127.631 346.176 126.506 346.176C125.305 346.176 124.376 345.751 123.72 344.901L123.641 346H122.146V332.5H123.772V337.536C124.429 336.722 125.334 336.314 126.488 336.314C127.643 336.314 128.548 336.751 129.204 337.624C129.866 338.497 130.197 339.692 130.197 341.21V341.351ZM128.571 341.166C128.571 340.059 128.357 339.203 127.93 338.6C127.502 337.996 126.887 337.694 126.084 337.694C125.012 337.694 124.241 338.192 123.772 339.188V343.302C124.271 344.298 125.047 344.796 126.102 344.796C126.881 344.796 127.487 344.494 127.921 343.891C128.354 343.287 128.571 342.379 128.571 341.166ZM134.021 346H132.395V332.5H134.021V346ZM138.397 346H136.771V336.49H138.397V346ZM136.64 333.968C136.64 333.704 136.719 333.481 136.877 333.3C137.041 333.118 137.281 333.027 137.598 333.027C137.914 333.027 138.154 333.118 138.318 333.3C138.482 333.481 138.564 333.704 138.564 333.968C138.564 334.231 138.482 334.451 138.318 334.627C138.154 334.803 137.914 334.891 137.598 334.891C137.281 334.891 137.041 334.803 136.877 334.627C136.719 334.451 136.64 334.231 136.64 333.968ZM144.822 344.849C145.402 344.849 145.909 344.673 146.343 344.321C146.776 343.97 147.017 343.53 147.063 343.003H148.602C148.572 343.548 148.385 344.066 148.039 344.559C147.693 345.051 147.23 345.443 146.65 345.736C146.076 346.029 145.467 346.176 144.822 346.176C143.527 346.176 142.496 345.745 141.729 344.884C140.967 344.017 140.586 342.833 140.586 341.333V341.061C140.586 340.135 140.756 339.312 141.096 338.591C141.436 337.87 141.922 337.311 142.555 336.912C143.193 336.514 143.946 336.314 144.813 336.314C145.88 336.314 146.765 336.634 147.468 337.272C148.177 337.911 148.555 338.74 148.602 339.76H147.063C147.017 339.145 146.782 338.641 146.36 338.248C145.944 337.85 145.429 337.65 144.813 337.65C143.987 337.65 143.346 337.949 142.889 338.547C142.438 339.139 142.212 339.997 142.212 341.122V341.43C142.212 342.525 142.438 343.369 142.889 343.961C143.34 344.553 143.984 344.849 144.822 344.849ZM152.196 346H150.57V336.49H152.196V346ZM150.438 333.968C150.438 333.704 150.518 333.481 150.676 333.3C150.84 333.118 151.08 333.027 151.396 333.027C151.713 333.027 151.953 333.118 152.117 333.3C152.281 333.481 152.363 333.704 152.363 333.968C152.363 334.231 152.281 334.451 152.117 334.627C151.953 334.803 151.713 334.891 151.396 334.891C151.08 334.891 150.84 334.803 150.676 334.627C150.518 334.451 150.438 334.231 150.438 333.968ZM154.411 341.166C154.411 339.707 154.757 338.535 155.448 337.65C156.14 336.76 157.045 336.314 158.164 336.314C159.277 336.314 160.159 336.695 160.81 337.457V332.5H162.436V346H160.941L160.862 344.98C160.212 345.777 159.307 346.176 158.146 346.176C157.045 346.176 156.146 345.725 155.448 344.822C154.757 343.92 154.411 342.742 154.411 341.289V341.166ZM156.037 341.351C156.037 342.429 156.26 343.272 156.705 343.882C157.15 344.491 157.766 344.796 158.551 344.796C159.582 344.796 160.335 344.333 160.81 343.407V339.039C160.323 338.143 159.576 337.694 158.568 337.694C157.771 337.694 157.15 338.002 156.705 338.617C156.26 339.232 156.037 340.144 156.037 341.351ZM170.838 346C170.744 345.812 170.668 345.479 170.609 344.998C169.854 345.783 168.951 346.176 167.902 346.176C166.965 346.176 166.194 345.912 165.591 345.385C164.993 344.852 164.694 344.178 164.694 343.363C164.694 342.373 165.069 341.605 165.819 341.061C166.575 340.51 167.636 340.234 169.001 340.234H170.583V339.487C170.583 338.919 170.413 338.468 170.073 338.134C169.733 337.794 169.232 337.624 168.57 337.624C167.99 337.624 167.504 337.771 167.111 338.063C166.719 338.356 166.522 338.711 166.522 339.127H164.888C164.888 338.652 165.055 338.195 165.389 337.756C165.729 337.311 166.186 336.959 166.76 336.701C167.34 336.443 167.976 336.314 168.667 336.314C169.763 336.314 170.621 336.59 171.242 337.141C171.863 337.686 172.186 338.438 172.209 339.399V343.776C172.209 344.649 172.32 345.344 172.543 345.859V346H170.838ZM168.14 344.761C168.649 344.761 169.133 344.629 169.59 344.365C170.047 344.102 170.378 343.759 170.583 343.337V341.386H169.309C167.316 341.386 166.32 341.969 166.32 343.135C166.32 343.645 166.49 344.043 166.83 344.33C167.17 344.617 167.606 344.761 168.14 344.761ZM174.362 341.166C174.362 339.707 174.708 338.535 175.399 337.65C176.091 336.76 176.996 336.314 178.115 336.314C179.229 336.314 180.11 336.695 180.761 337.457V332.5H182.387V346H180.893L180.813 344.98C180.163 345.777 179.258 346.176 178.098 346.176C176.996 346.176 176.097 345.725 175.399 344.822C174.708 343.92 174.362 342.742 174.362 341.289V341.166ZM175.988 341.351C175.988 342.429 176.211 343.272 176.656 343.882C177.102 344.491 177.717 344.796 178.502 344.796C179.533 344.796 180.286 344.333 180.761 343.407V339.039C180.274 338.143 179.527 337.694 178.52 337.694C177.723 337.694 177.102 338.002 176.656 338.617C176.211 339.232 175.988 340.144 175.988 341.351ZM188.864 346.176C187.575 346.176 186.526 345.754 185.718 344.91C184.909 344.061 184.505 342.927 184.505 341.509V341.21C184.505 340.267 184.684 339.426 185.041 338.688C185.404 337.943 185.908 337.363 186.553 336.947C187.203 336.525 187.906 336.314 188.662 336.314C189.898 336.314 190.859 336.722 191.545 337.536C192.23 338.351 192.573 339.517 192.573 341.034V341.711H186.131C186.154 342.648 186.427 343.407 186.948 343.987C187.476 344.562 188.144 344.849 188.952 344.849C189.526 344.849 190.013 344.731 190.411 344.497C190.81 344.263 191.158 343.952 191.457 343.565L192.45 344.339C191.653 345.563 190.458 346.176 188.864 346.176ZM188.662 337.65C188.006 337.65 187.455 337.891 187.01 338.371C186.564 338.846 186.289 339.514 186.184 340.375H190.947V340.252C190.9 339.426 190.678 338.787 190.279 338.336C189.881 337.879 189.342 337.65 188.662 337.65Z" fill="#CF7E36"/>
<ellipse rx="50.4911" ry="48.1607" transform="matrix(-1 0 0 1 98.9728 257.893)" fill="#C4C4C4"/>
<rect width="46.6071" height="250.125" rx="23.3036" transform="matrix(-1 0 0 1 123.053 0)" fill="#C4C4C4"/>
<ellipse rx="50.4911" ry="48.1607" transform="matrix(-1 0 0 1 98.9728 257.893)" fill="#F2994A"/>
<line x1="95.6426" y1="38.2857" x2="77.4462" y2="38.2857" stroke="#787878" stroke-width="2" stroke-linecap="round"/>
<line x1="95.6426" y1="47.6071" x2="77.4462" y2="47.6071" stroke="#787878" stroke-width="2" stroke-linecap="round"/>
<line x1="104.964" y1="56.9286" x2="77.4465" y2="56.9286" stroke="#787878" stroke-width="2" stroke-linecap="round"/>
<line x1="95.6426" y1="64.6964" x2="77.4462" y2="64.6964" stroke="#787878" stroke-width="2" stroke-linecap="round"/>
<line x1="95.6426" y1="74.0179" x2="77.4462" y2="74.0179" stroke="#787878" stroke-width="2" stroke-linecap="round"/>
<line x1="104.964" y1="83.3393" x2="77.4465" y2="83.3393" stroke="#787878" stroke-width="2" stroke-linecap="round"/>
<line x1="95.6426" y1="91.1071" x2="77.4462" y2="91.1071" stroke="#787878" stroke-width="2" stroke-linecap="round"/>
<line x1="95.6426" y1="100.429" x2="77.4462" y2="100.429" stroke="#787878" stroke-width="2" stroke-linecap="round"/>
<line x1="104.964" y1="109.75" x2="77.4465" y2="109.75" stroke="#787878" stroke-width="2" stroke-linecap="round"/>
<line x1="95.6426" y1="145.482" x2="77.4462" y2="145.482" stroke="#787878" stroke-width="2" stroke-linecap="round"/>
<line x1="95.6426" y1="119.071" x2="77.4462" y2="119.071" stroke="#787878" stroke-width="2" stroke-linecap="round"/>
<line x1="104.964" y1="128.393" x2="77.4465" y2="128.393" stroke="#787878" stroke-width="2" stroke-linecap="round"/>
<line x1="104.964" y1="137.714" x2="77.4465" y2="137.714" stroke="#787878" stroke-width="2" stroke-linecap="round"/>
<line x1="95.6426" y1="154.804" x2="77.4462" y2="154.804" stroke="#787878" stroke-width="2" stroke-linecap="round"/>
<line x1="104.964" y1="164.125" x2="77.4465" y2="164.125" stroke="#787878" stroke-width="2" stroke-linecap="round"/>
<line x1="95.6426" y1="198.304" x2="77.4462" y2="198.304" stroke="#787878" stroke-width="2" stroke-linecap="round"/>
<line x1="95.6426" y1="171.893" x2="77.4462" y2="171.893" stroke="#787878" stroke-width="2" stroke-linecap="round"/>
<line x1="104.964" y1="181.214" x2="77.4465" y2="181.214" stroke="#787878" stroke-width="2" stroke-linecap="round"/>
<line x1="104.964" y1="190.536" x2="77.4465" y2="190.536" stroke="#787878" stroke-width="2" stroke-linecap="round"/>
<line x1="95.6426" y1="207.625" x2="77.4462" y2="207.625" stroke="#787878" stroke-width="2" stroke-linecap="round"/>
<mask id="mask0" style="mask-type:alpha" maskUnits="userSpaceOnUse" x="48" y="209" width="102" height="97">
<ellipse rx="50.4911" ry="48.1607" transform="matrix(-1 0 0 1 98.9728 257.161)" fill="#CECECE"/>
</mask>
<g mask="url(#mask0)">
<rect x="48" y="139" width="108" height="148" fill="#C4C4C4"/>
</g>
<path d="M214.345 150.766C215.32 150.766 216.172 150.93 216.901 151.258C217.626 151.586 218.18 152.051 218.562 152.652C218.945 153.254 219.137 153.956 219.137 154.758C219.137 155.542 218.945 156.237 218.562 156.843C218.175 157.449 217.626 157.921 216.915 158.258C216.2 158.59 215.372 158.761 214.434 158.771L213.716 158.771C212.759 158.771 211.913 158.604 211.18 158.271C210.446 157.939 209.885 157.469 209.498 156.863C209.106 156.253 208.91 155.555 208.91 154.771C208.91 153.974 209.104 153.272 209.491 152.666C209.874 152.055 210.432 151.586 211.166 151.258C211.895 150.93 212.745 150.766 213.716 150.766L214.345 150.766ZM213.702 152.071C212.522 152.071 211.617 152.308 210.988 152.782C210.355 153.256 210.038 153.919 210.038 154.771C210.038 155.601 210.355 156.255 210.988 156.733C211.617 157.207 212.492 157.451 213.613 157.465L214.345 157.465C215.489 157.465 216.389 157.226 217.045 156.747C217.697 156.264 218.022 155.601 218.022 154.758C218.022 153.91 217.715 153.254 217.1 152.789C216.48 152.324 215.593 152.085 214.44 152.071L213.702 152.071ZM212.738 145.42C212.706 145.611 212.69 145.819 212.69 146.042C212.69 146.871 213.044 147.434 213.75 147.73L219 147.73L219 148.995L211.604 148.995L211.604 147.765L212.458 147.744C211.797 147.329 211.467 146.742 211.467 145.98C211.467 145.734 211.499 145.548 211.562 145.42L212.738 145.42ZM218.104 141.421C218.104 140.97 217.968 140.576 217.694 140.238C217.421 139.901 217.079 139.714 216.669 139.678L216.669 138.481C217.093 138.504 217.496 138.65 217.879 138.919C218.262 139.188 218.567 139.548 218.795 139.999C219.023 140.446 219.137 140.92 219.137 141.421C219.137 142.428 218.802 143.23 218.132 143.827C217.457 144.42 216.537 144.716 215.37 144.716L215.158 144.716C214.438 144.716 213.798 144.584 213.237 144.319C212.677 144.055 212.242 143.677 211.932 143.185C211.622 142.688 211.467 142.102 211.467 141.428C211.467 140.598 211.715 139.91 212.212 139.363C212.709 138.812 213.354 138.518 214.146 138.481L214.146 139.678C213.668 139.714 213.276 139.896 212.971 140.225C212.661 140.548 212.506 140.949 212.506 141.428C212.506 142.07 212.738 142.569 213.203 142.925C213.663 143.276 214.331 143.451 215.206 143.451L215.445 143.451C216.298 143.451 216.954 143.276 217.414 142.925C217.874 142.574 218.104 142.073 218.104 141.421ZM219.062 141.216L219.417 141.298C219.54 140.601 219.934 140.252 220.6 140.252C221.042 140.252 221.39 140.434 221.646 140.799C221.905 141.163 222.035 141.672 222.035 142.323L221.304 142.371C221.304 142.011 221.244 141.733 221.126 141.537C221.007 141.337 220.841 141.236 220.627 141.236C220.426 141.236 220.278 141.309 220.183 141.455C220.087 141.601 220.019 141.897 219.978 142.344L219.062 142.125L219.062 141.216ZM219 132.493C218.854 132.566 218.594 132.625 218.221 132.671C218.831 133.259 219.137 133.961 219.137 134.776C219.137 135.506 218.932 136.105 218.521 136.574C218.107 137.039 217.583 137.271 216.949 137.271C216.179 137.271 215.582 136.98 215.158 136.396C214.73 135.809 214.516 134.984 214.516 133.922L214.516 132.691L213.935 132.691C213.493 132.691 213.142 132.824 212.882 133.088C212.618 133.352 212.485 133.742 212.485 134.257C212.485 134.708 212.599 135.086 212.827 135.392C213.055 135.697 213.331 135.85 213.654 135.85L213.654 137.121C213.285 137.121 212.93 136.991 212.588 136.731C212.242 136.467 211.968 136.112 211.768 135.665C211.567 135.214 211.467 134.719 211.467 134.182C211.467 133.329 211.681 132.662 212.109 132.179C212.533 131.696 213.119 131.445 213.866 131.427L217.271 131.427C217.95 131.427 218.49 131.34 218.891 131.167L219 131.167L219 132.493ZM218.036 134.592C218.036 134.195 217.934 133.819 217.729 133.464C217.523 133.108 217.257 132.851 216.929 132.691L215.411 132.691L215.411 133.683C215.411 135.232 215.865 136.007 216.771 136.007C217.168 136.007 217.478 135.875 217.701 135.61C217.924 135.346 218.036 135.007 218.036 134.592ZM211.604 128.255L212.424 128.221C211.786 127.678 211.467 126.947 211.467 126.026C211.467 124.992 211.863 124.288 212.656 123.914C212.301 123.668 212.014 123.349 211.795 122.957C211.576 122.561 211.467 122.093 211.467 121.556C211.467 119.933 212.326 119.108 214.044 119.081L219 119.081L219 120.346L214.119 120.346C213.59 120.346 213.196 120.466 212.937 120.708C212.672 120.95 212.54 121.355 212.54 121.925C212.54 122.394 212.681 122.784 212.964 123.094C213.242 123.404 213.618 123.584 214.092 123.634L219 123.634L219 124.905L214.153 124.905C213.078 124.905 212.54 125.432 212.54 126.484C212.54 127.314 212.893 127.881 213.6 128.187L219 128.187L219 129.451L211.604 129.451L211.604 128.255ZM219.137 114.098C219.137 115.1 218.809 115.916 218.152 116.545C217.492 117.174 216.61 117.488 215.507 117.488L215.274 117.488C214.541 117.488 213.887 117.349 213.312 117.071C212.734 116.789 212.283 116.397 211.959 115.896C211.631 115.39 211.467 114.843 211.467 114.255C211.467 113.293 211.784 112.546 212.417 112.013C213.05 111.479 213.957 111.213 215.138 111.213L215.664 111.213L215.664 116.224C216.393 116.205 216.983 115.993 217.435 115.588C217.881 115.178 218.104 114.658 218.104 114.029C218.104 113.583 218.013 113.204 217.831 112.895C217.649 112.585 217.407 112.313 217.106 112.081L217.708 111.309C218.66 111.928 219.137 112.858 219.137 114.098ZM212.506 114.255C212.506 114.765 212.693 115.194 213.066 115.54C213.436 115.886 213.955 116.101 214.625 116.183L214.625 112.478L214.529 112.478C213.887 112.514 213.39 112.687 213.039 112.997C212.684 113.307 212.506 113.726 212.506 114.255ZM211.604 108.547L212.533 108.506C211.822 107.941 211.467 107.202 211.467 106.291C211.467 104.728 212.349 103.939 214.112 103.926L219 103.926L219 105.19L214.105 105.19C213.572 105.195 213.178 105.318 212.923 105.56C212.668 105.797 212.54 106.168 212.54 106.674C212.54 107.084 212.649 107.444 212.868 107.754C213.087 108.064 213.374 108.305 213.729 108.479L219 108.479L219 109.743L211.604 109.743L211.604 108.547ZM209.812 100.303L211.604 100.303L211.604 98.9219L212.581 98.9219L212.581 100.303L217.168 100.303C217.464 100.303 217.687 100.241 217.838 100.118C217.984 99.9951 218.057 99.7855 218.057 99.4893C218.057 99.3434 218.029 99.1429 217.975 98.8877L219 98.8877C219.091 99.2204 219.137 99.5439 219.137 99.8584C219.137 100.424 218.966 100.85 218.624 101.137C218.282 101.424 217.797 101.567 217.168 101.567L212.581 101.567L212.581 102.914L211.604 102.914L211.604 101.567L209.812 101.567L209.812 100.303ZM215.233 97.9102C214.509 97.9102 213.857 97.7689 213.278 97.4863C212.7 97.1992 212.253 96.8027 211.938 96.2969C211.624 95.7865 211.467 95.2054 211.467 94.5537C211.467 93.5465 211.815 92.7331 212.513 92.1133C213.21 91.4889 214.137 91.1768 215.295 91.1768L215.384 91.1768C216.104 91.1768 216.751 91.3158 217.325 91.5937C217.895 91.8672 218.339 92.2614 218.658 92.7764C218.977 93.2868 219.137 93.8747 219.137 94.54C219.137 95.5426 218.788 96.3561 218.091 96.9805C217.394 97.6003 216.471 97.9102 215.322 97.9102L215.233 97.9102ZM215.384 96.6387C216.204 96.6387 216.863 96.4495 217.359 96.0713C217.856 95.6885 218.104 95.1781 218.104 94.54C218.104 93.8975 217.854 93.387 217.353 93.0088C216.847 92.6305 216.14 92.4414 215.233 92.4414C214.422 92.4414 213.766 92.6351 213.265 93.0225C212.759 93.4053 212.506 93.9157 212.506 94.5537C212.506 95.1781 212.754 95.6816 213.251 96.0645C213.748 96.4473 214.459 96.6387 215.384 96.6387Z" fill="#787878"/>
<path d="M196.072 3.10715L196.072 257.893M195.149 3.10715L166.554 3.10715M195.149 257.893H166.554" stroke="#E0E0E0" stroke-width="2" stroke-linecap="round"/>
<path d="M80.2383 259.281C80.2383 261.734 79.7774 263.585 78.8555 264.835C77.9415 266.078 76.5469 266.699 74.6719 266.699C72.8282 266.699 71.4376 266.093 70.5001 264.882C69.5704 263.664 69.0938 261.863 69.0704 259.48V256.527C69.0704 254.074 69.5274 252.234 70.4415 251.007C71.3633 249.781 72.7657 249.167 74.6485 249.167C76.5157 249.167 77.9063 249.765 78.8204 250.96C79.7423 252.156 80.2149 253.945 80.2383 256.328V259.281ZM77.3907 256.093C77.3907 254.492 77.1719 253.32 76.7344 252.578C76.2969 251.828 75.6016 251.453 74.6485 251.453C73.7188 251.453 73.0352 251.808 72.5977 252.519C72.1602 253.222 71.9298 254.324 71.9063 255.824V259.691C71.9063 261.285 72.129 262.472 72.5743 263.253C73.0196 264.035 73.7188 264.425 74.6719 264.425C75.586 264.425 76.2618 264.066 76.6993 263.347C77.1368 262.621 77.3673 261.488 77.3907 259.949V256.093ZM83.3438 270.308L81.8087 269.394C82.2618 268.683 82.5704 268.062 82.7344 267.531C82.9063 267.007 82.9962 266.472 83.004 265.925V263.71H85.5704L85.5587 265.761C85.5508 266.589 85.3399 267.417 84.9258 268.246C84.5196 269.081 83.9923 269.769 83.3438 270.308ZM99.3868 250.984L92.5665 266.464H89.5782L96.3868 251.687H87.5626V249.402H99.3868V250.984ZM112.418 253.902C112.418 254.738 112.203 255.484 111.774 256.14C111.344 256.789 110.758 257.3 110.016 257.675C110.906 258.089 111.59 258.656 112.066 259.374C112.551 260.093 112.793 260.906 112.793 261.812C112.793 263.312 112.285 264.503 111.27 265.386C110.254 266.261 108.902 266.699 107.215 266.699C105.52 266.699 104.16 266.257 103.137 265.374C102.121 264.492 101.613 263.304 101.613 261.812C101.613 260.898 101.856 260.078 102.34 259.351C102.824 258.624 103.504 258.066 104.379 257.675C103.645 257.3 103.063 256.789 102.633 256.14C102.211 255.484 102 254.738 102 253.902C102 252.449 102.469 251.296 103.406 250.445C104.344 249.593 105.609 249.167 107.203 249.167C108.805 249.167 110.074 249.593 111.012 250.445C111.949 251.296 112.418 252.449 112.418 253.902ZM109.945 261.671C109.945 260.828 109.691 260.148 109.184 259.632C108.684 259.109 108.02 258.847 107.191 258.847C106.363 258.847 105.699 259.105 105.199 259.621C104.707 260.136 104.461 260.82 104.461 261.671C104.461 262.507 104.703 263.175 105.188 263.675C105.68 264.175 106.356 264.425 107.215 264.425C108.074 264.425 108.742 264.183 109.219 263.699C109.703 263.214 109.945 262.539 109.945 261.671ZM109.582 254.007C109.582 253.265 109.367 252.656 108.938 252.179C108.508 251.695 107.93 251.453 107.203 251.453C106.477 251.453 105.902 251.683 105.481 252.144C105.059 252.597 104.848 253.218 104.848 254.007C104.848 254.789 105.059 255.41 105.481 255.871C105.91 256.331 106.488 256.562 107.215 256.562C107.941 256.562 108.516 256.331 108.938 255.871C109.367 255.41 109.582 254.789 109.582 254.007ZM115.195 252.683C115.195 251.652 115.527 250.808 116.191 250.152C116.856 249.488 117.727 249.156 118.805 249.156C119.899 249.156 120.774 249.488 121.43 250.152C122.094 250.808 122.426 251.671 122.426 252.742V253.585C122.426 254.609 122.094 255.449 121.43 256.105C120.774 256.761 119.906 257.089 118.828 257.089C117.774 257.089 116.902 256.769 116.215 256.128C115.535 255.48 115.195 254.609 115.195 253.515V252.683ZM117.188 253.585C117.188 254.124 117.336 254.562 117.633 254.898C117.938 255.226 118.336 255.39 118.828 255.39C119.313 255.39 119.703 255.226 120 254.898C120.297 254.562 120.445 254.109 120.445 253.539V252.683C120.445 252.144 120.293 251.706 119.988 251.371C119.691 251.035 119.297 250.867 118.805 250.867C118.313 250.867 117.918 251.039 117.621 251.382C117.332 251.718 117.188 252.164 117.188 252.718V253.585ZM123.399 262.281C123.399 261.234 123.738 260.386 124.418 259.738C125.098 259.089 125.965 258.765 127.02 258.765C128.082 258.765 128.949 259.089 129.621 259.738C130.301 260.386 130.641 261.261 130.641 262.363V263.195C130.641 264.21 130.313 265.05 129.656 265.714C129.008 266.371 128.137 266.699 127.043 266.699C125.949 266.699 125.066 266.374 124.395 265.726C123.731 265.07 123.399 264.206 123.399 263.136V262.281ZM125.391 263.195C125.391 263.726 125.543 264.164 125.848 264.507C126.16 264.843 126.559 265.011 127.043 265.011C127.543 265.011 127.934 264.851 128.215 264.531C128.504 264.203 128.649 263.746 128.649 263.16V262.281C128.649 261.734 128.496 261.296 128.191 260.968C127.887 260.64 127.496 260.476 127.02 260.476C126.535 260.476 126.141 260.64 125.836 260.968C125.539 261.296 125.391 261.749 125.391 262.328V263.195ZM119.414 265.187L117.949 264.343L126.281 251.007L127.746 251.851L119.414 265.187Z" fill="white"/>
</svg>
