<svg width="240" height="354" viewBox="0 0 240 354" fill="none" xmlns="http://www.w3.org/2000/svg">
<path d="M46.4632 346.321C46.0296 346.942 45.4231 347.408 44.6438 347.719C43.8704 348.023 42.9681 348.176 41.9368 348.176C40.8938 348.176 39.9681 347.933 39.1595 347.446C38.3509 346.954 37.7239 346.257 37.2786 345.354C36.8391 344.452 36.6136 343.406 36.6018 342.217V341.101C36.6018 339.173 37.0501 337.679 37.9466 336.618C38.8489 335.558 40.1145 335.027 41.7434 335.027C43.0794 335.027 44.1546 335.37 44.969 336.056C45.7835 336.735 46.2815 337.702 46.4632 338.956H44.7757C44.4593 337.263 43.4515 336.416 41.7522 336.416C40.6214 336.416 39.763 336.814 39.177 337.611C38.597 338.402 38.304 339.551 38.2981 341.057V342.103C38.2981 343.538 38.6263 344.681 39.2825 345.53C39.9388 346.374 40.8265 346.796 41.9456 346.796C42.5784 346.796 43.1321 346.726 43.6067 346.585C44.0813 346.444 44.4739 346.207 44.7845 345.873V342.999H41.8225V341.628H46.4632V346.321ZM54.9007 348C54.8069 347.812 54.7308 347.479 54.6722 346.998C53.9163 347.783 53.014 348.176 51.9651 348.176C51.0276 348.176 50.2571 347.912 49.6536 347.385C49.0559 346.852 48.7571 346.178 48.7571 345.363C48.7571 344.373 49.1321 343.605 49.8821 343.061C50.638 342.51 51.6985 342.234 53.0638 342.234H54.6458V341.487C54.6458 340.919 54.4759 340.468 54.136 340.134C53.7962 339.794 53.2952 339.624 52.6331 339.624C52.053 339.624 51.5667 339.771 51.1741 340.063C50.7815 340.356 50.5852 340.711 50.5852 341.127H48.9505C48.9505 340.652 49.1175 340.195 49.4515 339.756C49.7913 339.311 50.2483 338.959 50.8225 338.701C51.4026 338.443 52.0384 338.314 52.7298 338.314C53.8255 338.314 54.6839 338.59 55.305 339.141C55.9261 339.686 56.2483 340.438 56.2718 341.399V345.776C56.2718 346.649 56.3831 347.344 56.6058 347.859V348H54.9007ZM52.2024 346.761C52.7122 346.761 53.1956 346.629 53.6526 346.365C54.1097 346.102 54.4407 345.759 54.6458 345.337V343.386H53.3714C51.3792 343.386 50.3831 343.969 50.3831 345.135C50.3831 345.645 50.553 346.043 50.8929 346.33C51.2327 346.617 51.6692 346.761 52.2024 346.761ZM64.3577 345.478C64.3577 345.038 64.1907 344.698 63.8567 344.458C63.5286 344.212 62.9515 344.001 62.1253 343.825C61.305 343.649 60.6516 343.438 60.1653 343.192C59.6849 342.946 59.3274 342.653 59.0931 342.313C58.8645 341.974 58.7503 341.569 58.7503 341.101C58.7503 340.321 59.0784 339.662 59.7347 339.123C60.3968 338.584 61.2405 338.314 62.2659 338.314C63.344 338.314 64.2171 338.593 64.885 339.149C65.5589 339.706 65.8958 340.418 65.8958 341.285H64.261C64.261 340.84 64.0706 340.456 63.6897 340.134C63.3147 339.812 62.8401 339.65 62.2659 339.65C61.6741 339.65 61.2112 339.779 60.8772 340.037C60.5433 340.295 60.3763 340.632 60.3763 341.048C60.3763 341.44 60.5315 341.736 60.8421 341.936C61.1526 342.135 61.7122 342.325 62.5208 342.507C63.3352 342.688 63.9944 342.905 64.4983 343.157C65.0022 343.409 65.3743 343.714 65.6145 344.071C65.8606 344.423 65.9837 344.854 65.9837 345.363C65.9837 346.213 65.6438 346.896 64.9641 347.411C64.2845 347.921 63.4026 348.176 62.3186 348.176C61.5569 348.176 60.8831 348.041 60.2972 347.771C59.7112 347.502 59.2513 347.127 58.9173 346.646C58.5891 346.16 58.4251 345.636 58.4251 345.073H60.0511C60.0804 345.618 60.2972 346.052 60.7015 346.374C61.1116 346.69 61.6507 346.849 62.3186 346.849C62.9339 346.849 63.4261 346.726 63.7952 346.479C64.1702 346.228 64.3577 345.894 64.3577 345.478ZM70.3079 336.188V338.49H72.0833V339.747H70.3079V345.645C70.3079 346.025 70.387 346.312 70.5452 346.506C70.7034 346.693 70.9729 346.787 71.3538 346.787C71.5413 346.787 71.7991 346.752 72.1272 346.682V348C71.6995 348.117 71.2835 348.176 70.8792 348.176C70.1526 348.176 69.6048 347.956 69.2356 347.517C68.8665 347.077 68.6819 346.453 68.6819 345.645V339.747H66.9505V338.49H68.6819V336.188H70.3079ZM73.3841 343.157C73.3841 342.226 73.5657 341.388 73.929 340.644C74.2981 339.899 74.8079 339.325 75.4583 338.921C76.1145 338.517 76.8616 338.314 77.6995 338.314C78.9944 338.314 80.0403 338.763 80.8372 339.659C81.6399 340.556 82.0413 341.748 82.0413 343.236V343.351C82.0413 344.276 81.8626 345.108 81.5052 345.847C81.1536 346.579 80.6468 347.15 79.9847 347.561C79.3284 347.971 78.5725 348.176 77.7171 348.176C76.428 348.176 75.3821 347.728 74.5794 346.831C73.7825 345.935 73.3841 344.748 73.3841 343.271V343.157ZM75.0188 343.351C75.0188 344.405 75.262 345.252 75.7483 345.891C76.2405 346.529 76.8968 346.849 77.7171 346.849C78.5433 346.849 79.1995 346.526 79.6858 345.882C80.1722 345.231 80.4153 344.323 80.4153 343.157C80.4153 342.114 80.1663 341.271 79.6683 340.626C79.1761 339.976 78.5198 339.65 77.6995 339.65C76.8968 339.65 76.2493 339.97 75.7571 340.608C75.2649 341.247 75.0188 342.161 75.0188 343.351ZM89.6175 345.478C89.6175 345.038 89.4505 344.698 89.1165 344.458C88.7884 344.212 88.2112 344.001 87.385 343.825C86.5647 343.649 85.9114 343.438 85.4251 343.192C84.9446 342.946 84.5872 342.653 84.3528 342.313C84.1243 341.974 84.01 341.569 84.01 341.101C84.01 340.321 84.3382 339.662 84.9944 339.123C85.6565 338.584 86.5003 338.314 87.5257 338.314C88.6038 338.314 89.4768 338.593 90.1448 339.149C90.8186 339.706 91.1556 340.418 91.1556 341.285H89.5208C89.5208 340.84 89.3304 340.456 88.9495 340.134C88.5745 339.812 88.0999 339.65 87.5257 339.65C86.9339 339.65 86.471 339.779 86.137 340.037C85.803 340.295 85.636 340.632 85.636 341.048C85.636 341.44 85.7913 341.736 86.1018 341.936C86.4124 342.135 86.972 342.325 87.7806 342.507C88.595 342.688 89.2542 342.905 89.7581 343.157C90.262 343.409 90.6341 343.714 90.8743 344.071C91.1204 344.423 91.2434 344.854 91.2434 345.363C91.2434 346.213 90.9036 346.896 90.2239 347.411C89.5442 347.921 88.6624 348.176 87.5784 348.176C86.8167 348.176 86.1429 348.041 85.5569 347.771C84.971 347.502 84.511 347.127 84.177 346.646C83.8489 346.16 83.6849 345.636 83.6849 345.073H85.3108C85.3401 345.618 85.5569 346.052 85.9612 346.374C86.3714 346.69 86.9104 346.849 87.5784 346.849C88.1936 346.849 88.6858 346.726 89.055 346.479C89.43 346.228 89.6175 345.894 89.6175 345.478ZM101.773 348.176C100.484 348.176 99.4349 347.754 98.6263 346.91C97.8177 346.061 97.4134 344.927 97.4134 343.509V343.21C97.4134 342.267 97.5921 341.426 97.9495 340.688C98.3128 339.943 98.8167 339.363 99.4612 338.947C100.112 338.525 100.815 338.314 101.571 338.314C102.807 338.314 103.768 338.722 104.453 339.536C105.139 340.351 105.482 341.517 105.482 343.034V343.711H99.0393C99.0628 344.648 99.3352 345.407 99.8567 345.987C100.384 346.562 101.052 346.849 101.861 346.849C102.435 346.849 102.921 346.731 103.32 346.497C103.718 346.263 104.067 345.952 104.366 345.565L105.359 346.339C104.562 347.563 103.366 348.176 101.773 348.176ZM101.571 339.65C100.914 339.65 100.364 339.891 99.9183 340.371C99.4729 340.846 99.1975 341.514 99.0921 342.375H103.856V342.252C103.809 341.426 103.586 340.787 103.188 340.336C102.789 339.879 102.25 339.65 101.571 339.65ZM108.901 338.49L108.945 339.545C109.642 338.725 110.582 338.314 111.766 338.314C113.096 338.314 114.001 338.824 114.482 339.844C114.798 339.387 115.208 339.018 115.712 338.736C116.222 338.455 116.823 338.314 117.514 338.314C119.6 338.314 120.66 339.419 120.696 341.628V348H119.07V341.725C119.07 341.045 118.914 340.538 118.604 340.204C118.293 339.864 117.772 339.694 117.039 339.694C116.436 339.694 115.935 339.876 115.536 340.239C115.138 340.597 114.907 341.08 114.842 341.689V348H113.207V341.769C113.207 340.386 112.531 339.694 111.177 339.694C110.111 339.694 109.381 340.148 108.989 341.057V348H107.363V338.49H108.901ZM131.647 342.296C130.2 341.88 129.145 341.37 128.483 340.767C127.826 340.157 127.498 339.407 127.498 338.517C127.498 337.509 127.9 336.677 128.702 336.021C129.511 335.358 130.56 335.027 131.849 335.027C132.728 335.027 133.51 335.197 134.196 335.537C134.887 335.877 135.42 336.346 135.795 336.943C136.176 337.541 136.366 338.194 136.366 338.903H134.67C134.67 338.13 134.424 337.523 133.932 337.084C133.44 336.639 132.745 336.416 131.849 336.416C131.017 336.416 130.366 336.601 129.898 336.97C129.435 337.333 129.203 337.84 129.203 338.49C129.203 339.012 129.423 339.454 129.863 339.817C130.308 340.175 131.061 340.503 132.121 340.802C133.188 341.101 134.02 341.432 134.617 341.795C135.221 342.152 135.666 342.571 135.953 343.052C136.246 343.532 136.393 344.098 136.393 344.748C136.393 345.785 135.989 346.617 135.18 347.244C134.371 347.865 133.29 348.176 131.937 348.176C131.058 348.176 130.238 348.009 129.476 347.675C128.714 347.335 128.125 346.872 127.709 346.286C127.299 345.7 127.094 345.035 127.094 344.291H128.79C128.79 345.064 129.075 345.677 129.643 346.128C130.217 346.573 130.982 346.796 131.937 346.796C132.827 346.796 133.51 346.614 133.985 346.251C134.459 345.888 134.697 345.393 134.697 344.766C134.697 344.139 134.477 343.655 134.037 343.315C133.598 342.97 132.801 342.63 131.647 342.296ZM144.18 348C144.086 347.812 144.01 347.479 143.951 346.998C143.196 347.783 142.293 348.176 141.244 348.176C140.307 348.176 139.536 347.912 138.933 347.385C138.335 346.852 138.036 346.178 138.036 345.363C138.036 344.373 138.411 343.605 139.161 343.061C139.917 342.51 140.978 342.234 142.343 342.234H143.925V341.487C143.925 340.919 143.755 340.468 143.415 340.134C143.075 339.794 142.575 339.624 141.912 339.624C141.332 339.624 140.846 339.771 140.453 340.063C140.061 340.356 139.865 340.711 139.865 341.127H138.23C138.23 340.652 138.397 340.195 138.731 339.756C139.071 339.311 139.528 338.959 140.102 338.701C140.682 338.443 141.318 338.314 142.009 338.314C143.105 338.314 143.963 338.59 144.584 339.141C145.205 339.686 145.528 340.438 145.551 341.399V345.776C145.551 346.649 145.662 347.344 145.885 347.859V348H144.18ZM141.482 346.761C141.991 346.761 142.475 346.629 142.932 346.365C143.389 346.102 143.72 345.759 143.925 345.337V343.386H142.651C140.658 343.386 139.662 343.969 139.662 345.135C139.662 345.645 139.832 346.043 140.172 346.33C140.512 346.617 140.949 346.761 141.482 346.761ZM153.971 347.06C153.338 347.804 152.409 348.176 151.185 348.176C150.171 348.176 149.398 347.883 148.865 347.297C148.337 346.705 148.071 345.832 148.065 344.678V338.49H149.691V344.634C149.691 346.075 150.277 346.796 151.449 346.796C152.691 346.796 153.517 346.333 153.927 345.407V338.49H155.553V348H154.006L153.971 347.06ZM152.653 334.5H154.621L152.266 337.084H150.956L152.653 334.5ZM157.636 343.166C157.636 341.707 157.982 340.535 158.673 339.65C159.365 338.76 160.27 338.314 161.389 338.314C162.502 338.314 163.384 338.695 164.034 339.457V334.5H165.66V348H164.166L164.087 346.98C163.437 347.777 162.532 348.176 161.371 348.176C160.27 348.176 159.37 347.725 158.673 346.822C157.982 345.92 157.636 344.742 157.636 343.289V343.166ZM159.262 343.351C159.262 344.429 159.485 345.272 159.93 345.882C160.375 346.491 160.991 346.796 161.776 346.796C162.807 346.796 163.56 346.333 164.034 345.407V341.039C163.548 340.143 162.801 339.694 161.793 339.694C160.996 339.694 160.375 340.002 159.93 340.617C159.485 341.232 159.262 342.144 159.262 343.351ZM172.138 348.176C170.849 348.176 169.8 347.754 168.991 346.91C168.183 346.061 167.779 344.927 167.779 343.509V343.21C167.779 342.267 167.957 341.426 168.315 340.688C168.678 339.943 169.182 339.363 169.826 338.947C170.477 338.525 171.18 338.314 171.936 338.314C173.172 338.314 174.133 338.722 174.819 339.536C175.504 340.351 175.847 341.517 175.847 343.034V343.711H169.405C169.428 344.648 169.7 345.407 170.222 345.987C170.749 346.562 171.417 346.849 172.226 346.849C172.8 346.849 173.286 346.731 173.685 346.497C174.083 346.263 174.432 345.952 174.731 345.565L175.724 346.339C174.927 347.563 173.732 348.176 172.138 348.176ZM171.936 339.65C171.28 339.65 170.729 339.891 170.283 340.371C169.838 340.846 169.563 341.514 169.457 342.375H174.221V342.252C174.174 341.426 173.951 340.787 173.553 340.336C173.155 339.879 172.616 339.65 171.936 339.65Z" fill="#639622"/>
<ellipse rx="50.4911" ry="48.1607" transform="matrix(-1 0 0 1 107.973 257.893)" fill="#C4C4C4"/>
<rect width="46.6071" height="250.125" rx="23.3036" transform="matrix(-1 0 0 1 132.053 0)" fill="#C4C4C4"/>
<ellipse rx="50.4911" ry="48.1607" transform="matrix(-1 0 0 1 107.973 257.893)" fill="#93C257"/>
<rect width="47" height="60" transform="matrix(-1 0 0 1 132 190)" fill="#93C257"/>
<line x1="104.643" y1="38.2857" x2="86.4462" y2="38.2857" stroke="#787878" stroke-width="2" stroke-linecap="round"/>
<line x1="104.643" y1="47.6071" x2="86.4462" y2="47.6071" stroke="#787878" stroke-width="2" stroke-linecap="round"/>
<line x1="113.964" y1="56.9286" x2="86.4465" y2="56.9286" stroke="#787878" stroke-width="2" stroke-linecap="round"/>
<line x1="104.643" y1="64.6964" x2="86.4462" y2="64.6964" stroke="#787878" stroke-width="2" stroke-linecap="round"/>
<line x1="104.643" y1="74.0179" x2="86.4462" y2="74.0179" stroke="#787878" stroke-width="2" stroke-linecap="round"/>
<line x1="113.964" y1="83.3393" x2="86.4465" y2="83.3393" stroke="#787878" stroke-width="2" stroke-linecap="round"/>
<line x1="104.643" y1="91.1071" x2="86.4462" y2="91.1071" stroke="#787878" stroke-width="2" stroke-linecap="round"/>
<line x1="104.643" y1="100.429" x2="86.4462" y2="100.429" stroke="#787878" stroke-width="2" stroke-linecap="round"/>
<line x1="113.964" y1="109.75" x2="86.4465" y2="109.75" stroke="#787878" stroke-width="2" stroke-linecap="round"/>
<line x1="104.643" y1="145.482" x2="86.4462" y2="145.482" stroke="#787878" stroke-width="2" stroke-linecap="round"/>
<line x1="104.643" y1="119.071" x2="86.4462" y2="119.071" stroke="#787878" stroke-width="2" stroke-linecap="round"/>
<line x1="113.964" y1="128.393" x2="86.4465" y2="128.393" stroke="#787878" stroke-width="2" stroke-linecap="round"/>
<line x1="113.964" y1="137.714" x2="86.4465" y2="137.714" stroke="#787878" stroke-width="2" stroke-linecap="round"/>
<line x1="104.643" y1="154.804" x2="86.4462" y2="154.804" stroke="#787878" stroke-width="2" stroke-linecap="round"/>
<line x1="113.964" y1="164.125" x2="86.4465" y2="164.125" stroke="#787878" stroke-width="2" stroke-linecap="round"/>
<line x1="104.643" y1="198.304" x2="86.4462" y2="198.304" stroke="#787878" stroke-width="2" stroke-linecap="round"/>
<line x1="104.643" y1="171.893" x2="86.4462" y2="171.893" stroke="#787878" stroke-width="2" stroke-linecap="round"/>
<line x1="113.964" y1="181.214" x2="86.4465" y2="181.214" stroke="#787878" stroke-width="2" stroke-linecap="round"/>
<line x1="113.964" y1="190.536" x2="86.4465" y2="190.536" stroke="#787878" stroke-width="2" stroke-linecap="round"/>
<line x1="104.643" y1="207.625" x2="86.4462" y2="207.625" stroke="#787878" stroke-width="2" stroke-linecap="round"/>
<path d="M33.6464 255.354C33.8417 255.549 34.1583 255.549 34.3536 255.354L37.5355 252.172C37.7308 251.976 37.7308 251.66 37.5355 251.464C37.3403 251.269 37.0237 251.269 36.8284 251.464L34 254.293L31.1716 251.464C30.9763 251.269 30.6597 251.269 30.4645 251.464C30.2692 251.66 30.2692 251.976 30.4645 252.172L33.6464 255.354ZM34.5 255L34.5 254.013L33.5 254.013L33.5 255L34.5 255ZM34.5 252.039L34.5 250.066L33.5 250.066L33.5 252.039L34.5 252.039ZM34.5 248.092L34.5 246.118L33.5 246.118L33.5 248.092L34.5 248.092ZM34.5 244.145L34.5 242.171L33.5 242.171L33.5 244.145L34.5 244.145ZM34.5 240.197L34.5 238.224L33.5 238.224L33.5 240.197L34.5 240.197ZM34.5 236.25L34.5 234.276L33.5 234.276L33.5 236.25L34.5 236.25ZM34.5 232.303L34.5 230.329L33.5 230.329L33.5 232.303L34.5 232.303ZM34.5 228.355L34.5 226.382L33.5 226.382L33.5 228.355L34.5 228.355ZM34.5 224.408L34.5 222.434L33.5 222.434L33.5 224.408L34.5 224.408ZM34.5 220.461L34.5 218.487L33.5 218.487L33.5 220.461L34.5 220.461ZM34.5 216.513L34.5 214.539L33.5 214.539L33.5 216.513L34.5 216.513ZM34.5 212.566L34.5 210.592L33.5 210.592L33.5 212.566L34.5 212.566ZM34.5 208.618L34.5 206.645L33.5 206.645L33.5 208.618L34.5 208.618ZM34.5 204.671L34.5 202.697L33.5 202.697L33.5 204.671L34.5 204.671ZM34.5 200.724L34.5 198.75L33.5 198.75L33.5 200.724L34.5 200.724ZM34.5 196.776L34.5 194.803L33.5 194.803L33.5 196.776L34.5 196.776ZM34.5 192.829L34.5 190.855L33.5 190.855L33.5 192.829L34.5 192.829ZM34.5 188.882L34.5 186.908L33.5 186.908L33.5 188.882L34.5 188.882ZM34.5 184.934L34.5 182.961L33.5 182.961L33.5 184.934L34.5 184.934ZM34.5 180.987L34.5 180L33.5 180L33.5 180.987L34.5 180.987Z" fill="#579EA8"/>
<path d="M205.072 3.10712L205.072 257.893M204.149 3.10712L175.554 3.10712M204.149 257.893H175.554" stroke="#E0E0E0" stroke-width="2" stroke-linecap="round"/>
<path d="M8.46875 247.228L15.4297 244.439L8.46875 241.65L8.46875 240.191L17 240.191L17 241.316L13.6777 241.316L10.0918 241.21L17 244.011L17 244.873L10.1094 247.667L13.6777 247.556L17 247.556L17 248.681L8.46875 248.681L8.46875 247.228ZM17 237.197L17 238.287L10.6602 238.287L10.6602 237.197L17 237.197ZM8.00586 237.185L8.00586 235.873L9.72851 237.443L9.72851 238.316L8.00586 237.185ZM10.6602 234.384L11.457 234.349C10.8477 233.865 10.543 233.232 10.543 232.451C10.543 231.111 11.2988 230.435 12.8105 230.423L17 230.423L17 231.507L12.8047 231.507C12.3477 231.511 12.0098 231.617 11.791 231.824C11.5723 232.027 11.4629 232.345 11.4629 232.779C11.4629 233.13 11.5566 233.439 11.7441 233.705C11.9316 233.97 12.1777 234.177 12.4824 234.326L17 234.326L17 235.41L10.6602 235.41L10.6602 234.384ZM17 227.611L17 228.695L10.6602 228.695L10.6602 227.611L17 227.611ZM8.97851 228.783C8.80273 228.783 8.6543 228.73 8.5332 228.624C8.41211 228.515 8.35156 228.355 8.35156 228.144C8.35156 227.933 8.41211 227.773 8.5332 227.664C8.6543 227.554 8.80273 227.499 8.97851 227.499C9.1543 227.499 9.30078 227.554 9.41797 227.664C9.53515 227.773 9.59375 227.933 9.59375 228.144C9.59375 228.355 9.53515 228.515 9.41797 228.624C9.30078 228.73 9.1543 228.783 8.97851 228.783ZM10.6602 224.851L11.3633 224.822C10.8164 224.357 10.543 223.73 10.543 222.941C10.543 222.054 10.8828 221.451 11.5625 221.13C11.2578 220.919 11.0117 220.646 10.8242 220.31C10.6367 219.97 10.543 219.57 10.543 219.109C10.543 217.718 11.2793 217.011 12.752 216.988L17 216.988L17 218.072L12.8164 218.072C12.3633 218.072 12.0254 218.175 11.8027 218.382C11.5762 218.589 11.4629 218.937 11.4629 219.425C11.4629 219.828 11.584 220.162 11.8262 220.427C12.0645 220.693 12.3867 220.847 12.793 220.89L17 220.89L17 221.98L12.8457 221.98C11.9238 221.98 11.4629 222.431 11.4629 223.333C11.4629 224.044 11.7656 224.531 12.3711 224.792L17 224.792L17 225.876L10.6602 225.876L10.6602 224.851ZM13.7715 215.634C13.1504 215.634 12.5918 215.513 12.0957 215.271C11.5996 215.025 11.2168 214.685 10.9473 214.251C10.6777 213.814 10.543 213.316 10.543 212.757C10.543 211.894 10.8418 211.197 11.4395 210.665C12.0371 210.13 12.832 209.863 13.8242 209.863L13.9004 209.863C14.5176 209.863 15.0723 209.982 15.5645 210.22C16.0527 210.455 16.4336 210.792 16.707 211.234C16.9805 211.671 17.1172 212.175 17.1172 212.746C17.1172 213.605 16.8184 214.302 16.2207 214.837C15.623 215.369 14.832 215.634 13.8477 215.634L13.7715 215.634ZM13.9004 214.544C14.6035 214.544 15.168 214.382 15.5937 214.058C16.0195 213.73 16.2324 213.292 16.2324 212.746C16.2324 212.195 16.0176 211.757 15.5879 211.433C15.1543 211.109 14.5488 210.947 13.7715 210.947C13.0762 210.947 12.5137 211.113 12.084 211.445C11.6504 211.773 11.4336 212.21 11.4336 212.757C11.4336 213.292 11.6465 213.724 12.0723 214.052C12.498 214.38 13.1074 214.544 13.9004 214.544ZM17 204.349L17 205.433L8 205.433L8 204.349L17 204.349ZM17.1172 199.978C17.1172 200.837 16.8359 201.537 16.2734 202.076C15.707 202.615 14.9512 202.884 14.0059 202.884L13.8066 202.884C13.1777 202.884 12.6172 202.765 12.125 202.527C11.6289 202.285 11.2422 201.949 10.9648 201.519C10.6836 201.085 10.543 200.617 10.543 200.113C10.543 199.289 10.8145 198.648 11.3574 198.191C11.9004 197.734 12.6777 197.505 13.6895 197.505L14.1406 197.505L14.1406 201.8C14.7656 201.785 15.2715 201.603 15.6582 201.255C16.041 200.904 16.2324 200.458 16.2324 199.919C16.2324 199.537 16.1543 199.212 15.998 198.947C15.8418 198.681 15.6348 198.449 15.377 198.249L15.8926 197.587C16.709 198.119 17.1172 198.915 17.1172 199.978ZM11.4336 200.113C11.4336 200.55 11.5937 200.917 11.9141 201.214C12.2305 201.511 12.6758 201.695 13.25 201.765L13.25 198.589L13.168 198.589C12.6172 198.621 12.1914 198.769 11.8906 199.035C11.5859 199.3 11.4336 199.66 11.4336 200.113ZM13.7773 196.503C12.7891 196.503 12.0039 196.275 11.4219 195.818C10.8359 195.361 10.543 194.755 10.543 194.001C10.543 193.228 10.8164 192.624 11.3633 192.191L10.6602 192.138L10.6602 191.148L16.8477 191.148C17.668 191.148 18.3145 191.392 18.7871 191.88C19.2598 192.365 19.4961 193.017 19.4961 193.837C19.4961 194.294 19.3984 194.742 19.2031 195.179C19.0078 195.617 18.7402 195.951 18.4004 196.181L17.75 195.619C18.3242 195.154 18.6113 194.585 18.6113 193.914C18.6113 193.386 18.4629 192.976 18.166 192.683C17.8691 192.386 17.4512 192.238 16.9121 192.238L16.3672 192.238C16.8672 192.671 17.1172 193.263 17.1172 194.013C17.1172 194.755 16.8184 195.357 16.2207 195.818C15.623 196.275 14.8086 196.503 13.7773 196.503ZM13.9004 195.414C14.6152 195.414 15.1777 195.267 15.5879 194.974C15.9941 194.681 16.1973 194.271 16.1973 193.744C16.1973 193.06 15.8867 192.558 15.2656 192.238L12.3711 192.238C11.7656 192.57 11.4629 193.068 11.4629 193.732C11.4629 194.259 11.668 194.671 12.0781 194.968C12.4883 195.265 13.0957 195.414 13.9004 195.414ZM17 185.593C16.875 185.656 16.6523 185.706 16.332 185.746C16.8555 186.249 17.1172 186.851 17.1172 187.55C17.1172 188.175 16.9414 188.689 16.5898 189.091C16.2344 189.49 15.7852 189.689 15.2422 189.689C14.582 189.689 14.0703 189.439 13.707 188.939C13.3398 188.435 13.1562 187.728 13.1562 186.818L13.1562 185.763L12.6582 185.763C12.2793 185.763 11.9785 185.876 11.7559 186.103C11.5293 186.33 11.416 186.664 11.416 187.105C11.416 187.492 11.5137 187.816 11.709 188.078C11.9043 188.339 12.1406 188.47 12.418 188.47L12.418 189.56C12.1016 189.56 11.7969 189.449 11.5039 189.226C11.207 188.999 10.9727 188.695 10.8008 188.312C10.6289 187.925 10.543 187.501 10.543 187.04C10.543 186.31 10.7266 185.738 11.0937 185.324C11.457 184.91 11.959 184.695 12.5996 184.679L15.5176 184.679C16.0996 184.679 16.5625 184.605 16.9062 184.456L17 184.456L17 185.593ZM16.1738 187.392C16.1738 187.052 16.0859 186.73 15.9102 186.425C15.7344 186.121 15.5059 185.9 15.2246 185.763L13.9238 185.763L13.9238 186.613C13.9238 187.941 14.3125 188.605 15.0898 188.605C15.4297 188.605 15.6953 188.492 15.8867 188.265C16.0781 188.039 16.1738 187.748 16.1738 187.392ZM17 181.802L17 182.886L8 182.886L8 181.802L17 181.802Z" fill="#579EA8"/>
<path d="M26.9619 171H25.9072L25.9072 159.469L22.4268 160.761V159.776L26.7861 158.159H26.9619L26.9619 171ZM32.7627 164.443L33.3867 158.203H39.7852V159.179H34.292L33.8438 163.503C34.5293 163.034 35.332 162.8 36.252 162.8C37.4062 162.8 38.3262 163.175 39.0117 163.925C39.6973 164.675 40.04 165.674 40.04 166.922C40.04 168.27 39.7061 169.315 39.0381 170.06C38.3701 170.804 37.4297 171.176 36.2168 171.176C35.1035 171.176 34.2012 170.865 33.5098 170.244C32.8184 169.623 32.4229 168.753 32.3232 167.634H33.334C33.4336 168.507 33.7295 169.169 34.2217 169.62C34.7139 170.065 35.3789 170.288 36.2168 170.288C37.1309 170.288 37.8193 169.998 38.2822 169.418C38.751 168.838 38.9854 168.012 38.9854 166.939C38.9854 166.002 38.7246 165.237 38.2031 164.646C37.6816 164.054 36.9697 163.758 36.0674 163.758C35.5693 163.758 35.1357 163.822 34.7666 163.951C34.3975 164.074 34.0078 164.317 33.5977 164.681L32.7627 164.443ZM41.7891 160.664C41.7891 159.902 42.0234 159.272 42.4922 158.774C42.9668 158.271 43.5674 158.019 44.2939 158.019C45.0205 158.019 45.6182 158.271 46.0869 158.774C46.5615 159.272 46.7988 159.92 46.7988 160.717V161.341C46.7988 162.091 46.5645 162.718 46.0957 163.222C45.6328 163.72 45.0381 163.969 44.3115 163.969C43.5908 163.969 42.9902 163.723 42.5098 163.23C42.0293 162.738 41.7891 162.088 41.7891 161.279V160.664ZM42.6416 161.341C42.6416 161.886 42.791 162.334 43.0898 162.686C43.3945 163.037 43.8018 163.213 44.3115 163.213C44.8096 163.213 45.2051 163.037 45.498 162.686C45.7969 162.328 45.9463 161.868 45.9463 161.306V160.664C45.9463 160.119 45.7939 159.671 45.4893 159.319C45.1846 158.962 44.7861 158.783 44.2939 158.783C43.8076 158.783 43.4092 158.959 43.0986 159.311C42.7939 159.662 42.6416 160.131 42.6416 160.717V161.341ZM48.2314 167.862C48.2314 167.101 48.4658 166.471 48.9346 165.973C49.4092 165.475 50.0068 165.226 50.7275 165.226C51.4482 165.226 52.0459 165.475 52.5205 165.973C53.001 166.465 53.2412 167.115 53.2412 167.924V168.548C53.2412 169.31 53.0039 169.939 52.5293 170.438C52.0605 170.936 51.4658 171.185 50.7451 171.185C50.0244 171.185 49.4238 170.938 48.9434 170.446C48.4688 169.948 48.2314 169.301 48.2314 168.504V167.862ZM49.0752 168.548C49.0752 169.099 49.2246 169.55 49.5234 169.901C49.8281 170.253 50.2354 170.429 50.7451 170.429C51.249 170.429 51.6475 170.253 51.9404 169.901C52.2393 169.544 52.3887 169.078 52.3887 168.504V167.862C52.3887 167.3 52.2363 166.849 51.9316 166.509C51.6328 166.163 51.2314 165.99 50.7275 165.99C50.2354 165.99 49.8369 166.163 49.5322 166.509C49.2275 166.854 49.0752 167.317 49.0752 167.897V168.548ZM44.6455 169.937L43.9863 169.515L50.2354 159.513L50.8945 159.935L44.6455 169.937Z" fill="#579EA8"/>
<path d="M85.8282 266.464H82.9923V252.765L78.8087 254.195V251.792L85.4649 249.343H85.8282V266.464ZM92.5196 258.003L93.4454 249.402H102.609V251.863H95.8126L95.3438 255.941C96.1329 255.488 97.0235 255.261 98.0157 255.261C99.6407 255.261 100.902 255.781 101.801 256.82C102.707 257.859 103.16 259.257 103.16 261.015C103.16 262.749 102.66 264.132 101.66 265.164C100.66 266.187 99.2891 266.699 97.5469 266.699C95.9844 266.699 94.6876 266.257 93.6563 265.374C92.6329 264.484 92.0782 263.312 91.9923 261.859H94.7462C94.8555 262.687 95.1524 263.324 95.6368 263.769C96.1212 264.206 96.754 264.425 97.5352 264.425C98.4102 264.425 99.0899 264.113 99.5743 263.488C100.066 262.863 100.313 262.011 100.313 260.933C100.313 259.894 100.043 259.074 99.504 258.472C98.9649 257.863 98.2227 257.558 97.2774 257.558C96.7618 257.558 96.3243 257.628 95.9649 257.769C95.6055 257.902 95.2149 258.167 94.793 258.566L92.5196 258.003ZM105.984 270.308L104.449 269.394C104.902 268.683 105.211 268.062 105.375 267.531C105.547 267.007 105.637 266.472 105.645 265.925V263.71H108.211L108.199 265.761C108.191 266.589 107.981 267.417 107.566 268.246C107.16 269.081 106.633 269.769 105.984 270.308ZM113.965 256.632H115.699C116.574 256.624 117.266 256.398 117.774 255.953C118.289 255.507 118.547 254.863 118.547 254.019C118.547 253.206 118.332 252.578 117.902 252.132C117.481 251.679 116.832 251.453 115.957 251.453C115.191 251.453 114.563 251.675 114.07 252.121C113.578 252.558 113.332 253.132 113.332 253.843H110.484C110.484 252.968 110.715 252.171 111.176 251.453C111.645 250.734 112.293 250.175 113.121 249.777C113.957 249.371 114.891 249.167 115.922 249.167C117.625 249.167 118.961 249.597 119.93 250.456C120.906 251.308 121.395 252.496 121.395 254.019C121.395 254.785 121.149 255.507 120.656 256.187C120.172 256.859 119.543 257.367 118.77 257.71C119.707 258.031 120.418 258.535 120.902 259.222C121.395 259.91 121.641 260.73 121.641 261.683C121.641 263.214 121.113 264.433 120.059 265.339C119.012 266.246 117.633 266.699 115.922 266.699C114.281 266.699 112.938 266.261 111.891 265.386C110.844 264.511 110.32 263.347 110.32 261.894H113.168C113.168 262.644 113.418 263.253 113.918 263.722C114.426 264.191 115.106 264.425 115.957 264.425C116.84 264.425 117.535 264.191 118.043 263.722C118.551 263.253 118.805 262.574 118.805 261.683C118.805 260.785 118.539 260.093 118.008 259.609C117.477 259.124 116.688 258.882 115.641 258.882H113.965V256.632ZM124.195 252.683C124.195 251.652 124.527 250.808 125.191 250.152C125.856 249.488 126.727 249.156 127.805 249.156C128.899 249.156 129.774 249.488 130.43 250.152C131.094 250.808 131.426 251.671 131.426 252.742V253.585C131.426 254.609 131.094 255.449 130.43 256.105C129.774 256.761 128.906 257.089 127.828 257.089C126.774 257.089 125.902 256.769 125.215 256.128C124.535 255.48 124.195 254.609 124.195 253.515V252.683ZM126.188 253.585C126.188 254.124 126.336 254.562 126.633 254.898C126.938 255.226 127.336 255.39 127.828 255.39C128.313 255.39 128.703 255.226 129 254.898C129.297 254.562 129.445 254.109 129.445 253.539V252.683C129.445 252.144 129.293 251.706 128.988 251.371C128.691 251.035 128.297 250.867 127.805 250.867C127.313 250.867 126.918 251.039 126.621 251.382C126.332 251.718 126.188 252.164 126.188 252.718V253.585ZM132.399 262.281C132.399 261.234 132.738 260.386 133.418 259.738C134.098 259.089 134.965 258.765 136.02 258.765C137.082 258.765 137.949 259.089 138.621 259.738C139.301 260.386 139.641 261.261 139.641 262.363V263.195C139.641 264.21 139.313 265.05 138.656 265.714C138.008 266.371 137.137 266.699 136.043 266.699C134.949 266.699 134.066 266.374 133.395 265.726C132.731 265.07 132.399 264.206 132.399 263.136V262.281ZM134.391 263.195C134.391 263.726 134.543 264.164 134.848 264.507C135.16 264.843 135.559 265.011 136.043 265.011C136.543 265.011 136.934 264.851 137.215 264.531C137.504 264.203 137.649 263.746 137.649 263.16V262.281C137.649 261.734 137.496 261.296 137.191 260.968C136.887 260.64 136.496 260.476 136.02 260.476C135.535 260.476 135.141 260.64 134.836 260.968C134.539 261.296 134.391 261.749 134.391 262.328V263.195ZM128.414 265.187L126.949 264.343L135.281 251.007L136.746 251.851L128.414 265.187Z" fill="white"/>
<path d="M222.345 158.766C223.32 158.766 224.172 158.93 224.901 159.258C225.626 159.586 226.18 160.051 226.562 160.652C226.945 161.254 227.137 161.956 227.137 162.758C227.137 163.542 226.945 164.237 226.562 164.843C226.175 165.449 225.626 165.921 224.915 166.258C224.2 166.59 223.372 166.761 222.434 166.771L221.716 166.771C220.759 166.771 219.913 166.604 219.18 166.271C218.446 165.939 217.885 165.469 217.498 164.863C217.106 164.253 216.91 163.555 216.91 162.771C216.91 161.974 217.104 161.272 217.491 160.666C217.874 160.055 218.432 159.586 219.166 159.258C219.895 158.93 220.745 158.766 221.716 158.766L222.345 158.766ZM221.702 160.071C220.522 160.071 219.617 160.308 218.988 160.782C218.355 161.256 218.038 161.919 218.038 162.771C218.038 163.601 218.355 164.255 218.988 164.733C219.617 165.207 220.492 165.451 221.613 165.465L222.345 165.465C223.489 165.465 224.389 165.226 225.045 164.747C225.697 164.264 226.022 163.601 226.022 162.758C226.022 161.91 225.715 161.254 225.1 160.789C224.48 160.324 223.593 160.085 222.44 160.071L221.702 160.071ZM220.738 153.42C220.706 153.611 220.69 153.819 220.69 154.042C220.69 154.871 221.044 155.434 221.75 155.73L227 155.73L227 156.995L219.604 156.995L219.604 155.765L220.458 155.744C219.797 155.329 219.467 154.742 219.467 153.98C219.467 153.734 219.499 153.548 219.562 153.42L220.738 153.42ZM226.104 149.421C226.104 148.97 225.968 148.576 225.694 148.238C225.421 147.901 225.079 147.714 224.669 147.678L224.669 146.481C225.093 146.504 225.496 146.65 225.879 146.919C226.262 147.188 226.567 147.548 226.795 147.999C227.023 148.446 227.137 148.92 227.137 149.421C227.137 150.428 226.802 151.23 226.132 151.827C225.457 152.42 224.537 152.716 223.37 152.716L223.158 152.716C222.438 152.716 221.798 152.584 221.237 152.319C220.677 152.055 220.242 151.677 219.932 151.185C219.622 150.688 219.467 150.102 219.467 149.428C219.467 148.598 219.715 147.91 220.212 147.363C220.709 146.812 221.354 146.518 222.146 146.481L222.146 147.678C221.668 147.714 221.276 147.896 220.971 148.225C220.661 148.548 220.506 148.949 220.506 149.428C220.506 150.07 220.738 150.569 221.203 150.925C221.663 151.276 222.331 151.451 223.206 151.451L223.445 151.451C224.298 151.451 224.954 151.276 225.414 150.925C225.874 150.574 226.104 150.073 226.104 149.421ZM227.062 149.216L227.417 149.298C227.54 148.601 227.934 148.252 228.6 148.252C229.042 148.252 229.39 148.434 229.646 148.799C229.905 149.163 230.035 149.672 230.035 150.323L229.304 150.371C229.304 150.011 229.244 149.733 229.126 149.537C229.007 149.337 228.841 149.236 228.627 149.236C228.426 149.236 228.278 149.309 228.183 149.455C228.087 149.601 228.019 149.897 227.978 150.344L227.062 150.125L227.062 149.216ZM227 140.493C226.854 140.566 226.594 140.625 226.221 140.671C226.831 141.259 227.137 141.961 227.137 142.776C227.137 143.506 226.932 144.105 226.521 144.574C226.107 145.039 225.583 145.271 224.949 145.271C224.179 145.271 223.582 144.98 223.158 144.396C222.73 143.809 222.516 142.984 222.516 141.922L222.516 140.691L221.935 140.691C221.493 140.691 221.142 140.824 220.882 141.088C220.618 141.352 220.485 141.742 220.485 142.257C220.485 142.708 220.599 143.086 220.827 143.392C221.055 143.697 221.331 143.85 221.654 143.85L221.654 145.121C221.285 145.121 220.93 144.991 220.588 144.731C220.242 144.467 219.968 144.112 219.768 143.665C219.567 143.214 219.467 142.719 219.467 142.182C219.467 141.329 219.681 140.662 220.109 140.179C220.533 139.696 221.119 139.445 221.866 139.427L225.271 139.427C225.95 139.427 226.49 139.34 226.891 139.167L227 139.167L227 140.493ZM226.036 142.592C226.036 142.195 225.934 141.819 225.729 141.464C225.523 141.108 225.257 140.851 224.929 140.691L223.411 140.691L223.411 141.683C223.411 143.232 223.865 144.007 224.771 144.007C225.168 144.007 225.478 143.875 225.701 143.61C225.924 143.346 226.036 143.007 226.036 142.592ZM219.604 136.255L220.424 136.221C219.786 135.678 219.467 134.947 219.467 134.026C219.467 132.992 219.863 132.288 220.656 131.914C220.301 131.668 220.014 131.349 219.795 130.957C219.576 130.561 219.467 130.093 219.467 129.556C219.467 127.933 220.326 127.108 222.044 127.081L227 127.081L227 128.346L222.119 128.346C221.59 128.346 221.196 128.466 220.937 128.708C220.672 128.95 220.54 129.355 220.54 129.925C220.54 130.394 220.681 130.784 220.964 131.094C221.242 131.404 221.618 131.584 222.092 131.634L227 131.634L227 132.905L222.153 132.905C221.078 132.905 220.54 133.432 220.54 134.484C220.54 135.314 220.893 135.881 221.6 136.187L227 136.187L227 137.451L219.604 137.451L219.604 136.255ZM227.137 122.098C227.137 123.1 226.809 123.916 226.152 124.545C225.492 125.174 224.61 125.488 223.507 125.488L223.274 125.488C222.541 125.488 221.887 125.349 221.312 125.071C220.734 124.789 220.283 124.397 219.959 123.896C219.631 123.39 219.467 122.843 219.467 122.255C219.467 121.293 219.784 120.546 220.417 120.013C221.05 119.479 221.957 119.213 223.138 119.213L223.664 119.213L223.664 124.224C224.393 124.205 224.983 123.993 225.435 123.588C225.881 123.178 226.104 122.658 226.104 122.029C226.104 121.583 226.013 121.204 225.831 120.895C225.649 120.585 225.407 120.313 225.106 120.081L225.708 119.309C226.66 119.928 227.137 120.858 227.137 122.098ZM220.506 122.255C220.506 122.765 220.693 123.194 221.066 123.54C221.436 123.886 221.955 124.101 222.625 124.183L222.625 120.478L222.529 120.478C221.887 120.514 221.39 120.687 221.039 120.997C220.684 121.307 220.506 121.726 220.506 122.255ZM219.604 116.547L220.533 116.506C219.822 115.941 219.467 115.202 219.467 114.291C219.467 112.728 220.349 111.939 222.112 111.926L227 111.926L227 113.19L222.105 113.19C221.572 113.195 221.178 113.318 220.923 113.56C220.668 113.797 220.54 114.168 220.54 114.674C220.54 115.084 220.649 115.444 220.868 115.754C221.087 116.064 221.374 116.305 221.729 116.479L227 116.479L227 117.743L219.604 117.743L219.604 116.547ZM217.812 108.303L219.604 108.303L219.604 106.922L220.581 106.922L220.581 108.303L225.168 108.303C225.464 108.303 225.687 108.241 225.838 108.118C225.984 107.995 226.057 107.785 226.057 107.489C226.057 107.343 226.029 107.143 225.975 106.888L227 106.888C227.091 107.22 227.137 107.544 227.137 107.858C227.137 108.424 226.966 108.85 226.624 109.137C226.282 109.424 225.797 109.567 225.168 109.567L220.581 109.567L220.581 110.914L219.604 110.914L219.604 109.567L217.812 109.567L217.812 108.303ZM223.233 105.91C222.509 105.91 221.857 105.769 221.278 105.486C220.7 105.199 220.253 104.803 219.938 104.297C219.624 103.786 219.467 103.205 219.467 102.554C219.467 101.547 219.815 100.733 220.513 100.113C221.21 99.4889 222.137 99.1768 223.295 99.1768L223.384 99.1768C224.104 99.1768 224.751 99.3158 225.325 99.5937C225.895 99.8672 226.339 100.261 226.658 100.776C226.977 101.287 227.137 101.875 227.137 102.54C227.137 103.543 226.788 104.356 226.091 104.98C225.394 105.6 224.471 105.91 223.322 105.91L223.233 105.91ZM223.384 104.639C224.204 104.639 224.863 104.45 225.359 104.071C225.856 103.688 226.104 103.178 226.104 102.54C226.104 101.897 225.854 101.387 225.353 101.009C224.847 100.631 224.14 100.441 223.233 100.441C222.422 100.441 221.766 100.635 221.265 101.022C220.759 101.405 220.506 101.916 220.506 102.554C220.506 103.178 220.754 103.682 221.251 104.064C221.748 104.447 222.459 104.639 223.384 104.639Z" fill="#787878"/>
</svg>
