<svg width="232" height="359" viewBox="0 0 232 359" fill="none" xmlns="http://www.w3.org/2000/svg">
<path d="M16.6162 332.321C16.1826 332.942 15.5762 333.408 14.7969 333.719C14.0234 334.023 13.1211 334.176 12.0898 334.176C11.0469 334.176 10.1211 333.933 9.3125 333.446C8.50391 332.954 7.87695 332.257 7.43164 331.354C6.99219 330.452 6.7666 329.406 6.75488 328.217V327.101C6.75488 325.173 7.20312 323.679 8.09961 322.618C9.00195 321.558 10.2676 321.027 11.8965 321.027C13.2324 321.027 14.3076 321.37 15.1221 322.056C15.9365 322.735 16.4346 323.702 16.6162 324.956H14.9287C14.6123 323.263 13.6045 322.416 11.9053 322.416C10.7744 322.416 9.91602 322.814 9.33008 323.611C8.75 324.402 8.45703 325.551 8.45117 327.057V328.103C8.45117 329.538 8.7793 330.681 9.43555 331.53C10.0918 332.374 10.9795 332.796 12.0986 332.796C12.7314 332.796 13.2852 332.726 13.7598 332.585C14.2344 332.444 14.627 332.207 14.9375 331.873V328.999H11.9756V327.628H16.6162V332.321ZM25.0537 334C24.96 333.812 24.8838 333.479 24.8252 332.998C24.0693 333.783 23.167 334.176 22.1182 334.176C21.1807 334.176 20.4102 333.912 19.8066 333.385C19.209 332.852 18.9102 332.178 18.9102 331.363C18.9102 330.373 19.2852 329.605 20.0352 329.061C20.791 328.51 21.8516 328.234 23.2168 328.234H24.7988V327.487C24.7988 326.919 24.6289 326.468 24.2891 326.134C23.9492 325.794 23.4482 325.624 22.7861 325.624C22.2061 325.624 21.7197 325.771 21.3271 326.063C20.9346 326.356 20.7383 326.711 20.7383 327.127H19.1035C19.1035 326.652 19.2705 326.195 19.6045 325.756C19.9443 325.311 20.4014 324.959 20.9756 324.701C21.5557 324.443 22.1914 324.314 22.8828 324.314C23.9785 324.314 24.8369 324.59 25.458 325.141C26.0791 325.686 26.4014 326.438 26.4248 327.399V331.776C26.4248 332.649 26.5361 333.344 26.7588 333.859V334H25.0537ZM22.3555 332.761C22.8652 332.761 23.3486 332.629 23.8057 332.365C24.2627 332.102 24.5938 331.759 24.7988 331.337V329.386H23.5244C21.5322 329.386 20.5361 329.969 20.5361 331.135C20.5361 331.645 20.7061 332.043 21.0459 332.33C21.3857 332.617 21.8223 332.761 22.3555 332.761ZM34.5107 331.478C34.5107 331.038 34.3438 330.698 34.0098 330.458C33.6816 330.212 33.1045 330.001 32.2783 329.825C31.458 329.649 30.8047 329.438 30.3184 329.192C29.8379 328.946 29.4805 328.653 29.2461 328.313C29.0176 327.974 28.9033 327.569 28.9033 327.101C28.9033 326.321 29.2314 325.662 29.8877 325.123C30.5498 324.584 31.3936 324.314 32.4189 324.314C33.4971 324.314 34.3701 324.593 35.0381 325.149C35.7119 325.706 36.0488 326.418 36.0488 327.285H34.4141C34.4141 326.84 34.2236 326.456 33.8428 326.134C33.4678 325.812 32.9932 325.65 32.4189 325.65C31.8271 325.65 31.3643 325.779 31.0303 326.037C30.6963 326.295 30.5293 326.632 30.5293 327.048C30.5293 327.44 30.6846 327.736 30.9951 327.936C31.3057 328.135 31.8652 328.325 32.6738 328.507C33.4883 328.688 34.1475 328.905 34.6514 329.157C35.1553 329.409 35.5273 329.714 35.7676 330.071C36.0137 330.423 36.1367 330.854 36.1367 331.363C36.1367 332.213 35.7969 332.896 35.1172 333.411C34.4375 333.921 33.5557 334.176 32.4717 334.176C31.71 334.176 31.0361 334.041 30.4502 333.771C29.8643 333.502 29.4043 333.127 29.0703 332.646C28.7422 332.16 28.5781 331.636 28.5781 331.073H30.2041C30.2334 331.618 30.4502 332.052 30.8545 332.374C31.2646 332.69 31.8037 332.849 32.4717 332.849C33.0869 332.849 33.5791 332.726 33.9482 332.479C34.3232 332.228 34.5107 331.894 34.5107 331.478ZM40.4609 322.188V324.49H42.2363V325.747H40.4609V331.645C40.4609 332.025 40.54 332.312 40.6982 332.506C40.8564 332.693 41.126 332.787 41.5068 332.787C41.6943 332.787 41.9521 332.752 42.2803 332.682V334C41.8525 334.117 41.4365 334.176 41.0322 334.176C40.3057 334.176 39.7578 333.956 39.3887 333.517C39.0195 333.077 38.835 332.453 38.835 331.645V325.747H37.1035V324.49H38.835V322.188H40.4609ZM43.5371 329.157C43.5371 328.226 43.7188 327.388 44.082 326.644C44.4512 325.899 44.9609 325.325 45.6113 324.921C46.2676 324.517 47.0146 324.314 47.8525 324.314C49.1475 324.314 50.1934 324.763 50.9902 325.659C51.793 326.556 52.1943 327.748 52.1943 329.236V329.351C52.1943 330.276 52.0156 331.108 51.6582 331.847C51.3066 332.579 50.7998 333.15 50.1377 333.561C49.4814 333.971 48.7256 334.176 47.8701 334.176C46.5811 334.176 45.5352 333.728 44.7324 332.831C43.9355 331.935 43.5371 330.748 43.5371 329.271V329.157ZM45.1719 329.351C45.1719 330.405 45.415 331.252 45.9014 331.891C46.3936 332.529 47.0498 332.849 47.8701 332.849C48.6963 332.849 49.3525 332.526 49.8389 331.882C50.3252 331.231 50.5684 330.323 50.5684 329.157C50.5684 328.114 50.3193 327.271 49.8213 326.626C49.3291 325.976 48.6729 325.65 47.8525 325.65C47.0498 325.65 46.4023 325.97 45.9102 326.608C45.418 327.247 45.1719 328.161 45.1719 329.351ZM59.7705 331.478C59.7705 331.038 59.6035 330.698 59.2695 330.458C58.9414 330.212 58.3643 330.001 57.5381 329.825C56.7178 329.649 56.0645 329.438 55.5781 329.192C55.0977 328.946 54.7402 328.653 54.5059 328.313C54.2773 327.974 54.1631 327.569 54.1631 327.101C54.1631 326.321 54.4912 325.662 55.1475 325.123C55.8096 324.584 56.6533 324.314 57.6787 324.314C58.7568 324.314 59.6299 324.593 60.2979 325.149C60.9717 325.706 61.3086 326.418 61.3086 327.285H59.6738C59.6738 326.84 59.4834 326.456 59.1025 326.134C58.7275 325.812 58.2529 325.65 57.6787 325.65C57.0869 325.65 56.624 325.779 56.29 326.037C55.9561 326.295 55.7891 326.632 55.7891 327.048C55.7891 327.44 55.9443 327.736 56.2549 327.936C56.5654 328.135 57.125 328.325 57.9336 328.507C58.748 328.688 59.4072 328.905 59.9111 329.157C60.415 329.409 60.7871 329.714 61.0273 330.071C61.2734 330.423 61.3965 330.854 61.3965 331.363C61.3965 332.213 61.0566 332.896 60.377 333.411C59.6973 333.921 58.8154 334.176 57.7314 334.176C56.9697 334.176 56.2959 334.041 55.71 333.771C55.124 333.502 54.6641 333.127 54.3301 332.646C54.002 332.16 53.8379 331.636 53.8379 331.073H55.4639C55.4932 331.618 55.71 332.052 56.1143 332.374C56.5244 332.69 57.0635 332.849 57.7314 332.849C58.3467 332.849 58.8389 332.726 59.208 332.479C59.583 332.228 59.7705 331.894 59.7705 331.478ZM71.9258 334.176C70.6367 334.176 69.5879 333.754 68.7793 332.91C67.9707 332.061 67.5664 330.927 67.5664 329.509V329.21C67.5664 328.267 67.7451 327.426 68.1025 326.688C68.4658 325.943 68.9697 325.363 69.6143 324.947C70.2646 324.525 70.9678 324.314 71.7236 324.314C72.96 324.314 73.9209 324.722 74.6064 325.536C75.292 326.351 75.6348 327.517 75.6348 329.034V329.711H69.1924C69.2158 330.648 69.4883 331.407 70.0098 331.987C70.5371 332.562 71.2051 332.849 72.0137 332.849C72.5879 332.849 73.0742 332.731 73.4727 332.497C73.8711 332.263 74.2197 331.952 74.5186 331.565L75.5117 332.339C74.7148 333.563 73.5195 334.176 71.9258 334.176ZM71.7236 325.65C71.0674 325.65 70.5166 325.891 70.0713 326.371C69.626 326.846 69.3506 327.514 69.2451 328.375H74.0088V328.252C73.9619 327.426 73.7393 326.787 73.3408 326.336C72.9424 325.879 72.4033 325.65 71.7236 325.65ZM79.0537 324.49L79.0977 325.545C79.7949 324.725 80.7354 324.314 81.9189 324.314C83.249 324.314 84.1543 324.824 84.6348 325.844C84.9512 325.387 85.3613 325.018 85.8652 324.736C86.375 324.455 86.9756 324.314 87.667 324.314C89.7529 324.314 90.8135 325.419 90.8486 327.628V334H89.2227V327.725C89.2227 327.045 89.0674 326.538 88.7568 326.204C88.4463 325.864 87.9248 325.694 87.1924 325.694C86.5889 325.694 86.0879 325.876 85.6895 326.239C85.291 326.597 85.0596 327.08 84.9951 327.689V334H83.3604V327.769C83.3604 326.386 82.6836 325.694 81.3301 325.694C80.2637 325.694 79.5342 326.148 79.1416 327.057V334H77.5156V324.49H79.0537ZM105.087 328.349H99.7168V334H98.0293V321.203H105.957V322.592H99.7168V326.969H105.087V328.349ZM109.49 334H107.864V324.49H109.49V334ZM107.732 321.968C107.732 321.704 107.812 321.481 107.97 321.3C108.134 321.118 108.374 321.027 108.69 321.027C109.007 321.027 109.247 321.118 109.411 321.3C109.575 321.481 109.657 321.704 109.657 321.968C109.657 322.231 109.575 322.451 109.411 322.627C109.247 322.803 109.007 322.891 108.69 322.891C108.374 322.891 108.134 322.803 107.97 322.627C107.812 322.451 107.732 322.231 107.732 321.968ZM117.638 331.478C117.638 331.038 117.471 330.698 117.137 330.458C116.809 330.212 116.231 330.001 115.405 329.825C114.585 329.649 113.932 329.438 113.445 329.192C112.965 328.946 112.607 328.653 112.373 328.313C112.145 327.974 112.03 327.569 112.03 327.101C112.03 326.321 112.358 325.662 113.015 325.123C113.677 324.584 114.521 324.314 115.546 324.314C116.624 324.314 117.497 324.593 118.165 325.149C118.839 325.706 119.176 326.418 119.176 327.285H117.541C117.541 326.84 117.351 326.456 116.97 326.134C116.595 325.812 116.12 325.65 115.546 325.65C114.954 325.65 114.491 325.779 114.157 326.037C113.823 326.295 113.656 326.632 113.656 327.048C113.656 327.44 113.812 327.736 114.122 327.936C114.433 328.135 114.992 328.325 115.801 328.507C116.615 328.688 117.274 328.905 117.778 329.157C118.282 329.409 118.654 329.714 118.895 330.071C119.141 330.423 119.264 330.854 119.264 331.363C119.264 332.213 118.924 332.896 118.244 333.411C117.564 333.921 116.683 334.176 115.599 334.176C114.837 334.176 114.163 334.041 113.577 333.771C112.991 333.502 112.531 333.127 112.197 332.646C111.869 332.16 111.705 331.636 111.705 331.073H113.331C113.36 331.618 113.577 332.052 113.981 332.374C114.392 332.69 114.931 332.849 115.599 332.849C116.214 332.849 116.706 332.726 117.075 332.479C117.45 332.228 117.638 331.894 117.638 331.478ZM125.196 332.849C125.776 332.849 126.283 332.673 126.717 332.321C127.15 331.97 127.391 331.53 127.438 331.003H128.976C128.946 331.548 128.759 332.066 128.413 332.559C128.067 333.051 127.604 333.443 127.024 333.736C126.45 334.029 125.841 334.176 125.196 334.176C123.901 334.176 122.87 333.745 122.103 332.884C121.341 332.017 120.96 330.833 120.96 329.333V329.061C120.96 328.135 121.13 327.312 121.47 326.591C121.81 325.87 122.296 325.311 122.929 324.912C123.567 324.514 124.32 324.314 125.188 324.314C126.254 324.314 127.139 324.634 127.842 325.272C128.551 325.911 128.929 326.74 128.976 327.76H127.438C127.391 327.145 127.156 326.641 126.734 326.248C126.318 325.85 125.803 325.65 125.188 325.65C124.361 325.65 123.72 325.949 123.263 326.547C122.812 327.139 122.586 327.997 122.586 329.122V329.43C122.586 330.525 122.812 331.369 123.263 331.961C123.714 332.553 124.358 332.849 125.196 332.849ZM136.675 334C136.581 333.812 136.505 333.479 136.446 332.998C135.69 333.783 134.788 334.176 133.739 334.176C132.802 334.176 132.031 333.912 131.428 333.385C130.83 332.852 130.531 332.178 130.531 331.363C130.531 330.373 130.906 329.605 131.656 329.061C132.412 328.51 133.473 328.234 134.838 328.234H136.42V327.487C136.42 326.919 136.25 326.468 135.91 326.134C135.57 325.794 135.069 325.624 134.407 325.624C133.827 325.624 133.341 325.771 132.948 326.063C132.556 326.356 132.359 326.711 132.359 327.127H130.725C130.725 326.652 130.892 326.195 131.226 325.756C131.565 325.311 132.022 324.959 132.597 324.701C133.177 324.443 133.812 324.314 134.504 324.314C135.6 324.314 136.458 324.59 137.079 325.141C137.7 325.686 138.022 326.438 138.046 327.399V331.776C138.046 332.649 138.157 333.344 138.38 333.859V334H136.675ZM133.977 332.761C134.486 332.761 134.97 332.629 135.427 332.365C135.884 332.102 136.215 331.759 136.42 331.337V329.386H135.146C133.153 329.386 132.157 329.969 132.157 331.135C132.157 331.645 132.327 332.043 132.667 332.33C133.007 332.617 133.443 332.761 133.977 332.761ZM142.361 334H140.735V320.5H142.361V334ZM146.738 334H145.112V324.49H146.738V334ZM144.98 321.968C144.98 321.704 145.06 321.481 145.218 321.3C145.382 321.118 145.622 321.027 145.938 321.027C146.255 321.027 146.495 321.118 146.659 321.3C146.823 321.481 146.905 321.704 146.905 321.968C146.905 322.231 146.823 322.451 146.659 322.627C146.495 322.803 146.255 322.891 145.938 322.891C145.622 322.891 145.382 322.803 145.218 322.627C145.06 322.451 144.98 322.231 144.98 321.968ZM150.878 332.673H156.441V334H148.892V332.805L154.139 325.835H148.971V324.49H156.178V325.642L150.878 332.673ZM164.149 334C164.056 333.812 163.979 333.479 163.921 332.998C163.165 333.783 162.263 334.176 161.214 334.176C160.276 334.176 159.506 333.912 158.902 333.385C158.305 332.852 158.006 332.178 158.006 331.363C158.006 330.373 158.381 329.605 159.131 329.061C159.887 328.51 160.947 328.234 162.312 328.234H163.895V327.487C163.895 326.919 163.725 326.468 163.385 326.134C163.045 325.794 162.544 325.624 161.882 325.624C161.302 325.624 160.815 325.771 160.423 326.063C160.03 326.356 159.834 326.711 159.834 327.127H158.199C158.199 326.652 158.366 326.195 158.7 325.756C159.04 325.311 159.497 324.959 160.071 324.701C160.651 324.443 161.287 324.314 161.979 324.314C163.074 324.314 163.933 324.59 164.554 325.141C165.175 325.686 165.497 326.438 165.521 327.399V331.776C165.521 332.649 165.632 333.344 165.854 333.859V334H164.149ZM161.451 332.761C161.961 332.761 162.444 332.629 162.901 332.365C163.358 332.102 163.689 331.759 163.895 331.337V329.386H162.62C160.628 329.386 159.632 329.969 159.632 331.135C159.632 331.645 159.802 332.043 160.142 332.33C160.481 332.617 160.918 332.761 161.451 332.761ZM171.884 332.849C172.464 332.849 172.971 332.673 173.404 332.321C173.838 331.97 174.078 331.53 174.125 331.003H175.663C175.634 331.548 175.446 332.066 175.101 332.559C174.755 333.051 174.292 333.443 173.712 333.736C173.138 334.029 172.528 334.176 171.884 334.176C170.589 334.176 169.558 333.745 168.79 332.884C168.028 332.017 167.647 330.833 167.647 329.333V329.061C167.647 328.135 167.817 327.312 168.157 326.591C168.497 325.87 168.983 325.311 169.616 324.912C170.255 324.514 171.008 324.314 171.875 324.314C172.941 324.314 173.826 324.634 174.529 325.272C175.238 325.911 175.616 326.74 175.663 327.76H174.125C174.078 327.145 173.844 326.641 173.422 326.248C173.006 325.85 172.49 325.65 171.875 325.65C171.049 325.65 170.407 325.949 169.95 326.547C169.499 327.139 169.273 327.997 169.273 329.122V329.43C169.273 330.525 169.499 331.369 169.95 331.961C170.401 332.553 171.046 332.849 171.884 332.849ZM172.147 334.079L172.042 334.536C172.938 334.694 173.387 335.201 173.387 336.057C173.387 336.625 173.152 337.073 172.684 337.401C172.215 337.735 171.562 337.902 170.724 337.902L170.662 336.962C171.125 336.962 171.482 336.886 171.734 336.733C171.992 336.581 172.121 336.367 172.121 336.092C172.121 335.834 172.027 335.644 171.84 335.521C171.652 335.397 171.271 335.31 170.697 335.257L170.979 334.079H172.147ZM183.362 334C183.269 333.812 183.192 333.479 183.134 332.998C182.378 333.783 181.476 334.176 180.427 334.176C179.489 334.176 178.719 333.912 178.115 333.385C177.518 332.852 177.219 332.178 177.219 331.363C177.219 330.373 177.594 329.605 178.344 329.061C179.1 328.51 180.16 328.234 181.525 328.234H183.107V327.487C183.107 326.919 182.938 326.468 182.598 326.134C182.258 325.794 181.757 325.624 181.095 325.624C180.515 325.624 180.028 325.771 179.636 326.063C179.243 326.356 179.047 326.711 179.047 327.127H177.412C177.412 326.652 177.579 326.195 177.913 325.756C178.253 325.311 178.71 324.959 179.284 324.701C179.864 324.443 180.5 324.314 181.191 324.314C182.287 324.314 183.146 324.59 183.767 325.141C184.388 325.686 184.71 326.438 184.733 327.399V331.776C184.733 332.649 184.845 333.344 185.067 333.859V334H183.362ZM180.664 332.761C181.174 332.761 181.657 332.629 182.114 332.365C182.571 332.102 182.902 331.759 183.107 331.337V329.386H181.833C179.841 329.386 178.845 329.969 178.845 331.135C178.845 331.645 179.015 332.043 179.354 332.33C179.694 332.617 180.131 332.761 180.664 332.761ZM184.487 320.781C184.487 321.414 184.306 321.927 183.942 322.319C183.585 322.712 183.137 322.908 182.598 322.908C182.357 322.908 182.149 322.879 181.974 322.82C181.798 322.762 181.566 322.642 181.279 322.46C180.998 322.278 180.793 322.17 180.664 322.135C180.541 322.094 180.397 322.073 180.233 322.073C179.993 322.073 179.788 322.167 179.618 322.354C179.448 322.536 179.363 322.771 179.363 323.058L178.273 322.996C178.273 322.369 178.449 321.851 178.801 321.44C179.158 321.03 179.609 320.825 180.154 320.825C180.359 320.825 180.544 320.854 180.708 320.913C180.872 320.972 181.095 321.086 181.376 321.256C181.657 321.426 181.871 321.537 182.018 321.59C182.17 321.643 182.337 321.669 182.519 321.669C182.771 321.669 182.979 321.569 183.143 321.37C183.312 321.171 183.397 320.939 183.397 320.676L184.487 320.781ZM186.852 329.157C186.852 328.226 187.033 327.388 187.396 326.644C187.766 325.899 188.275 325.325 188.926 324.921C189.582 324.517 190.329 324.314 191.167 324.314C192.462 324.314 193.508 324.763 194.305 325.659C195.107 326.556 195.509 327.748 195.509 329.236V329.351C195.509 330.276 195.33 331.108 194.973 331.847C194.621 332.579 194.114 333.15 193.452 333.561C192.796 333.971 192.04 334.176 191.185 334.176C189.896 334.176 188.85 333.728 188.047 332.831C187.25 331.935 186.852 330.748 186.852 329.271V329.157ZM188.486 329.351C188.486 330.405 188.729 331.252 189.216 331.891C189.708 332.529 190.364 332.849 191.185 332.849C192.011 332.849 192.667 332.526 193.153 331.882C193.64 331.231 193.883 330.323 193.883 329.157C193.883 328.114 193.634 327.271 193.136 326.626C192.644 325.976 191.987 325.65 191.167 325.65C190.364 325.65 189.717 325.97 189.225 326.608C188.732 327.247 188.486 328.161 188.486 329.351ZM57.3359 353.166C57.3359 351.707 57.6816 350.535 58.373 349.65C59.0645 348.76 59.9697 348.314 61.0889 348.314C62.2021 348.314 63.084 348.695 63.7344 349.457V344.5H65.3604V358H63.8662L63.7871 356.98C63.1367 357.777 62.2314 358.176 61.0713 358.176C59.9697 358.176 59.0703 357.725 58.373 356.822C57.6816 355.92 57.3359 354.742 57.3359 353.289V353.166ZM58.9619 353.351C58.9619 354.429 59.1846 355.272 59.6299 355.882C60.0752 356.491 60.6904 356.796 61.4756 356.796C62.5068 356.796 63.2598 356.333 63.7344 355.407V351.039C63.248 350.143 62.501 349.694 61.4932 349.694C60.6963 349.694 60.0752 350.002 59.6299 350.617C59.1846 351.232 58.9619 352.144 58.9619 353.351ZM71.8379 358.176C70.5488 358.176 69.5 357.754 68.6914 356.91C67.8828 356.061 67.4785 354.927 67.4785 353.509V353.21C67.4785 352.267 67.6572 351.426 68.0146 350.688C68.3779 349.943 68.8818 349.363 69.5264 348.947C70.1768 348.525 70.8799 348.314 71.6357 348.314C72.8721 348.314 73.833 348.722 74.5186 349.536C75.2041 350.351 75.5469 351.517 75.5469 353.034V353.711H69.1045C69.1279 354.648 69.4004 355.407 69.9219 355.987C70.4492 356.562 71.1172 356.849 71.9258 356.849C72.5 356.849 72.9863 356.731 73.3848 356.497C73.7832 356.263 74.1318 355.952 74.4307 355.565L75.4238 356.339C74.627 357.563 73.4316 358.176 71.8379 358.176ZM71.6357 349.65C70.9795 349.65 70.4287 349.891 69.9834 350.371C69.5381 350.846 69.2627 351.514 69.1572 352.375H73.9209V352.252C73.874 351.426 73.6514 350.787 73.2529 350.336C72.8545 349.879 72.3154 349.65 71.6357 349.65ZM90.6465 346.592H86.5332V358H84.8545V346.592H80.75V345.203H90.6465V346.592ZM96.2188 349.949C95.9727 349.908 95.7061 349.888 95.4189 349.888C94.3525 349.888 93.6289 350.342 93.248 351.25V358H91.6221V348.49H93.2041L93.2305 349.589C93.7637 348.739 94.5195 348.314 95.498 348.314C95.8145 348.314 96.0547 348.355 96.2188 348.438V349.949ZM103.241 358C103.147 357.812 103.071 357.479 103.013 356.998C102.257 357.783 101.354 358.176 100.306 358.176C99.3682 358.176 98.5977 357.912 97.9941 357.385C97.3965 356.852 97.0977 356.178 97.0977 355.363C97.0977 354.373 97.4727 353.605 98.2227 353.061C98.9785 352.51 100.039 352.234 101.404 352.234H102.986V351.487C102.986 350.919 102.816 350.468 102.477 350.134C102.137 349.794 101.636 349.624 100.974 349.624C100.394 349.624 99.9072 349.771 99.5146 350.063C99.1221 350.356 98.9258 350.711 98.9258 351.127H97.291C97.291 350.652 97.458 350.195 97.792 349.756C98.1318 349.311 98.5889 348.959 99.1631 348.701C99.7432 348.443 100.379 348.314 101.07 348.314C102.166 348.314 103.024 348.59 103.646 349.141C104.267 349.686 104.589 350.438 104.612 351.399V355.776C104.612 356.649 104.724 357.344 104.946 357.859V358H103.241ZM100.543 356.761C101.053 356.761 101.536 356.629 101.993 356.365C102.45 356.102 102.781 355.759 102.986 355.337V353.386H101.712C99.7197 353.386 98.7236 353.969 98.7236 355.135C98.7236 355.645 98.8936 356.043 99.2334 356.33C99.5732 356.617 100.01 356.761 100.543 356.761ZM103.909 346.908V346.996H102.564L101.246 345.502L99.9365 346.996H98.5918V346.891L100.754 344.5H101.738L103.909 346.908ZM108.699 348.49L108.752 349.686C109.479 348.771 110.428 348.314 111.6 348.314C113.609 348.314 114.623 349.448 114.641 351.716V358H113.015V351.707C113.009 351.021 112.851 350.515 112.54 350.187C112.235 349.858 111.758 349.694 111.107 349.694C110.58 349.694 110.117 349.835 109.719 350.116C109.32 350.397 109.01 350.767 108.787 351.224V358H107.161V348.49H108.699ZM122.63 355.478C122.63 355.038 122.463 354.698 122.129 354.458C121.801 354.212 121.224 354.001 120.397 353.825C119.577 353.649 118.924 353.438 118.438 353.192C117.957 352.946 117.6 352.653 117.365 352.313C117.137 351.974 117.022 351.569 117.022 351.101C117.022 350.321 117.351 349.662 118.007 349.123C118.669 348.584 119.513 348.314 120.538 348.314C121.616 348.314 122.489 348.593 123.157 349.149C123.831 349.706 124.168 350.418 124.168 351.285H122.533C122.533 350.84 122.343 350.456 121.962 350.134C121.587 349.812 121.112 349.65 120.538 349.65C119.946 349.65 119.483 349.779 119.149 350.037C118.815 350.295 118.648 350.632 118.648 351.048C118.648 351.44 118.804 351.736 119.114 351.936C119.425 352.135 119.984 352.325 120.793 352.507C121.607 352.688 122.267 352.905 122.771 353.157C123.274 353.409 123.646 353.714 123.887 354.071C124.133 354.423 124.256 354.854 124.256 355.363C124.256 356.213 123.916 356.896 123.236 357.411C122.557 357.921 121.675 358.176 120.591 358.176C119.829 358.176 119.155 358.041 118.569 357.771C117.983 357.502 117.523 357.127 117.189 356.646C116.861 356.16 116.697 355.636 116.697 355.073H118.323C118.353 355.618 118.569 356.052 118.974 356.374C119.384 356.69 119.923 356.849 120.591 356.849C121.206 356.849 121.698 356.726 122.067 356.479C122.442 356.228 122.63 355.894 122.63 355.478ZM128.141 358H126.515V348.49H128.141V358ZM126.383 345.968C126.383 345.704 126.462 345.481 126.62 345.3C126.784 345.118 127.024 345.027 127.341 345.027C127.657 345.027 127.897 345.118 128.062 345.3C128.226 345.481 128.308 345.704 128.308 345.968C128.308 346.231 128.226 346.451 128.062 346.627C127.897 346.803 127.657 346.891 127.341 346.891C127.024 346.891 126.784 346.803 126.62 346.627C126.462 346.451 126.383 346.231 126.383 345.968ZM132.957 346.188V348.49H134.732V349.747H132.957V355.645C132.957 356.025 133.036 356.312 133.194 356.506C133.353 356.693 133.622 356.787 134.003 356.787C134.19 356.787 134.448 356.752 134.776 356.682V358C134.349 358.117 133.933 358.176 133.528 358.176C132.802 358.176 132.254 357.956 131.885 357.517C131.516 357.077 131.331 356.453 131.331 355.645V349.747H129.6V348.49H131.331V346.188H132.957ZM136.033 353.157C136.033 352.226 136.215 351.388 136.578 350.644C136.947 349.899 137.457 349.325 138.107 348.921C138.764 348.517 139.511 348.314 140.349 348.314C141.644 348.314 142.689 348.763 143.486 349.659C144.289 350.556 144.69 351.748 144.69 353.236V353.351C144.69 354.276 144.512 355.108 144.154 355.847C143.803 356.579 143.296 357.15 142.634 357.561C141.978 357.971 141.222 358.176 140.366 358.176C139.077 358.176 138.031 357.728 137.229 356.831C136.432 355.935 136.033 354.748 136.033 353.271V353.157ZM137.668 353.351C137.668 354.405 137.911 355.252 138.397 355.891C138.89 356.529 139.546 356.849 140.366 356.849C141.192 356.849 141.849 356.526 142.335 355.882C142.821 355.231 143.064 354.323 143.064 353.157C143.064 352.114 142.815 351.271 142.317 350.626C141.825 349.976 141.169 349.65 140.349 349.65C139.546 349.65 138.898 349.97 138.406 350.608C137.914 351.247 137.668 352.161 137.668 353.351Z" fill="#4898C5"/>
<ellipse rx="50.4911" ry="48.1607" transform="matrix(-1 0 0 1 98.9728 257.893)" fill="#C4C4C4"/>
<rect width="46.6071" height="250.125" rx="23.3036" transform="matrix(-1 0 0 1 123.053 0)" fill="#C4C4C4"/>
<ellipse rx="50.4911" ry="48.1607" transform="matrix(-1 0 0 1 98.9728 257.893)" fill="#6BB4DD"/>
<line x1="95.6426" y1="38.2857" x2="77.4462" y2="38.2857" stroke="#787878" stroke-width="2" stroke-linecap="round"/>
<line x1="95.6426" y1="47.6071" x2="77.4462" y2="47.6071" stroke="#787878" stroke-width="2" stroke-linecap="round"/>
<line x1="104.964" y1="56.9286" x2="77.4465" y2="56.9286" stroke="#787878" stroke-width="2" stroke-linecap="round"/>
<line x1="95.6426" y1="64.6964" x2="77.4462" y2="64.6964" stroke="#787878" stroke-width="2" stroke-linecap="round"/>
<line x1="95.6426" y1="74.0179" x2="77.4462" y2="74.0179" stroke="#787878" stroke-width="2" stroke-linecap="round"/>
<line x1="104.964" y1="83.3393" x2="77.4465" y2="83.3393" stroke="#787878" stroke-width="2" stroke-linecap="round"/>
<line x1="95.6426" y1="91.1072" x2="77.4462" y2="91.1071" stroke="#787878" stroke-width="2" stroke-linecap="round"/>
<line x1="95.6426" y1="100.429" x2="77.4462" y2="100.429" stroke="#787878" stroke-width="2" stroke-linecap="round"/>
<line x1="104.964" y1="109.75" x2="77.4465" y2="109.75" stroke="#787878" stroke-width="2" stroke-linecap="round"/>
<line x1="95.6426" y1="145.482" x2="77.4462" y2="145.482" stroke="#787878" stroke-width="2" stroke-linecap="round"/>
<line x1="95.6426" y1="119.071" x2="77.4462" y2="119.071" stroke="#787878" stroke-width="2" stroke-linecap="round"/>
<line x1="104.964" y1="128.393" x2="77.4465" y2="128.393" stroke="#787878" stroke-width="2" stroke-linecap="round"/>
<line x1="104.964" y1="137.714" x2="77.4465" y2="137.714" stroke="#787878" stroke-width="2" stroke-linecap="round"/>
<line x1="95.6426" y1="154.804" x2="77.4462" y2="154.804" stroke="#787878" stroke-width="2" stroke-linecap="round"/>
<line x1="104.964" y1="164.125" x2="77.4465" y2="164.125" stroke="#787878" stroke-width="2" stroke-linecap="round"/>
<line x1="95.6426" y1="198.304" x2="77.4462" y2="198.304" stroke="#787878" stroke-width="2" stroke-linecap="round"/>
<line x1="95.6426" y1="171.893" x2="77.4462" y2="171.893" stroke="#787878" stroke-width="2" stroke-linecap="round"/>
<line x1="104.964" y1="181.214" x2="77.4465" y2="181.214" stroke="#787878" stroke-width="2" stroke-linecap="round"/>
<line x1="104.964" y1="190.536" x2="77.4465" y2="190.536" stroke="#787878" stroke-width="2" stroke-linecap="round"/>
<line x1="95.6426" y1="207.625" x2="77.4462" y2="207.625" stroke="#787878" stroke-width="2" stroke-linecap="round"/>
<mask id="mask0" style="mask-type:alpha" maskUnits="userSpaceOnUse" x="48" y="209" width="102" height="97">
<ellipse rx="50.4911" ry="48.1607" transform="matrix(-1 0 0 1 98.9728 257.161)" fill="#CECECE"/>
</mask>
<g mask="url(#mask0)">
<rect x="48" y="139" width="108" height="131" fill="#C4C4C4"/>
</g>
<path d="M214.345 150.766C215.32 150.766 216.172 150.93 216.901 151.258C217.626 151.586 218.18 152.051 218.562 152.652C218.945 153.254 219.137 153.956 219.137 154.758C219.137 155.542 218.945 156.237 218.562 156.843C218.175 157.449 217.626 157.921 216.915 158.258C216.2 158.59 215.372 158.761 214.434 158.771L213.716 158.771C212.759 158.771 211.913 158.604 211.18 158.271C210.446 157.939 209.885 157.469 209.498 156.863C209.106 156.253 208.91 155.555 208.91 154.771C208.91 153.974 209.104 153.272 209.491 152.666C209.874 152.055 210.432 151.586 211.166 151.258C211.895 150.93 212.745 150.766 213.716 150.766L214.345 150.766ZM213.702 152.071C212.522 152.071 211.617 152.308 210.988 152.782C210.355 153.256 210.038 153.919 210.038 154.771C210.038 155.601 210.355 156.255 210.988 156.733C211.617 157.207 212.492 157.451 213.613 157.465L214.345 157.465C215.489 157.465 216.389 157.226 217.045 156.747C217.697 156.264 218.022 155.601 218.022 154.758C218.022 153.91 217.715 153.254 217.1 152.789C216.48 152.324 215.593 152.085 214.44 152.071L213.702 152.071ZM212.738 145.42C212.706 145.611 212.69 145.819 212.69 146.042C212.69 146.871 213.044 147.434 213.75 147.73L219 147.73L219 148.995L211.604 148.995L211.604 147.765L212.458 147.744C211.797 147.329 211.467 146.742 211.467 145.98C211.467 145.734 211.499 145.548 211.562 145.42L212.738 145.42ZM218.104 141.421C218.104 140.97 217.968 140.576 217.694 140.238C217.421 139.901 217.079 139.714 216.669 139.678L216.669 138.481C217.093 138.504 217.496 138.65 217.879 138.919C218.262 139.188 218.567 139.548 218.795 139.999C219.023 140.446 219.137 140.92 219.137 141.421C219.137 142.428 218.802 143.23 218.132 143.827C217.457 144.42 216.537 144.716 215.37 144.716L215.158 144.716C214.438 144.716 213.798 144.584 213.237 144.319C212.677 144.055 212.242 143.677 211.932 143.185C211.622 142.688 211.467 142.102 211.467 141.428C211.467 140.598 211.715 139.91 212.212 139.363C212.709 138.812 213.354 138.518 214.146 138.481L214.146 139.678C213.668 139.714 213.276 139.896 212.971 140.225C212.661 140.548 212.506 140.949 212.506 141.428C212.506 142.07 212.738 142.569 213.203 142.925C213.663 143.276 214.331 143.451 215.206 143.451L215.445 143.451C216.298 143.451 216.954 143.276 217.414 142.925C217.874 142.574 218.104 142.073 218.104 141.421ZM219.062 141.216L219.417 141.298C219.54 140.601 219.934 140.252 220.6 140.252C221.042 140.252 221.39 140.434 221.646 140.799C221.905 141.163 222.035 141.672 222.035 142.323L221.304 142.371C221.304 142.011 221.244 141.733 221.126 141.537C221.007 141.337 220.841 141.236 220.627 141.236C220.426 141.236 220.278 141.309 220.183 141.455C220.087 141.601 220.019 141.897 219.978 142.344L219.062 142.125L219.062 141.216ZM219 132.493C218.854 132.566 218.594 132.625 218.221 132.671C218.831 133.259 219.137 133.961 219.137 134.776C219.137 135.506 218.932 136.105 218.521 136.574C218.107 137.039 217.583 137.271 216.949 137.271C216.179 137.271 215.582 136.98 215.158 136.396C214.73 135.809 214.516 134.984 214.516 133.922L214.516 132.691L213.935 132.691C213.493 132.691 213.142 132.824 212.882 133.088C212.618 133.352 212.485 133.742 212.485 134.257C212.485 134.708 212.599 135.086 212.827 135.392C213.055 135.697 213.331 135.85 213.654 135.85L213.654 137.121C213.285 137.121 212.93 136.991 212.588 136.731C212.242 136.467 211.968 136.112 211.768 135.665C211.567 135.214 211.467 134.719 211.467 134.182C211.467 133.329 211.681 132.662 212.109 132.179C212.533 131.696 213.119 131.445 213.866 131.427L217.271 131.427C217.95 131.427 218.49 131.34 218.891 131.167L219 131.167L219 132.493ZM218.036 134.592C218.036 134.195 217.934 133.819 217.729 133.464C217.523 133.108 217.257 132.851 216.929 132.691L215.411 132.691L215.411 133.683C215.411 135.232 215.865 136.007 216.771 136.007C217.168 136.007 217.478 135.875 217.701 135.61C217.924 135.346 218.036 135.007 218.036 134.592ZM211.604 128.255L212.424 128.221C211.786 127.678 211.467 126.947 211.467 126.026C211.467 124.992 211.863 124.288 212.656 123.914C212.301 123.668 212.014 123.349 211.795 122.957C211.576 122.561 211.467 122.093 211.467 121.556C211.467 119.933 212.326 119.108 214.044 119.081L219 119.081L219 120.346L214.119 120.346C213.59 120.346 213.196 120.466 212.937 120.708C212.672 120.95 212.54 121.355 212.54 121.925C212.54 122.394 212.681 122.784 212.964 123.094C213.242 123.404 213.618 123.584 214.092 123.634L219 123.634L219 124.905L214.153 124.905C213.078 124.905 212.54 125.432 212.54 126.484C212.54 127.314 212.893 127.881 213.6 128.187L219 128.187L219 129.451L211.604 129.451L211.604 128.255ZM219.137 114.098C219.137 115.1 218.809 115.916 218.152 116.545C217.492 117.174 216.61 117.488 215.507 117.488L215.274 117.488C214.541 117.488 213.887 117.349 213.312 117.071C212.734 116.789 212.283 116.397 211.959 115.896C211.631 115.39 211.467 114.843 211.467 114.255C211.467 113.293 211.784 112.546 212.417 112.013C213.05 111.479 213.957 111.213 215.138 111.213L215.664 111.213L215.664 116.224C216.393 116.205 216.983 115.993 217.435 115.588C217.881 115.178 218.104 114.658 218.104 114.029C218.104 113.583 218.013 113.204 217.831 112.895C217.649 112.585 217.407 112.313 217.106 112.081L217.708 111.309C218.66 111.928 219.137 112.858 219.137 114.098ZM212.506 114.255C212.506 114.765 212.693 115.194 213.066 115.54C213.436 115.886 213.955 116.101 214.625 116.183L214.625 112.478L214.529 112.478C213.887 112.514 213.39 112.687 213.039 112.997C212.684 113.307 212.506 113.726 212.506 114.255ZM211.604 108.547L212.533 108.506C211.822 107.941 211.467 107.202 211.467 106.291C211.467 104.728 212.349 103.939 214.112 103.926L219 103.926L219 105.19L214.105 105.19C213.572 105.195 213.178 105.318 212.923 105.56C212.668 105.797 212.54 106.168 212.54 106.674C212.54 107.084 212.649 107.444 212.868 107.754C213.087 108.064 213.374 108.305 213.729 108.479L219 108.479L219 109.743L211.604 109.743L211.604 108.547ZM209.812 100.303L211.604 100.303L211.604 98.9219L212.581 98.9219L212.581 100.303L217.168 100.303C217.464 100.303 217.687 100.241 217.838 100.118C217.984 99.9951 218.057 99.7855 218.057 99.4893C218.057 99.3434 218.029 99.1429 217.975 98.8877L219 98.8877C219.091 99.2204 219.137 99.5439 219.137 99.8584C219.137 100.424 218.966 100.85 218.624 101.137C218.282 101.424 217.797 101.567 217.168 101.567L212.581 101.567L212.581 102.914L211.604 102.914L211.604 101.567L209.812 101.567L209.812 100.303ZM215.233 97.9102C214.509 97.9102 213.857 97.7689 213.278 97.4863C212.7 97.1992 212.253 96.8027 211.938 96.2969C211.624 95.7865 211.467 95.2054 211.467 94.5537C211.467 93.5465 211.815 92.7331 212.513 92.1133C213.21 91.4889 214.137 91.1768 215.295 91.1768L215.384 91.1768C216.104 91.1768 216.751 91.3158 217.325 91.5937C217.895 91.8672 218.339 92.2614 218.658 92.7764C218.977 93.2868 219.137 93.8747 219.137 94.54C219.137 95.5426 218.788 96.3561 218.091 96.9805C217.394 97.6003 216.471 97.9102 215.322 97.9102L215.233 97.9102ZM215.384 96.6387C216.204 96.6387 216.863 96.4495 217.359 96.0713C217.856 95.6885 218.104 95.1781 218.104 94.54C218.104 93.8975 217.854 93.387 217.353 93.0088C216.847 92.6305 216.14 92.4414 215.233 92.4414C214.422 92.4414 213.766 92.6351 213.265 93.0225C212.759 93.4053 212.506 93.9157 212.506 94.5537C212.506 95.1781 212.754 95.6816 213.251 96.0645C213.748 96.4473 214.459 96.6387 215.384 96.6387Z" fill="#787878"/>
<path d="M196.072 3.10714L196.072 257.893M195.149 3.10714L166.554 3.10714M195.149 257.893H166.554" stroke="#E0E0E0" stroke-width="2" stroke-linecap="round"/>
<path d="M72.4102 256.632H74.1446C75.0196 256.624 75.711 256.398 76.2188 255.953C76.7344 255.507 76.9923 254.863 76.9923 254.019C76.9923 253.206 76.7774 252.578 76.3477 252.132C75.9258 251.679 75.2774 251.453 74.4024 251.453C73.6368 251.453 73.0079 251.675 72.5157 252.121C72.0235 252.558 71.7774 253.132 71.7774 253.843H68.9298C68.9298 252.968 69.1602 252.171 69.6212 251.453C70.0899 250.734 70.7383 250.175 71.5665 249.777C72.4024 249.371 73.336 249.167 74.3673 249.167C76.0704 249.167 77.4063 249.597 78.3751 250.456C79.3516 251.308 79.8399 252.496 79.8399 254.019C79.8399 254.785 79.5938 255.507 79.1016 256.187C78.6173 256.859 77.9883 257.367 77.2149 257.71C78.1524 258.031 78.8633 258.535 79.3477 259.222C79.8399 259.91 80.086 260.73 80.086 261.683C80.086 263.214 79.5587 264.433 78.504 265.339C77.4571 266.246 76.0782 266.699 74.3673 266.699C72.7266 266.699 71.3829 266.261 70.336 265.386C69.2891 264.511 68.7657 263.347 68.7657 261.894H71.6133C71.6133 262.644 71.8633 263.253 72.3633 263.722C72.8712 264.191 73.5508 264.425 74.4024 264.425C75.2852 264.425 75.9805 264.191 76.4883 263.722C76.9962 263.253 77.2501 262.574 77.2501 261.683C77.2501 260.785 76.9844 260.093 76.4532 259.609C75.9219 259.124 75.1329 258.882 74.086 258.882H72.4102V256.632ZM83.3438 270.308L81.8087 269.394C82.2618 268.683 82.5704 268.062 82.7344 267.531C82.9063 267.007 82.9962 266.472 83.004 265.925V263.71H85.5704L85.5587 265.761C85.5508 266.589 85.3399 267.417 84.9258 268.246C84.5196 269.081 83.9923 269.769 83.3438 270.308ZM95.7423 266.464H92.9063V252.765L88.7227 254.195V251.792L95.379 249.343H95.7423V266.464ZM111.305 260.382H113.426V262.667H111.305V266.464H108.457V262.667H101.086L101.004 260.933L108.363 249.402H111.305V260.382ZM103.992 260.382H108.457V253.257L108.246 253.632L103.992 260.382ZM115.195 252.683C115.195 251.652 115.527 250.808 116.191 250.152C116.856 249.488 117.727 249.156 118.805 249.156C119.899 249.156 120.774 249.488 121.43 250.152C122.094 250.808 122.426 251.671 122.426 252.742V253.585C122.426 254.609 122.094 255.449 121.43 256.105C120.774 256.761 119.906 257.089 118.828 257.089C117.774 257.089 116.902 256.769 116.215 256.128C115.535 255.48 115.195 254.609 115.195 253.515V252.683ZM117.188 253.585C117.188 254.124 117.336 254.562 117.633 254.898C117.938 255.226 118.336 255.39 118.828 255.39C119.313 255.39 119.703 255.226 120 254.898C120.297 254.562 120.445 254.109 120.445 253.538V252.683C120.445 252.144 120.293 251.706 119.988 251.371C119.691 251.035 119.297 250.867 118.805 250.867C118.313 250.867 117.918 251.038 117.621 251.382C117.332 251.718 117.188 252.163 117.188 252.718V253.585ZM123.399 262.281C123.399 261.234 123.738 260.386 124.418 259.738C125.098 259.089 125.965 258.765 127.02 258.765C128.082 258.765 128.949 259.089 129.621 259.738C130.301 260.386 130.641 261.261 130.641 262.363V263.195C130.641 264.21 130.313 265.05 129.656 265.714C129.008 266.371 128.137 266.699 127.043 266.699C125.949 266.699 125.066 266.374 124.395 265.726C123.731 265.07 123.399 264.206 123.399 263.136V262.281ZM125.391 263.195C125.391 263.726 125.543 264.163 125.848 264.507C126.16 264.843 126.559 265.011 127.043 265.011C127.543 265.011 127.934 264.851 128.215 264.531C128.504 264.203 128.649 263.746 128.649 263.16V262.281C128.649 261.734 128.496 261.296 128.191 260.968C127.887 260.64 127.496 260.476 127.02 260.476C126.535 260.476 126.141 260.64 125.836 260.968C125.539 261.296 125.391 261.749 125.391 262.328V263.195ZM119.414 265.187L117.949 264.343L126.281 251.007L127.746 251.851L119.414 265.187Z" fill="white"/>
</svg>
