<svg width="232" height="359" viewBox="0 0 232 359" fill="none" xmlns="http://www.w3.org/2000/svg">
<path d="M16.3965 332.321C15.9629 332.942 15.3564 333.408 14.5771 333.719C13.8037 334.023 12.9014 334.176 11.8701 334.176C10.8271 334.176 9.90137 333.933 9.09277 333.446C8.28418 332.954 7.65723 332.257 7.21191 331.354C6.77246 330.452 6.54688 329.406 6.53516 328.217V327.101C6.53516 325.173 6.9834 323.679 7.87988 322.618C8.78223 321.558 10.0479 321.027 11.6768 321.027C13.0127 321.027 14.0879 321.37 14.9023 322.056C15.7168 322.735 16.2148 323.702 16.3965 324.956H14.709C14.3926 323.263 13.3848 322.416 11.6855 322.416C10.5547 322.416 9.69629 322.814 9.11035 323.611C8.53027 324.402 8.2373 325.551 8.23145 327.057V328.103C8.23145 329.538 8.55957 330.681 9.21582 331.53C9.87207 332.374 10.7598 332.796 11.8789 332.796C12.5117 332.796 13.0654 332.726 13.54 332.585C14.0146 332.444 14.4072 332.207 14.7178 331.873V328.999H11.7559V327.628H16.3965V332.321ZM24.834 334C24.7402 333.812 24.6641 333.479 24.6055 332.998C23.8496 333.783 22.9473 334.176 21.8984 334.176C20.9609 334.176 20.1904 333.912 19.5869 333.385C18.9893 332.852 18.6904 332.178 18.6904 331.363C18.6904 330.373 19.0654 329.605 19.8154 329.061C20.5713 328.51 21.6318 328.234 22.9971 328.234H24.5791V327.487C24.5791 326.919 24.4092 326.468 24.0693 326.134C23.7295 325.794 23.2285 325.624 22.5664 325.624C21.9863 325.624 21.5 325.771 21.1074 326.063C20.7148 326.356 20.5186 326.711 20.5186 327.127H18.8838C18.8838 326.652 19.0508 326.195 19.3848 325.756C19.7246 325.311 20.1816 324.959 20.7559 324.701C21.3359 324.443 21.9717 324.314 22.6631 324.314C23.7588 324.314 24.6172 324.59 25.2383 325.141C25.8594 325.686 26.1816 326.438 26.2051 327.399V331.776C26.2051 332.649 26.3164 333.344 26.5391 333.859V334H24.834ZM22.1357 332.761C22.6455 332.761 23.1289 332.629 23.5859 332.365C24.043 332.102 24.374 331.759 24.5791 331.337V329.386H23.3047C21.3125 329.386 20.3164 329.969 20.3164 331.135C20.3164 331.645 20.4863 332.043 20.8262 332.33C21.166 332.617 21.6025 332.761 22.1357 332.761ZM34.291 331.478C34.291 331.038 34.124 330.698 33.79 330.458C33.4619 330.212 32.8848 330.001 32.0586 329.825C31.2383 329.649 30.585 329.438 30.0986 329.192C29.6182 328.946 29.2607 328.653 29.0264 328.313C28.7979 327.974 28.6836 327.569 28.6836 327.101C28.6836 326.321 29.0117 325.662 29.668 325.123C30.3301 324.584 31.1738 324.314 32.1992 324.314C33.2773 324.314 34.1504 324.593 34.8184 325.149C35.4922 325.706 35.8291 326.418 35.8291 327.285H34.1943C34.1943 326.84 34.0039 326.456 33.623 326.134C33.248 325.812 32.7734 325.65 32.1992 325.65C31.6074 325.65 31.1445 325.779 30.8105 326.037C30.4766 326.295 30.3096 326.632 30.3096 327.048C30.3096 327.44 30.4648 327.736 30.7754 327.936C31.0859 328.135 31.6455 328.325 32.4541 328.507C33.2686 328.688 33.9277 328.905 34.4316 329.157C34.9355 329.409 35.3076 329.714 35.5479 330.071C35.7939 330.423 35.917 330.854 35.917 331.363C35.917 332.213 35.5771 332.896 34.8975 333.411C34.2178 333.921 33.3359 334.176 32.252 334.176C31.4902 334.176 30.8164 334.041 30.2305 333.771C29.6445 333.502 29.1846 333.127 28.8506 332.646C28.5225 332.16 28.3584 331.636 28.3584 331.073H29.9844C30.0137 331.618 30.2305 332.052 30.6348 332.374C31.0449 332.69 31.584 332.849 32.252 332.849C32.8672 332.849 33.3594 332.726 33.7285 332.479C34.1035 332.228 34.291 331.894 34.291 331.478ZM40.2412 322.188V324.49H42.0166V325.747H40.2412V331.645C40.2412 332.025 40.3203 332.312 40.4785 332.506C40.6367 332.693 40.9062 332.787 41.2871 332.787C41.4746 332.787 41.7324 332.752 42.0605 332.682V334C41.6328 334.117 41.2168 334.176 40.8125 334.176C40.0859 334.176 39.5381 333.956 39.1689 333.517C38.7998 333.077 38.6152 332.453 38.6152 331.645V325.747H36.8838V324.49H38.6152V322.188H40.2412ZM43.3174 329.157C43.3174 328.226 43.499 327.388 43.8623 326.644C44.2314 325.899 44.7412 325.325 45.3916 324.921C46.0479 324.517 46.7949 324.314 47.6328 324.314C48.9277 324.314 49.9736 324.763 50.7705 325.659C51.5732 326.556 51.9746 327.748 51.9746 329.236V329.351C51.9746 330.276 51.7959 331.108 51.4385 331.847C51.0869 332.579 50.5801 333.15 49.918 333.561C49.2617 333.971 48.5059 334.176 47.6504 334.176C46.3613 334.176 45.3154 333.728 44.5127 332.831C43.7158 331.935 43.3174 330.748 43.3174 329.271V329.157ZM44.9521 329.351C44.9521 330.405 45.1953 331.252 45.6816 331.891C46.1738 332.529 46.8301 332.849 47.6504 332.849C48.4766 332.849 49.1328 332.526 49.6191 331.882C50.1055 331.231 50.3486 330.323 50.3486 329.157C50.3486 328.114 50.0996 327.271 49.6016 326.626C49.1094 325.976 48.4531 325.65 47.6328 325.65C46.8301 325.65 46.1826 325.97 45.6904 326.608C45.1982 327.247 44.9521 328.161 44.9521 329.351ZM59.5508 331.478C59.5508 331.038 59.3838 330.698 59.0498 330.458C58.7217 330.212 58.1445 330.001 57.3184 329.825C56.498 329.649 55.8447 329.438 55.3584 329.192C54.8779 328.946 54.5205 328.653 54.2861 328.313C54.0576 327.974 53.9434 327.569 53.9434 327.101C53.9434 326.321 54.2715 325.662 54.9277 325.123C55.5898 324.584 56.4336 324.314 57.459 324.314C58.5371 324.314 59.4102 324.593 60.0781 325.149C60.752 325.706 61.0889 326.418 61.0889 327.285H59.4541C59.4541 326.84 59.2637 326.456 58.8828 326.134C58.5078 325.812 58.0332 325.65 57.459 325.65C56.8672 325.65 56.4043 325.779 56.0703 326.037C55.7363 326.295 55.5693 326.632 55.5693 327.048C55.5693 327.44 55.7246 327.736 56.0352 327.936C56.3457 328.135 56.9053 328.325 57.7139 328.507C58.5283 328.688 59.1875 328.905 59.6914 329.157C60.1953 329.409 60.5674 329.714 60.8076 330.071C61.0537 330.423 61.1768 330.854 61.1768 331.363C61.1768 332.213 60.8369 332.896 60.1572 333.411C59.4775 333.921 58.5957 334.176 57.5117 334.176C56.75 334.176 56.0762 334.041 55.4902 333.771C54.9043 333.502 54.4443 333.127 54.1104 332.646C53.7822 332.16 53.6182 331.636 53.6182 331.073H55.2441C55.2734 331.618 55.4902 332.052 55.8945 332.374C56.3047 332.69 56.8438 332.849 57.5117 332.849C58.127 332.849 58.6191 332.726 58.9883 332.479C59.3633 332.228 59.5508 331.894 59.5508 331.478ZM71.7061 334.176C70.417 334.176 69.3682 333.754 68.5596 332.91C67.751 332.061 67.3467 330.927 67.3467 329.509V329.21C67.3467 328.267 67.5254 327.426 67.8828 326.688C68.2461 325.943 68.75 325.363 69.3945 324.947C70.0449 324.525 70.748 324.314 71.5039 324.314C72.7402 324.314 73.7012 324.722 74.3867 325.536C75.0723 326.351 75.415 327.517 75.415 329.034V329.711H68.9727C68.9961 330.648 69.2686 331.407 69.79 331.987C70.3174 332.562 70.9854 332.849 71.7939 332.849C72.3682 332.849 72.8545 332.731 73.2529 332.497C73.6514 332.263 74 331.952 74.2988 331.565L75.292 332.339C74.4951 333.563 73.2998 334.176 71.7061 334.176ZM71.5039 325.65C70.8477 325.65 70.2969 325.891 69.8516 326.371C69.4062 326.846 69.1309 327.514 69.0254 328.375H73.7891V328.252C73.7422 327.426 73.5195 326.787 73.1211 326.336C72.7227 325.879 72.1836 325.65 71.5039 325.65ZM78.834 324.49L78.8779 325.545C79.5752 324.725 80.5156 324.314 81.6992 324.314C83.0293 324.314 83.9346 324.824 84.415 325.844C84.7314 325.387 85.1416 325.018 85.6455 324.736C86.1553 324.455 86.7559 324.314 87.4473 324.314C89.5332 324.314 90.5938 325.419 90.6289 327.628V334H89.0029V327.725C89.0029 327.045 88.8477 326.538 88.5371 326.204C88.2266 325.864 87.7051 325.694 86.9727 325.694C86.3691 325.694 85.8682 325.876 85.4697 326.239C85.0713 326.597 84.8398 327.08 84.7754 327.689V334H83.1406V327.769C83.1406 326.386 82.4639 325.694 81.1104 325.694C80.0439 325.694 79.3145 326.148 78.9219 327.057V334H77.2959V324.49H78.834ZM99.9893 321.203L104.173 331.645L108.356 321.203H110.545V334H108.857V329.017L109.016 323.638L104.814 334H103.522L99.3301 323.664L99.4971 329.017V334H97.8096V321.203H99.9893ZM119.141 334C119.047 333.812 118.971 333.479 118.912 332.998C118.156 333.783 117.254 334.176 116.205 334.176C115.268 334.176 114.497 333.912 113.894 333.385C113.296 332.852 112.997 332.178 112.997 331.363C112.997 330.373 113.372 329.605 114.122 329.061C114.878 328.51 115.938 328.234 117.304 328.234H118.886V327.487C118.886 326.919 118.716 326.468 118.376 326.134C118.036 325.794 117.535 325.624 116.873 325.624C116.293 325.624 115.807 325.771 115.414 326.063C115.021 326.356 114.825 326.711 114.825 327.127H113.19C113.19 326.652 113.357 326.195 113.691 325.756C114.031 325.311 114.488 324.959 115.062 324.701C115.643 324.443 116.278 324.314 116.97 324.314C118.065 324.314 118.924 324.59 119.545 325.141C120.166 325.686 120.488 326.438 120.512 327.399V331.776C120.512 332.649 120.623 333.344 120.846 333.859V334H119.141ZM116.442 332.761C116.952 332.761 117.436 332.629 117.893 332.365C118.35 332.102 118.681 331.759 118.886 331.337V329.386H117.611C115.619 329.386 114.623 329.969 114.623 331.135C114.623 331.645 114.793 332.043 115.133 332.33C115.473 332.617 115.909 332.761 116.442 332.761ZM124.599 324.49L124.651 325.686C125.378 324.771 126.327 324.314 127.499 324.314C129.509 324.314 130.522 325.448 130.54 327.716V334H128.914V327.707C128.908 327.021 128.75 326.515 128.439 326.187C128.135 325.858 127.657 325.694 127.007 325.694C126.479 325.694 126.017 325.835 125.618 326.116C125.22 326.397 124.909 326.767 124.687 327.224V334H123.061V324.49H124.599ZM138.863 333.06C138.23 333.804 137.302 334.176 136.077 334.176C135.063 334.176 134.29 333.883 133.757 333.297C133.229 332.705 132.963 331.832 132.957 330.678V324.49H134.583V330.634C134.583 332.075 135.169 332.796 136.341 332.796C137.583 332.796 138.409 332.333 138.819 331.407V324.49H140.445V334H138.898L138.863 333.06ZM145.13 322.188V324.49H146.905V325.747H145.13V331.645C145.13 332.025 145.209 332.312 145.367 332.506C145.525 332.693 145.795 332.787 146.176 332.787C146.363 332.787 146.621 332.752 146.949 332.682V334C146.521 334.117 146.105 334.176 145.701 334.176C144.975 334.176 144.427 333.956 144.058 333.517C143.688 333.077 143.504 332.453 143.504 331.645V325.747H141.772V324.49H143.504V322.188H145.13ZM152.759 334.176C151.47 334.176 150.421 333.754 149.612 332.91C148.804 332.061 148.399 330.927 148.399 329.509V329.21C148.399 328.267 148.578 327.426 148.936 326.688C149.299 325.943 149.803 325.363 150.447 324.947C151.098 324.525 151.801 324.314 152.557 324.314C153.793 324.314 154.754 324.722 155.439 325.536C156.125 326.351 156.468 327.517 156.468 329.034V329.711H150.025C150.049 330.648 150.321 331.407 150.843 331.987C151.37 332.562 152.038 332.849 152.847 332.849C153.421 332.849 153.907 332.731 154.306 332.497C154.704 332.263 155.053 331.952 155.352 331.565L156.345 332.339C155.548 333.563 154.353 334.176 152.759 334.176ZM152.557 325.65C151.9 325.65 151.35 325.891 150.904 326.371C150.459 326.846 150.184 327.514 150.078 328.375H154.842V328.252C154.795 327.426 154.572 326.787 154.174 326.336C153.775 325.879 153.236 325.65 152.557 325.65ZM159.896 324.49L159.948 325.686C160.675 324.771 161.624 324.314 162.796 324.314C164.806 324.314 165.819 325.448 165.837 327.716V334H164.211V327.707C164.205 327.021 164.047 326.515 163.736 326.187C163.432 325.858 162.954 325.694 162.304 325.694C161.776 325.694 161.313 325.835 160.915 326.116C160.517 326.397 160.206 326.767 159.983 327.224V334H158.357V324.49H159.896ZM172.104 332.849C172.684 332.849 173.19 332.673 173.624 332.321C174.058 331.97 174.298 331.53 174.345 331.003H175.883C175.854 331.548 175.666 332.066 175.32 332.559C174.975 333.051 174.512 333.443 173.932 333.736C173.357 334.029 172.748 334.176 172.104 334.176C170.809 334.176 169.777 333.745 169.01 332.884C168.248 332.017 167.867 330.833 167.867 329.333V329.061C167.867 328.135 168.037 327.312 168.377 326.591C168.717 325.87 169.203 325.311 169.836 324.912C170.475 324.514 171.228 324.314 172.095 324.314C173.161 324.314 174.046 324.634 174.749 325.272C175.458 325.911 175.836 326.74 175.883 327.76H174.345C174.298 327.145 174.063 326.641 173.642 326.248C173.226 325.85 172.71 325.65 172.095 325.65C171.269 325.65 170.627 325.949 170.17 326.547C169.719 327.139 169.493 327.997 169.493 329.122V329.43C169.493 330.525 169.719 331.369 170.17 331.961C170.621 332.553 171.266 332.849 172.104 332.849ZM172.367 334.079L172.262 334.536C173.158 334.694 173.606 335.201 173.606 336.057C173.606 336.625 173.372 337.073 172.903 337.401C172.435 337.735 171.781 337.902 170.943 337.902L170.882 336.962C171.345 336.962 171.702 336.886 171.954 336.733C172.212 336.581 172.341 336.367 172.341 336.092C172.341 335.834 172.247 335.644 172.06 335.521C171.872 335.397 171.491 335.31 170.917 335.257L171.198 334.079H172.367ZM183.582 334C183.488 333.812 183.412 333.479 183.354 332.998C182.598 333.783 181.695 334.176 180.646 334.176C179.709 334.176 178.938 333.912 178.335 333.385C177.737 332.852 177.438 332.178 177.438 331.363C177.438 330.373 177.813 329.605 178.563 329.061C179.319 328.51 180.38 328.234 181.745 328.234H183.327V327.487C183.327 326.919 183.157 326.468 182.817 326.134C182.478 325.794 181.977 325.624 181.314 325.624C180.734 325.624 180.248 325.771 179.855 326.063C179.463 326.356 179.267 326.711 179.267 327.127H177.632C177.632 326.652 177.799 326.195 178.133 325.756C178.473 325.311 178.93 324.959 179.504 324.701C180.084 324.443 180.72 324.314 181.411 324.314C182.507 324.314 183.365 324.59 183.986 325.141C184.607 325.686 184.93 326.438 184.953 327.399V331.776C184.953 332.649 185.064 333.344 185.287 333.859V334H183.582ZM180.884 332.761C181.394 332.761 181.877 332.629 182.334 332.365C182.791 332.102 183.122 331.759 183.327 331.337V329.386H182.053C180.061 329.386 179.064 329.969 179.064 331.135C179.064 331.645 179.234 332.043 179.574 332.33C179.914 332.617 180.351 332.761 180.884 332.761ZM184.707 320.781C184.707 321.414 184.525 321.927 184.162 322.319C183.805 322.712 183.356 322.908 182.817 322.908C182.577 322.908 182.369 322.879 182.193 322.82C182.018 322.762 181.786 322.642 181.499 322.46C181.218 322.278 181.013 322.17 180.884 322.135C180.761 322.094 180.617 322.073 180.453 322.073C180.213 322.073 180.008 322.167 179.838 322.354C179.668 322.536 179.583 322.771 179.583 323.058L178.493 322.996C178.493 322.369 178.669 321.851 179.021 321.44C179.378 321.03 179.829 320.825 180.374 320.825C180.579 320.825 180.764 320.854 180.928 320.913C181.092 320.972 181.314 321.086 181.596 321.256C181.877 321.426 182.091 321.537 182.237 321.59C182.39 321.643 182.557 321.669 182.738 321.669C182.99 321.669 183.198 321.569 183.362 321.37C183.532 321.171 183.617 320.939 183.617 320.676L184.707 320.781ZM187.071 329.157C187.071 328.226 187.253 327.388 187.616 326.644C187.985 325.899 188.495 325.325 189.146 324.921C189.802 324.517 190.549 324.314 191.387 324.314C192.682 324.314 193.728 324.763 194.524 325.659C195.327 326.556 195.729 327.748 195.729 329.236V329.351C195.729 330.276 195.55 331.108 195.192 331.847C194.841 332.579 194.334 333.15 193.672 333.561C193.016 333.971 192.26 334.176 191.404 334.176C190.115 334.176 189.069 333.728 188.267 332.831C187.47 331.935 187.071 330.748 187.071 329.271V329.157ZM188.706 329.351C188.706 330.405 188.949 331.252 189.436 331.891C189.928 332.529 190.584 332.849 191.404 332.849C192.23 332.849 192.887 332.526 193.373 331.882C193.859 331.231 194.103 330.323 194.103 329.157C194.103 328.114 193.854 327.271 193.355 326.626C192.863 325.976 192.207 325.65 191.387 325.65C190.584 325.65 189.937 325.97 189.444 326.608C188.952 327.247 188.706 328.161 188.706 329.351ZM35.7412 353.166C35.7412 351.707 36.0869 350.535 36.7783 349.65C37.4697 348.76 38.375 348.314 39.4941 348.314C40.6074 348.314 41.4893 348.695 42.1396 349.457V344.5H43.7656V358H42.2715L42.1924 356.98C41.542 357.777 40.6367 358.176 39.4766 358.176C38.375 358.176 37.4756 357.725 36.7783 356.822C36.0869 355.92 35.7412 354.742 35.7412 353.289V353.166ZM37.3672 353.351C37.3672 354.429 37.5898 355.272 38.0352 355.882C38.4805 356.491 39.0957 356.796 39.8809 356.796C40.9121 356.796 41.665 356.333 42.1396 355.407V351.039C41.6533 350.143 40.9062 349.694 39.8984 349.694C39.1016 349.694 38.4805 350.002 38.0352 350.617C37.5898 351.232 37.3672 352.144 37.3672 353.351ZM50.2432 358.176C48.9541 358.176 47.9053 357.754 47.0967 356.91C46.2881 356.061 45.8838 354.927 45.8838 353.509V353.21C45.8838 352.267 46.0625 351.426 46.4199 350.688C46.7832 349.943 47.2871 349.363 47.9316 348.947C48.582 348.525 49.2852 348.314 50.041 348.314C51.2773 348.314 52.2383 348.722 52.9238 349.536C53.6094 350.351 53.9521 351.517 53.9521 353.034V353.711H47.5098C47.5332 354.648 47.8057 355.407 48.3271 355.987C48.8545 356.562 49.5225 356.849 50.3311 356.849C50.9053 356.849 51.3916 356.731 51.79 356.497C52.1885 356.263 52.5371 355.952 52.8359 355.565L53.8291 356.339C53.0322 357.563 51.8369 358.176 50.2432 358.176ZM50.041 349.65C49.3848 349.65 48.834 349.891 48.3887 350.371C47.9434 350.846 47.668 351.514 47.5625 352.375H52.3262V352.252C52.2793 351.426 52.0566 350.787 51.6582 350.336C51.2598 349.879 50.7207 349.65 50.041 349.65ZM64.7979 355.759L68.4541 345.203H70.2998L65.5537 358H64.0596L59.3223 345.203H61.1592L64.7979 355.759ZM73.5342 358H71.9082V348.49H73.5342V358ZM71.7764 345.968C71.7764 345.704 71.8555 345.481 72.0137 345.3C72.1777 345.118 72.418 345.027 72.7344 345.027C73.0508 345.027 73.291 345.118 73.4551 345.3C73.6191 345.481 73.7012 345.704 73.7012 345.968C73.7012 346.231 73.6191 346.451 73.4551 346.627C73.291 346.803 73.0508 346.891 72.7344 346.891C72.418 346.891 72.1777 346.803 72.0137 346.627C71.8555 346.451 71.7764 346.231 71.7764 345.968ZM82.0156 358C81.9219 357.812 81.8457 357.479 81.7871 356.998C81.0312 357.783 80.1289 358.176 79.0801 358.176C78.1426 358.176 77.3721 357.912 76.7686 357.385C76.1709 356.852 75.8721 356.178 75.8721 355.363C75.8721 354.373 76.2471 353.605 76.9971 353.061C77.7529 352.51 78.8135 352.234 80.1787 352.234H81.7607V351.487C81.7607 350.919 81.5908 350.468 81.251 350.134C80.9111 349.794 80.4102 349.624 79.748 349.624C79.168 349.624 78.6816 349.771 78.2891 350.063C77.8965 350.356 77.7002 350.711 77.7002 351.127H76.0654C76.0654 350.652 76.2324 350.195 76.5664 349.756C76.9062 349.311 77.3633 348.959 77.9375 348.701C78.5176 348.443 79.1533 348.314 79.8447 348.314C80.9404 348.314 81.7988 348.59 82.4199 349.141C83.041 349.686 83.3633 350.438 83.3867 351.399V355.776C83.3867 356.649 83.498 357.344 83.7207 357.859V358H82.0156ZM79.3174 356.761C79.8271 356.761 80.3105 356.629 80.7676 356.365C81.2246 356.102 81.5557 355.759 81.7607 355.337V353.386H80.4863C78.4941 353.386 77.498 353.969 77.498 355.135C77.498 355.645 77.668 356.043 78.0078 356.33C78.3477 356.617 78.7842 356.761 79.3174 356.761ZM91.4727 355.478C91.4727 355.038 91.3057 354.698 90.9717 354.458C90.6436 354.212 90.0664 354.001 89.2402 353.825C88.4199 353.649 87.7666 353.438 87.2803 353.192C86.7998 352.946 86.4424 352.653 86.208 352.313C85.9795 351.974 85.8652 351.569 85.8652 351.101C85.8652 350.321 86.1934 349.662 86.8496 349.123C87.5117 348.584 88.3555 348.314 89.3809 348.314C90.459 348.314 91.332 348.593 92 349.149C92.6738 349.706 93.0107 350.418 93.0107 351.285H91.376C91.376 350.84 91.1855 350.456 90.8047 350.134C90.4297 349.812 89.9551 349.65 89.3809 349.65C88.7891 349.65 88.3262 349.779 87.9922 350.037C87.6582 350.295 87.4912 350.632 87.4912 351.048C87.4912 351.44 87.6465 351.736 87.957 351.936C88.2676 352.135 88.8271 352.325 89.6357 352.507C90.4502 352.688 91.1094 352.905 91.6133 353.157C92.1172 353.409 92.4893 353.714 92.7295 354.071C92.9756 354.423 93.0986 354.854 93.0986 355.363C93.0986 356.213 92.7588 356.896 92.0791 357.411C91.3994 357.921 90.5176 358.176 89.4336 358.176C88.6719 358.176 87.998 358.041 87.4121 357.771C86.8262 357.502 86.3662 357.127 86.0322 356.646C85.7041 356.16 85.54 355.636 85.54 355.073H87.166C87.1953 355.618 87.4121 356.052 87.8164 356.374C88.2266 356.69 88.7656 356.849 89.4336 356.849C90.0488 356.849 90.541 356.726 90.9102 356.479C91.2852 356.228 91.4727 355.894 91.4727 355.478ZM101.624 352.99V358H99.9365V345.203H104.656C106.057 345.203 107.152 345.561 107.943 346.275C108.74 346.99 109.139 347.937 109.139 349.114C109.139 350.356 108.749 351.314 107.97 351.988C107.196 352.656 106.086 352.99 104.639 352.99H101.624ZM101.624 351.61H104.656C105.559 351.61 106.25 351.399 106.73 350.978C107.211 350.55 107.451 349.935 107.451 349.132C107.451 348.37 107.211 347.761 106.73 347.304C106.25 346.847 105.591 346.609 104.753 346.592H101.624V351.61ZM116.908 357.06C116.275 357.804 115.347 358.176 114.122 358.176C113.108 358.176 112.335 357.883 111.802 357.297C111.274 356.705 111.008 355.832 111.002 354.678V348.49H112.628V354.634C112.628 356.075 113.214 356.796 114.386 356.796C115.628 356.796 116.454 356.333 116.864 355.407V348.49H118.49V358H116.943L116.908 357.06ZM115.59 344.5H117.559L115.203 347.084H113.894L115.59 344.5ZM129.02 353.351C129.02 354.804 128.686 355.973 128.018 356.857C127.35 357.736 126.453 358.176 125.328 358.176C124.127 358.176 123.198 357.751 122.542 356.901L122.463 358H120.969V344.5H122.595V349.536C123.251 348.722 124.156 348.314 125.311 348.314C126.465 348.314 127.37 348.751 128.026 349.624C128.688 350.497 129.02 351.692 129.02 353.21V353.351ZM127.394 353.166C127.394 352.059 127.18 351.203 126.752 350.6C126.324 349.996 125.709 349.694 124.906 349.694C123.834 349.694 123.063 350.192 122.595 351.188V355.302C123.093 356.298 123.869 356.796 124.924 356.796C125.703 356.796 126.31 356.494 126.743 355.891C127.177 355.287 127.394 354.379 127.394 353.166ZM132.843 358H131.217V344.5H132.843V358ZM137.22 358H135.594V348.49H137.22V358ZM135.462 345.968C135.462 345.704 135.541 345.481 135.699 345.3C135.863 345.118 136.104 345.027 136.42 345.027C136.736 345.027 136.977 345.118 137.141 345.3C137.305 345.481 137.387 345.704 137.387 345.968C137.387 346.231 137.305 346.451 137.141 346.627C136.977 346.803 136.736 346.891 136.42 346.891C136.104 346.891 135.863 346.803 135.699 346.627C135.541 346.451 135.462 346.231 135.462 345.968ZM143.645 356.849C144.225 356.849 144.731 356.673 145.165 356.321C145.599 355.97 145.839 355.53 145.886 355.003H147.424C147.395 355.548 147.207 356.066 146.861 356.559C146.516 357.051 146.053 357.443 145.473 357.736C144.898 358.029 144.289 358.176 143.645 358.176C142.35 358.176 141.318 357.745 140.551 356.884C139.789 356.017 139.408 354.833 139.408 353.333V353.061C139.408 352.135 139.578 351.312 139.918 350.591C140.258 349.87 140.744 349.311 141.377 348.912C142.016 348.514 142.769 348.314 143.636 348.314C144.702 348.314 145.587 348.634 146.29 349.272C146.999 349.911 147.377 350.74 147.424 351.76H145.886C145.839 351.145 145.604 350.641 145.183 350.248C144.767 349.85 144.251 349.65 143.636 349.65C142.81 349.65 142.168 349.949 141.711 350.547C141.26 351.139 141.034 351.997 141.034 353.122V353.43C141.034 354.525 141.26 355.369 141.711 355.961C142.162 356.553 142.807 356.849 143.645 356.849ZM155.123 358C155.029 357.812 154.953 357.479 154.895 356.998C154.139 357.783 153.236 358.176 152.188 358.176C151.25 358.176 150.479 357.912 149.876 357.385C149.278 356.852 148.979 356.178 148.979 355.363C148.979 354.373 149.354 353.605 150.104 353.061C150.86 352.51 151.921 352.234 153.286 352.234H154.868V351.487C154.868 350.919 154.698 350.468 154.358 350.134C154.019 349.794 153.518 349.624 152.855 349.624C152.275 349.624 151.789 349.771 151.396 350.063C151.004 350.356 150.808 350.711 150.808 351.127H149.173C149.173 350.652 149.34 350.195 149.674 349.756C150.014 349.311 150.471 348.959 151.045 348.701C151.625 348.443 152.261 348.314 152.952 348.314C154.048 348.314 154.906 348.59 155.527 349.141C156.148 349.686 156.471 350.438 156.494 351.399V355.776C156.494 356.649 156.605 357.344 156.828 357.859V358H155.123ZM152.425 356.761C152.935 356.761 153.418 356.629 153.875 356.365C154.332 356.102 154.663 355.759 154.868 355.337V353.386H153.594C151.602 353.386 150.605 353.969 150.605 355.135C150.605 355.645 150.775 356.043 151.115 356.33C151.455 356.617 151.892 356.761 152.425 356.761ZM164.58 355.478C164.58 355.038 164.413 354.698 164.079 354.458C163.751 354.212 163.174 354.001 162.348 353.825C161.527 353.649 160.874 353.438 160.388 353.192C159.907 352.946 159.55 352.653 159.315 352.313C159.087 351.974 158.973 351.569 158.973 351.101C158.973 350.321 159.301 349.662 159.957 349.123C160.619 348.584 161.463 348.314 162.488 348.314C163.566 348.314 164.439 348.593 165.107 349.149C165.781 349.706 166.118 350.418 166.118 351.285H164.483C164.483 350.84 164.293 350.456 163.912 350.134C163.537 349.812 163.062 349.65 162.488 349.65C161.896 349.65 161.434 349.779 161.1 350.037C160.766 350.295 160.599 350.632 160.599 351.048C160.599 351.44 160.754 351.736 161.064 351.936C161.375 352.135 161.935 352.325 162.743 352.507C163.558 352.688 164.217 352.905 164.721 353.157C165.225 353.409 165.597 353.714 165.837 354.071C166.083 354.423 166.206 354.854 166.206 355.363C166.206 356.213 165.866 356.896 165.187 357.411C164.507 357.921 163.625 358.176 162.541 358.176C161.779 358.176 161.105 358.041 160.52 357.771C159.934 357.502 159.474 357.127 159.14 356.646C158.812 356.16 158.647 355.636 158.647 355.073H160.273C160.303 355.618 160.52 356.052 160.924 356.374C161.334 356.69 161.873 356.849 162.541 356.849C163.156 356.849 163.648 356.726 164.018 356.479C164.393 356.228 164.58 355.894 164.58 355.478Z" fill="#AD2344"/>
<ellipse rx="50.4911" ry="48.1607" transform="matrix(-1 0 0 1 98.9728 257.893)" fill="#C4C4C4"/>
<rect width="46.6071" height="250.125" rx="23.3036" transform="matrix(-1 0 0 1 123.053 0)" fill="#C4C4C4"/>
<ellipse rx="50.4911" ry="48.1607" transform="matrix(-1 0 0 1 98.9728 257.893)" fill="#E04167"/>
<line x1="95.6426" y1="38.2857" x2="77.4462" y2="38.2857" stroke="#787878" stroke-width="2" stroke-linecap="round"/>
<line x1="95.6426" y1="47.6071" x2="77.4462" y2="47.6071" stroke="#787878" stroke-width="2" stroke-linecap="round"/>
<line x1="104.964" y1="56.9286" x2="77.4465" y2="56.9286" stroke="#787878" stroke-width="2" stroke-linecap="round"/>
<line x1="95.6426" y1="64.6964" x2="77.4462" y2="64.6964" stroke="#787878" stroke-width="2" stroke-linecap="round"/>
<line x1="95.6426" y1="74.0179" x2="77.4462" y2="74.0179" stroke="#787878" stroke-width="2" stroke-linecap="round"/>
<line x1="104.964" y1="83.3393" x2="77.4465" y2="83.3393" stroke="#787878" stroke-width="2" stroke-linecap="round"/>
<line x1="95.6426" y1="91.1072" x2="77.4462" y2="91.1071" stroke="#787878" stroke-width="2" stroke-linecap="round"/>
<line x1="95.6426" y1="100.429" x2="77.4462" y2="100.429" stroke="#787878" stroke-width="2" stroke-linecap="round"/>
<line x1="104.964" y1="109.75" x2="77.4465" y2="109.75" stroke="#787878" stroke-width="2" stroke-linecap="round"/>
<line x1="95.6426" y1="145.482" x2="77.4462" y2="145.482" stroke="#787878" stroke-width="2" stroke-linecap="round"/>
<line x1="95.6426" y1="119.071" x2="77.4462" y2="119.071" stroke="#787878" stroke-width="2" stroke-linecap="round"/>
<line x1="104.964" y1="128.393" x2="77.4465" y2="128.393" stroke="#787878" stroke-width="2" stroke-linecap="round"/>
<line x1="104.964" y1="137.714" x2="77.4465" y2="137.714" stroke="#787878" stroke-width="2" stroke-linecap="round"/>
<line x1="95.6426" y1="154.804" x2="77.4462" y2="154.804" stroke="#787878" stroke-width="2" stroke-linecap="round"/>
<line x1="104.964" y1="164.125" x2="77.4465" y2="164.125" stroke="#787878" stroke-width="2" stroke-linecap="round"/>
<line x1="95.6426" y1="198.304" x2="77.4462" y2="198.304" stroke="#787878" stroke-width="2" stroke-linecap="round"/>
<line x1="95.6426" y1="171.893" x2="77.4462" y2="171.893" stroke="#787878" stroke-width="2" stroke-linecap="round"/>
<line x1="104.964" y1="181.214" x2="77.4465" y2="181.214" stroke="#787878" stroke-width="2" stroke-linecap="round"/>
<line x1="104.964" y1="190.536" x2="77.4465" y2="190.536" stroke="#787878" stroke-width="2" stroke-linecap="round"/>
<line x1="95.6426" y1="207.625" x2="77.4462" y2="207.625" stroke="#787878" stroke-width="2" stroke-linecap="round"/>
<mask id="mask0" style="mask-type:alpha" maskUnits="userSpaceOnUse" x="48" y="209" width="102" height="97">
<ellipse rx="50.4911" ry="48.1607" transform="matrix(-1 0 0 1 98.9728 257.161)" fill="#CECECE"/>
</mask>
<g mask="url(#mask0)">
<rect x="48" y="139" width="108" height="131" fill="#C4C4C4"/>
</g>
<path d="M214.345 150.766C215.32 150.766 216.172 150.93 216.901 151.258C217.626 151.586 218.18 152.051 218.562 152.652C218.945 153.254 219.137 153.956 219.137 154.758C219.137 155.542 218.945 156.237 218.562 156.843C218.175 157.449 217.626 157.921 216.915 158.258C216.2 158.59 215.372 158.761 214.434 158.771L213.716 158.771C212.759 158.771 211.913 158.604 211.18 158.271C210.446 157.939 209.885 157.469 209.498 156.863C209.106 156.253 208.91 155.555 208.91 154.771C208.91 153.974 209.104 153.272 209.491 152.666C209.874 152.055 210.432 151.586 211.166 151.258C211.895 150.93 212.745 150.766 213.716 150.766L214.345 150.766ZM213.702 152.071C212.522 152.071 211.617 152.308 210.988 152.782C210.355 153.256 210.038 153.919 210.038 154.771C210.038 155.601 210.355 156.255 210.988 156.733C211.617 157.207 212.492 157.451 213.613 157.465L214.345 157.465C215.489 157.465 216.389 157.226 217.045 156.747C217.697 156.264 218.022 155.601 218.022 154.758C218.022 153.91 217.715 153.254 217.1 152.789C216.48 152.324 215.593 152.085 214.44 152.071L213.702 152.071ZM212.738 145.42C212.706 145.611 212.69 145.819 212.69 146.042C212.69 146.871 213.044 147.434 213.75 147.73L219 147.73L219 148.995L211.604 148.995L211.604 147.765L212.458 147.744C211.797 147.329 211.467 146.742 211.467 145.98C211.467 145.734 211.499 145.548 211.562 145.42L212.738 145.42ZM218.104 141.421C218.104 140.97 217.968 140.576 217.694 140.238C217.421 139.901 217.079 139.714 216.669 139.678L216.669 138.481C217.093 138.504 217.496 138.65 217.879 138.919C218.262 139.188 218.567 139.548 218.795 139.999C219.023 140.446 219.137 140.92 219.137 141.421C219.137 142.428 218.802 143.23 218.132 143.827C217.457 144.42 216.537 144.716 215.37 144.716L215.158 144.716C214.438 144.716 213.798 144.584 213.237 144.319C212.677 144.055 212.242 143.677 211.932 143.185C211.622 142.688 211.467 142.102 211.467 141.428C211.467 140.598 211.715 139.91 212.212 139.363C212.709 138.812 213.354 138.518 214.146 138.481L214.146 139.678C213.668 139.714 213.276 139.896 212.971 140.225C212.661 140.548 212.506 140.949 212.506 141.428C212.506 142.07 212.738 142.569 213.203 142.925C213.663 143.276 214.331 143.451 215.206 143.451L215.445 143.451C216.298 143.451 216.954 143.276 217.414 142.925C217.874 142.574 218.104 142.073 218.104 141.421ZM219.062 141.216L219.417 141.298C219.54 140.601 219.934 140.252 220.6 140.252C221.042 140.252 221.39 140.434 221.646 140.799C221.905 141.163 222.035 141.672 222.035 142.323L221.304 142.371C221.304 142.011 221.244 141.733 221.126 141.537C221.007 141.337 220.841 141.236 220.627 141.236C220.426 141.236 220.278 141.309 220.183 141.455C220.087 141.601 220.019 141.897 219.978 142.344L219.062 142.125L219.062 141.216ZM219 132.493C218.854 132.566 218.594 132.625 218.221 132.671C218.831 133.259 219.137 133.961 219.137 134.776C219.137 135.506 218.932 136.105 218.521 136.574C218.107 137.039 217.583 137.271 216.949 137.271C216.179 137.271 215.582 136.98 215.158 136.396C214.73 135.809 214.516 134.984 214.516 133.922L214.516 132.691L213.935 132.691C213.493 132.691 213.142 132.824 212.882 133.088C212.618 133.352 212.485 133.742 212.485 134.257C212.485 134.708 212.599 135.086 212.827 135.392C213.055 135.697 213.331 135.85 213.654 135.85L213.654 137.121C213.285 137.121 212.93 136.991 212.588 136.731C212.242 136.467 211.968 136.112 211.768 135.665C211.567 135.214 211.467 134.719 211.467 134.182C211.467 133.329 211.681 132.662 212.109 132.179C212.533 131.696 213.119 131.445 213.866 131.427L217.271 131.427C217.95 131.427 218.49 131.34 218.891 131.167L219 131.167L219 132.493ZM218.036 134.592C218.036 134.195 217.934 133.819 217.729 133.464C217.523 133.108 217.257 132.851 216.929 132.691L215.411 132.691L215.411 133.683C215.411 135.232 215.865 136.007 216.771 136.007C217.168 136.007 217.478 135.875 217.701 135.61C217.924 135.346 218.036 135.007 218.036 134.592ZM211.604 128.255L212.424 128.221C211.786 127.678 211.467 126.947 211.467 126.026C211.467 124.992 211.863 124.288 212.656 123.914C212.301 123.668 212.014 123.349 211.795 122.957C211.576 122.561 211.467 122.093 211.467 121.556C211.467 119.933 212.326 119.108 214.044 119.081L219 119.081L219 120.346L214.119 120.346C213.59 120.346 213.196 120.466 212.937 120.708C212.672 120.95 212.54 121.355 212.54 121.925C212.54 122.394 212.681 122.784 212.964 123.094C213.242 123.404 213.618 123.584 214.092 123.634L219 123.634L219 124.905L214.153 124.905C213.078 124.905 212.54 125.432 212.54 126.484C212.54 127.314 212.893 127.881 213.6 128.187L219 128.187L219 129.451L211.604 129.451L211.604 128.255ZM219.137 114.098C219.137 115.1 218.809 115.916 218.152 116.545C217.492 117.174 216.61 117.488 215.507 117.488L215.274 117.488C214.541 117.488 213.887 117.349 213.312 117.071C212.734 116.789 212.283 116.397 211.959 115.896C211.631 115.39 211.467 114.843 211.467 114.255C211.467 113.293 211.784 112.546 212.417 112.013C213.05 111.479 213.957 111.213 215.138 111.213L215.664 111.213L215.664 116.224C216.393 116.205 216.983 115.993 217.435 115.588C217.881 115.178 218.104 114.658 218.104 114.029C218.104 113.583 218.013 113.204 217.831 112.895C217.649 112.585 217.407 112.313 217.106 112.081L217.708 111.309C218.66 111.928 219.137 112.858 219.137 114.098ZM212.506 114.255C212.506 114.765 212.693 115.194 213.066 115.54C213.436 115.886 213.955 116.101 214.625 116.183L214.625 112.478L214.529 112.478C213.887 112.514 213.39 112.687 213.039 112.997C212.684 113.307 212.506 113.726 212.506 114.255ZM211.604 108.547L212.533 108.506C211.822 107.941 211.467 107.202 211.467 106.291C211.467 104.728 212.349 103.939 214.112 103.926L219 103.926L219 105.19L214.105 105.19C213.572 105.195 213.178 105.318 212.923 105.56C212.668 105.797 212.54 106.168 212.54 106.674C212.54 107.084 212.649 107.444 212.868 107.754C213.087 108.064 213.374 108.305 213.729 108.479L219 108.479L219 109.743L211.604 109.743L211.604 108.547ZM209.812 100.303L211.604 100.303L211.604 98.9219L212.581 98.9219L212.581 100.303L217.168 100.303C217.464 100.303 217.687 100.241 217.838 100.118C217.984 99.9951 218.057 99.7855 218.057 99.4893C218.057 99.3434 218.029 99.1429 217.975 98.8877L219 98.8877C219.091 99.2204 219.137 99.5439 219.137 99.8584C219.137 100.424 218.966 100.85 218.624 101.137C218.282 101.424 217.797 101.567 217.168 101.567L212.581 101.567L212.581 102.914L211.604 102.914L211.604 101.567L209.812 101.567L209.812 100.303ZM215.233 97.9102C214.509 97.9102 213.857 97.7689 213.278 97.4863C212.7 97.1992 212.253 96.8027 211.938 96.2969C211.624 95.7865 211.467 95.2054 211.467 94.5537C211.467 93.5465 211.815 92.7331 212.513 92.1133C213.21 91.4889 214.137 91.1768 215.295 91.1768L215.384 91.1768C216.104 91.1768 216.751 91.3158 217.325 91.5937C217.895 91.8672 218.339 92.2614 218.658 92.7764C218.977 93.2868 219.137 93.8747 219.137 94.54C219.137 95.5426 218.788 96.3561 218.091 96.9805C217.394 97.6003 216.471 97.9102 215.322 97.9102L215.233 97.9102ZM215.384 96.6387C216.204 96.6387 216.863 96.4495 217.359 96.0713C217.856 95.6885 218.104 95.1781 218.104 94.54C218.104 93.8975 217.854 93.387 217.353 93.0088C216.847 92.6305 216.14 92.4414 215.233 92.4414C214.422 92.4414 213.766 92.6351 213.265 93.0225C212.759 93.4053 212.506 93.9157 212.506 94.5537C212.506 95.1781 212.754 95.6816 213.251 96.0645C213.748 96.4473 214.459 96.6387 215.384 96.6387Z" fill="#787878"/>
<path d="M196.072 3.10714L196.072 257.893M195.149 3.10714L166.554 3.10714M195.149 257.893H166.554" stroke="#E0E0E0" stroke-width="2" stroke-linecap="round"/>
<path d="M87.4102 266.464H75.9376V264.507L81.6212 258.308C82.4415 257.394 83.0235 256.632 83.3673 256.023C83.7188 255.406 83.8946 254.788 83.8946 254.171C83.8946 253.359 83.6641 252.703 83.2032 252.203C82.7501 251.703 82.1368 251.453 81.3633 251.453C80.4415 251.453 79.7266 251.734 79.2188 252.296C78.711 252.859 78.4571 253.628 78.4571 254.605H75.6094C75.6094 253.566 75.8438 252.632 76.3126 251.804C76.7891 250.968 77.4649 250.32 78.3399 249.859C79.2227 249.398 80.2383 249.167 81.3868 249.167C83.043 249.167 84.3477 249.585 85.3008 250.421C86.2618 251.249 86.7423 252.398 86.7423 253.867C86.7423 254.718 86.5001 255.613 86.0157 256.55C85.5391 257.48 84.754 258.538 83.6602 259.726L79.4883 264.191H87.4102V266.464ZM90.1641 270.308L88.629 269.394C89.0821 268.683 89.3907 268.062 89.5548 267.531C89.7266 267.007 89.8165 266.472 89.8243 265.925V263.71H92.3907L92.379 265.761C92.3712 266.589 92.1602 267.417 91.7462 268.246C91.3399 269.081 90.8126 269.769 90.1641 270.308ZM106.207 250.984L99.3868 266.464H96.3985L103.207 251.687H94.3829V249.402H106.207V250.984ZM108.375 252.683C108.375 251.652 108.707 250.808 109.371 250.152C110.035 249.488 110.906 249.156 111.984 249.156C113.078 249.156 113.953 249.488 114.609 250.152C115.274 250.808 115.606 251.671 115.606 252.742V253.585C115.606 254.609 115.274 255.449 114.609 256.105C113.953 256.761 113.086 257.089 112.008 257.089C110.953 257.089 110.082 256.769 109.395 256.128C108.715 255.48 108.375 254.609 108.375 253.515V252.683ZM110.367 253.585C110.367 254.124 110.516 254.562 110.813 254.898C111.117 255.226 111.516 255.39 112.008 255.39C112.492 255.39 112.883 255.226 113.18 254.898C113.477 254.562 113.625 254.109 113.625 253.538V252.683C113.625 252.144 113.473 251.706 113.168 251.371C112.871 251.035 112.477 250.867 111.984 250.867C111.492 250.867 111.098 251.038 110.801 251.382C110.512 251.718 110.367 252.163 110.367 252.718V253.585ZM116.578 262.281C116.578 261.234 116.918 260.386 117.598 259.738C118.277 259.089 119.145 258.765 120.199 258.765C121.262 258.765 122.129 259.089 122.801 259.738C123.481 260.386 123.82 261.261 123.82 262.363V263.195C123.82 264.21 123.492 265.05 122.836 265.714C122.188 266.371 121.316 266.699 120.223 266.699C119.129 266.699 118.246 266.374 117.574 265.726C116.91 265.07 116.578 264.206 116.578 263.136V262.281ZM118.57 263.195C118.57 263.726 118.723 264.163 119.027 264.507C119.34 264.843 119.738 265.011 120.223 265.011C120.723 265.011 121.113 264.851 121.395 264.531C121.684 264.203 121.828 263.746 121.828 263.16V262.281C121.828 261.734 121.676 261.296 121.371 260.968C121.066 260.64 120.676 260.476 120.199 260.476C119.715 260.476 119.32 260.64 119.016 260.968C118.719 261.296 118.57 261.749 118.57 262.328V263.195ZM112.594 265.187L111.129 264.343L119.461 251.007L120.926 251.851L112.594 265.187Z" fill="white"/>
</svg>
