<svg width="55" height="63" viewBox="0 0 55 63" fill="none" xmlns="http://www.w3.org/2000/svg">
<path fill-rule="evenodd" clip-rule="evenodd" d="M48.3784 5.41404C46.6538 5.96342 44.792 6.23811 42.8322 6.23811C36.3061 6.23811 34.5227 2 34.5227 2L20.4416 2.03924C20.4416 2.03924 18.6876 6.2283 12.1419 6.2283C10.1919 6.2283 8.32033 5.95361 6.59571 5.40422L2 3.94247V22.4057C2 38.6322 14.1801 52.3177 25.5763 59.7148L27.5557 61L29.4959 59.656C41.0978 51.631 52.9545 40.918 52.9545 22.4057V3.95228L48.3784 5.41404Z" fill="#FDF0CF" stroke="#E1A508" stroke-width="3" stroke-miterlimit="10"/>
<path d="M39.9686 28.0802L41.2051 26.8438L34.1271 19.7701L30.4089 23.4883L27.4772 20.5522L24.5412 23.4883L20.823 19.7701L13.7538 26.8438L14.9902 28.0802L20.8274 22.2343L23.3091 24.716L18.8045 29.225L27.4772 37.8977L36.15 29.225L31.6498 24.7247L34.1271 22.2343L39.9686 28.0802ZM27.4772 35.4248L21.2774 29.225L27.4772 23.0251L33.677 29.225L27.4772 35.4248Z" fill="#AD2344"/>
<path d="M27.4773 44.3728C24.1357 44.3728 20.8691 43.3819 18.0907 41.5254C15.3122 39.6689 13.1467 37.0302 11.8679 33.9429C10.5891 30.8557 10.2546 27.4586 10.9065 24.1812C11.5584 20.9038 13.1675 17.8933 15.5304 15.5304C17.8933 13.1675 20.9037 11.5584 24.1811 10.9065C27.4585 10.2546 30.8556 10.5892 33.9429 11.8679C37.0301 13.1467 39.6688 15.3123 41.5253 18.0907C43.3818 20.8691 44.3727 24.1357 44.3727 27.4773C44.3681 31.9568 42.5866 36.2516 39.4191 39.4191C36.2515 42.5866 31.9568 44.3681 27.4773 44.3728ZM27.4773 12.3339C24.4811 12.3339 21.5523 13.2224 19.0612 14.887C16.57 16.5517 14.6285 18.9177 13.4821 21.6859C12.3357 24.454 12.036 27.5 12.6209 30.4385C13.2057 33.377 14.6488 36.076 16.7677 38.1943C18.8866 40.3126 21.5861 41.755 24.5248 42.3389C27.4634 42.9229 30.5093 42.6223 33.2771 41.4752C36.0449 40.328 38.4104 38.3858 40.0743 35.8942C41.7383 33.4025 42.6259 30.4734 42.6251 27.4773C42.6204 23.4613 41.023 19.6111 38.1833 16.7713C35.3435 13.9315 31.4933 12.3341 27.4773 12.3295V12.3339Z" fill="#AD2344"/>
</svg>
