<svg width="20" height="20" viewBox="0 0 20 20" fill="none" xmlns="http://www.w3.org/2000/svg">
<path d="M4.01042 8.64583C5.67708 11.875 8.125 14.3229 11.3542 15.9896L13.8021 13.5417C14.1493 13.1944 14.5312 13.1076 14.9479 13.2812C16.1979 13.6979 17.5174 13.9062 18.9062 13.9062C19.2188 13.9062 19.4792 14.0104 19.6875 14.2188C19.8958 14.4271 20 14.6875 20 15V18.9062C20 19.2188 19.8958 19.4792 19.6875 19.6875C19.4792 19.8958 19.2188 20 18.9062 20C13.6979 20 9.23611 18.1597 5.52083 14.4792C1.84028 10.7639 0 6.30208 0 1.09375C0 0.78125 0.104167 0.520833 0.3125 0.3125C0.520833 0.104167 0.78125 0 1.09375 0H5C5.3125 0 5.57292 0.104167 5.78125 0.3125C5.98958 0.520833 6.09375 0.78125 6.09375 1.09375C6.09375 2.48264 6.30208 3.80208 6.71875 5.05208C6.85764 5.50347 6.77083 5.88542 6.45833 6.19792L4.01042 8.64583Z" fill="#A7D7DE"/>
</svg>
