<svg width="34" height="34" viewBox="0 0 34 34" fill="none" xmlns="http://www.w3.org/2000/svg">
<path d="M32.9416 16.5215C32.8568 16.1795 32.6895 15.8635 32.4543 15.601C32.2191 15.3386 31.9232 15.1379 31.5924 15.0163C31.2616 14.8947 30.9061 14.856 30.5569 14.9036C30.2077 14.9511 29.8755 15.0836 29.5894 15.2892C29.1639 15.6152 28.6463 15.7985 28.1104 15.8129H26.8349C26.6046 13.9255 25.8367 12.144 24.6226 10.6805L24.7459 10.5573C25.4209 9.92225 26.1952 9.40192 27.0382 9.0169C27.184 8.94423 27.3172 8.84853 27.4326 8.73347C27.6 8.56488 27.7263 8.35999 27.8017 8.1347C27.8771 7.90942 27.8996 7.66979 27.8674 7.43441C27.8352 7.19903 27.7492 6.97423 27.6161 6.77745C27.483 6.58066 27.3063 6.41719 27.0998 6.29971C26.8721 6.17178 26.6154 6.10459 26.3542 6.10459C26.093 6.10459 25.8363 6.17178 25.6086 6.29971C25.3488 6.44234 25.135 6.65608 24.9923 6.91585C24.5822 7.78539 24.0419 8.58736 23.3902 9.29416L23.3532 9.33113C21.8804 8.13275 20.0945 7.38216 18.2077 7.16847V5.93618C18.2216 5.38421 18.4068 4.85021 18.7377 4.40815C18.9933 4.04797 19.1311 3.61749 19.1321 3.17586C19.1351 2.83557 19.0576 2.49938 18.9058 2.19479C18.754 1.89019 18.5323 1.62584 18.2588 1.42334C17.9852 1.22084 17.6677 1.08595 17.332 1.02968C16.9963 0.973414 16.6521 0.997377 16.3275 1.09961C16.0028 1.20184 15.707 1.37944 15.4642 1.61789C15.2213 1.85634 15.0384 2.14886 14.9303 2.47155C14.8222 2.79423 14.792 3.13792 14.8422 3.47451C14.8924 3.81109 15.0215 4.13103 15.2191 4.40815C15.5451 4.83361 15.7284 5.35112 15.7429 5.88689V7.11918C13.8573 7.3505 12.0778 8.11823 10.6159 9.33113L10.4865 9.20174C9.86238 8.5404 9.34848 7.78318 8.96442 6.95898C8.89174 6.81316 8.79603 6.68001 8.68096 6.56465C8.51234 6.39727 8.30743 6.27099 8.08211 6.19559C7.8568 6.12019 7.61714 6.09771 7.38173 6.12989C7.14632 6.16207 6.92149 6.24804 6.72468 6.38114C6.52787 6.51424 6.36438 6.69088 6.24688 6.89737C6.11894 7.12502 6.05174 7.38176 6.05174 7.6429C6.05174 7.90403 6.11894 8.16078 6.24688 8.38843C6.38953 8.6482 6.60329 8.86194 6.8631 9.00457C7.73275 9.41466 8.53483 9.95485 9.24172 10.6065L9.28485 10.6497C8.08411 12.1216 7.33125 13.9073 7.11575 15.7945H5.88331C5.34747 15.78 4.82989 15.5967 4.40438 15.2707C4.08163 15.0419 3.70216 14.9062 3.30747 14.8786C2.91278 14.851 2.51809 14.9324 2.1666 15.114C1.81511 15.2957 1.52035 15.5704 1.31459 15.9083C1.10883 16.2462 1 16.6342 1 17.0298C1 17.4254 1.10883 17.8134 1.31459 18.1513C1.52035 18.4892 1.81511 18.764 2.1666 18.9456C2.51809 19.1273 2.91278 19.2087 3.30747 19.1811C3.70216 19.1534 4.08163 19.0178 4.40438 18.7889C4.83282 18.4676 5.34824 18.2829 5.88331 18.259H7.11575C7.34597 20.1465 8.11386 21.928 9.32799 23.3915L9.29102 23.4285C8.57704 24.0844 7.76649 24.6268 6.88775 25.0366C6.62794 25.1792 6.41418 25.393 6.27153 25.6527C6.14359 25.8804 6.07638 26.1371 6.07638 26.3983C6.07638 26.6594 6.14359 26.9162 6.27153 27.1438C6.38903 27.3503 6.55252 27.5269 6.74933 27.66C6.94614 27.7931 7.17097 27.8791 7.40638 27.9113C7.64179 27.9435 7.88145 27.921 8.10676 27.8456C8.33208 27.7702 8.53699 27.6439 8.7056 27.4765C8.82076 27.3612 8.91648 27.2281 8.98907 27.0822C9.36521 26.2506 9.87291 25.4849 10.4926 24.8148L10.6159 24.6916C12.08 25.8978 13.8593 26.659 15.7429 26.885V28.1173C15.7284 28.6531 15.5451 29.1706 15.2191 29.5961C14.9902 29.9188 14.8545 30.2982 14.8269 30.6928C14.7992 31.0875 14.8807 31.4821 15.0623 31.8335C15.244 32.185 15.5188 32.4797 15.8568 32.6854C16.1947 32.8912 16.5827 33 16.9784 33C17.374 33 17.7621 32.8912 18.1 32.6854C18.438 32.4797 18.7128 32.185 18.8944 31.8335C19.0761 31.4821 19.1575 31.0875 19.1299 30.6928C19.1022 30.2982 18.9666 29.9188 18.7377 29.5961C18.4163 29.1677 18.2316 28.6523 18.2077 28.1173V26.885C20.0961 26.6531 21.8779 25.8831 23.3409 24.6669L23.3778 24.7039C24.0338 25.4178 24.5763 26.2283 24.9862 27.1068C25.1288 27.3666 25.3426 27.5804 25.6024 27.723C25.8301 27.8509 26.0869 27.9181 26.348 27.9181C26.6092 27.9181 26.866 27.8509 27.0937 27.723C27.2998 27.6073 27.4767 27.446 27.6108 27.2513C27.7449 27.0567 27.8325 26.8338 27.867 26.6C27.9016 26.3662 27.882 26.1276 27.8099 25.9025C27.7378 25.6774 27.615 25.4718 27.4511 25.3015C27.3357 25.1865 27.2025 25.0908 27.0567 25.0181C26.2249 24.642 25.4592 24.1344 24.789 23.5147L24.6658 23.3915C25.8643 21.923 26.6171 20.1419 26.8349 18.259H28.0673C28.6193 18.2729 29.1534 18.4581 29.5955 18.7889C29.9558 19.0445 30.3863 19.1822 30.828 19.1832C31.1552 19.1846 31.4785 19.1117 31.7735 18.9701C32.0685 18.8284 32.3275 18.6216 32.531 18.3654C32.7345 18.1091 32.8772 17.81 32.9483 17.4906C33.0194 17.1713 33.0171 16.8399 32.9416 16.5215V16.5215Z" fill="#B5D988"/>
<path d="M16.9753 24.5991C21.1579 24.5991 24.5487 21.2089 24.5487 17.0267C24.5487 12.8446 21.1579 9.45435 16.9753 9.45435C12.7926 9.45435 9.40192 12.8446 9.40192 17.0267C9.40192 21.2089 12.7926 24.5991 16.9753 24.5991Z" fill="#ADDCF6"/>
<path d="M17.566 12.4488C17.566 12.7749 17.3016 13.0394 16.9753 13.0394C16.649 13.0394 16.3846 12.7749 16.3846 12.4488C16.3846 12.1227 16.649 11.8582 16.9753 11.8582C17.3016 11.8582 17.566 12.1227 17.566 12.4488Z" fill="#ADDCF6" stroke="#095783"/>
<path d="M21.7503 18.1173C21.7503 18.5897 21.3672 18.9728 20.8946 18.9728C20.4219 18.9728 20.0389 18.5897 20.0389 18.1173C20.0389 17.6449 20.4219 17.2618 20.8946 17.2618C21.3672 17.2618 21.7503 17.6449 21.7503 18.1173Z" fill="#ADDCF6" stroke="#095783"/>
<path d="M22.3118 25.4433C17.2972 20.8591 13.8304 14.8307 12.3906 8.19129C11.7587 8.51662 11.1637 8.90911 10.6159 9.36196L10.4865 9.23257C9.85963 8.5619 9.34561 7.79409 8.96442 6.959C8.89174 6.81318 8.79603 6.68003 8.68096 6.56467C8.51234 6.3973 8.30743 6.27101 8.08211 6.19561C7.8568 6.12022 7.61714 6.09774 7.38173 6.12991C7.14632 6.16209 6.92149 6.24807 6.72468 6.38116C6.52787 6.51426 6.36438 6.6909 6.24688 6.89739C6.11894 7.12505 6.05174 7.38179 6.05174 7.64292C6.05174 7.90406 6.11894 8.1608 6.24688 8.38845C6.38953 8.64823 6.60329 8.86196 6.8631 9.0046C7.73275 9.41469 8.53483 9.95488 9.24172 10.6066L9.28485 10.6497C8.08411 12.1216 7.33125 13.9073 7.11575 15.7945H5.88331C5.34747 15.78 4.82989 15.5967 4.40438 15.2708C4.08163 15.0419 3.70216 14.9063 3.30747 14.8786C2.91278 14.851 2.51809 14.9324 2.1666 15.1141C1.81511 15.2957 1.52035 15.5705 1.31459 15.9084C1.10883 16.2463 1 16.6343 1 17.0299C1 17.4255 1.10883 17.8134 1.31459 18.1513C1.52035 18.4892 1.81511 18.764 2.1666 18.9457C2.51809 19.1273 2.91278 19.2087 3.30747 19.1811C3.70216 19.1534 4.08163 19.0178 4.40438 18.7889C4.83282 18.4676 5.34824 18.2829 5.88331 18.2591H7.11575C7.34597 20.1465 8.11386 21.9281 9.32799 23.3915L9.29102 23.4285C8.57704 24.0845 7.76649 24.6268 6.88775 25.0366C6.62794 25.1793 6.41418 25.393 6.27153 25.6528C6.14359 25.8804 6.07638 26.1372 6.07638 26.3983C6.07638 26.6594 6.14359 26.9162 6.27153 27.1438C6.38903 27.3503 6.55252 27.527 6.74933 27.6601C6.94614 27.7932 7.17097 27.8791 7.40638 27.9113C7.64179 27.9435 7.88145 27.921 8.10676 27.8456C8.33208 27.7702 8.53699 27.6439 8.7056 27.4766C8.82076 27.3613 8.91648 27.2281 8.98907 27.0822C9.36521 26.2506 9.87291 25.485 10.4926 24.8148L10.6159 24.6916C12.08 25.8978 13.8593 26.6591 15.7429 26.8851V28.1173C15.7284 28.6531 15.5451 29.1706 15.2191 29.5961C14.9902 29.9188 14.8545 30.2982 14.8269 30.6929C14.7992 31.0875 14.8807 31.4821 15.0623 31.8336C15.244 32.185 15.5188 32.4797 15.8568 32.6855C16.1947 32.8912 16.5827 33 16.9784 33C17.374 33 17.7621 32.8912 18.1 32.6855C18.438 32.4797 18.7128 32.185 18.8944 31.8336C19.0761 31.4821 19.1575 31.0875 19.1299 30.6929C19.1022 30.2982 18.9666 29.9188 18.7377 29.5961C18.4163 29.1677 18.2316 28.6523 18.2077 28.1173V26.8851C19.6655 26.7137 21.0672 26.2213 22.3118 25.4433Z" fill="#F39B88"/>
<path d="M9.40192 17.0268C9.40142 18.3356 9.74023 19.6223 10.3853 20.7612C11.0304 21.9001 11.9596 22.8524 13.0825 23.5251C14.2054 24.1979 15.4835 24.5682 16.7921 24.5998C18.1008 24.6315 19.3953 24.3234 20.5494 23.7057C17.0444 19.98 14.4649 15.4822 13.0191 10.5757C11.9141 11.2512 11.0011 12.1992 10.3677 13.3288C9.73434 14.4584 9.40178 15.7317 9.40192 17.0268Z" fill="#6BB4DD"/>
<path d="M17.1469 18.105C17.1469 19.2988 16.179 20.2667 14.9848 20.2667C13.7907 20.2667 12.8228 19.2988 12.8228 18.105C12.8228 16.9111 13.7907 15.9432 14.9848 15.9432C16.179 15.9432 17.1469 16.9111 17.1469 18.105Z" fill="#B5D988" stroke="#095783"/>
<path d="M32.9416 16.5215C32.8568 16.1795 32.6895 15.8635 32.4543 15.601C32.2191 15.3386 31.9232 15.1379 31.5924 15.0163C31.2616 14.8947 30.9061 14.856 30.5569 14.9036C30.2077 14.9511 29.8755 15.0836 29.5894 15.2892C29.1639 15.6152 28.6463 15.7985 28.1104 15.8129H26.8349C26.6046 13.9255 25.8367 12.144 24.6226 10.6805L24.7459 10.5573C25.4209 9.92225 26.1952 9.40192 27.0382 9.0169C27.184 8.94423 27.3172 8.84853 27.4326 8.73347C27.6 8.56488 27.7263 8.35999 27.8017 8.1347C27.8771 7.90942 27.8996 7.66979 27.8674 7.43441C27.8352 7.19903 27.7492 6.97423 27.6161 6.77745C27.483 6.58066 27.3063 6.41719 27.0998 6.29971C26.8721 6.17178 26.6154 6.10459 26.3542 6.10459C26.093 6.10459 25.8363 6.17178 25.6086 6.29971C25.3488 6.44234 25.135 6.65608 24.9923 6.91585C24.5822 7.78539 24.0419 8.58736 23.3902 9.29416L23.3532 9.33113C21.8804 8.13275 20.0945 7.38216 18.2077 7.16847V5.93618C18.2216 5.38421 18.4068 4.85021 18.7377 4.40815C18.9933 4.04797 19.1311 3.61749 19.1321 3.17586C19.1351 2.83557 19.0576 2.49938 18.9058 2.19479C18.754 1.89019 18.5323 1.62584 18.2588 1.42334C17.9852 1.22084 17.6677 1.08595 17.332 1.02968C16.9963 0.973414 16.6521 0.997377 16.3275 1.09961C16.0028 1.20184 15.707 1.37944 15.4642 1.61789C15.2213 1.85634 15.0384 2.14886 14.9303 2.47155C14.8222 2.79423 14.792 3.13792 14.8422 3.47451C14.8924 3.81109 15.0215 4.13103 15.2191 4.40815C15.5451 4.83361 15.7284 5.35112 15.7429 5.88689V7.11918C13.8573 7.3505 12.0778 8.11823 10.6159 9.33113L10.4865 9.20174C9.86238 8.5404 9.34848 7.78318 8.96442 6.95898C8.89174 6.81316 8.79603 6.68001 8.68096 6.56465C8.51234 6.39727 8.30743 6.27099 8.08211 6.19559C7.8568 6.12019 7.61714 6.09771 7.38173 6.12989C7.14632 6.16207 6.92149 6.24804 6.72468 6.38114C6.52787 6.51424 6.36438 6.69088 6.24688 6.89737C6.11894 7.12502 6.05174 7.38176 6.05174 7.6429C6.05174 7.90403 6.11894 8.16078 6.24688 8.38843C6.38953 8.6482 6.60329 8.86194 6.8631 9.00457C7.73275 9.41466 8.53483 9.95485 9.24172 10.6065L9.28485 10.6497C8.08411 12.1216 7.33125 13.9073 7.11575 15.7945H5.88331C5.34747 15.78 4.82989 15.5967 4.40438 15.2707C4.08163 15.0419 3.70216 14.9062 3.30747 14.8786C2.91278 14.851 2.51809 14.9324 2.1666 15.114C1.81511 15.2957 1.52035 15.5704 1.31459 15.9083C1.10883 16.2462 1 16.6342 1 17.0298C1 17.4254 1.10883 17.8134 1.31459 18.1513C1.52035 18.4892 1.81511 18.764 2.1666 18.9456C2.51809 19.1273 2.91278 19.2087 3.30747 19.1811C3.70216 19.1534 4.08163 19.0178 4.40438 18.7889C4.83282 18.4676 5.34824 18.2829 5.88331 18.259H7.11575C7.34597 20.1465 8.11386 21.928 9.32799 23.3915L9.29102 23.4285C8.57704 24.0844 7.76649 24.6268 6.88775 25.0366C6.62794 25.1792 6.41418 25.393 6.27153 25.6527C6.14359 25.8804 6.07638 26.1371 6.07638 26.3983C6.07638 26.6594 6.14359 26.9162 6.27153 27.1438C6.38903 27.3503 6.55252 27.5269 6.74933 27.66C6.94614 27.7931 7.17097 27.8791 7.40638 27.9113C7.64179 27.9435 7.88145 27.921 8.10676 27.8456C8.33208 27.7702 8.53699 27.6439 8.7056 27.4765C8.82067 27.3612 8.91639 27.228 8.98907 27.0822C9.36521 26.2506 9.87291 25.4849 10.4926 24.8148L10.6159 24.6916C12.08 25.8978 13.8593 26.659 15.7429 26.885V28.1173C15.7284 28.6531 15.5451 29.1706 15.2191 29.5961C14.9902 29.9188 14.8545 30.2982 14.8269 30.6928C14.7992 31.0875 14.8807 31.4821 15.0623 31.8335C15.244 32.185 15.5188 32.4797 15.8568 32.6854C16.1947 32.8912 16.5827 33 16.9784 33C17.374 33 17.7621 32.8912 18.1 32.6854C18.438 32.4797 18.7128 32.185 18.8944 31.8335C19.0761 31.4821 19.1575 31.0875 19.1299 30.6928C19.1022 30.2982 18.9666 29.9188 18.7377 29.5961C18.4163 29.1677 18.2316 28.6523 18.2077 28.1173V26.885C20.0961 26.6531 21.8779 25.8831 23.3409 24.6669L23.3778 24.7039C24.0338 25.4178 24.5763 26.2283 24.9862 27.1068C25.1288 27.3666 25.3426 27.5804 25.6024 27.723C25.8301 27.8509 26.0869 27.9181 26.348 27.9181C26.6092 27.9181 26.866 27.8509 27.0937 27.723C27.2998 27.6073 27.4767 27.446 27.6108 27.2513C27.7449 27.0567 27.8325 26.8338 27.867 26.6C27.9016 26.3662 27.882 26.1276 27.8099 25.9025C27.7378 25.6774 27.615 25.4718 27.4511 25.3015C27.3357 25.1865 27.2025 25.0908 27.0567 25.0181C26.2249 24.642 25.4592 24.1344 24.789 23.5147L24.6658 23.3915C25.8643 21.923 26.6171 20.1419 26.8349 18.259H28.0673C28.6193 18.2729 29.1534 18.4581 29.5955 18.7889C29.9558 19.0445 30.3863 19.1822 30.828 19.1832C31.1552 19.1846 31.4785 19.1117 31.7735 18.9701C32.0685 18.8284 32.3275 18.6216 32.531 18.3654C32.7345 18.1091 32.8772 17.81 32.9483 17.4906C33.0194 17.1713 33.0171 16.8399 32.9416 16.5215V16.5215Z" stroke="#095783" stroke-linecap="round" stroke-linejoin="round"/>
<path d="M23.2053 12.7137C24.1715 14.1066 24.6428 15.7831 24.5438 17.4753C24.4449 19.1675 23.7814 20.7777 22.6594 22.0485C21.5374 23.3192 20.0218 24.1772 18.3547 24.4853C16.6876 24.7933 14.9654 24.5337 13.4633 23.7478C11.9612 22.9619 10.7659 21.6952 10.0686 20.1502C9.37126 18.6051 9.21212 16.8709 9.6166 15.2248C10.0211 13.5786 10.9658 12.1156 12.2998 11.0695C13.6338 10.0235 15.28 9.45477 16.9753 9.45435" stroke="#095783" stroke-linecap="round" stroke-linejoin="round"/>
</svg>
