<svg width="30" height="30" viewBox="0 0 30 30" fill="none" xmlns="http://www.w3.org/2000/svg">
<path d="M26.7857 0H3.21429C1.40625 0 0 1.47321 0 3.21429V26.7857C0 28.5938 1.40625 30 3.21429 30H12.3884V19.8214H8.16964V15H12.3884V11.3839C12.3884 7.23214 14.8661 4.88839 18.6161 4.88839C20.4911 4.88839 22.3661 5.22321 22.3661 5.22321V9.30804H20.2902C18.2143 9.30804 17.5446 10.5804 17.5446 11.9196V15H22.1652L21.4286 19.8214H17.5446V30H26.7857C28.5268 30 30 28.5938 30 26.7857V3.21429C30 1.47321 28.5268 0 26.7857 0Z" fill="#ADDCF6"/>
</svg>
