<svg width="32" height="32" viewBox="0 0 32 32" fill="none" xmlns="http://www.w3.org/2000/svg">
<g id="icon/maps/person_pin_circle_24px">
<path id="icon/maps/person_pin_circle_24px_2" fill-rule="evenodd" clip-rule="evenodd" d="M5.33334 11.6733C5.33334 5.79326 10.12 1.00659 16 1.00659C21.88 1.00659 26.6667 5.79326 26.6667 11.6733C26.6667 19.0999 17.3867 29.4599 16.9867 29.8999L16 30.9933L15.0133 29.8999C14.6133 29.4599 5.33334 19.0999 5.33334 11.6733ZM8.00001 11.6733C8.00001 16.3933 13.0933 23.4866 16 26.9666C18.3333 24.1533 24 16.7799 24 11.6733C24 7.25992 20.4133 3.67326 16 3.67326C11.5867 3.67326 8.00001 7.25992 8.00001 11.6733ZM16 11.6733C17.1067 11.6733 18 10.7799 18 9.67326C18 8.56659 17.1067 7.67326 16 7.67326C14.8933 7.67326 14 8.57993 14 9.67326C14 10.7799 14.8933 11.6733 16 11.6733ZM12 15.0066C12 13.6733 14.6667 13.0066 16 13.0066C17.3333 13.0066 20 13.6733 20 15.0066V15.1666C19.0267 16.2866 17.6 17.0066 16 17.0066C14.4 17.0066 12.9733 16.2866 12 15.1666V15.0066Z" fill="#CEE7F5"/>
</g>
</svg>
