<svg width="19" height="20" viewBox="0 0 19 20" fill="none" xmlns="http://www.w3.org/2000/svg">
<path d="M5.6338 15.3521C6.79186 15.9781 7.91862 16.2911 9.01408 16.2911C10.1095 16.2911 11.2363 15.9781 12.3944 15.3521C13.5524 14.7261 14.4288 13.975 15.0235 13.0986C14.9922 12.2222 14.288 11.4867 12.9108 10.892C11.5336 10.2973 10.2347 10 9.01408 10C7.79343 10 6.49452 10.2973 5.11737 10.892C3.74022 11.4554 3.03599 12.1909 3.00469 13.0986C3.59937 13.975 4.47574 14.7261 5.6338 15.3521ZM11.1268 2.86385C10.5321 2.26917 9.82786 1.97183 9.01408 1.97183C8.20031 1.97183 7.49609 2.26917 6.90141 2.86385C6.30673 3.45853 6.00939 4.16275 6.00939 4.97653C6.00939 5.7903 6.30673 6.49452 6.90141 7.0892C7.49609 7.68388 8.20031 7.98122 9.01408 7.98122C9.82786 7.98122 10.5321 7.68388 11.1268 7.0892C11.7214 6.49452 12.0188 5.7903 12.0188 4.97653C12.0188 4.16275 11.7214 3.45853 11.1268 2.86385ZM2.62911 2.67606C4.38185 0.892019 6.51017 0 9.01408 0C11.518 0 13.6463 0.892019 15.3991 2.67606C17.1518 4.42879 18.0282 6.54147 18.0282 9.01408C18.0282 11.0798 17.3865 12.9108 16.1033 14.507C14.8513 16.1033 13.2551 17.1674 11.3146 17.6995L9.01408 20L6.71362 17.6995C4.77308 17.1674 3.16119 16.1033 1.87793 14.507C0.625978 12.9108 0 11.0798 0 9.01408C0 6.54147 0.876369 4.42879 2.62911 2.67606Z" fill="#A7D7DE"/>
</svg>
