<svg width="37" height="30" viewBox="0 0 37 30" fill="none" xmlns="http://www.w3.org/2000/svg">
<path d="M32.4976 7.5C32.5448 7.69231 32.5684 8.00481 32.5684 8.4375C32.5684 10.9856 32.0964 13.5337 31.1523 16.0817C30.2083 18.5817 28.8631 20.8894 27.1167 23.0048C25.4175 25.0721 23.1991 26.7548 20.4614 28.0529C17.7238 29.351 14.703 30 11.3989 30C7.24528 30 3.44564 28.8702 0 26.6106C0.519206 26.6587 1.10921 26.6827 1.77002 26.6827C5.21566 26.6827 8.30729 25.601 11.0449 23.4375C9.3929 23.4375 7.92969 22.9567 6.65527 21.9952C5.42806 20.9856 4.57845 19.7356 4.10645 18.2452C4.57845 18.2933 5.02686 18.3173 5.45166 18.3173C6.11247 18.3173 6.77327 18.2452 7.43408 18.101C6.30127 17.8606 5.28646 17.3798 4.38965 16.6587C3.49284 15.9375 2.78483 15.0721 2.26563 14.0625C1.74642 13.0048 1.48682 11.875 1.48682 10.6731V10.5288C2.52523 11.1538 3.63444 11.4904 4.81445 11.5385C2.59603 10 1.48682 7.88462 1.48682 5.19231C1.48682 3.84615 1.84082 2.57212 2.54883 1.37019C4.38965 3.72596 6.63167 5.60096 9.2749 6.99519C11.9653 8.38942 14.821 9.15865 17.8418 9.30288C17.7474 8.72596 17.7002 8.14904 17.7002 7.57212C17.7002 5.50481 18.4082 3.72596 19.8242 2.23558C21.2874 0.745192 23.0339 0 25.0635 0C27.2347 0 29.0519 0.793269 30.5151 2.37981C32.2144 2.04327 33.7956 1.44231 35.2588 0.576923C34.6924 2.35577 33.6068 3.75 32.002 4.75962C33.418 4.56731 34.834 4.15865 36.25 3.53365C35.2116 5.07212 33.9608 6.39423 32.4976 7.5Z" fill="#ADDCF6"/>
</svg>
