<svg width="30" height="30" viewBox="0 0 30 30" fill="none" xmlns="http://www.w3.org/2000/svg">
<path d="M6.60726 30H0.462508V9.97768H6.60726V30ZM3.56792 7.23214C2.59885 7.23214 1.76194 6.875 1.05716 6.16071C0.352387 5.44643 0 4.59821 0 3.61607C0 2.63393 0.352387 1.78571 1.05716 1.07143C1.76194 0.357143 2.59885 0 3.56792 0C4.1846 0 4.75723 0.15625 5.28581 0.46875C5.85844 0.78125 6.29892 1.22768 6.60726 1.80804C6.95965 2.34375 7.13584 2.94643 7.13584 3.61607C7.13584 4.24107 6.95965 4.84375 6.60726 5.42411C6.29892 5.95982 5.85844 6.40625 5.28581 6.76339C4.75723 7.07589 4.1846 7.23214 3.56792 7.23214ZM29.6005 30H23.4558V20.2232C23.4558 19.4643 23.4337 18.8616 23.3897 18.4152C23.3456 17.9241 23.2355 17.3884 23.0593 16.808C22.8831 16.183 22.5528 15.7143 22.0682 15.4018C21.6278 15.0893 21.0331 14.933 20.2843 14.933C18.8307 14.933 17.8396 15.4018 17.311 16.3393C16.8265 17.2768 16.5842 18.5268 16.5842 20.0893V30H10.4395V9.97768H16.386V12.7232H16.4521C16.8926 11.8304 17.6194 11.0714 18.6325 10.4464C19.6456 9.77679 20.8569 9.44196 22.2665 9.44196C23.7641 9.44196 24.9975 9.6875 25.9665 10.1786C26.9796 10.625 27.7285 11.317 28.213 12.2545C28.7416 13.1473 29.094 14.1295 29.2702 15.2009C29.4904 16.2723 29.6005 17.5446 29.6005 19.0179V30Z" fill="#ADDCF6"/>
</svg>
