<svg width="21" height="20" viewBox="0 0 21 20" fill="none" xmlns="http://www.w3.org/2000/svg">
<path fill-rule="evenodd" clip-rule="evenodd" d="M14.0294 12.435H14.9313L20.628 17.9478L18.927 19.5907L13.2188 14.0889V13.2178L12.9106 12.9091C11.6091 13.9896 9.91949 14.6402 8.08145 14.6402C3.98298 14.6402 0.660828 11.4317 0.660828 7.47349C0.660828 3.51529 3.98298 0.306824 8.08145 0.306824C12.1799 0.306824 15.5021 3.51529 15.5021 7.47349C15.5021 9.24862 14.8285 10.8804 13.7097 12.1373L14.0294 12.435ZM2.94414 7.4735C2.94414 10.2189 5.23883 12.435 8.0815 12.435C10.9242 12.435 13.2189 10.2189 13.2189 7.4735C13.2189 4.72812 10.9242 2.51196 8.0815 2.51196C5.23883 2.51196 2.94414 4.72812 2.94414 7.4735Z" fill="white"/>
</svg>
