<svg width="154" height="77" viewBox="0 0 154 77" fill="none" xmlns="http://www.w3.org/2000/svg">
<path d="M34.0179 25.6585C38.006 29.5469 40 34.1027 40 39.3259C40 44.6652 38.0357 49.221 34.1071 52.9933C30.1786 56.7656 25.4762 58.6518 20 58.6518C16.6071 58.6518 13.4524 57.8683 10.5357 56.3013L0 59L2.85714 48.9888C1.07143 46.029 0.178571 42.808 0.178571 39.3259C0.178571 33.9866 2.1131 29.4308 5.98214 25.6585C9.85119 21.8862 14.5238 20 20 20C25.4762 20 30.1488 21.8862 34.0179 25.6585ZM20 55.4308C24.5238 55.4308 28.4226 53.8638 31.6964 50.7299C34.9702 47.5379 36.6071 43.7366 36.6071 39.3259C36.6667 35.0312 35 31.2589 31.6071 28.0089C28.3929 24.875 24.5238 23.308 20 23.308C15.4762 23.308 11.5774 24.875 8.30357 28.0089C5.08929 31.1429 3.48214 34.9152 3.48214 39.3259C3.48214 42.4018 4.34524 45.2455 6.07143 47.8571L6.42857 48.4665L4.73214 54.3862L10.9821 52.8192L11.6071 53.1674C14.1667 54.6763 16.9643 55.4308 20 55.4308Z" fill="#A7D7DE"/>
<path d="M22.2951 36.2463V47.6499C22.2951 48.4401 22.0765 49.0375 21.6393 49.4421C21.2022 49.8468 20.6473 50.0492 19.9748 50.0492C19.3022 50.0492 18.753 49.842 18.327 49.4277C17.9123 49.0134 17.7049 48.4208 17.7049 47.6499V36.3619C17.7049 35.5815 17.9123 34.9937 18.327 34.5986C18.753 34.2036 19.3022 34.0061 19.9748 34.0061C20.6473 34.0061 21.2022 34.2036 21.6393 34.5986C22.0765 34.9937 22.2951 35.5429 22.2951 36.2463ZM20.0252 32.1705C19.3863 32.1705 18.837 32.0019 18.3775 31.6646C17.9291 31.3274 17.7049 30.8504 17.7049 30.2338C17.7049 29.6749 17.9347 29.2172 18.3943 28.8607C18.8651 28.4945 19.4087 28.3115 20.0252 28.3115C20.6193 28.3115 21.1461 28.4753 21.6057 28.8029C22.0653 29.1305 22.2951 29.6075 22.2951 30.2338C22.2951 30.8408 22.0709 31.3178 21.6225 31.6646C21.1742 32.0019 20.6417 32.1705 20.0252 32.1705Z" fill="#A7D7DE"/>
<path d="M53.186 27.112C52.458 27.112 51.8233 26.9953 51.282 26.762C50.7407 26.5287 50.3207 26.202 50.022 25.782C49.7327 25.362 49.588 24.8673 49.588 24.298V23.948C49.588 23.9013 49.602 23.864 49.63 23.836C49.6673 23.7987 49.7093 23.78 49.756 23.78H51.002C51.0487 23.78 51.086 23.7987 51.114 23.836C51.1513 23.864 51.17 23.9013 51.17 23.948V24.214C51.17 24.6433 51.3613 25.0027 51.744 25.292C52.1267 25.572 52.6493 25.712 53.312 25.712C53.8813 25.712 54.3107 25.5907 54.6 25.348C54.8893 25.1053 55.034 24.7927 55.034 24.41C55.034 24.1487 54.9547 23.9293 54.796 23.752C54.6373 23.5653 54.4087 23.3973 54.11 23.248C53.8207 23.0987 53.382 22.912 52.794 22.688C52.1313 22.4453 51.5947 22.2167 51.184 22.002C50.7733 21.7873 50.428 21.498 50.148 21.134C49.8773 20.7607 49.742 20.2987 49.742 19.748C49.742 18.9267 50.0407 18.278 50.638 17.802C51.2353 17.326 52.0333 17.088 53.032 17.088C53.732 17.088 54.348 17.2093 54.88 17.452C55.4213 17.6947 55.8413 18.0353 56.14 18.474C56.4387 18.9033 56.588 19.4027 56.588 19.972V20.21C56.588 20.2567 56.5693 20.2987 56.532 20.336C56.504 20.364 56.4667 20.378 56.42 20.378H55.16C55.1133 20.378 55.0713 20.364 55.034 20.336C55.006 20.2987 54.992 20.2567 54.992 20.21V20.056C54.992 19.6173 54.81 19.2487 54.446 18.95C54.0913 18.642 53.5967 18.488 52.962 18.488C52.4487 18.488 52.0473 18.5953 51.758 18.81C51.478 19.0247 51.338 19.328 51.338 19.72C51.338 20 51.4127 20.2287 51.562 20.406C51.7113 20.5833 51.9353 20.7467 52.234 20.896C52.5327 21.036 52.9947 21.218 53.62 21.442C54.2827 21.694 54.81 21.9227 55.202 22.128C55.6033 22.3333 55.944 22.6227 56.224 22.996C56.5133 23.36 56.658 23.8173 56.658 24.368C56.658 25.208 56.3453 25.8753 55.72 26.37C55.104 26.8647 54.2593 27.112 53.186 27.112ZM64.1735 22.618C64.2108 22.8513 64.2295 23.1127 64.2295 23.402L64.2155 23.836C64.2155 23.948 64.1595 24.004 64.0475 24.004H59.6655C59.6188 24.004 59.5955 24.0273 59.5955 24.074C59.6235 24.382 59.6655 24.592 59.7215 24.704C59.9455 25.376 60.4915 25.7167 61.3595 25.726C61.9942 25.726 62.4982 25.4647 62.8715 24.942C62.9088 24.886 62.9555 24.858 63.0115 24.858C63.0488 24.858 63.0815 24.872 63.1095 24.9L63.9775 25.614C64.0615 25.6793 64.0755 25.754 64.0195 25.838C63.7302 26.2487 63.3428 26.566 62.8575 26.79C62.3815 27.014 61.8495 27.126 61.2615 27.126C60.5335 27.126 59.9128 26.9627 59.3995 26.636C58.8955 26.3093 58.5268 25.852 58.2935 25.264C58.0788 24.76 57.9715 24.06 57.9715 23.164C57.9715 22.6227 58.0275 22.184 58.1395 21.848C58.3262 21.1947 58.6762 20.6813 59.1895 20.308C59.7122 19.9253 60.3375 19.734 61.0655 19.734C62.9042 19.734 63.9402 20.6953 64.1735 22.618ZM61.0655 21.134C60.7202 21.134 60.4308 21.2227 60.1975 21.4C59.9735 21.568 59.8148 21.806 59.7215 22.114C59.6655 22.2727 59.6282 22.478 59.6095 22.73C59.5908 22.7767 59.6095 22.8 59.6655 22.8H62.5075C62.5542 22.8 62.5775 22.7767 62.5775 22.73C62.5588 22.4967 62.5308 22.3193 62.4935 22.198C62.4095 21.862 62.2415 21.6007 61.9895 21.414C61.7468 21.2273 61.4388 21.134 61.0655 21.134ZM69.0457 19.762C69.3444 19.762 69.6057 19.8227 69.8297 19.944C69.9044 19.9813 69.9324 20.0513 69.9137 20.154L69.6757 21.414C69.6664 21.526 69.601 21.5587 69.4797 21.512C69.3397 21.4653 69.1764 21.442 68.9897 21.442C68.8684 21.442 68.775 21.4467 68.7097 21.456C68.3177 21.4747 67.991 21.6147 67.7297 21.876C67.4684 22.128 67.3377 22.4593 67.3377 22.87V26.832C67.3377 26.8787 67.319 26.9207 67.2817 26.958C67.2537 26.986 67.2164 27 67.1697 27H65.8817C65.835 27 65.793 26.986 65.7557 26.958C65.7277 26.9207 65.7137 26.8787 65.7137 26.832V20.014C65.7137 19.9673 65.7277 19.93 65.7557 19.902C65.793 19.8647 65.835 19.846 65.8817 19.846H67.1697C67.2164 19.846 67.2537 19.8647 67.2817 19.902C67.319 19.93 67.3377 19.9673 67.3377 20.014V20.644C67.3377 20.6813 67.3424 20.7047 67.3517 20.714C67.3704 20.714 67.389 20.7 67.4077 20.672C67.7997 20.0653 68.3457 19.762 69.0457 19.762ZM73.1418 27C73.0485 27 72.9878 26.9533 72.9598 26.86L70.7058 20.028C70.6965 20.0093 70.6918 19.986 70.6918 19.958C70.6918 19.874 70.7431 19.832 70.8458 19.832H72.2738C72.3765 19.832 72.4418 19.8787 72.4698 19.972L73.8278 24.648C73.8371 24.676 73.8511 24.69 73.8698 24.69C73.8885 24.69 73.9025 24.676 73.9118 24.648L75.2698 19.972C75.2978 19.8787 75.3631 19.832 75.4658 19.832L76.8938 19.86C76.9498 19.86 76.9918 19.8787 77.0198 19.916C77.0478 19.944 77.0525 19.9907 77.0338 20.056L74.7938 26.86C74.7658 26.9533 74.7051 27 74.6118 27H73.1418ZM79.1885 18.866C78.8992 18.866 78.6612 18.7727 78.4745 18.586C78.2878 18.3993 78.1945 18.1613 78.1945 17.872C78.1945 17.5827 78.2878 17.3447 78.4745 17.158C78.6612 16.9713 78.8992 16.878 79.1885 16.878C79.4778 16.878 79.7158 16.9713 79.9025 17.158C80.0892 17.3447 80.1825 17.5827 80.1825 17.872C80.1825 18.1613 80.0892 18.3993 79.9025 18.586C79.7158 18.7727 79.4778 18.866 79.1885 18.866ZM78.5165 27C78.4698 27 78.4278 26.986 78.3905 26.958C78.3625 26.9207 78.3485 26.8787 78.3485 26.832V20C78.3485 19.9533 78.3625 19.916 78.3905 19.888C78.4278 19.8507 78.4698 19.832 78.5165 19.832H79.8045C79.8512 19.832 79.8885 19.8507 79.9165 19.888C79.9538 19.916 79.9725 19.9533 79.9725 20V26.832C79.9725 26.8787 79.9538 26.9207 79.9165 26.958C79.8885 26.986 79.8512 27 79.8045 27H78.5165ZM86.2288 24.704C86.2382 24.6853 86.2428 24.662 86.2428 24.634C86.2522 24.6247 86.2568 24.6107 86.2568 24.592C86.2848 24.48 86.3502 24.4333 86.4528 24.452L87.7128 24.648C87.7595 24.6573 87.7968 24.6807 87.8248 24.718C87.8622 24.746 87.8762 24.788 87.8668 24.844C87.8388 24.9933 87.8155 25.1007 87.7968 25.166C87.6475 25.6793 87.3582 26.104 86.9288 26.44C86.5088 26.7667 86.0095 26.9767 85.4308 27.07C85.3655 27.0793 85.3562 27.1073 85.4028 27.154C85.8228 27.5647 86.0328 27.98 86.0328 28.4C86.0328 28.5027 86.0188 28.61 85.9908 28.722C85.9068 29.03 85.7482 29.2493 85.5148 29.38C85.2815 29.52 85.0108 29.59 84.7028 29.59C84.4228 29.59 84.1708 29.5527 83.9468 29.478C83.8628 29.4407 83.8255 29.3707 83.8348 29.268L83.9048 28.736C83.9142 28.6147 83.9842 28.5773 84.1148 28.624C84.2082 28.652 84.2968 28.666 84.3808 28.666C84.5395 28.666 84.6702 28.6193 84.7728 28.526C84.8755 28.442 84.9268 28.3113 84.9268 28.134C84.9268 27.8167 84.6888 27.4667 84.2128 27.084L84.1288 27.042C83.5782 26.9487 83.1068 26.7293 82.7148 26.384C82.3228 26.0293 82.0382 25.5907 81.8608 25.068C81.7115 24.648 81.6368 24.088 81.6368 23.388C81.6368 22.716 81.7115 22.1653 81.8608 21.736C82.0568 21.12 82.4162 20.6347 82.9388 20.28C83.4708 19.916 84.0962 19.734 84.8148 19.734C85.5428 19.734 86.1775 19.916 86.7188 20.28C87.2602 20.644 87.6195 21.1013 87.7968 21.652C87.8435 21.8013 87.8762 21.9507 87.8948 22.1V22.128C87.8948 22.2213 87.8435 22.2773 87.7408 22.296L86.4808 22.478H86.4528C86.3688 22.478 86.3128 22.4313 86.2848 22.338C86.2848 22.2913 86.2802 22.254 86.2708 22.226C86.2522 22.1513 86.2335 22.086 86.2148 22.03C86.1308 21.7687 85.9628 21.554 85.7108 21.386C85.4588 21.218 85.1602 21.134 84.8148 21.134C84.4602 21.134 84.1568 21.2273 83.9048 21.414C83.6622 21.5913 83.4988 21.8387 83.4148 22.156C83.3215 22.4547 83.2748 22.87 83.2748 23.402C83.2748 23.9153 83.3168 24.3307 83.4008 24.648C83.4942 24.9747 83.6622 25.236 83.9048 25.432C84.1475 25.6187 84.4508 25.712 84.8148 25.712C85.1695 25.712 85.4728 25.6233 85.7248 25.446C85.9862 25.2593 86.1542 25.012 86.2288 24.704ZM92.24 27.112C91.5027 27.112 90.868 26.9253 90.336 26.552C89.8133 26.1787 89.4447 25.6607 89.23 24.998C89.0713 24.494 88.992 23.962 88.992 23.402C88.992 22.8047 89.0667 22.2727 89.216 21.806C89.4307 21.1527 89.804 20.644 90.336 20.28C90.868 19.916 91.5073 19.734 92.254 19.734C92.9633 19.734 93.5747 19.916 94.088 20.28C94.6107 20.644 94.9793 21.148 95.194 21.792C95.362 22.24 95.446 22.772 95.446 23.388C95.446 23.976 95.3667 24.508 95.208 24.984C94.9933 25.6467 94.6247 26.1693 94.102 26.552C93.5793 26.9253 92.9587 27.112 92.24 27.112ZM92.24 25.712C92.5853 25.712 92.8793 25.614 93.122 25.418C93.374 25.222 93.556 24.9467 93.668 24.592C93.7613 24.284 93.808 23.892 93.808 23.416C93.808 22.912 93.7613 22.52 93.668 22.24C93.5653 21.8853 93.388 21.6147 93.136 21.428C92.884 21.232 92.576 21.134 92.212 21.134C91.8667 21.134 91.568 21.232 91.316 21.428C91.064 21.6147 90.882 21.8853 90.77 22.24C90.6767 22.5667 90.63 22.9587 90.63 23.416C90.63 23.8733 90.6767 24.2653 90.77 24.592C90.8727 24.9467 91.05 25.222 91.302 25.418C91.5633 25.614 91.876 25.712 92.24 25.712ZM104.222 17.368C104.222 17.3213 104.236 17.284 104.264 17.256C104.301 17.2187 104.343 17.2 104.39 17.2H105.678C105.725 17.2 105.762 17.2187 105.79 17.256C105.827 17.284 105.846 17.3213 105.846 17.368V26.832C105.846 26.8787 105.827 26.9207 105.79 26.958C105.762 26.986 105.725 27 105.678 27H104.39C104.343 27 104.301 26.986 104.264 26.958C104.236 26.9207 104.222 26.8787 104.222 26.832V26.412C104.222 26.384 104.213 26.3653 104.194 26.356C104.175 26.3467 104.157 26.356 104.138 26.384C103.727 26.8693 103.191 27.112 102.528 27.112C101.865 27.112 101.305 26.9393 100.848 26.594C100.391 26.2487 100.059 25.768 99.854 25.152C99.686 24.6293 99.602 24.046 99.602 23.402C99.602 22.7393 99.6813 22.17 99.84 21.694C100.045 21.078 100.377 20.5973 100.834 20.252C101.291 19.9067 101.865 19.734 102.556 19.734C103.2 19.734 103.727 19.9673 104.138 20.434C104.157 20.4527 104.175 20.462 104.194 20.462C104.213 20.4527 104.222 20.434 104.222 20.406V17.368ZM103.886 25.04C104.101 24.6573 104.208 24.116 104.208 23.416C104.208 22.688 104.091 22.1327 103.858 21.75C103.606 21.3393 103.251 21.134 102.794 21.134C102.318 21.134 101.945 21.33 101.674 21.722C101.394 22.1327 101.254 22.702 101.254 23.43C101.254 24.0833 101.366 24.62 101.59 25.04C101.851 25.488 102.248 25.712 102.78 25.712C103.256 25.712 103.625 25.488 103.886 25.04ZM113.638 22.618C113.676 22.8513 113.694 23.1127 113.694 23.402L113.68 23.836C113.68 23.948 113.624 24.004 113.512 24.004H109.13C109.084 24.004 109.06 24.0273 109.06 24.074C109.088 24.382 109.13 24.592 109.186 24.704C109.41 25.376 109.956 25.7167 110.824 25.726C111.459 25.726 111.963 25.4647 112.336 24.942C112.374 24.886 112.42 24.858 112.476 24.858C112.514 24.858 112.546 24.872 112.574 24.9L113.442 25.614C113.526 25.6793 113.54 25.754 113.484 25.838C113.195 26.2487 112.808 26.566 112.322 26.79C111.846 27.014 111.314 27.126 110.726 27.126C109.998 27.126 109.378 26.9627 108.864 26.636C108.36 26.3093 107.992 25.852 107.758 25.264C107.544 24.76 107.436 24.06 107.436 23.164C107.436 22.6227 107.492 22.184 107.604 21.848C107.791 21.1947 108.141 20.6813 108.654 20.308C109.177 19.9253 109.802 19.734 110.53 19.734C112.369 19.734 113.405 20.6953 113.638 22.618ZM110.53 21.134C110.185 21.134 109.896 21.2227 109.662 21.4C109.438 21.568 109.28 21.806 109.186 22.114C109.13 22.2727 109.093 22.478 109.074 22.73C109.056 22.7767 109.074 22.8 109.13 22.8H111.972C112.019 22.8 112.042 22.7767 112.042 22.73C112.024 22.4967 111.996 22.3193 111.958 22.198C111.874 21.862 111.706 21.6007 111.454 21.414C111.212 21.2273 110.904 21.134 110.53 21.134ZM50.19 44C50.1433 44 50.1013 43.986 50.064 43.958C50.036 43.9207 50.022 43.8787 50.022 43.832V34.368C50.022 34.3213 50.036 34.284 50.064 34.256C50.1013 34.2187 50.1433 34.2 50.19 34.2H51.478C51.5247 34.2 51.562 34.2187 51.59 34.256C51.6273 34.284 51.646 34.3213 51.646 34.368V43.832C51.646 43.8787 51.6273 43.9207 51.59 43.958C51.562 43.986 51.5247 44 51.478 44H50.19ZM56.9621 36.734C57.7181 36.734 58.3201 36.958 58.7681 37.406C59.2254 37.854 59.4541 38.4653 59.4541 39.24V43.832C59.4541 43.8787 59.4354 43.9207 59.3981 43.958C59.3701 43.986 59.3327 44 59.2861 44H57.9981C57.9514 44 57.9094 43.986 57.8721 43.958C57.8441 43.9207 57.8301 43.8787 57.8301 43.832V39.576C57.8301 39.1467 57.7087 38.8013 57.4661 38.54C57.2234 38.2693 56.9014 38.134 56.5001 38.134C56.0987 38.134 55.7721 38.2647 55.5201 38.526C55.2774 38.7873 55.1561 39.1327 55.1561 39.562V43.832C55.1561 43.8787 55.1374 43.9207 55.1001 43.958C55.0721 43.986 55.0347 44 54.9881 44H53.7001C53.6534 44 53.6114 43.986 53.5741 43.958C53.5461 43.9207 53.5321 43.8787 53.5321 43.832V37.014C53.5321 36.9673 53.5461 36.93 53.5741 36.902C53.6114 36.8647 53.6534 36.846 53.7001 36.846H54.9881C55.0347 36.846 55.0721 36.8647 55.1001 36.902C55.1374 36.93 55.1561 36.9673 55.1561 37.014V37.462C55.1561 37.49 55.1654 37.5087 55.1841 37.518C55.2027 37.5273 55.2167 37.518 55.2261 37.49C55.6087 36.986 56.1874 36.734 56.9621 36.734ZM64.8713 36.832C64.918 36.832 64.9553 36.8507 64.9833 36.888C65.0206 36.916 65.0393 36.9533 65.0393 37V38.106C65.0393 38.1527 65.0206 38.1947 64.9833 38.232C64.9553 38.26 64.918 38.274 64.8713 38.274H63.4853C63.4386 38.274 63.4153 38.2973 63.4153 38.344V43.832C63.4153 43.8787 63.3966 43.9207 63.3593 43.958C63.3313 43.986 63.294 44 63.2473 44H61.9593C61.9126 44 61.8706 43.986 61.8333 43.958C61.8053 43.9207 61.7913 43.8787 61.7913 43.832V38.344C61.7913 38.2973 61.768 38.274 61.7213 38.274H60.8533C60.8066 38.274 60.7646 38.26 60.7273 38.232C60.6993 38.1947 60.6853 38.1527 60.6853 38.106V37C60.6853 36.9533 60.6993 36.916 60.7273 36.888C60.7646 36.8507 60.8066 36.832 60.8533 36.832H61.7213C61.768 36.832 61.7913 36.8087 61.7913 36.762V36.51C61.7913 35.9033 61.8706 35.4367 62.0293 35.11C62.188 34.774 62.4493 34.536 62.8133 34.396C63.1773 34.256 63.6906 34.1907 64.3533 34.2H64.8433C64.89 34.2 64.9273 34.2187 64.9553 34.256C64.9926 34.284 65.0113 34.3213 65.0113 34.368V35.348C65.0113 35.3947 64.9926 35.4367 64.9553 35.474C64.9273 35.502 64.89 35.516 64.8433 35.516H64.4793C64.078 35.516 63.798 35.5953 63.6393 35.754C63.49 35.9127 63.4153 36.202 63.4153 36.622V36.762C63.4153 36.8087 63.4386 36.832 63.4853 36.832H64.8713ZM68.9431 44.112C68.2058 44.112 67.5711 43.9253 67.0391 43.552C66.5164 43.1787 66.1478 42.6607 65.9331 41.998C65.7744 41.494 65.6951 40.962 65.6951 40.402C65.6951 39.8047 65.7698 39.2727 65.9191 38.806C66.1338 38.1527 66.5071 37.644 67.0391 37.28C67.5711 36.916 68.2104 36.734 68.9571 36.734C69.6664 36.734 70.2778 36.916 70.7911 37.28C71.3138 37.644 71.6824 38.148 71.8971 38.792C72.0651 39.24 72.1491 39.772 72.1491 40.388C72.1491 40.976 72.0698 41.508 71.9111 41.984C71.6964 42.6467 71.3278 43.1693 70.8051 43.552C70.2824 43.9253 69.6618 44.112 68.9431 44.112ZM68.9431 42.712C69.2884 42.712 69.5824 42.614 69.8251 42.418C70.0771 42.222 70.2591 41.9467 70.3711 41.592C70.4644 41.284 70.5111 40.892 70.5111 40.416C70.5111 39.912 70.4644 39.52 70.3711 39.24C70.2684 38.8853 70.0911 38.6147 69.8391 38.428C69.5871 38.232 69.2791 38.134 68.9151 38.134C68.5698 38.134 68.2711 38.232 68.0191 38.428C67.7671 38.6147 67.5851 38.8853 67.4731 39.24C67.3798 39.5667 67.3331 39.9587 67.3331 40.416C67.3331 40.8733 67.3798 41.2653 67.4731 41.592C67.5758 41.9467 67.7531 42.222 68.0051 42.418C68.2664 42.614 68.5791 42.712 68.9431 42.712ZM77.0164 36.762C77.3151 36.762 77.5764 36.8227 77.8004 36.944C77.8751 36.9813 77.9031 37.0513 77.8844 37.154L77.6464 38.414C77.6371 38.526 77.5717 38.5587 77.4504 38.512C77.3104 38.4653 77.1471 38.442 76.9604 38.442C76.8391 38.442 76.7457 38.4467 76.6804 38.456C76.2884 38.4747 75.9617 38.6147 75.7004 38.876C75.4391 39.128 75.3084 39.4593 75.3084 39.87V43.832C75.3084 43.8787 75.2897 43.9207 75.2524 43.958C75.2244 43.986 75.1871 44 75.1404 44H73.8524C73.8057 44 73.7637 43.986 73.7264 43.958C73.6984 43.9207 73.6844 43.8787 73.6844 43.832V37.014C73.6844 36.9673 73.6984 36.93 73.7264 36.902C73.7637 36.8647 73.8057 36.846 73.8524 36.846H75.1404C75.1871 36.846 75.2244 36.8647 75.2524 36.902C75.2897 36.93 75.3084 36.9673 75.3084 37.014V37.644C75.3084 37.6813 75.3131 37.7047 75.3224 37.714C75.3411 37.714 75.3597 37.7 75.3784 37.672C75.7704 37.0653 76.3164 36.762 77.0164 36.762ZM86.6061 36.734C87.3247 36.734 87.8847 36.9533 88.2861 37.392C88.6967 37.8213 88.9021 38.4233 88.9021 39.198V43.832C88.9021 43.8787 88.8834 43.9207 88.8461 43.958C88.8181 43.986 88.7807 44 88.7341 44H87.4601C87.4134 44 87.3714 43.986 87.3341 43.958C87.3061 43.9207 87.2921 43.8787 87.2921 43.832V39.534C87.2921 39.1047 87.1754 38.764 86.9421 38.512C86.7181 38.26 86.4147 38.134 86.0321 38.134C85.6494 38.134 85.3367 38.26 85.0941 38.512C84.8514 38.764 84.7301 39.1 84.7301 39.52V43.832C84.7301 43.8787 84.7114 43.9207 84.6741 43.958C84.6461 43.986 84.6087 44 84.5621 44H83.2881C83.2414 44 83.1994 43.986 83.1621 43.958C83.1341 43.9207 83.1201 43.8787 83.1201 43.832V39.534C83.1201 39.1047 83.0034 38.764 82.7701 38.512C82.5367 38.26 82.2287 38.134 81.8461 38.134C81.4914 38.134 81.1974 38.2367 80.9641 38.442C80.7401 38.6473 80.6094 38.9273 80.5721 39.282V43.832C80.5721 43.8787 80.5534 43.9207 80.5161 43.958C80.4881 43.986 80.4507 44 80.4041 44H79.1161C79.0694 44 79.0274 43.986 78.9901 43.958C78.9621 43.9207 78.9481 43.8787 78.9481 43.832V37.014C78.9481 36.9673 78.9621 36.93 78.9901 36.902C79.0274 36.8647 79.0694 36.846 79.1161 36.846H80.4041C80.4507 36.846 80.4881 36.8647 80.5161 36.902C80.5534 36.93 80.5721 36.9673 80.5721 37.014V37.476C80.5721 37.504 80.5814 37.5227 80.6001 37.532C80.6187 37.5413 80.6374 37.532 80.6561 37.504C80.8614 37.2427 81.1134 37.0513 81.4121 36.93C81.7201 36.7993 82.0607 36.734 82.4341 36.734C82.8914 36.734 83.2927 36.8273 83.6381 37.014C83.9834 37.2007 84.2494 37.4713 84.4361 37.826C84.4641 37.8633 84.4967 37.8633 84.5341 37.826C84.7394 37.4527 85.0241 37.1773 85.3881 37C85.7521 36.8227 86.1581 36.734 86.6061 36.734ZM93.2855 36.734C93.8735 36.734 94.3915 36.8367 94.8395 37.042C95.2875 37.2473 95.6328 37.532 95.8755 37.896C96.1182 38.2507 96.2395 38.6567 96.2395 39.114V43.832C96.2395 43.8787 96.2208 43.9207 96.1835 43.958C96.1555 43.986 96.1182 44 96.0715 44H94.7835C94.7368 44 94.6948 43.986 94.6575 43.958C94.6295 43.9207 94.6155 43.8787 94.6155 43.832V43.384C94.6155 43.356 94.6062 43.342 94.5875 43.342C94.5688 43.3327 94.5502 43.3373 94.5315 43.356C94.0742 43.86 93.4115 44.112 92.5435 44.112C91.8435 44.112 91.2648 43.9347 90.8075 43.58C90.3595 43.2253 90.1355 42.698 90.1355 41.998C90.1355 41.27 90.3875 40.7053 90.8915 40.304C91.4048 39.8933 92.1235 39.688 93.0475 39.688H94.5455C94.5922 39.688 94.6155 39.6647 94.6155 39.618V39.282C94.6155 38.918 94.5082 38.638 94.2935 38.442C94.0788 38.2367 93.7568 38.134 93.3275 38.134C92.9728 38.134 92.6835 38.1993 92.4595 38.33C92.2448 38.4513 92.1095 38.624 92.0535 38.848C92.0255 38.96 91.9602 39.0067 91.8575 38.988L90.4995 38.82C90.4528 38.8107 90.4108 38.7967 90.3735 38.778C90.3455 38.75 90.3362 38.7173 90.3455 38.68C90.4202 38.1107 90.7235 37.644 91.2555 37.28C91.7968 36.916 92.4735 36.734 93.2855 36.734ZM92.9495 42.824C93.4068 42.824 93.7988 42.7027 94.1255 42.46C94.4522 42.2173 94.6155 41.9093 94.6155 41.536V40.878C94.6155 40.8313 94.5922 40.808 94.5455 40.808H93.3695C92.8748 40.808 92.4828 40.9013 92.1935 41.088C91.9135 41.2747 91.7735 41.5407 91.7735 41.886C91.7735 42.1847 91.8808 42.418 92.0955 42.586C92.3195 42.7447 92.6042 42.824 92.9495 42.824ZM102.266 41.704C102.275 41.6853 102.28 41.662 102.28 41.634C102.289 41.6247 102.294 41.6107 102.294 41.592C102.322 41.48 102.387 41.4333 102.49 41.452L103.75 41.648C103.797 41.6573 103.834 41.6807 103.862 41.718C103.899 41.746 103.913 41.788 103.904 41.844C103.876 41.9933 103.853 42.1007 103.834 42.166C103.685 42.6793 103.395 43.104 102.966 43.44C102.546 43.7667 102.047 43.9767 101.468 44.07C101.403 44.0793 101.393 44.1073 101.44 44.154C101.86 44.5647 102.07 44.98 102.07 45.4C102.07 45.5027 102.056 45.61 102.028 45.722C101.944 46.03 101.785 46.2493 101.552 46.38C101.319 46.52 101.048 46.59 100.74 46.59C100.46 46.59 100.208 46.5527 99.984 46.478C99.9 46.4407 99.8626 46.3707 99.872 46.268L99.942 45.736C99.9513 45.6147 100.021 45.5773 100.152 45.624C100.245 45.652 100.334 45.666 100.418 45.666C100.577 45.666 100.707 45.6193 100.81 45.526C100.913 45.442 100.964 45.3113 100.964 45.134C100.964 44.8167 100.726 44.4667 100.25 44.084L100.166 44.042C99.6153 43.9487 99.144 43.7293 98.752 43.384C98.36 43.0293 98.0753 42.5907 97.898 42.068C97.7486 41.648 97.674 41.088 97.674 40.388C97.674 39.716 97.7486 39.1653 97.898 38.736C98.094 38.12 98.4533 37.6347 98.976 37.28C99.508 36.916 100.133 36.734 100.852 36.734C101.58 36.734 102.215 36.916 102.756 37.28C103.297 37.644 103.657 38.1013 103.834 38.652C103.881 38.8013 103.913 38.9507 103.932 39.1V39.128C103.932 39.2213 103.881 39.2773 103.778 39.296L102.518 39.478H102.49C102.406 39.478 102.35 39.4313 102.322 39.338C102.322 39.2913 102.317 39.254 102.308 39.226C102.289 39.1513 102.271 39.086 102.252 39.03C102.168 38.7687 102 38.554 101.748 38.386C101.496 38.218 101.197 38.134 100.852 38.134C100.497 38.134 100.194 38.2273 99.942 38.414C99.6993 38.5913 99.536 38.8387 99.452 39.156C99.3586 39.4547 99.312 39.87 99.312 40.402C99.312 40.9153 99.354 41.3307 99.438 41.648C99.5313 41.9747 99.6993 42.236 99.942 42.432C100.185 42.6187 100.488 42.712 100.852 42.712C101.207 42.712 101.51 42.6233 101.762 42.446C102.023 42.2593 102.191 42.012 102.266 41.704ZM108.037 36.734C108.625 36.734 109.143 36.8367 109.591 37.042C110.039 37.2473 110.385 37.532 110.627 37.896C110.87 38.2507 110.991 38.6567 110.991 39.114V43.832C110.991 43.8787 110.973 43.9207 110.935 43.958C110.907 43.986 110.87 44 110.823 44H109.535C109.489 44 109.447 43.986 109.409 43.958C109.381 43.9207 109.367 43.8787 109.367 43.832V43.384C109.367 43.356 109.358 43.342 109.339 43.342C109.321 43.3327 109.302 43.3373 109.283 43.356C108.826 43.86 108.163 44.112 107.295 44.112C106.595 44.112 106.017 43.9347 105.559 43.58C105.111 43.2253 104.887 42.698 104.887 41.998C104.887 41.27 105.139 40.7053 105.643 40.304C106.157 39.8933 106.875 39.688 107.799 39.688H109.297C109.344 39.688 109.367 39.6647 109.367 39.618V39.282C109.367 38.918 109.26 38.638 109.045 38.442C108.831 38.2367 108.509 38.134 108.079 38.134C107.725 38.134 107.435 38.1993 107.211 38.33C106.997 38.4513 106.861 38.624 106.805 38.848C106.777 38.96 106.712 39.0067 106.609 38.988L105.251 38.82C105.205 38.8107 105.163 38.7967 105.125 38.778C105.097 38.75 105.088 38.7173 105.097 38.68C105.172 38.1107 105.475 37.644 106.007 37.28C106.549 36.916 107.225 36.734 108.037 36.734ZM107.701 42.824C108.159 42.824 108.551 42.7027 108.877 42.46C109.204 42.2173 109.367 41.9093 109.367 41.536V40.878C109.367 40.8313 109.344 40.808 109.297 40.808H108.121C107.627 40.808 107.235 40.9013 106.945 41.088C106.665 41.2747 106.525 41.5407 106.525 41.886C106.525 42.1847 106.633 42.418 106.847 42.586C107.071 42.7447 107.356 42.824 107.701 42.824ZM108.975 35.824C108.798 35.824 108.649 35.8053 108.527 35.768C108.406 35.7213 108.252 35.6513 108.065 35.558C108.037 35.5393 107.967 35.5067 107.855 35.46C107.753 35.404 107.664 35.3667 107.589 35.348C107.515 35.32 107.44 35.306 107.365 35.306C107.207 35.306 107.067 35.334 106.945 35.39C106.833 35.4367 106.726 35.516 106.623 35.628C106.577 35.6747 106.53 35.698 106.483 35.698C106.446 35.698 106.413 35.6793 106.385 35.642L105.937 35.166C105.863 35.0913 105.853 35.0167 105.909 34.942C106.059 34.69 106.25 34.494 106.483 34.354C106.726 34.214 106.992 34.144 107.281 34.144C107.468 34.144 107.627 34.172 107.757 34.228C107.888 34.2747 108.061 34.354 108.275 34.466C108.453 34.5593 108.588 34.6247 108.681 34.662C108.775 34.6993 108.873 34.718 108.975 34.718C109.255 34.718 109.489 34.6013 109.675 34.368C109.722 34.3213 109.764 34.298 109.801 34.298C109.848 34.298 109.885 34.3167 109.913 34.354L110.319 34.83C110.375 34.8953 110.389 34.9653 110.361 35.04C110.24 35.2827 110.053 35.474 109.801 35.614C109.559 35.754 109.283 35.824 108.975 35.824ZM115.605 44.112C114.868 44.112 114.233 43.9253 113.701 43.552C113.179 43.1787 112.81 42.6607 112.595 41.998C112.437 41.494 112.357 40.962 112.357 40.402C112.357 39.8047 112.432 39.2727 112.581 38.806C112.796 38.1527 113.169 37.644 113.701 37.28C114.233 36.916 114.873 36.734 115.619 36.734C116.329 36.734 116.94 36.916 117.453 37.28C117.976 37.644 118.345 38.148 118.559 38.792C118.727 39.24 118.811 39.772 118.811 40.388C118.811 40.976 118.732 41.508 118.573 41.984C118.359 42.6467 117.99 43.1693 117.467 43.552C116.945 43.9253 116.324 44.112 115.605 44.112ZM115.605 42.712C115.951 42.712 116.245 42.614 116.487 42.418C116.739 42.222 116.921 41.9467 117.033 41.592C117.127 41.284 117.173 40.892 117.173 40.416C117.173 39.912 117.127 39.52 117.033 39.24C116.931 38.8853 116.753 38.6147 116.501 38.428C116.249 38.232 115.941 38.134 115.577 38.134C115.232 38.134 114.933 38.232 114.681 38.428C114.429 38.6147 114.247 38.8853 114.135 39.24C114.042 39.5667 113.995 39.9587 113.995 40.416C113.995 40.8733 114.042 41.2653 114.135 41.592C114.238 41.9467 114.415 42.222 114.667 42.418C114.929 42.614 115.241 42.712 115.605 42.712ZM125.879 36.734C126.467 36.734 126.985 36.8367 127.433 37.042C127.881 37.2473 128.227 37.532 128.469 37.896C128.712 38.2507 128.833 38.6567 128.833 39.114V43.832C128.833 43.8787 128.815 43.9207 128.777 43.958C128.749 43.986 128.712 44 128.665 44H127.377C127.331 44 127.289 43.986 127.251 43.958C127.223 43.9207 127.209 43.8787 127.209 43.832V43.384C127.209 43.356 127.2 43.342 127.181 43.342C127.163 43.3327 127.144 43.3373 127.125 43.356C126.668 43.86 126.005 44.112 125.137 44.112C124.437 44.112 123.859 43.9347 123.401 43.58C122.953 43.2253 122.729 42.698 122.729 41.998C122.729 41.27 122.981 40.7053 123.485 40.304C123.999 39.8933 124.717 39.688 125.641 39.688H127.139C127.186 39.688 127.209 39.6647 127.209 39.618V39.282C127.209 38.918 127.102 38.638 126.887 38.442C126.673 38.2367 126.351 38.134 125.921 38.134C125.567 38.134 125.277 38.1993 125.053 38.33C124.839 38.4513 124.703 38.624 124.647 38.848C124.619 38.96 124.554 39.0067 124.451 38.988L123.093 38.82C123.047 38.8107 123.005 38.7967 122.967 38.778C122.939 38.75 122.93 38.7173 122.939 38.68C123.014 38.1107 123.317 37.644 123.849 37.28C124.391 36.916 125.067 36.734 125.879 36.734ZM125.543 42.824C126.001 42.824 126.393 42.7027 126.719 42.46C127.046 42.2173 127.209 41.9093 127.209 41.536V40.878C127.209 40.8313 127.186 40.808 127.139 40.808H125.963C125.469 40.808 125.077 40.9013 124.787 41.088C124.507 41.2747 124.367 41.5407 124.367 41.886C124.367 42.1847 124.475 42.418 124.689 42.586C124.913 42.7447 125.198 42.824 125.543 42.824ZM133.502 44.112C132.764 44.112 132.13 43.9253 131.598 43.552C131.075 43.1787 130.706 42.6607 130.492 41.998C130.333 41.494 130.254 40.962 130.254 40.402C130.254 39.8047 130.328 39.2727 130.478 38.806C130.692 38.1527 131.066 37.644 131.598 37.28C132.13 36.916 132.769 36.734 133.516 36.734C134.225 36.734 134.836 36.916 135.35 37.28C135.872 37.644 136.241 38.148 136.456 38.792C136.624 39.24 136.708 39.772 136.708 40.388C136.708 40.976 136.628 41.508 136.47 41.984C136.255 42.6467 135.886 43.1693 135.364 43.552C134.841 43.9253 134.22 44.112 133.502 44.112ZM133.502 42.712C133.847 42.712 134.141 42.614 134.384 42.418C134.636 42.222 134.818 41.9467 134.93 41.592C135.023 41.284 135.07 40.892 135.07 40.416C135.07 39.912 135.023 39.52 134.93 39.24C134.827 38.8853 134.65 38.6147 134.398 38.428C134.146 38.232 133.838 38.134 133.474 38.134C133.128 38.134 132.83 38.232 132.578 38.428C132.326 38.6147 132.144 38.8853 132.032 39.24C131.938 39.5667 131.892 39.9587 131.892 40.416C131.892 40.8733 131.938 41.2653 132.032 41.592C132.134 41.9467 132.312 42.222 132.564 42.418C132.825 42.614 133.138 42.712 133.502 42.712ZM53.298 61.112C52.598 61.112 51.982 60.9767 51.45 60.706C50.918 60.426 50.5073 60.0387 50.218 59.544C49.9287 59.0493 49.784 58.4753 49.784 57.822V54.364C49.784 53.7107 49.9287 53.1367 50.218 52.642C50.5073 52.1473 50.918 51.7647 51.45 51.494C51.982 51.2233 52.598 51.088 53.298 51.088C53.9887 51.088 54.6 51.2187 55.132 51.48C55.664 51.7413 56.0747 52.11 56.364 52.586C56.6533 53.062 56.798 53.6127 56.798 54.238C56.798 54.2847 56.7793 54.3267 56.742 54.364C56.714 54.392 56.6767 54.406 56.63 54.406L55.342 54.476C55.23 54.476 55.174 54.4247 55.174 54.322C55.174 53.7713 55.0013 53.328 54.656 52.992C54.32 52.656 53.8673 52.488 53.298 52.488C52.7287 52.488 52.2713 52.656 51.926 52.992C51.5807 53.328 51.408 53.7713 51.408 54.322V57.892C51.408 58.4333 51.5807 58.872 51.926 59.208C52.2713 59.544 52.7287 59.712 53.298 59.712C53.8673 59.712 54.32 59.5487 54.656 59.222C55.0013 58.886 55.174 58.4427 55.174 57.892C55.174 57.7893 55.23 57.738 55.342 57.738L56.63 57.794C56.6767 57.794 56.714 57.808 56.742 57.836C56.7793 57.864 56.798 57.8967 56.798 57.934C56.798 58.5687 56.6533 59.1287 56.364 59.614C56.0747 60.09 55.664 60.4587 55.132 60.72C54.6 60.9813 53.9887 61.112 53.298 61.112ZM59.3096 52.866C59.0202 52.866 58.7822 52.7727 58.5956 52.586C58.4089 52.3993 58.3156 52.1613 58.3156 51.872C58.3156 51.5827 58.4089 51.3447 58.5956 51.158C58.7822 50.9713 59.0202 50.878 59.3096 50.878C59.5989 50.878 59.8369 50.9713 60.0236 51.158C60.2102 51.3447 60.3036 51.5827 60.3036 51.872C60.3036 52.1613 60.2102 52.3993 60.0236 52.586C59.8369 52.7727 59.5989 52.866 59.3096 52.866ZM58.6376 61C58.5909 61 58.5489 60.986 58.5116 60.958C58.4836 60.9207 58.4696 60.8787 58.4696 60.832V54C58.4696 53.9533 58.4836 53.916 58.5116 53.888C58.5489 53.8507 58.5909 53.832 58.6376 53.832H59.9256C59.9722 53.832 60.0096 53.8507 60.0376 53.888C60.0749 53.916 60.0936 53.9533 60.0936 54V60.832C60.0936 60.8787 60.0749 60.9207 60.0376 60.958C60.0096 60.986 59.9722 61 59.9256 61H58.6376ZM66.3919 51.368C66.3919 51.3213 66.4059 51.284 66.4339 51.256C66.4713 51.2187 66.5133 51.2 66.5599 51.2H67.8479C67.8946 51.2 67.9319 51.2187 67.9599 51.256C67.9973 51.284 68.0159 51.3213 68.0159 51.368V60.832C68.0159 60.8787 67.9973 60.9207 67.9599 60.958C67.9319 60.986 67.8946 61 67.8479 61H66.5599C66.5133 61 66.4713 60.986 66.4339 60.958C66.4059 60.9207 66.3919 60.8787 66.3919 60.832V60.412C66.3919 60.384 66.3826 60.3653 66.3639 60.356C66.3453 60.3467 66.3266 60.356 66.3079 60.384C65.8973 60.8693 65.3606 61.112 64.6979 61.112C64.0353 61.112 63.4753 60.9393 63.0179 60.594C62.5606 60.2487 62.2293 59.768 62.0239 59.152C61.8559 58.6293 61.7719 58.046 61.7719 57.402C61.7719 56.7393 61.8513 56.17 62.0099 55.694C62.2153 55.078 62.5466 54.5973 63.0039 54.252C63.4613 53.9067 64.0353 53.734 64.7259 53.734C65.3699 53.734 65.8973 53.9673 66.3079 54.434C66.3266 54.4527 66.3453 54.462 66.3639 54.462C66.3826 54.4527 66.3919 54.434 66.3919 54.406V51.368ZM66.0559 59.04C66.2706 58.6573 66.3779 58.116 66.3779 57.416C66.3779 56.688 66.2613 56.1327 66.0279 55.75C65.7759 55.3393 65.4213 55.134 64.9639 55.134C64.4879 55.134 64.1146 55.33 63.8439 55.722C63.5639 56.1327 63.4239 56.702 63.4239 57.43C63.4239 58.0833 63.5359 58.62 63.7599 59.04C64.0213 59.488 64.4179 59.712 64.9499 59.712C65.4259 59.712 65.7946 59.488 66.0559 59.04ZM72.5042 53.734C73.0923 53.734 73.6103 53.8367 74.0583 54.042C74.5063 54.2473 74.8516 54.532 75.0943 54.896C75.3369 55.2507 75.4583 55.6567 75.4583 56.114V60.832C75.4583 60.8787 75.4396 60.9207 75.4023 60.958C75.3743 60.986 75.3369 61 75.2903 61H74.0023C73.9556 61 73.9136 60.986 73.8763 60.958C73.8483 60.9207 73.8343 60.8787 73.8343 60.832V60.384C73.8343 60.356 73.8249 60.342 73.8063 60.342C73.7876 60.3327 73.7689 60.3373 73.7503 60.356C73.2929 60.86 72.6303 61.112 71.7623 61.112C71.0623 61.112 70.4836 60.9347 70.0263 60.58C69.5783 60.2253 69.3543 59.698 69.3543 58.998C69.3543 58.27 69.6063 57.7053 70.1103 57.304C70.6236 56.8933 71.3423 56.688 72.2663 56.688H73.7643C73.8109 56.688 73.8343 56.6647 73.8343 56.618V56.282C73.8343 55.918 73.7269 55.638 73.5123 55.442C73.2976 55.2367 72.9756 55.134 72.5463 55.134C72.1916 55.134 71.9023 55.1993 71.6783 55.33C71.4636 55.4513 71.3283 55.624 71.2723 55.848C71.2443 55.96 71.1789 56.0067 71.0763 55.988L69.7183 55.82C69.6716 55.8107 69.6296 55.7967 69.5923 55.778C69.5643 55.75 69.5549 55.7173 69.5643 55.68C69.6389 55.1107 69.9423 54.644 70.4743 54.28C71.0156 53.916 71.6923 53.734 72.5042 53.734ZM72.1683 59.824C72.6256 59.824 73.0176 59.7027 73.3443 59.46C73.6709 59.2173 73.8343 58.9093 73.8343 58.536V57.878C73.8343 57.8313 73.8109 57.808 73.7643 57.808H72.5883C72.0936 57.808 71.7016 57.9013 71.4123 58.088C71.1323 58.2747 70.9923 58.5407 70.9923 58.886C70.9923 59.1847 71.0996 59.418 71.3143 59.586C71.5383 59.7447 71.8229 59.824 72.1683 59.824ZM81.5267 51.368C81.5267 51.3213 81.5407 51.284 81.5687 51.256C81.606 51.2187 81.648 51.2 81.6947 51.2H82.9827C83.0294 51.2 83.0667 51.2187 83.0947 51.256C83.132 51.284 83.1507 51.3213 83.1507 51.368V60.832C83.1507 60.8787 83.132 60.9207 83.0947 60.958C83.0667 60.986 83.0294 61 82.9827 61H81.6947C81.648 61 81.606 60.986 81.5687 60.958C81.5407 60.9207 81.5267 60.8787 81.5267 60.832V60.412C81.5267 60.384 81.5174 60.3653 81.4987 60.356C81.48 60.3467 81.4614 60.356 81.4427 60.384C81.032 60.8693 80.4954 61.112 79.8327 61.112C79.17 61.112 78.61 60.9393 78.1527 60.594C77.6954 60.2487 77.364 59.768 77.1587 59.152C76.9907 58.6293 76.9067 58.046 76.9067 57.402C76.9067 56.7393 76.986 56.17 77.1447 55.694C77.35 55.078 77.6814 54.5973 78.1387 54.252C78.596 53.9067 79.17 53.734 79.8607 53.734C80.5047 53.734 81.032 53.9673 81.4427 54.434C81.4614 54.4527 81.48 54.462 81.4987 54.462C81.5174 54.4527 81.5267 54.434 81.5267 54.406V51.368ZM81.1907 59.04C81.4054 58.6573 81.5127 58.116 81.5127 57.416C81.5127 56.688 81.396 56.1327 81.1627 55.75C80.9107 55.3393 80.556 55.134 80.0987 55.134C79.6227 55.134 79.2494 55.33 78.9787 55.722C78.6987 56.1327 78.5587 56.702 78.5587 57.43C78.5587 58.0833 78.6707 58.62 78.8947 59.04C79.156 59.488 79.5527 59.712 80.0847 59.712C80.5607 59.712 80.9294 59.488 81.1907 59.04ZM87.639 53.734C88.227 53.734 88.745 53.8367 89.193 54.042C89.641 54.2473 89.9863 54.532 90.229 54.896C90.4717 55.2507 90.593 55.6567 90.593 56.114V60.832C90.593 60.8787 90.5743 60.9207 90.537 60.958C90.509 60.986 90.4717 61 90.425 61H89.137C89.0903 61 89.0483 60.986 89.011 60.958C88.983 60.9207 88.969 60.8787 88.969 60.832V60.384C88.969 60.356 88.9597 60.342 88.941 60.342C88.9223 60.3327 88.9037 60.3373 88.885 60.356C88.4277 60.86 87.765 61.112 86.897 61.112C86.197 61.112 85.6183 60.9347 85.161 60.58C84.713 60.2253 84.489 59.698 84.489 58.998C84.489 58.27 84.741 57.7053 85.245 57.304C85.7583 56.8933 86.477 56.688 87.401 56.688H88.899C88.9457 56.688 88.969 56.6647 88.969 56.618V56.282C88.969 55.918 88.8617 55.638 88.647 55.442C88.4323 55.2367 88.1103 55.134 87.681 55.134C87.3263 55.134 87.037 55.1993 86.813 55.33C86.5983 55.4513 86.463 55.624 86.407 55.848C86.379 55.96 86.3137 56.0067 86.211 55.988L84.853 55.82C84.8063 55.8107 84.7643 55.7967 84.727 55.778C84.699 55.75 84.6897 55.7173 84.699 55.68C84.7737 55.1107 85.077 54.644 85.609 54.28C86.1503 53.916 86.827 53.734 87.639 53.734ZM87.303 59.824C87.7603 59.824 88.1523 59.7027 88.479 59.46C88.8057 59.2173 88.969 58.9093 88.969 58.536V57.878C88.969 57.8313 88.9457 57.808 88.899 57.808H87.723C87.2283 57.808 86.8363 57.9013 86.547 58.088C86.267 58.2747 86.127 58.5407 86.127 58.886C86.127 59.1847 86.2343 59.418 86.449 59.586C86.673 59.7447 86.9577 59.824 87.303 59.824ZM88.577 52.824C88.3997 52.824 88.2503 52.8053 88.129 52.768C88.0077 52.7213 87.8537 52.6513 87.667 52.558C87.639 52.5393 87.569 52.5067 87.457 52.46C87.3543 52.404 87.2657 52.3667 87.191 52.348C87.1163 52.32 87.0417 52.306 86.967 52.306C86.8083 52.306 86.6683 52.334 86.547 52.39C86.435 52.4367 86.3277 52.516 86.225 52.628C86.1783 52.6747 86.1317 52.698 86.085 52.698C86.0477 52.698 86.015 52.6793 85.987 52.642L85.539 52.166C85.4643 52.0913 85.455 52.0167 85.511 51.942C85.6603 51.69 85.8517 51.494 86.085 51.354C86.3277 51.214 86.5937 51.144 86.883 51.144C87.0697 51.144 87.2283 51.172 87.359 51.228C87.4897 51.2747 87.6623 51.354 87.877 51.466C88.0543 51.5593 88.1897 51.6247 88.283 51.662C88.3763 51.6993 88.4743 51.718 88.577 51.718C88.857 51.718 89.0903 51.6013 89.277 51.368C89.3237 51.3213 89.3657 51.298 89.403 51.298C89.4497 51.298 89.487 51.3167 89.515 51.354L89.921 51.83C89.977 51.8953 89.991 51.9653 89.963 52.04C89.8417 52.2827 89.655 52.474 89.403 52.614C89.1603 52.754 88.885 52.824 88.577 52.824ZM95.2068 61.112C94.4694 61.112 93.8348 60.9253 93.3028 60.552C92.7801 60.1787 92.4114 59.6607 92.1968 58.998C92.0381 58.494 91.9588 57.962 91.9588 57.402C91.9588 56.8047 92.0334 56.2727 92.1828 55.806C92.3974 55.1527 92.7708 54.644 93.3028 54.28C93.8348 53.916 94.4741 53.734 95.2208 53.734C95.9301 53.734 96.5414 53.916 97.0548 54.28C97.5774 54.644 97.9461 55.148 98.1608 55.792C98.3288 56.24 98.4128 56.772 98.4128 57.388C98.4128 57.976 98.3334 58.508 98.1748 58.984C97.9601 59.6467 97.5914 60.1693 97.0688 60.552C96.5461 60.9253 95.9254 61.112 95.2068 61.112ZM95.2068 59.712C95.5521 59.712 95.8461 59.614 96.0888 59.418C96.3408 59.222 96.5228 58.9467 96.6348 58.592C96.7281 58.284 96.7748 57.892 96.7748 57.416C96.7748 56.912 96.7281 56.52 96.6348 56.24C96.5321 55.8853 96.3548 55.6147 96.1028 55.428C95.8508 55.232 95.5428 55.134 95.1788 55.134C94.8334 55.134 94.5348 55.232 94.2828 55.428C94.0308 55.6147 93.8488 55.8853 93.7368 56.24C93.6434 56.5667 93.5968 56.9587 93.5968 57.416C93.5968 57.8733 93.6434 58.2653 93.7368 58.592C93.8394 58.9467 94.0168 59.222 94.2688 59.418C94.5301 59.614 94.8428 59.712 95.2068 59.712Z" fill="#A7D7DE"/>
</svg>
