<svg width="30" height="30" viewBox="0 0 30 30" fill="none" xmlns="http://www.w3.org/2000/svg">
<path d="M25.4464 4.41964C22.7009 1.60714 18.9509 0 14.933 0C6.76339 0 0.0669643 6.69643 0.0669643 14.8661C0.0669643 17.5446 0.803571 20.0893 2.07589 22.2991L0 30L7.83482 27.9911C10.0446 29.1295 12.4554 29.7991 14.933 29.7991C23.1696 29.7991 30 23.1027 30 14.933C30 10.9152 28.2589 7.23214 25.4464 4.41964ZM14.933 27.2545C12.7232 27.2545 10.5804 26.6518 8.63839 25.5134L8.23661 25.2455L3.54911 26.5179L4.82143 21.9643L4.48661 21.4955C3.28125 19.4866 2.61161 17.2098 2.61161 14.8661C2.61161 8.10268 8.16964 2.54464 15 2.54464C18.2812 2.54464 21.3616 3.81696 23.7054 6.16071C26.0491 8.50446 27.4554 11.5848 27.4554 14.933C27.4554 21.6964 21.7634 27.2545 14.933 27.2545ZM21.7634 18.0134C21.3616 17.8125 19.5536 16.942 19.2188 16.808C18.8839 16.6741 18.6161 16.6071 18.3482 17.0089C18.1473 17.3438 17.4107 18.2143 17.2098 18.4821C16.942 18.683 16.7411 18.75 16.4062 18.5491C14.1964 17.4777 12.7902 16.6071 11.317 14.1295C10.9152 13.4598 11.7188 13.5268 12.3884 12.1205C12.5223 11.8527 12.4554 11.6518 12.3884 11.4509C12.3214 11.25 11.5179 9.44196 11.25 8.70536C10.9152 7.96875 10.6473 8.03571 10.3795 8.03571C10.1786 8.03571 9.91071 8.03571 9.70982 8.03571C9.44196 8.03571 9.04018 8.10268 8.70536 8.50446C8.37054 8.90625 7.43304 9.77679 7.43304 11.5848C7.43304 13.4598 8.70536 15.2009 8.90625 15.4688C9.10714 15.6696 11.5179 19.4196 15.2679 21.0268C17.6116 22.0982 18.5491 22.1652 19.7545 21.9643C20.4241 21.8973 21.8973 21.0938 22.2321 20.2232C22.567 19.3527 22.567 18.6161 22.433 18.4821C22.3661 18.2812 22.0982 18.2143 21.7634 18.0134Z" fill="#ADDCF6"/>
</svg>
